<?xml version="1.0" encoding="utf-8" standalone="no"?>
<!DOCTYPE svg PUBLIC "-//W3C//DTD SVG 1.1//EN"
  "http://www.w3.org/Graphics/SVG/1.1/DTD/svg11.dtd">
<svg xmlns:xlink="http://www.w3.org/1999/xlink" width="216.467904pt" height="134.806076pt" viewBox="0 0 216.467904 134.806076" xmlns="http://www.w3.org/2000/svg" version="1.1">
 <metadata>
  <rdf:RDF xmlns:dc="http://purl.org/dc/elements/1.1/" xmlns:cc="http://creativecommons.org/ns#" xmlns:rdf="http://www.w3.org/1999/02/22-rdf-syntax-ns#">
   <cc:Work>
    <dc:type rdf:resource="http://purl.org/dc/dcmitype/StillImage"/>
    <dc:date>2025-09-20T15:44:33.589693</dc:date>
    <dc:format>image/svg+xml</dc:format>
    <dc:creator>
     <cc:Agent>
      <dc:title>Matplotlib v3.10.0, https://matplotlib.org/</dc:title>
     </cc:Agent>
    </dc:creator>
   </cc:Work>
  </rdf:RDF>
 </metadata>
 <defs>
  <style type="text/css">*{stroke-linejoin: round; stroke-linecap: butt}</style>
 </defs>
 <g id="figure_1">
  <g id="patch_1">
   <path d="M 0 134.806076 
L 216.467904 134.806076 
L 216.467904 0 
L 0 0 
z
" style="fill: #ffffff"/>
  </g>
  <g id="axes_1">
   <g id="patch_2">
    <path d="M 36.561965 51.597942 
L 111.585769 51.597942 
L 111.585769 15.698543 
L 36.561965 15.698543 
z
" style="fill: #ffffff"/>
   </g>
   <g id="FillBetweenPolyCollection_1">
    <defs>
     <path id="m36895b9610" d="M 39.972138 -114.705955 
L 39.972138 -114.648259 
L 42.323981 -111.431662 
L 44.675825 -111.284506 
L 47.027668 -111.156338 
L 49.379512 -111.07256 
L 51.731355 -110.940065 
L 54.083198 -110.845711 
L 56.435042 -110.769742 
L 58.786885 -110.714979 
L 61.138728 -110.666285 
L 63.490572 -110.635392 
L 65.842415 -110.586783 
L 68.194259 -110.556877 
L 70.546102 -110.531305 
L 72.897945 -110.508668 
L 75.249789 -110.476064 
L 77.601632 -110.480501 
L 79.953476 -110.441021 
L 82.305319 -110.450054 
L 84.657162 -110.430539 
L 87.009006 -110.423805 
L 89.360849 -110.391161 
L 91.712692 -110.385402 
L 94.064536 -110.379752 
L 96.416379 -110.339421 
L 98.768223 -110.369721 
L 101.120066 -110.334995 
L 103.471909 -110.314848 
L 105.823753 -110.297013 
L 108.175596 -110.328901 
L 108.175596 -110.410658 
L 108.175596 -110.410658 
L 105.823753 -110.45961 
L 103.471909 -110.490471 
L 101.120066 -110.442211 
L 98.768223 -110.48658 
L 96.416379 -110.534577 
L 94.064536 -110.568268 
L 91.712692 -110.534167 
L 89.360849 -110.523594 
L 87.009006 -110.547723 
L 84.657162 -110.572746 
L 82.305319 -110.574209 
L 79.953476 -110.676651 
L 77.601632 -110.634932 
L 75.249789 -110.616654 
L 72.897945 -110.677607 
L 70.546102 -110.715184 
L 68.194259 -110.716947 
L 65.842415 -110.764617 
L 63.490572 -110.747822 
L 61.138728 -110.863796 
L 58.786885 -110.879482 
L 56.435042 -110.922482 
L 54.083198 -111.033338 
L 51.731355 -111.144918 
L 49.379512 -111.219607 
L 47.027668 -111.339959 
L 44.675825 -111.465192 
L 42.323981 -111.563302 
L 39.972138 -114.705955 
z
" style="stroke: #0000ff; stroke-opacity: 0.2"/>
    </defs>
    <g clip-path="url(#p66bdfb3d01)">
     <use xlink:href="#m36895b9610" x="0" y="134.806076" style="fill: #0000ff; fill-opacity: 0.2; stroke: #0000ff; stroke-opacity: 0.2"/>
    </g>
   </g>
   <g id="FillBetweenPolyCollection_2">
    <defs>
     <path id="m95d927cf56" d="M 39.972138 -114.898311 
L 39.972138 -114.864507 
L 42.323981 -112.167702 
L 44.675825 -112.038919 
L 47.027668 -111.913294 
L 49.379512 -111.833583 
L 51.731355 -111.711899 
L 54.083198 -111.637842 
L 56.435042 -111.55204 
L 58.786885 -111.503823 
L 61.138728 -111.47316 
L 63.490572 -111.454949 
L 65.842415 -111.401429 
L 68.194259 -111.375729 
L 70.546102 -111.357282 
L 72.897945 -111.327059 
L 75.249789 -111.321286 
L 77.601632 -111.318459 
L 79.953476 -111.291468 
L 82.305319 -111.29709 
L 84.657162 -111.283366 
L 87.009006 -111.269523 
L 89.360849 -111.231768 
L 91.712692 -111.231376 
L 94.064536 -111.213847 
L 96.416379 -111.195081 
L 98.768223 -111.232941 
L 101.120066 -111.211223 
L 103.471909 -111.166533 
L 105.823753 -111.164563 
L 108.175596 -111.201295 
L 108.175596 -111.279823 
L 108.175596 -111.279823 
L 105.823753 -111.341527 
L 103.471909 -111.349792 
L 101.120066 -111.293266 
L 98.768223 -111.323111 
L 96.416379 -111.38562 
L 94.064536 -111.412268 
L 91.712692 -111.399461 
L 89.360849 -111.371388 
L 87.009006 -111.381272 
L 84.657162 -111.402337 
L 82.305319 -111.385284 
L 79.953476 -111.491597 
L 77.601632 -111.429314 
L 75.249789 -111.43508 
L 72.897945 -111.521104 
L 70.546102 -111.527377 
L 68.194259 -111.516036 
L 65.842415 -111.548965 
L 63.490572 -111.546499 
L 61.138728 -111.628808 
L 58.786885 -111.660365 
L 56.435042 -111.692347 
L 54.083198 -111.79164 
L 51.731355 -111.882118 
L 49.379512 -111.965288 
L 47.027668 -112.044682 
L 44.675825 -112.162089 
L 42.323981 -112.216405 
L 39.972138 -114.898311 
z
" style="stroke: #000000; stroke-opacity: 0.2"/>
    </defs>
    <g clip-path="url(#p66bdfb3d01)">
     <use xlink:href="#m95d927cf56" x="0" y="134.806076" style="fill-opacity: 0.2; stroke: #000000; stroke-opacity: 0.2"/>
    </g>
   </g>
   <g id="matplotlib.axis_1">
    <g id="xtick_1">
     <g id="line2d_1">
      <defs>
       <path id="m84fcdf1a76" d="M 0 0 
L 0 3.5 
" style="stroke: #000000; stroke-width: 0.8"/>
      </defs>
      <g>
       <use xlink:href="#m84fcdf1a76" x="39.972138" y="51.597942" style="stroke: #000000; stroke-width: 0.8"/>
      </g>
     </g>
    </g>
    <g id="xtick_2">
     <g id="line2d_2">
      <g>
       <use xlink:href="#m84fcdf1a76" x="87.009006" y="51.597942" style="stroke: #000000; stroke-width: 0.8"/>
      </g>
     </g>
    </g>
   </g>
   <g id="matplotlib.axis_2">
    <g id="ytick_1">
     <g id="line2d_3">
      <defs>
       <path id="m0b49de771c" d="M 0 0 
L -3.5 0 
" style="stroke: #000000; stroke-width: 0.8"/>
      </defs>
      <g>
       <use xlink:href="#m0b49de771c" x="36.561965" y="51.597942" style="stroke: #000000; stroke-width: 0.8"/>
      </g>
     </g>
     <g id="text_1">
      <!-- $10^{-1}$ -->
      <g transform="translate(11.684547 54.365343) scale(0.08 -0.08)">
       <defs>
        <path id="CMR17-31" d="M 1702 4083 
C 1702 4217 1696 4224 1606 4224 
C 1357 3927 979 3833 621 3820 
C 602 3820 570 3820 563 3808 
C 557 3795 557 3782 557 3648 
C 755 3648 1088 3686 1344 3839 
L 1344 467 
C 1344 243 1331 166 781 166 
L 589 166 
L 589 0 
C 896 6 1216 12 1523 12 
C 1830 12 2150 6 2458 0 
L 2458 166 
L 2266 166 
C 1715 166 1702 236 1702 467 
L 1702 4083 
z
" transform="scale(0.015625)"/>
        <path id="CMR17-30" d="M 2688 2038 
C 2688 2430 2682 3099 2413 3613 
C 2176 4063 1798 4224 1466 4224 
C 1158 4224 768 4082 525 3620 
C 269 3137 243 2539 243 2038 
C 243 1671 250 1112 448 623 
C 723 -39 1216 -128 1466 -128 
C 1760 -128 2208 -7 2470 604 
C 2662 1048 2688 1568 2688 2038 
z
M 1466 -26 
C 1056 -26 813 328 723 816 
C 653 1196 653 1749 653 2109 
C 653 2604 653 3015 736 3407 
C 858 3954 1216 4121 1466 4121 
C 1728 4121 2067 3947 2189 3420 
C 2272 3054 2278 2623 2278 2109 
C 2278 1691 2278 1176 2202 797 
C 2067 96 1690 -26 1466 -26 
z
" transform="scale(0.015625)"/>
        <path id="CMSY10-0" d="M 4218 1472 
C 4326 1472 4442 1472 4442 1600 
C 4442 1728 4326 1728 4218 1728 
L 755 1728 
C 646 1728 531 1728 531 1600 
C 531 1472 646 1472 755 1472 
L 4218 1472 
z
" transform="scale(0.015625)"/>
       </defs>
       <use xlink:href="#CMR17-31" transform="scale(0.996264)"/>
       <use xlink:href="#CMR17-30" transform="translate(45.690477 0) scale(0.996264)"/>
       <use xlink:href="#CMSY10-0" transform="translate(91.380954 36.153639) scale(0.697382)"/>
       <use xlink:href="#CMR17-31" transform="translate(145.621947 36.153639) scale(0.697382)"/>
      </g>
     </g>
    </g>
    <g id="ytick_2">
     <g id="line2d_4">
      <g>
       <use xlink:href="#m0b49de771c" x="36.561965" y="15.698543" style="stroke: #000000; stroke-width: 0.8"/>
      </g>
     </g>
     <g id="text_2">
      <!-- $10^{0}$ -->
      <g transform="translate(17.440687 18.465944) scale(0.08 -0.08)">
       <use xlink:href="#CMR17-31" transform="scale(0.996264)"/>
       <use xlink:href="#CMR17-30" transform="translate(45.690477 0) scale(0.996264)"/>
       <use xlink:href="#CMR17-30" transform="translate(91.380954 36.153639) scale(0.697382)"/>
      </g>
     </g>
    </g>
    <g id="text_3">
     <!-- $\mathcal{L}$ -->
     <g transform="translate(9.134802 36.560137) rotate(-90) scale(0.08 -0.08)">
      <defs>
       <path id="CMSY10-4c" d="M 1152 609 
C 1498 1149 1606 1561 1690 1902 
C 1914 2790 2157 3561 2554 4005 
C 2630 4089 2682 4147 2886 4147 
C 3328 4147 3341 3703 3341 3613 
C 3341 3497 3309 3407 3309 3375 
C 3309 3330 3347 3330 3354 3330 
C 3456 3330 3629 3401 3789 3516 
C 3904 3606 3962 3671 3962 3934 
C 3962 4281 3782 4544 3424 4544 
C 3219 4544 2656 4492 2029 3857 
C 1517 3330 1216 2172 1094 1690 
C 979 1246 928 1047 736 661 
C 691 583 525 300 435 217 
C 262 57 198 -58 198 -90 
C 198 -103 211 -128 256 -128 
C 282 -128 416 -103 582 6 
C 691 70 704 83 851 236 
C 1171 230 1395 172 1798 57 
C 2125 -32 2451 -128 2778 -128 
C 3296 -128 3821 262 4026 545 
C 4154 719 4192 879 4192 899 
C 4192 944 4154 944 4147 944 
C 4045 944 3891 873 3782 796 
C 3610 686 3597 648 3558 538 
C 3526 436 3488 384 3462 346 
C 3411 268 3405 268 3309 268 
C 3002 268 2682 365 2259 481 
C 2080 532 1728 635 1408 635 
C 1325 635 1235 628 1152 609 
z
" transform="scale(0.015625)"/>
      </defs>
      <use xlink:href="#CMSY10-4c" transform="scale(0.996264)"/>
     </g>
    </g>
   </g>
   <g id="line2d_5">
    <path d="M 39.972138 20.128943 
L 42.323981 23.308456 
L 44.675825 23.430966 
L 47.027668 23.557657 
L 49.379512 23.659819 
L 51.731355 23.763248 
L 54.083198 23.86627 
L 56.435042 23.959778 
L 58.786885 24.008629 
L 61.138728 24.040723 
L 63.490572 24.114368 
L 65.842415 24.130123 
L 68.194259 24.168959 
L 70.546102 24.182561 
L 72.897945 24.21271 
L 75.249789 24.259559 
L 77.601632 24.248169 
L 79.953476 24.246795 
L 82.305319 24.293821 
L 84.657162 24.304272 
L 87.009006 24.320189 
L 89.360849 24.348559 
L 91.712692 24.346115 
L 94.064536 24.331782 
L 96.416379 24.368772 
L 98.768223 24.377816 
L 101.120066 24.417381 
L 103.471909 24.40317 
L 105.823753 24.427553 
L 108.175596 24.436243 
" clip-path="url(#p66bdfb3d01)" style="fill: none; stroke: #0000ff; stroke-width: 1.5; stroke-linecap: square"/>
   </g>
   <g id="line2d_6">
    <path d="M 39.972138 19.924658 
L 42.323981 22.614004 
L 44.675825 22.705451 
L 47.027668 22.82695 
L 49.379512 22.906502 
L 51.731355 23.008835 
L 54.083198 23.091145 
L 56.435042 23.183725 
L 58.786885 23.223786 
L 61.138728 23.254898 
L 63.490572 23.305285 
L 65.842415 23.330705 
L 68.194259 23.360036 
L 70.546102 23.363515 
L 72.897945 23.381693 
L 75.249789 23.42779 
L 77.601632 23.432091 
L 79.953476 23.414222 
L 82.305319 23.464827 
L 84.657162 23.463112 
L 87.009006 23.480579 
L 89.360849 23.504342 
L 91.712692 23.490431 
L 94.064536 23.492703 
L 96.416379 23.515435 
L 98.768223 23.527985 
L 101.120066 23.553778 
L 103.471909 23.547645 
L 105.823753 23.55278 
L 108.175596 23.565468 
" clip-path="url(#p66bdfb3d01)" style="fill: none; stroke: #000000; stroke-width: 1.5; stroke-linecap: square"/>
   </g>
   <g id="line2d_7">
    <path d="M 39.972138 20.171806 
L 42.323981 23.392171 
L 44.675825 23.627779 
L 47.027668 23.72306 
L 49.379512 23.796835 
L 51.731355 23.918726 
L 54.083198 23.997648 
L 56.435042 24.103044 
L 58.786885 24.162926 
L 61.138728 24.165976 
L 63.490572 24.203873 
L 65.842415 24.307638 
L 68.194259 24.340883 
L 70.546102 24.311634 
L 72.897945 24.316316 
L 75.249789 24.415737 
L 77.601632 24.375619 
L 79.953476 24.433303 
L 82.305319 24.388964 
L 84.657162 24.408473 
L 87.009006 24.425299 
L 89.360849 24.427375 
L 91.712692 24.475629 
L 94.064536 24.458673 
L 96.416379 24.495818 
L 98.768223 24.466946 
L 101.120066 24.524695 
L 103.471909 24.515616 
L 105.823753 24.538242 
L 108.175596 24.505661 
" clip-path="url(#p66bdfb3d01)" style="fill: none; stroke-dasharray: 5.55,2.4; stroke-dashoffset: 0; stroke: #0000ff; stroke-width: 1.5"/>
   </g>
   <g id="line2d_8">
    <path d="M 39.972138 20.046869 
L 42.323981 23.194602 
L 44.675825 23.205666 
L 47.027668 23.163731 
L 49.379512 23.500161 
L 51.731355 23.560186 
L 54.083198 23.590636 
L 56.435042 23.777226 
L 58.786885 23.848689 
L 61.138728 23.813682 
L 63.490572 23.997272 
L 65.842415 23.956604 
L 68.194259 24.021293 
L 70.546102 23.927398 
L 72.897945 23.941483 
L 75.249789 24.078516 
L 77.601632 24.073588 
L 79.953476 23.828459 
L 82.305319 24.155898 
L 84.657162 24.11011 
L 87.009006 24.166049 
L 89.360849 24.128476 
L 91.712692 24.080705 
L 94.064536 23.904778 
L 96.416379 23.943734 
L 98.768223 24.252362 
L 101.120066 24.26959 
L 103.471909 24.031812 
L 105.823753 24.138947 
L 108.175596 24.315825 
" clip-path="url(#p66bdfb3d01)" style="fill: none; stroke-dasharray: 1.5,2.475; stroke-dashoffset: 0; stroke: #0000ff; stroke-width: 1.5"/>
   </g>
   <g id="line2d_9">
    <path d="M 39.972138 19.944777 
L 42.323981 22.681442 
L 44.675825 22.850239 
L 47.027668 22.984182 
L 49.379512 23.038523 
L 51.731355 23.148069 
L 54.083198 23.223892 
L 56.435042 23.321815 
L 58.786885 23.393712 
L 61.138728 23.365673 
L 63.490572 23.385051 
L 65.842415 23.481078 
L 68.194259 23.510605 
L 70.546102 23.483807 
L 72.897945 23.48979 
L 75.249789 23.531437 
L 77.601632 23.533742 
L 79.953476 23.587986 
L 82.305319 23.53372 
L 84.657162 23.581008 
L 87.009006 23.588145 
L 89.360849 23.598011 
L 91.712692 23.61741 
L 94.064536 23.587243 
L 96.416379 23.606685 
L 98.768223 23.616384 
L 101.120066 23.635424 
L 103.471909 23.620323 
L 105.823753 23.651383 
L 108.175596 23.622498 
" clip-path="url(#p66bdfb3d01)" style="fill: none; stroke-dasharray: 5.55,2.4; stroke-dashoffset: 0; stroke: #000000; stroke-width: 1.5"/>
   </g>
   <g id="line2d_10">
    <path d="M 39.972138 19.875481 
L 42.323981 22.56154 
L 44.675825 22.618461 
L 47.027668 22.630681 
L 49.379512 22.739873 
L 51.731355 22.81959 
L 54.083198 22.872444 
L 56.435042 23.011937 
L 58.786885 23.064998 
L 61.138728 23.066851 
L 63.490572 23.201496 
L 65.842415 23.199595 
L 68.194259 23.217141 
L 70.546102 23.153571 
L 72.897945 22.966699 
L 75.249789 23.301494 
L 77.601632 23.32784 
L 79.953476 23.017158 
L 82.305319 23.37669 
L 84.657162 23.328804 
L 87.009006 23.362018 
L 89.360849 23.242933 
L 91.712692 23.157974 
L 94.064536 23.018143 
L 96.416379 23.071793 
L 98.768223 23.450932 
L 101.120066 23.423821 
L 103.471909 23.12692 
L 105.823753 23.180518 
L 108.175596 23.454786 
" clip-path="url(#p66bdfb3d01)" style="fill: none; stroke-dasharray: 1.5,2.475; stroke-dashoffset: 0; stroke: #000000; stroke-width: 1.5"/>
   </g>
   <g id="patch_3">
    <path d="M 36.561965 51.597942 
L 36.561965 15.698543 
" style="fill: none; stroke: #000000; stroke-width: 0.8; stroke-linejoin: miter; stroke-linecap: square"/>
   </g>
   <g id="patch_4">
    <path d="M 111.585769 51.597942 
L 111.585769 15.698543 
" style="fill: none; stroke: #000000; stroke-width: 0.8; stroke-linejoin: miter; stroke-linecap: square"/>
   </g>
   <g id="patch_5">
    <path d="M 36.561965 51.597942 
L 111.585769 51.597942 
" style="fill: none; stroke: #000000; stroke-width: 0.8; stroke-linejoin: miter; stroke-linecap: square"/>
   </g>
   <g id="patch_6">
    <path d="M 36.561965 15.698543 
L 111.585769 15.698543 
" style="fill: none; stroke: #000000; stroke-width: 0.8; stroke-linejoin: miter; stroke-linecap: square"/>
   </g>
   <g id="text_4">
    <!-- $\mathbf{a)}$ -->
    <g transform="translate(24.771388 9.577584) scale(0.08 -0.08)">
     <defs>
      <path id="CMBX12-61" d="M 2944 1894 
C 2944 2483 2477 2880 1574 2880 
C 1216 2880 461 2847 461 2310 
C 461 2041 666 1926 838 1926 
C 1030 1926 1216 2060 1216 2303 
C 1216 2425 1171 2540 1062 2611 
C 1274 2668 1427 2668 1549 2668 
C 1984 2668 2246 2425 2246 1900 
L 2246 1644 
C 1235 1644 218 1362 218 648 
C 218 64 960 -64 1402 -64 
C 1894 -64 2208 205 2336 488 
C 2336 250 2336 -26 2982 -26 
L 3309 -26 
C 3443 -26 3494 -26 3494 115 
C 3494 250 3437 250 3347 250 
C 2944 256 2944 359 2944 507 
L 2944 1894 
z
M 2246 867 
C 2246 262 1709 147 1504 147 
C 1190 147 928 359 928 655 
C 928 1240 1619 1439 2246 1472 
L 2246 867 
z
" transform="scale(0.015625)"/>
      <path id="CMR17-29" d="M 1683 1596 
C 1683 2057 1638 2839 1254 3665 
C 947 4332 422 4800 346 4800 
C 326 4800 301 4793 301 4761 
C 301 4748 307 4742 314 4729 
C 621 4408 1402 3595 1402 1603 
C 1402 -396 627 -1210 314 -1530 
C 307 -1543 301 -1549 301 -1562 
C 301 -1594 326 -1600 346 -1600 
C 416 -1600 960 -1127 1274 -422 
C 1594 289 1683 981 1683 1596 
z
" transform="scale(0.015625)"/>
     </defs>
     <use xlink:href="#CMBX12-61" transform="scale(0.996264)"/>
     <use xlink:href="#CMR17-29" transform="translate(54.483188 0) scale(0.996264)"/>
    </g>
   </g>
   <g id="legend_1">
    <g id="line2d_11">
     <path d="M 38.961965 30.298481 
L 40.961965 30.298481 
L 42.961965 30.298481 
" style="fill: none; stroke: #0000ff; stroke-width: 1.5; stroke-linecap: square"/>
    </g>
    <g id="text_5">
     <!-- Mean -->
     <g transform="translate(44.161965 31.698481) scale(0.04 -0.04)">
      <defs>
       <path id="CMR17-4d" d="M 1338 4249 
C 1299 4345 1293 4352 1158 4352 
L 339 4352 
L 339 4185 
C 781 4185 851 4185 851 3898 
L 851 624 
C 851 465 851 166 339 166 
L 339 0 
C 486 12 755 12 915 12 
C 1075 12 1344 12 1491 0 
L 1491 166 
C 979 166 979 465 979 624 
L 979 4159 
L 986 4159 
L 2490 102 
C 2515 38 2528 0 2579 0 
C 2630 0 2643 38 2669 102 
L 4186 4191 
L 4192 4191 
L 4192 453 
C 4192 166 4122 166 3680 166 
L 3680 0 
C 3853 12 4198 12 4384 12 
C 4570 12 4922 12 5094 0 
L 5094 166 
C 4653 166 4582 166 4582 453 
L 4582 3898 
C 4582 4185 4653 4185 5094 4185 
L 5094 4352 
L 4282 4352 
C 4147 4352 4141 4345 4102 4249 
L 2720 516 
L 1338 4249 
z
" transform="scale(0.015625)"/>
       <path id="CMR17-65" d="M 2438 1503 
C 2464 1529 2464 1542 2464 1606 
C 2464 2251 2118 2816 1389 2816 
C 710 2816 173 2175 173 1394 
C 173 554 781 -64 1459 -64 
C 2176 -64 2458 619 2458 755 
C 2458 800 2419 800 2406 800 
C 2362 800 2355 787 2330 709 
C 2189 270 1837 51 1504 51 
C 1229 51 954 206 781 490 
C 582 819 582 1200 582 1503 
L 2438 1503 
z
M 589 1600 
C 634 2511 1126 2713 1382 2713 
C 1818 2713 2112 2308 2118 1600 
L 589 1600 
z
" transform="scale(0.015625)"/>
       <path id="CMR17-61" d="M 2304 1656 
C 2304 2048 2304 2275 2035 2534 
C 1798 2751 1523 2816 1306 2816 
C 800 2816 435 2408 435 1977 
C 435 1740 627 1728 666 1728 
C 749 1728 896 1779 896 1958 
C 896 2118 774 2188 666 2188 
C 640 2188 608 2182 589 2176 
C 723 2594 1069 2713 1293 2713 
C 1613 2713 1965 2421 1965 1875 
L 1965 1632 
C 1587 1619 1133 1568 774 1373 
C 371 1147 256 822 256 576 
C 256 77 832 -64 1171 -64 
C 1523 -64 1850 135 1990 505 
C 2003 219 2182 -39 2464 -39 
C 2598 -39 2938 51 2938 563 
L 2938 926 
L 2822 926 
L 2822 557 
C 2822 161 2650 109 2566 109 
C 2304 109 2304 446 2304 732 
L 2304 1656 
z
M 1965 887 
C 1965 323 1568 38 1216 38 
C 896 38 646 278 646 576 
C 646 771 730 1114 1101 1322 
C 1408 1497 1760 1523 1965 1536 
L 1965 887 
z
" transform="scale(0.015625)"/>
       <path id="CMR17-6e" d="M 2656 1954 
C 2656 2282 2592 2816 1837 2816 
C 1331 2816 1069 2424 973 2166 
L 966 2166 
L 966 2816 
L 211 2745 
L 211 2578 
C 589 2578 646 2540 646 2231 
L 646 443 
C 646 198 621 166 211 166 
L 211 0 
C 365 12 646 12 813 12 
C 979 12 1267 12 1421 0 
L 1421 166 
C 1011 166 986 192 986 443 
L 986 1678 
C 986 2269 1344 2713 1792 2713 
C 2266 2713 2317 2289 2317 1980 
L 2317 443 
C 2317 198 2291 166 1882 166 
L 1882 0 
C 2035 12 2317 12 2483 12 
C 2650 12 2938 12 3091 0 
L 3091 166 
C 2682 166 2656 192 2656 443 
L 2656 1954 
z
" transform="scale(0.015625)"/>
      </defs>
      <use xlink:href="#CMR17-4d" transform="scale(0.996264)"/>
      <use xlink:href="#CMR17-65" transform="translate(84.686941 0) scale(0.996264)"/>
      <use xlink:href="#CMR17-61" transform="translate(125.172601 0) scale(0.996264)"/>
      <use xlink:href="#CMR17-6e" transform="translate(170.863078 0) scale(0.996264)"/>
     </g>
    </g>
    <g id="patch_7">
     <path d="M 38.961965 37.273347 
L 42.961965 37.273347 
L 42.961965 34.473347 
L 38.961965 34.473347 
z
" style="fill: #0000ff; fill-opacity: 0.2; stroke: #0000ff; stroke-opacity: 0.2; stroke-linejoin: miter"/>
    </g>
    <g id="text_6">
     <!-- Std -->
     <g transform="translate(44.161965 37.273347) scale(0.04 -0.04)">
      <defs>
       <path id="CMR17-53" d="M 2803 4351 
C 2803 4467 2797 4473 2758 4473 
C 2720 4473 2707 4447 2682 4390 
L 2490 3965 
C 2246 4320 1875 4480 1472 4480 
C 819 4480 294 3958 294 3301 
C 294 3101 339 2817 557 2546 
C 794 2250 1018 2198 1530 2063 
C 1722 2011 2042 1927 2106 1901 
C 2470 1747 2662 1360 2662 999 
C 2662 534 2336 38 1779 38 
C 1094 38 454 425 410 1328 
C 403 1431 397 1437 352 1437 
C 301 1437 294 1431 294 1302 
L 294 0 
C 294 -116 301 -122 339 -122 
C 384 -122 397 -90 486 109 
C 493 128 493 141 614 386 
C 934 -39 1472 -128 1779 -128 
C 2477 -128 2970 457 2970 1141 
C 2970 1476 2848 1734 2778 1850 
C 2509 2263 2221 2340 1914 2417 
C 1869 2437 1856 2437 1498 2527 
C 1152 2617 1005 2662 845 2836 
C 666 3036 602 3243 602 3449 
C 602 3868 934 4326 1478 4326 
C 2157 4326 2579 3842 2675 3036 
C 2694 2920 2701 2914 2746 2914 
C 2803 2914 2803 2933 2803 3043 
L 2803 4351 
z
" transform="scale(0.015625)"/>
       <path id="CMR17-74" d="M 966 2585 
L 1862 2585 
L 1862 2752 
L 966 2752 
L 966 3968 
L 851 3968 
C 838 3292 614 2700 70 2687 
L 70 2585 
L 627 2585 
L 627 778 
C 627 655 627 -64 1370 -64 
C 1747 -64 1965 308 1965 784 
L 1965 1151 
L 1850 1151 
L 1850 790 
C 1850 347 1677 51 1408 51 
C 1222 51 966 179 966 765 
L 966 2585 
z
" transform="scale(0.015625)"/>
       <path id="CMR17-64" d="M 1869 4345 
L 1869 4179 
C 2246 4179 2304 4141 2304 3843 
L 2304 2371 
C 2278 2403 2016 2816 1498 2816 
C 845 2816 211 2228 211 1376 
C 211 529 806 -64 1434 -64 
C 1978 -64 2259 361 2291 406 
L 2291 -64 
L 3066 -13 
L 3066 154 
C 2688 154 2630 193 2630 503 
L 2630 4416 
L 1869 4345 
z
M 2291 762 
C 2291 568 2176 393 2029 264 
C 1811 70 1594 38 1472 38 
C 1286 38 621 135 621 1369 
C 621 2636 1363 2713 1530 2713 
C 1824 2713 2061 2545 2208 2313 
C 2291 2177 2291 2157 2291 2041 
L 2291 762 
z
" transform="scale(0.015625)"/>
      </defs>
      <use xlink:href="#CMR17-53" transform="scale(0.996264)"/>
      <use xlink:href="#CMR17-74" transform="translate(50.89537 0) scale(0.996264)"/>
      <use xlink:href="#CMR17-64" transform="translate(86.176138 0) scale(0.996264)"/>
     </g>
    </g>
    <g id="line2d_12">
     <path d="M 38.961965 41.448212 
L 40.961965 41.448212 
L 42.961965 41.448212 
" style="fill: none; stroke: #000000; stroke-width: 1.5; stroke-linecap: square"/>
    </g>
    <g id="text_7">
     <!-- Mean -->
     <g transform="translate(44.161965 42.848212) scale(0.04 -0.04)">
      <use xlink:href="#CMR17-4d" transform="scale(0.996264)"/>
      <use xlink:href="#CMR17-65" transform="translate(84.686941 0) scale(0.996264)"/>
      <use xlink:href="#CMR17-61" transform="translate(125.172601 0) scale(0.996264)"/>
      <use xlink:href="#CMR17-6e" transform="translate(170.863078 0) scale(0.996264)"/>
     </g>
    </g>
    <g id="patch_8">
     <path d="M 38.961965 48.423077 
L 42.961965 48.423077 
L 42.961965 45.623077 
L 38.961965 45.623077 
z
" style="fill-opacity: 0.2; stroke: #000000; stroke-opacity: 0.2; stroke-linejoin: miter"/>
    </g>
    <g id="text_8">
     <!-- Std -->
     <g transform="translate(44.161965 48.423077) scale(0.04 -0.04)">
      <use xlink:href="#CMR17-53" transform="scale(0.996264)"/>
      <use xlink:href="#CMR17-74" transform="translate(50.89537 0) scale(0.996264)"/>
      <use xlink:href="#CMR17-64" transform="translate(86.176138 0) scale(0.996264)"/>
     </g>
    </g>
    <g id="line2d_13">
     <path d="M 65.036096 30.298481 
L 67.036096 30.298481 
L 69.036096 30.298481 
" style="fill: none; stroke-dasharray: 5.55,2.4; stroke-dashoffset: 0; stroke: #0000ff; stroke-width: 1.5"/>
    </g>
    <g id="text_9">
     <!-- Max -->
     <g transform="translate(70.236096 31.698481) scale(0.04 -0.04)">
      <defs>
       <path id="CMR17-78" d="M 1664 1491 
C 1856 1740 2074 2022 2253 2233 
C 2464 2476 2707 2579 2989 2585 
L 2989 2752 
C 2880 2745 2656 2739 2541 2739 
C 2368 2739 2170 2739 2022 2752 
L 2022 2585 
C 2112 2572 2163 2508 2163 2419 
C 2163 2304 2099 2233 2067 2188 
L 1594 1587 
L 1030 2323 
C 973 2393 973 2406 973 2438 
C 973 2515 1037 2579 1146 2585 
L 1146 2752 
C 992 2739 717 2739 557 2739 
C 384 2739 179 2739 38 2752 
L 38 2585 
C 384 2585 461 2560 614 2368 
L 1350 1414 
C 1363 1401 1395 1363 1395 1344 
C 1395 1318 838 633 768 544 
C 480 198 179 172 6 166 
L 6 0 
C 115 6 339 12 454 12 
C 582 12 864 12 979 0 
L 979 166 
C 941 172 838 185 838 332 
C 838 448 890 518 947 595 
L 1478 1248 
L 2035 524 
C 2086 454 2163 358 2163 313 
C 2163 224 2086 172 1984 166 
L 1984 0 
C 2138 12 2413 12 2573 12 
C 2746 12 2950 12 3091 0 
L 3091 166 
C 2771 166 2675 179 2522 377 
L 1664 1491 
z
" transform="scale(0.015625)"/>
      </defs>
      <use xlink:href="#CMR17-4d" transform="scale(0.996264)"/>
      <use xlink:href="#CMR17-61" transform="translate(84.686941 0) scale(0.996264)"/>
      <use xlink:href="#CMR17-78" transform="translate(130.377418 0) scale(0.996264)"/>
     </g>
    </g>
    <g id="line2d_14">
     <path d="M 65.036096 35.873347 
L 67.036096 35.873347 
L 69.036096 35.873347 
" style="fill: none; stroke-dasharray: 1.5,2.475; stroke-dashoffset: 0; stroke: #0000ff; stroke-width: 1.5"/>
    </g>
    <g id="text_10">
     <!-- Min -->
     <g transform="translate(70.236096 37.273347) scale(0.04 -0.04)">
      <defs>
       <path id="CMR17-69" d="M 992 3961 
C 992 4102 877 4224 730 4224 
C 589 4224 467 4108 467 3961 
C 467 3820 582 3699 730 3699 
C 870 3699 992 3814 992 3961 
z
M 243 2745 
L 243 2579 
C 602 2579 653 2540 653 2231 
L 653 443 
C 653 198 627 166 218 166 
L 218 0 
C 371 12 646 12 806 12 
C 960 12 1222 12 1370 0 
L 1370 166 
C 992 166 979 205 979 436 
L 979 2816 
L 243 2745 
z
" transform="scale(0.015625)"/>
      </defs>
      <use xlink:href="#CMR17-4d" transform="scale(0.996264)"/>
      <use xlink:href="#CMR17-69" transform="translate(84.686941 0) scale(0.996264)"/>
      <use xlink:href="#CMR17-6e" transform="translate(109.557999 0) scale(0.996264)"/>
     </g>
    </g>
    <g id="line2d_15">
     <path d="M 65.036096 41.448212 
L 67.036096 41.448212 
L 69.036096 41.448212 
" style="fill: none; stroke-dasharray: 5.55,2.4; stroke-dashoffset: 0; stroke: #000000; stroke-width: 1.5"/>
    </g>
    <g id="text_11">
     <!-- Max -->
     <g transform="translate(70.236096 42.848212) scale(0.04 -0.04)">
      <use xlink:href="#CMR17-4d" transform="scale(0.996264)"/>
      <use xlink:href="#CMR17-61" transform="translate(84.686941 0) scale(0.996264)"/>
      <use xlink:href="#CMR17-78" transform="translate(130.377418 0) scale(0.996264)"/>
     </g>
    </g>
    <g id="line2d_16">
     <path d="M 65.036096 47.023077 
L 67.036096 47.023077 
L 69.036096 47.023077 
" style="fill: none; stroke-dasharray: 1.5,2.475; stroke-dashoffset: 0; stroke: #000000; stroke-width: 1.5"/>
    </g>
    <g id="text_12">
     <!-- Min -->
     <g transform="translate(70.236096 48.423077) scale(0.04 -0.04)">
      <use xlink:href="#CMR17-4d" transform="scale(0.996264)"/>
      <use xlink:href="#CMR17-69" transform="translate(84.686941 0) scale(0.996264)"/>
      <use xlink:href="#CMR17-6e" transform="translate(109.557999 0) scale(0.996264)"/>
     </g>
    </g>
   </g>
  </g>
  <g id="axes_2">
   <g id="patch_9">
    <path d="M 137.8441 51.597942 
L 212.867904 51.597942 
L 212.867904 15.698543 
L 137.8441 15.698543 
z
" style="fill: #ffffff"/>
   </g>
   <g id="FillBetweenPolyCollection_3">
    <defs>
     <path id="mc13937e703" d="M 141.254273 -119.024413 
L 141.254273 -119.013825 
L 143.606117 -90.037542 
L 145.95796 -90.364985 
L 148.309803 -89.835349 
L 150.661647 -91.049409 
L 153.01349 -91.218982 
L 155.365334 -92.595525 
L 157.717177 -93.463709 
L 160.06902 -94.487147 
L 162.420864 -95.571845 
L 164.772707 -96.603084 
L 167.124551 -97.655996 
L 169.476394 -98.667602 
L 171.828237 -99.568728 
L 174.180081 -100.4871 
L 176.531924 -101.319767 
L 178.883767 -102.142968 
L 181.235611 -102.786341 
L 183.587454 -103.51985 
L 185.939298 -104.101649 
L 188.291141 -104.723853 
L 190.642984 -105.259272 
L 192.994828 -105.738343 
L 195.346671 -106.22702 
L 197.698515 -106.630792 
L 200.050358 -107.01474 
L 202.402201 -107.426446 
L 204.754045 -107.734481 
L 207.105888 -108.109663 
L 209.457731 -108.421897 
L 209.457731 -108.521262 
L 209.457731 -108.521262 
L 207.105888 -108.241283 
L 204.754045 -107.963133 
L 202.402201 -107.578746 
L 200.050358 -107.230832 
L 197.698515 -106.800956 
L 195.346671 -106.385795 
L 192.994828 -105.900436 
L 190.642984 -105.441616 
L 188.291141 -104.902424 
L 185.939298 -104.343285 
L 183.587454 -103.701877 
L 181.235611 -103.104182 
L 178.883767 -102.411369 
L 176.531924 -101.600536 
L 174.180081 -100.81127 
L 171.828237 -99.963055 
L 169.476394 -99.036378 
L 167.124551 -98.029405 
L 164.772707 -97.013439 
L 162.420864 -95.911077 
L 160.06902 -95.016463 
L 157.717177 -93.939183 
L 155.365334 -93.059604 
L 153.01349 -92.898729 
L 150.661647 -91.616347 
L 148.309803 -91.96791 
L 145.95796 -91.36204 
L 143.606117 -92.147482 
L 141.254273 -119.024413 
z
" style="stroke: #0000ff; stroke-opacity: 0.2"/>
    </defs>
    <g clip-path="url(#pc31ac44d56)">
     <use xlink:href="#mc13937e703" x="0" y="134.806076" style="fill: #0000ff; fill-opacity: 0.2; stroke: #0000ff; stroke-opacity: 0.2"/>
    </g>
   </g>
   <g id="FillBetweenPolyCollection_4">
    <defs>
     <path id="m0bdbd9e64a" d="M 141.254273 -119.019154 
L 141.254273 -119.008233 
L 143.606117 -90.332571 
L 145.95796 -90.736139 
L 148.309803 -90.281118 
L 150.661647 -91.602532 
L 153.01349 -92.010693 
L 155.365334 -93.420289 
L 157.717177 -94.502904 
L 160.06902 -95.656903 
L 162.420864 -96.826482 
L 164.772707 -97.921598 
L 167.124551 -99.003405 
L 169.476394 -100.031351 
L 171.828237 -100.904884 
L 174.180081 -101.783462 
L 176.531924 -102.573016 
L 178.883767 -103.372569 
L 181.235611 -104.001971 
L 183.587454 -104.685638 
L 185.939298 -105.2525 
L 188.291141 -105.831984 
L 190.642984 -106.362483 
L 192.994828 -106.79566 
L 195.346671 -107.256971 
L 197.698515 -107.683634 
L 200.050358 -108.058034 
L 202.402201 -108.426017 
L 204.754045 -108.743841 
L 207.105888 -109.084059 
L 209.457731 -109.360055 
L 209.457731 -109.490714 
L 209.457731 -109.490714 
L 207.105888 -109.198147 
L 204.754045 -108.887049 
L 202.402201 -108.54733 
L 200.050358 -108.198099 
L 197.698515 -107.819579 
L 195.346671 -107.433586 
L 192.994828 -106.935476 
L 190.642984 -106.495378 
L 188.291141 -105.982158 
L 185.939298 -105.434899 
L 183.587454 -104.828708 
L 181.235611 -104.264177 
L 178.883767 -103.592309 
L 176.531924 -102.806514 
L 174.180081 -102.051252 
L 171.828237 -101.251802 
L 169.476394 -100.352137 
L 167.124551 -99.36051 
L 164.772707 -98.323855 
L 162.420864 -97.160759 
L 160.06902 -96.191541 
L 157.717177 -94.965883 
L 155.365334 -93.9474 
L 153.01349 -93.559317 
L 150.661647 -92.178506 
L 148.309803 -92.380557 
L 145.95796 -91.717263 
L 143.606117 -92.423206 
L 141.254273 -119.019154 
z
" style="stroke: #000000; stroke-opacity: 0.2"/>
    </defs>
    <g clip-path="url(#pc31ac44d56)">
     <use xlink:href="#m0bdbd9e64a" x="0" y="134.806076" style="fill-opacity: 0.2; stroke: #000000; stroke-opacity: 0.2"/>
    </g>
   </g>
   <g id="matplotlib.axis_3">
    <g id="xtick_3">
     <g id="line2d_17">
      <g>
       <use xlink:href="#m84fcdf1a76" x="141.254273" y="51.597942" style="stroke: #000000; stroke-width: 0.8"/>
      </g>
     </g>
    </g>
    <g id="xtick_4">
     <g id="line2d_18">
      <g>
       <use xlink:href="#m84fcdf1a76" x="188.291141" y="51.597942" style="stroke: #000000; stroke-width: 0.8"/>
      </g>
     </g>
    </g>
   </g>
   <g id="matplotlib.axis_4">
    <g id="ytick_3">
     <g id="line2d_19">
      <g>
       <use xlink:href="#m0b49de771c" x="137.8441" y="51.597942" style="stroke: #000000; stroke-width: 0.8"/>
      </g>
     </g>
     <g id="text_13">
      <!-- $10^{-5}$ -->
      <g transform="translate(112.966683 54.365343) scale(0.08 -0.08)">
       <defs>
        <path id="CMR17-35" d="M 730 3750 
C 794 3724 1056 3641 1325 3641 
C 1920 3641 2246 3961 2432 4140 
C 2432 4191 2432 4224 2394 4224 
C 2387 4224 2374 4224 2323 4198 
C 2099 4102 1837 4032 1517 4032 
C 1325 4032 1037 4055 723 4191 
C 653 4224 640 4224 634 4224 
C 602 4224 595 4217 595 4090 
L 595 2231 
C 595 2113 595 2080 659 2080 
C 691 2080 704 2093 736 2139 
C 941 2435 1222 2560 1542 2560 
C 1766 2560 2246 2415 2246 1293 
C 2246 1087 2246 716 2054 422 
C 1894 159 1645 25 1370 25 
C 947 25 518 319 403 812 
C 429 806 480 793 506 793 
C 589 793 749 838 749 1036 
C 749 1209 627 1280 506 1280 
C 358 1280 262 1190 262 1011 
C 262 454 704 -128 1382 -128 
C 2042 -128 2669 441 2669 1267 
C 2669 2054 2170 2662 1549 2662 
C 1222 2662 947 2540 730 2304 
L 730 3750 
z
" transform="scale(0.015625)"/>
       </defs>
       <use xlink:href="#CMR17-31" transform="scale(0.996264)"/>
       <use xlink:href="#CMR17-30" transform="translate(45.690477 0) scale(0.996264)"/>
       <use xlink:href="#CMSY10-0" transform="translate(91.380954 36.153639) scale(0.697382)"/>
       <use xlink:href="#CMR17-35" transform="translate(145.621947 36.153639) scale(0.697382)"/>
      </g>
     </g>
    </g>
    <g id="ytick_4">
     <g id="line2d_20">
      <g>
       <use xlink:href="#m0b49de771c" x="137.8441" y="37.238183" style="stroke: #000000; stroke-width: 0.8"/>
      </g>
     </g>
     <g id="text_14">
      <!-- $10^{-3}$ -->
      <g transform="translate(112.966683 40.005584) scale(0.08 -0.08)">
       <defs>
        <path id="CMR17-33" d="M 1414 2176 
C 1984 2176 2234 1673 2234 1094 
C 2234 322 1824 25 1453 25 
C 1114 25 563 193 390 691 
C 422 678 454 678 486 678 
C 640 678 755 780 755 947 
C 755 1132 614 1216 486 1216 
C 378 1216 211 1164 211 927 
C 211 335 787 -128 1466 -128 
C 2176 -128 2720 432 2720 1087 
C 2720 1718 2208 2176 1600 2246 
C 2086 2347 2554 2776 2554 3353 
C 2554 3856 2048 4224 1472 4224 
C 890 4224 378 3862 378 3347 
C 378 3123 544 3084 627 3084 
C 762 3084 877 3167 877 3334 
C 877 3500 762 3584 627 3584 
C 602 3584 570 3584 544 3571 
C 730 3999 1235 4076 1459 4076 
C 1683 4076 2106 3966 2106 3347 
C 2106 3167 2080 2851 1862 2574 
C 1670 2329 1453 2316 1242 2297 
C 1210 2297 1062 2284 1037 2284 
C 992 2278 966 2272 966 2227 
C 966 2182 973 2176 1101 2176 
L 1414 2176 
z
" transform="scale(0.015625)"/>
       </defs>
       <use xlink:href="#CMR17-31" transform="scale(0.996264)"/>
       <use xlink:href="#CMR17-30" transform="translate(45.690477 0) scale(0.996264)"/>
       <use xlink:href="#CMSY10-0" transform="translate(91.380954 36.153639) scale(0.697382)"/>
       <use xlink:href="#CMR17-33" transform="translate(145.621947 36.153639) scale(0.697382)"/>
      </g>
     </g>
    </g>
    <g id="ytick_5">
     <g id="line2d_21">
      <g>
       <use xlink:href="#m0b49de771c" x="137.8441" y="15.698543" style="stroke: #000000; stroke-width: 0.8"/>
      </g>
     </g>
     <g id="text_15">
      <!-- $10^{0}$ -->
      <g transform="translate(118.722822 18.465944) scale(0.08 -0.08)">
       <use xlink:href="#CMR17-31" transform="scale(0.996264)"/>
       <use xlink:href="#CMR17-30" transform="translate(45.690477 0) scale(0.996264)"/>
       <use xlink:href="#CMR17-30" transform="translate(91.380954 36.153639) scale(0.697382)"/>
      </g>
     </g>
    </g>
   </g>
   <g id="line2d_22">
    <path d="M 141.254273 15.786953 
L 143.606117 43.538405 
L 145.95796 43.90288 
L 148.309803 43.725582 
L 150.661647 43.460331 
L 153.01349 42.635454 
L 155.365334 41.969886 
L 157.717177 41.095576 
L 160.06902 40.043053 
L 162.420864 39.060004 
L 164.772707 37.991069 
L 167.124551 36.95779 
L 169.476394 35.948638 
L 171.828237 35.033955 
L 174.180081 34.152681 
L 176.531924 33.342766 
L 178.883767 32.526021 
L 181.235611 31.856767 
L 183.587454 31.193885 
L 185.939298 30.581269 
L 188.291141 29.99166 
L 190.642984 29.4543 
L 192.994828 28.985634 
L 195.346671 28.498658 
L 197.698515 28.089042 
L 200.050358 27.681418 
L 202.402201 27.302551 
L 204.754045 26.955174 
L 207.105888 26.629909 
L 209.457731 26.334101 
" clip-path="url(#pc31ac44d56)" style="fill: none; stroke: #0000ff; stroke-width: 1.5; stroke-linecap: square"/>
   </g>
   <g id="line2d_23">
    <path d="M 141.254273 15.792378 
L 143.606117 43.256162 
L 145.95796 43.540945 
L 148.309803 43.301787 
L 150.661647 42.902277 
L 153.01349 41.925904 
L 155.365334 41.111107 
L 157.717177 40.063098 
L 160.06902 38.87041 
L 162.420864 37.807978 
L 164.772707 36.676868 
L 167.124551 35.61901 
L 169.476394 34.610209 
L 171.828237 33.722911 
L 174.180081 32.885845 
L 176.531924 32.114126 
L 178.883767 31.321702 
L 181.235611 30.670247 
L 183.587454 30.048083 
L 185.939298 29.461043 
L 188.291141 28.898101 
L 190.642984 28.376438 
L 192.994828 27.939725 
L 195.346671 27.459548 
L 197.698515 27.053729 
L 200.050358 26.677224 
L 202.402201 26.318813 
L 204.754045 25.989809 
L 207.105888 25.664452 
L 209.457731 25.380008 
" clip-path="url(#pc31ac44d56)" style="fill: none; stroke: #000000; stroke-width: 1.5; stroke-linecap: square"/>
   </g>
   <g id="line2d_24">
    <path d="M 141.254273 15.796401 
L 143.606117 45.274955 
L 145.95796 44.846914 
L 148.309803 44.668512 
L 150.661647 44.233529 
L 153.01349 43.269831 
L 155.365334 42.382484 
L 157.717177 41.517032 
L 160.06902 40.426458 
L 162.420864 39.401006 
L 164.772707 38.273937 
L 167.124551 37.344348 
L 169.476394 36.196541 
L 171.828237 35.550772 
L 174.180081 34.403994 
L 176.531924 33.670387 
L 178.883767 32.826379 
L 181.235611 32.119187 
L 183.587454 31.370785 
L 185.939298 30.81254 
L 188.291141 30.195062 
L 190.642984 29.665348 
L 192.994828 29.130123 
L 195.346671 28.645521 
L 197.698515 28.264108 
L 200.050358 27.878483 
L 202.402201 27.430625 
L 204.754045 27.123209 
L 207.105888 26.751751 
L 209.457731 26.457809 
" clip-path="url(#pc31ac44d56)" style="fill: none; stroke-dasharray: 5.55,2.4; stroke-dashoffset: 0; stroke: #0000ff; stroke-width: 1.5"/>
   </g>
   <g id="line2d_25">
    <path d="M 141.254273 15.770905 
L 143.606117 41.495692 
L 145.95796 42.886991 
L 148.309803 40.649049 
L 150.661647 42.993333 
L 153.01349 40.01079 
L 155.365334 41.394301 
L 157.717177 40.378913 
L 160.06902 39.130451 
L 162.420864 38.782769 
L 164.772707 37.570887 
L 167.124551 36.631797 
L 169.476394 35.480622 
L 171.828237 34.574471 
L 174.180081 33.67164 
L 176.531924 33.094287 
L 178.883767 32.263063 
L 181.235611 31.419303 
L 183.587454 30.983038 
L 185.939298 30.297828 
L 188.291141 29.754662 
L 190.642984 29.259372 
L 192.994828 28.756104 
L 195.346671 28.301861 
L 197.698515 27.938508 
L 200.050358 27.412006 
L 202.402201 27.141755 
L 204.754045 26.508054 
L 207.105888 26.467397 
L 209.457731 26.250284 
" clip-path="url(#pc31ac44d56)" style="fill: none; stroke-dasharray: 1.5,2.475; stroke-dashoffset: 0; stroke: #0000ff; stroke-width: 1.5"/>
   </g>
   <g id="line2d_26">
    <path d="M 141.254273 15.799657 
L 143.606117 44.876146 
L 145.95796 44.419061 
L 148.309803 44.286758 
L 150.661647 43.781441 
L 153.01349 42.499008 
L 155.365334 41.666724 
L 157.717177 40.485917 
L 160.06902 39.320586 
L 162.420864 38.175942 
L 164.772707 37.016925 
L 167.124551 35.986298 
L 169.476394 34.844181 
L 171.828237 34.119786 
L 174.180081 33.103933 
L 176.531924 32.347865 
L 178.883767 31.562988 
L 181.235611 30.905005 
L 183.587454 30.207059 
L 185.939298 29.720754 
L 188.291141 29.02856 
L 190.642984 28.503535 
L 192.994828 28.105895 
L 195.346671 27.587814 
L 197.698515 27.183157 
L 200.050358 26.805935 
L 202.402201 26.426448 
L 204.754045 26.118902 
L 207.105888 25.761439 
L 209.457731 25.509541 
" clip-path="url(#pc31ac44d56)" style="fill: none; stroke-dasharray: 5.55,2.4; stroke-dashoffset: 0; stroke: #000000; stroke-width: 1.5"/>
   </g>
   <g id="line2d_27">
    <path d="M 141.254273 15.778313 
L 143.606117 41.194267 
L 145.95796 42.564987 
L 148.309803 40.257195 
L 150.661647 42.482954 
L 153.01349 39.448276 
L 155.365334 40.545532 
L 157.717177 39.343985 
L 160.06902 38.004999 
L 162.420864 37.533969 
L 164.772707 36.227509 
L 167.124551 35.253828 
L 169.476394 34.225487 
L 171.828237 33.271027 
L 174.180081 32.557888 
L 176.531924 31.85305 
L 178.883767 31.085196 
L 181.235611 30.280948 
L 183.587454 29.87098 
L 185.939298 29.261171 
L 188.291141 28.749624 
L 190.642984 28.237916 
L 192.994828 27.803591 
L 195.346671 27.242187 
L 197.698515 26.881017 
L 200.050358 26.567343 
L 202.402201 26.180615 
L 204.754045 25.801261 
L 207.105888 25.55955 
L 209.457731 25.247275 
" clip-path="url(#pc31ac44d56)" style="fill: none; stroke-dasharray: 1.5,2.475; stroke-dashoffset: 0; stroke: #000000; stroke-width: 1.5"/>
   </g>
   <g id="patch_10">
    <path d="M 137.8441 51.597942 
L 137.8441 15.698543 
" style="fill: none; stroke: #000000; stroke-width: 0.8; stroke-linejoin: miter; stroke-linecap: square"/>
   </g>
   <g id="patch_11">
    <path d="M 212.867904 51.597942 
L 212.867904 15.698543 
" style="fill: none; stroke: #000000; stroke-width: 0.8; stroke-linejoin: miter; stroke-linecap: square"/>
   </g>
   <g id="patch_12">
    <path d="M 137.8441 51.597942 
L 212.867904 51.597942 
" style="fill: none; stroke: #000000; stroke-width: 0.8; stroke-linejoin: miter; stroke-linecap: square"/>
   </g>
   <g id="patch_13">
    <path d="M 137.8441 15.698543 
L 212.867904 15.698543 
" style="fill: none; stroke: #000000; stroke-width: 0.8; stroke-linejoin: miter; stroke-linecap: square"/>
   </g>
   <g id="text_16">
    <!-- $\mathbf{b)}$ -->
    <g transform="translate(125.375509 9.577584) scale(0.08 -0.08)">
     <defs>
      <path id="CMBX12-62" d="M 1331 4480 
L 224 4428 
L 224 4153 
C 621 4153 666 4153 666 3896 
L 666 -26 
L 934 -26 
C 1043 96 1152 218 1254 347 
C 1581 6 1933 -64 2189 -64 
C 3072 -64 3750 476 3750 1414 
C 3750 2300 3149 2880 2272 2880 
C 1894 2880 1594 2758 1331 2552 
L 1331 4480 
z
M 1363 2242 
C 1587 2552 1920 2668 2189 2668 
C 2982 2668 2982 1847 2982 1420 
C 2982 1130 2982 761 2829 522 
C 2630 211 2330 147 2125 147 
C 1690 147 1453 457 1363 599 
L 1363 2242 
z
" transform="scale(0.015625)"/>
     </defs>
     <use xlink:href="#CMBX12-62" transform="scale(0.996264)"/>
     <use xlink:href="#CMR17-29" transform="translate(62.266501 0) scale(0.996264)"/>
    </g>
   </g>
  </g>
  <g id="axes_3">
   <g id="patch_14">
    <path d="M 36.561965 109.036981 
L 111.585769 109.036981 
L 111.585769 73.137582 
L 36.561965 73.137582 
z
" style="fill: #ffffff"/>
   </g>
   <g id="FillBetweenPolyCollection_5">
    <defs>
     <path id="m9d7275f96f" d="M 39.972138 -49.750208 
L 39.972138 -49.599892 
L 42.323981 -37.196873 
L 44.675825 -37.580012 
L 47.027668 -37.926971 
L 49.379512 -39.062319 
L 51.731355 -39.649028 
L 54.083198 -40.412823 
L 56.435042 -41.584766 
L 58.786885 -42.481526 
L 61.138728 -43.370976 
L 63.490572 -43.842911 
L 65.842415 -44.628005 
L 68.194259 -45.388713 
L 70.546102 -45.965324 
L 72.897945 -46.334738 
L 75.249789 -47.228619 
L 77.601632 -47.498935 
L 79.953476 -48.206556 
L 82.305319 -48.640776 
L 84.657162 -49.102745 
L 87.009006 -49.306418 
L 89.360849 -49.931159 
L 91.712692 -50.305505 
L 94.064536 -50.540243 
L 96.416379 -50.75638 
L 98.768223 -51.363691 
L 101.120066 -51.597327 
L 103.471909 -51.957542 
L 105.823753 -52.077351 
L 108.175596 -52.710942 
L 108.175596 -54.050316 
L 108.175596 -54.050316 
L 105.823753 -53.456956 
L 103.471909 -53.206089 
L 101.120066 -52.858719 
L 98.768223 -52.65758 
L 96.416379 -52.171303 
L 94.064536 -51.85267 
L 91.712692 -51.63915 
L 89.360849 -51.040273 
L 87.009006 -50.802284 
L 84.657162 -50.08496 
L 82.305319 -50.236903 
L 79.953476 -49.451387 
L 77.601632 -48.75689 
L 75.249789 -48.600798 
L 72.897945 -48.097201 
L 70.546102 -47.262944 
L 68.194259 -46.954526 
L 65.842415 -46.165275 
L 63.490572 -45.128708 
L 61.138728 -44.409416 
L 58.786885 -44.210435 
L 56.435042 -42.862967 
L 54.083198 -42.023023 
L 51.731355 -41.060912 
L 49.379512 -40.793186 
L 47.027668 -39.608343 
L 44.675825 -38.639444 
L 42.323981 -38.215906 
L 39.972138 -49.750208 
z
" style="stroke: #0000ff; stroke-opacity: 0.2"/>
    </defs>
    <g clip-path="url(#p1ec48a026d)">
     <use xlink:href="#m9d7275f96f" x="0" y="134.806076" style="fill: #0000ff; fill-opacity: 0.2; stroke: #0000ff; stroke-opacity: 0.2"/>
    </g>
   </g>
   <g id="FillBetweenPolyCollection_6">
    <defs>
     <path id="m664f862187" d="M 39.972138 -49.448426 
L 39.972138 -49.290153 
L 42.323981 -37.732375 
L 44.675825 -38.192205 
L 47.027668 -38.707876 
L 49.379512 -40.08757 
L 51.731355 -40.915327 
L 54.083198 -42.008398 
L 56.435042 -43.388423 
L 58.786885 -44.490647 
L 61.138728 -45.524567 
L 63.490572 -46.123707 
L 65.842415 -47.102147 
L 68.194259 -47.938197 
L 70.546102 -48.61247 
L 72.897945 -49.08697 
L 75.249789 -50.02424 
L 77.601632 -50.381457 
L 79.953476 -51.161081 
L 82.305319 -51.612965 
L 84.657162 -52.153424 
L 87.009006 -52.443539 
L 89.360849 -53.103416 
L 91.712692 -53.604591 
L 94.064536 -53.729255 
L 96.416379 -54.003111 
L 98.768223 -54.616137 
L 101.120066 -54.725062 
L 103.471909 -55.207515 
L 105.823753 -55.302036 
L 108.175596 -55.923615 
L 108.175596 -57.220863 
L 108.175596 -57.220863 
L 105.823753 -56.73562 
L 103.471909 -56.462945 
L 101.120066 -56.098591 
L 98.768223 -55.924571 
L 96.416379 -55.37644 
L 94.064536 -55.09956 
L 91.712692 -54.829938 
L 89.360849 -54.132047 
L 87.009006 -53.841945 
L 84.657162 -53.212585 
L 82.305319 -53.281074 
L 79.953476 -52.36988 
L 77.601632 -51.645669 
L 75.249789 -51.472661 
L 72.897945 -50.861633 
L 70.546102 -49.886702 
L 68.194259 -49.487266 
L 65.842415 -48.619906 
L 63.490572 -47.490739 
L 61.138728 -46.570147 
L 58.786885 -46.098066 
L 56.435042 -44.595435 
L 54.083198 -43.541459 
L 51.731355 -42.29818 
L 49.379512 -41.763434 
L 47.027668 -40.346977 
L 44.675825 -39.210499 
L 42.323981 -38.728141 
L 39.972138 -49.448426 
z
" style="stroke: #000000; stroke-opacity: 0.2"/>
    </defs>
    <g clip-path="url(#p1ec48a026d)">
     <use xlink:href="#m664f862187" x="0" y="134.806076" style="fill-opacity: 0.2; stroke: #000000; stroke-opacity: 0.2"/>
    </g>
   </g>
   <g id="matplotlib.axis_5">
    <g id="xtick_5">
     <g id="line2d_28">
      <g>
       <use xlink:href="#m84fcdf1a76" x="39.972138" y="109.036981" style="stroke: #000000; stroke-width: 0.8"/>
      </g>
     </g>
     <g id="text_17">
      <!-- $\mathdefault{0}$ -->
      <g transform="translate(37.855047 121.571783) scale(0.08 -0.08)">
       <use xlink:href="#CMR17-30" transform="scale(0.996264)"/>
      </g>
     </g>
    </g>
    <g id="xtick_6">
     <g id="line2d_29">
      <g>
       <use xlink:href="#m84fcdf1a76" x="87.009006" y="109.036981" style="stroke: #000000; stroke-width: 0.8"/>
      </g>
     </g>
     <g id="text_18">
      <!-- $\mathdefault{20}$ -->
      <g transform="translate(82.774823 121.571783) scale(0.08 -0.08)">
       <defs>
        <path id="CMR17-32" d="M 2669 990 
L 2554 990 
C 2490 537 2438 460 2413 422 
C 2381 371 1920 371 1830 371 
L 602 371 
C 832 620 1280 1073 1824 1596 
C 2214 1966 2669 2400 2669 3033 
C 2669 3788 2067 4224 1395 4224 
C 691 4224 262 3603 262 3027 
C 262 2777 448 2745 525 2745 
C 589 2745 781 2783 781 3007 
C 781 3206 614 3264 525 3264 
C 486 3264 448 3257 422 3244 
C 544 3788 915 4057 1306 4057 
C 1862 4057 2227 3616 2227 3033 
C 2227 2477 1901 1998 1536 1583 
L 262 147 
L 262 0 
L 2515 0 
L 2669 990 
z
" transform="scale(0.015625)"/>
       </defs>
       <use xlink:href="#CMR17-32" transform="scale(0.996264)"/>
       <use xlink:href="#CMR17-30" transform="translate(45.690477 0) scale(0.996264)"/>
      </g>
     </g>
    </g>
    <g id="text_19">
     <!-- $c_b$ -->
     <g transform="translate(70.603057 129.656331) scale(0.08 -0.08)">
      <defs>
       <path id="CMMI12-63" d="M 2502 2432 
C 2381 2432 2323 2432 2234 2355 
C 2195 2323 2125 2227 2125 2124 
C 2125 1996 2221 1919 2342 1919 
C 2496 1919 2669 2047 2669 2303 
C 2669 2591 2374 2816 1933 2816 
C 1094 2816 256 1932 256 1011 
C 256 446 602 -64 1254 -64 
C 2125 -64 2675 622 2675 706 
C 2675 745 2637 777 2611 777 
C 2592 777 2586 771 2528 712 
C 2118 161 1510 64 1267 64 
C 826 64 685 453 685 777 
C 685 1004 794 1634 1024 2073 
C 1190 2374 1536 2687 1939 2687 
C 2022 2687 2374 2676 2502 2432 
z
" transform="scale(0.015625)"/>
       <path id="CMMI12-62" d="M 1478 4255 
C 1485 4281 1498 4319 1498 4351 
C 1498 4416 1434 4416 1421 4416 
C 1414 4416 1184 4396 1069 4383 
C 960 4377 864 4364 749 4358 
C 595 4345 550 4339 550 4223 
C 550 4159 614 4159 678 4159 
C 1005 4159 1005 4103 1005 4040 
C 1005 3995 954 3812 928 3699 
L 774 3093 
C 710 2841 346 1392 320 1277 
C 288 1117 288 1008 288 925 
C 288 274 653 -64 1069 -64 
C 1811 -64 2579 887 2579 1813 
C 2579 2400 2246 2816 1766 2816 
C 1434 2816 1133 2541 1011 2413 
L 1478 4255 
z
M 1075 64 
C 870 64 646 217 646 715 
C 646 925 666 1047 781 1494 
C 800 1577 902 1985 928 2068 
C 941 2119 1318 2687 1754 2687 
C 2035 2687 2163 2407 2163 2075 
C 2163 1768 1984 1047 1824 715 
C 1664 370 1370 64 1075 64 
z
" transform="scale(0.015625)"/>
      </defs>
      <use xlink:href="#CMMI12-63" transform="scale(0.996264)"/>
      <use xlink:href="#CMMI12-62" transform="translate(41.983234 -14.943915) scale(0.697382)"/>
     </g>
    </g>
   </g>
   <g id="matplotlib.axis_6">
    <g id="ytick_6">
     <g id="line2d_30">
      <g>
       <use xlink:href="#m0b49de771c" x="36.561965" y="109.036981" style="stroke: #000000; stroke-width: 0.8"/>
      </g>
     </g>
     <g id="text_20">
      <!-- $10^{-3}$ -->
      <g transform="translate(11.684547 111.804382) scale(0.08 -0.08)">
       <use xlink:href="#CMR17-31" transform="scale(0.996264)"/>
       <use xlink:href="#CMR17-30" transform="translate(45.690477 0) scale(0.996264)"/>
       <use xlink:href="#CMSY10-0" transform="translate(91.380954 36.153639) scale(0.697382)"/>
       <use xlink:href="#CMR17-33" transform="translate(145.621947 36.153639) scale(0.697382)"/>
      </g>
     </g>
    </g>
    <g id="ytick_7">
     <g id="line2d_31">
      <g>
       <use xlink:href="#m0b49de771c" x="36.561965" y="91.087282" style="stroke: #000000; stroke-width: 0.8"/>
      </g>
     </g>
     <g id="text_21">
      <!-- $10^{-2}$ -->
      <g transform="translate(11.684547 93.854683) scale(0.08 -0.08)">
       <use xlink:href="#CMR17-31" transform="scale(0.996264)"/>
       <use xlink:href="#CMR17-30" transform="translate(45.690477 0) scale(0.996264)"/>
       <use xlink:href="#CMSY10-0" transform="translate(91.380954 36.153639) scale(0.697382)"/>
       <use xlink:href="#CMR17-32" transform="translate(145.621947 36.153639) scale(0.697382)"/>
      </g>
     </g>
    </g>
    <g id="ytick_8">
     <g id="line2d_32">
      <g>
       <use xlink:href="#m0b49de771c" x="36.561965" y="73.137582" style="stroke: #000000; stroke-width: 0.8"/>
      </g>
     </g>
     <g id="text_22">
      <!-- $10^{-1}$ -->
      <g transform="translate(11.684547 75.904983) scale(0.08 -0.08)">
       <use xlink:href="#CMR17-31" transform="scale(0.996264)"/>
       <use xlink:href="#CMR17-30" transform="translate(45.690477 0) scale(0.996264)"/>
       <use xlink:href="#CMSY10-0" transform="translate(91.380954 36.153639) scale(0.697382)"/>
       <use xlink:href="#CMR17-31" transform="translate(145.621947 36.153639) scale(0.697382)"/>
      </g>
     </g>
    </g>
    <g id="text_23">
     <!-- $\mathcal{L}$ -->
     <g transform="translate(9.134802 93.999176) rotate(-90) scale(0.08 -0.08)">
      <use xlink:href="#CMSY10-4c" transform="scale(0.996264)"/>
     </g>
    </g>
   </g>
   <g id="line2d_33">
    <path d="M 39.972138 85.130664 
L 42.323981 97.083048 
L 44.675825 96.678365 
L 47.027668 95.993176 
L 49.379512 94.830383 
L 51.731355 94.419186 
L 54.083198 93.546652 
L 56.435042 92.556042 
L 58.786885 91.412263 
L 61.138728 90.898602 
L 63.490572 90.293787 
L 65.842415 89.371604 
L 68.194259 88.595208 
L 70.546102 88.164973 
L 72.897945 87.540403 
L 75.249789 86.861215 
L 77.601632 86.652817 
L 79.953476 85.952284 
L 82.305319 85.326457 
L 84.657162 85.196764 
L 87.009006 84.7159 
L 89.360849 84.300652 
L 91.712692 83.805264 
L 94.064536 83.582033 
L 96.416379 83.310176 
L 98.768223 82.768627 
L 101.120066 82.552568 
L 103.471909 82.199291 
L 105.823753 82.008443 
L 108.175596 81.396717 
" clip-path="url(#p1ec48a026d)" style="fill: none; stroke: #0000ff; stroke-width: 1.5; stroke-linecap: square"/>
   </g>
   <g id="line2d_34">
    <path d="M 39.972138 85.436385 
L 42.323981 96.559929 
L 44.675825 96.088109 
L 47.027668 95.235648 
L 49.379512 93.835626 
L 51.731355 93.1687 
L 54.083198 91.993522 
L 56.435042 90.790809 
L 58.786885 89.470362 
L 61.138728 88.741202 
L 63.490572 87.968926 
L 65.842415 86.90817 
L 68.194259 86.05493 
L 70.546102 85.530483 
L 72.897945 84.781383 
L 75.249789 84.024034 
L 77.601632 83.766914 
L 79.953476 83.017189 
L 82.305319 82.314523 
L 84.657162 82.105097 
L 87.009006 81.632019 
L 89.360849 81.171391 
L 91.712692 80.56476 
L 94.064536 80.361598 
L 96.416379 80.086098 
L 98.768223 79.508303 
L 101.120066 79.364037 
L 103.471909 78.945601 
L 105.823753 78.75434 
L 108.175596 78.206884 
" clip-path="url(#p1ec48a026d)" style="fill: none; stroke: #000000; stroke-width: 1.5; stroke-linecap: square"/>
   </g>
   <g id="line2d_35">
    <path d="M 39.972138 85.238097 
L 42.323981 98.28532 
L 44.675825 97.559278 
L 47.027668 97.121419 
L 49.379512 96.569402 
L 51.731355 95.854344 
L 54.083198 94.988952 
L 56.435042 94.034658 
L 58.786885 92.988372 
L 61.138728 92.352172 
L 63.490572 91.317707 
L 65.842415 90.675705 
L 68.194259 90.130525 
L 70.546102 89.472695 
L 72.897945 89.029699 
L 75.249789 88.211626 
L 77.601632 87.998534 
L 79.953476 87.076735 
L 82.305319 87.456204 
L 84.657162 86.383772 
L 87.009006 86.138202 
L 89.360849 85.293897 
L 91.712692 84.803834 
L 94.064536 84.795017 
L 96.416379 85.011561 
L 98.768223 83.786853 
L 101.120066 83.886175 
L 103.471909 83.648734 
L 105.823753 83.537307 
L 108.175596 82.686729 
" clip-path="url(#p1ec48a026d)" style="fill: none; stroke-dasharray: 5.55,2.4; stroke-dashoffset: 0; stroke: #0000ff; stroke-width: 1.5"/>
   </g>
   <g id="line2d_36">
    <path d="M 39.972138 84.943788 
L 42.323981 96.212616 
L 44.675825 95.436002 
L 47.027668 93.79745 
L 49.379512 92.59901 
L 51.731355 92.994558 
L 54.083198 91.616504 
L 56.435042 91.409282 
L 58.786885 89.10501 
L 61.138728 90.013579 
L 63.490572 88.560952 
L 65.842415 88.01131 
L 68.194259 87.290267 
L 70.546102 86.946167 
L 72.897945 85.962108 
L 75.249789 85.473427 
L 77.601632 85.472679 
L 79.953476 84.883078 
L 82.305319 83.705769 
L 84.657162 84.184632 
L 87.009006 83.402635 
L 89.360849 83.041239 
L 91.712692 81.815758 
L 94.064536 82.092885 
L 96.416379 81.714447 
L 98.768223 80.928259 
L 101.120066 81.486675 
L 103.471909 81.176677 
L 105.823753 80.69355 
L 108.175596 80.33936 
" clip-path="url(#p1ec48a026d)" style="fill: none; stroke-dasharray: 1.5,2.475; stroke-dashoffset: 0; stroke: #0000ff; stroke-width: 1.5"/>
   </g>
   <g id="line2d_37">
    <path d="M 39.972138 85.560671 
L 42.323981 97.713781 
L 44.675825 96.994548 
L 47.027668 96.243903 
L 49.379512 95.571758 
L 51.731355 94.627294 
L 54.083198 93.484863 
L 56.435042 92.300392 
L 58.786885 90.927426 
L 61.138728 90.138036 
L 63.490572 88.967847 
L 65.842415 88.174072 
L 68.194259 87.513242 
L 70.546102 86.846118 
L 72.897945 86.179789 
L 75.249789 85.578369 
L 77.601632 85.065873 
L 79.953476 84.098861 
L 82.305319 84.427917 
L 84.657162 83.162008 
L 87.009006 82.939365 
L 89.360849 82.276185 
L 91.712692 81.618554 
L 94.064536 81.854222 
L 96.416379 81.89306 
L 98.768223 80.764077 
L 101.120066 80.858776 
L 103.471909 80.529109 
L 105.823753 79.927438 
L 108.175596 79.333732 
" clip-path="url(#p1ec48a026d)" style="fill: none; stroke-dasharray: 5.55,2.4; stroke-dashoffset: 0; stroke: #000000; stroke-width: 1.5"/>
   </g>
   <g id="line2d_38">
    <path d="M 39.972138 85.235078 
L 42.323981 95.62771 
L 44.675825 94.99597 
L 47.027668 93.089323 
L 49.379512 91.722215 
L 51.731355 91.820953 
L 54.083198 90.28535 
L 56.435042 89.6559 
L 58.786885 87.3631 
L 61.138728 87.811892 
L 63.490572 86.213112 
L 65.842415 85.714078 
L 68.194259 84.695705 
L 70.546102 84.309534 
L 72.897945 83.103432 
L 75.249789 82.540466 
L 77.601632 82.693043 
L 79.953476 81.833738 
L 82.305319 80.775321 
L 84.657162 80.963673 
L 87.009006 80.22884 
L 89.360849 80.167982 
L 91.712692 78.570247 
L 94.064536 78.874008 
L 96.416379 78.837773 
L 98.768223 77.682913 
L 101.120066 77.823476 
L 103.471909 77.853111 
L 105.823753 77.513228 
L 108.175596 77.072362 
" clip-path="url(#p1ec48a026d)" style="fill: none; stroke-dasharray: 1.5,2.475; stroke-dashoffset: 0; stroke: #000000; stroke-width: 1.5"/>
   </g>
   <g id="patch_15">
    <path d="M 36.561965 109.036981 
L 36.561965 73.137582 
" style="fill: none; stroke: #000000; stroke-width: 0.8; stroke-linejoin: miter; stroke-linecap: square"/>
   </g>
   <g id="patch_16">
    <path d="M 111.585769 109.036981 
L 111.585769 73.137582 
" style="fill: none; stroke: #000000; stroke-width: 0.8; stroke-linejoin: miter; stroke-linecap: square"/>
   </g>
   <g id="patch_17">
    <path d="M 36.561965 109.036981 
L 111.585769 109.036981 
" style="fill: none; stroke: #000000; stroke-width: 0.8; stroke-linejoin: miter; stroke-linecap: square"/>
   </g>
   <g id="patch_18">
    <path d="M 36.561965 73.137582 
L 111.585769 73.137582 
" style="fill: none; stroke: #000000; stroke-width: 0.8; stroke-linejoin: miter; stroke-linecap: square"/>
   </g>
   <g id="text_24">
    <!-- $\mathbf{c)}$ -->
    <g transform="translate(25.178203 67.016623) scale(0.08 -0.08)">
     <defs>
      <path id="CMBX12-63" d="M 2995 724 
C 2995 801 2925 801 2861 801 
C 2758 801 2752 795 2720 718 
C 2675 596 2502 166 1914 166 
C 1011 166 1011 1141 1011 1430 
C 1011 1808 1018 2649 1856 2649 
C 1901 2649 2278 2636 2278 2604 
C 2278 2598 2272 2591 2259 2585 
C 2240 2566 2157 2469 2157 2309 
C 2157 2039 2374 1930 2534 1930 
C 2669 1930 2912 2014 2912 2315 
C 2912 2841 2176 2880 1830 2880 
C 691 2880 243 2136 243 1398 
C 243 525 851 -64 1792 -64 
C 2797 -64 2995 679 2995 724 
z
" transform="scale(0.015625)"/>
     </defs>
     <use xlink:href="#CMBX12-63" transform="scale(0.996264)"/>
     <use xlink:href="#CMR17-29" transform="translate(49.8132 0) scale(0.996264)"/>
    </g>
   </g>
  </g>
  <g id="axes_4">
   <g id="patch_19">
    <path d="M 137.8441 109.036981 
L 212.867904 109.036981 
L 212.867904 73.137582 
L 137.8441 73.137582 
z
" style="fill: #ffffff"/>
   </g>
   <g id="FillBetweenPolyCollection_7">
    <defs>
     <path id="me286a93125" d="M 141.254273 -61.644312 
L 141.254273 -61.639467 
L 143.606117 -31.013117 
L 145.95796 -30.357597 
L 148.309803 -30.043581 
L 150.661647 -30.196468 
L 153.01349 -30.627404 
L 155.365334 -31.129539 
L 157.717177 -31.979391 
L 160.06902 -32.878283 
L 162.420864 -33.819216 
L 164.772707 -35.139338 
L 167.124551 -36.351741 
L 169.476394 -37.605658 
L 171.828237 -38.799945 
L 174.180081 -40.003307 
L 176.531924 -41.108576 
L 178.883767 -42.156955 
L 181.235611 -43.162407 
L 183.587454 -44.053073 
L 185.939298 -44.928717 
L 188.291141 -45.647369 
L 190.642984 -46.41832 
L 192.994828 -47.009994 
L 195.346671 -47.617576 
L 197.698515 -48.221877 
L 200.050358 -48.731787 
L 202.402201 -49.168285 
L 204.754045 -49.657028 
L 207.105888 -50.067188 
L 209.457731 -50.470533 
L 209.457731 -50.611947 
L 209.457731 -50.611947 
L 207.105888 -50.179484 
L 204.754045 -49.79548 
L 202.402201 -49.34539 
L 200.050358 -48.876905 
L 197.698515 -48.345143 
L 195.346671 -47.806391 
L 192.994828 -47.194022 
L 190.642984 -46.538638 
L 188.291141 -45.895108 
L 185.939298 -45.123816 
L 183.587454 -44.288315 
L 181.235611 -43.364372 
L 178.883767 -42.427505 
L 176.531924 -41.391091 
L 174.180081 -40.262615 
L 171.828237 -39.089872 
L 169.476394 -37.896025 
L 167.124551 -36.721149 
L 164.772707 -35.447387 
L 162.420864 -34.379261 
L 160.06902 -33.288894 
L 157.717177 -32.511259 
L 155.365334 -31.802991 
L 153.01349 -31.234059 
L 150.661647 -30.820294 
L 148.309803 -30.679658 
L 145.95796 -31.519475 
L 143.606117 -32.554453 
L 141.254273 -61.644312 
z
" style="stroke: #0000ff; stroke-opacity: 0.2"/>
    </defs>
    <g clip-path="url(#pd78704e663)">
     <use xlink:href="#me286a93125" x="0" y="134.806076" style="fill: #0000ff; fill-opacity: 0.2; stroke: #0000ff; stroke-opacity: 0.2"/>
    </g>
   </g>
   <g id="FillBetweenPolyCollection_8">
    <defs>
     <path id="m28793c6e9f" d="M 141.254273 -61.65843 
L 141.254273 -61.653565 
L 143.606117 -31.428647 
L 145.95796 -30.86681 
L 148.309803 -30.66057 
L 150.661647 -30.989997 
L 153.01349 -31.625643 
L 155.365334 -32.287958 
L 157.717177 -33.309023 
L 160.06902 -34.321999 
L 162.420864 -35.399233 
L 164.772707 -36.732241 
L 167.124551 -37.937059 
L 169.476394 -39.17554 
L 171.828237 -40.304684 
L 174.180081 -41.465319 
L 176.531924 -42.538487 
L 178.883767 -43.505906 
L 181.235611 -44.458933 
L 183.587454 -45.323078 
L 185.939298 -46.177026 
L 188.291141 -46.897375 
L 190.642984 -47.64256 
L 192.994828 -48.260184 
L 195.346671 -48.888626 
L 197.698515 -49.486784 
L 200.050358 -49.983227 
L 202.402201 -50.437915 
L 204.754045 -50.96768 
L 207.105888 -51.349079 
L 209.457731 -51.774253 
L 209.457731 -51.90513 
L 209.457731 -51.90513 
L 207.105888 -51.510238 
L 204.754045 -51.114897 
L 202.402201 -50.611804 
L 200.050358 -50.13205 
L 197.698515 -49.64146 
L 195.346671 -49.06428 
L 192.994828 -48.428391 
L 190.642984 -47.785885 
L 188.291141 -47.115382 
L 185.939298 -46.373093 
L 183.587454 -45.565329 
L 181.235611 -44.661606 
L 178.883767 -43.765924 
L 176.531924 -42.751233 
L 174.180081 -41.704639 
L 171.828237 -40.595563 
L 169.476394 -39.452422 
L 167.124551 -38.264595 
L 164.772707 -37.016282 
L 162.420864 -35.928186 
L 160.06902 -34.732891 
L 157.717177 -33.839798 
L 155.365334 -32.976713 
L 153.01349 -32.194074 
L 150.661647 -31.62002 
L 148.309803 -31.321028 
L 145.95796 -32.047221 
L 143.606117 -33.046708 
L 141.254273 -61.65843 
z
" style="stroke: #000000; stroke-opacity: 0.2"/>
    </defs>
    <g clip-path="url(#pd78704e663)">
     <use xlink:href="#m28793c6e9f" x="0" y="134.806076" style="fill-opacity: 0.2; stroke: #000000; stroke-opacity: 0.2"/>
    </g>
   </g>
   <g id="matplotlib.axis_7">
    <g id="xtick_7">
     <g id="line2d_39">
      <g>
       <use xlink:href="#m84fcdf1a76" x="141.254273" y="109.036981" style="stroke: #000000; stroke-width: 0.8"/>
      </g>
     </g>
     <g id="text_25">
      <!-- $\mathdefault{0}$ -->
      <g transform="translate(139.137182 121.571783) scale(0.08 -0.08)">
       <use xlink:href="#CMR17-30" transform="scale(0.996264)"/>
      </g>
     </g>
    </g>
    <g id="xtick_8">
     <g id="line2d_40">
      <g>
       <use xlink:href="#m84fcdf1a76" x="188.291141" y="109.036981" style="stroke: #000000; stroke-width: 0.8"/>
      </g>
     </g>
     <g id="text_26">
      <!-- $\mathdefault{20}$ -->
      <g transform="translate(184.056958 121.571783) scale(0.08 -0.08)">
       <use xlink:href="#CMR17-32" transform="scale(0.996264)"/>
       <use xlink:href="#CMR17-30" transform="translate(45.690477 0) scale(0.996264)"/>
      </g>
     </g>
    </g>
    <g id="text_27">
     <!-- $c_b$ -->
     <g transform="translate(171.885192 129.656331) scale(0.08 -0.08)">
      <use xlink:href="#CMMI12-63" transform="scale(0.996264)"/>
      <use xlink:href="#CMMI12-62" transform="translate(41.983234 -14.943915) scale(0.697382)"/>
     </g>
    </g>
   </g>
   <g id="matplotlib.axis_8">
    <g id="ytick_9">
     <g id="line2d_41">
      <g>
       <use xlink:href="#m0b49de771c" x="137.8441" y="109.036981" style="stroke: #000000; stroke-width: 0.8"/>
      </g>
     </g>
     <g id="text_28">
      <!-- $10^{-4}$ -->
      <g transform="translate(112.966683 111.804382) scale(0.08 -0.08)">
       <defs>
        <path id="CMR17-34" d="M 2150 4147 
C 2150 4281 2144 4288 2029 4288 
L 128 1254 
L 128 1088 
L 1779 1088 
L 1779 460 
C 1779 230 1766 166 1318 166 
L 1197 166 
L 1197 0 
C 1402 12 1747 12 1965 12 
C 2182 12 2528 12 2733 0 
L 2733 166 
L 2611 166 
C 2163 166 2150 230 2150 460 
L 2150 1088 
L 2803 1088 
L 2803 1254 
L 2150 1254 
L 2150 4147 
z
M 1798 3723 
L 1798 1254 
L 256 1254 
L 1798 3723 
z
" transform="scale(0.015625)"/>
       </defs>
       <use xlink:href="#CMR17-31" transform="scale(0.996264)"/>
       <use xlink:href="#CMR17-30" transform="translate(45.690477 0) scale(0.996264)"/>
       <use xlink:href="#CMSY10-0" transform="translate(91.380954 36.153639) scale(0.697382)"/>
       <use xlink:href="#CMR17-34" transform="translate(145.621947 36.153639) scale(0.697382)"/>
      </g>
     </g>
    </g>
    <g id="ytick_10">
     <g id="line2d_42">
      <g>
       <use xlink:href="#m0b49de771c" x="137.8441" y="91.087282" style="stroke: #000000; stroke-width: 0.8"/>
      </g>
     </g>
     <g id="text_29">
      <!-- $10^{-2}$ -->
      <g transform="translate(112.966683 93.854683) scale(0.08 -0.08)">
       <use xlink:href="#CMR17-31" transform="scale(0.996264)"/>
       <use xlink:href="#CMR17-30" transform="translate(45.690477 0) scale(0.996264)"/>
       <use xlink:href="#CMSY10-0" transform="translate(91.380954 36.153639) scale(0.697382)"/>
       <use xlink:href="#CMR17-32" transform="translate(145.621947 36.153639) scale(0.697382)"/>
      </g>
     </g>
    </g>
    <g id="ytick_11">
     <g id="line2d_43">
      <g>
       <use xlink:href="#m0b49de771c" x="137.8441" y="73.137582" style="stroke: #000000; stroke-width: 0.8"/>
      </g>
     </g>
     <g id="text_30">
      <!-- $10^{0}$ -->
      <g transform="translate(118.722822 75.904983) scale(0.08 -0.08)">
       <use xlink:href="#CMR17-31" transform="scale(0.996264)"/>
       <use xlink:href="#CMR17-30" transform="translate(45.690477 0) scale(0.996264)"/>
       <use xlink:href="#CMR17-30" transform="translate(91.380954 36.153639) scale(0.697382)"/>
      </g>
     </g>
    </g>
   </g>
   <g id="line2d_44">
    <path d="M 141.254273 73.164186 
L 143.606117 102.946593 
L 145.95796 103.824407 
L 148.309803 104.431496 
L 150.661647 104.285228 
L 153.01349 103.863554 
L 155.365334 103.325285 
L 157.717177 102.551687 
L 160.06902 101.717083 
L 162.420864 100.696788 
L 164.772707 99.509671 
L 167.124551 98.265257 
L 169.476394 97.052532 
L 171.828237 95.858473 
L 174.180081 94.670959 
L 176.531924 93.553684 
L 178.883767 92.5115 
L 181.235611 91.541379 
L 183.587454 90.633608 
L 185.939298 89.778589 
L 188.291141 89.03287 
L 190.642984 88.327133 
L 192.994828 87.702982 
L 195.346671 87.09295 
L 197.698515 86.522079 
L 200.050358 86.001055 
L 202.402201 85.548233 
L 204.754045 85.079208 
L 207.105888 84.682336 
L 209.457731 84.264195 
" clip-path="url(#pd78704e663)" style="fill: none; stroke: #0000ff; stroke-width: 1.5; stroke-linecap: square"/>
   </g>
   <g id="line2d_45">
    <path d="M 141.254273 73.150078 
L 143.606117 102.485032 
L 145.95796 103.304545 
L 148.309803 103.801305 
L 150.661647 103.488352 
L 153.01349 102.885865 
L 155.365334 102.158547 
L 157.717177 101.222638 
L 160.06902 100.27322 
L 162.420864 99.133401 
L 164.772707 97.929228 
L 167.124551 96.70181 
L 169.476394 95.489637 
L 171.828237 94.35324 
L 174.180081 93.219261 
L 176.531924 92.159765 
L 178.883767 91.167993 
L 181.235611 90.244489 
L 183.587454 89.359991 
L 185.939298 88.529784 
L 188.291141 87.798174 
L 190.642984 87.091195 
L 192.994828 86.460882 
L 195.346671 85.828634 
L 197.698515 85.241187 
L 200.050358 84.747727 
L 202.402201 84.280247 
L 204.754045 83.764093 
L 207.105888 83.375585 
L 209.457731 82.965836 
" clip-path="url(#pd78704e663)" style="fill: none; stroke: #000000; stroke-width: 1.5; stroke-linecap: square"/>
   </g>
   <g id="line2d_46">
    <path d="M 141.254273 73.172987 
L 143.606117 104.192079 
L 145.95796 104.903295 
L 148.309803 104.986763 
L 150.661647 104.816214 
L 153.01349 104.227652 
L 155.365334 103.828444 
L 157.717177 103.103641 
L 160.06902 102.156497 
L 162.420864 101.208827 
L 164.772707 99.757505 
L 167.124551 98.723893 
L 169.476394 97.349621 
L 171.828237 96.162322 
L 174.180081 94.911357 
L 176.531924 93.870336 
L 178.883767 92.877469 
L 181.235611 91.795506 
L 183.587454 90.870275 
L 185.939298 90.032377 
L 188.291141 89.227704 
L 190.642984 88.456748 
L 192.994828 87.846311 
L 195.346671 87.374149 
L 197.698515 86.670193 
L 200.050358 86.13814 
L 202.402201 85.723676 
L 204.754045 85.197717 
L 207.105888 84.79833 
L 209.457731 84.427439 
" clip-path="url(#pd78704e663)" style="fill: none; stroke-dasharray: 5.55,2.4; stroke-dashoffset: 0; stroke: #0000ff; stroke-width: 1.5"/>
   </g>
   <g id="line2d_47">
    <path d="M 141.254273 73.160377 
L 143.606117 101.524459 
L 145.95796 102.664773 
L 148.309803 103.596597 
L 150.661647 103.463797 
L 153.01349 103.261264 
L 155.365334 102.415418 
L 157.717177 102.009464 
L 160.06902 101.290262 
L 162.420864 99.97882 
L 164.772707 99.226248 
L 167.124551 97.827137 
L 169.476394 96.73763 
L 171.828237 95.516206 
L 174.180081 94.472839 
L 176.531924 93.265418 
L 178.883767 92.335701 
L 181.235611 91.286005 
L 183.587454 90.391336 
L 185.939298 89.552372 
L 188.291141 88.773688 
L 190.642984 88.180182 
L 192.994828 87.524781 
L 195.346671 86.876481 
L 197.698515 86.413593 
L 200.050358 85.825538 
L 202.402201 85.377056 
L 204.754045 84.960052 
L 207.105888 84.573759 
L 209.457731 84.147418 
" clip-path="url(#pd78704e663)" style="fill: none; stroke-dasharray: 1.5,2.475; stroke-dashoffset: 0; stroke: #0000ff; stroke-width: 1.5"/>
   </g>
   <g id="line2d_48">
    <path d="M 141.254273 73.152503 
L 143.606117 103.763368 
L 145.95796 104.479143 
L 148.309803 104.328184 
L 150.661647 103.989241 
L 153.01349 103.315239 
L 155.365334 102.773541 
L 157.717177 101.79183 
L 160.06902 100.693819 
L 162.420864 99.653978 
L 164.772707 98.11111 
L 167.124551 97.074604 
L 169.476394 95.792487 
L 171.828237 94.653089 
L 174.180081 93.521222 
L 176.531924 92.450375 
L 178.883767 91.441706 
L 181.235611 90.51889 
L 183.587454 89.612358 
L 185.939298 88.743077 
L 188.291141 88.006643 
L 190.642984 87.242072 
L 192.994828 86.613775 
L 195.346671 85.98365 
L 197.698515 85.423063 
L 200.050358 84.883947 
L 202.402201 84.49177 
L 204.754045 83.94006 
L 207.105888 83.513079 
L 209.457731 83.099694 
" clip-path="url(#pd78704e663)" style="fill: none; stroke-dasharray: 5.55,2.4; stroke-dashoffset: 0; stroke: #000000; stroke-width: 1.5"/>
   </g>
   <g id="line2d_49">
    <path d="M 141.254273 73.140274 
L 143.606117 100.887354 
L 145.95796 102.0577 
L 148.309803 102.875862 
L 150.661647 102.610456 
L 153.01349 102.364519 
L 155.365334 101.164329 
L 157.717177 100.757272 
L 160.06902 99.791436 
L 162.420864 98.481106 
L 164.772707 97.670726 
L 167.124551 96.230636 
L 169.476394 95.195241 
L 171.828237 94.062273 
L 174.180081 93.040664 
L 176.531924 91.906554 
L 178.883767 90.931728 
L 181.235611 89.935278 
L 183.587454 89.140238 
L 185.939298 88.354163 
L 188.291141 87.570359 
L 190.642984 86.905545 
L 192.994828 86.279458 
L 195.346671 85.630886 
L 197.698515 85.085751 
L 200.050358 84.608693 
L 202.402201 84.10326 
L 204.754045 83.6376 
L 207.105888 83.160988 
L 209.457731 82.807422 
" clip-path="url(#pd78704e663)" style="fill: none; stroke-dasharray: 1.5,2.475; stroke-dashoffset: 0; stroke: #000000; stroke-width: 1.5"/>
   </g>
   <g id="patch_20">
    <path d="M 137.8441 109.036981 
L 137.8441 73.137582 
" style="fill: none; stroke: #000000; stroke-width: 0.8; stroke-linejoin: miter; stroke-linecap: square"/>
   </g>
   <g id="patch_21">
    <path d="M 212.867904 109.036981 
L 212.867904 73.137582 
" style="fill: none; stroke: #000000; stroke-width: 0.8; stroke-linejoin: miter; stroke-linecap: square"/>
   </g>
   <g id="patch_22">
    <path d="M 137.8441 109.036981 
L 212.867904 109.036981 
" style="fill: none; stroke: #000000; stroke-width: 0.8; stroke-linejoin: miter; stroke-linecap: square"/>
   </g>
   <g id="patch_23">
    <path d="M 137.8441 73.137582 
L 212.867904 73.137582 
" style="fill: none; stroke: #000000; stroke-width: 0.8; stroke-linejoin: miter; stroke-linecap: square"/>
   </g>
   <g id="text_31">
    <!-- $\mathbf{d)}$ -->
    <g transform="translate(125.375509 67.016623) scale(0.08 -0.08)">
     <defs>
      <path id="CMBX12-64" d="M 2221 4428 
L 2221 4153 
C 2618 4153 2662 4153 2662 3896 
L 2662 2571 
C 2522 2694 2240 2880 1798 2880 
C 890 2880 243 2313 243 1408 
C 243 483 877 -64 1728 -64 
C 2080 -64 2381 57 2630 270 
L 2630 -64 
L 3770 -26 
L 3770 250 
C 3373 250 3328 250 3328 502 
L 3328 4480 
L 2221 4428 
z
M 2630 625 
C 2362 231 2035 147 1805 147 
C 1011 147 1011 968 1011 1395 
C 1011 1699 1011 2022 1152 2268 
C 1350 2630 1728 2668 1875 2668 
C 2138 2668 2419 2552 2630 2268 
L 2630 625 
z
" transform="scale(0.015625)"/>
     </defs>
     <use xlink:href="#CMBX12-64" transform="scale(0.996264)"/>
     <use xlink:href="#CMR17-29" transform="translate(62.266501 0) scale(0.996264)"/>
    </g>
   </g>
  </g>
 </g>
 <defs>
  <clipPath id="p66bdfb3d01">
   <rect x="36.561965" y="15.698543" width="75.023804" height="35.899399"/>
  </clipPath>
  <clipPath id="pc31ac44d56">
   <rect x="137.8441" y="15.698543" width="75.023804" height="35.899399"/>
  </clipPath>
  <clipPath id="p1ec48a026d">
   <rect x="36.561965" y="73.137582" width="75.023804" height="35.899399"/>
  </clipPath>
  <clipPath id="pd78704e663">
   <rect x="137.8441" y="73.137582" width="75.023804" height="35.899399"/>
  </clipPath>
 </defs>
</svg>
