<?xml version="1.0" encoding="utf-8" standalone="no"?>
<!DOCTYPE svg PUBLIC "-//W3C//DTD SVG 1.1//EN"
  "http://www.w3.org/Graphics/SVG/1.1/DTD/svg11.dtd">
<svg xmlns:xlink="http://www.w3.org/1999/xlink" width="217.353469pt" height="134.806076pt" viewBox="0 0 217.353469 134.806076" xmlns="http://www.w3.org/2000/svg" version="1.1">
 <metadata>
  <rdf:RDF xmlns:dc="http://purl.org/dc/elements/1.1/" xmlns:cc="http://creativecommons.org/ns#" xmlns:rdf="http://www.w3.org/1999/02/22-rdf-syntax-ns#">
   <cc:Work>
    <dc:type rdf:resource="http://purl.org/dc/dcmitype/StillImage"/>
    <dc:date>2025-09-20T15:44:33.921636</dc:date>
    <dc:format>image/svg+xml</dc:format>
    <dc:creator>
     <cc:Agent>
      <dc:title>Matplotlib v3.10.0, https://matplotlib.org/</dc:title>
     </cc:Agent>
    </dc:creator>
   </cc:Work>
  </rdf:RDF>
 </metadata>
 <defs>
  <style type="text/css">*{stroke-linejoin: round; stroke-linecap: butt}</style>
 </defs>
 <g id="figure_1">
  <g id="patch_1">
   <path d="M 0 134.806076 
L 217.353469 134.806076 
L 217.353469 0 
L 0 0 
z
" style="fill: #ffffff"/>
  </g>
  <g id="axes_1">
   <g id="patch_2">
    <path d="M 37.44753 51.597942 
L 112.471334 51.597942 
L 112.471334 15.698543 
L 37.44753 15.698543 
z
" style="fill: #ffffff"/>
   </g>
   <g id="FillBetweenPolyCollection_1">
    <defs>
     <path id="m6180336935" d="M 40.857703 -100.080185 
L 40.857703 -98.506533 
L 43.209546 -99.046316 
L 45.561389 -99.281104 
L 47.913233 -99.379055 
L 50.265076 -99.166815 
L 52.61692 -99.131203 
L 54.968763 -99.561213 
L 57.320606 -99.048358 
L 59.67245 -99.366772 
L 62.024293 -99.27426 
L 64.376137 -99.055609 
L 66.72798 -99.239398 
L 69.079823 -99.078178 
L 71.431667 -99.217959 
L 73.78351 -99.249219 
L 76.135353 -99.397917 
L 78.487197 -99.492141 
L 80.83904 -98.969847 
L 83.190884 -99.110411 
L 85.542727 -99.244772 
L 87.89457 -99.309978 
L 90.246414 -99.252459 
L 92.598257 -99.406233 
L 94.9501 -99.290513 
L 97.301944 -99.585631 
L 99.653787 -99.660852 
L 102.005631 -99.624794 
L 104.357474 -99.522211 
L 106.709317 -98.988027 
L 109.061161 -99.785575 
L 109.061161 -101.005619 
L 109.061161 -101.005619 
L 106.709317 -101.035928 
L 104.357474 -100.757784 
L 102.005631 -100.816544 
L 99.653787 -100.683776 
L 97.301944 -100.754783 
L 94.9501 -100.722595 
L 92.598257 -100.584438 
L 90.246414 -100.593368 
L 87.89457 -100.694867 
L 85.542727 -100.703743 
L 83.190884 -100.932282 
L 80.83904 -100.540404 
L 78.487197 -100.327973 
L 76.135353 -100.339786 
L 73.78351 -100.429067 
L 71.431667 -100.665919 
L 69.079823 -100.494051 
L 66.72798 -100.57161 
L 64.376137 -100.499322 
L 62.024293 -100.398711 
L 59.67245 -100.454039 
L 57.320606 -100.306806 
L 54.968763 -100.496989 
L 52.61692 -100.405213 
L 50.265076 -100.320253 
L 47.913233 -100.355792 
L 45.561389 -100.389359 
L 43.209546 -100.454777 
L 40.857703 -100.080185 
z
" style="stroke: #0000ff; stroke-opacity: 0.2"/>
    </defs>
    <g clip-path="url(#p18f547ebaf)">
     <use xlink:href="#m6180336935" x="0" y="134.806076" style="fill: #0000ff; fill-opacity: 0.2; stroke: #0000ff; stroke-opacity: 0.2"/>
    </g>
   </g>
   <g id="FillBetweenPolyCollection_2">
    <defs>
     <path id="mc8af64200a" d="M 40.857703 -95.895577 
L 40.857703 -95.609176 
L 43.209546 -95.576613 
L 45.561389 -95.633564 
L 47.913233 -95.603821 
L 50.265076 -95.628466 
L 52.61692 -95.581444 
L 54.968763 -94.918652 
L 57.320606 -95.581245 
L 59.67245 -95.647299 
L 62.024293 -95.662451 
L 64.376137 -95.634054 
L 66.72798 -94.93609 
L 69.079823 -95.642986 
L 71.431667 -95.60571 
L 73.78351 -95.262898 
L 76.135353 -95.570025 
L 78.487197 -94.880541 
L 80.83904 -95.592797 
L 83.190884 -95.58703 
L 85.542727 -95.535666 
L 87.89457 -95.669153 
L 90.246414 -95.628926 
L 92.598257 -95.640155 
L 94.9501 -95.633267 
L 97.301944 -95.613583 
L 99.653787 -95.273747 
L 102.005631 -95.624464 
L 104.357474 -95.627492 
L 106.709317 -95.66053 
L 109.061161 -95.651474 
L 109.061161 -95.858488 
L 109.061161 -95.858488 
L 106.709317 -95.870231 
L 104.357474 -95.855071 
L 102.005631 -95.836861 
L 99.653787 -96.388698 
L 97.301944 -95.818538 
L 94.9501 -95.85279 
L 92.598257 -95.8677 
L 90.246414 -95.860615 
L 87.89457 -95.863234 
L 85.542727 -96.019514 
L 83.190884 -95.99521 
L 80.83904 -96.006697 
L 78.487197 -96.998312 
L 76.135353 -95.877639 
L 73.78351 -96.468281 
L 71.431667 -95.832574 
L 69.079823 -95.831371 
L 66.72798 -97.101855 
L 64.376137 -95.884098 
L 62.024293 -95.848954 
L 59.67245 -95.834373 
L 57.320606 -95.909545 
L 54.968763 -97.176974 
L 52.61692 -95.950744 
L 50.265076 -95.79058 
L 47.913233 -96.016836 
L 45.561389 -95.952669 
L 43.209546 -95.809545 
L 40.857703 -95.895577 
z
" style="stroke: #000000; stroke-opacity: 0.2"/>
    </defs>
    <g clip-path="url(#p18f547ebaf)">
     <use xlink:href="#mc8af64200a" x="0" y="134.806076" style="fill-opacity: 0.2; stroke: #000000; stroke-opacity: 0.2"/>
    </g>
   </g>
   <g id="matplotlib.axis_1">
    <g id="xtick_1">
     <g id="line2d_1">
      <defs>
       <path id="mddca19e654" d="M 0 0 
L 0 3.5 
" style="stroke: #000000; stroke-width: 0.8"/>
      </defs>
      <g>
       <use xlink:href="#mddca19e654" x="40.857703" y="51.597942" style="stroke: #000000; stroke-width: 0.8"/>
      </g>
     </g>
    </g>
    <g id="xtick_2">
     <g id="line2d_2">
      <g>
       <use xlink:href="#mddca19e654" x="87.89457" y="51.597942" style="stroke: #000000; stroke-width: 0.8"/>
      </g>
     </g>
    </g>
   </g>
   <g id="matplotlib.axis_2">
    <g id="ytick_1">
     <g id="line2d_3">
      <defs>
       <path id="ma43927588b" d="M 0 0 
L -3.5 0 
" style="stroke: #000000; stroke-width: 0.8"/>
      </defs>
      <g>
       <use xlink:href="#ma43927588b" x="37.44753" y="51.597942" style="stroke: #000000; stroke-width: 0.8"/>
      </g>
     </g>
     <g id="text_1">
      <!-- $10^{-2}$ -->
      <g transform="translate(12.570112 54.365343) scale(0.08 -0.08)">
       <defs>
        <path id="CMR17-31" d="M 1702 4083 
C 1702 4217 1696 4224 1606 4224 
C 1357 3927 979 3833 621 3820 
C 602 3820 570 3820 563 3808 
C 557 3795 557 3782 557 3648 
C 755 3648 1088 3686 1344 3839 
L 1344 467 
C 1344 243 1331 166 781 166 
L 589 166 
L 589 0 
C 896 6 1216 12 1523 12 
C 1830 12 2150 6 2458 0 
L 2458 166 
L 2266 166 
C 1715 166 1702 236 1702 467 
L 1702 4083 
z
" transform="scale(0.015625)"/>
        <path id="CMR17-30" d="M 2688 2038 
C 2688 2430 2682 3099 2413 3613 
C 2176 4063 1798 4224 1466 4224 
C 1158 4224 768 4082 525 3620 
C 269 3137 243 2539 243 2038 
C 243 1671 250 1112 448 623 
C 723 -39 1216 -128 1466 -128 
C 1760 -128 2208 -7 2470 604 
C 2662 1048 2688 1568 2688 2038 
z
M 1466 -26 
C 1056 -26 813 328 723 816 
C 653 1196 653 1749 653 2109 
C 653 2604 653 3015 736 3407 
C 858 3954 1216 4121 1466 4121 
C 1728 4121 2067 3947 2189 3420 
C 2272 3054 2278 2623 2278 2109 
C 2278 1691 2278 1176 2202 797 
C 2067 96 1690 -26 1466 -26 
z
" transform="scale(0.015625)"/>
        <path id="CMSY10-0" d="M 4218 1472 
C 4326 1472 4442 1472 4442 1600 
C 4442 1728 4326 1728 4218 1728 
L 755 1728 
C 646 1728 531 1728 531 1600 
C 531 1472 646 1472 755 1472 
L 4218 1472 
z
" transform="scale(0.015625)"/>
        <path id="CMR17-32" d="M 2669 990 
L 2554 990 
C 2490 537 2438 460 2413 422 
C 2381 371 1920 371 1830 371 
L 602 371 
C 832 620 1280 1073 1824 1596 
C 2214 1966 2669 2400 2669 3033 
C 2669 3788 2067 4224 1395 4224 
C 691 4224 262 3603 262 3027 
C 262 2777 448 2745 525 2745 
C 589 2745 781 2783 781 3007 
C 781 3206 614 3264 525 3264 
C 486 3264 448 3257 422 3244 
C 544 3788 915 4057 1306 4057 
C 1862 4057 2227 3616 2227 3033 
C 2227 2477 1901 1998 1536 1583 
L 262 147 
L 262 0 
L 2515 0 
L 2669 990 
z
" transform="scale(0.015625)"/>
       </defs>
       <use xlink:href="#CMR17-31" transform="scale(0.996264)"/>
       <use xlink:href="#CMR17-30" transform="translate(45.690477 0) scale(0.996264)"/>
       <use xlink:href="#CMSY10-0" transform="translate(91.380954 36.153639) scale(0.697382)"/>
       <use xlink:href="#CMR17-32" transform="translate(145.621947 36.153639) scale(0.697382)"/>
      </g>
     </g>
    </g>
    <g id="ytick_2">
     <g id="line2d_4">
      <g>
       <use xlink:href="#ma43927588b" x="37.44753" y="33.648243" style="stroke: #000000; stroke-width: 0.8"/>
      </g>
     </g>
     <g id="text_2">
      <!-- $10^{-1}$ -->
      <g transform="translate(12.570112 36.415644) scale(0.08 -0.08)">
       <use xlink:href="#CMR17-31" transform="scale(0.996264)"/>
       <use xlink:href="#CMR17-30" transform="translate(45.690477 0) scale(0.996264)"/>
       <use xlink:href="#CMSY10-0" transform="translate(91.380954 36.153639) scale(0.697382)"/>
       <use xlink:href="#CMR17-31" transform="translate(145.621947 36.153639) scale(0.697382)"/>
      </g>
     </g>
    </g>
    <g id="ytick_3">
     <g id="line2d_5">
      <g>
       <use xlink:href="#ma43927588b" x="37.44753" y="15.698543" style="stroke: #000000; stroke-width: 0.8"/>
      </g>
     </g>
     <g id="text_3">
      <!-- $10^{0}$ -->
      <g transform="translate(18.326252 18.465944) scale(0.08 -0.08)">
       <use xlink:href="#CMR17-31" transform="scale(0.996264)"/>
       <use xlink:href="#CMR17-30" transform="translate(45.690477 0) scale(0.996264)"/>
       <use xlink:href="#CMR17-30" transform="translate(91.380954 36.153639) scale(0.697382)"/>
      </g>
     </g>
    </g>
    <g id="text_4">
     <!-- Time ($s$) -->
     <g transform="translate(9.577584 49.955377) rotate(-90) scale(0.08 -0.08)">
      <defs>
       <path id="CMR17-54" d="M 3981 4332 
L 288 4332 
L 179 2924 
L 294 2924 
C 378 3981 467 4166 1453 4166 
C 1568 4166 1754 4166 1805 4159 
C 1926 4140 1926 4064 1926 3917 
L 1926 465 
C 1926 236 1907 166 1376 166 
L 1197 166 
L 1197 0 
C 1504 6 1824 12 2138 12 
C 2451 12 2771 6 3078 0 
L 3078 166 
L 2899 166 
C 2368 166 2349 236 2349 465 
L 2349 3917 
C 2349 4057 2349 4134 2464 4159 
C 2515 4166 2701 4166 2816 4166 
C 3795 4166 3891 3981 3974 2924 
L 4090 2924 
L 3981 4332 
z
" transform="scale(0.015625)"/>
       <path id="CMR17-69" d="M 992 3961 
C 992 4102 877 4224 730 4224 
C 589 4224 467 4108 467 3961 
C 467 3820 582 3699 730 3699 
C 870 3699 992 3814 992 3961 
z
M 243 2745 
L 243 2579 
C 602 2579 653 2540 653 2231 
L 653 443 
C 653 198 627 166 218 166 
L 218 0 
C 371 12 646 12 806 12 
C 960 12 1222 12 1370 0 
L 1370 166 
C 992 166 979 205 979 436 
L 979 2816 
L 243 2745 
z
" transform="scale(0.015625)"/>
       <path id="CMR17-6d" d="M 4326 1954 
C 4326 2276 4269 2816 3507 2816 
C 3072 2816 2771 2520 2656 2173 
L 2650 2173 
C 2573 2700 2195 2816 1837 2816 
C 1331 2816 1069 2424 973 2166 
L 966 2166 
L 966 2816 
L 211 2745 
L 211 2578 
C 589 2578 646 2540 646 2231 
L 646 443 
C 646 198 621 166 211 166 
L 211 0 
C 365 12 646 12 813 12 
C 979 12 1267 12 1421 0 
L 1421 166 
C 1011 166 986 192 986 443 
L 986 1678 
C 986 2269 1344 2713 1792 2713 
C 2266 2713 2317 2289 2317 1980 
L 2317 443 
C 2317 198 2291 166 1882 166 
L 1882 0 
C 2035 12 2317 12 2483 12 
C 2650 12 2938 12 3091 0 
L 3091 166 
C 2682 166 2656 192 2656 443 
L 2656 1678 
C 2656 2269 3014 2713 3462 2713 
C 3936 2713 3987 2289 3987 1980 
L 3987 443 
C 3987 198 3962 166 3552 166 
L 3552 0 
C 3706 12 3987 12 4154 12 
C 4320 12 4608 12 4762 0 
L 4762 166 
C 4352 166 4326 192 4326 443 
L 4326 1954 
z
" transform="scale(0.015625)"/>
       <path id="CMR17-65" d="M 2438 1503 
C 2464 1529 2464 1542 2464 1606 
C 2464 2251 2118 2816 1389 2816 
C 710 2816 173 2175 173 1394 
C 173 554 781 -64 1459 -64 
C 2176 -64 2458 619 2458 755 
C 2458 800 2419 800 2406 800 
C 2362 800 2355 787 2330 709 
C 2189 270 1837 51 1504 51 
C 1229 51 954 206 781 490 
C 582 819 582 1200 582 1503 
L 2438 1503 
z
M 589 1600 
C 634 2511 1126 2713 1382 2713 
C 1818 2713 2112 2308 2118 1600 
L 589 1600 
z
" transform="scale(0.015625)"/>
       <path id="CMR17-28" d="M 1958 -1562 
C 1958 -1556 1958 -1543 1939 -1524 
C 1645 -1223 858 -403 858 1596 
C 858 3595 1632 4408 1946 4729 
C 1946 4735 1958 4748 1958 4767 
C 1958 4787 1939 4800 1914 4800 
C 1843 4800 1299 4325 986 3620 
C 666 2909 576 2218 576 1603 
C 576 1141 621 360 1005 -467 
C 1312 -1133 1837 -1600 1914 -1600 
C 1946 -1600 1958 -1588 1958 -1562 
z
" transform="scale(0.015625)"/>
       <path id="CMMI12-73" d="M 1459 1290 
C 1568 1271 1741 1233 1779 1227 
C 1862 1201 2150 1099 2150 793 
C 2150 595 1971 64 1229 64 
C 1094 64 614 83 486 447 
C 742 414 870 614 870 755 
C 870 889 781 960 653 960 
C 512 960 326 851 326 563 
C 326 176 710 -64 1222 -64 
C 2195 -64 2483 665 2483 998 
C 2483 1093 2483 1271 2278 1475 
C 2118 1627 1965 1659 1619 1729 
C 1446 1767 1171 1824 1171 2111 
C 1171 2239 1286 2687 1894 2687 
C 2163 2687 2426 2589 2490 2368 
C 2208 2368 2195 2124 2195 2118 
C 2195 1983 2317 1945 2374 1945 
C 2464 1945 2643 2015 2643 2284 
C 2643 2546 2400 2816 1901 2816 
C 1062 2816 838 2169 838 1907 
C 838 1424 1312 1322 1459 1290 
z
" transform="scale(0.015625)"/>
       <path id="CMR17-29" d="M 1683 1596 
C 1683 2057 1638 2839 1254 3665 
C 947 4332 422 4800 346 4800 
C 326 4800 301 4793 301 4761 
C 301 4748 307 4742 314 4729 
C 621 4408 1402 3595 1402 1603 
C 1402 -396 627 -1210 314 -1530 
C 307 -1543 301 -1549 301 -1562 
C 301 -1594 326 -1600 346 -1600 
C 416 -1600 960 -1127 1274 -422 
C 1594 289 1683 981 1683 1596 
z
" transform="scale(0.015625)"/>
      </defs>
      <use xlink:href="#CMR17-54" transform="scale(0.996264)"/>
      <use xlink:href="#CMR17-69" transform="translate(66.509881 0) scale(0.996264)"/>
      <use xlink:href="#CMR17-6d" transform="translate(91.380939 0) scale(0.996264)"/>
      <use xlink:href="#CMR17-65" transform="translate(168.300529 0) scale(0.996264)"/>
      <use xlink:href="#CMR17-28" transform="translate(238.862156 0) scale(0.996264)"/>
      <use xlink:href="#CMMI12-73" transform="translate(274.142924 0) scale(0.996264)"/>
      <use xlink:href="#CMR17-29" transform="translate(320.092971 0) scale(0.996264)"/>
     </g>
    </g>
   </g>
   <g id="line2d_6">
    <path d="M 40.857703 35.473076 
L 43.209546 35.023763 
L 45.561389 34.951167 
L 47.913233 34.923365 
L 50.265076 35.041228 
L 52.61692 35.011871 
L 54.968763 34.762942 
L 57.320606 35.103127 
L 59.67245 34.87673 
L 62.024293 34.949334 
L 64.376137 34.995237 
L 66.72798 34.872148 
L 69.079823 34.987861 
L 71.431667 34.830567 
L 73.78351 34.944633 
L 76.135353 34.923009 
L 78.487197 34.884822 
L 80.83904 35.011465 
L 83.190884 34.731627 
L 85.542727 34.797736 
L 87.89457 34.77294 
L 90.246414 34.854367 
L 92.598257 34.788503 
L 94.9501 34.766683 
L 97.301944 34.613972 
L 99.653787 34.616996 
L 102.005631 34.562656 
L 104.357474 34.641625 
L 106.709317 34.727042 
L 109.061161 34.386636 
" clip-path="url(#p18f547ebaf)" style="fill: none; stroke: #0000ff; stroke-width: 1.5; stroke-linecap: square"/>
   </g>
   <g id="line2d_7">
    <path d="M 40.857703 39.052384 
L 43.209546 39.112128 
L 45.561389 39.011327 
L 47.913233 38.993013 
L 50.265076 39.096132 
L 52.61692 39.037795 
L 54.968763 38.676769 
L 57.320606 39.058953 
L 59.67245 39.064679 
L 62.024293 39.049816 
L 64.376137 39.045998 
L 66.72798 38.712132 
L 69.079823 39.068329 
L 71.431667 39.086109 
L 73.78351 38.917212 
L 76.135353 39.080727 
L 78.487197 38.794954 
L 80.83904 39.003583 
L 83.190884 39.012285 
L 85.542727 39.024733 
L 87.89457 39.039279 
L 90.246414 39.060445 
L 92.598257 39.051319 
L 94.9501 39.062275 
L 97.301944 39.089342 
L 99.653787 38.954938 
L 102.005631 39.07469 
L 104.357474 39.063964 
L 106.709317 39.039991 
L 109.061161 39.050408 
" clip-path="url(#p18f547ebaf)" style="fill: none; stroke: #000000; stroke-width: 1.5; stroke-linecap: square"/>
   </g>
   <g id="line2d_8">
    <path d="M 40.857703 37.311154 
L 43.209546 36.154468 
L 45.561389 36.945916 
L 47.913233 36.317917 
L 50.265076 36.654375 
L 52.61692 36.262931 
L 54.968763 35.685855 
L 57.320606 36.209156 
L 59.67245 36.153879 
L 62.024293 36.711762 
L 64.376137 36.871426 
L 66.72798 36.372528 
L 69.079823 36.71179 
L 71.431667 36.484037 
L 73.78351 36.262151 
L 76.135353 36.153981 
L 78.487197 36.20384 
L 80.83904 36.59681 
L 83.190884 35.755465 
L 85.542727 37.694849 
L 87.89457 36.887377 
L 90.246414 36.827401 
L 92.598257 36.318021 
L 94.9501 37.126948 
L 97.301944 36.04757 
L 99.653787 36.154314 
L 102.005631 35.942367 
L 104.357474 37.187058 
L 106.709317 38.308544 
L 109.061161 35.634658 
" clip-path="url(#p18f547ebaf)" style="fill: none; stroke-dasharray: 5.55,2.4; stroke-dashoffset: 0; stroke: #0000ff; stroke-width: 1.5"/>
   </g>
   <g id="line2d_9">
    <path d="M 40.857703 34.006768 
L 43.209546 33.686631 
L 45.561389 34.088757 
L 47.913233 33.925421 
L 50.265076 34.171439 
L 52.61692 33.844609 
L 54.968763 34.088364 
L 57.320606 34.006437 
L 59.67245 33.92519 
L 62.024293 34.044574 
L 64.376137 33.686762 
L 66.72798 33.84499 
L 69.079823 33.608929 
L 71.431667 33.765474 
L 73.78351 33.608578 
L 76.135353 33.686967 
L 78.487197 34.006807 
L 80.83904 33.844971 
L 83.190884 31.336789 
L 85.542727 33.844799 
L 87.89457 33.765739 
L 90.246414 34.006418 
L 92.598257 33.92544 
L 94.9501 33.455012 
L 97.301944 33.686482 
L 99.653787 33.56745 
L 102.005631 33.455103 
L 104.357474 33.844628 
L 106.709317 33.455248 
L 109.061161 33.454722 
" clip-path="url(#p18f547ebaf)" style="fill: none; stroke-dasharray: 1.5,2.475; stroke-dashoffset: 0; stroke: #0000ff; stroke-width: 1.5"/>
   </g>
   <g id="line2d_10">
    <path d="M 40.857703 39.287925 
L 43.209546 39.209354 
L 45.561389 39.209354 
L 47.913233 39.209202 
L 50.265076 39.28758 
L 52.61692 39.288116 
L 54.968763 39.209088 
L 57.320606 39.209392 
L 59.67245 39.209771 
L 62.024293 39.209126 
L 64.376137 39.287925 
L 66.72798 39.209278 
L 69.079823 39.209202 
L 71.431667 39.287963 
L 73.78351 39.209278 
L 76.135353 39.36958 
L 78.487197 39.209354 
L 80.83904 39.369619 
L 83.190884 39.209354 
L 85.542727 39.209278 
L 87.89457 39.20905 
L 90.246414 39.287963 
L 92.598257 39.209164 
L 94.9501 39.313715 
L 97.301944 39.20943 
L 99.653787 39.288116 
L 102.005631 39.287925 
L 104.357474 39.287235 
L 106.709317 39.209202 
L 109.061161 39.20905 
" clip-path="url(#p18f547ebaf)" style="fill: none; stroke-dasharray: 5.55,2.4; stroke-dashoffset: 0; stroke: #000000; stroke-width: 1.5"/>
   </g>
   <g id="line2d_11">
    <path d="M 40.857703 38.597377 
L 43.209546 38.669492 
L 45.561389 38.518837 
L 47.913233 38.168259 
L 50.265076 38.89707 
L 52.61692 38.23683 
L 54.968763 35.242111 
L 57.320606 38.378774 
L 59.67245 38.896633 
L 62.024293 38.820157 
L 64.376137 38.597272 
L 66.72798 35.448067 
L 69.079823 38.820013 
L 71.431667 38.820266 
L 73.78351 36.262411 
L 76.135353 38.574127 
L 78.487197 34.960652 
L 80.83904 38.236428 
L 83.190884 38.237165 
L 85.542727 37.894852 
L 87.89457 38.819688 
L 90.246414 38.819833 
L 92.598257 38.670094 
L 94.9501 38.820121 
L 97.301944 38.87291 
L 99.653787 36.484144 
L 102.005631 38.897325 
L 104.357474 38.847702 
L 106.709317 38.819652 
L 109.061161 38.820085 
" clip-path="url(#p18f547ebaf)" style="fill: none; stroke-dasharray: 1.5,2.475; stroke-dashoffset: 0; stroke: #000000; stroke-width: 1.5"/>
   </g>
   <g id="patch_3">
    <path d="M 37.44753 51.597942 
L 37.44753 15.698543 
" style="fill: none; stroke: #000000; stroke-width: 0.8; stroke-linejoin: miter; stroke-linecap: square"/>
   </g>
   <g id="patch_4">
    <path d="M 112.471334 51.597942 
L 112.471334 15.698543 
" style="fill: none; stroke: #000000; stroke-width: 0.8; stroke-linejoin: miter; stroke-linecap: square"/>
   </g>
   <g id="patch_5">
    <path d="M 37.44753 51.597942 
L 112.471334 51.597942 
" style="fill: none; stroke: #000000; stroke-width: 0.8; stroke-linejoin: miter; stroke-linecap: square"/>
   </g>
   <g id="patch_6">
    <path d="M 37.44753 15.698543 
L 112.471334 15.698543 
" style="fill: none; stroke: #000000; stroke-width: 0.8; stroke-linejoin: miter; stroke-linecap: square"/>
   </g>
   <g id="text_5">
    <!-- $\mathbf{a)}$ -->
    <g transform="translate(25.656953 9.577584) scale(0.08 -0.08)">
     <defs>
      <path id="CMBX12-61" d="M 2944 1894 
C 2944 2483 2477 2880 1574 2880 
C 1216 2880 461 2847 461 2310 
C 461 2041 666 1926 838 1926 
C 1030 1926 1216 2060 1216 2303 
C 1216 2425 1171 2540 1062 2611 
C 1274 2668 1427 2668 1549 2668 
C 1984 2668 2246 2425 2246 1900 
L 2246 1644 
C 1235 1644 218 1362 218 648 
C 218 64 960 -64 1402 -64 
C 1894 -64 2208 205 2336 488 
C 2336 250 2336 -26 2982 -26 
L 3309 -26 
C 3443 -26 3494 -26 3494 115 
C 3494 250 3437 250 3347 250 
C 2944 256 2944 359 2944 507 
L 2944 1894 
z
M 2246 867 
C 2246 262 1709 147 1504 147 
C 1190 147 928 359 928 655 
C 928 1240 1619 1439 2246 1472 
L 2246 867 
z
" transform="scale(0.015625)"/>
     </defs>
     <use xlink:href="#CMBX12-61" transform="scale(0.996264)"/>
     <use xlink:href="#CMR17-29" transform="translate(54.483188 0) scale(0.996264)"/>
    </g>
   </g>
   <g id="legend_1">
    <g id="line2d_12">
     <path d="M 68.496794 19.498543 
L 70.496794 19.498543 
L 72.496794 19.498543 
" style="fill: none; stroke: #0000ff; stroke-width: 1.5; stroke-linecap: square"/>
    </g>
    <g id="text_6">
     <!-- Mean -->
     <g transform="translate(73.696794 20.898543) scale(0.04 -0.04)">
      <defs>
       <path id="CMR17-4d" d="M 1338 4249 
C 1299 4345 1293 4352 1158 4352 
L 339 4352 
L 339 4185 
C 781 4185 851 4185 851 3898 
L 851 624 
C 851 465 851 166 339 166 
L 339 0 
C 486 12 755 12 915 12 
C 1075 12 1344 12 1491 0 
L 1491 166 
C 979 166 979 465 979 624 
L 979 4159 
L 986 4159 
L 2490 102 
C 2515 38 2528 0 2579 0 
C 2630 0 2643 38 2669 102 
L 4186 4191 
L 4192 4191 
L 4192 453 
C 4192 166 4122 166 3680 166 
L 3680 0 
C 3853 12 4198 12 4384 12 
C 4570 12 4922 12 5094 0 
L 5094 166 
C 4653 166 4582 166 4582 453 
L 4582 3898 
C 4582 4185 4653 4185 5094 4185 
L 5094 4352 
L 4282 4352 
C 4147 4352 4141 4345 4102 4249 
L 2720 516 
L 1338 4249 
z
" transform="scale(0.015625)"/>
       <path id="CMR17-61" d="M 2304 1656 
C 2304 2048 2304 2275 2035 2534 
C 1798 2751 1523 2816 1306 2816 
C 800 2816 435 2408 435 1977 
C 435 1740 627 1728 666 1728 
C 749 1728 896 1779 896 1958 
C 896 2118 774 2188 666 2188 
C 640 2188 608 2182 589 2176 
C 723 2594 1069 2713 1293 2713 
C 1613 2713 1965 2421 1965 1875 
L 1965 1632 
C 1587 1619 1133 1568 774 1373 
C 371 1147 256 822 256 576 
C 256 77 832 -64 1171 -64 
C 1523 -64 1850 135 1990 505 
C 2003 219 2182 -39 2464 -39 
C 2598 -39 2938 51 2938 563 
L 2938 926 
L 2822 926 
L 2822 557 
C 2822 161 2650 109 2566 109 
C 2304 109 2304 446 2304 732 
L 2304 1656 
z
M 1965 887 
C 1965 323 1568 38 1216 38 
C 896 38 646 278 646 576 
C 646 771 730 1114 1101 1322 
C 1408 1497 1760 1523 1965 1536 
L 1965 887 
z
" transform="scale(0.015625)"/>
       <path id="CMR17-6e" d="M 2656 1954 
C 2656 2282 2592 2816 1837 2816 
C 1331 2816 1069 2424 973 2166 
L 966 2166 
L 966 2816 
L 211 2745 
L 211 2578 
C 589 2578 646 2540 646 2231 
L 646 443 
C 646 198 621 166 211 166 
L 211 0 
C 365 12 646 12 813 12 
C 979 12 1267 12 1421 0 
L 1421 166 
C 1011 166 986 192 986 443 
L 986 1678 
C 986 2269 1344 2713 1792 2713 
C 2266 2713 2317 2289 2317 1980 
L 2317 443 
C 2317 198 2291 166 1882 166 
L 1882 0 
C 2035 12 2317 12 2483 12 
C 2650 12 2938 12 3091 0 
L 3091 166 
C 2682 166 2656 192 2656 443 
L 2656 1954 
z
" transform="scale(0.015625)"/>
      </defs>
      <use xlink:href="#CMR17-4d" transform="scale(0.996264)"/>
      <use xlink:href="#CMR17-65" transform="translate(84.686941 0) scale(0.996264)"/>
      <use xlink:href="#CMR17-61" transform="translate(125.172601 0) scale(0.996264)"/>
      <use xlink:href="#CMR17-6e" transform="translate(170.863078 0) scale(0.996264)"/>
     </g>
    </g>
    <g id="patch_7">
     <path d="M 68.496794 26.473408 
L 72.496794 26.473408 
L 72.496794 23.673408 
L 68.496794 23.673408 
z
" style="fill: #0000ff; fill-opacity: 0.2; stroke: #0000ff; stroke-opacity: 0.2; stroke-linejoin: miter"/>
    </g>
    <g id="text_7">
     <!-- Std -->
     <g transform="translate(73.696794 26.473408) scale(0.04 -0.04)">
      <defs>
       <path id="CMR17-53" d="M 2803 4351 
C 2803 4467 2797 4473 2758 4473 
C 2720 4473 2707 4447 2682 4390 
L 2490 3965 
C 2246 4320 1875 4480 1472 4480 
C 819 4480 294 3958 294 3301 
C 294 3101 339 2817 557 2546 
C 794 2250 1018 2198 1530 2063 
C 1722 2011 2042 1927 2106 1901 
C 2470 1747 2662 1360 2662 999 
C 2662 534 2336 38 1779 38 
C 1094 38 454 425 410 1328 
C 403 1431 397 1437 352 1437 
C 301 1437 294 1431 294 1302 
L 294 0 
C 294 -116 301 -122 339 -122 
C 384 -122 397 -90 486 109 
C 493 128 493 141 614 386 
C 934 -39 1472 -128 1779 -128 
C 2477 -128 2970 457 2970 1141 
C 2970 1476 2848 1734 2778 1850 
C 2509 2263 2221 2340 1914 2417 
C 1869 2437 1856 2437 1498 2527 
C 1152 2617 1005 2662 845 2836 
C 666 3036 602 3243 602 3449 
C 602 3868 934 4326 1478 4326 
C 2157 4326 2579 3842 2675 3036 
C 2694 2920 2701 2914 2746 2914 
C 2803 2914 2803 2933 2803 3043 
L 2803 4351 
z
" transform="scale(0.015625)"/>
       <path id="CMR17-74" d="M 966 2585 
L 1862 2585 
L 1862 2752 
L 966 2752 
L 966 3968 
L 851 3968 
C 838 3292 614 2700 70 2687 
L 70 2585 
L 627 2585 
L 627 778 
C 627 655 627 -64 1370 -64 
C 1747 -64 1965 308 1965 784 
L 1965 1151 
L 1850 1151 
L 1850 790 
C 1850 347 1677 51 1408 51 
C 1222 51 966 179 966 765 
L 966 2585 
z
" transform="scale(0.015625)"/>
       <path id="CMR17-64" d="M 1869 4345 
L 1869 4179 
C 2246 4179 2304 4141 2304 3843 
L 2304 2371 
C 2278 2403 2016 2816 1498 2816 
C 845 2816 211 2228 211 1376 
C 211 529 806 -64 1434 -64 
C 1978 -64 2259 361 2291 406 
L 2291 -64 
L 3066 -13 
L 3066 154 
C 2688 154 2630 193 2630 503 
L 2630 4416 
L 1869 4345 
z
M 2291 762 
C 2291 568 2176 393 2029 264 
C 1811 70 1594 38 1472 38 
C 1286 38 621 135 621 1369 
C 621 2636 1363 2713 1530 2713 
C 1824 2713 2061 2545 2208 2313 
C 2291 2177 2291 2157 2291 2041 
L 2291 762 
z
" transform="scale(0.015625)"/>
      </defs>
      <use xlink:href="#CMR17-53" transform="scale(0.996264)"/>
      <use xlink:href="#CMR17-74" transform="translate(50.89537 0) scale(0.996264)"/>
      <use xlink:href="#CMR17-64" transform="translate(86.176138 0) scale(0.996264)"/>
     </g>
    </g>
    <g id="line2d_13">
     <path d="M 68.496794 30.648274 
L 70.496794 30.648274 
L 72.496794 30.648274 
" style="fill: none; stroke: #000000; stroke-width: 1.5; stroke-linecap: square"/>
    </g>
    <g id="text_8">
     <!-- Mean -->
     <g transform="translate(73.696794 32.048274) scale(0.04 -0.04)">
      <use xlink:href="#CMR17-4d" transform="scale(0.996264)"/>
      <use xlink:href="#CMR17-65" transform="translate(84.686941 0) scale(0.996264)"/>
      <use xlink:href="#CMR17-61" transform="translate(125.172601 0) scale(0.996264)"/>
      <use xlink:href="#CMR17-6e" transform="translate(170.863078 0) scale(0.996264)"/>
     </g>
    </g>
    <g id="patch_8">
     <path d="M 68.496794 37.623139 
L 72.496794 37.623139 
L 72.496794 34.823139 
L 68.496794 34.823139 
z
" style="fill-opacity: 0.2; stroke: #000000; stroke-opacity: 0.2; stroke-linejoin: miter"/>
    </g>
    <g id="text_9">
     <!-- Std -->
     <g transform="translate(73.696794 37.623139) scale(0.04 -0.04)">
      <use xlink:href="#CMR17-53" transform="scale(0.996264)"/>
      <use xlink:href="#CMR17-74" transform="translate(50.89537 0) scale(0.996264)"/>
      <use xlink:href="#CMR17-64" transform="translate(86.176138 0) scale(0.996264)"/>
     </g>
    </g>
    <g id="line2d_14">
     <path d="M 94.570925 19.498543 
L 96.570925 19.498543 
L 98.570925 19.498543 
" style="fill: none; stroke-dasharray: 5.55,2.4; stroke-dashoffset: 0; stroke: #0000ff; stroke-width: 1.5"/>
    </g>
    <g id="text_10">
     <!-- Max -->
     <g transform="translate(99.770925 20.898543) scale(0.04 -0.04)">
      <defs>
       <path id="CMR17-78" d="M 1664 1491 
C 1856 1740 2074 2022 2253 2233 
C 2464 2476 2707 2579 2989 2585 
L 2989 2752 
C 2880 2745 2656 2739 2541 2739 
C 2368 2739 2170 2739 2022 2752 
L 2022 2585 
C 2112 2572 2163 2508 2163 2419 
C 2163 2304 2099 2233 2067 2188 
L 1594 1587 
L 1030 2323 
C 973 2393 973 2406 973 2438 
C 973 2515 1037 2579 1146 2585 
L 1146 2752 
C 992 2739 717 2739 557 2739 
C 384 2739 179 2739 38 2752 
L 38 2585 
C 384 2585 461 2560 614 2368 
L 1350 1414 
C 1363 1401 1395 1363 1395 1344 
C 1395 1318 838 633 768 544 
C 480 198 179 172 6 166 
L 6 0 
C 115 6 339 12 454 12 
C 582 12 864 12 979 0 
L 979 166 
C 941 172 838 185 838 332 
C 838 448 890 518 947 595 
L 1478 1248 
L 2035 524 
C 2086 454 2163 358 2163 313 
C 2163 224 2086 172 1984 166 
L 1984 0 
C 2138 12 2413 12 2573 12 
C 2746 12 2950 12 3091 0 
L 3091 166 
C 2771 166 2675 179 2522 377 
L 1664 1491 
z
" transform="scale(0.015625)"/>
      </defs>
      <use xlink:href="#CMR17-4d" transform="scale(0.996264)"/>
      <use xlink:href="#CMR17-61" transform="translate(84.686941 0) scale(0.996264)"/>
      <use xlink:href="#CMR17-78" transform="translate(130.377418 0) scale(0.996264)"/>
     </g>
    </g>
    <g id="line2d_15">
     <path d="M 94.570925 25.073408 
L 96.570925 25.073408 
L 98.570925 25.073408 
" style="fill: none; stroke-dasharray: 1.5,2.475; stroke-dashoffset: 0; stroke: #0000ff; stroke-width: 1.5"/>
    </g>
    <g id="text_11">
     <!-- Min -->
     <g transform="translate(99.770925 26.473408) scale(0.04 -0.04)">
      <use xlink:href="#CMR17-4d" transform="scale(0.996264)"/>
      <use xlink:href="#CMR17-69" transform="translate(84.686941 0) scale(0.996264)"/>
      <use xlink:href="#CMR17-6e" transform="translate(109.557999 0) scale(0.996264)"/>
     </g>
    </g>
    <g id="line2d_16">
     <path d="M 94.570925 30.648274 
L 96.570925 30.648274 
L 98.570925 30.648274 
" style="fill: none; stroke-dasharray: 5.55,2.4; stroke-dashoffset: 0; stroke: #000000; stroke-width: 1.5"/>
    </g>
    <g id="text_12">
     <!-- Max -->
     <g transform="translate(99.770925 32.048274) scale(0.04 -0.04)">
      <use xlink:href="#CMR17-4d" transform="scale(0.996264)"/>
      <use xlink:href="#CMR17-61" transform="translate(84.686941 0) scale(0.996264)"/>
      <use xlink:href="#CMR17-78" transform="translate(130.377418 0) scale(0.996264)"/>
     </g>
    </g>
    <g id="line2d_17">
     <path d="M 94.570925 36.223139 
L 96.570925 36.223139 
L 98.570925 36.223139 
" style="fill: none; stroke-dasharray: 1.5,2.475; stroke-dashoffset: 0; stroke: #000000; stroke-width: 1.5"/>
    </g>
    <g id="text_13">
     <!-- Min -->
     <g transform="translate(99.770925 37.623139) scale(0.04 -0.04)">
      <use xlink:href="#CMR17-4d" transform="scale(0.996264)"/>
      <use xlink:href="#CMR17-69" transform="translate(84.686941 0) scale(0.996264)"/>
      <use xlink:href="#CMR17-6e" transform="translate(109.557999 0) scale(0.996264)"/>
     </g>
    </g>
   </g>
  </g>
  <g id="axes_2">
   <g id="patch_9">
    <path d="M 138.729665 51.597942 
L 213.753469 51.597942 
L 213.753469 15.698543 
L 138.729665 15.698543 
z
" style="fill: #ffffff"/>
   </g>
   <g id="FillBetweenPolyCollection_3">
    <defs>
     <path id="meabd77d838" d="M 142.139838 -99.882113 
L 142.139838 -98.117612 
L 144.491681 -98.48151 
L 146.843525 -99.229849 
L 149.195368 -99.046868 
L 151.547211 -98.985313 
L 153.899055 -99.067139 
L 156.250898 -99.269596 
L 158.602742 -99.217799 
L 160.954585 -99.350112 
L 163.306428 -99.045607 
L 165.658272 -99.220104 
L 168.010115 -98.855005 
L 170.361959 -98.999307 
L 172.713802 -99.007042 
L 175.065645 -98.6676 
L 177.417489 -98.876949 
L 179.769332 -99.235506 
L 182.121175 -99.054814 
L 184.473019 -99.20495 
L 186.824862 -99.07793 
L 189.176706 -99.172494 
L 191.528549 -99.078048 
L 193.880392 -99.204322 
L 196.232236 -99.007863 
L 198.584079 -99.358823 
L 200.935923 -99.305496 
L 203.287766 -98.546364 
L 205.639609 -99.54198 
L 207.991453 -99.469973 
L 210.343296 -98.855058 
L 210.343296 -100.294956 
L 210.343296 -100.294956 
L 207.991453 -100.500612 
L 205.639609 -100.394842 
L 203.287766 -100.780657 
L 200.935923 -100.053949 
L 198.584079 -100.709612 
L 196.232236 -100.320839 
L 193.880392 -100.411247 
L 191.528549 -100.393489 
L 189.176706 -100.319319 
L 186.824862 -100.758273 
L 184.473019 -100.265536 
L 182.121175 -100.76241 
L 179.769332 -100.524409 
L 177.417489 -100.434281 
L 175.065645 -100.215168 
L 172.713802 -100.307032 
L 170.361959 -100.183362 
L 168.010115 -100.17267 
L 165.658272 -100.6542 
L 163.306428 -100.362049 
L 160.954585 -100.296573 
L 158.602742 -100.173086 
L 156.250898 -100.252113 
L 153.899055 -100.239318 
L 151.547211 -100.282183 
L 149.195368 -100.365692 
L 146.843525 -100.382557 
L 144.491681 -100.237597 
L 142.139838 -99.882113 
z
" style="stroke: #0000ff; stroke-opacity: 0.2"/>
    </defs>
    <g clip-path="url(#pad77e9241f)">
     <use xlink:href="#meabd77d838" x="0" y="134.806076" style="fill: #0000ff; fill-opacity: 0.2; stroke: #0000ff; stroke-opacity: 0.2"/>
    </g>
   </g>
   <g id="FillBetweenPolyCollection_4">
    <defs>
     <path id="m59a70a54cc" d="M 142.139838 -96.060438 
L 142.139838 -95.529067 
L 144.491681 -94.923941 
L 146.843525 -95.654799 
L 149.195368 -95.613636 
L 151.547211 -94.869096 
L 153.899055 -95.527762 
L 156.250898 -95.600579 
L 158.602742 -95.551247 
L 160.954585 -95.603773 
L 163.306428 -95.622988 
L 165.658272 -95.617375 
L 168.010115 -94.979031 
L 170.361959 -95.529611 
L 172.713802 -95.605726 
L 175.065645 -94.565805 
L 177.417489 -95.535219 
L 179.769332 -95.474494 
L 182.121175 -94.745457 
L 184.473019 -95.641675 
L 186.824862 -95.595325 
L 189.176706 -95.689188 
L 191.528549 -94.801194 
L 193.880392 -95.6168 
L 196.232236 -95.593518 
L 198.584079 -95.288752 
L 200.935923 -95.631185 
L 203.287766 -94.77617 
L 205.639609 -95.646258 
L 207.991453 -95.607661 
L 210.343296 -95.591106 
L 210.343296 -95.885623 
L 210.343296 -95.885623 
L 207.991453 -95.827699 
L 205.639609 -95.977265 
L 203.287766 -97.194297 
L 200.935923 -95.926543 
L 198.584079 -96.228898 
L 196.232236 -95.865678 
L 193.880392 -95.865283 
L 191.528549 -96.931241 
L 189.176706 -95.904848 
L 186.824862 -95.8268 
L 184.473019 -95.871113 
L 182.121175 -96.962538 
L 179.769332 -96.105637 
L 177.417489 -96.028966 
L 175.065645 -97.184304 
L 172.713802 -95.821579 
L 170.361959 -96.007128 
L 168.010115 -96.692782 
L 165.658272 -95.834824 
L 163.306428 -95.911333 
L 160.954585 -95.812412 
L 158.602742 -95.887934 
L 156.250898 -95.83061 
L 153.899055 -96.048879 
L 151.547211 -96.781724 
L 149.195368 -95.814116 
L 146.843525 -95.855264 
L 144.491681 -96.940827 
L 142.139838 -96.060438 
z
" style="stroke: #000000; stroke-opacity: 0.2"/>
    </defs>
    <g clip-path="url(#pad77e9241f)">
     <use xlink:href="#m59a70a54cc" x="0" y="134.806076" style="fill-opacity: 0.2; stroke: #000000; stroke-opacity: 0.2"/>
    </g>
   </g>
   <g id="matplotlib.axis_3">
    <g id="xtick_3">
     <g id="line2d_18">
      <g>
       <use xlink:href="#mddca19e654" x="142.139838" y="51.597942" style="stroke: #000000; stroke-width: 0.8"/>
      </g>
     </g>
    </g>
    <g id="xtick_4">
     <g id="line2d_19">
      <g>
       <use xlink:href="#mddca19e654" x="189.176706" y="51.597942" style="stroke: #000000; stroke-width: 0.8"/>
      </g>
     </g>
    </g>
   </g>
   <g id="matplotlib.axis_4">
    <g id="ytick_4">
     <g id="line2d_20">
      <g>
       <use xlink:href="#ma43927588b" x="138.729665" y="51.597942" style="stroke: #000000; stroke-width: 0.8"/>
      </g>
     </g>
     <g id="text_14">
      <!-- $10^{-2}$ -->
      <g transform="translate(113.852247 54.365343) scale(0.08 -0.08)">
       <use xlink:href="#CMR17-31" transform="scale(0.996264)"/>
       <use xlink:href="#CMR17-30" transform="translate(45.690477 0) scale(0.996264)"/>
       <use xlink:href="#CMSY10-0" transform="translate(91.380954 36.153639) scale(0.697382)"/>
       <use xlink:href="#CMR17-32" transform="translate(145.621947 36.153639) scale(0.697382)"/>
      </g>
     </g>
    </g>
    <g id="ytick_5">
     <g id="line2d_21">
      <g>
       <use xlink:href="#ma43927588b" x="138.729665" y="33.648243" style="stroke: #000000; stroke-width: 0.8"/>
      </g>
     </g>
     <g id="text_15">
      <!-- $10^{-1}$ -->
      <g transform="translate(113.852247 36.415644) scale(0.08 -0.08)">
       <use xlink:href="#CMR17-31" transform="scale(0.996264)"/>
       <use xlink:href="#CMR17-30" transform="translate(45.690477 0) scale(0.996264)"/>
       <use xlink:href="#CMSY10-0" transform="translate(91.380954 36.153639) scale(0.697382)"/>
       <use xlink:href="#CMR17-31" transform="translate(145.621947 36.153639) scale(0.697382)"/>
      </g>
     </g>
    </g>
    <g id="ytick_6">
     <g id="line2d_22">
      <g>
       <use xlink:href="#ma43927588b" x="138.729665" y="15.698543" style="stroke: #000000; stroke-width: 0.8"/>
      </g>
     </g>
     <g id="text_16">
      <!-- $10^{0}$ -->
      <g transform="translate(119.608387 18.465944) scale(0.08 -0.08)">
       <use xlink:href="#CMR17-31" transform="scale(0.996264)"/>
       <use xlink:href="#CMR17-30" transform="translate(45.690477 0) scale(0.996264)"/>
       <use xlink:href="#CMR17-30" transform="translate(91.380954 36.153639) scale(0.697382)"/>
      </g>
     </g>
    </g>
   </g>
   <g id="line2d_23">
    <path d="M 142.139838 35.756396 
L 144.491681 35.397178 
L 146.843525 34.978587 
L 149.195368 35.07194 
L 151.547211 35.14539 
L 153.899055 35.130837 
L 156.250898 35.029753 
L 158.602742 35.09601 
L 160.954585 34.968379 
L 163.306428 35.074492 
L 165.658272 34.835993 
L 168.010115 35.264431 
L 170.361959 35.192283 
L 172.713802 35.121972 
L 175.065645 35.326352 
L 177.417489 35.111636 
L 179.769332 34.899511 
L 182.121175 34.850802 
L 184.473019 35.052811 
L 186.824862 34.842786 
L 189.176706 35.0391 
L 191.528549 35.042594 
L 193.880392 34.974957 
L 196.232236 35.114115 
L 198.584079 34.742637 
L 200.935923 35.117375 
L 203.287766 35.06279 
L 205.639609 34.826008 
L 207.991453 34.803763 
L 210.343296 35.197871 
" clip-path="url(#pad77e9241f)" style="fill: none; stroke: #0000ff; stroke-width: 1.5; stroke-linecap: square"/>
   </g>
   <g id="line2d_24">
    <path d="M 142.139838 39.006797 
L 144.491681 38.808646 
L 146.843525 39.050401 
L 149.195368 39.091556 
L 151.547211 38.922154 
L 153.899055 39.013402 
L 156.250898 39.089633 
L 158.602742 39.084668 
L 160.954585 39.097286 
L 163.306428 39.037583 
L 165.658272 39.079219 
L 168.010115 38.923171 
L 170.361959 39.034051 
L 172.713802 39.091677 
L 175.065645 38.82159 
L 177.417489 39.020075 
L 179.769332 39.009625 
L 182.121175 38.873524 
L 184.473019 39.048838 
L 186.824862 39.094154 
L 189.176706 39.008313 
L 191.528549 38.867332 
L 193.880392 39.064045 
L 196.232236 39.07529 
L 198.584079 39.033087 
L 200.935923 39.025813 
L 203.287766 38.727454 
L 205.639609 38.992558 
L 207.991453 39.08762 
L 210.343296 39.066321 
" clip-path="url(#pad77e9241f)" style="fill: none; stroke: #000000; stroke-width: 1.5; stroke-linecap: square"/>
   </g>
   <g id="line2d_25">
    <path d="M 142.139838 37.894724 
L 144.491681 38.403877 
L 146.843525 36.186756 
L 149.195368 38.44555 
L 151.547211 36.483956 
L 153.899055 36.769853 
L 156.250898 36.20895 
L 158.602742 36.372186 
L 160.954585 36.262385 
L 163.306428 36.596458 
L 165.658272 35.995456 
L 168.010115 36.769825 
L 170.361959 36.483208 
L 172.713802 36.293923 
L 175.065645 37.374715 
L 177.417489 36.828016 
L 179.769332 36.047696 
L 182.121175 36.10179 
L 184.473019 36.154109 
L 186.824862 36.59662 
L 189.176706 36.597299 
L 191.528549 36.052881 
L 193.880392 36.3181 
L 196.232236 36.596512 
L 198.584079 35.735228 
L 200.935923 35.63485 
L 203.287766 37.249965 
L 205.639609 35.838294 
L 207.991453 35.941968 
L 210.343296 36.540879 
" clip-path="url(#pad77e9241f)" style="fill: none; stroke-dasharray: 5.55,2.4; stroke-dashoffset: 0; stroke: #0000ff; stroke-width: 1.5"/>
   </g>
   <g id="line2d_26">
    <path d="M 142.139838 33.933282 
L 144.491681 34.425269 
L 146.843525 33.925209 
L 149.195368 34.128604 
L 151.547211 33.695583 
L 153.899055 34.340109 
L 156.250898 34.379428 
L 158.602742 34.17122 
L 160.954585 34.006749 
L 163.306428 33.765606 
L 165.658272 33.76521 
L 168.010115 33.686463 
L 170.361959 34.103777 
L 172.713802 33.106626 
L 175.065645 34.057119 
L 177.417489 33.531188 
L 179.769332 33.765437 
L 182.121175 32.690097 
L 184.473019 34.006554 
L 186.824862 33.531774 
L 189.176706 34.088403 
L 191.528549 33.730873 
L 193.880392 33.844685 
L 196.232236 33.765399 
L 198.584079 32.35639 
L 200.935923 34.34017 
L 203.287766 31.279234 
L 205.639609 34.047938 
L 207.991453 33.686837 
L 210.343296 33.601166 
" clip-path="url(#pad77e9241f)" style="fill: none; stroke-dasharray: 1.5,2.475; stroke-dashoffset: 0; stroke: #0000ff; stroke-width: 1.5"/>
   </g>
   <g id="line2d_27">
    <path d="M 142.139838 39.288308 
L 144.491681 39.209354 
L 146.843525 39.209202 
L 149.195368 39.209316 
L 151.547211 39.28758 
L 153.899055 39.367451 
L 156.250898 39.20924 
L 158.602742 39.369193 
L 160.954585 39.287657 
L 163.306428 39.287925 
L 165.658272 39.287158 
L 168.010115 39.287848 
L 170.361959 39.287925 
L 172.713802 39.287963 
L 175.065645 39.226974 
L 177.417489 39.28804 
L 179.769332 39.20905 
L 182.121175 39.369464 
L 184.473019 39.288231 
L 186.824862 39.288155 
L 189.176706 39.209088 
L 191.528549 39.287886 
L 193.880392 39.2885 
L 196.232236 39.287886 
L 198.584079 39.293406 
L 200.935923 39.209316 
L 203.287766 39.298123 
L 205.639609 39.282869 
L 207.991453 39.209316 
L 210.343296 39.209392 
" clip-path="url(#pad77e9241f)" style="fill: none; stroke-dasharray: 5.55,2.4; stroke-dashoffset: 0; stroke: #000000; stroke-width: 1.5"/>
   </g>
   <g id="line2d_28">
    <path d="M 142.139838 38.236161 
L 144.491681 34.814821 
L 146.843525 38.813917 
L 149.195368 38.820013 
L 151.547211 35.007286 
L 153.899055 38.237098 
L 156.250898 38.745783 
L 158.602742 38.597237 
L 160.954585 38.892006 
L 163.306428 38.597412 
L 165.658272 38.745819 
L 168.010115 35.338404 
L 170.361959 38.097523 
L 172.713802 38.820121 
L 175.065645 33.845218 
L 177.417489 37.961534 
L 179.769332 37.563991 
L 182.121175 34.512573 
L 184.473019 38.819688 
L 186.824862 38.819977 
L 189.176706 38.736675 
L 191.528549 34.599963 
L 193.880392 38.745712 
L 196.232236 38.669457 
L 198.584079 36.88687 
L 200.935923 38.597728 
L 203.287766 34.602672 
L 205.639609 38.523108 
L 207.991453 38.82041 
L 210.343296 38.451812 
" clip-path="url(#pad77e9241f)" style="fill: none; stroke-dasharray: 1.5,2.475; stroke-dashoffset: 0; stroke: #000000; stroke-width: 1.5"/>
   </g>
   <g id="patch_10">
    <path d="M 138.729665 51.597942 
L 138.729665 15.698543 
" style="fill: none; stroke: #000000; stroke-width: 0.8; stroke-linejoin: miter; stroke-linecap: square"/>
   </g>
   <g id="patch_11">
    <path d="M 213.753469 51.597942 
L 213.753469 15.698543 
" style="fill: none; stroke: #000000; stroke-width: 0.8; stroke-linejoin: miter; stroke-linecap: square"/>
   </g>
   <g id="patch_12">
    <path d="M 138.729665 51.597942 
L 213.753469 51.597942 
" style="fill: none; stroke: #000000; stroke-width: 0.8; stroke-linejoin: miter; stroke-linecap: square"/>
   </g>
   <g id="patch_13">
    <path d="M 138.729665 15.698543 
L 213.753469 15.698543 
" style="fill: none; stroke: #000000; stroke-width: 0.8; stroke-linejoin: miter; stroke-linecap: square"/>
   </g>
   <g id="text_17">
    <!-- $\mathbf{b)}$ -->
    <g transform="translate(126.261074 9.577584) scale(0.08 -0.08)">
     <defs>
      <path id="CMBX12-62" d="M 1331 4480 
L 224 4428 
L 224 4153 
C 621 4153 666 4153 666 3896 
L 666 -26 
L 934 -26 
C 1043 96 1152 218 1254 347 
C 1581 6 1933 -64 2189 -64 
C 3072 -64 3750 476 3750 1414 
C 3750 2300 3149 2880 2272 2880 
C 1894 2880 1594 2758 1331 2552 
L 1331 4480 
z
M 1363 2242 
C 1587 2552 1920 2668 2189 2668 
C 2982 2668 2982 1847 2982 1420 
C 2982 1130 2982 761 2829 522 
C 2630 211 2330 147 2125 147 
C 1690 147 1453 457 1363 599 
L 1363 2242 
z
" transform="scale(0.015625)"/>
     </defs>
     <use xlink:href="#CMBX12-62" transform="scale(0.996264)"/>
     <use xlink:href="#CMR17-29" transform="translate(62.266501 0) scale(0.996264)"/>
    </g>
   </g>
  </g>
  <g id="axes_3">
   <g id="patch_14">
    <path d="M 37.44753 109.036981 
L 112.471334 109.036981 
L 112.471334 73.137582 
L 37.44753 73.137582 
z
" style="fill: #ffffff"/>
   </g>
   <g id="FillBetweenPolyCollection_5">
    <defs>
     <path id="mbbc924bb62" d="M 40.857703 -42.606702 
L 40.857703 -41.600905 
L 43.209546 -41.908708 
L 45.561389 -41.921934 
L 47.913233 -41.546728 
L 50.265076 -41.606394 
L 52.61692 -42.285663 
L 54.968763 -41.857409 
L 57.320606 -41.471886 
L 59.67245 -41.888616 
L 62.024293 -41.865762 
L 64.376137 -41.653351 
L 66.72798 -41.778969 
L 69.079823 -42.017103 
L 71.431667 -41.016918 
L 73.78351 -41.366626 
L 76.135353 -41.367205 
L 78.487197 -41.651386 
L 80.83904 -41.429907 
L 83.190884 -41.468441 
L 85.542727 -41.307123 
L 87.89457 -41.918118 
L 90.246414 -41.923752 
L 92.598257 -41.650035 
L 94.9501 -41.792167 
L 97.301944 -41.820732 
L 99.653787 -42.391835 
L 102.005631 -42.320007 
L 104.357474 -42.069139 
L 106.709317 -42.105555 
L 109.061161 -42.079911 
L 109.061161 -43.505166 
L 109.061161 -43.505166 
L 106.709317 -43.341633 
L 104.357474 -43.84216 
L 102.005631 -43.428812 
L 99.653787 -43.456778 
L 97.301944 -43.541871 
L 94.9501 -43.475691 
L 92.598257 -43.260792 
L 90.246414 -43.580686 
L 87.89457 -43.3829 
L 85.542727 -43.342727 
L 83.190884 -43.139179 
L 80.83904 -43.08785 
L 78.487197 -42.797069 
L 76.135353 -42.922529 
L 73.78351 -43.134014 
L 71.431667 -43.492731 
L 69.079823 -43.246386 
L 66.72798 -43.339523 
L 64.376137 -43.216371 
L 62.024293 -43.350255 
L 59.67245 -43.408628 
L 57.320606 -43.807885 
L 54.968763 -43.537372 
L 52.61692 -43.376728 
L 50.265076 -43.552798 
L 47.913233 -43.591371 
L 45.561389 -43.7567 
L 43.209546 -43.090278 
L 40.857703 -42.606702 
z
" style="stroke: #0000ff; stroke-opacity: 0.2"/>
    </defs>
    <g clip-path="url(#p689639aecf)">
     <use xlink:href="#mbbc924bb62" x="0" y="134.806076" style="fill: #0000ff; fill-opacity: 0.2; stroke: #0000ff; stroke-opacity: 0.2"/>
    </g>
   </g>
   <g id="FillBetweenPolyCollection_6">
    <defs>
     <path id="m5a70c705d6" d="M 40.857703 -40.409389 
L 40.857703 -39.428808 
L 43.209546 -39.197335 
L 45.561389 -39.253279 
L 47.913233 -38.847815 
L 50.265076 -39.210706 
L 52.61692 -39.238964 
L 54.968763 -39.240993 
L 57.320606 -39.240973 
L 59.67245 -38.71896 
L 62.024293 -38.768782 
L 64.376137 -39.261995 
L 66.72798 -39.265331 
L 69.079823 -38.952266 
L 71.431667 -39.249078 
L 73.78351 -39.200227 
L 76.135353 -39.245638 
L 78.487197 -39.281751 
L 80.83904 -39.147449 
L 83.190884 -38.677837 
L 85.542727 -38.808642 
L 87.89457 -38.676427 
L 90.246414 -38.423824 
L 92.598257 -39.280827 
L 94.9501 -39.219924 
L 97.301944 -39.117281 
L 99.653787 -39.208447 
L 102.005631 -38.938226 
L 104.357474 -38.680742 
L 106.709317 -38.725154 
L 109.061161 -38.836378 
L 109.061161 -40.600827 
L 109.061161 -40.600827 
L 106.709317 -40.991857 
L 104.357474 -41.046462 
L 102.005631 -40.391832 
L 99.653787 -39.88759 
L 97.301944 -40.068763 
L 94.9501 -39.918418 
L 92.598257 -40.045488 
L 90.246414 -41.474753 
L 87.89457 -40.702629 
L 85.542727 -40.706143 
L 83.190884 -40.723738 
L 80.83904 -40.321603 
L 78.487197 -40.008462 
L 76.135353 -39.957122 
L 73.78351 -40.130971 
L 71.431667 -39.780415 
L 69.079823 -40.587199 
L 66.72798 -40.092531 
L 64.376137 -40.020659 
L 62.024293 -40.581092 
L 59.67245 -41.117694 
L 57.320606 -39.974438 
L 54.968763 -40.053356 
L 52.61692 -40.05207 
L 50.265076 -40.057179 
L 47.913233 -40.708426 
L 45.561389 -40.134982 
L 43.209546 -39.942196 
L 40.857703 -40.409389 
z
" style="stroke: #000000; stroke-opacity: 0.2"/>
    </defs>
    <g clip-path="url(#p689639aecf)">
     <use xlink:href="#m5a70c705d6" x="0" y="134.806076" style="fill-opacity: 0.2; stroke: #000000; stroke-opacity: 0.2"/>
    </g>
   </g>
   <g id="matplotlib.axis_5">
    <g id="xtick_5">
     <g id="line2d_29">
      <g>
       <use xlink:href="#mddca19e654" x="40.857703" y="109.036981" style="stroke: #000000; stroke-width: 0.8"/>
      </g>
     </g>
     <g id="text_18">
      <!-- $\mathdefault{0}$ -->
      <g transform="translate(38.740611 121.571783) scale(0.08 -0.08)">
       <use xlink:href="#CMR17-30" transform="scale(0.996264)"/>
      </g>
     </g>
    </g>
    <g id="xtick_6">
     <g id="line2d_30">
      <g>
       <use xlink:href="#mddca19e654" x="87.89457" y="109.036981" style="stroke: #000000; stroke-width: 0.8"/>
      </g>
     </g>
     <g id="text_19">
      <!-- $\mathdefault{20}$ -->
      <g transform="translate(83.660387 121.571783) scale(0.08 -0.08)">
       <use xlink:href="#CMR17-32" transform="scale(0.996264)"/>
       <use xlink:href="#CMR17-30" transform="translate(45.690477 0) scale(0.996264)"/>
      </g>
     </g>
    </g>
    <g id="text_20">
     <!-- $c_b$ -->
     <g transform="translate(71.488622 129.656331) scale(0.08 -0.08)">
      <defs>
       <path id="CMMI12-63" d="M 2502 2432 
C 2381 2432 2323 2432 2234 2355 
C 2195 2323 2125 2227 2125 2124 
C 2125 1996 2221 1919 2342 1919 
C 2496 1919 2669 2047 2669 2303 
C 2669 2591 2374 2816 1933 2816 
C 1094 2816 256 1932 256 1011 
C 256 446 602 -64 1254 -64 
C 2125 -64 2675 622 2675 706 
C 2675 745 2637 777 2611 777 
C 2592 777 2586 771 2528 712 
C 2118 161 1510 64 1267 64 
C 826 64 685 453 685 777 
C 685 1004 794 1634 1024 2073 
C 1190 2374 1536 2687 1939 2687 
C 2022 2687 2374 2676 2502 2432 
z
" transform="scale(0.015625)"/>
       <path id="CMMI12-62" d="M 1478 4255 
C 1485 4281 1498 4319 1498 4351 
C 1498 4416 1434 4416 1421 4416 
C 1414 4416 1184 4396 1069 4383 
C 960 4377 864 4364 749 4358 
C 595 4345 550 4339 550 4223 
C 550 4159 614 4159 678 4159 
C 1005 4159 1005 4103 1005 4040 
C 1005 3995 954 3812 928 3699 
L 774 3093 
C 710 2841 346 1392 320 1277 
C 288 1117 288 1008 288 925 
C 288 274 653 -64 1069 -64 
C 1811 -64 2579 887 2579 1813 
C 2579 2400 2246 2816 1766 2816 
C 1434 2816 1133 2541 1011 2413 
L 1478 4255 
z
M 1075 64 
C 870 64 646 217 646 715 
C 646 925 666 1047 781 1494 
C 800 1577 902 1985 928 2068 
C 941 2119 1318 2687 1754 2687 
C 2035 2687 2163 2407 2163 2075 
C 2163 1768 1984 1047 1824 715 
C 1664 370 1370 64 1075 64 
z
" transform="scale(0.015625)"/>
      </defs>
      <use xlink:href="#CMMI12-63" transform="scale(0.996264)"/>
      <use xlink:href="#CMMI12-62" transform="translate(41.983234 -14.943915) scale(0.697382)"/>
     </g>
    </g>
   </g>
   <g id="matplotlib.axis_6">
    <g id="ytick_7">
     <g id="line2d_31">
      <g>
       <use xlink:href="#ma43927588b" x="37.44753" y="109.036981" style="stroke: #000000; stroke-width: 0.8"/>
      </g>
     </g>
     <g id="text_21">
      <!-- $10^{-2}$ -->
      <g transform="translate(12.570112 111.804382) scale(0.08 -0.08)">
       <use xlink:href="#CMR17-31" transform="scale(0.996264)"/>
       <use xlink:href="#CMR17-30" transform="translate(45.690477 0) scale(0.996264)"/>
       <use xlink:href="#CMSY10-0" transform="translate(91.380954 36.153639) scale(0.697382)"/>
       <use xlink:href="#CMR17-32" transform="translate(145.621947 36.153639) scale(0.697382)"/>
      </g>
     </g>
    </g>
    <g id="ytick_8">
     <g id="line2d_32">
      <g>
       <use xlink:href="#ma43927588b" x="37.44753" y="91.087282" style="stroke: #000000; stroke-width: 0.8"/>
      </g>
     </g>
     <g id="text_22">
      <!-- $10^{-1}$ -->
      <g transform="translate(12.570112 93.854683) scale(0.08 -0.08)">
       <use xlink:href="#CMR17-31" transform="scale(0.996264)"/>
       <use xlink:href="#CMR17-30" transform="translate(45.690477 0) scale(0.996264)"/>
       <use xlink:href="#CMSY10-0" transform="translate(91.380954 36.153639) scale(0.697382)"/>
       <use xlink:href="#CMR17-31" transform="translate(145.621947 36.153639) scale(0.697382)"/>
      </g>
     </g>
    </g>
    <g id="ytick_9">
     <g id="line2d_33">
      <g>
       <use xlink:href="#ma43927588b" x="37.44753" y="73.137582" style="stroke: #000000; stroke-width: 0.8"/>
      </g>
     </g>
     <g id="text_23">
      <!-- $10^{0}$ -->
      <g transform="translate(18.326252 75.904983) scale(0.08 -0.08)">
       <use xlink:href="#CMR17-31" transform="scale(0.996264)"/>
       <use xlink:href="#CMR17-30" transform="translate(45.690477 0) scale(0.996264)"/>
       <use xlink:href="#CMR17-30" transform="translate(91.380954 36.153639) scale(0.697382)"/>
      </g>
     </g>
    </g>
    <g id="text_24">
     <!-- Time ($s$) -->
     <g transform="translate(9.577584 107.394416) rotate(-90) scale(0.08 -0.08)">
      <use xlink:href="#CMR17-54" transform="scale(0.996264)"/>
      <use xlink:href="#CMR17-69" transform="translate(66.509881 0) scale(0.996264)"/>
      <use xlink:href="#CMR17-6d" transform="translate(91.380939 0) scale(0.996264)"/>
      <use xlink:href="#CMR17-65" transform="translate(168.300529 0) scale(0.996264)"/>
      <use xlink:href="#CMR17-28" transform="translate(238.862156 0) scale(0.996264)"/>
      <use xlink:href="#CMMI12-73" transform="translate(274.142924 0) scale(0.996264)"/>
      <use xlink:href="#CMR17-29" transform="translate(320.092971 0) scale(0.996264)"/>
     </g>
    </g>
   </g>
   <g id="line2d_34">
    <path d="M 40.857703 92.686062 
L 43.209546 92.284218 
L 45.561389 91.912904 
L 47.913233 92.170183 
L 50.265076 92.165889 
L 52.61692 91.955808 
L 54.968763 92.063518 
L 57.320606 92.079015 
L 59.67245 92.120465 
L 62.024293 92.162784 
L 64.376137 92.332107 
L 66.72798 92.207845 
L 69.079823 92.150126 
L 71.431667 92.453374 
L 73.78351 92.505775 
L 76.135353 92.622484 
L 78.487197 92.56082 
L 80.83904 92.503204 
L 83.190884 92.457592 
L 85.542727 92.414895 
L 87.89457 92.121213 
L 90.246414 92.009917 
L 92.598257 92.309133 
L 94.9501 92.126788 
L 97.301944 92.07737 
L 99.653787 91.863599 
L 102.005631 91.911969 
L 104.357474 91.800127 
L 106.709317 92.058009 
L 109.061161 91.981011 
" clip-path="url(#p689639aecf)" style="fill: none; stroke: #0000ff; stroke-width: 1.5; stroke-linecap: square"/>
   </g>
   <g id="line2d_35">
    <path d="M 40.857703 94.87157 
L 43.209546 95.227418 
L 45.561389 95.099487 
L 47.913233 94.972576 
L 50.265076 95.16065 
L 52.61692 95.149962 
L 54.968763 95.148325 
L 57.320606 95.189748 
L 59.67245 94.795847 
L 62.024293 95.078591 
L 64.376137 95.155524 
L 66.72798 95.116178 
L 69.079823 94.99356 
L 71.431667 95.286804 
L 73.78351 95.126595 
L 76.135353 95.196582 
L 78.487197 95.152504 
L 80.83904 95.049465 
L 83.190884 95.038363 
L 85.542727 94.991091 
L 87.89457 95.050902 
L 90.246414 94.708475 
L 92.598257 95.133547 
L 94.9501 95.229085 
L 97.301944 95.198546 
L 99.653787 95.250664 
L 102.005631 95.107215 
L 104.357474 94.853075 
L 106.709317 94.865473 
L 109.061161 95.037659 
" clip-path="url(#p689639aecf)" style="fill: none; stroke: #000000; stroke-width: 1.5; stroke-linecap: square"/>
   </g>
   <g id="line2d_36">
    <path d="M 40.857703 94.036256 
L 43.209546 93.380907 
L 45.561389 93.592866 
L 47.913233 94.035659 
L 50.265076 93.95464 
L 52.61692 93.399337 
L 54.968763 94.150168 
L 57.320606 93.867441 
L 59.67245 94.325768 
L 62.024293 93.744192 
L 64.376137 94.035822 
L 66.72798 94.035795 
L 69.079823 93.59343 
L 71.431667 95.333186 
L 73.78351 94.444423 
L 76.135353 93.81104 
L 78.487197 93.592841 
L 80.83904 95.133825 
L 83.190884 94.813634 
L 85.542727 94.565754 
L 87.89457 94.150554 
L 90.246414 93.277776 
L 92.598257 95.890817 
L 94.9501 94.565813 
L 97.301944 94.626389 
L 99.653787 93.43437 
L 102.005631 93.756825 
L 104.357474 93.073169 
L 106.709317 93.593558 
L 109.061161 93.701268 
" clip-path="url(#p689639aecf)" style="fill: none; stroke-dasharray: 5.55,2.4; stroke-dashoffset: 0; stroke: #0000ff; stroke-width: 1.5"/>
   </g>
   <g id="line2d_37">
    <path d="M 40.857703 91.737016 
L 43.209546 90.894178 
L 45.561389 89.504708 
L 47.913233 88.661289 
L 50.265076 90.168039 
L 52.61692 91.04758 
L 54.968763 90.669257 
L 57.320606 88.325586 
L 59.67245 90.970648 
L 62.024293 90.743452 
L 64.376137 90.818505 
L 66.72798 91.047802 
L 69.079823 91.28359 
L 71.431667 89.316333 
L 73.78351 91.125502 
L 76.135353 90.595725 
L 78.487197 91.400247 
L 80.83904 90.669151 
L 83.190884 90.595795 
L 85.542727 89.697654 
L 87.89457 90.743541 
L 90.246414 89.316333 
L 92.598257 91.007777 
L 94.9501 90.669186 
L 97.301944 90.031316 
L 99.653787 91.125409 
L 102.005631 91.204268 
L 104.357474 88.689347 
L 106.709317 90.894341 
L 109.061161 90.48599 
" clip-path="url(#p689639aecf)" style="fill: none; stroke-dasharray: 1.5,2.475; stroke-dashoffset: 0; stroke: #0000ff; stroke-width: 1.5"/>
   </g>
   <g id="line2d_38">
    <path d="M 40.857703 95.607331 
L 43.209546 95.6068 
L 45.561389 95.536529 
L 47.913233 95.536759 
L 50.265076 95.606933 
L 52.61692 95.536924 
L 54.968763 95.536957 
L 57.320606 95.537121 
L 59.67245 95.606867 
L 62.024293 95.537121 
L 64.376137 95.53745 
L 66.72798 95.537121 
L 69.079823 95.536496 
L 71.431667 95.536891 
L 73.78351 95.607132 
L 76.135353 95.536825 
L 78.487197 95.537417 
L 80.83904 95.537253 
L 83.190884 95.537022 
L 85.542727 95.536759 
L 87.89457 95.536924 
L 90.246414 95.603914 
L 92.598257 95.53699 
L 94.9501 95.6069 
L 97.301944 95.537286 
L 99.653787 95.561664 
L 102.005631 95.537351 
L 104.357474 95.469624 
L 106.709317 95.536661 
L 109.061161 95.537187 
" clip-path="url(#p689639aecf)" style="fill: none; stroke-dasharray: 5.55,2.4; stroke-dashoffset: 0; stroke: #000000; stroke-width: 1.5"/>
   </g>
   <g id="line2d_39">
    <path d="M 40.857703 94.150333 
L 43.209546 94.3847 
L 45.561389 94.09325 
L 47.913233 91.694106 
L 50.265076 94.3265 
L 52.61692 94.266664 
L 54.968763 94.266776 
L 57.320606 94.438479 
L 59.67245 90.970556 
L 62.024293 91.527619 
L 64.376137 94.266803 
L 66.72798 94.26658 
L 69.079823 91.908209 
L 71.431667 94.504262 
L 73.78351 94.149783 
L 76.135353 94.149838 
L 78.487197 94.445224 
L 80.83904 92.973674 
L 83.190884 91.047765 
L 85.542727 91.307107 
L 87.89457 91.125409 
L 90.246414 90.669045 
L 92.598257 94.326219 
L 94.9501 94.399836 
L 97.301944 93.593071 
L 99.653787 94.444909 
L 102.005631 92.216756 
L 104.357474 91.445048 
L 106.709317 90.89425 
L 109.061161 91.610338 
" clip-path="url(#p689639aecf)" style="fill: none; stroke-dasharray: 1.5,2.475; stroke-dashoffset: 0; stroke: #000000; stroke-width: 1.5"/>
   </g>
   <g id="patch_15">
    <path d="M 37.44753 109.036981 
L 37.44753 73.137582 
" style="fill: none; stroke: #000000; stroke-width: 0.8; stroke-linejoin: miter; stroke-linecap: square"/>
   </g>
   <g id="patch_16">
    <path d="M 112.471334 109.036981 
L 112.471334 73.137582 
" style="fill: none; stroke: #000000; stroke-width: 0.8; stroke-linejoin: miter; stroke-linecap: square"/>
   </g>
   <g id="patch_17">
    <path d="M 37.44753 109.036981 
L 112.471334 109.036981 
" style="fill: none; stroke: #000000; stroke-width: 0.8; stroke-linejoin: miter; stroke-linecap: square"/>
   </g>
   <g id="patch_18">
    <path d="M 37.44753 73.137582 
L 112.471334 73.137582 
" style="fill: none; stroke: #000000; stroke-width: 0.8; stroke-linejoin: miter; stroke-linecap: square"/>
   </g>
   <g id="text_25">
    <!-- $\mathbf{c)}$ -->
    <g transform="translate(26.063768 67.016623) scale(0.08 -0.08)">
     <defs>
      <path id="CMBX12-63" d="M 2995 724 
C 2995 801 2925 801 2861 801 
C 2758 801 2752 795 2720 718 
C 2675 596 2502 166 1914 166 
C 1011 166 1011 1141 1011 1430 
C 1011 1808 1018 2649 1856 2649 
C 1901 2649 2278 2636 2278 2604 
C 2278 2598 2272 2591 2259 2585 
C 2240 2566 2157 2469 2157 2309 
C 2157 2039 2374 1930 2534 1930 
C 2669 1930 2912 2014 2912 2315 
C 2912 2841 2176 2880 1830 2880 
C 691 2880 243 2136 243 1398 
C 243 525 851 -64 1792 -64 
C 2797 -64 2995 679 2995 724 
z
" transform="scale(0.015625)"/>
     </defs>
     <use xlink:href="#CMBX12-63" transform="scale(0.996264)"/>
     <use xlink:href="#CMR17-29" transform="translate(49.8132 0) scale(0.996264)"/>
    </g>
   </g>
  </g>
  <g id="axes_4">
   <g id="patch_19">
    <path d="M 138.729665 109.036981 
L 213.753469 109.036981 
L 213.753469 73.137582 
L 138.729665 73.137582 
z
" style="fill: #ffffff"/>
   </g>
   <g id="FillBetweenPolyCollection_7">
    <defs>
     <path id="mb40039e948" d="M 142.139838 -42.369853 
L 142.139838 -40.97785 
L 144.491681 -41.584233 
L 146.843525 -41.651115 
L 149.195368 -41.641391 
L 151.547211 -41.838813 
L 153.899055 -41.821543 
L 156.250898 -41.830953 
L 158.602742 -41.547169 
L 160.954585 -41.666863 
L 163.306428 -41.607716 
L 165.658272 -41.527088 
L 168.010115 -41.404961 
L 170.361959 -41.395937 
L 172.713802 -41.420853 
L 175.065645 -41.487484 
L 177.417489 -41.575572 
L 179.769332 -41.734745 
L 182.121175 -41.686634 
L 184.473019 -41.521629 
L 186.824862 -41.392552 
L 189.176706 -41.690023 
L 191.528549 -41.572393 
L 193.880392 -41.722229 
L 196.232236 -41.915177 
L 198.584079 -41.963273 
L 200.935923 -41.705074 
L 203.287766 -41.875895 
L 205.639609 -42.087103 
L 207.991453 -41.732001 
L 210.343296 -41.676927 
L 210.343296 -43.217031 
L 210.343296 -43.217031 
L 207.991453 -43.279235 
L 205.639609 -43.088263 
L 203.287766 -43.199833 
L 200.935923 -42.876857 
L 198.584079 -43.340849 
L 196.232236 -43.076108 
L 193.880392 -42.869501 
L 191.528549 -42.9492 
L 189.176706 -42.963484 
L 186.824862 -42.622885 
L 184.473019 -42.970136 
L 182.121175 -42.991281 
L 179.769332 -42.649693 
L 177.417489 -42.626448 
L 175.065645 -42.544222 
L 172.713802 -42.598657 
L 170.361959 -42.401763 
L 168.010115 -42.718576 
L 165.658272 -42.712498 
L 163.306428 -42.92205 
L 160.954585 -42.747872 
L 158.602742 -42.654914 
L 156.250898 -42.903543 
L 153.899055 -42.919153 
L 151.547211 -43.000274 
L 149.195368 -42.69514 
L 146.843525 -42.858592 
L 144.491681 -42.939181 
L 142.139838 -42.369853 
z
" style="stroke: #0000ff; stroke-opacity: 0.2"/>
    </defs>
    <g clip-path="url(#p3cbb654b12)">
     <use xlink:href="#mb40039e948" x="0" y="134.806076" style="fill: #0000ff; fill-opacity: 0.2; stroke: #0000ff; stroke-opacity: 0.2"/>
    </g>
   </g>
   <g id="FillBetweenPolyCollection_8">
    <defs>
     <path id="ma3b8964f75" d="M 142.139838 -39.298212 
L 142.139838 -38.520686 
L 144.491681 -38.601584 
L 146.843525 -38.48 
L 149.195368 -38.537359 
L 151.547211 -38.473669 
L 153.899055 -37.961212 
L 156.250898 -38.552147 
L 158.602742 -38.107164 
L 160.954585 -37.873252 
L 163.306428 -38.530177 
L 165.658272 -38.523319 
L 168.010115 -38.367637 
L 170.361959 -38.50994 
L 172.713802 -38.54337 
L 175.065645 -37.84983 
L 177.417489 -37.996448 
L 179.769332 -37.906293 
L 182.121175 -37.859464 
L 184.473019 -38.513893 
L 186.824862 -38.04932 
L 189.176706 -38.511451 
L 191.528549 -37.632801 
L 193.880392 -38.542754 
L 196.232236 -37.709342 
L 198.584079 -38.585548 
L 200.935923 -38.525955 
L 203.287766 -37.831376 
L 205.639609 -38.561458 
L 207.991453 -38.519254 
L 210.343296 -38.53983 
L 210.343296 -38.934472 
L 210.343296 -38.934472 
L 207.991453 -38.965645 
L 205.639609 -38.859528 
L 203.287766 -39.830051 
L 200.935923 -39.102736 
L 198.584079 -38.753365 
L 196.232236 -40.19237 
L 193.880392 -38.822355 
L 191.528549 -40.574557 
L 189.176706 -38.900089 
L 186.824862 -39.65742 
L 184.473019 -38.83873 
L 182.121175 -39.792074 
L 179.769332 -39.921312 
L 177.417489 -39.70453 
L 175.065645 -39.940081 
L 172.713802 -38.897024 
L 170.361959 -38.995541 
L 168.010115 -39.101839 
L 165.658272 -38.914801 
L 163.306428 -38.85267 
L 160.954585 -39.769426 
L 158.602742 -39.772853 
L 156.250898 -38.903897 
L 153.899055 -39.611204 
L 151.547211 -38.999641 
L 149.195368 -38.98262 
L 146.843525 -38.988856 
L 144.491681 -38.830994 
L 142.139838 -39.298212 
z
" style="stroke: #000000; stroke-opacity: 0.2"/>
    </defs>
    <g clip-path="url(#p3cbb654b12)">
     <use xlink:href="#ma3b8964f75" x="0" y="134.806076" style="fill-opacity: 0.2; stroke: #000000; stroke-opacity: 0.2"/>
    </g>
   </g>
   <g id="matplotlib.axis_7">
    <g id="xtick_7">
     <g id="line2d_40">
      <g>
       <use xlink:href="#mddca19e654" x="142.139838" y="109.036981" style="stroke: #000000; stroke-width: 0.8"/>
      </g>
     </g>
     <g id="text_26">
      <!-- $\mathdefault{0}$ -->
      <g transform="translate(140.022747 121.571783) scale(0.08 -0.08)">
       <use xlink:href="#CMR17-30" transform="scale(0.996264)"/>
      </g>
     </g>
    </g>
    <g id="xtick_8">
     <g id="line2d_41">
      <g>
       <use xlink:href="#mddca19e654" x="189.176706" y="109.036981" style="stroke: #000000; stroke-width: 0.8"/>
      </g>
     </g>
     <g id="text_27">
      <!-- $\mathdefault{20}$ -->
      <g transform="translate(184.942523 121.571783) scale(0.08 -0.08)">
       <use xlink:href="#CMR17-32" transform="scale(0.996264)"/>
       <use xlink:href="#CMR17-30" transform="translate(45.690477 0) scale(0.996264)"/>
      </g>
     </g>
    </g>
    <g id="text_28">
     <!-- $c_b$ -->
     <g transform="translate(172.770757 129.656331) scale(0.08 -0.08)">
      <use xlink:href="#CMMI12-63" transform="scale(0.996264)"/>
      <use xlink:href="#CMMI12-62" transform="translate(41.983234 -14.943915) scale(0.697382)"/>
     </g>
    </g>
   </g>
   <g id="matplotlib.axis_8">
    <g id="ytick_10">
     <g id="line2d_42">
      <g>
       <use xlink:href="#ma43927588b" x="138.729665" y="109.036981" style="stroke: #000000; stroke-width: 0.8"/>
      </g>
     </g>
     <g id="text_29">
      <!-- $10^{-2}$ -->
      <g transform="translate(113.852247 111.804382) scale(0.08 -0.08)">
       <use xlink:href="#CMR17-31" transform="scale(0.996264)"/>
       <use xlink:href="#CMR17-30" transform="translate(45.690477 0) scale(0.996264)"/>
       <use xlink:href="#CMSY10-0" transform="translate(91.380954 36.153639) scale(0.697382)"/>
       <use xlink:href="#CMR17-32" transform="translate(145.621947 36.153639) scale(0.697382)"/>
      </g>
     </g>
    </g>
    <g id="ytick_11">
     <g id="line2d_43">
      <g>
       <use xlink:href="#ma43927588b" x="138.729665" y="91.087282" style="stroke: #000000; stroke-width: 0.8"/>
      </g>
     </g>
     <g id="text_30">
      <!-- $10^{-1}$ -->
      <g transform="translate(113.852247 93.854683) scale(0.08 -0.08)">
       <use xlink:href="#CMR17-31" transform="scale(0.996264)"/>
       <use xlink:href="#CMR17-30" transform="translate(45.690477 0) scale(0.996264)"/>
       <use xlink:href="#CMSY10-0" transform="translate(91.380954 36.153639) scale(0.697382)"/>
       <use xlink:href="#CMR17-31" transform="translate(145.621947 36.153639) scale(0.697382)"/>
      </g>
     </g>
    </g>
    <g id="ytick_12">
     <g id="line2d_44">
      <g>
       <use xlink:href="#ma43927588b" x="138.729665" y="73.137582" style="stroke: #000000; stroke-width: 0.8"/>
      </g>
     </g>
     <g id="text_31">
      <!-- $10^{0}$ -->
      <g transform="translate(119.608387 75.904983) scale(0.08 -0.08)">
       <use xlink:href="#CMR17-31" transform="scale(0.996264)"/>
       <use xlink:href="#CMR17-30" transform="translate(45.690477 0) scale(0.996264)"/>
       <use xlink:href="#CMR17-30" transform="translate(91.380954 36.153639) scale(0.697382)"/>
      </g>
     </g>
    </g>
   </g>
   <g id="line2d_45">
    <path d="M 142.139838 93.101196 
L 144.491681 92.514968 
L 146.843525 92.527867 
L 149.195368 92.620019 
L 151.547211 92.364922 
L 153.899055 92.416426 
L 156.250898 92.420396 
L 158.602742 92.685375 
L 160.954585 92.579986 
L 163.306428 92.513526 
L 165.658272 92.663773 
L 168.010115 92.716671 
L 170.361959 92.891016 
L 172.713802 92.774098 
L 175.065645 92.772331 
L 177.417489 92.687371 
L 179.769332 92.600442 
L 182.121175 92.439857 
L 184.473019 92.526598 
L 186.824862 92.77411 
L 189.176706 92.453348 
L 191.528549 92.514923 
L 193.880392 92.489125 
L 196.232236 92.288842 
L 198.584079 92.123625 
L 200.935923 92.493114 
L 203.287766 92.24014 
L 205.639609 92.202332 
L 207.991453 92.262135 
L 210.343296 92.321125 
" clip-path="url(#p3cbb654b12)" style="fill: none; stroke: #0000ff; stroke-width: 1.5; stroke-linecap: square"/>
   </g>
   <g id="line2d_46">
    <path d="M 142.139838 95.886937 
L 144.491681 96.088943 
L 146.843525 96.067497 
L 149.195368 96.042908 
L 151.547211 96.064986 
L 153.899055 95.976295 
L 156.250898 96.07607 
L 158.602742 95.821663 
L 160.954585 95.927226 
L 163.306428 96.112985 
L 165.658272 96.084559 
L 168.010115 96.062698 
L 170.361959 96.049555 
L 172.713802 96.083874 
L 175.065645 95.84127 
L 177.417489 95.908898 
L 179.769332 95.827347 
L 182.121175 95.92057 
L 184.473019 96.128073 
L 186.824862 95.911313 
L 189.176706 96.097884 
L 191.528549 95.564447 
L 193.880392 96.122268 
L 196.232236 95.756773 
L 198.584079 96.136168 
L 200.935923 95.986398 
L 203.287766 95.911482 
L 205.639609 96.094159 
L 207.991453 96.060432 
L 210.343296 96.066428 
" clip-path="url(#p3cbb654b12)" style="fill: none; stroke: #000000; stroke-width: 1.5; stroke-linecap: square"/>
   </g>
   <g id="line2d_47">
    <path d="M 142.139838 94.384898 
L 144.491681 93.811357 
L 146.843525 94.035632 
L 149.195368 93.811462 
L 151.547211 93.701632 
L 153.899055 93.486735 
L 156.250898 93.226449 
L 158.602742 93.701814 
L 160.954585 93.593712 
L 163.306428 93.540447 
L 165.658272 93.922193 
L 168.010115 94.326444 
L 170.361959 93.811225 
L 172.713802 94.035876 
L 175.065645 94.150306 
L 177.417489 93.701086 
L 179.769332 93.756668 
L 182.121175 93.840618 
L 184.473019 95.133263 
L 186.824862 93.811752 
L 189.176706 93.486482 
L 191.528549 94.150609 
L 193.880392 93.59361 
L 196.232236 93.70158 
L 198.584079 94.209336 
L 200.935923 93.648376 
L 203.287766 93.701398 
L 205.639609 93.276841 
L 207.991453 93.593379 
L 210.343296 94.445167 
" clip-path="url(#p3cbb654b12)" style="fill: none; stroke-dasharray: 5.55,2.4; stroke-dashoffset: 0; stroke: #0000ff; stroke-width: 1.5"/>
   </g>
   <g id="line2d_48">
    <path d="M 142.139838 91.610398 
L 144.491681 91.398622 
L 146.843525 91.445184 
L 149.195368 91.527678 
L 151.547211 91.284181 
L 153.899055 91.125409 
L 156.250898 91.125708 
L 158.602742 91.204646 
L 160.954585 91.694487 
L 163.306428 90.970575 
L 165.658272 91.445613 
L 168.010115 91.694126 
L 170.361959 91.694166 
L 172.713802 91.778864 
L 175.065645 91.864821 
L 177.417489 91.610478 
L 179.769332 91.778864 
L 182.121175 90.970465 
L 184.473019 91.527304 
L 186.824862 91.610239 
L 189.176706 91.047654 
L 191.528549 91.364325 
L 193.880392 91.204551 
L 196.232236 90.894232 
L 198.584079 91.125745 
L 200.935923 91.284162 
L 203.287766 90.818289 
L 205.639609 91.364614 
L 207.991453 90.970593 
L 210.343296 91.04745 
" clip-path="url(#p3cbb654b12)" style="fill: none; stroke-dasharray: 1.5,2.475; stroke-dashoffset: 0; stroke: #0000ff; stroke-width: 1.5"/>
   </g>
   <g id="line2d_49">
    <path d="M 142.139838 96.336255 
L 144.491681 96.259449 
L 146.843525 96.259269 
L 149.195368 96.258691 
L 151.547211 96.336473 
L 153.899055 96.336073 
L 156.250898 96.335489 
L 158.602742 96.335562 
L 160.954585 96.336473 
L 163.306428 96.336364 
L 165.658272 96.336473 
L 168.010115 96.3364 
L 170.361959 96.336473 
L 172.713802 96.336182 
L 175.065645 96.317582 
L 177.417489 96.336182 
L 179.769332 96.25916 
L 182.121175 96.336473 
L 184.473019 96.259413 
L 186.824862 96.336182 
L 189.176706 96.336328 
L 191.528549 96.259305 
L 193.880392 96.412132 
L 196.232236 96.277079 
L 198.584079 96.259341 
L 200.935923 96.336583 
L 203.287766 96.259702 
L 205.639609 96.336437 
L 207.991453 96.259088 
L 210.343296 96.259341 
" clip-path="url(#p3cbb654b12)" style="fill: none; stroke-dasharray: 5.55,2.4; stroke-dashoffset: 0; stroke: #000000; stroke-width: 1.5"/>
   </g>
   <g id="line2d_50">
    <path d="M 142.139838 95.166689 
L 144.491681 95.817882 
L 146.843525 95.265391 
L 149.195368 95.400088 
L 151.547211 95.069624 
L 153.899055 92.492282 
L 156.250898 95.333666 
L 158.602742 92.680694 
L 160.954585 92.038687 
L 163.306428 95.53722 
L 165.658272 95.468581 
L 168.010115 94.626624 
L 170.361959 95.400088 
L 172.713802 95.469298 
L 175.065645 91.694447 
L 177.417489 92.399559 
L 179.769332 91.864246 
L 182.121175 92.038792 
L 184.473019 95.469233 
L 186.824862 92.586167 
L 189.176706 95.399991 
L 191.528549 91.445321 
L 193.880392 95.747211 
L 196.232236 91.778864 
L 198.584079 95.889956 
L 200.935923 95.133669 
L 203.287766 91.865088 
L 205.639609 95.468646 
L 207.991453 95.333634 
L 210.343296 95.265709 
" clip-path="url(#p3cbb654b12)" style="fill: none; stroke-dasharray: 1.5,2.475; stroke-dashoffset: 0; stroke: #000000; stroke-width: 1.5"/>
   </g>
   <g id="patch_20">
    <path d="M 138.729665 109.036981 
L 138.729665 73.137582 
" style="fill: none; stroke: #000000; stroke-width: 0.8; stroke-linejoin: miter; stroke-linecap: square"/>
   </g>
   <g id="patch_21">
    <path d="M 213.753469 109.036981 
L 213.753469 73.137582 
" style="fill: none; stroke: #000000; stroke-width: 0.8; stroke-linejoin: miter; stroke-linecap: square"/>
   </g>
   <g id="patch_22">
    <path d="M 138.729665 109.036981 
L 213.753469 109.036981 
" style="fill: none; stroke: #000000; stroke-width: 0.8; stroke-linejoin: miter; stroke-linecap: square"/>
   </g>
   <g id="patch_23">
    <path d="M 138.729665 73.137582 
L 213.753469 73.137582 
" style="fill: none; stroke: #000000; stroke-width: 0.8; stroke-linejoin: miter; stroke-linecap: square"/>
   </g>
   <g id="text_32">
    <!-- $\mathbf{d)}$ -->
    <g transform="translate(126.261074 67.016623) scale(0.08 -0.08)">
     <defs>
      <path id="CMBX12-64" d="M 2221 4428 
L 2221 4153 
C 2618 4153 2662 4153 2662 3896 
L 2662 2571 
C 2522 2694 2240 2880 1798 2880 
C 890 2880 243 2313 243 1408 
C 243 483 877 -64 1728 -64 
C 2080 -64 2381 57 2630 270 
L 2630 -64 
L 3770 -26 
L 3770 250 
C 3373 250 3328 250 3328 502 
L 3328 4480 
L 2221 4428 
z
M 2630 625 
C 2362 231 2035 147 1805 147 
C 1011 147 1011 968 1011 1395 
C 1011 1699 1011 2022 1152 2268 
C 1350 2630 1728 2668 1875 2668 
C 2138 2668 2419 2552 2630 2268 
L 2630 625 
z
" transform="scale(0.015625)"/>
     </defs>
     <use xlink:href="#CMBX12-64" transform="scale(0.996264)"/>
     <use xlink:href="#CMR17-29" transform="translate(62.266501 0) scale(0.996264)"/>
    </g>
   </g>
  </g>
 </g>
 <defs>
  <clipPath id="p18f547ebaf">
   <rect x="37.44753" y="15.698543" width="75.023804" height="35.899399"/>
  </clipPath>
  <clipPath id="pad77e9241f">
   <rect x="138.729665" y="15.698543" width="75.023804" height="35.899399"/>
  </clipPath>
  <clipPath id="p689639aecf">
   <rect x="37.44753" y="73.137582" width="75.023804" height="35.899399"/>
  </clipPath>
  <clipPath id="p3cbb654b12">
   <rect x="138.729665" y="73.137582" width="75.023804" height="35.899399"/>
  </clipPath>
 </defs>
</svg>
