<?xml version="1.0" encoding="utf-8" standalone="no"?>
<!DOCTYPE svg PUBLIC "-//W3C//DTD SVG 1.1//EN"
  "http://www.w3.org/Graphics/SVG/1.1/DTD/svg11.dtd">
<svg xmlns:xlink="http://www.w3.org/1999/xlink" width="217.353469pt" height="134.806076pt" viewBox="0 0 217.353469 134.806076" xmlns="http://www.w3.org/2000/svg" version="1.1">
 <metadata>
  <rdf:RDF xmlns:dc="http://purl.org/dc/elements/1.1/" xmlns:cc="http://creativecommons.org/ns#" xmlns:rdf="http://www.w3.org/1999/02/22-rdf-syntax-ns#">
   <cc:Work>
    <dc:type rdf:resource="http://purl.org/dc/dcmitype/StillImage"/>
    <dc:date>2025-09-20T15:44:32.288975</dc:date>
    <dc:format>image/svg+xml</dc:format>
    <dc:creator>
     <cc:Agent>
      <dc:title>Matplotlib v3.10.0, https://matplotlib.org/</dc:title>
     </cc:Agent>
    </dc:creator>
   </cc:Work>
  </rdf:RDF>
 </metadata>
 <defs>
  <style type="text/css">*{stroke-linejoin: round; stroke-linecap: butt}</style>
 </defs>
 <g id="figure_1">
  <g id="patch_1">
   <path d="M 0 134.806076 
L 217.353469 134.806076 
L 217.353469 0 
L 0 0 
z
" style="fill: #ffffff"/>
  </g>
  <g id="axes_1">
   <g id="patch_2">
    <path d="M 37.44753 51.597942 
L 112.471334 51.597942 
L 112.471334 15.698543 
L 37.44753 15.698543 
z
" style="fill: #ffffff"/>
   </g>
   <g id="FillBetweenPolyCollection_1">
    <defs>
     <path id="m37fcb4bf7a" d="M 40.857703 -109.577596 
L 40.857703 -100.767342 
L 42.24961 -100.011932 
L 43.641517 -101.725695 
L 45.033425 -100.193809 
L 46.425332 -100.531848 
L 47.817239 -100.452802 
L 49.209147 -100.559888 
L 50.601054 -102.758339 
L 51.992961 -103.596156 
L 53.384868 -103.654188 
L 54.776776 -102.784163 
L 56.168683 -103.155473 
L 57.56059 -102.860445 
L 58.952498 -101.773908 
L 60.344405 -102.251373 
L 61.736312 -102.663768 
L 63.12822 -102.656673 
L 64.520127 -102.30212 
L 65.912034 -103.718314 
L 67.303942 -104.245437 
L 68.695849 -104.189484 
L 70.087756 -103.098046 
L 71.479663 -103.606488 
L 72.871571 -103.226433 
L 74.263478 -104.317278 
L 75.655385 -104.249906 
L 77.047293 -104.306507 
L 78.4392 -104.133995 
L 79.831107 -104.827679 
L 81.223015 -104.420039 
L 82.614922 -104.165414 
L 84.006829 -104.714224 
L 85.398737 -103.857451 
L 86.790644 -103.930482 
L 88.182551 -104.388862 
L 89.574458 -105.145736 
L 90.966366 -105.057034 
L 92.358273 -104.502283 
L 93.75018 -104.578658 
L 95.142088 -105.449746 
L 96.533995 -105.650301 
L 97.925902 -104.832659 
L 99.31781 -105.58439 
L 100.709717 -105.27859 
L 102.101624 -106.311433 
L 103.493532 -106.875509 
L 104.885439 -106.261962 
L 106.277346 -106.198255 
L 107.669253 -105.819316 
L 109.061161 -105.94381 
L 109.061161 -109.780876 
L 109.061161 -109.780876 
L 107.669253 -108.930945 
L 106.277346 -110.310091 
L 104.885439 -109.81361 
L 103.493532 -110.791602 
L 102.101624 -109.620308 
L 100.709717 -108.042143 
L 99.31781 -109.354072 
L 97.925902 -108.605992 
L 96.533995 -109.531079 
L 95.142088 -109.314455 
L 93.75018 -108.190483 
L 92.358273 -109.011912 
L 90.966366 -108.582493 
L 89.574458 -108.650305 
L 88.182551 -108.528722 
L 86.790644 -109.091484 
L 85.398737 -108.169256 
L 84.006829 -108.038421 
L 82.614922 -107.991214 
L 81.223015 -108.183171 
L 79.831107 -108.389111 
L 78.4392 -108.694374 
L 77.047293 -108.073023 
L 75.655385 -108.699201 
L 74.263478 -107.110797 
L 72.871571 -109.202046 
L 71.479663 -107.263403 
L 70.087756 -108.365659 
L 68.695849 -108.702759 
L 67.303942 -108.672822 
L 65.912034 -108.602437 
L 64.520127 -106.477682 
L 63.12822 -107.180346 
L 61.736312 -107.138384 
L 60.344405 -107.266159 
L 58.952498 -106.777424 
L 57.56059 -106.635789 
L 56.168683 -108.034009 
L 54.776776 -107.074861 
L 53.384868 -108.399968 
L 51.992961 -107.989233 
L 50.601054 -107.163897 
L 49.209147 -105.261215 
L 47.817239 -106.207728 
L 46.425332 -105.830583 
L 45.033425 -104.886346 
L 43.641517 -105.653772 
L 42.24961 -105.613407 
L 40.857703 -109.577596 
z
" style="stroke: #0000ff; stroke-opacity: 0.2"/>
    </defs>
    <g clip-path="url(#p49020b22fe)">
     <use xlink:href="#m37fcb4bf7a" x="0" y="134.806076" style="fill: #0000ff; fill-opacity: 0.2; stroke: #0000ff; stroke-opacity: 0.2"/>
    </g>
   </g>
   <g id="FillBetweenPolyCollection_2">
    <defs>
     <path id="me9e7405a0c" d="M 40.857703 -110.028125 
L 40.857703 -108.295229 
L 42.24961 -108.159491 
L 43.641517 -108.161839 
L 45.033425 -108.796221 
L 46.425332 -108.069478 
L 47.817239 -108.794159 
L 49.209147 -107.626724 
L 50.601054 -107.828971 
L 51.992961 -108.067468 
L 53.384868 -108.711248 
L 54.776776 -108.237061 
L 56.168683 -108.179175 
L 57.56059 -108.364144 
L 58.952498 -108.048138 
L 60.344405 -108.270824 
L 61.736312 -108.139868 
L 63.12822 -108.269023 
L 64.520127 -107.725031 
L 65.912034 -108.373685 
L 67.303942 -107.996071 
L 68.695849 -107.592143 
L 70.087756 -108.302323 
L 71.479663 -107.665912 
L 72.871571 -108.078962 
L 74.263478 -107.748913 
L 75.655385 -107.908235 
L 77.047293 -108.030131 
L 78.4392 -108.107678 
L 79.831107 -107.6397 
L 81.223015 -108.173999 
L 82.614922 -107.627577 
L 84.006829 -108.379223 
L 85.398737 -107.772194 
L 86.790644 -108.246699 
L 88.182551 -107.559311 
L 89.574458 -108.452894 
L 90.966366 -107.380494 
L 92.358273 -108.517403 
L 93.75018 -107.645694 
L 95.142088 -108.510257 
L 96.533995 -107.650638 
L 97.925902 -108.117109 
L 99.31781 -107.593523 
L 100.709717 -107.892395 
L 102.101624 -107.42542 
L 103.493532 -107.789002 
L 104.885439 -108.265175 
L 106.277346 -107.442487 
L 107.669253 -108.480048 
L 109.061161 -107.463642 
L 109.061161 -110.252112 
L 109.061161 -110.252112 
L 107.669253 -110.075903 
L 106.277346 -110.630059 
L 104.885439 -111.149959 
L 103.493532 -109.485197 
L 102.101624 -110.695613 
L 100.709717 -110.822248 
L 99.31781 -109.931985 
L 97.925902 -110.927818 
L 96.533995 -110.775223 
L 95.142088 -110.346937 
L 93.75018 -109.532037 
L 92.358273 -110.215899 
L 90.966366 -110.455573 
L 89.574458 -112.072405 
L 88.182551 -111.259889 
L 86.790644 -110.876891 
L 85.398737 -109.600512 
L 84.006829 -110.262369 
L 82.614922 -109.977814 
L 81.223015 -110.508708 
L 79.831107 -110.27313 
L 78.4392 -109.79334 
L 77.047293 -110.174626 
L 75.655385 -110.254086 
L 74.263478 -110.903409 
L 72.871571 -111.025612 
L 71.479663 -111.180541 
L 70.087756 -111.522621 
L 68.695849 -110.759819 
L 67.303942 -111.316244 
L 65.912034 -110.846085 
L 64.520127 -110.547922 
L 63.12822 -110.79615 
L 61.736312 -109.906819 
L 60.344405 -110.957706 
L 58.952498 -110.488402 
L 57.56059 -111.11337 
L 56.168683 -110.555527 
L 54.776776 -109.825719 
L 53.384868 -109.943164 
L 51.992961 -109.778736 
L 50.601054 -109.998856 
L 49.209147 -109.861683 
L 47.817239 -109.518877 
L 46.425332 -108.832731 
L 45.033425 -109.57074 
L 43.641517 -108.869602 
L 42.24961 -108.825334 
L 40.857703 -110.028125 
z
" style="stroke: #000000; stroke-opacity: 0.2"/>
    </defs>
    <g clip-path="url(#p49020b22fe)">
     <use xlink:href="#me9e7405a0c" x="0" y="134.806076" style="fill-opacity: 0.2; stroke: #000000; stroke-opacity: 0.2"/>
    </g>
   </g>
   <g id="matplotlib.axis_1">
    <g id="xtick_1">
     <g id="line2d_1">
      <defs>
       <path id="mce73222334" d="M 0 0 
L 0 3.5 
" style="stroke: #000000; stroke-width: 0.8"/>
      </defs>
      <g>
       <use xlink:href="#mce73222334" x="38.505859" y="51.597942" style="stroke: #000000; stroke-width: 0.8"/>
      </g>
     </g>
    </g>
    <g id="xtick_2">
     <g id="line2d_2">
      <g>
       <use xlink:href="#mce73222334" x="85.542727" y="51.597942" style="stroke: #000000; stroke-width: 0.8"/>
      </g>
     </g>
    </g>
   </g>
   <g id="matplotlib.axis_2">
    <g id="ytick_1">
     <g id="line2d_3">
      <defs>
       <path id="me9abf9ce09" d="M 0 0 
L -3.5 0 
" style="stroke: #000000; stroke-width: 0.8"/>
      </defs>
      <g>
       <use xlink:href="#me9abf9ce09" x="37.44753" y="51.597942" style="stroke: #000000; stroke-width: 0.8"/>
      </g>
     </g>
     <g id="text_1">
      <!-- $10^{-2}$ -->
      <g transform="translate(12.570112 54.365343) scale(0.08 -0.08)">
       <defs>
        <path id="CMR17-31" d="M 1702 4083 
C 1702 4217 1696 4224 1606 4224 
C 1357 3927 979 3833 621 3820 
C 602 3820 570 3820 563 3808 
C 557 3795 557 3782 557 3648 
C 755 3648 1088 3686 1344 3839 
L 1344 467 
C 1344 243 1331 166 781 166 
L 589 166 
L 589 0 
C 896 6 1216 12 1523 12 
C 1830 12 2150 6 2458 0 
L 2458 166 
L 2266 166 
C 1715 166 1702 236 1702 467 
L 1702 4083 
z
" transform="scale(0.015625)"/>
        <path id="CMR17-30" d="M 2688 2038 
C 2688 2430 2682 3099 2413 3613 
C 2176 4063 1798 4224 1466 4224 
C 1158 4224 768 4082 525 3620 
C 269 3137 243 2539 243 2038 
C 243 1671 250 1112 448 623 
C 723 -39 1216 -128 1466 -128 
C 1760 -128 2208 -7 2470 604 
C 2662 1048 2688 1568 2688 2038 
z
M 1466 -26 
C 1056 -26 813 328 723 816 
C 653 1196 653 1749 653 2109 
C 653 2604 653 3015 736 3407 
C 858 3954 1216 4121 1466 4121 
C 1728 4121 2067 3947 2189 3420 
C 2272 3054 2278 2623 2278 2109 
C 2278 1691 2278 1176 2202 797 
C 2067 96 1690 -26 1466 -26 
z
" transform="scale(0.015625)"/>
        <path id="CMSY10-0" d="M 4218 1472 
C 4326 1472 4442 1472 4442 1600 
C 4442 1728 4326 1728 4218 1728 
L 755 1728 
C 646 1728 531 1728 531 1600 
C 531 1472 646 1472 755 1472 
L 4218 1472 
z
" transform="scale(0.015625)"/>
        <path id="CMR17-32" d="M 2669 990 
L 2554 990 
C 2490 537 2438 460 2413 422 
C 2381 371 1920 371 1830 371 
L 602 371 
C 832 620 1280 1073 1824 1596 
C 2214 1966 2669 2400 2669 3033 
C 2669 3788 2067 4224 1395 4224 
C 691 4224 262 3603 262 3027 
C 262 2777 448 2745 525 2745 
C 589 2745 781 2783 781 3007 
C 781 3206 614 3264 525 3264 
C 486 3264 448 3257 422 3244 
C 544 3788 915 4057 1306 4057 
C 1862 4057 2227 3616 2227 3033 
C 2227 2477 1901 1998 1536 1583 
L 262 147 
L 262 0 
L 2515 0 
L 2669 990 
z
" transform="scale(0.015625)"/>
       </defs>
       <use xlink:href="#CMR17-31" transform="scale(0.996264)"/>
       <use xlink:href="#CMR17-30" transform="translate(45.690477 0) scale(0.996264)"/>
       <use xlink:href="#CMSY10-0" transform="translate(91.380954 36.153639) scale(0.697382)"/>
       <use xlink:href="#CMR17-32" transform="translate(145.621947 36.153639) scale(0.697382)"/>
      </g>
     </g>
    </g>
    <g id="ytick_2">
     <g id="line2d_4">
      <g>
       <use xlink:href="#me9abf9ce09" x="37.44753" y="15.698543" style="stroke: #000000; stroke-width: 0.8"/>
      </g>
     </g>
     <g id="text_2">
      <!-- $10^{-1}$ -->
      <g transform="translate(12.570112 18.465944) scale(0.08 -0.08)">
       <use xlink:href="#CMR17-31" transform="scale(0.996264)"/>
       <use xlink:href="#CMR17-30" transform="translate(45.690477 0) scale(0.996264)"/>
       <use xlink:href="#CMSY10-0" transform="translate(91.380954 36.153639) scale(0.697382)"/>
       <use xlink:href="#CMR17-31" transform="translate(145.621947 36.153639) scale(0.697382)"/>
      </g>
     </g>
    </g>
    <g id="text_3">
     <!-- Time ($s$) -->
     <g transform="translate(9.577584 49.955377) rotate(-90) scale(0.08 -0.08)">
      <defs>
       <path id="CMR17-54" d="M 3981 4332 
L 288 4332 
L 179 2924 
L 294 2924 
C 378 3981 467 4166 1453 4166 
C 1568 4166 1754 4166 1805 4159 
C 1926 4140 1926 4064 1926 3917 
L 1926 465 
C 1926 236 1907 166 1376 166 
L 1197 166 
L 1197 0 
C 1504 6 1824 12 2138 12 
C 2451 12 2771 6 3078 0 
L 3078 166 
L 2899 166 
C 2368 166 2349 236 2349 465 
L 2349 3917 
C 2349 4057 2349 4134 2464 4159 
C 2515 4166 2701 4166 2816 4166 
C 3795 4166 3891 3981 3974 2924 
L 4090 2924 
L 3981 4332 
z
" transform="scale(0.015625)"/>
       <path id="CMR17-69" d="M 992 3961 
C 992 4102 877 4224 730 4224 
C 589 4224 467 4108 467 3961 
C 467 3820 582 3699 730 3699 
C 870 3699 992 3814 992 3961 
z
M 243 2745 
L 243 2579 
C 602 2579 653 2540 653 2231 
L 653 443 
C 653 198 627 166 218 166 
L 218 0 
C 371 12 646 12 806 12 
C 960 12 1222 12 1370 0 
L 1370 166 
C 992 166 979 205 979 436 
L 979 2816 
L 243 2745 
z
" transform="scale(0.015625)"/>
       <path id="CMR17-6d" d="M 4326 1954 
C 4326 2276 4269 2816 3507 2816 
C 3072 2816 2771 2520 2656 2173 
L 2650 2173 
C 2573 2700 2195 2816 1837 2816 
C 1331 2816 1069 2424 973 2166 
L 966 2166 
L 966 2816 
L 211 2745 
L 211 2578 
C 589 2578 646 2540 646 2231 
L 646 443 
C 646 198 621 166 211 166 
L 211 0 
C 365 12 646 12 813 12 
C 979 12 1267 12 1421 0 
L 1421 166 
C 1011 166 986 192 986 443 
L 986 1678 
C 986 2269 1344 2713 1792 2713 
C 2266 2713 2317 2289 2317 1980 
L 2317 443 
C 2317 198 2291 166 1882 166 
L 1882 0 
C 2035 12 2317 12 2483 12 
C 2650 12 2938 12 3091 0 
L 3091 166 
C 2682 166 2656 192 2656 443 
L 2656 1678 
C 2656 2269 3014 2713 3462 2713 
C 3936 2713 3987 2289 3987 1980 
L 3987 443 
C 3987 198 3962 166 3552 166 
L 3552 0 
C 3706 12 3987 12 4154 12 
C 4320 12 4608 12 4762 0 
L 4762 166 
C 4352 166 4326 192 4326 443 
L 4326 1954 
z
" transform="scale(0.015625)"/>
       <path id="CMR17-65" d="M 2438 1503 
C 2464 1529 2464 1542 2464 1606 
C 2464 2251 2118 2816 1389 2816 
C 710 2816 173 2175 173 1394 
C 173 554 781 -64 1459 -64 
C 2176 -64 2458 619 2458 755 
C 2458 800 2419 800 2406 800 
C 2362 800 2355 787 2330 709 
C 2189 270 1837 51 1504 51 
C 1229 51 954 206 781 490 
C 582 819 582 1200 582 1503 
L 2438 1503 
z
M 589 1600 
C 634 2511 1126 2713 1382 2713 
C 1818 2713 2112 2308 2118 1600 
L 589 1600 
z
" transform="scale(0.015625)"/>
       <path id="CMR17-28" d="M 1958 -1562 
C 1958 -1556 1958 -1543 1939 -1524 
C 1645 -1223 858 -403 858 1596 
C 858 3595 1632 4408 1946 4729 
C 1946 4735 1958 4748 1958 4767 
C 1958 4787 1939 4800 1914 4800 
C 1843 4800 1299 4325 986 3620 
C 666 2909 576 2218 576 1603 
C 576 1141 621 360 1005 -467 
C 1312 -1133 1837 -1600 1914 -1600 
C 1946 -1600 1958 -1588 1958 -1562 
z
" transform="scale(0.015625)"/>
       <path id="CMMI12-73" d="M 1459 1290 
C 1568 1271 1741 1233 1779 1227 
C 1862 1201 2150 1099 2150 793 
C 2150 595 1971 64 1229 64 
C 1094 64 614 83 486 447 
C 742 414 870 614 870 755 
C 870 889 781 960 653 960 
C 512 960 326 851 326 563 
C 326 176 710 -64 1222 -64 
C 2195 -64 2483 665 2483 998 
C 2483 1093 2483 1271 2278 1475 
C 2118 1627 1965 1659 1619 1729 
C 1446 1767 1171 1824 1171 2111 
C 1171 2239 1286 2687 1894 2687 
C 2163 2687 2426 2589 2490 2368 
C 2208 2368 2195 2124 2195 2118 
C 2195 1983 2317 1945 2374 1945 
C 2464 1945 2643 2015 2643 2284 
C 2643 2546 2400 2816 1901 2816 
C 1062 2816 838 2169 838 1907 
C 838 1424 1312 1322 1459 1290 
z
" transform="scale(0.015625)"/>
       <path id="CMR17-29" d="M 1683 1596 
C 1683 2057 1638 2839 1254 3665 
C 947 4332 422 4800 346 4800 
C 326 4800 301 4793 301 4761 
C 301 4748 307 4742 314 4729 
C 621 4408 1402 3595 1402 1603 
C 1402 -396 627 -1210 314 -1530 
C 307 -1543 301 -1549 301 -1562 
C 301 -1594 326 -1600 346 -1600 
C 416 -1600 960 -1127 1274 -422 
C 1594 289 1683 981 1683 1596 
z
" transform="scale(0.015625)"/>
      </defs>
      <use xlink:href="#CMR17-54" transform="scale(0.996264)"/>
      <use xlink:href="#CMR17-69" transform="translate(66.509881 0) scale(0.996264)"/>
      <use xlink:href="#CMR17-6d" transform="translate(91.380939 0) scale(0.996264)"/>
      <use xlink:href="#CMR17-65" transform="translate(168.300529 0) scale(0.996264)"/>
      <use xlink:href="#CMR17-28" transform="translate(238.862156 0) scale(0.996264)"/>
      <use xlink:href="#CMMI12-73" transform="translate(274.142924 0) scale(0.996264)"/>
      <use xlink:href="#CMR17-29" transform="translate(320.092971 0) scale(0.996264)"/>
     </g>
    </g>
   </g>
   <g id="line2d_5">
    <path d="M 40.857703 29.019393 
L 42.24961 31.743188 
L 43.641517 30.99296 
L 45.033425 32.090117 
L 46.425332 31.400832 
L 47.817239 31.211773 
L 49.209147 31.718985 
L 50.601054 29.689862 
L 51.992961 28.85916 
L 53.384868 28.599117 
L 54.776776 29.729425 
L 56.168683 29.021292 
L 57.56059 29.943962 
L 58.952498 30.330547 
L 60.344405 29.846549 
L 61.736312 29.74502 
L 63.12822 29.724072 
L 64.520127 30.276804 
L 65.912034 28.455224 
L 67.303942 28.190316 
L 68.695849 28.197209 
L 70.087756 28.852807 
L 71.479663 29.264157 
L 72.871571 28.307284 
L 74.263478 29.029556 
L 75.655385 28.173342 
L 77.047293 28.502845 
L 78.4392 28.225743 
L 79.831107 28.096209 
L 81.223015 28.391209 
L 82.614922 28.610705 
L 84.006829 28.341325 
L 85.398737 28.644137 
L 86.790644 28.082508 
L 88.182551 28.210279 
L 89.574458 27.809792 
L 90.966366 27.886876 
L 92.358273 27.886495 
L 93.75018 28.317149 
L 95.142088 27.304532 
L 96.533995 27.09495 
L 97.925902 27.972875 
L 99.31781 27.223189 
L 100.709717 28.084559 
L 102.101624 26.75259 
L 103.493532 25.849888 
L 104.885439 26.667374 
L 106.277346 26.416741 
L 107.669253 27.353447 
L 109.061161 26.825988 
" clip-path="url(#p49020b22fe)" style="fill: none; stroke: #0000ff; stroke-width: 1.5; stroke-linecap: square"/>
   </g>
   <g id="line2d_6">
    <path d="M 40.857703 25.620336 
L 42.24961 26.310109 
L 43.641517 26.28634 
L 45.033425 25.617786 
L 46.425332 26.350301 
L 47.817239 25.645348 
L 49.209147 26.021859 
L 50.601054 25.854444 
L 51.992961 25.859507 
L 53.384868 25.466706 
L 54.776776 25.75446 
L 56.168683 25.393494 
L 57.56059 25.0068 
L 58.952498 25.490112 
L 60.344405 25.134002 
L 61.736312 25.757715 
L 63.12822 25.222343 
L 64.520127 25.605798 
L 65.912034 25.147234 
L 67.303942 25.061704 
L 68.695849 25.549784 
L 70.087756 24.810608 
L 71.479663 25.284022 
L 72.871571 25.184279 
L 74.263478 25.40027 
L 75.655385 25.680837 
L 77.047293 25.666856 
L 78.4392 25.832797 
L 79.831107 25.794126 
L 81.223015 25.421061 
L 82.614922 25.959138 
L 84.006829 25.456865 
L 85.398737 26.092938 
L 86.790644 25.188883 
L 88.182551 25.286939 
L 89.574458 24.438626 
L 90.966366 25.812351 
L 92.358273 25.416307 
L 93.75018 26.1887 
L 95.142088 25.350449 
L 96.533995 25.515001 
L 97.925902 25.22036 
L 99.31781 25.99952 
L 100.709717 25.380033 
L 102.101624 25.659976 
L 103.493532 26.145921 
L 104.885439 25.031883 
L 106.277346 25.688482 
L 107.669253 25.507691 
L 109.061161 25.885942 
" clip-path="url(#p49020b22fe)" style="fill: none; stroke: #000000; stroke-width: 1.5; stroke-linecap: square"/>
   </g>
   <g id="line2d_7">
    <path d="M 40.857703 34.457205 
L 42.24961 36.294231 
L 43.641517 34.201425 
L 45.033425 36.988351 
L 46.425332 35.816212 
L 47.817239 38.264677 
L 49.209147 37.301671 
L 50.601054 34.194727 
L 51.992961 33.158389 
L 53.384868 33.357519 
L 54.776776 32.969983 
L 56.168683 34.199354 
L 57.56059 33.206762 
L 58.952498 34.92879 
L 60.344405 34.202277 
L 61.736312 35.531372 
L 63.12822 33.827891 
L 64.520127 34.716874 
L 65.912034 33.06945 
L 67.303942 33.440811 
L 68.695849 33.445451 
L 70.087756 34.71977 
L 71.479663 31.834272 
L 72.871571 33.945938 
L 74.263478 32.784829 
L 75.655385 33.700113 
L 77.047293 33.444059 
L 78.4392 32.500176 
L 79.831107 32.737412 
L 81.223015 32.973022 
L 82.614922 31.515893 
L 84.006829 31.617308 
L 85.398737 32.881551 
L 86.790644 32.504217 
L 88.182551 31.828832 
L 89.574458 31.189322 
L 90.966366 31.613594 
L 92.358273 31.7859 
L 93.75018 31.184001 
L 95.142088 31.616998 
L 96.533995 31.183399 
L 97.925902 33.941865 
L 99.31781 30.772282 
L 100.709717 30.561699 
L 102.101624 29.38118 
L 103.493532 29.214887 
L 104.885439 29.97201 
L 106.277346 31.834272 
L 107.669253 31.773492 
L 109.061161 29.972753 
" clip-path="url(#p49020b22fe)" style="fill: none; stroke-dasharray: 5.55,2.4; stroke-dashoffset: 0; stroke: #0000ff; stroke-width: 1.5"/>
   </g>
   <g id="line2d_8">
    <path d="M 40.857703 19.658765 
L 42.24961 26.339708 
L 43.641517 27.027182 
L 45.033425 26.797568 
L 46.425332 25.881977 
L 47.817239 26.300184 
L 49.209147 27.626085 
L 50.601054 24.728158 
L 51.992961 24.557161 
L 53.384868 23.781701 
L 54.776776 25.730923 
L 56.168683 24.929584 
L 57.56059 26.026359 
L 58.952498 23.394994 
L 60.344405 25.292195 
L 61.736312 25.312911 
L 63.12822 25.147677 
L 64.520127 25.255648 
L 65.912034 24.042378 
L 67.303942 24.447649 
L 68.695849 24.285422 
L 70.087756 23.419555 
L 71.479663 26.031191 
L 72.871571 22.942516 
L 74.263478 27.093202 
L 75.655385 24.447844 
L 77.047293 24.715825 
L 78.4392 23.985161 
L 79.831107 25.054464 
L 81.223015 25.714449 
L 82.614922 24.449213 
L 84.006829 25.294947 
L 85.398737 24.177795 
L 86.790644 23.01414 
L 88.182551 24.397888 
L 89.574458 24.055842 
L 90.966366 24.86581 
L 92.358273 23.648676 
L 93.75018 23.519784 
L 95.142088 23.142138 
L 96.533995 24.178116 
L 97.925902 25.393351 
L 99.31781 23.211076 
L 100.709717 24.85718 
L 102.101624 23.39542 
L 103.493532 22.265146 
L 104.885439 23.737503 
L 106.277346 23.267751 
L 107.669253 24.729219 
L 109.061161 22.52179 
" clip-path="url(#p49020b22fe)" style="fill: none; stroke-dasharray: 1.5,2.475; stroke-dashoffset: 0; stroke: #0000ff; stroke-width: 1.5"/>
   </g>
   <g id="line2d_9">
    <path d="M 40.857703 26.335369 
L 42.24961 27.064665 
L 43.641517 26.944761 
L 45.033425 26.922525 
L 46.425332 27.128987 
L 47.817239 26.383536 
L 49.209147 26.845972 
L 50.601054 26.907108 
L 51.992961 26.70392 
L 53.384868 26.732333 
L 54.776776 26.648225 
L 56.168683 26.650401 
L 57.56059 26.492795 
L 58.952498 26.79825 
L 60.344405 26.520899 
L 61.736312 26.970246 
L 63.12822 26.338899 
L 64.520127 27.009588 
L 65.912034 26.313323 
L 67.303942 26.872665 
L 68.695849 26.967259 
L 70.087756 26.308844 
L 71.479663 26.8056 
L 72.871571 26.650176 
L 74.263478 26.879746 
L 75.655385 26.651827 
L 77.047293 26.806812 
L 78.4392 26.807191 
L 79.831107 26.940709 
L 81.223015 26.805751 
L 82.614922 26.966264 
L 84.006829 26.731277 
L 85.398737 26.970552 
L 86.790644 26.292189 
L 88.182551 26.862926 
L 89.574458 26.058474 
L 90.966366 27.013965 
L 92.358273 26.179953 
L 93.75018 27.047952 
L 95.142088 26.338605 
L 96.533995 26.807722 
L 97.925902 26.650176 
L 99.31781 26.967489 
L 100.709717 26.951645 
L 102.101624 26.967106 
L 103.493532 26.754224 
L 104.885439 26.296002 
L 106.277346 26.96611 
L 107.669253 26.265518 
L 109.061161 27.041872 
" clip-path="url(#p49020b22fe)" style="fill: none; stroke-dasharray: 5.55,2.4; stroke-dashoffset: 0; stroke: #000000; stroke-width: 1.5"/>
   </g>
   <g id="line2d_10">
    <path d="M 40.857703 21.739532 
L 42.24961 25.730287 
L 43.641517 25.580198 
L 45.033425 24.864606 
L 46.425332 25.258119 
L 47.817239 24.723051 
L 49.209147 22.281411 
L 50.601054 22.40448 
L 51.992961 22.361278 
L 53.384868 23.791255 
L 54.776776 22.402823 
L 56.168683 22.259257 
L 57.56059 21.286498 
L 58.952498 22.048758 
L 60.344405 21.698787 
L 61.736312 22.522827 
L 63.12822 21.247183 
L 64.520127 21.640997 
L 65.912034 22.04792 
L 67.303942 21.911059 
L 68.695849 22.047194 
L 70.087756 21.92729 
L 71.479663 21.976976 
L 72.871571 21.338022 
L 74.263478 21.760027 
L 75.655385 21.804287 
L 77.047293 22.240075 
L 78.4392 22.646547 
L 79.831107 22.402594 
L 81.223015 21.699224 
L 82.614922 22.278292 
L 84.006829 21.761507 
L 85.398737 22.177036 
L 86.790644 21.6268 
L 88.182551 21.583746 
L 89.574458 21.440026 
L 90.966366 22.162568 
L 92.358273 21.696984 
L 93.75018 22.282545 
L 95.142088 21.922857 
L 96.533995 22.161162 
L 97.925902 21.470623 
L 99.31781 22.083038 
L 100.709717 21.358316 
L 102.101624 22.325756 
L 103.493532 22.401394 
L 104.885439 21.748187 
L 106.277346 22.275005 
L 107.669253 22.099282 
L 109.061161 22.094239 
" clip-path="url(#p49020b22fe)" style="fill: none; stroke-dasharray: 1.5,2.475; stroke-dashoffset: 0; stroke: #000000; stroke-width: 1.5"/>
   </g>
   <g id="patch_3">
    <path d="M 37.44753 51.597942 
L 37.44753 15.698543 
" style="fill: none; stroke: #000000; stroke-width: 0.8; stroke-linejoin: miter; stroke-linecap: square"/>
   </g>
   <g id="patch_4">
    <path d="M 112.471334 51.597942 
L 112.471334 15.698543 
" style="fill: none; stroke: #000000; stroke-width: 0.8; stroke-linejoin: miter; stroke-linecap: square"/>
   </g>
   <g id="patch_5">
    <path d="M 37.44753 51.597942 
L 112.471334 51.597942 
" style="fill: none; stroke: #000000; stroke-width: 0.8; stroke-linejoin: miter; stroke-linecap: square"/>
   </g>
   <g id="patch_6">
    <path d="M 37.44753 15.698543 
L 112.471334 15.698543 
" style="fill: none; stroke: #000000; stroke-width: 0.8; stroke-linejoin: miter; stroke-linecap: square"/>
   </g>
   <g id="text_4">
    <!-- $\mathbf{a)}$ -->
    <g transform="translate(25.656953 9.577584) scale(0.08 -0.08)">
     <defs>
      <path id="CMBX12-61" d="M 2944 1894 
C 2944 2483 2477 2880 1574 2880 
C 1216 2880 461 2847 461 2310 
C 461 2041 666 1926 838 1926 
C 1030 1926 1216 2060 1216 2303 
C 1216 2425 1171 2540 1062 2611 
C 1274 2668 1427 2668 1549 2668 
C 1984 2668 2246 2425 2246 1900 
L 2246 1644 
C 1235 1644 218 1362 218 648 
C 218 64 960 -64 1402 -64 
C 1894 -64 2208 205 2336 488 
C 2336 250 2336 -26 2982 -26 
L 3309 -26 
C 3443 -26 3494 -26 3494 115 
C 3494 250 3437 250 3347 250 
C 2944 256 2944 359 2944 507 
L 2944 1894 
z
M 2246 867 
C 2246 262 1709 147 1504 147 
C 1190 147 928 359 928 655 
C 928 1240 1619 1439 2246 1472 
L 2246 867 
z
" transform="scale(0.015625)"/>
     </defs>
     <use xlink:href="#CMBX12-61" transform="scale(0.996264)"/>
     <use xlink:href="#CMR17-29" transform="translate(54.483188 0) scale(0.996264)"/>
    </g>
   </g>
   <g id="legend_1">
    <g id="line2d_11">
     <path d="M 68.496794 30.298481 
L 70.496794 30.298481 
L 72.496794 30.298481 
" style="fill: none; stroke: #0000ff; stroke-width: 1.5; stroke-linecap: square"/>
    </g>
    <g id="text_5">
     <!-- Mean -->
     <g transform="translate(73.696794 31.698481) scale(0.04 -0.04)">
      <defs>
       <path id="CMR17-4d" d="M 1338 4249 
C 1299 4345 1293 4352 1158 4352 
L 339 4352 
L 339 4185 
C 781 4185 851 4185 851 3898 
L 851 624 
C 851 465 851 166 339 166 
L 339 0 
C 486 12 755 12 915 12 
C 1075 12 1344 12 1491 0 
L 1491 166 
C 979 166 979 465 979 624 
L 979 4159 
L 986 4159 
L 2490 102 
C 2515 38 2528 0 2579 0 
C 2630 0 2643 38 2669 102 
L 4186 4191 
L 4192 4191 
L 4192 453 
C 4192 166 4122 166 3680 166 
L 3680 0 
C 3853 12 4198 12 4384 12 
C 4570 12 4922 12 5094 0 
L 5094 166 
C 4653 166 4582 166 4582 453 
L 4582 3898 
C 4582 4185 4653 4185 5094 4185 
L 5094 4352 
L 4282 4352 
C 4147 4352 4141 4345 4102 4249 
L 2720 516 
L 1338 4249 
z
" transform="scale(0.015625)"/>
       <path id="CMR17-61" d="M 2304 1656 
C 2304 2048 2304 2275 2035 2534 
C 1798 2751 1523 2816 1306 2816 
C 800 2816 435 2408 435 1977 
C 435 1740 627 1728 666 1728 
C 749 1728 896 1779 896 1958 
C 896 2118 774 2188 666 2188 
C 640 2188 608 2182 589 2176 
C 723 2594 1069 2713 1293 2713 
C 1613 2713 1965 2421 1965 1875 
L 1965 1632 
C 1587 1619 1133 1568 774 1373 
C 371 1147 256 822 256 576 
C 256 77 832 -64 1171 -64 
C 1523 -64 1850 135 1990 505 
C 2003 219 2182 -39 2464 -39 
C 2598 -39 2938 51 2938 563 
L 2938 926 
L 2822 926 
L 2822 557 
C 2822 161 2650 109 2566 109 
C 2304 109 2304 446 2304 732 
L 2304 1656 
z
M 1965 887 
C 1965 323 1568 38 1216 38 
C 896 38 646 278 646 576 
C 646 771 730 1114 1101 1322 
C 1408 1497 1760 1523 1965 1536 
L 1965 887 
z
" transform="scale(0.015625)"/>
       <path id="CMR17-6e" d="M 2656 1954 
C 2656 2282 2592 2816 1837 2816 
C 1331 2816 1069 2424 973 2166 
L 966 2166 
L 966 2816 
L 211 2745 
L 211 2578 
C 589 2578 646 2540 646 2231 
L 646 443 
C 646 198 621 166 211 166 
L 211 0 
C 365 12 646 12 813 12 
C 979 12 1267 12 1421 0 
L 1421 166 
C 1011 166 986 192 986 443 
L 986 1678 
C 986 2269 1344 2713 1792 2713 
C 2266 2713 2317 2289 2317 1980 
L 2317 443 
C 2317 198 2291 166 1882 166 
L 1882 0 
C 2035 12 2317 12 2483 12 
C 2650 12 2938 12 3091 0 
L 3091 166 
C 2682 166 2656 192 2656 443 
L 2656 1954 
z
" transform="scale(0.015625)"/>
      </defs>
      <use xlink:href="#CMR17-4d" transform="scale(0.996264)"/>
      <use xlink:href="#CMR17-65" transform="translate(84.686941 0) scale(0.996264)"/>
      <use xlink:href="#CMR17-61" transform="translate(125.172601 0) scale(0.996264)"/>
      <use xlink:href="#CMR17-6e" transform="translate(170.863078 0) scale(0.996264)"/>
     </g>
    </g>
    <g id="patch_7">
     <path d="M 68.496794 37.273347 
L 72.496794 37.273347 
L 72.496794 34.473347 
L 68.496794 34.473347 
z
" style="fill: #0000ff; fill-opacity: 0.2; stroke: #0000ff; stroke-opacity: 0.2; stroke-linejoin: miter"/>
    </g>
    <g id="text_6">
     <!-- Std -->
     <g transform="translate(73.696794 37.273347) scale(0.04 -0.04)">
      <defs>
       <path id="CMR17-53" d="M 2803 4351 
C 2803 4467 2797 4473 2758 4473 
C 2720 4473 2707 4447 2682 4390 
L 2490 3965 
C 2246 4320 1875 4480 1472 4480 
C 819 4480 294 3958 294 3301 
C 294 3101 339 2817 557 2546 
C 794 2250 1018 2198 1530 2063 
C 1722 2011 2042 1927 2106 1901 
C 2470 1747 2662 1360 2662 999 
C 2662 534 2336 38 1779 38 
C 1094 38 454 425 410 1328 
C 403 1431 397 1437 352 1437 
C 301 1437 294 1431 294 1302 
L 294 0 
C 294 -116 301 -122 339 -122 
C 384 -122 397 -90 486 109 
C 493 128 493 141 614 386 
C 934 -39 1472 -128 1779 -128 
C 2477 -128 2970 457 2970 1141 
C 2970 1476 2848 1734 2778 1850 
C 2509 2263 2221 2340 1914 2417 
C 1869 2437 1856 2437 1498 2527 
C 1152 2617 1005 2662 845 2836 
C 666 3036 602 3243 602 3449 
C 602 3868 934 4326 1478 4326 
C 2157 4326 2579 3842 2675 3036 
C 2694 2920 2701 2914 2746 2914 
C 2803 2914 2803 2933 2803 3043 
L 2803 4351 
z
" transform="scale(0.015625)"/>
       <path id="CMR17-74" d="M 966 2585 
L 1862 2585 
L 1862 2752 
L 966 2752 
L 966 3968 
L 851 3968 
C 838 3292 614 2700 70 2687 
L 70 2585 
L 627 2585 
L 627 778 
C 627 655 627 -64 1370 -64 
C 1747 -64 1965 308 1965 784 
L 1965 1151 
L 1850 1151 
L 1850 790 
C 1850 347 1677 51 1408 51 
C 1222 51 966 179 966 765 
L 966 2585 
z
" transform="scale(0.015625)"/>
       <path id="CMR17-64" d="M 1869 4345 
L 1869 4179 
C 2246 4179 2304 4141 2304 3843 
L 2304 2371 
C 2278 2403 2016 2816 1498 2816 
C 845 2816 211 2228 211 1376 
C 211 529 806 -64 1434 -64 
C 1978 -64 2259 361 2291 406 
L 2291 -64 
L 3066 -13 
L 3066 154 
C 2688 154 2630 193 2630 503 
L 2630 4416 
L 1869 4345 
z
M 2291 762 
C 2291 568 2176 393 2029 264 
C 1811 70 1594 38 1472 38 
C 1286 38 621 135 621 1369 
C 621 2636 1363 2713 1530 2713 
C 1824 2713 2061 2545 2208 2313 
C 2291 2177 2291 2157 2291 2041 
L 2291 762 
z
" transform="scale(0.015625)"/>
      </defs>
      <use xlink:href="#CMR17-53" transform="scale(0.996264)"/>
      <use xlink:href="#CMR17-74" transform="translate(50.89537 0) scale(0.996264)"/>
      <use xlink:href="#CMR17-64" transform="translate(86.176138 0) scale(0.996264)"/>
     </g>
    </g>
    <g id="line2d_12">
     <path d="M 68.496794 41.448212 
L 70.496794 41.448212 
L 72.496794 41.448212 
" style="fill: none; stroke: #000000; stroke-width: 1.5; stroke-linecap: square"/>
    </g>
    <g id="text_7">
     <!-- Mean -->
     <g transform="translate(73.696794 42.848212) scale(0.04 -0.04)">
      <use xlink:href="#CMR17-4d" transform="scale(0.996264)"/>
      <use xlink:href="#CMR17-65" transform="translate(84.686941 0) scale(0.996264)"/>
      <use xlink:href="#CMR17-61" transform="translate(125.172601 0) scale(0.996264)"/>
      <use xlink:href="#CMR17-6e" transform="translate(170.863078 0) scale(0.996264)"/>
     </g>
    </g>
    <g id="patch_8">
     <path d="M 68.496794 48.423077 
L 72.496794 48.423077 
L 72.496794 45.623077 
L 68.496794 45.623077 
z
" style="fill-opacity: 0.2; stroke: #000000; stroke-opacity: 0.2; stroke-linejoin: miter"/>
    </g>
    <g id="text_8">
     <!-- Std -->
     <g transform="translate(73.696794 48.423077) scale(0.04 -0.04)">
      <use xlink:href="#CMR17-53" transform="scale(0.996264)"/>
      <use xlink:href="#CMR17-74" transform="translate(50.89537 0) scale(0.996264)"/>
      <use xlink:href="#CMR17-64" transform="translate(86.176138 0) scale(0.996264)"/>
     </g>
    </g>
    <g id="line2d_13">
     <path d="M 94.570925 30.298481 
L 96.570925 30.298481 
L 98.570925 30.298481 
" style="fill: none; stroke-dasharray: 5.55,2.4; stroke-dashoffset: 0; stroke: #0000ff; stroke-width: 1.5"/>
    </g>
    <g id="text_9">
     <!-- Max -->
     <g transform="translate(99.770925 31.698481) scale(0.04 -0.04)">
      <defs>
       <path id="CMR17-78" d="M 1664 1491 
C 1856 1740 2074 2022 2253 2233 
C 2464 2476 2707 2579 2989 2585 
L 2989 2752 
C 2880 2745 2656 2739 2541 2739 
C 2368 2739 2170 2739 2022 2752 
L 2022 2585 
C 2112 2572 2163 2508 2163 2419 
C 2163 2304 2099 2233 2067 2188 
L 1594 1587 
L 1030 2323 
C 973 2393 973 2406 973 2438 
C 973 2515 1037 2579 1146 2585 
L 1146 2752 
C 992 2739 717 2739 557 2739 
C 384 2739 179 2739 38 2752 
L 38 2585 
C 384 2585 461 2560 614 2368 
L 1350 1414 
C 1363 1401 1395 1363 1395 1344 
C 1395 1318 838 633 768 544 
C 480 198 179 172 6 166 
L 6 0 
C 115 6 339 12 454 12 
C 582 12 864 12 979 0 
L 979 166 
C 941 172 838 185 838 332 
C 838 448 890 518 947 595 
L 1478 1248 
L 2035 524 
C 2086 454 2163 358 2163 313 
C 2163 224 2086 172 1984 166 
L 1984 0 
C 2138 12 2413 12 2573 12 
C 2746 12 2950 12 3091 0 
L 3091 166 
C 2771 166 2675 179 2522 377 
L 1664 1491 
z
" transform="scale(0.015625)"/>
      </defs>
      <use xlink:href="#CMR17-4d" transform="scale(0.996264)"/>
      <use xlink:href="#CMR17-61" transform="translate(84.686941 0) scale(0.996264)"/>
      <use xlink:href="#CMR17-78" transform="translate(130.377418 0) scale(0.996264)"/>
     </g>
    </g>
    <g id="line2d_14">
     <path d="M 94.570925 35.873347 
L 96.570925 35.873347 
L 98.570925 35.873347 
" style="fill: none; stroke-dasharray: 1.5,2.475; stroke-dashoffset: 0; stroke: #0000ff; stroke-width: 1.5"/>
    </g>
    <g id="text_10">
     <!-- Min -->
     <g transform="translate(99.770925 37.273347) scale(0.04 -0.04)">
      <use xlink:href="#CMR17-4d" transform="scale(0.996264)"/>
      <use xlink:href="#CMR17-69" transform="translate(84.686941 0) scale(0.996264)"/>
      <use xlink:href="#CMR17-6e" transform="translate(109.557999 0) scale(0.996264)"/>
     </g>
    </g>
    <g id="line2d_15">
     <path d="M 94.570925 41.448212 
L 96.570925 41.448212 
L 98.570925 41.448212 
" style="fill: none; stroke-dasharray: 5.55,2.4; stroke-dashoffset: 0; stroke: #000000; stroke-width: 1.5"/>
    </g>
    <g id="text_11">
     <!-- Max -->
     <g transform="translate(99.770925 42.848212) scale(0.04 -0.04)">
      <use xlink:href="#CMR17-4d" transform="scale(0.996264)"/>
      <use xlink:href="#CMR17-61" transform="translate(84.686941 0) scale(0.996264)"/>
      <use xlink:href="#CMR17-78" transform="translate(130.377418 0) scale(0.996264)"/>
     </g>
    </g>
    <g id="line2d_16">
     <path d="M 94.570925 47.023077 
L 96.570925 47.023077 
L 98.570925 47.023077 
" style="fill: none; stroke-dasharray: 1.5,2.475; stroke-dashoffset: 0; stroke: #000000; stroke-width: 1.5"/>
    </g>
    <g id="text_12">
     <!-- Min -->
     <g transform="translate(99.770925 48.423077) scale(0.04 -0.04)">
      <use xlink:href="#CMR17-4d" transform="scale(0.996264)"/>
      <use xlink:href="#CMR17-69" transform="translate(84.686941 0) scale(0.996264)"/>
      <use xlink:href="#CMR17-6e" transform="translate(109.557999 0) scale(0.996264)"/>
     </g>
    </g>
   </g>
  </g>
  <g id="axes_2">
   <g id="patch_9">
    <path d="M 138.729665 51.597942 
L 213.753469 51.597942 
L 213.753469 15.698543 
L 138.729665 15.698543 
z
" style="fill: #ffffff"/>
   </g>
   <g id="FillBetweenPolyCollection_3">
    <defs>
     <path id="m867977bd2a" d="M 142.139838 -95.782257 
L 142.139838 -92.566121 
L 143.531745 -93.686658 
L 144.923653 -93.992397 
L 146.31556 -93.789474 
L 147.707467 -94.093915 
L 149.099375 -94.277301 
L 150.491282 -94.467465 
L 151.883189 -94.880291 
L 153.275096 -94.773179 
L 154.667004 -94.64102 
L 156.058911 -94.513922 
L 157.450818 -94.543054 
L 158.842726 -94.455718 
L 160.234633 -93.592766 
L 161.62654 -94.006666 
L 163.018448 -93.64913 
L 164.410355 -94.173113 
L 165.802262 -93.948554 
L 167.19417 -94.299393 
L 168.586077 -94.087829 
L 169.977984 -94.297244 
L 171.369891 -93.752406 
L 172.761799 -93.745317 
L 174.153706 -94.406736 
L 175.545613 -94.21519 
L 176.937521 -94.372794 
L 178.329428 -94.282408 
L 179.721335 -93.992713 
L 181.113243 -93.953336 
L 182.50515 -94.345603 
L 183.897057 -94.140011 
L 185.288965 -94.362561 
L 186.680872 -94.827066 
L 188.072779 -94.283005 
L 189.464686 -94.091724 
L 190.856594 -94.34898 
L 192.248501 -94.079382 
L 193.640408 -94.179992 
L 195.032316 -94.388387 
L 196.424223 -94.327084 
L 197.81613 -94.588993 
L 199.208038 -94.397502 
L 200.599945 -95.045119 
L 201.991852 -94.325163 
L 203.38376 -94.745918 
L 204.775667 -94.639103 
L 206.167574 -94.614676 
L 207.559481 -94.707913 
L 208.951389 -94.472599 
L 210.343296 -95.040876 
L 210.343296 -96.709 
L 210.343296 -96.709 
L 208.951389 -96.30151 
L 207.559481 -96.260576 
L 206.167574 -95.929464 
L 204.775667 -96.385251 
L 203.38376 -96.388972 
L 201.991852 -96.510901 
L 200.599945 -96.590198 
L 199.208038 -96.181778 
L 197.81613 -96.336459 
L 196.424223 -95.991693 
L 195.032316 -96.313814 
L 193.640408 -95.964827 
L 192.248501 -95.803242 
L 190.856594 -95.930522 
L 189.464686 -95.846325 
L 188.072779 -95.991673 
L 186.680872 -96.334005 
L 185.288965 -96.037566 
L 183.897057 -96.022775 
L 182.50515 -96.044102 
L 181.113243 -96.096739 
L 179.721335 -95.909307 
L 178.329428 -96.048575 
L 176.937521 -96.271148 
L 175.545613 -96.348217 
L 174.153706 -96.317355 
L 172.761799 -96.181019 
L 171.369891 -96.391225 
L 169.977984 -96.293808 
L 168.586077 -96.090369 
L 167.19417 -96.257601 
L 165.802262 -95.983923 
L 164.410355 -96.496479 
L 163.018448 -95.974838 
L 161.62654 -95.759903 
L 160.234633 -95.94774 
L 158.842726 -96.40293 
L 157.450818 -96.378524 
L 156.058911 -96.588226 
L 154.667004 -96.705011 
L 153.275096 -96.334927 
L 151.883189 -96.727088 
L 150.491282 -96.255536 
L 149.099375 -96.679917 
L 147.707467 -96.417793 
L 146.31556 -96.22888 
L 144.923653 -96.580881 
L 143.531745 -96.378135 
L 142.139838 -95.782257 
z
" style="stroke: #0000ff; stroke-opacity: 0.2"/>
    </defs>
    <g clip-path="url(#p8f9c3250ff)">
     <use xlink:href="#m867977bd2a" x="0" y="134.806076" style="fill: #0000ff; fill-opacity: 0.2; stroke: #0000ff; stroke-opacity: 0.2"/>
    </g>
   </g>
   <g id="FillBetweenPolyCollection_4">
    <defs>
     <path id="m7ba07e4760" d="M 142.139838 -96.230409 
L 142.139838 -95.361812 
L 143.531745 -95.540465 
L 144.923653 -95.552794 
L 146.31556 -95.705501 
L 147.707467 -95.414278 
L 149.099375 -95.883807 
L 150.491282 -95.52291 
L 151.883189 -95.462223 
L 153.275096 -95.503523 
L 154.667004 -95.537072 
L 156.058911 -95.440025 
L 157.450818 -95.489896 
L 158.842726 -95.660022 
L 160.234633 -95.717985 
L 161.62654 -95.711356 
L 163.018448 -95.7657 
L 164.410355 -95.55063 
L 165.802262 -95.641062 
L 167.19417 -95.557767 
L 168.586077 -95.603158 
L 169.977984 -95.446513 
L 171.369891 -94.430657 
L 172.761799 -95.606446 
L 174.153706 -95.421479 
L 175.545613 -95.669292 
L 176.937521 -95.309091 
L 178.329428 -95.62288 
L 179.721335 -95.421796 
L 181.113243 -95.717396 
L 182.50515 -95.236304 
L 183.897057 -95.712046 
L 185.288965 -95.282535 
L 186.680872 -95.358318 
L 188.072779 -95.95421 
L 189.464686 -95.323463 
L 190.856594 -95.652106 
L 192.248501 -95.269778 
L 193.640408 -95.684514 
L 195.032316 -95.2687 
L 196.424223 -95.723223 
L 197.81613 -95.394636 
L 199.208038 -95.674464 
L 200.599945 -95.370813 
L 201.991852 -95.762951 
L 203.38376 -95.365448 
L 204.775667 -95.959489 
L 206.167574 -95.302423 
L 207.559481 -95.73546 
L 208.951389 -95.115922 
L 210.343296 -95.57511 
L 210.343296 -97.117405 
L 210.343296 -97.117405 
L 208.951389 -96.871644 
L 207.559481 -96.547058 
L 206.167574 -96.432892 
L 204.775667 -96.377658 
L 203.38376 -96.208715 
L 201.991852 -96.638266 
L 200.599945 -97.068844 
L 199.208038 -97.373504 
L 197.81613 -96.62395 
L 196.424223 -96.756993 
L 195.032316 -96.672006 
L 193.640408 -96.795673 
L 192.248501 -96.943794 
L 190.856594 -97.11419 
L 189.464686 -96.455945 
L 188.072779 -96.332963 
L 186.680872 -96.276892 
L 185.288965 -96.601723 
L 183.897057 -96.663298 
L 182.50515 -97.07831 
L 181.113243 -96.951547 
L 179.721335 -96.281203 
L 178.329428 -96.985822 
L 176.937521 -96.50892 
L 175.545613 -96.764822 
L 174.153706 -96.249707 
L 172.761799 -96.543499 
L 171.369891 -97.649912 
L 169.977984 -96.490345 
L 168.586077 -96.520668 
L 167.19417 -96.404354 
L 165.802262 -96.00334 
L 164.410355 -96.425302 
L 163.018448 -96.217006 
L 161.62654 -96.209118 
L 160.234633 -96.206309 
L 158.842726 -96.196276 
L 157.450818 -96.237781 
L 156.058911 -96.563742 
L 154.667004 -96.781919 
L 153.275096 -96.357496 
L 151.883189 -96.287711 
L 150.491282 -96.169993 
L 149.099375 -96.334499 
L 147.707467 -96.318043 
L 146.31556 -96.522315 
L 144.923653 -95.994708 
L 143.531745 -95.929482 
L 142.139838 -96.230409 
z
" style="stroke: #000000; stroke-opacity: 0.2"/>
    </defs>
    <g clip-path="url(#p8f9c3250ff)">
     <use xlink:href="#m7ba07e4760" x="0" y="134.806076" style="fill-opacity: 0.2; stroke: #000000; stroke-opacity: 0.2"/>
    </g>
   </g>
   <g id="matplotlib.axis_3">
    <g id="xtick_3">
     <g id="line2d_17">
      <g>
       <use xlink:href="#mce73222334" x="139.787995" y="51.597942" style="stroke: #000000; stroke-width: 0.8"/>
      </g>
     </g>
    </g>
    <g id="xtick_4">
     <g id="line2d_18">
      <g>
       <use xlink:href="#mce73222334" x="186.824862" y="51.597942" style="stroke: #000000; stroke-width: 0.8"/>
      </g>
     </g>
    </g>
   </g>
   <g id="matplotlib.axis_4">
    <g id="ytick_3">
     <g id="line2d_19">
      <g>
       <use xlink:href="#me9abf9ce09" x="138.729665" y="51.597942" style="stroke: #000000; stroke-width: 0.8"/>
      </g>
     </g>
     <g id="text_13">
      <!-- $10^{-2}$ -->
      <g transform="translate(113.852247 54.365343) scale(0.08 -0.08)">
       <use xlink:href="#CMR17-31" transform="scale(0.996264)"/>
       <use xlink:href="#CMR17-30" transform="translate(45.690477 0) scale(0.996264)"/>
       <use xlink:href="#CMSY10-0" transform="translate(91.380954 36.153639) scale(0.697382)"/>
       <use xlink:href="#CMR17-32" transform="translate(145.621947 36.153639) scale(0.697382)"/>
      </g>
     </g>
    </g>
    <g id="ytick_4">
     <g id="line2d_20">
      <g>
       <use xlink:href="#me9abf9ce09" x="138.729665" y="33.648243" style="stroke: #000000; stroke-width: 0.8"/>
      </g>
     </g>
     <g id="text_14">
      <!-- $10^{-1}$ -->
      <g transform="translate(113.852247 36.415644) scale(0.08 -0.08)">
       <use xlink:href="#CMR17-31" transform="scale(0.996264)"/>
       <use xlink:href="#CMR17-30" transform="translate(45.690477 0) scale(0.996264)"/>
       <use xlink:href="#CMSY10-0" transform="translate(91.380954 36.153639) scale(0.697382)"/>
       <use xlink:href="#CMR17-31" transform="translate(145.621947 36.153639) scale(0.697382)"/>
      </g>
     </g>
    </g>
    <g id="ytick_5">
     <g id="line2d_21">
      <g>
       <use xlink:href="#me9abf9ce09" x="138.729665" y="15.698543" style="stroke: #000000; stroke-width: 0.8"/>
      </g>
     </g>
     <g id="text_15">
      <!-- $10^{0}$ -->
      <g transform="translate(119.608387 18.465944) scale(0.08 -0.08)">
       <use xlink:href="#CMR17-31" transform="scale(0.996264)"/>
       <use xlink:href="#CMR17-30" transform="translate(45.690477 0) scale(0.996264)"/>
       <use xlink:href="#CMR17-30" transform="translate(91.380954 36.153639) scale(0.697382)"/>
      </g>
     </g>
    </g>
   </g>
   <g id="line2d_22">
    <path d="M 142.139838 40.467192 
L 143.531745 39.658094 
L 144.923653 39.412489 
L 146.31556 39.701867 
L 147.707467 39.463946 
L 149.099375 39.235268 
L 150.491282 39.393421 
L 151.883189 38.947825 
L 153.275096 39.212978 
L 154.667004 39.06495 
L 156.058911 39.186211 
L 157.450818 39.291391 
L 158.842726 39.316111 
L 160.234633 39.947231 
L 161.62654 39.873606 
L 163.018448 39.90768 
L 164.410355 39.385042 
L 165.802262 39.773597 
L 167.19417 39.466253 
L 168.586077 39.652851 
L 169.977984 39.446804 
L 171.369891 39.623132 
L 172.761799 39.748163 
L 174.153706 39.385642 
L 175.545613 39.451643 
L 176.937521 39.426461 
L 178.329428 39.590673 
L 179.721335 39.796312 
L 181.113243 39.707602 
L 182.50515 39.565056 
L 183.897057 39.66798 
L 185.288965 39.56111 
L 186.680872 39.189184 
L 188.072779 39.622016 
L 189.464686 39.78779 
L 190.856594 39.626286 
L 192.248501 39.81721 
L 193.640408 39.682696 
L 195.032316 39.39568 
L 196.424223 39.60234 
L 197.81613 39.294487 
L 199.208038 39.465498 
L 200.599945 38.950201 
L 201.991852 39.311687 
L 203.38376 39.195423 
L 204.775667 39.24511 
L 206.167574 39.50632 
L 207.559481 39.283239 
L 208.951389 39.365509 
L 210.343296 38.886604 
" clip-path="url(#p8f9c3250ff)" style="fill: none; stroke: #0000ff; stroke-width: 1.5; stroke-linecap: square"/>
   </g>
   <g id="line2d_23">
    <path d="M 142.139838 38.997874 
L 143.531745 39.068676 
L 144.923653 39.029194 
L 146.31556 38.681475 
L 147.707467 38.926826 
L 149.099375 38.693667 
L 150.491282 38.952913 
L 151.883189 38.920188 
L 153.275096 38.863879 
L 154.667004 38.621759 
L 156.058911 38.783963 
L 157.450818 38.933273 
L 158.842726 38.873317 
L 160.234633 38.840106 
L 161.62654 38.841867 
L 163.018448 38.811458 
L 164.410355 38.805849 
L 165.802262 38.981771 
L 167.19417 38.813529 
L 168.586077 38.730672 
L 169.977984 38.820189 
L 171.369891 38.600779 
L 172.761799 38.717032 
L 174.153706 38.959489 
L 175.545613 38.56979 
L 176.937521 38.87401 
L 178.329428 38.471976 
L 179.721335 38.94274 
L 181.113243 38.447207 
L 182.50515 38.594489 
L 183.897057 38.603903 
L 185.288965 38.836076 
L 186.680872 38.974949 
L 188.072779 38.66019 
L 189.464686 38.895825 
L 190.856594 38.388701 
L 192.248501 38.654441 
L 193.640408 38.546202 
L 195.032316 38.804189 
L 196.424223 38.548844 
L 197.81613 38.772576 
L 199.208038 38.235895 
L 200.599945 38.540105 
L 201.991852 38.593189 
L 203.38376 39.007598 
L 204.775667 38.6347 
L 206.167574 38.917945 
L 207.559481 38.65426 
L 208.951389 38.762969 
L 210.343296 38.421739 
" clip-path="url(#p8f9c3250ff)" style="fill: none; stroke: #000000; stroke-width: 1.5; stroke-linecap: square"/>
   </g>
   <g id="line2d_24">
    <path d="M 142.139838 45.228267 
L 143.531745 42.052773 
L 144.923653 41.832171 
L 146.31556 42.778473 
L 147.707467 41.942877 
L 149.099375 42.898344 
L 150.491282 41.504399 
L 151.883189 41.19093 
L 153.275096 40.671364 
L 154.667004 41.830791 
L 156.058911 42.279237 
L 157.450818 42.171836 
L 158.842726 41.390119 
L 160.234633 42.290831 
L 161.62654 41.720974 
L 163.018448 42.899196 
L 164.410355 42.52454 
L 165.802262 42.171836 
L 167.19417 41.832065 
L 168.586077 41.919374 
L 169.977984 41.178175 
L 171.369891 41.935878 
L 172.761799 41.827075 
L 174.153706 41.285951 
L 175.545613 41.500174 
L 176.937521 41.185699 
L 178.329428 41.175344 
L 179.721335 41.503788 
L 181.113243 41.613199 
L 182.50515 40.884641 
L 183.897057 41.832384 
L 185.288965 40.984358 
L 186.680872 40.883278 
L 188.072779 40.988599 
L 189.464686 41.684154 
L 190.856594 41.60649 
L 192.248501 43.027512 
L 193.640408 41.084789 
L 195.032316 40.950045 
L 196.424223 41.481013 
L 197.81613 40.978645 
L 199.208038 41.503432 
L 200.599945 40.411193 
L 201.991852 41.831853 
L 203.38376 40.87233 
L 204.775667 41.289566 
L 206.167574 41.293332 
L 207.559481 40.887699 
L 208.951389 40.987741 
L 210.343296 41.108321 
" clip-path="url(#p8f9c3250ff)" style="fill: none; stroke-dasharray: 5.55,2.4; stroke-dashoffset: 0; stroke: #0000ff; stroke-width: 1.5"/>
   </g>
   <g id="line2d_25">
    <path d="M 142.139838 36.827345 
L 143.531745 37.243831 
L 144.923653 37.494337 
L 146.31556 37.480438 
L 147.707467 36.706808 
L 149.099375 37.006328 
L 150.491282 37.927864 
L 151.883189 36.938373 
L 153.275096 37.894499 
L 154.667004 37.311689 
L 156.058911 37.379333 
L 157.450818 37.961276 
L 158.842726 37.753475 
L 160.234633 37.56525 
L 161.62654 38.295207 
L 163.018448 38.098082 
L 164.410355 37.894371 
L 165.802262 38.024001 
L 167.19417 38.030194 
L 168.586077 38.161558 
L 169.977984 37.375404 
L 171.369891 36.04671 
L 172.761799 36.654676 
L 174.153706 38.025109 
L 175.545613 37.497412 
L 176.937521 37.48442 
L 178.329428 37.730725 
L 179.721335 37.556224 
L 181.113243 37.826384 
L 182.50515 37.722508 
L 183.897057 37.436865 
L 185.288965 37.249729 
L 186.680872 37.624609 
L 188.072779 37.673296 
L 189.464686 38.236696 
L 190.856594 38.518872 
L 192.248501 38.597131 
L 193.640408 38.029998 
L 195.032316 37.82686 
L 196.424223 38.029477 
L 197.81613 37.870982 
L 199.208038 38.091244 
L 200.599945 37.187175 
L 201.991852 37.305031 
L 203.38376 37.491111 
L 204.775667 37.245689 
L 206.167574 38.365658 
L 207.559481 37.914071 
L 208.951389 37.3116 
L 210.343296 37.370519 
" clip-path="url(#p8f9c3250ff)" style="fill: none; stroke-dasharray: 1.5,2.475; stroke-dashoffset: 0; stroke: #0000ff; stroke-width: 1.5"/>
   </g>
   <g id="line2d_26">
    <path d="M 142.139838 39.364587 
L 143.531745 39.36389 
L 144.923653 39.369309 
L 146.31556 39.287657 
L 147.707467 39.299351 
L 149.099375 39.2885 
L 150.491282 39.297663 
L 151.883189 39.369115 
L 153.275096 39.288155 
L 154.667004 39.287848 
L 156.058911 39.334579 
L 157.450818 39.282869 
L 158.842726 39.287963 
L 160.234633 39.273072 
L 161.62654 39.369967 
L 163.018448 39.209202 
L 164.410355 39.283941 
L 165.802262 39.368496 
L 167.19417 39.36989 
L 168.586077 39.285013 
L 169.977984 39.288385 
L 171.369891 39.28735 
L 172.761799 39.287427 
L 174.153706 39.450965 
L 175.545613 39.051499 
L 176.937521 39.364006 
L 178.329428 39.051388 
L 179.721335 39.332459 
L 181.113243 38.897507 
L 182.50515 39.288193 
L 183.897057 39.123984 
L 185.288965 39.370045 
L 186.680872 39.340247 
L 188.072779 39.051648 
L 189.464686 39.369619 
L 190.856594 39.128675 
L 192.248501 39.32826 
L 193.640408 38.973387 
L 195.032316 39.288308 
L 196.424223 38.973313 
L 197.81613 39.288078 
L 199.208038 38.897471 
L 200.599945 39.449908 
L 201.991852 38.905091 
L 203.38376 39.450495 
L 204.775667 39.287427 
L 206.167574 39.370238 
L 207.559481 39.051537 
L 208.951389 39.369657 
L 210.343296 39.288155 
" clip-path="url(#p8f9c3250ff)" style="fill: none; stroke-dasharray: 5.55,2.4; stroke-dashoffset: 0; stroke: #000000; stroke-width: 1.5"/>
   </g>
   <g id="line2d_27">
    <path d="M 142.139838 37.187643 
L 143.531745 38.589175 
L 144.923653 38.51162 
L 146.31556 36.945604 
L 147.707467 37.006299 
L 149.099375 38.237232 
L 150.491282 37.819335 
L 151.883189 37.187409 
L 153.275096 37.127238 
L 154.667004 36.887011 
L 156.058911 36.887574 
L 157.450818 37.374475 
L 158.842726 38.030292 
L 160.234633 38.302058 
L 161.62654 38.217 
L 163.018448 38.371311 
L 164.410355 36.998211 
L 165.802262 38.709554 
L 167.19417 37.250024 
L 168.586077 36.770047 
L 169.977984 36.711267 
L 171.369891 32.869341 
L 172.761799 36.827206 
L 174.153706 37.187409 
L 175.545613 36.769908 
L 176.937521 36.936785 
L 178.329428 36.42182 
L 179.721335 37.127383 
L 181.113243 36.770019 
L 182.50515 36.497579 
L 183.897057 37.065194 
L 185.288965 36.71135 
L 186.680872 37.006128 
L 188.072779 38.203286 
L 189.464686 37.065338 
L 190.856594 36.65473 
L 192.248501 36.933215 
L 193.640408 36.784818 
L 195.032316 37.042496 
L 196.424223 36.878061 
L 197.81613 37.065771 
L 199.208038 36.592172 
L 200.599945 37.065828 
L 201.991852 36.654457 
L 203.38376 37.121548 
L 204.775667 38.161425 
L 206.167574 37.010904 
L 207.559481 36.827681 
L 208.951389 36.372476 
L 210.343296 36.827876 
" clip-path="url(#p8f9c3250ff)" style="fill: none; stroke-dasharray: 1.5,2.475; stroke-dashoffset: 0; stroke: #000000; stroke-width: 1.5"/>
   </g>
   <g id="patch_10">
    <path d="M 138.729665 51.597942 
L 138.729665 15.698543 
" style="fill: none; stroke: #000000; stroke-width: 0.8; stroke-linejoin: miter; stroke-linecap: square"/>
   </g>
   <g id="patch_11">
    <path d="M 213.753469 51.597942 
L 213.753469 15.698543 
" style="fill: none; stroke: #000000; stroke-width: 0.8; stroke-linejoin: miter; stroke-linecap: square"/>
   </g>
   <g id="patch_12">
    <path d="M 138.729665 51.597942 
L 213.753469 51.597942 
" style="fill: none; stroke: #000000; stroke-width: 0.8; stroke-linejoin: miter; stroke-linecap: square"/>
   </g>
   <g id="patch_13">
    <path d="M 138.729665 15.698543 
L 213.753469 15.698543 
" style="fill: none; stroke: #000000; stroke-width: 0.8; stroke-linejoin: miter; stroke-linecap: square"/>
   </g>
   <g id="text_16">
    <!-- $\mathbf{b)}$ -->
    <g transform="translate(126.261074 9.577584) scale(0.08 -0.08)">
     <defs>
      <path id="CMBX12-62" d="M 1331 4480 
L 224 4428 
L 224 4153 
C 621 4153 666 4153 666 3896 
L 666 -26 
L 934 -26 
C 1043 96 1152 218 1254 347 
C 1581 6 1933 -64 2189 -64 
C 3072 -64 3750 476 3750 1414 
C 3750 2300 3149 2880 2272 2880 
C 1894 2880 1594 2758 1331 2552 
L 1331 4480 
z
M 1363 2242 
C 1587 2552 1920 2668 2189 2668 
C 2982 2668 2982 1847 2982 1420 
C 2982 1130 2982 761 2829 522 
C 2630 211 2330 147 2125 147 
C 1690 147 1453 457 1363 599 
L 1363 2242 
z
" transform="scale(0.015625)"/>
     </defs>
     <use xlink:href="#CMBX12-62" transform="scale(0.996264)"/>
     <use xlink:href="#CMR17-29" transform="translate(62.266501 0) scale(0.996264)"/>
    </g>
   </g>
  </g>
  <g id="axes_3">
   <g id="patch_14">
    <path d="M 37.44753 109.036981 
L 112.471334 109.036981 
L 112.471334 73.137582 
L 37.44753 73.137582 
z
" style="fill: #ffffff"/>
   </g>
   <g id="FillBetweenPolyCollection_5">
    <defs>
     <path id="mf1017cfb54" d="M 40.857703 -43.984624 
L 40.857703 -35.709234 
L 42.24961 -33.732111 
L 43.641517 -33.874067 
L 45.033425 -32.984715 
L 46.425332 -32.490902 
L 47.817239 -34.228238 
L 49.209147 -34.701118 
L 50.601054 -34.63105 
L 51.992961 -34.568842 
L 53.384868 -33.939769 
L 54.776776 -34.878457 
L 56.168683 -34.064078 
L 57.56059 -34.6305 
L 58.952498 -35.441163 
L 60.344405 -35.418703 
L 61.736312 -35.323604 
L 63.12822 -34.799649 
L 64.520127 -34.721842 
L 65.912034 -35.413066 
L 67.303942 -35.026265 
L 68.695849 -35.786308 
L 70.087756 -35.689957 
L 71.479663 -34.501136 
L 72.871571 -35.25123 
L 74.263478 -35.913161 
L 75.655385 -35.16148 
L 77.047293 -35.409386 
L 78.4392 -35.212198 
L 79.831107 -35.08227 
L 81.223015 -34.989896 
L 82.614922 -35.156658 
L 84.006829 -35.351191 
L 85.398737 -35.47505 
L 86.790644 -35.481107 
L 88.182551 -35.653541 
L 89.574458 -36.342895 
L 90.966366 -36.032093 
L 92.358273 -36.036654 
L 93.75018 -36.176836 
L 95.142088 -36.47123 
L 96.533995 -36.653195 
L 97.925902 -36.046731 
L 99.31781 -35.98177 
L 100.709717 -36.511486 
L 102.101624 -36.143629 
L 103.493532 -35.83072 
L 104.885439 -36.492327 
L 106.277346 -36.685232 
L 107.669253 -36.555902 
L 109.061161 -36.679438 
L 109.061161 -46.066711 
L 109.061161 -46.066711 
L 107.669253 -46.082296 
L 106.277346 -45.773676 
L 104.885439 -46.068043 
L 103.493532 -45.962956 
L 102.101624 -46.109081 
L 100.709717 -45.97176 
L 99.31781 -45.957953 
L 97.925902 -46.061921 
L 96.533995 -45.590085 
L 95.142088 -45.321252 
L 93.75018 -45.563308 
L 92.358273 -45.843317 
L 90.966366 -45.05006 
L 89.574458 -44.925851 
L 88.182551 -44.845448 
L 86.790644 -45.016827 
L 85.398737 -45.41879 
L 84.006829 -45.45865 
L 82.614922 -45.025769 
L 81.223015 -45.390791 
L 79.831107 -45.674922 
L 78.4392 -45.258694 
L 77.047293 -45.340911 
L 75.655385 -45.442448 
L 74.263478 -44.890773 
L 72.871571 -45.150744 
L 71.479663 -45.282619 
L 70.087756 -44.844384 
L 68.695849 -44.643056 
L 67.303942 -45.144448 
L 65.912034 -44.713612 
L 64.520127 -45.236318 
L 63.12822 -44.869795 
L 61.736312 -44.464075 
L 60.344405 -44.188637 
L 58.952498 -44.281574 
L 57.56059 -44.478292 
L 56.168683 -44.472144 
L 54.776776 -44.332334 
L 53.384868 -44.895053 
L 51.992961 -44.699785 
L 50.601054 -44.142809 
L 49.209147 -44.331847 
L 47.817239 -44.381606 
L 46.425332 -44.697447 
L 45.033425 -43.699161 
L 43.641517 -43.143249 
L 42.24961 -43.285202 
L 40.857703 -43.984624 
z
" style="stroke: #0000ff; stroke-opacity: 0.2"/>
    </defs>
    <g clip-path="url(#pb0027575e3)">
     <use xlink:href="#mf1017cfb54" x="0" y="134.806076" style="fill: #0000ff; fill-opacity: 0.2; stroke: #0000ff; stroke-opacity: 0.2"/>
    </g>
   </g>
   <g id="FillBetweenPolyCollection_6">
    <defs>
     <path id="m63a10353ed" d="M 40.857703 -42.066507 
L 40.857703 -40.040513 
L 42.24961 -39.265099 
L 43.641517 -39.47324 
L 45.033425 -39.47602 
L 46.425332 -39.639068 
L 47.817239 -39.706169 
L 49.209147 -39.369381 
L 50.601054 -39.178805 
L 51.992961 -39.238076 
L 53.384868 -39.298603 
L 54.776776 -39.274268 
L 56.168683 -39.246603 
L 57.56059 -39.176622 
L 58.952498 -39.238317 
L 60.344405 -39.311901 
L 61.736312 -39.216453 
L 63.12822 -39.163495 
L 64.520127 -38.952245 
L 65.912034 -39.051728 
L 67.303942 -39.061161 
L 68.695849 -39.028123 
L 70.087756 -38.937059 
L 71.479663 -38.959517 
L 72.871571 -38.902262 
L 74.263478 -39.031321 
L 75.655385 -38.964719 
L 77.047293 -38.966432 
L 78.4392 -38.840445 
L 79.831107 -38.959447 
L 81.223015 -38.970226 
L 82.614922 -39.084671 
L 84.006829 -39.022481 
L 85.398737 -39.111741 
L 86.790644 -39.089385 
L 88.182551 -38.91659 
L 89.574458 -38.926431 
L 90.966366 -38.996541 
L 92.358273 -39.190256 
L 93.75018 -39.134614 
L 95.142088 -39.078378 
L 96.533995 -39.077092 
L 97.925902 -39.11072 
L 99.31781 -39.044766 
L 100.709717 -39.035912 
L 102.101624 -39.499041 
L 103.493532 -39.662963 
L 104.885439 -39.934891 
L 106.277346 -40.055939 
L 107.669253 -39.627652 
L 109.061161 -40.057522 
L 109.061161 -41.982309 
L 109.061161 -41.982309 
L 107.669253 -42.604012 
L 106.277346 -42.260078 
L 104.885439 -41.936255 
L 103.493532 -41.907154 
L 102.101624 -41.672061 
L 100.709717 -41.608626 
L 99.31781 -41.857837 
L 97.925902 -41.769914 
L 96.533995 -41.712513 
L 95.142088 -41.715603 
L 93.75018 -41.825213 
L 92.358273 -41.851731 
L 90.966366 -41.609534 
L 89.574458 -41.716434 
L 88.182551 -41.812412 
L 86.790644 -41.710042 
L 85.398737 -41.628306 
L 84.006829 -41.787742 
L 82.614922 -41.670828 
L 81.223015 -41.649846 
L 79.831107 -41.699988 
L 78.4392 -41.692151 
L 77.047293 -41.588502 
L 75.655385 -41.494974 
L 74.263478 -41.539928 
L 72.871571 -41.471526 
L 71.479663 -41.414029 
L 70.087756 -41.614248 
L 68.695849 -41.854069 
L 67.303942 -41.7764 
L 65.912034 -41.834984 
L 64.520127 -41.770428 
L 63.12822 -41.703148 
L 61.736312 -41.927135 
L 60.344405 -41.908179 
L 58.952498 -41.799768 
L 57.56059 -41.739737 
L 56.168683 -41.754925 
L 54.776776 -41.827567 
L 53.384868 -41.810034 
L 51.992961 -41.831727 
L 50.601054 -41.755887 
L 49.209147 -41.877144 
L 47.817239 -41.915466 
L 46.425332 -41.969964 
L 45.033425 -42.004314 
L 43.641517 -41.989869 
L 42.24961 -42.098467 
L 40.857703 -42.066507 
z
" style="stroke: #000000; stroke-opacity: 0.2"/>
    </defs>
    <g clip-path="url(#pb0027575e3)">
     <use xlink:href="#m63a10353ed" x="0" y="134.806076" style="fill-opacity: 0.2; stroke: #000000; stroke-opacity: 0.2"/>
    </g>
   </g>
   <g id="matplotlib.axis_5">
    <g id="xtick_5">
     <g id="line2d_28">
      <g>
       <use xlink:href="#mce73222334" x="38.505859" y="109.036981" style="stroke: #000000; stroke-width: 0.8"/>
      </g>
     </g>
     <g id="text_17">
      <!-- $\mathdefault{0}$ -->
      <g transform="translate(36.388768 121.571783) scale(0.08 -0.08)">
       <use xlink:href="#CMR17-30" transform="scale(0.996264)"/>
      </g>
     </g>
    </g>
    <g id="xtick_6">
     <g id="line2d_29">
      <g>
       <use xlink:href="#mce73222334" x="85.542727" y="109.036981" style="stroke: #000000; stroke-width: 0.8"/>
      </g>
     </g>
     <g id="text_18">
      <!-- $\mathdefault{2000}$ -->
      <g transform="translate(77.074361 121.571783) scale(0.08 -0.08)">
       <use xlink:href="#CMR17-32" transform="scale(0.996264)"/>
       <use xlink:href="#CMR17-30" transform="translate(45.690477 0) scale(0.996264)"/>
       <use xlink:href="#CMR17-30" transform="translate(91.380954 0) scale(0.996264)"/>
       <use xlink:href="#CMR17-30" transform="translate(137.071431 0) scale(0.996264)"/>
      </g>
     </g>
    </g>
    <g id="text_19">
     <!-- $N$ -->
     <g transform="translate(71.598728 129.656331) scale(0.08 -0.08)">
      <defs>
       <path id="CMMI12-4e" d="M 4736 3682 
C 4806 3956 4909 4147 5395 4166 
C 5414 4166 5491 4172 5491 4281 
C 5491 4352 5434 4352 5408 4352 
C 5280 4352 4954 4339 4826 4339 
L 4518 4339 
C 4429 4339 4314 4352 4224 4352 
C 4186 4352 4109 4352 4109 4230 
C 4109 4166 4160 4166 4205 4166 
C 4589 4153 4614 4007 4614 3892 
C 4614 3835 4608 3816 4589 3726 
L 3866 854 
L 2496 4243 
C 2451 4345 2445 4352 2304 4352 
L 1523 4352 
C 1395 4352 1338 4352 1338 4230 
C 1338 4166 1382 4166 1504 4166 
C 1536 4166 1914 4166 1914 4109 
C 1914 4096 1901 4045 1894 4026 
L 1043 650 
C 966 338 813 204 390 185 
C 358 185 294 179 294 64 
C 294 0 358 0 378 0 
C 506 0 832 12 960 12 
L 1267 12 
C 1357 12 1466 0 1555 0 
C 1600 0 1670 0 1670 121 
C 1670 179 1606 185 1581 185 
C 1370 191 1165 230 1165 459 
C 1165 510 1178 567 1190 618 
L 2054 4026 
C 2093 3962 2093 3949 2118 3892 
L 3642 115 
C 3674 38 3686 0 3744 0 
C 3808 0 3814 19 3840 128 
L 4736 3682 
z
" transform="scale(0.015625)"/>
      </defs>
      <use xlink:href="#CMMI12-4e" transform="scale(0.996264)"/>
     </g>
    </g>
   </g>
   <g id="matplotlib.axis_6">
    <g id="ytick_6">
     <g id="line2d_30">
      <g>
       <use xlink:href="#me9abf9ce09" x="37.44753" y="109.036981" style="stroke: #000000; stroke-width: 0.8"/>
      </g>
     </g>
     <g id="text_20">
      <!-- $10^{-2}$ -->
      <g transform="translate(12.570112 111.804382) scale(0.08 -0.08)">
       <use xlink:href="#CMR17-31" transform="scale(0.996264)"/>
       <use xlink:href="#CMR17-30" transform="translate(45.690477 0) scale(0.996264)"/>
       <use xlink:href="#CMSY10-0" transform="translate(91.380954 36.153639) scale(0.697382)"/>
       <use xlink:href="#CMR17-32" transform="translate(145.621947 36.153639) scale(0.697382)"/>
      </g>
     </g>
    </g>
    <g id="ytick_7">
     <g id="line2d_31">
      <g>
       <use xlink:href="#me9abf9ce09" x="37.44753" y="91.087282" style="stroke: #000000; stroke-width: 0.8"/>
      </g>
     </g>
     <g id="text_21">
      <!-- $10^{-1}$ -->
      <g transform="translate(12.570112 93.854683) scale(0.08 -0.08)">
       <use xlink:href="#CMR17-31" transform="scale(0.996264)"/>
       <use xlink:href="#CMR17-30" transform="translate(45.690477 0) scale(0.996264)"/>
       <use xlink:href="#CMSY10-0" transform="translate(91.380954 36.153639) scale(0.697382)"/>
       <use xlink:href="#CMR17-31" transform="translate(145.621947 36.153639) scale(0.697382)"/>
      </g>
     </g>
    </g>
    <g id="ytick_8">
     <g id="line2d_32">
      <g>
       <use xlink:href="#me9abf9ce09" x="37.44753" y="73.137582" style="stroke: #000000; stroke-width: 0.8"/>
      </g>
     </g>
     <g id="text_22">
      <!-- $10^{0}$ -->
      <g transform="translate(18.326252 75.904983) scale(0.08 -0.08)">
       <use xlink:href="#CMR17-31" transform="scale(0.996264)"/>
       <use xlink:href="#CMR17-30" transform="translate(45.690477 0) scale(0.996264)"/>
       <use xlink:href="#CMR17-30" transform="translate(91.380954 36.153639) scale(0.697382)"/>
      </g>
     </g>
    </g>
    <g id="text_23">
     <!-- Time ($s$) -->
     <g transform="translate(9.577584 107.394416) rotate(-90) scale(0.08 -0.08)">
      <use xlink:href="#CMR17-54" transform="scale(0.996264)"/>
      <use xlink:href="#CMR17-69" transform="translate(66.509881 0) scale(0.996264)"/>
      <use xlink:href="#CMR17-6d" transform="translate(91.380939 0) scale(0.996264)"/>
      <use xlink:href="#CMR17-65" transform="translate(168.300529 0) scale(0.996264)"/>
      <use xlink:href="#CMR17-28" transform="translate(238.862156 0) scale(0.996264)"/>
      <use xlink:href="#CMMI12-73" transform="translate(274.142924 0) scale(0.996264)"/>
      <use xlink:href="#CMR17-29" transform="translate(320.092971 0) scale(0.996264)"/>
     </g>
    </g>
   </g>
   <g id="line2d_33">
    <path d="M 40.857703 93.90903 
L 42.24961 94.917376 
L 43.641517 94.993976 
L 45.033425 94.75225 
L 46.425332 94.033083 
L 47.817239 93.953222 
L 49.209147 93.888285 
L 50.601054 94.050368 
L 51.992961 93.630244 
L 53.384868 93.604388 
L 54.776776 93.847614 
L 56.168683 93.916431 
L 57.56059 93.790205 
L 58.952498 93.753432 
L 60.344405 93.829156 
L 61.736312 93.642914 
L 63.12822 93.44717 
L 64.520127 93.174303 
L 65.912034 93.430922 
L 67.303942 93.182846 
L 68.695849 93.395924 
L 70.087756 93.265902 
L 71.479663 93.182281 
L 72.871571 93.129124 
L 74.263478 93.177408 
L 75.655385 92.919479 
L 77.047293 92.945965 
L 78.4392 93.053167 
L 79.831107 92.751744 
L 81.223015 92.996289 
L 82.614922 93.247422 
L 84.006829 92.866342 
L 85.398737 92.870754 
L 86.790644 93.181805 
L 88.182551 93.27367 
L 89.574458 93.045699 
L 90.966366 93.027795 
L 92.358273 92.416097 
L 93.75018 92.601138 
L 95.142088 92.716093 
L 96.533995 92.468296 
L 97.925902 92.243165 
L 99.31781 92.338661 
L 100.709717 92.209654 
L 102.101624 92.185197 
L 103.493532 92.36735 
L 104.885439 92.139664 
L 106.277346 92.320982 
L 107.669253 92.114214 
L 109.061161 92.09792 
" clip-path="url(#pb0027575e3)" style="fill: none; stroke: #0000ff; stroke-width: 1.5; stroke-linecap: square"/>
   </g>
   <g id="line2d_34">
    <path d="M 40.857703 93.686933 
L 42.24961 93.996267 
L 43.641517 93.973404 
L 45.033425 93.963855 
L 46.425332 93.914764 
L 47.817239 93.917253 
L 49.209147 94.082404 
L 50.601054 94.232718 
L 51.992961 94.163801 
L 53.384868 94.151055 
L 54.776776 94.151085 
L 56.168683 94.204858 
L 57.56059 94.243025 
L 58.952498 94.182298 
L 60.344405 94.088446 
L 61.736312 94.117049 
L 63.12822 94.269786 
L 64.520127 94.318075 
L 65.912034 94.239159 
L 67.303942 94.26967 
L 68.695849 94.23762 
L 70.087756 94.416055 
L 71.479663 94.523095 
L 72.871571 94.513809 
L 74.263478 94.419974 
L 75.655385 94.474018 
L 77.047293 94.418881 
L 78.4392 94.410099 
L 79.831107 94.356542 
L 81.223015 94.381466 
L 82.614922 94.32157 
L 84.006829 94.278988 
L 85.398737 94.33494 
L 86.790644 94.296752 
L 88.182551 94.307875 
L 89.574458 94.360486 
L 90.966366 94.394065 
L 92.358273 94.172047 
L 93.75018 94.210652 
L 95.142088 94.298091 
L 96.533995 94.30043 
L 97.925902 94.252917 
L 99.31781 94.228567 
L 100.709717 94.378152 
L 102.101624 94.145052 
L 103.493532 93.940537 
L 104.885439 93.806452 
L 106.277346 93.570424 
L 107.669253 93.549049 
L 109.061161 93.726904 
" clip-path="url(#pb0027575e3)" style="fill: none; stroke: #000000; stroke-width: 1.5; stroke-linecap: square"/>
   </g>
   <g id="line2d_35">
    <path d="M 40.857703 100.33921 
L 42.24961 99.723283 
L 43.641517 99.838992 
L 45.033425 100.86722 
L 46.425332 99.265902 
L 47.817239 99.962941 
L 49.209147 100.323513 
L 50.601054 99.1507 
L 51.992961 98.547989 
L 53.384868 99.264522 
L 54.776776 99.709228 
L 56.168683 98.420016 
L 57.56059 98.93494 
L 58.952498 99.379331 
L 60.344405 99.071521 
L 61.736312 98.223412 
L 63.12822 98.523393 
L 64.520127 98.222762 
L 65.912034 97.75046 
L 67.303942 99.963289 
L 68.695849 98.032188 
L 70.087756 97.8672 
L 71.479663 98.63726 
L 72.871571 97.422393 
L 74.263478 97.392707 
L 75.655385 98.319731 
L 77.047293 97.471264 
L 78.4392 97.844746 
L 79.831107 98.224433 
L 81.223015 98.030602 
L 82.614922 97.482106 
L 84.006829 97.752864 
L 85.398737 97.662181 
L 86.790644 98.225269 
L 88.182551 97.816274 
L 89.574458 97.494484 
L 90.966366 97.661231 
L 92.358273 97.311917 
L 93.75018 97.571004 
L 95.142088 97.052131 
L 96.533995 97.124088 
L 97.925902 96.951871 
L 99.31781 97.750723 
L 100.709717 97.303785 
L 102.101624 97.302176 
L 103.493532 97.483119 
L 104.885439 96.883981 
L 106.277346 96.808851 
L 107.669253 97.305312 
L 109.061161 96.56171 
" clip-path="url(#pb0027575e3)" style="fill: none; stroke-dasharray: 5.55,2.4; stroke-dashoffset: 0; stroke: #0000ff; stroke-width: 1.5"/>
   </g>
   <g id="line2d_36">
    <path d="M 40.857703 87.505207 
L 42.24961 86.828271 
L 43.641517 88.621051 
L 45.033425 87.278687 
L 46.425332 86.840679 
L 47.817239 87.575794 
L 49.209147 87.205587 
L 50.601054 87.7281 
L 51.992961 87.289846 
L 53.384868 87.333233 
L 54.776776 87.759861 
L 56.168683 86.629024 
L 57.56059 87.868448 
L 58.952498 87.947547 
L 60.344405 87.617733 
L 61.736312 86.776429 
L 63.12822 87.19818 
L 64.520127 86.449378 
L 65.912034 86.731273 
L 67.303942 86.930437 
L 68.695849 87.378479 
L 70.087756 87.400558 
L 71.479663 86.669908 
L 72.871571 86.401119 
L 74.263478 86.892007 
L 75.655385 86.594376 
L 77.047293 87.02624 
L 78.4392 87.293227 
L 79.831107 86.592089 
L 81.223015 86.83023 
L 82.614922 86.989929 
L 84.006829 86.562586 
L 85.398737 86.324624 
L 86.790644 87.472209 
L 88.182551 87.447957 
L 89.574458 87.551595 
L 90.966366 87.648974 
L 92.358273 86.336992 
L 93.75018 86.264113 
L 95.142088 87.479682 
L 96.533995 86.934986 
L 97.925902 86.333103 
L 99.31781 85.61818 
L 100.709717 85.737556 
L 102.101624 86.121576 
L 103.493532 85.279046 
L 104.885439 86.565218 
L 106.277346 86.928071 
L 107.669253 86.335436 
L 109.061161 86.321819 
" clip-path="url(#pb0027575e3)" style="fill: none; stroke-dasharray: 1.5,2.475; stroke-dashoffset: 0; stroke: #0000ff; stroke-width: 1.5"/>
   </g>
   <g id="line2d_37">
    <path d="M 40.857703 95.068695 
L 42.24961 95.907631 
L 43.641517 95.568464 
L 45.033425 95.469428 
L 46.425332 95.520528 
L 47.817239 95.394305 
L 49.209147 95.649596 
L 50.601054 95.607365 
L 51.992961 95.60189 
L 53.384868 95.548016 
L 54.776776 95.684747 
L 56.168683 95.671886 
L 57.56059 95.60199 
L 58.952498 95.586053 
L 60.344405 95.548773 
L 61.736312 95.612345 
L 63.12822 95.615201 
L 64.520127 95.599834 
L 65.912034 95.600199 
L 67.303942 95.570809 
L 68.695849 95.532222 
L 70.087756 95.602189 
L 71.479663 95.531137 
L 72.871571 95.601957 
L 74.263478 95.741502 
L 75.655385 95.573981 
L 77.047293 95.600796 
L 78.4392 95.600431 
L 79.831107 95.608593 
L 81.223015 95.601194 
L 82.614922 95.535773 
L 84.006829 95.67597 
L 85.398737 95.580097 
L 86.790644 95.601194 
L 88.182551 95.60189 
L 89.574458 95.601658 
L 90.966366 95.53209 
L 92.358273 95.554474 
L 93.75018 95.671551 
L 95.142088 95.645026 
L 96.533995 95.596585 
L 97.925902 95.585689 
L 99.31781 95.599867 
L 100.709717 95.671518 
L 102.101624 95.601194 
L 103.493532 95.394822 
L 104.885439 95.393595 
L 106.277346 95.059687 
L 107.669253 95.113394 
L 109.061161 94.867236 
" clip-path="url(#pb0027575e3)" style="fill: none; stroke-dasharray: 5.55,2.4; stroke-dashoffset: 0; stroke: #000000; stroke-width: 1.5"/>
   </g>
   <g id="line2d_38">
    <path d="M 40.857703 92.103568 
L 42.24961 91.917921 
L 43.641517 91.85253 
L 45.033425 91.988099 
L 46.425332 92.170553 
L 47.817239 91.784614 
L 49.209147 92.225913 
L 50.601054 91.495277 
L 51.992961 91.932573 
L 53.384868 92.087218 
L 54.776776 91.857883 
L 56.168683 92.12836 
L 57.56059 92.153124 
L 58.952498 91.858253 
L 60.344405 92.189733 
L 61.736312 92.193202 
L 63.12822 92.165792 
L 64.520127 91.440302 
L 65.912034 91.897479 
L 67.303942 92.289862 
L 68.695849 92.085443 
L 70.087756 92.109266 
L 71.479663 92.345795 
L 72.871571 92.196737 
L 74.263478 92.227914 
L 75.655385 92.204177 
L 77.047293 91.646836 
L 78.4392 92.142668 
L 79.831107 92.277078 
L 81.223015 92.253774 
L 82.614922 92.217508 
L 84.006829 92.127404 
L 85.398737 92.3116 
L 86.790644 92.310035 
L 88.182551 91.945323 
L 89.574458 92.210592 
L 90.966366 92.281929 
L 92.358273 92.165749 
L 93.75018 92.11764 
L 95.142088 92.165045 
L 96.533995 92.038498 
L 97.925902 91.382294 
L 99.31781 91.737461 
L 100.709717 92.300995 
L 102.101624 91.987911 
L 103.493532 92.146308 
L 104.885439 91.988683 
L 106.277346 91.637815 
L 107.669253 89.059459 
L 109.061161 91.965683 
" clip-path="url(#pb0027575e3)" style="fill: none; stroke-dasharray: 1.5,2.475; stroke-dashoffset: 0; stroke: #000000; stroke-width: 1.5"/>
   </g>
   <g id="patch_15">
    <path d="M 37.44753 109.036981 
L 37.44753 73.137582 
" style="fill: none; stroke: #000000; stroke-width: 0.8; stroke-linejoin: miter; stroke-linecap: square"/>
   </g>
   <g id="patch_16">
    <path d="M 112.471334 109.036981 
L 112.471334 73.137582 
" style="fill: none; stroke: #000000; stroke-width: 0.8; stroke-linejoin: miter; stroke-linecap: square"/>
   </g>
   <g id="patch_17">
    <path d="M 37.44753 109.036981 
L 112.471334 109.036981 
" style="fill: none; stroke: #000000; stroke-width: 0.8; stroke-linejoin: miter; stroke-linecap: square"/>
   </g>
   <g id="patch_18">
    <path d="M 37.44753 73.137582 
L 112.471334 73.137582 
" style="fill: none; stroke: #000000; stroke-width: 0.8; stroke-linejoin: miter; stroke-linecap: square"/>
   </g>
   <g id="text_24">
    <!-- $\mathbf{c)}$ -->
    <g transform="translate(26.063768 67.016623) scale(0.08 -0.08)">
     <defs>
      <path id="CMBX12-63" d="M 2995 724 
C 2995 801 2925 801 2861 801 
C 2758 801 2752 795 2720 718 
C 2675 596 2502 166 1914 166 
C 1011 166 1011 1141 1011 1430 
C 1011 1808 1018 2649 1856 2649 
C 1901 2649 2278 2636 2278 2604 
C 2278 2598 2272 2591 2259 2585 
C 2240 2566 2157 2469 2157 2309 
C 2157 2039 2374 1930 2534 1930 
C 2669 1930 2912 2014 2912 2315 
C 2912 2841 2176 2880 1830 2880 
C 691 2880 243 2136 243 1398 
C 243 525 851 -64 1792 -64 
C 2797 -64 2995 679 2995 724 
z
" transform="scale(0.015625)"/>
     </defs>
     <use xlink:href="#CMBX12-63" transform="scale(0.996264)"/>
     <use xlink:href="#CMR17-29" transform="translate(49.8132 0) scale(0.996264)"/>
    </g>
   </g>
  </g>
  <g id="axes_4">
   <g id="patch_19">
    <path d="M 138.729665 109.036981 
L 213.753469 109.036981 
L 213.753469 73.137582 
L 138.729665 73.137582 
z
" style="fill: #ffffff"/>
   </g>
   <g id="FillBetweenPolyCollection_7">
    <defs>
     <path id="m5d019a6de2" d="M 142.139838 -46.394528 
L 142.139838 -42.974205 
L 143.531745 -43.518272 
L 144.923653 -42.943499 
L 146.31556 -43.830014 
L 147.707467 -43.865457 
L 149.099375 -44.815253 
L 150.491282 -44.842616 
L 151.883189 -45.035154 
L 153.275096 -45.224502 
L 154.667004 -44.91951 
L 156.058911 -44.778741 
L 157.450818 -44.832046 
L 158.842726 -44.420473 
L 160.234633 -44.649087 
L 161.62654 -44.581344 
L 163.018448 -45.169022 
L 164.410355 -45.198952 
L 165.802262 -44.597291 
L 167.19417 -44.620427 
L 168.586077 -44.771474 
L 169.977984 -45.286575 
L 171.369891 -44.92279 
L 172.761799 -44.545985 
L 174.153706 -44.36788 
L 175.545613 -44.552312 
L 176.937521 -44.224309 
L 178.329428 -44.442954 
L 179.721335 -44.436449 
L 181.113243 -44.465477 
L 182.50515 -44.249137 
L 183.897057 -44.699687 
L 185.288965 -43.881687 
L 186.680872 -44.812284 
L 188.072779 -44.373152 
L 189.464686 -44.473938 
L 190.856594 -44.472763 
L 192.248501 -44.703103 
L 193.640408 -44.059578 
L 195.032316 -45.029778 
L 196.424223 -43.904008 
L 197.81613 -44.667279 
L 199.208038 -44.43677 
L 200.599945 -44.550805 
L 201.991852 -44.228467 
L 203.38376 -44.246885 
L 204.775667 -43.950453 
L 206.167574 -44.268542 
L 207.559481 -44.206842 
L 208.951389 -44.186997 
L 210.343296 -44.353433 
L 210.343296 -46.335382 
L 210.343296 -46.335382 
L 208.951389 -46.673141 
L 207.559481 -46.462891 
L 206.167574 -46.112296 
L 204.775667 -46.279779 
L 203.38376 -46.368695 
L 201.991852 -46.378503 
L 200.599945 -46.703381 
L 199.208038 -46.282766 
L 197.81613 -46.443584 
L 196.424223 -46.782416 
L 195.032316 -46.670992 
L 193.640408 -46.938903 
L 192.248501 -46.676044 
L 190.856594 -46.507356 
L 189.464686 -47.074375 
L 188.072779 -46.480083 
L 186.680872 -46.528436 
L 185.288965 -46.361986 
L 183.897057 -46.912343 
L 182.50515 -46.395582 
L 181.113243 -46.70032 
L 179.721335 -46.650809 
L 178.329428 -46.855954 
L 176.937521 -47.01397 
L 175.545613 -46.724186 
L 174.153706 -47.050357 
L 172.761799 -46.435626 
L 171.369891 -46.781679 
L 169.977984 -46.712029 
L 168.586077 -46.511012 
L 167.19417 -46.825779 
L 165.802262 -46.741597 
L 164.410355 -46.827211 
L 163.018448 -47.005283 
L 161.62654 -46.838872 
L 160.234633 -46.799693 
L 158.842726 -46.880828 
L 157.450818 -46.869657 
L 156.058911 -46.885942 
L 154.667004 -46.860315 
L 153.275096 -46.706547 
L 151.883189 -47.002019 
L 150.491282 -46.817163 
L 149.099375 -47.053521 
L 147.707467 -46.744706 
L 146.31556 -46.31347 
L 144.923653 -45.432319 
L 143.531745 -46.619959 
L 142.139838 -46.394528 
z
" style="stroke: #0000ff; stroke-opacity: 0.2"/>
    </defs>
    <g clip-path="url(#p62b0ade35d)">
     <use xlink:href="#m5d019a6de2" x="0" y="134.806076" style="fill: #0000ff; fill-opacity: 0.2; stroke: #0000ff; stroke-opacity: 0.2"/>
    </g>
   </g>
   <g id="FillBetweenPolyCollection_8">
    <defs>
     <path id="m06ee2cea47" d="M 142.139838 -41.781401 
L 142.139838 -41.146178 
L 143.531745 -41.280758 
L 144.923653 -41.265104 
L 146.31556 -41.310558 
L 147.707467 -41.268365 
L 149.099375 -41.280986 
L 150.491282 -41.24868 
L 151.883189 -41.309616 
L 153.275096 -41.323674 
L 154.667004 -41.160969 
L 156.058911 -41.229357 
L 157.450818 -41.111378 
L 158.842726 -41.139971 
L 160.234633 -40.93831 
L 161.62654 -40.90934 
L 163.018448 -41.036293 
L 164.410355 -41.104325 
L 165.802262 -41.354664 
L 167.19417 -41.331893 
L 168.586077 -41.319462 
L 169.977984 -41.304096 
L 171.369891 -41.245925 
L 172.761799 -41.269135 
L 174.153706 -41.076474 
L 175.545613 -41.121618 
L 176.937521 -41.215757 
L 178.329428 -41.139397 
L 179.721335 -41.355311 
L 181.113243 -41.408445 
L 182.50515 -41.389182 
L 183.897057 -41.343419 
L 185.288965 -41.367167 
L 186.680872 -41.175385 
L 188.072779 -41.131232 
L 189.464686 -40.983552 
L 190.856594 -40.984973 
L 192.248501 -40.823708 
L 193.640408 -40.798343 
L 195.032316 -40.869789 
L 196.424223 -40.895359 
L 197.81613 -40.888769 
L 199.208038 -40.95206 
L 200.599945 -41.03216 
L 201.991852 -41.086136 
L 203.38376 -41.072181 
L 204.775667 -41.100684 
L 206.167574 -41.160311 
L 207.559481 -41.175692 
L 208.951389 -41.175194 
L 210.343296 -41.118889 
L 210.343296 -41.751722 
L 210.343296 -41.751722 
L 208.951389 -41.745526 
L 207.559481 -41.772409 
L 206.167574 -41.727892 
L 204.775667 -41.705414 
L 203.38376 -41.721512 
L 201.991852 -41.642391 
L 200.599945 -41.689625 
L 199.208038 -41.559322 
L 197.81613 -41.597642 
L 196.424223 -41.665347 
L 195.032316 -41.648302 
L 193.640408 -41.616461 
L 192.248501 -41.652544 
L 190.856594 -41.609533 
L 189.464686 -41.644447 
L 188.072779 -41.845724 
L 186.680872 -41.672463 
L 185.288965 -41.776257 
L 183.897057 -41.764208 
L 182.50515 -41.764802 
L 181.113243 -41.752283 
L 179.721335 -41.829027 
L 178.329428 -41.86007 
L 176.937521 -41.892338 
L 175.545613 -41.966441 
L 174.153706 -41.964934 
L 172.761799 -41.870984 
L 171.369891 -41.950483 
L 169.977984 -41.819631 
L 168.586077 -41.768665 
L 167.19417 -41.799811 
L 165.802262 -41.758003 
L 164.410355 -41.703502 
L 163.018448 -41.82223 
L 161.62654 -41.889254 
L 160.234633 -41.75742 
L 158.842726 -41.74085 
L 157.450818 -41.66216 
L 156.058911 -41.807273 
L 154.667004 -41.981441 
L 153.275096 -41.794491 
L 151.883189 -41.782286 
L 150.491282 -41.783562 
L 149.099375 -41.718967 
L 147.707467 -41.713096 
L 146.31556 -41.710298 
L 144.923653 -41.833887 
L 143.531745 -41.798991 
L 142.139838 -41.781401 
z
" style="stroke: #000000; stroke-opacity: 0.2"/>
    </defs>
    <g clip-path="url(#p62b0ade35d)">
     <use xlink:href="#m06ee2cea47" x="0" y="134.806076" style="fill-opacity: 0.2; stroke: #000000; stroke-opacity: 0.2"/>
    </g>
   </g>
   <g id="matplotlib.axis_7">
    <g id="xtick_7">
     <g id="line2d_39">
      <g>
       <use xlink:href="#mce73222334" x="139.787995" y="109.036981" style="stroke: #000000; stroke-width: 0.8"/>
      </g>
     </g>
     <g id="text_25">
      <!-- $\mathdefault{0}$ -->
      <g transform="translate(137.670903 121.571783) scale(0.08 -0.08)">
       <use xlink:href="#CMR17-30" transform="scale(0.996264)"/>
      </g>
     </g>
    </g>
    <g id="xtick_8">
     <g id="line2d_40">
      <g>
       <use xlink:href="#mce73222334" x="186.824862" y="109.036981" style="stroke: #000000; stroke-width: 0.8"/>
      </g>
     </g>
     <g id="text_26">
      <!-- $\mathdefault{2000}$ -->
      <g transform="translate(178.356497 121.571783) scale(0.08 -0.08)">
       <use xlink:href="#CMR17-32" transform="scale(0.996264)"/>
       <use xlink:href="#CMR17-30" transform="translate(45.690477 0) scale(0.996264)"/>
       <use xlink:href="#CMR17-30" transform="translate(91.380954 0) scale(0.996264)"/>
       <use xlink:href="#CMR17-30" transform="translate(137.071431 0) scale(0.996264)"/>
      </g>
     </g>
    </g>
    <g id="text_27">
     <!-- $N$ -->
     <g transform="translate(172.880863 129.656331) scale(0.08 -0.08)">
      <use xlink:href="#CMMI12-4e" transform="scale(0.996264)"/>
     </g>
    </g>
   </g>
   <g id="matplotlib.axis_8">
    <g id="ytick_9">
     <g id="line2d_41">
      <g>
       <use xlink:href="#me9abf9ce09" x="138.729665" y="109.036981" style="stroke: #000000; stroke-width: 0.8"/>
      </g>
     </g>
     <g id="text_28">
      <!-- $10^{-2}$ -->
      <g transform="translate(113.852247 111.804382) scale(0.08 -0.08)">
       <use xlink:href="#CMR17-31" transform="scale(0.996264)"/>
       <use xlink:href="#CMR17-30" transform="translate(45.690477 0) scale(0.996264)"/>
       <use xlink:href="#CMSY10-0" transform="translate(91.380954 36.153639) scale(0.697382)"/>
       <use xlink:href="#CMR17-32" transform="translate(145.621947 36.153639) scale(0.697382)"/>
      </g>
     </g>
    </g>
    <g id="ytick_10">
     <g id="line2d_42">
      <g>
       <use xlink:href="#me9abf9ce09" x="138.729665" y="91.087282" style="stroke: #000000; stroke-width: 0.8"/>
      </g>
     </g>
     <g id="text_29">
      <!-- $10^{-1}$ -->
      <g transform="translate(113.852247 93.854683) scale(0.08 -0.08)">
       <use xlink:href="#CMR17-31" transform="scale(0.996264)"/>
       <use xlink:href="#CMR17-30" transform="translate(45.690477 0) scale(0.996264)"/>
       <use xlink:href="#CMSY10-0" transform="translate(91.380954 36.153639) scale(0.697382)"/>
       <use xlink:href="#CMR17-31" transform="translate(145.621947 36.153639) scale(0.697382)"/>
      </g>
     </g>
    </g>
    <g id="ytick_11">
     <g id="line2d_43">
      <g>
       <use xlink:href="#me9abf9ce09" x="138.729665" y="73.137582" style="stroke: #000000; stroke-width: 0.8"/>
      </g>
     </g>
     <g id="text_30">
      <!-- $10^{0}$ -->
      <g transform="translate(119.608387 75.904983) scale(0.08 -0.08)">
       <use xlink:href="#CMR17-31" transform="scale(0.996264)"/>
       <use xlink:href="#CMR17-30" transform="translate(45.690477 0) scale(0.996264)"/>
       <use xlink:href="#CMR17-30" transform="translate(91.380954 36.153639) scale(0.697382)"/>
      </g>
     </g>
    </g>
   </g>
   <g id="line2d_44">
    <path d="M 142.139838 89.935608 
L 143.531745 89.583704 
L 144.923653 90.519262 
L 146.31556 89.635853 
L 147.707467 89.368812 
L 149.099375 88.791631 
L 150.491282 88.913836 
L 151.883189 88.725621 
L 153.275096 88.805384 
L 154.667004 88.85592 
L 156.058911 88.90275 
L 157.450818 88.888838 
L 158.842726 89.058761 
L 160.234633 89.007757 
L 161.62654 89.014531 
L 163.018448 88.664981 
L 164.410355 88.750559 
L 165.802262 89.063134 
L 167.19417 89.005244 
L 168.586077 89.116412 
L 169.977984 88.774238 
L 171.369891 88.898564 
L 172.761799 89.258154 
L 174.153706 88.98214 
L 175.545613 89.092433 
L 176.937521 89.062809 
L 178.329428 89.063628 
L 179.721335 89.184084 
L 181.113243 89.143364 
L 182.50515 89.410072 
L 183.897057 88.921819 
L 185.288965 89.586008 
L 186.680872 89.088585 
L 188.072779 89.308493 
L 189.464686 88.923986 
L 190.856594 89.249826 
L 192.248501 89.054253 
L 193.640408 89.174646 
L 195.032316 88.91258 
L 196.424223 89.330759 
L 197.81613 89.200159 
L 199.208038 89.391793 
L 200.599945 89.104919 
L 201.991852 89.4287 
L 203.38376 89.426317 
L 204.775667 89.60428 
L 206.167574 89.561274 
L 207.559481 89.389879 
L 208.951389 89.277314 
L 210.343296 89.39885 
" clip-path="url(#p62b0ade35d)" style="fill: none; stroke: #0000ff; stroke-width: 1.5; stroke-linecap: square"/>
   </g>
   <g id="line2d_45">
    <path d="M 142.139838 93.335819 
L 143.531745 93.261896 
L 144.923653 93.251395 
L 146.31556 93.293087 
L 147.707467 93.312175 
L 149.099375 93.303024 
L 150.491282 93.285369 
L 151.883189 93.256543 
L 153.275096 93.24344 
L 154.667004 93.224082 
L 156.058911 93.282407 
L 157.450818 93.414444 
L 158.842726 93.359878 
L 160.234633 93.447457 
L 161.62654 93.391392 
L 163.018448 93.366914 
L 164.410355 93.396407 
L 165.802262 93.247135 
L 167.19417 93.236714 
L 168.586077 93.258778 
L 169.977984 93.239952 
L 171.369891 93.199915 
L 172.761799 93.23021 
L 174.153706 93.272722 
L 175.545613 93.250608 
L 176.937521 93.244691 
L 178.329428 93.298018 
L 179.721335 93.210309 
L 181.113243 93.223816 
L 182.50515 93.226822 
L 183.897057 93.249424 
L 185.288965 93.231681 
L 186.680872 93.378191 
L 188.072779 93.309415 
L 189.464686 93.485075 
L 190.856594 93.50257 
L 192.248501 93.55694 
L 193.640408 93.587947 
L 195.032316 93.537317 
L 196.424223 93.516221 
L 197.81613 93.554816 
L 199.208038 93.544474 
L 200.599945 93.438254 
L 201.991852 93.436852 
L 203.38376 93.402471 
L 204.775667 93.397165 
L 206.167574 93.35681 
L 207.559481 93.326318 
L 208.951389 93.340501 
L 210.343296 93.364351 
" clip-path="url(#p62b0ade35d)" style="fill: none; stroke: #000000; stroke-width: 1.5; stroke-linecap: square"/>
   </g>
   <g id="line2d_46">
    <path d="M 142.139838 94.681839 
L 143.531745 94.085246 
L 144.923653 94.200381 
L 146.31556 92.580537 
L 147.707467 92.812079 
L 149.099375 92.617722 
L 150.491282 90.855817 
L 151.883189 90.963638 
L 153.275096 90.258137 
L 154.667004 90.974586 
L 156.058911 91.60269 
L 157.450818 92.303145 
L 158.842726 94.319941 
L 160.234633 96.236461 
L 161.62654 95.787458 
L 163.018448 90.838119 
L 164.410355 90.666122 
L 165.802262 92.211108 
L 167.19417 91.201476 
L 168.586077 91.847201 
L 169.977984 90.45616 
L 171.369891 92.675793 
L 172.761799 92.481851 
L 174.153706 96.317837 
L 175.545613 94.201157 
L 176.937521 97.25804 
L 178.329428 94.682693 
L 179.721335 92.579907 
L 181.113243 92.48563 
L 182.50515 92.15387 
L 183.897057 93.018309 
L 185.288965 92.66566 
L 186.680872 91.024407 
L 188.072779 91.43966 
L 189.464686 92.850994 
L 190.856594 92.112806 
L 192.248501 91.730655 
L 193.640408 93.014119 
L 195.032316 90.742208 
L 196.424223 93.373876 
L 197.81613 91.442227 
L 199.208038 91.902388 
L 200.599945 91.09696 
L 201.991852 92.274221 
L 203.38376 92.316125 
L 204.775667 91.815631 
L 206.167574 91.200911 
L 207.559481 92.064642 
L 208.951389 93.061812 
L 210.343296 91.131406 
" clip-path="url(#p62b0ade35d)" style="fill: none; stroke-dasharray: 5.55,2.4; stroke-dashoffset: 0; stroke: #0000ff; stroke-width: 1.5"/>
   </g>
   <g id="line2d_47">
    <path d="M 142.139838 86.930862 
L 143.531745 87.559984 
L 144.923653 88.162844 
L 146.31556 87.538522 
L 147.707467 87.009159 
L 149.099375 86.862041 
L 150.491282 87.263411 
L 151.883189 86.664553 
L 153.275096 87.252448 
L 154.667004 87.055216 
L 156.058911 87.464954 
L 157.450818 87.150701 
L 158.842726 87.152294 
L 160.234633 87.617911 
L 161.62654 87.128121 
L 163.018448 87.196454 
L 164.410355 86.675109 
L 165.802262 87.516426 
L 167.19417 86.887299 
L 168.586077 87.562668 
L 169.977984 87.634829 
L 171.369891 87.105505 
L 172.761799 87.525624 
L 174.153706 87.226683 
L 175.545613 87.257336 
L 176.937521 87.53481 
L 178.329428 87.367434 
L 179.721335 86.911889 
L 181.113243 87.23491 
L 182.50515 87.712582 
L 183.897057 87.20718 
L 185.288965 87.699682 
L 186.680872 87.26604 
L 188.072779 87.377024 
L 189.464686 86.369558 
L 190.856594 87.379415 
L 192.248501 87.637671 
L 193.640408 86.455634 
L 195.032316 87.634782 
L 196.424223 86.675415 
L 197.81613 87.427487 
L 199.208038 87.858161 
L 200.599945 87.216518 
L 201.991852 87.593606 
L 203.38376 87.658689 
L 204.775667 87.772618 
L 206.167574 87.88619 
L 207.559481 87.200009 
L 208.951389 86.847311 
L 210.343296 87.341206 
" clip-path="url(#p62b0ade35d)" style="fill: none; stroke-dasharray: 1.5,2.475; stroke-dashoffset: 0; stroke: #0000ff; stroke-width: 1.5"/>
   </g>
   <g id="line2d_48">
    <path d="M 142.139838 94.091556 
L 143.531745 94.129685 
L 144.923653 93.917115 
L 146.31556 93.885862 
L 147.707467 93.887618 
L 149.099375 94.010524 
L 150.491282 94.063353 
L 151.883189 93.916767 
L 153.275096 93.875463 
L 154.667004 93.905794 
L 156.058911 93.945034 
L 157.450818 93.960146 
L 158.842726 94.120464 
L 160.234633 95.531433 
L 161.62654 95.760265 
L 163.018448 94.80288 
L 164.410355 94.068065 
L 165.802262 93.773936 
L 167.19417 93.877403 
L 168.586077 93.869778 
L 169.977984 93.860063 
L 171.369891 93.967995 
L 172.761799 94.029043 
L 174.153706 95.597779 
L 175.545613 95.462193 
L 176.937521 94.918839 
L 178.329428 95.258501 
L 179.721335 93.966731 
L 181.113243 93.668278 
L 182.50515 93.758081 
L 183.897057 93.95754 
L 185.288965 93.749107 
L 186.680872 93.971384 
L 188.072779 93.999877 
L 189.464686 93.917516 
L 190.856594 93.982181 
L 192.248501 95.17058 
L 193.640408 95.46304 
L 195.032316 94.931002 
L 196.424223 94.979814 
L 197.81613 94.665321 
L 199.208038 94.082462 
L 200.599945 93.957808 
L 201.991852 93.887113 
L 203.38376 93.887512 
L 204.775667 94.029883 
L 206.167574 93.915458 
L 207.559481 93.887672 
L 208.951389 93.872806 
L 210.343296 93.971492 
" clip-path="url(#p62b0ade35d)" style="fill: none; stroke-dasharray: 5.55,2.4; stroke-dashoffset: 0; stroke: #000000; stroke-width: 1.5"/>
   </g>
   <g id="line2d_49">
    <path d="M 142.139838 92.844751 
L 143.531745 92.619939 
L 144.923653 92.220839 
L 146.31556 92.993894 
L 147.707467 92.933296 
L 149.099375 92.964139 
L 150.491282 92.917978 
L 151.883189 92.867721 
L 153.275096 92.82287 
L 154.667004 91.715632 
L 156.058911 92.592296 
L 157.450818 92.966031 
L 158.842726 92.966362 
L 160.234633 93.049539 
L 161.62654 92.878729 
L 163.018448 92.921505 
L 164.410355 93.015904 
L 165.802262 92.864125 
L 167.19417 92.927951 
L 168.586077 92.948855 
L 169.977984 92.73352 
L 171.369891 92.091255 
L 172.761799 92.674062 
L 174.153706 92.741398 
L 175.545613 92.674517 
L 176.937521 92.967024 
L 178.329428 92.944868 
L 179.721335 92.671374 
L 181.113243 92.771466 
L 182.50515 92.850854 
L 183.897057 92.804107 
L 185.288965 92.857452 
L 186.680872 93.065955 
L 188.072779 92.673857 
L 189.464686 92.835535 
L 190.856594 92.966173 
L 192.248501 92.94534 
L 193.640408 92.893735 
L 195.032316 93.015 
L 196.424223 92.863122 
L 197.81613 93.017213 
L 199.208038 92.90377 
L 200.599945 92.880553 
L 201.991852 92.932942 
L 203.38376 92.87209 
L 204.775667 92.990311 
L 206.167574 92.71662 
L 207.559481 92.868282 
L 208.951389 92.826888 
L 210.343296 92.742662 
" clip-path="url(#p62b0ade35d)" style="fill: none; stroke-dasharray: 1.5,2.475; stroke-dashoffset: 0; stroke: #000000; stroke-width: 1.5"/>
   </g>
   <g id="patch_20">
    <path d="M 138.729665 109.036981 
L 138.729665 73.137582 
" style="fill: none; stroke: #000000; stroke-width: 0.8; stroke-linejoin: miter; stroke-linecap: square"/>
   </g>
   <g id="patch_21">
    <path d="M 213.753469 109.036981 
L 213.753469 73.137582 
" style="fill: none; stroke: #000000; stroke-width: 0.8; stroke-linejoin: miter; stroke-linecap: square"/>
   </g>
   <g id="patch_22">
    <path d="M 138.729665 109.036981 
L 213.753469 109.036981 
" style="fill: none; stroke: #000000; stroke-width: 0.8; stroke-linejoin: miter; stroke-linecap: square"/>
   </g>
   <g id="patch_23">
    <path d="M 138.729665 73.137582 
L 213.753469 73.137582 
" style="fill: none; stroke: #000000; stroke-width: 0.8; stroke-linejoin: miter; stroke-linecap: square"/>
   </g>
   <g id="text_31">
    <!-- $\mathbf{d)}$ -->
    <g transform="translate(126.261074 67.016623) scale(0.08 -0.08)">
     <defs>
      <path id="CMBX12-64" d="M 2221 4428 
L 2221 4153 
C 2618 4153 2662 4153 2662 3896 
L 2662 2571 
C 2522 2694 2240 2880 1798 2880 
C 890 2880 243 2313 243 1408 
C 243 483 877 -64 1728 -64 
C 2080 -64 2381 57 2630 270 
L 2630 -64 
L 3770 -26 
L 3770 250 
C 3373 250 3328 250 3328 502 
L 3328 4480 
L 2221 4428 
z
M 2630 625 
C 2362 231 2035 147 1805 147 
C 1011 147 1011 968 1011 1395 
C 1011 1699 1011 2022 1152 2268 
C 1350 2630 1728 2668 1875 2668 
C 2138 2668 2419 2552 2630 2268 
L 2630 625 
z
" transform="scale(0.015625)"/>
     </defs>
     <use xlink:href="#CMBX12-64" transform="scale(0.996264)"/>
     <use xlink:href="#CMR17-29" transform="translate(62.266501 0) scale(0.996264)"/>
    </g>
   </g>
  </g>
 </g>
 <defs>
  <clipPath id="p49020b22fe">
   <rect x="37.44753" y="15.698543" width="75.023804" height="35.899399"/>
  </clipPath>
  <clipPath id="p8f9c3250ff">
   <rect x="138.729665" y="15.698543" width="75.023804" height="35.899399"/>
  </clipPath>
  <clipPath id="pb0027575e3">
   <rect x="37.44753" y="73.137582" width="75.023804" height="35.899399"/>
  </clipPath>
  <clipPath id="p62b0ade35d">
   <rect x="138.729665" y="73.137582" width="75.023804" height="35.899399"/>
  </clipPath>
 </defs>
</svg>
