<?xml version="1.0" encoding="utf-8" standalone="no"?>
<!DOCTYPE svg PUBLIC "-//W3C//DTD SVG 1.1//EN"
  "http://www.w3.org/Graphics/SVG/1.1/DTD/svg11.dtd">
<svg xmlns:xlink="http://www.w3.org/1999/xlink" width="216.467904pt" height="134.806076pt" viewBox="0 0 216.467904 134.806076" xmlns="http://www.w3.org/2000/svg" version="1.1">
 <metadata>
  <rdf:RDF xmlns:dc="http://purl.org/dc/elements/1.1/" xmlns:cc="http://creativecommons.org/ns#" xmlns:rdf="http://www.w3.org/1999/02/22-rdf-syntax-ns#">
   <cc:Work>
    <dc:type rdf:resource="http://purl.org/dc/dcmitype/StillImage"/>
    <dc:date>2025-09-20T15:44:32.043380</dc:date>
    <dc:format>image/svg+xml</dc:format>
    <dc:creator>
     <cc:Agent>
      <dc:title>Matplotlib v3.10.0, https://matplotlib.org/</dc:title>
     </cc:Agent>
    </dc:creator>
   </cc:Work>
  </rdf:RDF>
 </metadata>
 <defs>
  <style type="text/css">*{stroke-linejoin: round; stroke-linecap: butt}</style>
 </defs>
 <g id="figure_1">
  <g id="patch_1">
   <path d="M 0 134.806076 
L 216.467904 134.806076 
L 216.467904 0 
L 0 0 
z
" style="fill: #ffffff"/>
  </g>
  <g id="axes_1">
   <g id="patch_2">
    <path d="M 36.561965 51.597942 
L 111.585769 51.597942 
L 111.585769 15.698543 
L 36.561965 15.698543 
z
" style="fill: #ffffff"/>
   </g>
   <g id="FillBetweenPolyCollection_1">
    <defs>
     <path id="m7c94b2dced" d="M 39.972138 -107.490128 
L 39.972138 -102.967814 
L 41.364045 -101.396193 
L 42.755953 -103.155578 
L 44.14786 -103.832044 
L 45.539767 -103.997658 
L 46.931675 -103.970893 
L 48.323582 -104.064389 
L 49.715489 -104.314967 
L 51.107397 -104.139096 
L 52.499304 -104.223531 
L 53.891211 -104.231714 
L 55.283118 -104.216945 
L 56.675026 -104.212715 
L 58.066933 -104.381553 
L 59.45884 -104.431104 
L 60.850748 -104.445564 
L 62.242655 -104.37235 
L 63.634562 -104.384224 
L 65.02647 -104.385054 
L 66.418377 -104.339993 
L 67.810284 -104.404683 
L 69.202192 -104.41924 
L 70.594099 -104.455979 
L 71.986006 -104.352796 
L 73.377913 -104.462637 
L 74.769821 -104.450156 
L 76.161728 -104.427162 
L 77.553635 -104.428282 
L 78.945543 -104.452562 
L 80.33745 -104.411043 
L 81.729357 -104.50125 
L 83.121265 -104.455408 
L 84.513172 -104.522329 
L 85.905079 -104.515699 
L 87.296987 -104.443824 
L 88.688894 -104.515864 
L 90.080801 -104.496318 
L 91.472708 -104.474332 
L 92.864616 -104.451731 
L 94.256523 -104.441212 
L 95.64843 -104.456306 
L 97.040338 -104.50127 
L 98.432245 -104.491882 
L 99.824152 -104.569304 
L 101.21606 -104.465072 
L 102.607967 -104.480102 
L 103.999874 -104.51605 
L 105.391782 -104.48028 
L 106.783689 -104.554517 
L 108.175596 -104.508316 
L 108.175596 -104.670968 
L 108.175596 -104.670968 
L 106.783689 -104.720073 
L 105.391782 -104.713529 
L 103.999874 -104.678619 
L 102.607967 -104.681413 
L 101.21606 -104.670618 
L 99.824152 -104.742226 
L 98.432245 -104.704772 
L 97.040338 -104.68996 
L 95.64843 -104.71926 
L 94.256523 -104.701433 
L 92.864616 -104.694699 
L 91.472708 -104.713639 
L 90.080801 -104.744726 
L 88.688894 -104.759353 
L 87.296987 -104.699862 
L 85.905079 -104.748209 
L 84.513172 -104.735361 
L 83.121265 -104.719721 
L 81.729357 -104.752073 
L 80.33745 -104.73314 
L 78.945543 -104.809646 
L 77.553635 -104.731104 
L 76.161728 -104.736356 
L 74.769821 -104.72207 
L 73.377913 -104.768108 
L 71.986006 -104.703319 
L 70.594099 -104.736961 
L 69.202192 -104.69471 
L 67.810284 -104.734967 
L 66.418377 -104.782402 
L 65.02647 -104.750801 
L 63.634562 -104.773425 
L 62.242655 -104.78135 
L 60.850748 -104.810764 
L 59.45884 -104.779765 
L 58.066933 -104.840023 
L 56.675026 -104.72349 
L 55.283118 -104.760166 
L 53.891211 -104.710953 
L 52.499304 -104.832931 
L 51.107397 -104.936459 
L 49.715489 -104.821544 
L 48.323582 -105.055981 
L 46.931675 -104.896531 
L 45.539767 -105.164192 
L 44.14786 -104.929313 
L 42.755953 -105.296705 
L 41.364045 -105.837767 
L 39.972138 -107.490128 
z
" style="stroke: #0000ff; stroke-opacity: 0.2"/>
    </defs>
    <g clip-path="url(#p12611688c5)">
     <use xlink:href="#m7c94b2dced" x="0" y="134.806076" style="fill: #0000ff; fill-opacity: 0.2; stroke: #0000ff; stroke-opacity: 0.2"/>
    </g>
   </g>
   <g id="FillBetweenPolyCollection_2">
    <defs>
     <path id="m302a0600b6" d="M 39.972138 -108.297064 
L 39.972138 -106.085784 
L 41.364045 -105.301537 
L 42.755953 -104.95945 
L 44.14786 -104.980032 
L 45.539767 -104.909339 
L 46.931675 -104.889155 
L 48.323582 -104.850166 
L 49.715489 -104.893401 
L 51.107397 -104.866514 
L 52.499304 -104.880581 
L 53.891211 -104.867703 
L 55.283118 -104.880612 
L 56.675026 -104.866582 
L 58.066933 -104.868238 
L 59.45884 -104.865826 
L 60.850748 -104.855215 
L 62.242655 -104.846974 
L 63.634562 -104.871425 
L 65.02647 -104.868671 
L 66.418377 -104.858552 
L 67.810284 -104.857613 
L 69.202192 -104.862644 
L 70.594099 -104.844913 
L 71.986006 -104.85214 
L 73.377913 -104.844181 
L 74.769821 -104.846001 
L 76.161728 -104.84403 
L 77.553635 -104.833701 
L 78.945543 -104.856045 
L 80.33745 -104.812797 
L 81.729357 -104.844277 
L 83.121265 -104.853246 
L 84.513172 -104.853571 
L 85.905079 -104.845547 
L 87.296987 -104.84951 
L 88.688894 -104.850438 
L 90.080801 -104.841036 
L 91.472708 -104.845132 
L 92.864616 -104.847093 
L 94.256523 -104.848738 
L 95.64843 -104.841089 
L 97.040338 -104.832841 
L 98.432245 -104.838602 
L 99.824152 -104.83842 
L 101.21606 -104.843241 
L 102.607967 -104.848211 
L 103.999874 -104.836763 
L 105.391782 -104.836729 
L 106.783689 -104.828246 
L 108.175596 -104.829308 
L 108.175596 -104.904913 
L 108.175596 -104.904913 
L 106.783689 -104.891078 
L 105.391782 -104.905799 
L 103.999874 -104.893195 
L 102.607967 -104.891688 
L 101.21606 -104.887739 
L 99.824152 -104.867201 
L 98.432245 -104.902646 
L 97.040338 -104.90641 
L 95.64843 -104.910136 
L 94.256523 -104.923308 
L 92.864616 -104.896206 
L 91.472708 -104.903533 
L 90.080801 -104.89131 
L 88.688894 -104.91861 
L 87.296987 -104.905177 
L 85.905079 -104.899691 
L 84.513172 -104.89882 
L 83.121265 -104.922626 
L 81.729357 -104.930492 
L 80.33745 -104.982898 
L 78.945543 -104.952815 
L 77.553635 -104.960311 
L 76.161728 -104.960399 
L 74.769821 -104.938602 
L 73.377913 -104.933811 
L 71.986006 -104.992696 
L 70.594099 -104.961872 
L 69.202192 -104.962145 
L 67.810284 -104.963797 
L 66.418377 -105.044714 
L 65.02647 -105.026608 
L 63.634562 -104.986803 
L 62.242655 -105.030661 
L 60.850748 -104.98487 
L 59.45884 -105.068834 
L 58.066933 -105.025918 
L 56.675026 -105.053069 
L 55.283118 -105.10014 
L 53.891211 -105.13779 
L 52.499304 -105.174502 
L 51.107397 -105.280343 
L 49.715489 -105.118924 
L 48.323582 -105.408537 
L 46.931675 -105.378395 
L 45.539767 -105.4332 
L 44.14786 -105.510431 
L 42.755953 -106.020824 
L 41.364045 -106.713411 
L 39.972138 -108.297064 
z
" style="stroke: #000000; stroke-opacity: 0.2"/>
    </defs>
    <g clip-path="url(#p12611688c5)">
     <use xlink:href="#m302a0600b6" x="0" y="134.806076" style="fill-opacity: 0.2; stroke: #000000; stroke-opacity: 0.2"/>
    </g>
   </g>
   <g id="matplotlib.axis_1">
    <g id="xtick_1">
     <g id="line2d_1">
      <defs>
       <path id="m3e59d69fa5" d="M 0 0 
L 0 3.5 
" style="stroke: #000000; stroke-width: 0.8"/>
      </defs>
      <g>
       <use xlink:href="#m3e59d69fa5" x="37.620295" y="51.597942" style="stroke: #000000; stroke-width: 0.8"/>
      </g>
     </g>
    </g>
    <g id="xtick_2">
     <g id="line2d_2">
      <g>
       <use xlink:href="#m3e59d69fa5" x="84.657162" y="51.597942" style="stroke: #000000; stroke-width: 0.8"/>
      </g>
     </g>
    </g>
   </g>
   <g id="matplotlib.axis_2">
    <g id="ytick_1">
     <g id="line2d_3">
      <defs>
       <path id="m148ddfe6bb" d="M 0 0 
L -3.5 0 
" style="stroke: #000000; stroke-width: 0.8"/>
      </defs>
      <g>
       <use xlink:href="#m148ddfe6bb" x="36.561965" y="51.597942" style="stroke: #000000; stroke-width: 0.8"/>
      </g>
     </g>
     <g id="text_1">
      <!-- $10^{-2}$ -->
      <g transform="translate(11.684547 54.365343) scale(0.08 -0.08)">
       <defs>
        <path id="CMR17-31" d="M 1702 4083 
C 1702 4217 1696 4224 1606 4224 
C 1357 3927 979 3833 621 3820 
C 602 3820 570 3820 563 3808 
C 557 3795 557 3782 557 3648 
C 755 3648 1088 3686 1344 3839 
L 1344 467 
C 1344 243 1331 166 781 166 
L 589 166 
L 589 0 
C 896 6 1216 12 1523 12 
C 1830 12 2150 6 2458 0 
L 2458 166 
L 2266 166 
C 1715 166 1702 236 1702 467 
L 1702 4083 
z
" transform="scale(0.015625)"/>
        <path id="CMR17-30" d="M 2688 2038 
C 2688 2430 2682 3099 2413 3613 
C 2176 4063 1798 4224 1466 4224 
C 1158 4224 768 4082 525 3620 
C 269 3137 243 2539 243 2038 
C 243 1671 250 1112 448 623 
C 723 -39 1216 -128 1466 -128 
C 1760 -128 2208 -7 2470 604 
C 2662 1048 2688 1568 2688 2038 
z
M 1466 -26 
C 1056 -26 813 328 723 816 
C 653 1196 653 1749 653 2109 
C 653 2604 653 3015 736 3407 
C 858 3954 1216 4121 1466 4121 
C 1728 4121 2067 3947 2189 3420 
C 2272 3054 2278 2623 2278 2109 
C 2278 1691 2278 1176 2202 797 
C 2067 96 1690 -26 1466 -26 
z
" transform="scale(0.015625)"/>
        <path id="CMSY10-0" d="M 4218 1472 
C 4326 1472 4442 1472 4442 1600 
C 4442 1728 4326 1728 4218 1728 
L 755 1728 
C 646 1728 531 1728 531 1600 
C 531 1472 646 1472 755 1472 
L 4218 1472 
z
" transform="scale(0.015625)"/>
        <path id="CMR17-32" d="M 2669 990 
L 2554 990 
C 2490 537 2438 460 2413 422 
C 2381 371 1920 371 1830 371 
L 602 371 
C 832 620 1280 1073 1824 1596 
C 2214 1966 2669 2400 2669 3033 
C 2669 3788 2067 4224 1395 4224 
C 691 4224 262 3603 262 3027 
C 262 2777 448 2745 525 2745 
C 589 2745 781 2783 781 3007 
C 781 3206 614 3264 525 3264 
C 486 3264 448 3257 422 3244 
C 544 3788 915 4057 1306 4057 
C 1862 4057 2227 3616 2227 3033 
C 2227 2477 1901 1998 1536 1583 
L 262 147 
L 262 0 
L 2515 0 
L 2669 990 
z
" transform="scale(0.015625)"/>
       </defs>
       <use xlink:href="#CMR17-31" transform="scale(0.996264)"/>
       <use xlink:href="#CMR17-30" transform="translate(45.690477 0) scale(0.996264)"/>
       <use xlink:href="#CMSY10-0" transform="translate(91.380954 36.153639) scale(0.697382)"/>
       <use xlink:href="#CMR17-32" transform="translate(145.621947 36.153639) scale(0.697382)"/>
      </g>
     </g>
    </g>
    <g id="ytick_2">
     <g id="line2d_4">
      <g>
       <use xlink:href="#m148ddfe6bb" x="36.561965" y="39.631476" style="stroke: #000000; stroke-width: 0.8"/>
      </g>
     </g>
     <g id="text_2">
      <!-- $10^{-1}$ -->
      <g transform="translate(11.684547 42.398877) scale(0.08 -0.08)">
       <use xlink:href="#CMR17-31" transform="scale(0.996264)"/>
       <use xlink:href="#CMR17-30" transform="translate(45.690477 0) scale(0.996264)"/>
       <use xlink:href="#CMSY10-0" transform="translate(91.380954 36.153639) scale(0.697382)"/>
       <use xlink:href="#CMR17-31" transform="translate(145.621947 36.153639) scale(0.697382)"/>
      </g>
     </g>
    </g>
    <g id="ytick_3">
     <g id="line2d_5">
      <g>
       <use xlink:href="#m148ddfe6bb" x="36.561965" y="15.698543" style="stroke: #000000; stroke-width: 0.8"/>
      </g>
     </g>
     <g id="text_3">
      <!-- $10^{1}$ -->
      <g transform="translate(17.440687 18.465944) scale(0.08 -0.08)">
       <use xlink:href="#CMR17-31" transform="scale(0.996264)"/>
       <use xlink:href="#CMR17-30" transform="translate(45.690477 0) scale(0.996264)"/>
       <use xlink:href="#CMR17-31" transform="translate(91.380954 36.153639) scale(0.697382)"/>
      </g>
     </g>
    </g>
    <g id="text_4">
     <!-- $\mathcal{L}$ -->
     <g transform="translate(9.134802 36.560137) rotate(-90) scale(0.08 -0.08)">
      <defs>
       <path id="CMSY10-4c" d="M 1152 609 
C 1498 1149 1606 1561 1690 1902 
C 1914 2790 2157 3561 2554 4005 
C 2630 4089 2682 4147 2886 4147 
C 3328 4147 3341 3703 3341 3613 
C 3341 3497 3309 3407 3309 3375 
C 3309 3330 3347 3330 3354 3330 
C 3456 3330 3629 3401 3789 3516 
C 3904 3606 3962 3671 3962 3934 
C 3962 4281 3782 4544 3424 4544 
C 3219 4544 2656 4492 2029 3857 
C 1517 3330 1216 2172 1094 1690 
C 979 1246 928 1047 736 661 
C 691 583 525 300 435 217 
C 262 57 198 -58 198 -90 
C 198 -103 211 -128 256 -128 
C 282 -128 416 -103 582 6 
C 691 70 704 83 851 236 
C 1171 230 1395 172 1798 57 
C 2125 -32 2451 -128 2778 -128 
C 3296 -128 3821 262 4026 545 
C 4154 719 4192 879 4192 899 
C 4192 944 4154 944 4147 944 
C 4045 944 3891 873 3782 796 
C 3610 686 3597 648 3558 538 
C 3526 436 3488 384 3462 346 
C 3411 268 3405 268 3309 268 
C 3002 268 2682 365 2259 481 
C 2080 532 1728 635 1408 635 
C 1325 635 1235 628 1152 609 
z
" transform="scale(0.015625)"/>
      </defs>
      <use xlink:href="#CMSY10-4c" transform="scale(0.996264)"/>
     </g>
    </g>
   </g>
   <g id="line2d_6">
    <path d="M 39.972138 29.099979 
L 41.364045 30.728373 
L 42.755953 30.470439 
L 44.14786 30.396493 
L 45.539767 30.192489 
L 46.931675 30.351783 
L 48.323582 30.222277 
L 49.715489 30.231651 
L 51.107397 30.253022 
L 52.499304 30.268918 
L 53.891211 30.329221 
L 55.283118 30.310427 
L 56.675026 30.331701 
L 58.066933 30.190234 
L 59.45884 30.197719 
L 60.850748 30.174705 
L 62.242655 30.225204 
L 63.634562 30.223609 
L 65.02647 30.234932 
L 66.418377 30.240173 
L 67.810284 30.233628 
L 69.202192 30.247277 
L 70.594099 30.207708 
L 71.986006 30.275064 
L 73.377913 30.18846 
L 74.769821 30.218185 
L 76.161728 30.222018 
L 77.553635 30.224178 
L 78.945543 30.171906 
L 80.33745 30.23149 
L 81.729357 30.177902 
L 83.121265 30.216832 
L 84.513172 30.17614 
L 85.905079 30.172822 
L 87.296987 30.232657 
L 88.688894 30.167042 
L 90.080801 30.184071 
L 91.472708 30.210714 
L 92.864616 30.231442 
L 94.256523 30.233125 
L 95.64843 30.21663 
L 97.040338 30.209605 
L 98.432245 30.206659 
L 99.824152 30.149592 
L 101.21606 30.237215 
L 102.607967 30.224344 
L 103.999874 30.208106 
L 105.391782 30.207864 
L 106.783689 30.168122 
L 108.175596 30.215798 
" clip-path="url(#p12611688c5)" style="fill: none; stroke: #0000ff; stroke-width: 1.5; stroke-linecap: square"/>
   </g>
   <g id="line2d_7">
    <path d="M 39.972138 27.497918 
L 41.364045 28.750803 
L 42.755953 29.288891 
L 44.14786 29.554081 
L 45.539767 29.628209 
L 46.931675 29.666546 
L 48.323582 29.669229 
L 49.715489 29.798691 
L 51.107397 29.72853 
L 52.499304 29.776457 
L 53.891211 29.801576 
L 55.283118 29.814541 
L 56.675026 29.845415 
L 58.066933 29.8584 
L 59.45884 29.837755 
L 60.850748 29.885629 
L 62.242655 29.866447 
L 63.634562 29.876642 
L 65.02647 29.857837 
L 66.418377 29.85361 
L 67.810284 29.8951 
L 69.202192 29.893444 
L 70.594099 29.902355 
L 71.986006 29.883183 
L 73.377913 29.916887 
L 74.769821 29.913568 
L 76.161728 29.903536 
L 77.553635 29.908685 
L 78.945543 29.901421 
L 80.33745 29.907533 
L 81.729357 29.918513 
L 83.121265 29.918024 
L 84.513172 29.929832 
L 85.905079 29.933387 
L 87.296987 29.928658 
L 88.688894 29.92144 
L 90.080801 29.939843 
L 91.472708 29.931662 
L 92.864616 29.934369 
L 94.256523 29.91992 
L 95.64843 29.930349 
L 97.040338 29.936321 
L 98.432245 29.935354 
L 99.824152 29.953246 
L 101.21606 29.940538 
L 102.607967 29.936082 
L 103.999874 29.941021 
L 105.391782 29.934698 
L 106.783689 29.94632 
L 108.175596 29.938828 
" clip-path="url(#p12611688c5)" style="fill: none; stroke: #000000; stroke-width: 1.5; stroke-linecap: square"/>
   </g>
   <g id="line2d_8">
    <path d="M 39.972138 43.209416 
L 41.364045 38.717853 
L 42.755953 32.716097 
L 44.14786 31.57909 
L 45.539767 31.257292 
L 46.931675 31.609409 
L 48.323582 31.019382 
L 49.715489 30.662087 
L 51.107397 31.47762 
L 52.499304 31.019223 
L 53.891211 30.835745 
L 55.283118 31.026707 
L 56.675026 30.820347 
L 58.066933 30.744969 
L 59.45884 30.57791 
L 60.850748 30.525171 
L 62.242655 30.637865 
L 63.634562 30.591976 
L 65.02647 30.792799 
L 66.418377 30.670666 
L 67.810284 30.540305 
L 69.202192 30.459931 
L 70.594099 30.597854 
L 71.986006 30.681367 
L 73.377913 30.674621 
L 74.769821 30.513814 
L 76.161728 30.520429 
L 77.553635 30.615025 
L 78.945543 30.672518 
L 80.33745 30.620049 
L 81.729357 30.410175 
L 83.121265 30.53943 
L 84.513172 30.39901 
L 85.905079 30.371289 
L 87.296987 30.482687 
L 88.688894 30.395766 
L 90.080801 30.434574 
L 91.472708 30.432664 
L 92.864616 30.529624 
L 94.256523 30.521755 
L 95.64843 30.510922 
L 97.040338 30.394692 
L 98.432245 30.536329 
L 99.824152 30.321613 
L 101.21606 30.439952 
L 102.607967 30.464249 
L 103.999874 30.442219 
L 105.391782 30.486916 
L 106.783689 30.341038 
L 108.175596 30.384754 
" clip-path="url(#p12611688c5)" style="fill: none; stroke-dasharray: 5.55,2.4; stroke-dashoffset: 0; stroke: #0000ff; stroke-width: 1.5"/>
   </g>
   <g id="line2d_9">
    <path d="M 39.972138 27.66501 
L 41.364045 27.69293 
L 42.755953 28.01274 
L 44.14786 29.570416 
L 45.539767 28.674556 
L 46.931675 29.694146 
L 48.323582 28.580865 
L 49.715489 29.817016 
L 51.107397 29.368616 
L 52.499304 29.691059 
L 53.891211 29.672832 
L 55.283118 29.890201 
L 56.675026 29.844867 
L 58.066933 29.672835 
L 59.45884 29.760336 
L 60.850748 29.855579 
L 62.242655 29.817161 
L 63.634562 29.83652 
L 65.02647 29.879 
L 66.418377 29.78838 
L 67.810284 29.947528 
L 69.202192 29.942223 
L 70.594099 29.964379 
L 71.986006 30.002055 
L 73.377913 29.94279 
L 74.769821 29.92701 
L 76.161728 30.001157 
L 77.553635 29.955529 
L 78.945543 29.79884 
L 80.33745 29.839095 
L 81.729357 29.950344 
L 83.121265 29.970471 
L 84.513172 29.850346 
L 85.905079 29.930555 
L 87.296987 30.016591 
L 88.688894 29.931098 
L 90.080801 29.893781 
L 91.472708 29.962555 
L 92.864616 30.012991 
L 94.256523 29.965077 
L 95.64843 29.877188 
L 97.040338 30.030478 
L 98.432245 30.029725 
L 99.824152 29.894644 
L 101.21606 30.004376 
L 102.607967 30.020061 
L 103.999874 30.041482 
L 105.391782 29.97136 
L 106.783689 29.938076 
L 108.175596 29.984137 
" clip-path="url(#p12611688c5)" style="fill: none; stroke-dasharray: 1.5,2.475; stroke-dashoffset: 0; stroke: #0000ff; stroke-width: 1.5"/>
   </g>
   <g id="line2d_10">
    <path d="M 39.972138 28.818138 
L 41.364045 29.639198 
L 42.755953 29.811502 
L 44.14786 29.899688 
L 45.539767 29.86741 
L 46.931675 29.914924 
L 48.323582 29.899841 
L 49.715489 29.929912 
L 51.107397 29.924864 
L 52.499304 29.93125 
L 53.891211 29.933186 
L 55.283118 29.946948 
L 56.675026 29.940516 
L 58.066933 29.960254 
L 59.45884 29.937658 
L 60.850748 29.95257 
L 62.242655 29.945047 
L 63.634562 29.945604 
L 65.02647 29.964352 
L 66.418377 29.970288 
L 67.810284 29.951299 
L 69.202192 29.963436 
L 70.594099 29.962998 
L 71.986006 29.964216 
L 73.377913 29.974874 
L 74.769821 29.967086 
L 76.161728 29.964184 
L 77.553635 29.967861 
L 78.945543 29.968706 
L 80.33745 29.971941 
L 81.729357 29.97154 
L 83.121265 29.959942 
L 84.513172 29.971684 
L 85.905079 29.974721 
L 87.296987 29.961778 
L 88.688894 29.966669 
L 90.080801 29.969728 
L 91.472708 29.970459 
L 92.864616 29.968971 
L 94.256523 29.964951 
L 95.64843 29.96785 
L 97.040338 29.981358 
L 98.432245 29.972701 
L 99.824152 29.974411 
L 101.21606 29.979849 
L 102.607967 29.976563 
L 103.999874 29.976956 
L 105.391782 29.979969 
L 106.783689 29.984236 
L 108.175596 29.97756 
" clip-path="url(#p12611688c5)" style="fill: none; stroke-dasharray: 5.55,2.4; stroke-dashoffset: 0; stroke: #000000; stroke-width: 1.5"/>
   </g>
   <g id="line2d_11">
    <path d="M 39.972138 24.055701 
L 41.364045 27.354769 
L 42.755953 28.026645 
L 44.14786 28.87297 
L 45.539767 28.642717 
L 46.931675 28.967018 
L 48.323582 28.527297 
L 49.715489 29.409256 
L 51.107397 28.914278 
L 52.499304 29.324767 
L 53.891211 29.305723 
L 55.283118 29.552434 
L 56.675026 29.561101 
L 58.066933 29.610783 
L 59.45884 29.442433 
L 60.850748 29.687228 
L 62.242655 29.490857 
L 63.634562 29.745021 
L 65.02647 29.655904 
L 66.418377 29.568934 
L 67.810284 29.740081 
L 69.202192 29.763095 
L 70.594099 29.691595 
L 71.986006 29.699039 
L 73.377913 29.78994 
L 74.769821 29.763358 
L 76.161728 29.754346 
L 77.553635 29.759865 
L 78.945543 29.750501 
L 80.33745 29.577347 
L 81.729357 29.773934 
L 83.121265 29.811335 
L 84.513172 29.887597 
L 85.905079 29.849841 
L 87.296987 29.863805 
L 88.688894 29.839658 
L 90.080801 29.868795 
L 91.472708 29.843065 
L 92.864616 29.861323 
L 94.256523 29.816912 
L 95.64843 29.825175 
L 97.040338 29.846282 
L 98.432245 29.83498 
L 99.824152 29.923418 
L 101.21606 29.889981 
L 102.607967 29.88882 
L 103.999874 29.845896 
L 105.391782 29.840583 
L 106.783689 29.863381 
L 108.175596 29.781443 
" clip-path="url(#p12611688c5)" style="fill: none; stroke-dasharray: 1.5,2.475; stroke-dashoffset: 0; stroke: #000000; stroke-width: 1.5"/>
   </g>
   <g id="patch_3">
    <path d="M 36.561965 51.597942 
L 36.561965 15.698543 
" style="fill: none; stroke: #000000; stroke-width: 0.8; stroke-linejoin: miter; stroke-linecap: square"/>
   </g>
   <g id="patch_4">
    <path d="M 111.585769 51.597942 
L 111.585769 15.698543 
" style="fill: none; stroke: #000000; stroke-width: 0.8; stroke-linejoin: miter; stroke-linecap: square"/>
   </g>
   <g id="patch_5">
    <path d="M 36.561965 51.597942 
L 111.585769 51.597942 
" style="fill: none; stroke: #000000; stroke-width: 0.8; stroke-linejoin: miter; stroke-linecap: square"/>
   </g>
   <g id="patch_6">
    <path d="M 36.561965 15.698543 
L 111.585769 15.698543 
" style="fill: none; stroke: #000000; stroke-width: 0.8; stroke-linejoin: miter; stroke-linecap: square"/>
   </g>
   <g id="text_5">
    <!-- $\mathbf{a)}$ -->
    <g transform="translate(24.771388 9.577584) scale(0.08 -0.08)">
     <defs>
      <path id="CMBX12-61" d="M 2944 1894 
C 2944 2483 2477 2880 1574 2880 
C 1216 2880 461 2847 461 2310 
C 461 2041 666 1926 838 1926 
C 1030 1926 1216 2060 1216 2303 
C 1216 2425 1171 2540 1062 2611 
C 1274 2668 1427 2668 1549 2668 
C 1984 2668 2246 2425 2246 1900 
L 2246 1644 
C 1235 1644 218 1362 218 648 
C 218 64 960 -64 1402 -64 
C 1894 -64 2208 205 2336 488 
C 2336 250 2336 -26 2982 -26 
L 3309 -26 
C 3443 -26 3494 -26 3494 115 
C 3494 250 3437 250 3347 250 
C 2944 256 2944 359 2944 507 
L 2944 1894 
z
M 2246 867 
C 2246 262 1709 147 1504 147 
C 1190 147 928 359 928 655 
C 928 1240 1619 1439 2246 1472 
L 2246 867 
z
" transform="scale(0.015625)"/>
      <path id="CMR17-29" d="M 1683 1596 
C 1683 2057 1638 2839 1254 3665 
C 947 4332 422 4800 346 4800 
C 326 4800 301 4793 301 4761 
C 301 4748 307 4742 314 4729 
C 621 4408 1402 3595 1402 1603 
C 1402 -396 627 -1210 314 -1530 
C 307 -1543 301 -1549 301 -1562 
C 301 -1594 326 -1600 346 -1600 
C 416 -1600 960 -1127 1274 -422 
C 1594 289 1683 981 1683 1596 
z
" transform="scale(0.015625)"/>
     </defs>
     <use xlink:href="#CMBX12-61" transform="scale(0.996264)"/>
     <use xlink:href="#CMR17-29" transform="translate(54.483188 0) scale(0.996264)"/>
    </g>
   </g>
   <g id="legend_1">
    <g id="line2d_12">
     <path d="M 38.961965 30.298481 
L 40.961965 30.298481 
L 42.961965 30.298481 
" style="fill: none; stroke: #0000ff; stroke-width: 1.5; stroke-linecap: square"/>
    </g>
    <g id="text_6">
     <!-- Mean -->
     <g transform="translate(44.161965 31.698481) scale(0.04 -0.04)">
      <defs>
       <path id="CMR17-4d" d="M 1338 4249 
C 1299 4345 1293 4352 1158 4352 
L 339 4352 
L 339 4185 
C 781 4185 851 4185 851 3898 
L 851 624 
C 851 465 851 166 339 166 
L 339 0 
C 486 12 755 12 915 12 
C 1075 12 1344 12 1491 0 
L 1491 166 
C 979 166 979 465 979 624 
L 979 4159 
L 986 4159 
L 2490 102 
C 2515 38 2528 0 2579 0 
C 2630 0 2643 38 2669 102 
L 4186 4191 
L 4192 4191 
L 4192 453 
C 4192 166 4122 166 3680 166 
L 3680 0 
C 3853 12 4198 12 4384 12 
C 4570 12 4922 12 5094 0 
L 5094 166 
C 4653 166 4582 166 4582 453 
L 4582 3898 
C 4582 4185 4653 4185 5094 4185 
L 5094 4352 
L 4282 4352 
C 4147 4352 4141 4345 4102 4249 
L 2720 516 
L 1338 4249 
z
" transform="scale(0.015625)"/>
       <path id="CMR17-65" d="M 2438 1503 
C 2464 1529 2464 1542 2464 1606 
C 2464 2251 2118 2816 1389 2816 
C 710 2816 173 2175 173 1394 
C 173 554 781 -64 1459 -64 
C 2176 -64 2458 619 2458 755 
C 2458 800 2419 800 2406 800 
C 2362 800 2355 787 2330 709 
C 2189 270 1837 51 1504 51 
C 1229 51 954 206 781 490 
C 582 819 582 1200 582 1503 
L 2438 1503 
z
M 589 1600 
C 634 2511 1126 2713 1382 2713 
C 1818 2713 2112 2308 2118 1600 
L 589 1600 
z
" transform="scale(0.015625)"/>
       <path id="CMR17-61" d="M 2304 1656 
C 2304 2048 2304 2275 2035 2534 
C 1798 2751 1523 2816 1306 2816 
C 800 2816 435 2408 435 1977 
C 435 1740 627 1728 666 1728 
C 749 1728 896 1779 896 1958 
C 896 2118 774 2188 666 2188 
C 640 2188 608 2182 589 2176 
C 723 2594 1069 2713 1293 2713 
C 1613 2713 1965 2421 1965 1875 
L 1965 1632 
C 1587 1619 1133 1568 774 1373 
C 371 1147 256 822 256 576 
C 256 77 832 -64 1171 -64 
C 1523 -64 1850 135 1990 505 
C 2003 219 2182 -39 2464 -39 
C 2598 -39 2938 51 2938 563 
L 2938 926 
L 2822 926 
L 2822 557 
C 2822 161 2650 109 2566 109 
C 2304 109 2304 446 2304 732 
L 2304 1656 
z
M 1965 887 
C 1965 323 1568 38 1216 38 
C 896 38 646 278 646 576 
C 646 771 730 1114 1101 1322 
C 1408 1497 1760 1523 1965 1536 
L 1965 887 
z
" transform="scale(0.015625)"/>
       <path id="CMR17-6e" d="M 2656 1954 
C 2656 2282 2592 2816 1837 2816 
C 1331 2816 1069 2424 973 2166 
L 966 2166 
L 966 2816 
L 211 2745 
L 211 2578 
C 589 2578 646 2540 646 2231 
L 646 443 
C 646 198 621 166 211 166 
L 211 0 
C 365 12 646 12 813 12 
C 979 12 1267 12 1421 0 
L 1421 166 
C 1011 166 986 192 986 443 
L 986 1678 
C 986 2269 1344 2713 1792 2713 
C 2266 2713 2317 2289 2317 1980 
L 2317 443 
C 2317 198 2291 166 1882 166 
L 1882 0 
C 2035 12 2317 12 2483 12 
C 2650 12 2938 12 3091 0 
L 3091 166 
C 2682 166 2656 192 2656 443 
L 2656 1954 
z
" transform="scale(0.015625)"/>
      </defs>
      <use xlink:href="#CMR17-4d" transform="scale(0.996264)"/>
      <use xlink:href="#CMR17-65" transform="translate(84.686941 0) scale(0.996264)"/>
      <use xlink:href="#CMR17-61" transform="translate(125.172601 0) scale(0.996264)"/>
      <use xlink:href="#CMR17-6e" transform="translate(170.863078 0) scale(0.996264)"/>
     </g>
    </g>
    <g id="patch_7">
     <path d="M 38.961965 37.273347 
L 42.961965 37.273347 
L 42.961965 34.473347 
L 38.961965 34.473347 
z
" style="fill: #0000ff; fill-opacity: 0.2; stroke: #0000ff; stroke-opacity: 0.2; stroke-linejoin: miter"/>
    </g>
    <g id="text_7">
     <!-- Std -->
     <g transform="translate(44.161965 37.273347) scale(0.04 -0.04)">
      <defs>
       <path id="CMR17-53" d="M 2803 4351 
C 2803 4467 2797 4473 2758 4473 
C 2720 4473 2707 4447 2682 4390 
L 2490 3965 
C 2246 4320 1875 4480 1472 4480 
C 819 4480 294 3958 294 3301 
C 294 3101 339 2817 557 2546 
C 794 2250 1018 2198 1530 2063 
C 1722 2011 2042 1927 2106 1901 
C 2470 1747 2662 1360 2662 999 
C 2662 534 2336 38 1779 38 
C 1094 38 454 425 410 1328 
C 403 1431 397 1437 352 1437 
C 301 1437 294 1431 294 1302 
L 294 0 
C 294 -116 301 -122 339 -122 
C 384 -122 397 -90 486 109 
C 493 128 493 141 614 386 
C 934 -39 1472 -128 1779 -128 
C 2477 -128 2970 457 2970 1141 
C 2970 1476 2848 1734 2778 1850 
C 2509 2263 2221 2340 1914 2417 
C 1869 2437 1856 2437 1498 2527 
C 1152 2617 1005 2662 845 2836 
C 666 3036 602 3243 602 3449 
C 602 3868 934 4326 1478 4326 
C 2157 4326 2579 3842 2675 3036 
C 2694 2920 2701 2914 2746 2914 
C 2803 2914 2803 2933 2803 3043 
L 2803 4351 
z
" transform="scale(0.015625)"/>
       <path id="CMR17-74" d="M 966 2585 
L 1862 2585 
L 1862 2752 
L 966 2752 
L 966 3968 
L 851 3968 
C 838 3292 614 2700 70 2687 
L 70 2585 
L 627 2585 
L 627 778 
C 627 655 627 -64 1370 -64 
C 1747 -64 1965 308 1965 784 
L 1965 1151 
L 1850 1151 
L 1850 790 
C 1850 347 1677 51 1408 51 
C 1222 51 966 179 966 765 
L 966 2585 
z
" transform="scale(0.015625)"/>
       <path id="CMR17-64" d="M 1869 4345 
L 1869 4179 
C 2246 4179 2304 4141 2304 3843 
L 2304 2371 
C 2278 2403 2016 2816 1498 2816 
C 845 2816 211 2228 211 1376 
C 211 529 806 -64 1434 -64 
C 1978 -64 2259 361 2291 406 
L 2291 -64 
L 3066 -13 
L 3066 154 
C 2688 154 2630 193 2630 503 
L 2630 4416 
L 1869 4345 
z
M 2291 762 
C 2291 568 2176 393 2029 264 
C 1811 70 1594 38 1472 38 
C 1286 38 621 135 621 1369 
C 621 2636 1363 2713 1530 2713 
C 1824 2713 2061 2545 2208 2313 
C 2291 2177 2291 2157 2291 2041 
L 2291 762 
z
" transform="scale(0.015625)"/>
      </defs>
      <use xlink:href="#CMR17-53" transform="scale(0.996264)"/>
      <use xlink:href="#CMR17-74" transform="translate(50.89537 0) scale(0.996264)"/>
      <use xlink:href="#CMR17-64" transform="translate(86.176138 0) scale(0.996264)"/>
     </g>
    </g>
    <g id="line2d_13">
     <path d="M 38.961965 41.448212 
L 40.961965 41.448212 
L 42.961965 41.448212 
" style="fill: none; stroke: #000000; stroke-width: 1.5; stroke-linecap: square"/>
    </g>
    <g id="text_8">
     <!-- Mean -->
     <g transform="translate(44.161965 42.848212) scale(0.04 -0.04)">
      <use xlink:href="#CMR17-4d" transform="scale(0.996264)"/>
      <use xlink:href="#CMR17-65" transform="translate(84.686941 0) scale(0.996264)"/>
      <use xlink:href="#CMR17-61" transform="translate(125.172601 0) scale(0.996264)"/>
      <use xlink:href="#CMR17-6e" transform="translate(170.863078 0) scale(0.996264)"/>
     </g>
    </g>
    <g id="patch_8">
     <path d="M 38.961965 48.423077 
L 42.961965 48.423077 
L 42.961965 45.623077 
L 38.961965 45.623077 
z
" style="fill-opacity: 0.2; stroke: #000000; stroke-opacity: 0.2; stroke-linejoin: miter"/>
    </g>
    <g id="text_9">
     <!-- Std -->
     <g transform="translate(44.161965 48.423077) scale(0.04 -0.04)">
      <use xlink:href="#CMR17-53" transform="scale(0.996264)"/>
      <use xlink:href="#CMR17-74" transform="translate(50.89537 0) scale(0.996264)"/>
      <use xlink:href="#CMR17-64" transform="translate(86.176138 0) scale(0.996264)"/>
     </g>
    </g>
    <g id="line2d_14">
     <path d="M 65.036096 30.298481 
L 67.036096 30.298481 
L 69.036096 30.298481 
" style="fill: none; stroke-dasharray: 5.55,2.4; stroke-dashoffset: 0; stroke: #0000ff; stroke-width: 1.5"/>
    </g>
    <g id="text_10">
     <!-- Max -->
     <g transform="translate(70.236096 31.698481) scale(0.04 -0.04)">
      <defs>
       <path id="CMR17-78" d="M 1664 1491 
C 1856 1740 2074 2022 2253 2233 
C 2464 2476 2707 2579 2989 2585 
L 2989 2752 
C 2880 2745 2656 2739 2541 2739 
C 2368 2739 2170 2739 2022 2752 
L 2022 2585 
C 2112 2572 2163 2508 2163 2419 
C 2163 2304 2099 2233 2067 2188 
L 1594 1587 
L 1030 2323 
C 973 2393 973 2406 973 2438 
C 973 2515 1037 2579 1146 2585 
L 1146 2752 
C 992 2739 717 2739 557 2739 
C 384 2739 179 2739 38 2752 
L 38 2585 
C 384 2585 461 2560 614 2368 
L 1350 1414 
C 1363 1401 1395 1363 1395 1344 
C 1395 1318 838 633 768 544 
C 480 198 179 172 6 166 
L 6 0 
C 115 6 339 12 454 12 
C 582 12 864 12 979 0 
L 979 166 
C 941 172 838 185 838 332 
C 838 448 890 518 947 595 
L 1478 1248 
L 2035 524 
C 2086 454 2163 358 2163 313 
C 2163 224 2086 172 1984 166 
L 1984 0 
C 2138 12 2413 12 2573 12 
C 2746 12 2950 12 3091 0 
L 3091 166 
C 2771 166 2675 179 2522 377 
L 1664 1491 
z
" transform="scale(0.015625)"/>
      </defs>
      <use xlink:href="#CMR17-4d" transform="scale(0.996264)"/>
      <use xlink:href="#CMR17-61" transform="translate(84.686941 0) scale(0.996264)"/>
      <use xlink:href="#CMR17-78" transform="translate(130.377418 0) scale(0.996264)"/>
     </g>
    </g>
    <g id="line2d_15">
     <path d="M 65.036096 35.873347 
L 67.036096 35.873347 
L 69.036096 35.873347 
" style="fill: none; stroke-dasharray: 1.5,2.475; stroke-dashoffset: 0; stroke: #0000ff; stroke-width: 1.5"/>
    </g>
    <g id="text_11">
     <!-- Min -->
     <g transform="translate(70.236096 37.273347) scale(0.04 -0.04)">
      <defs>
       <path id="CMR17-69" d="M 992 3961 
C 992 4102 877 4224 730 4224 
C 589 4224 467 4108 467 3961 
C 467 3820 582 3699 730 3699 
C 870 3699 992 3814 992 3961 
z
M 243 2745 
L 243 2579 
C 602 2579 653 2540 653 2231 
L 653 443 
C 653 198 627 166 218 166 
L 218 0 
C 371 12 646 12 806 12 
C 960 12 1222 12 1370 0 
L 1370 166 
C 992 166 979 205 979 436 
L 979 2816 
L 243 2745 
z
" transform="scale(0.015625)"/>
      </defs>
      <use xlink:href="#CMR17-4d" transform="scale(0.996264)"/>
      <use xlink:href="#CMR17-69" transform="translate(84.686941 0) scale(0.996264)"/>
      <use xlink:href="#CMR17-6e" transform="translate(109.557999 0) scale(0.996264)"/>
     </g>
    </g>
    <g id="line2d_16">
     <path d="M 65.036096 41.448212 
L 67.036096 41.448212 
L 69.036096 41.448212 
" style="fill: none; stroke-dasharray: 5.55,2.4; stroke-dashoffset: 0; stroke: #000000; stroke-width: 1.5"/>
    </g>
    <g id="text_12">
     <!-- Max -->
     <g transform="translate(70.236096 42.848212) scale(0.04 -0.04)">
      <use xlink:href="#CMR17-4d" transform="scale(0.996264)"/>
      <use xlink:href="#CMR17-61" transform="translate(84.686941 0) scale(0.996264)"/>
      <use xlink:href="#CMR17-78" transform="translate(130.377418 0) scale(0.996264)"/>
     </g>
    </g>
    <g id="line2d_17">
     <path d="M 65.036096 47.023077 
L 67.036096 47.023077 
L 69.036096 47.023077 
" style="fill: none; stroke-dasharray: 1.5,2.475; stroke-dashoffset: 0; stroke: #000000; stroke-width: 1.5"/>
    </g>
    <g id="text_13">
     <!-- Min -->
     <g transform="translate(70.236096 48.423077) scale(0.04 -0.04)">
      <use xlink:href="#CMR17-4d" transform="scale(0.996264)"/>
      <use xlink:href="#CMR17-69" transform="translate(84.686941 0) scale(0.996264)"/>
      <use xlink:href="#CMR17-6e" transform="translate(109.557999 0) scale(0.996264)"/>
     </g>
    </g>
   </g>
  </g>
  <g id="axes_2">
   <g id="patch_9">
    <path d="M 137.8441 51.597942 
L 212.867904 51.597942 
L 212.867904 15.698543 
L 137.8441 15.698543 
z
" style="fill: #ffffff"/>
   </g>
   <g id="FillBetweenPolyCollection_3">
    <path d="M 141.254273 23.376089 
L 141.254273 6004.915007 
L 142.646181 6004.915007 
L 144.038088 40.844938 
L 145.429995 42.851149 
L 146.821903 44.033038 
L 148.21381 45.227295 
L 149.605717 45.216983 
L 150.997624 45.810237 
L 152.389532 45.523435 
L 153.781439 45.993999 
L 155.173346 45.817013 
L 156.565254 46.084396 
L 157.957161 45.796838 
L 159.349068 45.770349 
L 160.740976 45.708889 
L 162.132883 46.187783 
L 163.52479 45.984644 
L 164.916698 46.145379 
L 166.308605 45.715464 
L 167.700512 46.095529 
L 169.092419 45.723191 
L 170.484327 45.848253 
L 171.876234 45.786985 
L 173.268141 45.714634 
L 174.660049 46.048246 
L 176.051956 45.884425 
L 177.443863 46.046192 
L 178.835771 45.70618 
L 180.227678 45.752085 
L 181.619585 46.25817 
L 183.011493 45.888283 
L 184.4034 45.854401 
L 185.795307 45.855557 
L 187.187215 45.970611 
L 188.579122 45.954078 
L 189.971029 45.887398 
L 191.362936 45.793411 
L 192.754844 45.99237 
L 194.146751 45.961695 
L 195.538658 45.954424 
L 196.930566 46.027831 
L 198.322473 46.096255 
L 199.71438 45.684725 
L 201.106288 46.160424 
L 202.498195 45.629729 
L 203.890102 45.788013 
L 205.28201 45.880342 
L 206.673917 45.731592 
L 208.065824 45.900107 
L 209.457731 45.925038 
L 209.457731 44.761564 
L 209.457731 44.761564 
L 208.065824 44.823431 
L 206.673917 44.654198 
L 205.28201 44.502073 
L 203.890102 44.474662 
L 202.498195 44.479253 
L 201.106288 44.627874 
L 199.71438 44.736554 
L 198.322473 44.318223 
L 196.930566 44.437101 
L 195.538658 44.302859 
L 194.146751 44.691107 
L 192.754844 44.090716 
L 191.362936 44.593378 
L 189.971029 44.32205 
L 188.579122 44.497336 
L 187.187215 44.755735 
L 185.795307 44.805865 
L 184.4034 44.583412 
L 183.011493 44.46998 
L 181.619585 44.503469 
L 180.227678 44.452495 
L 178.835771 44.411333 
L 177.443863 44.404791 
L 176.051956 44.693414 
L 174.660049 44.631525 
L 173.268141 44.615551 
L 171.876234 44.650168 
L 170.484327 44.661055 
L 169.092419 44.457607 
L 167.700512 44.606231 
L 166.308605 44.44071 
L 164.916698 44.069123 
L 163.52479 44.102651 
L 162.132883 44.017924 
L 160.740976 44.496551 
L 159.349068 44.505485 
L 157.957161 44.018888 
L 156.565254 44.316909 
L 155.173346 44.228465 
L 153.781439 44.132316 
L 152.389532 43.661002 
L 150.997624 43.929952 
L 149.605717 43.151348 
L 148.21381 42.766563 
L 146.821903 41.96217 
L 145.429995 39.979991 
L 144.038088 37.503311 
L 142.646181 32.976777 
L 141.254273 23.376089 
z
" clip-path="url(#pbb70f97856)" style="fill: #0000ff; fill-opacity: 0.2; stroke: #0000ff; stroke-opacity: 0.2"/>
   </g>
   <g id="FillBetweenPolyCollection_4">
    <defs>
     <path id="m6de363f7f0" d="M 141.254273 -113.613699 
L 141.254273 -108.737902 
L 142.646181 -103.128314 
L 144.038088 -99.402278 
L 145.429995 -97.125019 
L 146.821903 -95.144224 
L 148.21381 -94.001738 
L 149.605717 -92.965383 
L 150.997624 -92.461727 
L 152.389532 -91.702648 
L 153.781439 -91.653366 
L 155.173346 -91.185387 
L 156.565254 -91.086549 
L 157.957161 -90.957971 
L 159.349068 -90.879871 
L 160.740976 -90.611941 
L 162.132883 -90.281262 
L 163.52479 -90.394187 
L 164.916698 -90.344909 
L 166.308605 -90.383316 
L 167.700512 -90.060195 
L 169.092419 -90.299368 
L 170.484327 -90.095356 
L 171.876234 -90.194006 
L 173.268141 -90.25501 
L 174.660049 -89.787233 
L 176.051956 -89.942817 
L 177.443863 -89.777773 
L 178.835771 -90.098399 
L 180.227678 -89.966569 
L 181.619585 -89.476962 
L 183.011493 -89.904957 
L 184.4034 -89.841036 
L 185.795307 -89.818451 
L 187.187215 -89.716096 
L 188.579122 -89.662891 
L 189.971029 -89.653105 
L 191.362936 -89.783382 
L 192.754844 -89.601229 
L 194.146751 -89.491307 
L 195.538658 -89.555913 
L 196.930566 -89.535335 
L 198.322473 -89.503997 
L 199.71438 -89.740801 
L 201.106288 -89.358145 
L 202.498195 -89.808091 
L 203.890102 -89.576317 
L 205.28201 -89.470394 
L 206.673917 -89.70283 
L 208.065824 -89.517526 
L 209.457731 -89.433261 
L 209.457731 -90.592538 
L 209.457731 -90.592538 
L 208.065824 -90.565103 
L 206.673917 -90.738442 
L 205.28201 -90.905265 
L 203.890102 -90.941695 
L 202.498195 -91.030513 
L 201.106288 -90.863693 
L 199.71438 -90.690489 
L 198.322473 -91.064222 
L 196.930566 -90.919453 
L 195.538658 -91.079911 
L 194.146751 -90.882403 
L 192.754844 -91.442288 
L 191.362936 -90.885491 
L 189.971029 -91.261685 
L 188.579122 -91.083822 
L 187.187215 -90.860826 
L 185.795307 -90.745214 
L 184.4034 -91.042957 
L 183.011493 -91.178146 
L 181.619585 -91.2756 
L 180.227678 -91.225699 
L 178.835771 -91.32005 
L 177.443863 -91.398069 
L 176.051956 -91.109537 
L 174.660049 -91.292721 
L 173.268141 -91.397305 
L 171.876234 -91.336355 
L 170.484327 -91.386761 
L 169.092419 -91.550732 
L 167.700512 -91.477222 
L 166.308605 -91.675565 
L 164.916698 -92.10543 
L 163.52479 -91.892216 
L 162.132883 -92.41436 
L 160.740976 -92.115428 
L 159.349068 -92.144695 
L 157.957161 -92.766818 
L 156.565254 -92.349137 
L 155.173346 -92.777787 
L 153.781439 -93.126809 
L 152.389532 -93.957052 
L 150.997624 -93.841608 
L 149.605717 -94.869029 
L 148.21381 -95.508884 
L 146.821903 -96.783444 
L 145.429995 -98.87999 
L 144.038088 -101.104261 
L 142.646181 -105.008052 
L 141.254273 -113.613699 
z
" style="stroke: #000000; stroke-opacity: 0.2"/>
    </defs>
    <g clip-path="url(#pbb70f97856)">
     <use xlink:href="#m6de363f7f0" x="0" y="134.806076" style="fill-opacity: 0.2; stroke: #000000; stroke-opacity: 0.2"/>
    </g>
   </g>
   <g id="matplotlib.axis_3">
    <g id="xtick_3">
     <g id="line2d_18">
      <g>
       <use xlink:href="#m3e59d69fa5" x="138.90243" y="51.597942" style="stroke: #000000; stroke-width: 0.8"/>
      </g>
     </g>
    </g>
    <g id="xtick_4">
     <g id="line2d_19">
      <g>
       <use xlink:href="#m3e59d69fa5" x="185.939298" y="51.597942" style="stroke: #000000; stroke-width: 0.8"/>
      </g>
     </g>
    </g>
   </g>
   <g id="matplotlib.axis_4">
    <g id="ytick_4">
     <g id="line2d_20">
      <g>
       <use xlink:href="#m148ddfe6bb" x="137.8441" y="51.597942" style="stroke: #000000; stroke-width: 0.8"/>
      </g>
     </g>
     <g id="text_14">
      <!-- $10^{-5}$ -->
      <g transform="translate(112.966683 54.365343) scale(0.08 -0.08)">
       <defs>
        <path id="CMR17-35" d="M 730 3750 
C 794 3724 1056 3641 1325 3641 
C 1920 3641 2246 3961 2432 4140 
C 2432 4191 2432 4224 2394 4224 
C 2387 4224 2374 4224 2323 4198 
C 2099 4102 1837 4032 1517 4032 
C 1325 4032 1037 4055 723 4191 
C 653 4224 640 4224 634 4224 
C 602 4224 595 4217 595 4090 
L 595 2231 
C 595 2113 595 2080 659 2080 
C 691 2080 704 2093 736 2139 
C 941 2435 1222 2560 1542 2560 
C 1766 2560 2246 2415 2246 1293 
C 2246 1087 2246 716 2054 422 
C 1894 159 1645 25 1370 25 
C 947 25 518 319 403 812 
C 429 806 480 793 506 793 
C 589 793 749 838 749 1036 
C 749 1209 627 1280 506 1280 
C 358 1280 262 1190 262 1011 
C 262 454 704 -128 1382 -128 
C 2042 -128 2669 441 2669 1267 
C 2669 2054 2170 2662 1549 2662 
C 1222 2662 947 2540 730 2304 
L 730 3750 
z
" transform="scale(0.015625)"/>
       </defs>
       <use xlink:href="#CMR17-31" transform="scale(0.996264)"/>
       <use xlink:href="#CMR17-30" transform="translate(45.690477 0) scale(0.996264)"/>
       <use xlink:href="#CMSY10-0" transform="translate(91.380954 36.153639) scale(0.697382)"/>
       <use xlink:href="#CMR17-35" transform="translate(145.621947 36.153639) scale(0.697382)"/>
      </g>
     </g>
    </g>
    <g id="ytick_5">
     <g id="line2d_21">
      <g>
       <use xlink:href="#m148ddfe6bb" x="137.8441" y="33.648243" style="stroke: #000000; stroke-width: 0.8"/>
      </g>
     </g>
     <g id="text_15">
      <!-- $10^{-2}$ -->
      <g transform="translate(112.966683 36.415644) scale(0.08 -0.08)">
       <use xlink:href="#CMR17-31" transform="scale(0.996264)"/>
       <use xlink:href="#CMR17-30" transform="translate(45.690477 0) scale(0.996264)"/>
       <use xlink:href="#CMSY10-0" transform="translate(91.380954 36.153639) scale(0.697382)"/>
       <use xlink:href="#CMR17-32" transform="translate(145.621947 36.153639) scale(0.697382)"/>
      </g>
     </g>
    </g>
    <g id="ytick_6">
     <g id="line2d_22">
      <g>
       <use xlink:href="#m148ddfe6bb" x="137.8441" y="15.698543" style="stroke: #000000; stroke-width: 0.8"/>
      </g>
     </g>
     <g id="text_16">
      <!-- $10^{1}$ -->
      <g transform="translate(118.722822 18.465944) scale(0.08 -0.08)">
       <use xlink:href="#CMR17-31" transform="scale(0.996264)"/>
       <use xlink:href="#CMR17-30" transform="translate(45.690477 0) scale(0.996264)"/>
       <use xlink:href="#CMR17-31" transform="translate(91.380954 36.153639) scale(0.697382)"/>
      </g>
     </g>
    </g>
   </g>
   <g id="line2d_23">
    <path d="M 141.254273 25.796257 
L 142.646181 34.787014 
L 144.038088 38.670348 
L 145.429995 41.037684 
L 146.821903 42.796545 
L 148.21381 43.715918 
L 149.605717 43.984097 
L 150.997624 44.703607 
L 152.389532 44.428813 
L 153.781439 44.89988 
L 155.173346 44.903191 
L 156.565254 45.053183 
L 157.957161 44.758675 
L 159.349068 45.061703 
L 160.740976 45.032649 
L 162.132883 44.882652 
L 163.52479 44.876863 
L 164.916698 44.905171 
L 166.308605 45.000688 
L 167.700512 45.245612 
L 169.092419 45.014099 
L 170.484327 45.187434 
L 171.876234 45.156898 
L 173.268141 45.107411 
L 174.660049 45.244507 
L 176.051956 45.221272 
L 177.443863 45.097987 
L 178.835771 44.978923 
L 180.227678 45.021877 
L 181.619585 45.235437 
L 183.011493 45.083542 
L 184.4034 45.14196 
L 185.795307 45.278063 
L 187.187215 45.292811 
L 188.579122 45.124933 
L 189.971029 44.988592 
L 191.362936 45.124727 
L 192.754844 44.87133 
L 194.146751 45.249502 
L 195.538658 44.999579 
L 196.930566 45.112595 
L 198.322473 45.058038 
L 199.71438 45.16763 
L 201.106288 45.282765 
L 202.498195 44.991333 
L 203.890102 45.04923 
L 205.28201 45.100877 
L 206.673917 45.137451 
L 208.065824 45.306399 
L 209.457731 45.278719 
" clip-path="url(#pbb70f97856)" style="fill: none; stroke: #0000ff; stroke-width: 1.5; stroke-linecap: square"/>
   </g>
   <g id="line2d_24">
    <path d="M 141.254273 22.623255 
L 142.646181 30.571501 
L 144.038088 34.415881 
L 145.429995 36.658145 
L 146.821903 38.71507 
L 148.21381 39.942994 
L 149.605717 40.718309 
L 150.997624 41.56387 
L 152.389532 41.739044 
L 153.781439 42.312921 
L 155.173346 42.70437 
L 156.565254 43.012291 
L 157.957161 42.789365 
L 159.349068 43.217584 
L 160.740976 43.335136 
L 162.132883 43.245266 
L 163.52479 43.556386 
L 164.916698 43.434576 
L 166.308605 43.697119 
L 167.700512 43.941948 
L 169.092419 43.806415 
L 170.484327 43.985604 
L 171.876234 43.97862 
L 173.268141 43.917649 
L 174.660049 44.158561 
L 176.051956 44.21496 
L 177.443863 44.093857 
L 178.835771 44.02571 
L 180.227678 44.134411 
L 181.619585 44.277182 
L 183.011493 44.187314 
L 184.4034 44.295197 
L 185.795307 44.483144 
L 187.187215 44.455081 
L 188.579122 44.33678 
L 189.971029 44.226147 
L 191.362936 44.413642 
L 192.754844 44.124566 
L 194.146751 44.527222 
L 195.538658 44.378003 
L 196.930566 44.487593 
L 198.322473 44.406583 
L 199.71438 44.547284 
L 201.106288 44.587611 
L 202.498195 44.315543 
L 203.890102 44.458404 
L 205.28201 44.520439 
L 206.673917 44.534186 
L 208.065824 44.712324 
L 209.457731 44.729057 
" clip-path="url(#pbb70f97856)" style="fill: none; stroke: #000000; stroke-width: 1.5; stroke-linecap: square"/>
   </g>
   <g id="line2d_25">
    <path d="M 141.254273 37.304789 
L 142.646181 38.803757 
L 144.038088 41.278101 
L 145.429995 44.342266 
L 146.821903 45.384541 
L 148.21381 45.887988 
L 149.605717 45.629099 
L 150.997624 46.291776 
L 152.389532 45.677927 
L 153.781439 46.776136 
L 155.173346 46.097943 
L 156.565254 46.285982 
L 157.957161 46.347319 
L 159.349068 46.006266 
L 160.740976 45.896187 
L 162.132883 46.263199 
L 163.52479 45.787049 
L 164.916698 46.857506 
L 166.308605 46.123001 
L 167.700512 46.415315 
L 169.092419 46.05367 
L 170.484327 46.508529 
L 171.876234 46.012382 
L 173.268141 46.106553 
L 174.660049 46.241934 
L 176.051956 46.349323 
L 177.443863 46.11087 
L 178.835771 46.190108 
L 180.227678 46.521715 
L 181.619585 47.041829 
L 183.011493 46.192098 
L 184.4034 46.503552 
L 185.795307 45.886997 
L 187.187215 46.182141 
L 188.579122 46.388184 
L 189.971029 46.382145 
L 191.362936 46.124656 
L 192.754844 45.929211 
L 194.146751 46.401018 
L 195.538658 46.122888 
L 196.930566 46.165578 
L 198.322473 46.079291 
L 199.71438 45.911445 
L 201.106288 46.278832 
L 202.498195 46.137029 
L 203.890102 46.098062 
L 205.28201 46.385761 
L 206.673917 46.266083 
L 208.065824 46.523675 
L 209.457731 45.964495 
" clip-path="url(#pbb70f97856)" style="fill: none; stroke-dasharray: 5.55,2.4; stroke-dashoffset: 0; stroke: #0000ff; stroke-width: 1.5"/>
   </g>
   <g id="line2d_26">
    <path d="M 141.254273 21.681776 
L 142.646181 30.302675 
L 144.038088 35.849752 
L 145.429995 38.415542 
L 146.821903 40.63404 
L 148.21381 41.434939 
L 149.605717 42.214435 
L 150.997624 42.50778 
L 152.389532 42.062724 
L 153.781439 43.129917 
L 155.173346 43.294269 
L 156.565254 42.687265 
L 157.957161 43.112663 
L 159.349068 43.993706 
L 160.740976 43.837769 
L 162.132883 42.342866 
L 163.52479 42.629728 
L 164.916698 42.479166 
L 166.308605 43.619414 
L 167.700512 43.737686 
L 169.092419 43.726379 
L 170.484327 43.973206 
L 171.876234 44.046377 
L 173.268141 44.187248 
L 174.660049 43.258708 
L 176.051956 44.190151 
L 177.443863 43.291722 
L 178.835771 43.916024 
L 180.227678 43.729305 
L 181.619585 42.968952 
L 183.011493 43.302281 
L 184.4034 43.95161 
L 185.795307 44.000171 
L 187.187215 43.692523 
L 188.579122 43.442723 
L 189.971029 43.583173 
L 191.362936 43.948865 
L 192.754844 42.756735 
L 194.146751 44.009555 
L 195.538658 42.944872 
L 196.930566 43.512697 
L 198.322473 42.678789 
L 199.71438 44.036402 
L 201.106288 43.707618 
L 202.498195 43.954524 
L 203.890102 43.773999 
L 205.28201 43.401473 
L 206.673917 43.90596 
L 208.065824 44.294613 
L 209.457731 43.596377 
" clip-path="url(#pbb70f97856)" style="fill: none; stroke-dasharray: 1.5,2.475; stroke-dashoffset: 0; stroke: #0000ff; stroke-width: 1.5"/>
   </g>
   <g id="line2d_27">
    <path d="M 141.254273 24.982401 
L 142.646181 32.201194 
L 144.038088 35.482196 
L 145.429995 37.985801 
L 146.821903 40.738337 
L 148.21381 41.298281 
L 149.605717 42.096015 
L 150.997624 43.03484 
L 152.389532 42.95002 
L 153.781439 43.851489 
L 155.173346 44.273504 
L 156.565254 44.009438 
L 157.957161 44.58394 
L 159.349068 44.326557 
L 160.740976 44.497487 
L 162.132883 44.5408 
L 163.52479 44.485161 
L 164.916698 45.126176 
L 166.308605 44.881811 
L 167.700512 45.249122 
L 169.092419 44.87696 
L 170.484327 45.493934 
L 171.876234 44.885808 
L 173.268141 44.755987 
L 174.660049 45.368377 
L 176.051956 45.2299 
L 177.443863 45.065152 
L 178.835771 45.201614 
L 180.227678 45.47995 
L 181.619585 45.986951 
L 183.011493 45.329964 
L 184.4034 45.513597 
L 185.795307 45.050175 
L 187.187215 45.345491 
L 188.579122 45.615431 
L 189.971029 45.572471 
L 191.362936 45.3412 
L 192.754844 45.073921 
L 194.146751 45.582992 
L 195.538658 45.540411 
L 196.930566 45.54509 
L 198.322473 45.494445 
L 199.71438 45.325206 
L 201.106288 45.519733 
L 202.498195 45.672437 
L 203.890102 45.452389 
L 205.28201 45.84314 
L 206.673917 45.790572 
L 208.065824 45.893306 
L 209.457731 45.401582 
" clip-path="url(#pbb70f97856)" style="fill: none; stroke-dasharray: 5.55,2.4; stroke-dashoffset: 0; stroke: #000000; stroke-width: 1.5"/>
   </g>
   <g id="line2d_28">
    <path d="M 141.254273 18.670441 
L 142.646181 28.177382 
L 144.038088 32.92599 
L 145.429995 34.892786 
L 146.821903 37.35568 
L 148.21381 38.563817 
L 149.605717 38.883626 
L 150.997624 40.115323 
L 152.389532 39.404221 
L 153.781439 40.940536 
L 155.173346 41.161393 
L 156.565254 41.446659 
L 157.957161 41.205903 
L 159.349068 41.58325 
L 160.740976 41.710487 
L 162.132883 41.064691 
L 163.52479 41.823856 
L 164.916698 41.296147 
L 166.308605 42.313679 
L 167.700512 42.596047 
L 169.092419 42.460274 
L 170.484327 42.702769 
L 171.876234 43.060955 
L 173.268141 43.075242 
L 174.660049 42.079599 
L 176.051956 43.07865 
L 177.443863 42.337678 
L 178.835771 42.964691 
L 180.227678 42.763869 
L 181.619585 41.8863 
L 183.011493 42.606519 
L 184.4034 43.206579 
L 185.795307 43.254584 
L 187.187215 42.986338 
L 188.579122 42.672083 
L 189.971029 42.761429 
L 191.362936 43.152678 
L 192.754844 42.183252 
L 194.146751 43.260628 
L 195.538658 42.378329 
L 196.930566 43.153318 
L 198.322473 42.36612 
L 199.71438 43.344621 
L 201.106288 43.076466 
L 202.498195 43.207184 
L 203.890102 42.929813 
L 205.28201 42.640682 
L 206.673917 43.570015 
L 208.065824 43.684192 
L 209.457731 43.031283 
" clip-path="url(#pbb70f97856)" style="fill: none; stroke-dasharray: 1.5,2.475; stroke-dashoffset: 0; stroke: #000000; stroke-width: 1.5"/>
   </g>
   <g id="patch_10">
    <path d="M 137.8441 51.597942 
L 137.8441 15.698543 
" style="fill: none; stroke: #000000; stroke-width: 0.8; stroke-linejoin: miter; stroke-linecap: square"/>
   </g>
   <g id="patch_11">
    <path d="M 212.867904 51.597942 
L 212.867904 15.698543 
" style="fill: none; stroke: #000000; stroke-width: 0.8; stroke-linejoin: miter; stroke-linecap: square"/>
   </g>
   <g id="patch_12">
    <path d="M 137.8441 51.597942 
L 212.867904 51.597942 
" style="fill: none; stroke: #000000; stroke-width: 0.8; stroke-linejoin: miter; stroke-linecap: square"/>
   </g>
   <g id="patch_13">
    <path d="M 137.8441 15.698543 
L 212.867904 15.698543 
" style="fill: none; stroke: #000000; stroke-width: 0.8; stroke-linejoin: miter; stroke-linecap: square"/>
   </g>
   <g id="text_17">
    <!-- $\mathbf{b)}$ -->
    <g transform="translate(125.375509 9.577584) scale(0.08 -0.08)">
     <defs>
      <path id="CMBX12-62" d="M 1331 4480 
L 224 4428 
L 224 4153 
C 621 4153 666 4153 666 3896 
L 666 -26 
L 934 -26 
C 1043 96 1152 218 1254 347 
C 1581 6 1933 -64 2189 -64 
C 3072 -64 3750 476 3750 1414 
C 3750 2300 3149 2880 2272 2880 
C 1894 2880 1594 2758 1331 2552 
L 1331 4480 
z
M 1363 2242 
C 1587 2552 1920 2668 2189 2668 
C 2982 2668 2982 1847 2982 1420 
C 2982 1130 2982 761 2829 522 
C 2630 211 2330 147 2125 147 
C 1690 147 1453 457 1363 599 
L 1363 2242 
z
" transform="scale(0.015625)"/>
     </defs>
     <use xlink:href="#CMBX12-62" transform="scale(0.996264)"/>
     <use xlink:href="#CMR17-29" transform="translate(62.266501 0) scale(0.996264)"/>
    </g>
   </g>
  </g>
  <g id="axes_3">
   <g id="patch_14">
    <path d="M 36.561965 109.036981 
L 111.585769 109.036981 
L 111.585769 73.137582 
L 36.561965 73.137582 
z
" style="fill: #ffffff"/>
   </g>
   <g id="FillBetweenPolyCollection_5">
    <defs>
     <path id="mb5d3bf74b5" d="M 39.972138 -52.900438 
L 39.972138 -48.460463 
L 41.364045 -48.484635 
L 42.755953 -42.458081 
L 44.14786 -39.947456 
L 45.539767 -37.195905 
L 46.931675 -34.326982 
L 48.323582 -31.509252 
L 49.715489 -31.978354 
L 51.107397 -31.381575 
L 52.499304 -31.768281 
L 53.891211 -31.527493 
L 55.283118 -31.420031 
L 56.675026 -31.186998 
L 58.066933 -31.246552 
L 59.45884 -31.199419 
L 60.850748 -31.361632 
L 62.242655 -31.142612 
L 63.634562 -31.274045 
L 65.02647 -31.056727 
L 66.418377 -31.212591 
L 67.810284 -31.168503 
L 69.202192 -31.233244 
L 70.594099 -31.205993 
L 71.986006 -31.283176 
L 73.377913 -31.383691 
L 74.769821 -31.393218 
L 76.161728 -31.356839 
L 77.553635 -31.246307 
L 78.945543 -31.369788 
L 80.33745 -31.375012 
L 81.729357 -31.508019 
L 83.121265 -31.381844 
L 84.513172 -31.482936 
L 85.905079 -31.445446 
L 87.296987 -31.30069 
L 88.688894 -31.397814 
L 90.080801 -31.414731 
L 91.472708 -31.521279 
L 92.864616 -31.467812 
L 94.256523 -31.379015 
L 95.64843 -31.398072 
L 97.040338 -31.349632 
L 98.432245 -31.210095 
L 99.824152 -31.411604 
L 101.21606 -31.547103 
L 102.607967 -31.462757 
L 103.999874 -31.519172 
L 105.391782 -31.492342 
L 106.783689 -31.52278 
L 108.175596 -31.433426 
L 108.175596 -32.094052 
L 108.175596 -32.094052 
L 106.783689 -32.213272 
L 105.391782 -32.122686 
L 103.999874 -32.274479 
L 102.607967 -32.195959 
L 101.21606 -32.402977 
L 99.824152 -32.290423 
L 98.432245 -32.17833 
L 97.040338 -32.135117 
L 95.64843 -32.069289 
L 94.256523 -32.089543 
L 92.864616 -32.216662 
L 91.472708 -32.108047 
L 90.080801 -32.198647 
L 88.688894 -32.088713 
L 87.296987 -32.044327 
L 85.905079 -32.104046 
L 84.513172 -32.156903 
L 83.121265 -32.320351 
L 81.729357 -32.030964 
L 80.33745 -31.958084 
L 78.945543 -32.281744 
L 77.553635 -32.000809 
L 76.161728 -31.940528 
L 74.769821 -32.108793 
L 73.377913 -32.053296 
L 71.986006 -32.190186 
L 70.594099 -31.992534 
L 69.202192 -31.876382 
L 67.810284 -32.295365 
L 66.418377 -32.305382 
L 65.02647 -31.890654 
L 63.634562 -32.087041 
L 62.242655 -31.904238 
L 60.850748 -32.121986 
L 59.45884 -32.365045 
L 58.066933 -32.270743 
L 56.675026 -32.322548 
L 55.283118 -32.517088 
L 53.891211 -32.751488 
L 52.499304 -33.962217 
L 51.107397 -33.803335 
L 49.715489 -34.508524 
L 48.323582 -36.271702 
L 46.931675 -36.977636 
L 45.539767 -39.518334 
L 44.14786 -42.692565 
L 42.755953 -45.528881 
L 41.364045 -52.64468 
L 39.972138 -52.900438 
z
" style="stroke: #0000ff; stroke-opacity: 0.2"/>
    </defs>
    <g clip-path="url(#pf431a0ccc7)">
     <use xlink:href="#mb5d3bf74b5" x="0" y="134.806076" style="fill: #0000ff; fill-opacity: 0.2; stroke: #0000ff; stroke-opacity: 0.2"/>
    </g>
   </g>
   <g id="FillBetweenPolyCollection_6">
    <defs>
     <path id="me773a18c52" d="M 39.972138 -53.597864 
L 39.972138 -52.447913 
L 41.364045 -52.301746 
L 42.755953 -49.835435 
L 44.14786 -46.678329 
L 45.539767 -43.805911 
L 46.931675 -40.615927 
L 48.323582 -39.011853 
L 49.715489 -37.655586 
L 51.107397 -36.249258 
L 52.499304 -36.141766 
L 53.891211 -35.420674 
L 55.283118 -34.938819 
L 56.675026 -34.596995 
L 58.066933 -34.40636 
L 59.45884 -34.167033 
L 60.850748 -33.973085 
L 62.242655 -33.624809 
L 63.634562 -33.531655 
L 65.02647 -33.33134 
L 66.418377 -33.294828 
L 67.810284 -33.223611 
L 69.202192 -33.156414 
L 70.594099 -33.028934 
L 71.986006 -33.00338 
L 73.377913 -33.015049 
L 74.769821 -32.9672 
L 76.161728 -32.89343 
L 77.553635 -32.73176 
L 78.945543 -32.927963 
L 80.33745 -32.757035 
L 81.729357 -32.76641 
L 83.121265 -32.711108 
L 84.513172 -32.730299 
L 85.905079 -32.619416 
L 87.296987 -32.450929 
L 88.688894 -32.501877 
L 90.080801 -32.543122 
L 91.472708 -32.537765 
L 92.864616 -32.508047 
L 94.256523 -32.421473 
L 95.64843 -32.372028 
L 97.040338 -32.315657 
L 98.432245 -32.210377 
L 99.824152 -32.282658 
L 101.21606 -32.456101 
L 102.607967 -32.377581 
L 103.999874 -32.375189 
L 105.391782 -32.295089 
L 106.783689 -32.359398 
L 108.175596 -32.249962 
L 108.175596 -32.863157 
L 108.175596 -32.863157 
L 106.783689 -32.958611 
L 105.391782 -32.909793 
L 103.999874 -33.059509 
L 102.607967 -33.005386 
L 101.21606 -33.21396 
L 99.824152 -33.148966 
L 98.432245 -33.023742 
L 97.040338 -33.072094 
L 95.64843 -33.053353 
L 94.256523 -33.049321 
L 92.864616 -33.150294 
L 91.472708 -33.113014 
L 90.080801 -33.26349 
L 88.688894 -33.149369 
L 87.296987 -33.120914 
L 85.905079 -33.238142 
L 84.513172 -33.385975 
L 83.121265 -33.493367 
L 81.729357 -33.292719 
L 80.33745 -33.272336 
L 78.945543 -33.562222 
L 77.553635 -33.470372 
L 76.161728 -33.420019 
L 74.769821 -33.699666 
L 73.377913 -33.795567 
L 71.986006 -33.797497 
L 70.594099 -33.901741 
L 69.202192 -33.791797 
L 67.810284 -34.218844 
L 66.418377 -34.443337 
L 65.02647 -34.12195 
L 63.634562 -34.382675 
L 62.242655 -34.411699 
L 60.850748 -34.692797 
L 59.45884 -35.027436 
L 58.066933 -35.536583 
L 56.675026 -35.571877 
L 55.283118 -36.334476 
L 53.891211 -36.744206 
L 52.499304 -37.56417 
L 51.107397 -38.505053 
L 49.715489 -39.135694 
L 48.323582 -40.739739 
L 46.931675 -43.461531 
L 45.539767 -45.558545 
L 44.14786 -48.177162 
L 42.755953 -50.885498 
L 41.364045 -53.137872 
L 39.972138 -53.597864 
z
" style="stroke: #000000; stroke-opacity: 0.2"/>
    </defs>
    <g clip-path="url(#pf431a0ccc7)">
     <use xlink:href="#me773a18c52" x="0" y="134.806076" style="fill-opacity: 0.2; stroke: #000000; stroke-opacity: 0.2"/>
    </g>
   </g>
   <g id="matplotlib.axis_5">
    <g id="xtick_5">
     <g id="line2d_29">
      <g>
       <use xlink:href="#m3e59d69fa5" x="37.620295" y="109.036981" style="stroke: #000000; stroke-width: 0.8"/>
      </g>
     </g>
     <g id="text_18">
      <!-- $\mathdefault{0}$ -->
      <g transform="translate(35.503203 121.571783) scale(0.08 -0.08)">
       <use xlink:href="#CMR17-30" transform="scale(0.996264)"/>
      </g>
     </g>
    </g>
    <g id="xtick_6">
     <g id="line2d_30">
      <g>
       <use xlink:href="#m3e59d69fa5" x="84.657162" y="109.036981" style="stroke: #000000; stroke-width: 0.8"/>
      </g>
     </g>
     <g id="text_19">
      <!-- $\mathdefault{2000}$ -->
      <g transform="translate(76.188797 121.571783) scale(0.08 -0.08)">
       <use xlink:href="#CMR17-32" transform="scale(0.996264)"/>
       <use xlink:href="#CMR17-30" transform="translate(45.690477 0) scale(0.996264)"/>
       <use xlink:href="#CMR17-30" transform="translate(91.380954 0) scale(0.996264)"/>
       <use xlink:href="#CMR17-30" transform="translate(137.071431 0) scale(0.996264)"/>
      </g>
     </g>
    </g>
    <g id="text_20">
     <!-- $N$ -->
     <g transform="translate(70.713163 129.656331) scale(0.08 -0.08)">
      <defs>
       <path id="CMMI12-4e" d="M 4736 3682 
C 4806 3956 4909 4147 5395 4166 
C 5414 4166 5491 4172 5491 4281 
C 5491 4352 5434 4352 5408 4352 
C 5280 4352 4954 4339 4826 4339 
L 4518 4339 
C 4429 4339 4314 4352 4224 4352 
C 4186 4352 4109 4352 4109 4230 
C 4109 4166 4160 4166 4205 4166 
C 4589 4153 4614 4007 4614 3892 
C 4614 3835 4608 3816 4589 3726 
L 3866 854 
L 2496 4243 
C 2451 4345 2445 4352 2304 4352 
L 1523 4352 
C 1395 4352 1338 4352 1338 4230 
C 1338 4166 1382 4166 1504 4166 
C 1536 4166 1914 4166 1914 4109 
C 1914 4096 1901 4045 1894 4026 
L 1043 650 
C 966 338 813 204 390 185 
C 358 185 294 179 294 64 
C 294 0 358 0 378 0 
C 506 0 832 12 960 12 
L 1267 12 
C 1357 12 1466 0 1555 0 
C 1600 0 1670 0 1670 121 
C 1670 179 1606 185 1581 185 
C 1370 191 1165 230 1165 459 
C 1165 510 1178 567 1190 618 
L 2054 4026 
C 2093 3962 2093 3949 2118 3892 
L 3642 115 
C 3674 38 3686 0 3744 0 
C 3808 0 3814 19 3840 128 
L 4736 3682 
z
" transform="scale(0.015625)"/>
      </defs>
      <use xlink:href="#CMMI12-4e" transform="scale(0.996264)"/>
     </g>
    </g>
   </g>
   <g id="matplotlib.axis_6">
    <g id="ytick_7">
     <g id="line2d_31">
      <g>
       <use xlink:href="#m148ddfe6bb" x="36.561965" y="109.036981" style="stroke: #000000; stroke-width: 0.8"/>
      </g>
     </g>
     <g id="text_21">
      <!-- $10^{-3}$ -->
      <g transform="translate(11.684547 111.804382) scale(0.08 -0.08)">
       <defs>
        <path id="CMR17-33" d="M 1414 2176 
C 1984 2176 2234 1673 2234 1094 
C 2234 322 1824 25 1453 25 
C 1114 25 563 193 390 691 
C 422 678 454 678 486 678 
C 640 678 755 780 755 947 
C 755 1132 614 1216 486 1216 
C 378 1216 211 1164 211 927 
C 211 335 787 -128 1466 -128 
C 2176 -128 2720 432 2720 1087 
C 2720 1718 2208 2176 1600 2246 
C 2086 2347 2554 2776 2554 3353 
C 2554 3856 2048 4224 1472 4224 
C 890 4224 378 3862 378 3347 
C 378 3123 544 3084 627 3084 
C 762 3084 877 3167 877 3334 
C 877 3500 762 3584 627 3584 
C 602 3584 570 3584 544 3571 
C 730 3999 1235 4076 1459 4076 
C 1683 4076 2106 3966 2106 3347 
C 2106 3167 2080 2851 1862 2574 
C 1670 2329 1453 2316 1242 2297 
C 1210 2297 1062 2284 1037 2284 
C 992 2278 966 2272 966 2227 
C 966 2182 973 2176 1101 2176 
L 1414 2176 
z
" transform="scale(0.015625)"/>
       </defs>
       <use xlink:href="#CMR17-31" transform="scale(0.996264)"/>
       <use xlink:href="#CMR17-30" transform="translate(45.690477 0) scale(0.996264)"/>
       <use xlink:href="#CMSY10-0" transform="translate(91.380954 36.153639) scale(0.697382)"/>
       <use xlink:href="#CMR17-33" transform="translate(145.621947 36.153639) scale(0.697382)"/>
      </g>
     </g>
    </g>
    <g id="ytick_8">
     <g id="line2d_32">
      <g>
       <use xlink:href="#m148ddfe6bb" x="36.561965" y="91.087282" style="stroke: #000000; stroke-width: 0.8"/>
      </g>
     </g>
     <g id="text_22">
      <!-- $10^{-1}$ -->
      <g transform="translate(11.684547 93.854683) scale(0.08 -0.08)">
       <use xlink:href="#CMR17-31" transform="scale(0.996264)"/>
       <use xlink:href="#CMR17-30" transform="translate(45.690477 0) scale(0.996264)"/>
       <use xlink:href="#CMSY10-0" transform="translate(91.380954 36.153639) scale(0.697382)"/>
       <use xlink:href="#CMR17-31" transform="translate(145.621947 36.153639) scale(0.697382)"/>
      </g>
     </g>
    </g>
    <g id="ytick_9">
     <g id="line2d_33">
      <g>
       <use xlink:href="#m148ddfe6bb" x="36.561965" y="73.137582" style="stroke: #000000; stroke-width: 0.8"/>
      </g>
     </g>
     <g id="text_23">
      <!-- $10^{1}$ -->
      <g transform="translate(17.440687 75.904983) scale(0.08 -0.08)">
       <use xlink:href="#CMR17-31" transform="scale(0.996264)"/>
       <use xlink:href="#CMR17-30" transform="translate(45.690477 0) scale(0.996264)"/>
       <use xlink:href="#CMR17-31" transform="translate(91.380954 36.153639) scale(0.697382)"/>
      </g>
     </g>
    </g>
    <g id="text_24">
     <!-- $\mathcal{L}$ -->
     <g transform="translate(9.134802 93.999176) rotate(-90) scale(0.08 -0.08)">
      <use xlink:href="#CMSY10-4c" transform="scale(0.996264)"/>
     </g>
    </g>
   </g>
   <g id="line2d_34">
    <path d="M 39.972138 83.524906 
L 41.364045 83.710917 
L 42.755953 90.517693 
L 44.14786 93.249234 
L 45.539767 96.278482 
L 46.931675 98.932657 
L 48.323582 100.229421 
L 49.715489 101.360839 
L 51.107397 102.028483 
L 52.499304 101.788459 
L 53.891211 102.618736 
L 55.283118 102.799046 
L 56.675026 103.010095 
L 58.066933 103.013885 
L 59.45884 102.980433 
L 60.850748 103.045756 
L 62.242655 103.264078 
L 63.634562 103.104375 
L 65.02647 103.310125 
L 66.418377 103.008917 
L 67.810284 103.03356 
L 69.202192 103.238013 
L 70.594099 103.187007 
L 71.986006 103.043071 
L 73.377913 103.073221 
L 74.769821 103.038672 
L 76.161728 103.146477 
L 77.553635 103.164291 
L 78.945543 102.953699 
L 80.33745 103.128636 
L 81.729357 103.027821 
L 83.121265 102.926799 
L 84.513172 102.971608 
L 85.905079 103.017436 
L 87.296987 103.11586 
L 88.688894 103.047524 
L 90.080801 102.979713 
L 91.472708 102.980382 
L 92.864616 102.945883 
L 94.256523 103.055629 
L 95.64843 103.057965 
L 97.040338 103.043948 
L 98.432245 103.081876 
L 99.824152 102.930347 
L 101.21606 102.807592 
L 102.607967 102.959503 
L 103.999874 102.890984 
L 105.391782 102.985834 
L 106.783689 102.92278 
L 108.175596 103.028358 
" clip-path="url(#pf431a0ccc7)" style="fill: none; stroke: #0000ff; stroke-width: 1.5; stroke-linecap: square"/>
   </g>
   <g id="line2d_35">
    <path d="M 39.972138 81.740932 
L 41.364045 82.06389 
L 42.755953 84.410355 
L 44.14786 87.306725 
L 45.539767 90.026157 
L 46.931675 92.513232 
L 48.323582 94.835307 
L 49.715489 96.340598 
L 51.107397 97.267957 
L 52.499304 97.88858 
L 53.891211 98.667726 
L 55.283118 99.107292 
L 56.675026 99.69124 
L 58.066933 99.793781 
L 59.45884 100.185149 
L 60.850748 100.456547 
L 62.242655 100.767998 
L 63.634562 100.825731 
L 65.02647 101.05942 
L 66.418377 100.894844 
L 67.810284 101.05317 
L 69.202192 101.319038 
L 70.594099 101.316359 
L 71.986006 101.385449 
L 73.377913 101.381264 
L 74.769821 101.455463 
L 76.161728 101.640466 
L 77.553635 101.687541 
L 78.945543 101.548097 
L 80.33745 101.782881 
L 81.729357 101.767635 
L 83.121265 101.684247 
L 84.513172 101.734168 
L 85.905079 101.865033 
L 87.296987 102.005777 
L 88.688894 101.967023 
L 90.080801 101.886152 
L 91.472708 101.970084 
L 92.864616 101.963692 
L 94.256523 102.058052 
L 95.64843 102.078518 
L 97.040338 102.093879 
L 98.432245 102.167839 
L 99.824152 102.066246 
L 101.21606 101.952655 
L 102.607967 102.101966 
L 103.999874 102.073728 
L 105.391782 102.19153 
L 106.783689 102.135568 
L 108.175596 102.237471 
" clip-path="url(#pf431a0ccc7)" style="fill: none; stroke: #000000; stroke-width: 1.5; stroke-linecap: square"/>
   </g>
   <g id="line2d_36">
    <path d="M 39.972138 96.918707 
L 41.364045 90.179808 
L 42.755953 93.069118 
L 44.14786 95.31239 
L 45.539767 98.049637 
L 46.931675 102.048692 
L 48.323582 102.081851 
L 49.715489 103.22646 
L 51.107397 103.619797 
L 52.499304 103.436483 
L 53.891211 103.747901 
L 55.283118 103.746587 
L 56.675026 103.805299 
L 58.066933 103.907821 
L 59.45884 103.957826 
L 60.850748 103.849616 
L 62.242655 104.056081 
L 63.634562 103.697106 
L 65.02647 103.9655 
L 66.418377 103.633177 
L 67.810284 103.951057 
L 69.202192 103.821382 
L 70.594099 103.870234 
L 71.986006 103.545898 
L 73.377913 103.802896 
L 74.769821 103.796324 
L 76.161728 103.594361 
L 77.553635 103.961438 
L 78.945543 103.605799 
L 80.33745 103.75955 
L 81.729357 103.497556 
L 83.121265 103.923672 
L 84.513172 103.796326 
L 85.905079 103.502478 
L 87.296987 103.771835 
L 88.688894 104.068965 
L 90.080801 103.672358 
L 91.472708 103.553215 
L 92.864616 103.748495 
L 94.256523 103.535788 
L 95.64843 103.812186 
L 97.040338 103.823707 
L 98.432245 103.846401 
L 99.824152 103.77507 
L 101.21606 103.622212 
L 102.607967 103.560387 
L 103.999874 103.654624 
L 105.391782 103.623472 
L 106.783689 103.510575 
L 108.175596 103.559442 
" clip-path="url(#pf431a0ccc7)" style="fill: none; stroke-dasharray: 5.55,2.4; stroke-dashoffset: 0; stroke: #0000ff; stroke-width: 1.5"/>
   </g>
   <g id="line2d_37">
    <path d="M 39.972138 82.112432 
L 41.364045 82.112432 
L 42.755953 87.880237 
L 44.14786 90.847406 
L 45.539767 93.598298 
L 46.931675 96.516628 
L 48.323582 95.181059 
L 49.715489 98.373655 
L 51.107397 99.563832 
L 52.499304 99.883582 
L 53.891211 101.465404 
L 55.283118 101.360774 
L 56.675026 101.514313 
L 58.066933 101.973616 
L 59.45884 101.855431 
L 60.850748 102.196601 
L 62.242655 102.231617 
L 63.634562 102.079336 
L 65.02647 102.20746 
L 66.418377 101.134791 
L 67.810284 101.209204 
L 69.202192 102.456372 
L 70.594099 102.239636 
L 71.986006 101.819118 
L 73.377913 102.259884 
L 74.769821 102.172191 
L 76.161728 102.459335 
L 77.553635 102.403211 
L 78.945543 101.626745 
L 80.33745 102.445397 
L 81.729357 102.333111 
L 83.121265 101.79261 
L 84.513172 102.251261 
L 85.905079 102.161713 
L 87.296987 102.218575 
L 88.688894 102.443434 
L 90.080801 101.993037 
L 91.472708 102.210007 
L 92.864616 102.212963 
L 94.256523 102.209493 
L 95.64843 102.280836 
L 97.040338 102.397162 
L 98.432245 101.969774 
L 99.824152 101.68399 
L 101.21606 101.985474 
L 102.607967 102.264607 
L 103.999874 102.013906 
L 105.391782 102.372193 
L 106.783689 102.064413 
L 108.175596 102.157886 
" clip-path="url(#pf431a0ccc7)" style="fill: none; stroke-dasharray: 1.5,2.475; stroke-dashoffset: 0; stroke: #0000ff; stroke-width: 1.5"/>
   </g>
   <g id="line2d_38">
    <path d="M 39.972138 82.140291 
L 41.364045 82.641323 
L 42.755953 85.397477 
L 44.14786 88.914262 
L 45.539767 91.897323 
L 46.931675 94.316214 
L 48.323582 96.441646 
L 49.715489 97.47588 
L 51.107397 98.935371 
L 52.499304 98.898713 
L 53.891211 99.774462 
L 55.283118 100.097 
L 56.675026 100.463982 
L 58.066933 100.834191 
L 59.45884 100.944663 
L 60.850748 101.030457 
L 62.242655 101.442003 
L 63.634562 101.480099 
L 65.02647 101.691773 
L 66.418377 101.61072 
L 67.810284 101.736545 
L 69.202192 101.854855 
L 70.594099 102.046871 
L 71.986006 101.925158 
L 73.377913 102.142417 
L 74.769821 102.152204 
L 76.161728 102.108881 
L 77.553635 102.345426 
L 78.945543 102.273253 
L 80.33745 102.295723 
L 81.729357 102.221195 
L 83.121265 102.514791 
L 84.513172 102.650127 
L 85.905079 102.306864 
L 87.296987 102.663888 
L 88.688894 102.690511 
L 90.080801 102.405305 
L 91.472708 102.425624 
L 92.864616 102.60831 
L 94.256523 102.451129 
L 95.64843 102.830232 
L 97.040338 102.815955 
L 98.432245 102.904059 
L 99.824152 102.809285 
L 101.21606 102.716091 
L 102.607967 102.700472 
L 103.999874 102.727893 
L 105.391782 102.723466 
L 106.783689 102.686854 
L 108.175596 102.715879 
" clip-path="url(#pf431a0ccc7)" style="fill: none; stroke-dasharray: 5.55,2.4; stroke-dashoffset: 0; stroke: #000000; stroke-width: 1.5"/>
   </g>
   <g id="line2d_39">
    <path d="M 39.972138 80.373049 
L 41.364045 80.794395 
L 42.755953 83.581541 
L 44.14786 85.176207 
L 45.539767 88.163014 
L 46.931675 89.175897 
L 48.323582 92.870364 
L 49.715489 94.746703 
L 51.107397 94.724474 
L 52.499304 96.075024 
L 53.891211 97.480521 
L 55.283118 97.17263 
L 56.675026 98.806999 
L 58.066933 98.649 
L 59.45884 99.013511 
L 60.850748 99.510691 
L 62.242655 99.896414 
L 63.634562 99.741921 
L 65.02647 100.179482 
L 66.418377 98.937465 
L 67.810284 99.441302 
L 69.202192 100.311702 
L 70.594099 100.109765 
L 71.986006 100.151599 
L 73.377913 100.320047 
L 74.769821 100.623661 
L 76.161728 101.095977 
L 77.553635 100.889893 
L 78.945543 100.787884 
L 80.33745 101.261336 
L 81.729357 101.084783 
L 83.121265 100.830009 
L 84.513172 100.901524 
L 85.905079 100.949181 
L 87.296987 101.290854 
L 88.688894 101.3425 
L 90.080801 100.960023 
L 91.472708 101.139506 
L 92.864616 101.324723 
L 94.256523 101.305376 
L 95.64843 101.329984 
L 97.040338 101.451712 
L 98.432245 101.296771 
L 99.824152 100.734005 
L 101.21606 101.315456 
L 102.607967 101.534551 
L 103.999874 101.348779 
L 105.391782 101.484122 
L 106.783689 101.377454 
L 108.175596 101.551683 
" clip-path="url(#pf431a0ccc7)" style="fill: none; stroke-dasharray: 1.5,2.475; stroke-dashoffset: 0; stroke: #000000; stroke-width: 1.5"/>
   </g>
   <g id="patch_15">
    <path d="M 36.561965 109.036981 
L 36.561965 73.137582 
" style="fill: none; stroke: #000000; stroke-width: 0.8; stroke-linejoin: miter; stroke-linecap: square"/>
   </g>
   <g id="patch_16">
    <path d="M 111.585769 109.036981 
L 111.585769 73.137582 
" style="fill: none; stroke: #000000; stroke-width: 0.8; stroke-linejoin: miter; stroke-linecap: square"/>
   </g>
   <g id="patch_17">
    <path d="M 36.561965 109.036981 
L 111.585769 109.036981 
" style="fill: none; stroke: #000000; stroke-width: 0.8; stroke-linejoin: miter; stroke-linecap: square"/>
   </g>
   <g id="patch_18">
    <path d="M 36.561965 73.137582 
L 111.585769 73.137582 
" style="fill: none; stroke: #000000; stroke-width: 0.8; stroke-linejoin: miter; stroke-linecap: square"/>
   </g>
   <g id="text_25">
    <!-- $\mathbf{c)}$ -->
    <g transform="translate(25.178203 67.016623) scale(0.08 -0.08)">
     <defs>
      <path id="CMBX12-63" d="M 2995 724 
C 2995 801 2925 801 2861 801 
C 2758 801 2752 795 2720 718 
C 2675 596 2502 166 1914 166 
C 1011 166 1011 1141 1011 1430 
C 1011 1808 1018 2649 1856 2649 
C 1901 2649 2278 2636 2278 2604 
C 2278 2598 2272 2591 2259 2585 
C 2240 2566 2157 2469 2157 2309 
C 2157 2039 2374 1930 2534 1930 
C 2669 1930 2912 2014 2912 2315 
C 2912 2841 2176 2880 1830 2880 
C 691 2880 243 2136 243 1398 
C 243 525 851 -64 1792 -64 
C 2797 -64 2995 679 2995 724 
z
" transform="scale(0.015625)"/>
     </defs>
     <use xlink:href="#CMBX12-63" transform="scale(0.996264)"/>
     <use xlink:href="#CMR17-29" transform="translate(49.8132 0) scale(0.996264)"/>
    </g>
   </g>
  </g>
  <g id="axes_4">
   <g id="patch_19">
    <path d="M 137.8441 109.036981 
L 212.867904 109.036981 
L 212.867904 73.137582 
L 137.8441 73.137582 
z
" style="fill: #ffffff"/>
   </g>
   <g id="FillBetweenPolyCollection_7">
    <path d="M 141.254273 76.185958 
L 141.254273 9047.987428 
L 142.646181 97.909761 
L 144.038088 99.956876 
L 145.429995 100.939457 
L 146.821903 102.164127 
L 148.21381 103.84529 
L 149.605717 103.455456 
L 150.997624 103.622106 
L 152.389532 104.477501 
L 153.781439 104.124144 
L 155.173346 103.904338 
L 156.565254 104.273386 
L 157.957161 103.97672 
L 159.349068 104.03505 
L 160.740976 104.851035 
L 162.132883 104.285863 
L 163.52479 104.277556 
L 164.916698 104.432182 
L 166.308605 104.149234 
L 167.700512 104.02393 
L 169.092419 104.363695 
L 170.484327 104.159055 
L 171.876234 104.108647 
L 173.268141 104.054186 
L 174.660049 103.884863 
L 176.051956 103.969668 
L 177.443863 104.449777 
L 178.835771 104.236723 
L 180.227678 103.981653 
L 181.619585 104.415548 
L 183.011493 104.191487 
L 184.4034 103.93667 
L 185.795307 104.073707 
L 187.187215 104.00462 
L 188.579122 104.506605 
L 189.971029 104.060458 
L 191.362936 104.017752 
L 192.754844 103.846444 
L 194.146751 104.003274 
L 195.538658 103.873648 
L 196.930566 104.161018 
L 198.322473 104.068289 
L 199.71438 104.376441 
L 201.106288 104.180026 
L 202.498195 104.205247 
L 203.890102 104.37645 
L 205.28201 104.06474 
L 206.673917 104.313369 
L 208.065824 104.075693 
L 209.457731 104.168941 
L 209.457731 101.428949 
L 209.457731 101.428949 
L 208.065824 101.715057 
L 206.673917 101.697871 
L 205.28201 101.849709 
L 203.890102 102.105021 
L 202.498195 101.77449 
L 201.106288 102.42828 
L 199.71438 102.078618 
L 198.322473 102.348888 
L 196.930566 102.036389 
L 195.538658 101.734917 
L 194.146751 102.262563 
L 192.754844 101.998007 
L 191.362936 102.552564 
L 189.971029 102.665749 
L 188.579122 102.029532 
L 187.187215 102.450888 
L 185.795307 102.539437 
L 184.4034 102.046751 
L 183.011493 102.11033 
L 181.619585 102.29289 
L 180.227678 102.143125 
L 178.835771 101.882715 
L 177.443863 102.21601 
L 176.051956 102.154161 
L 174.660049 102.182329 
L 173.268141 101.934095 
L 171.876234 102.553396 
L 170.484327 102.459836 
L 169.092419 102.277999 
L 167.700512 102.548454 
L 166.308605 102.300608 
L 164.916698 101.982005 
L 163.52479 101.894146 
L 162.132883 101.945789 
L 160.740976 102.039112 
L 159.349068 101.800551 
L 157.957161 102.232963 
L 156.565254 101.97353 
L 155.173346 101.89867 
L 153.781439 102.246665 
L 152.389532 101.758522 
L 150.997624 101.86313 
L 149.605717 100.597289 
L 148.21381 99.895686 
L 146.821903 99.332144 
L 145.429995 97.233586 
L 144.038088 94.450608 
L 142.646181 88.95027 
L 141.254273 76.185958 
z
" clip-path="url(#p8b25781980)" style="fill: #0000ff; fill-opacity: 0.2; stroke: #0000ff; stroke-opacity: 0.2"/>
   </g>
   <g id="FillBetweenPolyCollection_8">
    <defs>
     <path id="m5c85a22af0" d="M 141.254273 -61.056557 
L 141.254273 -59.423212 
L 142.646181 -47.881422 
L 144.038088 -42.636449 
L 145.429995 -40.089539 
L 146.821903 -38.541193 
L 148.21381 -37.086638 
L 149.605717 -36.22185 
L 150.997624 -35.924312 
L 152.389532 -34.719061 
L 153.781439 -34.64182 
L 155.173346 -34.537318 
L 156.565254 -33.86208 
L 157.957161 -33.670975 
L 159.349068 -33.539995 
L 160.740976 -32.724061 
L 162.132883 -32.978326 
L 163.52479 -32.863788 
L 164.916698 -32.647505 
L 166.308605 -32.758789 
L 167.700512 -32.707482 
L 169.092419 -32.366466 
L 170.484327 -32.467732 
L 171.876234 -32.489176 
L 173.268141 -32.61599 
L 174.660049 -32.577781 
L 176.051956 -32.359581 
L 177.443863 -32.048653 
L 178.835771 -32.112786 
L 180.227678 -32.186401 
L 181.619585 -31.890645 
L 183.011493 -31.85295 
L 184.4034 -32.202653 
L 185.795307 -32.080296 
L 187.187215 -32.062209 
L 188.579122 -31.506131 
L 189.971029 -31.893898 
L 191.362936 -32.033887 
L 192.754844 -32.097629 
L 194.146751 -31.933026 
L 195.538658 -32.074913 
L 196.930566 -31.733184 
L 198.322473 -31.827139 
L 199.71438 -31.463249 
L 201.106288 -31.670603 
L 202.498195 -31.563628 
L 203.890102 -31.41746 
L 205.28201 -31.770457 
L 206.673917 -31.572767 
L 208.065824 -31.702771 
L 209.457731 -31.626012 
L 209.457731 -34.394199 
L 209.457731 -34.394199 
L 208.065824 -34.042579 
L 206.673917 -34.137617 
L 205.28201 -34.04113 
L 203.890102 -33.786126 
L 202.498195 -34.210884 
L 201.106288 -33.54074 
L 199.71438 -33.906609 
L 198.322473 -33.621245 
L 196.930566 -33.893471 
L 195.538658 -34.326329 
L 194.146751 -33.806598 
L 192.754844 -34.02804 
L 191.362936 -33.570288 
L 189.971029 -33.449019 
L 188.579122 -34.121167 
L 187.187215 -33.666887 
L 185.795307 -33.644403 
L 184.4034 -34.191757 
L 183.011493 -34.100921 
L 181.619585 -33.988431 
L 180.227678 -34.130615 
L 178.835771 -34.533824 
L 177.443863 -34.180518 
L 176.051956 -34.355186 
L 174.660049 -34.350112 
L 173.268141 -34.570663 
L 171.876234 -34.149385 
L 170.484327 -34.188696 
L 169.092419 -34.715111 
L 167.700512 -34.458755 
L 166.308605 -34.615263 
L 164.916698 -35.104293 
L 163.52479 -35.333667 
L 162.132883 -35.494413 
L 160.740976 -35.295354 
L 159.349068 -35.818232 
L 157.957161 -35.550738 
L 156.565254 -36.087904 
L 155.173346 -36.449807 
L 153.781439 -36.134678 
L 152.389532 -37.074928 
L 150.997624 -37.626515 
L 149.605717 -39.080314 
L 148.21381 -39.673486 
L 146.821903 -41.047131 
L 145.429995 -43.273907 
L 144.038088 -46.369159 
L 142.646181 -50.428696 
L 141.254273 -61.056557 
z
" style="stroke: #000000; stroke-opacity: 0.2"/>
    </defs>
    <g clip-path="url(#p8b25781980)">
     <use xlink:href="#m5c85a22af0" x="0" y="134.806076" style="fill-opacity: 0.2; stroke: #000000; stroke-opacity: 0.2"/>
    </g>
   </g>
   <g id="matplotlib.axis_7">
    <g id="xtick_7">
     <g id="line2d_40">
      <g>
       <use xlink:href="#m3e59d69fa5" x="138.90243" y="109.036981" style="stroke: #000000; stroke-width: 0.8"/>
      </g>
     </g>
     <g id="text_26">
      <!-- $\mathdefault{0}$ -->
      <g transform="translate(136.785339 121.571783) scale(0.08 -0.08)">
       <use xlink:href="#CMR17-30" transform="scale(0.996264)"/>
      </g>
     </g>
    </g>
    <g id="xtick_8">
     <g id="line2d_41">
      <g>
       <use xlink:href="#m3e59d69fa5" x="185.939298" y="109.036981" style="stroke: #000000; stroke-width: 0.8"/>
      </g>
     </g>
     <g id="text_27">
      <!-- $\mathdefault{2000}$ -->
      <g transform="translate(177.470932 121.571783) scale(0.08 -0.08)">
       <use xlink:href="#CMR17-32" transform="scale(0.996264)"/>
       <use xlink:href="#CMR17-30" transform="translate(45.690477 0) scale(0.996264)"/>
       <use xlink:href="#CMR17-30" transform="translate(91.380954 0) scale(0.996264)"/>
       <use xlink:href="#CMR17-30" transform="translate(137.071431 0) scale(0.996264)"/>
      </g>
     </g>
    </g>
    <g id="text_28">
     <!-- $N$ -->
     <g transform="translate(171.995299 129.656331) scale(0.08 -0.08)">
      <use xlink:href="#CMMI12-4e" transform="scale(0.996264)"/>
     </g>
    </g>
   </g>
   <g id="matplotlib.axis_8">
    <g id="ytick_10">
     <g id="line2d_42">
      <g>
       <use xlink:href="#m148ddfe6bb" x="137.8441" y="109.036981" style="stroke: #000000; stroke-width: 0.8"/>
      </g>
     </g>
     <g id="text_29">
      <!-- $10^{-4}$ -->
      <g transform="translate(112.966683 111.804382) scale(0.08 -0.08)">
       <defs>
        <path id="CMR17-34" d="M 2150 4147 
C 2150 4281 2144 4288 2029 4288 
L 128 1254 
L 128 1088 
L 1779 1088 
L 1779 460 
C 1779 230 1766 166 1318 166 
L 1197 166 
L 1197 0 
C 1402 12 1747 12 1965 12 
C 2182 12 2528 12 2733 0 
L 2733 166 
L 2611 166 
C 2163 166 2150 230 2150 460 
L 2150 1088 
L 2803 1088 
L 2803 1254 
L 2150 1254 
L 2150 4147 
z
M 1798 3723 
L 1798 1254 
L 256 1254 
L 1798 3723 
z
" transform="scale(0.015625)"/>
       </defs>
       <use xlink:href="#CMR17-31" transform="scale(0.996264)"/>
       <use xlink:href="#CMR17-30" transform="translate(45.690477 0) scale(0.996264)"/>
       <use xlink:href="#CMSY10-0" transform="translate(91.380954 36.153639) scale(0.697382)"/>
       <use xlink:href="#CMR17-34" transform="translate(145.621947 36.153639) scale(0.697382)"/>
      </g>
     </g>
    </g>
    <g id="ytick_11">
     <g id="line2d_43">
      <g>
       <use xlink:href="#m148ddfe6bb" x="137.8441" y="91.087282" style="stroke: #000000; stroke-width: 0.8"/>
      </g>
     </g>
     <g id="text_30">
      <!-- $10^{-2}$ -->
      <g transform="translate(112.966683 93.854683) scale(0.08 -0.08)">
       <use xlink:href="#CMR17-31" transform="scale(0.996264)"/>
       <use xlink:href="#CMR17-30" transform="translate(45.690477 0) scale(0.996264)"/>
       <use xlink:href="#CMSY10-0" transform="translate(91.380954 36.153639) scale(0.697382)"/>
       <use xlink:href="#CMR17-32" transform="translate(145.621947 36.153639) scale(0.697382)"/>
      </g>
     </g>
    </g>
    <g id="ytick_12">
     <g id="line2d_44">
      <g>
       <use xlink:href="#m148ddfe6bb" x="137.8441" y="73.137582" style="stroke: #000000; stroke-width: 0.8"/>
      </g>
     </g>
     <g id="text_31">
      <!-- $10^{0}$ -->
      <g transform="translate(118.722822 75.904983) scale(0.08 -0.08)">
       <use xlink:href="#CMR17-31" transform="scale(0.996264)"/>
       <use xlink:href="#CMR17-30" transform="translate(45.690477 0) scale(0.996264)"/>
       <use xlink:href="#CMR17-30" transform="translate(91.380954 36.153639) scale(0.697382)"/>
      </g>
     </g>
    </g>
   </g>
   <g id="line2d_45">
    <path d="M 141.254273 79.231988 
L 142.646181 91.279077 
L 144.038088 96.302912 
L 145.429995 98.661742 
L 146.821903 100.496396 
L 148.21381 101.39026 
L 149.605717 101.770056 
L 150.997624 102.644224 
L 152.389532 102.88558 
L 153.781439 103.073436 
L 155.173346 102.773895 
L 156.565254 102.956234 
L 157.957161 103.008129 
L 159.349068 102.759821 
L 160.740976 103.196814 
L 162.132883 102.942788 
L 163.52479 102.906442 
L 164.916698 103.017654 
L 166.308605 103.116336 
L 167.700512 103.216788 
L 169.092419 103.182972 
L 170.484327 103.217573 
L 171.876234 103.25396 
L 173.268141 102.851735 
L 174.660049 102.941367 
L 176.051956 102.957151 
L 177.443863 103.175017 
L 178.835771 102.884645 
L 180.227678 102.954977 
L 181.619585 103.211473 
L 183.011493 103.013626 
L 184.4034 102.878268 
L 185.795307 103.231562 
L 187.187215 103.150841 
L 188.579122 103.074516 
L 189.971029 103.30105 
L 191.362936 103.216712 
L 192.754844 102.813663 
L 194.146751 103.036541 
L 195.538658 102.659393 
L 196.930566 102.955696 
L 198.322473 103.114538 
L 199.71438 103.060597 
L 201.106288 103.20656 
L 202.498195 102.803374 
L 203.890102 103.077564 
L 205.28201 102.801951 
L 206.673917 102.790231 
L 208.065824 102.719328 
L 209.457731 102.562978 
" clip-path="url(#p8b25781980)" style="fill: none; stroke: #0000ff; stroke-width: 1.5; stroke-linecap: square"/>
   </g>
   <g id="line2d_46">
    <path d="M 141.254273 74.481254 
L 142.646181 85.446529 
L 144.038088 89.872537 
L 145.429995 92.807818 
L 146.821903 94.813899 
L 148.21381 96.215236 
L 149.605717 96.898626 
L 150.997624 97.938469 
L 152.389532 98.733735 
L 153.781439 99.346788 
L 155.173346 99.196372 
L 156.565254 99.674313 
L 157.957161 100.082982 
L 159.349068 99.962825 
L 160.740976 100.588074 
L 162.132883 100.370112 
L 163.52479 100.5149 
L 164.916698 100.739731 
L 166.308605 101.00955 
L 167.700512 101.125417 
L 169.092419 101.090999 
L 170.484327 101.383642 
L 171.876234 101.399062 
L 173.268141 101.091481 
L 174.660049 101.242249 
L 176.051956 101.322347 
L 177.443863 101.547519 
L 178.835771 101.297742 
L 180.227678 101.527581 
L 181.619585 101.727079 
L 183.011493 101.669277 
L 184.4034 101.483339 
L 185.795307 101.86579 
L 187.187215 101.859526 
L 188.579122 101.777114 
L 189.971029 102.057569 
L 191.362936 101.928772 
L 192.754844 101.624935 
L 194.146751 101.824758 
L 195.538658 101.445108 
L 196.930566 101.84496 
L 198.322473 101.979556 
L 199.71438 101.932745 
L 201.106288 102.089302 
L 202.498195 101.698267 
L 203.890102 102.027055 
L 205.28201 101.737219 
L 206.673917 101.743613 
L 208.065824 101.760403 
L 209.457731 101.55522 
" clip-path="url(#p8b25781980)" style="fill: none; stroke: #000000; stroke-width: 1.5; stroke-linecap: square"/>
   </g>
   <g id="line2d_47">
    <path d="M 141.254273 88.18819 
L 142.646181 98.714954 
L 144.038088 100.256117 
L 145.429995 103.561931 
L 146.821903 103.021575 
L 148.21381 104.649919 
L 149.605717 104.260878 
L 150.997624 104.33436 
L 152.389532 104.448972 
L 153.781439 104.194141 
L 155.173346 104.696723 
L 156.565254 104.651063 
L 157.957161 104.165958 
L 159.349068 104.454205 
L 160.740976 104.530326 
L 162.132883 104.537273 
L 163.52479 104.961592 
L 164.916698 104.478611 
L 166.308605 104.63621 
L 167.700512 104.619083 
L 169.092419 104.32461 
L 170.484327 105.395852 
L 171.876234 104.364342 
L 173.268141 104.494826 
L 174.660049 104.107245 
L 176.051956 104.210228 
L 177.443863 104.481372 
L 178.835771 104.507815 
L 180.227678 104.01502 
L 181.619585 104.468697 
L 183.011493 104.16136 
L 184.4034 104.410306 
L 185.795307 104.659459 
L 187.187215 104.236914 
L 188.579122 104.298 
L 189.971029 104.399355 
L 191.362936 104.333258 
L 192.754844 104.180714 
L 194.146751 104.157197 
L 195.538658 103.952506 
L 196.930566 104.349594 
L 198.322473 104.084286 
L 199.71438 104.2088 
L 201.106288 104.576687 
L 202.498195 104.400003 
L 203.890102 104.414807 
L 205.28201 104.382775 
L 206.673917 104.721698 
L 208.065824 104.229423 
L 209.457731 104.193284 
" clip-path="url(#p8b25781980)" style="fill: none; stroke-dasharray: 5.55,2.4; stroke-dashoffset: 0; stroke: #0000ff; stroke-width: 1.5"/>
   </g>
   <g id="line2d_48">
    <path d="M 141.254273 73.137582 
L 142.646181 85.713688 
L 144.038088 92.558371 
L 145.429995 95.820742 
L 146.821903 98.067525 
L 148.21381 98.095448 
L 149.605717 99.355485 
L 150.997624 101.027149 
L 152.389532 99.20866 
L 153.781439 100.337591 
L 155.173346 100.183741 
L 156.565254 100.454485 
L 157.957161 101.375844 
L 159.349068 100.722282 
L 160.740976 99.835472 
L 162.132883 100.806306 
L 163.52479 100.195731 
L 164.916698 100.345947 
L 166.308605 101.126727 
L 167.700512 101.184204 
L 169.092419 100.655758 
L 170.484327 101.368844 
L 171.876234 101.664938 
L 173.268141 100.464817 
L 174.660049 100.954117 
L 176.051956 100.752305 
L 177.443863 100.667868 
L 178.835771 100.253312 
L 180.227678 101.065579 
L 181.619585 100.973036 
L 183.011493 100.253635 
L 184.4034 100.973117 
L 185.795307 101.276085 
L 187.187215 101.445596 
L 188.579122 99.885805 
L 189.971029 101.308392 
L 191.362936 101.540862 
L 192.754844 100.774906 
L 194.146751 100.841492 
L 195.538658 100.908969 
L 196.930566 100.422006 
L 198.322473 101.185679 
L 199.71438 100.386517 
L 201.106288 101.239972 
L 202.498195 100.790629 
L 203.890102 100.02747 
L 205.28201 100.246268 
L 206.673917 100.167923 
L 208.065824 100.218823 
L 209.457731 100.131397 
" clip-path="url(#p8b25781980)" style="fill: none; stroke-dasharray: 1.5,2.475; stroke-dashoffset: 0; stroke: #0000ff; stroke-width: 1.5"/>
   </g>
   <g id="line2d_49">
    <path d="M 141.254273 75.915347 
L 142.646181 88.693317 
L 144.038088 92.956978 
L 145.429995 95.889336 
L 146.821903 96.822547 
L 148.21381 98.240835 
L 149.605717 99.106321 
L 150.997624 99.481906 
L 152.389532 100.182738 
L 153.781439 100.640492 
L 155.173346 100.65098 
L 156.565254 101.467538 
L 157.957161 101.458778 
L 159.349068 101.245958 
L 160.740976 102.002629 
L 162.132883 102.045321 
L 163.52479 102.551296 
L 164.916698 101.924115 
L 166.308605 102.456029 
L 167.700512 102.581491 
L 169.092419 102.291604 
L 170.484327 102.829201 
L 171.876234 102.740303 
L 173.268141 102.479827 
L 174.660049 102.280315 
L 176.051956 102.492736 
L 177.443863 102.918682 
L 178.835771 102.73843 
L 180.227678 102.726397 
L 181.619585 102.77426 
L 183.011493 102.876783 
L 184.4034 103.001352 
L 185.795307 103.308144 
L 187.187215 102.976727 
L 188.579122 103.077808 
L 189.971029 103.243761 
L 191.362936 102.926005 
L 192.754844 102.947347 
L 194.146751 102.95707 
L 195.538658 102.709181 
L 196.930566 102.977941 
L 198.322473 103.136066 
L 199.71438 103.242653 
L 201.106288 103.343234 
L 202.498195 103.558995 
L 203.890102 103.456317 
L 205.28201 103.189436 
L 206.673917 103.674625 
L 208.065824 103.177184 
L 209.457731 103.046709 
" clip-path="url(#p8b25781980)" style="fill: none; stroke-dasharray: 5.55,2.4; stroke-dashoffset: 0; stroke: #000000; stroke-width: 1.5"/>
   </g>
   <g id="line2d_50">
    <path d="M 141.254273 73.137582 
L 142.646181 83.198045 
L 144.038088 86.622461 
L 145.429995 90.16821 
L 146.821903 92.896955 
L 148.21381 93.718257 
L 149.605717 94.420187 
L 150.997624 96.384766 
L 152.389532 95.610175 
L 153.781439 97.63546 
L 155.173346 97.058516 
L 156.565254 97.281118 
L 157.957161 98.475977 
L 159.349068 97.745745 
L 160.740976 97.718274 
L 162.132883 98.030344 
L 163.52479 97.590893 
L 164.916698 98.041272 
L 166.308605 99.028716 
L 167.700512 98.835181 
L 169.092419 98.545306 
L 170.484327 99.22936 
L 171.876234 99.729928 
L 173.268141 98.627359 
L 174.660049 99.169763 
L 176.051956 98.853542 
L 177.443863 98.970574 
L 178.835771 98.775877 
L 180.227678 99.502326 
L 181.619585 99.387105 
L 183.011493 98.719809 
L 184.4034 99.523666 
L 185.795307 99.837885 
L 187.187215 100.232349 
L 188.579122 98.494872 
L 189.971029 100.02606 
L 191.362936 100.096388 
L 192.754844 99.55867 
L 194.146751 99.431702 
L 195.538658 99.625355 
L 196.930566 99.383115 
L 198.322473 99.979806 
L 199.71438 99.154336 
L 201.106288 99.939856 
L 202.498195 99.540025 
L 203.890102 98.813152 
L 205.28201 99.249314 
L 206.673917 99.182164 
L 208.065824 99.220714 
L 209.457731 99.0911 
" clip-path="url(#p8b25781980)" style="fill: none; stroke-dasharray: 1.5,2.475; stroke-dashoffset: 0; stroke: #000000; stroke-width: 1.5"/>
   </g>
   <g id="patch_20">
    <path d="M 137.8441 109.036981 
L 137.8441 73.137582 
" style="fill: none; stroke: #000000; stroke-width: 0.8; stroke-linejoin: miter; stroke-linecap: square"/>
   </g>
   <g id="patch_21">
    <path d="M 212.867904 109.036981 
L 212.867904 73.137582 
" style="fill: none; stroke: #000000; stroke-width: 0.8; stroke-linejoin: miter; stroke-linecap: square"/>
   </g>
   <g id="patch_22">
    <path d="M 137.8441 109.036981 
L 212.867904 109.036981 
" style="fill: none; stroke: #000000; stroke-width: 0.8; stroke-linejoin: miter; stroke-linecap: square"/>
   </g>
   <g id="patch_23">
    <path d="M 137.8441 73.137582 
L 212.867904 73.137582 
" style="fill: none; stroke: #000000; stroke-width: 0.8; stroke-linejoin: miter; stroke-linecap: square"/>
   </g>
   <g id="text_32">
    <!-- $\mathbf{d)}$ -->
    <g transform="translate(125.375509 67.016623) scale(0.08 -0.08)">
     <defs>
      <path id="CMBX12-64" d="M 2221 4428 
L 2221 4153 
C 2618 4153 2662 4153 2662 3896 
L 2662 2571 
C 2522 2694 2240 2880 1798 2880 
C 890 2880 243 2313 243 1408 
C 243 483 877 -64 1728 -64 
C 2080 -64 2381 57 2630 270 
L 2630 -64 
L 3770 -26 
L 3770 250 
C 3373 250 3328 250 3328 502 
L 3328 4480 
L 2221 4428 
z
M 2630 625 
C 2362 231 2035 147 1805 147 
C 1011 147 1011 968 1011 1395 
C 1011 1699 1011 2022 1152 2268 
C 1350 2630 1728 2668 1875 2668 
C 2138 2668 2419 2552 2630 2268 
L 2630 625 
z
" transform="scale(0.015625)"/>
     </defs>
     <use xlink:href="#CMBX12-64" transform="scale(0.996264)"/>
     <use xlink:href="#CMR17-29" transform="translate(62.266501 0) scale(0.996264)"/>
    </g>
   </g>
  </g>
 </g>
 <defs>
  <clipPath id="p12611688c5">
   <rect x="36.561965" y="15.698543" width="75.023804" height="35.899399"/>
  </clipPath>
  <clipPath id="pbb70f97856">
   <rect x="137.8441" y="15.698543" width="75.023804" height="35.899399"/>
  </clipPath>
  <clipPath id="pf431a0ccc7">
   <rect x="36.561965" y="73.137582" width="75.023804" height="35.899399"/>
  </clipPath>
  <clipPath id="p8b25781980">
   <rect x="137.8441" y="73.137582" width="75.023804" height="35.899399"/>
  </clipPath>
 </defs>
</svg>
