<?xml version="1.0" encoding="utf-8" standalone="no"?>
<!DOCTYPE svg PUBLIC "-//W3C//DTD SVG 1.1//EN"
  "http://www.w3.org/Graphics/SVG/1.1/DTD/svg11.dtd">
<svg xmlns:xlink="http://www.w3.org/1999/xlink" width="409.216238pt" height="189.111397pt" viewBox="0 0 409.216238 189.111397" xmlns="http://www.w3.org/2000/svg" version="1.1">
 <metadata>
  <rdf:RDF xmlns:dc="http://purl.org/dc/elements/1.1/" xmlns:cc="http://creativecommons.org/ns#" xmlns:rdf="http://www.w3.org/1999/02/22-rdf-syntax-ns#">
   <cc:Work>
    <dc:type rdf:resource="http://purl.org/dc/dcmitype/StillImage"/>
    <dc:date>2025-09-20T15:44:34.167300</dc:date>
    <dc:format>image/svg+xml</dc:format>
    <dc:creator>
     <cc:Agent>
      <dc:title>Matplotlib v3.10.0, https://matplotlib.org/</dc:title>
     </cc:Agent>
    </dc:creator>
   </cc:Work>
  </rdf:RDF>
 </metadata>
 <defs>
  <style type="text/css">*{stroke-linejoin: round; stroke-linecap: butt}</style>
 </defs>
 <g id="figure_1">
  <g id="patch_1">
   <path d="M 0 189.111397 
L 409.216238 189.111397 
L 409.216238 0 
L 0 0 
z
" style="fill: #ffffff"/>
  </g>
  <g id="axes_1">
   <g id="patch_2">
    <path d="M 36.561965 163.342302 
L 193.697383 163.342302 
L 193.697383 27.223746 
L 36.561965 27.223746 
z
" style="fill: #ffffff"/>
   </g>
   <g id="QuadContourSet_1">
    <path d="M 67.989049 91.742242 
L 87.894615 81.671168 
L 99.416132 57.290303 
L 102.233922 54.447457 
L 107.478016 27.223746 
L 99.416132 27.223746 
L 67.989049 27.223746 
L 36.561965 27.223746 
L 36.561965 54.447457 
L 36.561965 68.298209 
L 45.529072 81.671168 
z
" clip-path="url(#p0548e1e876)" style="fill: #aeaeff"/>
    <path d="M 63.621197 136.118591 
L 67.989049 132.311001 
L 98.38053 108.89488 
L 99.416132 106.856172 
L 130.843216 82.037915 
L 132.104134 81.671168 
L 162.2703 54.851787 
L 163.947927 54.447457 
L 193.697383 28.735631 
L 193.697383 27.223746 
L 162.2703 27.223746 
L 130.843216 27.223746 
L 107.478016 27.223746 
L 102.233922 54.447457 
L 99.416132 57.290303 
L 87.894615 81.671168 
L 67.989049 91.742242 
L 45.529072 81.671168 
L 36.561965 68.298209 
L 36.561965 81.671168 
L 36.561965 108.89488 
L 36.561965 136.118591 
L 36.561965 153.394581 
z
" clip-path="url(#p0548e1e876)" style="fill: #e4e4ff"/>
    <path d="M 67.989049 146.860439 
L 83.792756 136.118591 
L 99.416132 117.005621 
L 114.918396 108.89488 
L 130.843216 89.867469 
L 149.729098 81.671168 
L 162.2703 64.720577 
L 187.407309 54.447457 
L 193.697383 44.476432 
L 193.697383 28.735631 
L 163.947927 54.447457 
L 162.2703 54.851787 
L 132.104134 81.671168 
L 130.843216 82.037915 
L 99.416132 106.856172 
L 98.38053 108.89488 
L 67.989049 132.311001 
L 63.621197 136.118591 
L 36.561965 153.394581 
L 36.561965 163.342302 
L 55.68761 163.342302 
z
" clip-path="url(#p0548e1e876)" style="fill: #ffe4e4"/>
    <path d="M 67.989049 163.342302 
L 70.806308 163.342302 
L 95.29162 136.118591 
L 99.416132 128.781576 
L 125.908385 108.89488 
L 130.843216 100.549125 
L 161.293196 81.671168 
L 162.2703 79.641526 
L 193.697383 61.135039 
L 193.697383 54.447457 
L 193.697383 44.476432 
L 187.407309 54.447457 
L 162.2703 64.720577 
L 149.729098 81.671168 
L 130.843216 89.867469 
L 114.918396 108.89488 
L 99.416132 117.005621 
L 83.792756 136.118591 
L 67.989049 146.860439 
L 55.68761 163.342302 
z
" clip-path="url(#p0548e1e876)" style="fill: #ffaeae"/>
    <path d="M 99.416132 145.965973 
L 114.777449 136.118591 
L 130.843216 115.27252 
L 147.186256 108.89488 
L 162.2703 94.525582 
L 190.274666 81.671168 
L 193.697383 77.660119 
L 193.697383 61.135039 
L 162.2703 79.641526 
L 161.293196 81.671168 
L 130.843216 100.549125 
L 125.908385 108.89488 
L 99.416132 128.781576 
L 95.29162 136.118591 
L 70.806308 163.342302 
L 91.064985 163.342302 
z
" clip-path="url(#p0548e1e876)" style="fill: #ff7878"/>
    <path d="M 99.416132 163.342302 
L 117.077415 163.342302 
L 130.843216 139.021182 
L 139.480437 136.118591 
L 162.2703 119.455341 
L 191.979302 108.89488 
L 193.697383 107.263066 
L 193.697383 81.671168 
L 193.697383 77.660119 
L 190.274666 81.671168 
L 162.2703 94.525582 
L 147.186256 108.89488 
L 130.843216 115.27252 
L 114.777449 136.118591 
L 99.416132 145.965973 
L 91.064985 163.342302 
z
" clip-path="url(#p0548e1e876)" style="fill: #ff4242"/>
    <path d="M 130.843216 163.342302 
L 162.2703 163.342302 
L 193.697383 163.342302 
L 193.697383 136.118591 
L 193.697383 108.89488 
L 193.697383 107.263066 
L 191.979302 108.89488 
L 162.2703 119.455341 
L 139.480437 136.118591 
L 130.843216 139.021182 
L 117.077415 163.342302 
z
" clip-path="url(#p0548e1e876)" style="fill: #ff0c0c"/>
   </g>
   <g id="matplotlib.axis_1">
    <g id="xtick_1">
     <g id="line2d_1">
      <defs>
       <path id="m60d23b0e54" d="M 0 0 
L 0 3.5 
" style="stroke: #000000; stroke-width: 0.8"/>
      </defs>
      <g>
       <use xlink:href="#m60d23b0e54" x="36.561965" y="163.342302" style="stroke: #000000; stroke-width: 0.8"/>
      </g>
     </g>
     <g id="text_1">
      <!-- $\mathdefault{10^{-2}}$ -->
      <g transform="translate(27.623256 175.877104) scale(0.08 -0.08)">
       <defs>
        <path id="CMR17-31" d="M 1702 4083 
C 1702 4217 1696 4224 1606 4224 
C 1357 3927 979 3833 621 3820 
C 602 3820 570 3820 563 3808 
C 557 3795 557 3782 557 3648 
C 755 3648 1088 3686 1344 3839 
L 1344 467 
C 1344 243 1331 166 781 166 
L 589 166 
L 589 0 
C 896 6 1216 12 1523 12 
C 1830 12 2150 6 2458 0 
L 2458 166 
L 2266 166 
C 1715 166 1702 236 1702 467 
L 1702 4083 
z
" transform="scale(0.015625)"/>
        <path id="CMR17-30" d="M 2688 2038 
C 2688 2430 2682 3099 2413 3613 
C 2176 4063 1798 4224 1466 4224 
C 1158 4224 768 4082 525 3620 
C 269 3137 243 2539 243 2038 
C 243 1671 250 1112 448 623 
C 723 -39 1216 -128 1466 -128 
C 1760 -128 2208 -7 2470 604 
C 2662 1048 2688 1568 2688 2038 
z
M 1466 -26 
C 1056 -26 813 328 723 816 
C 653 1196 653 1749 653 2109 
C 653 2604 653 3015 736 3407 
C 858 3954 1216 4121 1466 4121 
C 1728 4121 2067 3947 2189 3420 
C 2272 3054 2278 2623 2278 2109 
C 2278 1691 2278 1176 2202 797 
C 2067 96 1690 -26 1466 -26 
z
" transform="scale(0.015625)"/>
        <path id="CMSY10-0" d="M 4218 1472 
C 4326 1472 4442 1472 4442 1600 
C 4442 1728 4326 1728 4218 1728 
L 755 1728 
C 646 1728 531 1728 531 1600 
C 531 1472 646 1472 755 1472 
L 4218 1472 
z
" transform="scale(0.015625)"/>
        <path id="CMR17-32" d="M 2669 990 
L 2554 990 
C 2490 537 2438 460 2413 422 
C 2381 371 1920 371 1830 371 
L 602 371 
C 832 620 1280 1073 1824 1596 
C 2214 1966 2669 2400 2669 3033 
C 2669 3788 2067 4224 1395 4224 
C 691 4224 262 3603 262 3027 
C 262 2777 448 2745 525 2745 
C 589 2745 781 2783 781 3007 
C 781 3206 614 3264 525 3264 
C 486 3264 448 3257 422 3244 
C 544 3788 915 4057 1306 4057 
C 1862 4057 2227 3616 2227 3033 
C 2227 2477 1901 1998 1536 1583 
L 262 147 
L 262 0 
L 2515 0 
L 2669 990 
z
" transform="scale(0.015625)"/>
       </defs>
       <use xlink:href="#CMR17-31" transform="scale(0.996264)"/>
       <use xlink:href="#CMR17-30" transform="translate(45.690477 0) scale(0.996264)"/>
       <use xlink:href="#CMSY10-0" transform="translate(91.380954 36.153639) scale(0.697382)"/>
       <use xlink:href="#CMR17-32" transform="translate(145.621947 36.153639) scale(0.697382)"/>
      </g>
     </g>
    </g>
    <g id="xtick_2">
     <g id="line2d_2">
      <g>
       <use xlink:href="#m60d23b0e54" x="115.129674" y="163.342302" style="stroke: #000000; stroke-width: 0.8"/>
      </g>
     </g>
     <g id="text_2">
      <!-- $\mathdefault{10^{-1}}$ -->
      <g transform="translate(106.190965 175.877104) scale(0.08 -0.08)">
       <use xlink:href="#CMR17-31" transform="scale(0.996264)"/>
       <use xlink:href="#CMR17-30" transform="translate(45.690477 0) scale(0.996264)"/>
       <use xlink:href="#CMSY10-0" transform="translate(91.380954 36.153639) scale(0.697382)"/>
       <use xlink:href="#CMR17-31" transform="translate(145.621947 36.153639) scale(0.697382)"/>
      </g>
     </g>
    </g>
    <g id="xtick_3">
     <g id="line2d_3">
      <g>
       <use xlink:href="#m60d23b0e54" x="193.697383" y="163.342302" style="stroke: #000000; stroke-width: 0.8"/>
      </g>
     </g>
     <g id="text_3">
      <!-- $\mathdefault{10^{0}}$ -->
      <g transform="translate(187.636744 175.877104) scale(0.08 -0.08)">
       <use xlink:href="#CMR17-31" transform="scale(0.996264)"/>
       <use xlink:href="#CMR17-30" transform="translate(45.690477 0) scale(0.996264)"/>
       <use xlink:href="#CMR17-30" transform="translate(91.380954 36.153639) scale(0.697382)"/>
      </g>
     </g>
    </g>
    <g id="xtick_4">
     <g id="line2d_4">
      <defs>
       <path id="m8dc3c31936" d="M 0 0 
L 0 2 
" style="stroke: #000000; stroke-width: 0.6"/>
      </defs>
      <g>
       <use xlink:href="#m8dc3c31936" x="60.213202" y="163.342302" style="stroke: #000000; stroke-width: 0.6"/>
      </g>
     </g>
    </g>
    <g id="xtick_5">
     <g id="line2d_5">
      <g>
       <use xlink:href="#m8dc3c31936" x="74.048289" y="163.342302" style="stroke: #000000; stroke-width: 0.6"/>
      </g>
     </g>
    </g>
    <g id="xtick_6">
     <g id="line2d_6">
      <g>
       <use xlink:href="#m8dc3c31936" x="83.864439" y="163.342302" style="stroke: #000000; stroke-width: 0.6"/>
      </g>
     </g>
    </g>
    <g id="xtick_7">
     <g id="line2d_7">
      <g>
       <use xlink:href="#m8dc3c31936" x="91.478437" y="163.342302" style="stroke: #000000; stroke-width: 0.6"/>
      </g>
     </g>
    </g>
    <g id="xtick_8">
     <g id="line2d_8">
      <g>
       <use xlink:href="#m8dc3c31936" x="97.699526" y="163.342302" style="stroke: #000000; stroke-width: 0.6"/>
      </g>
     </g>
    </g>
    <g id="xtick_9">
     <g id="line2d_9">
      <g>
       <use xlink:href="#m8dc3c31936" x="102.959382" y="163.342302" style="stroke: #000000; stroke-width: 0.6"/>
      </g>
     </g>
    </g>
    <g id="xtick_10">
     <g id="line2d_10">
      <g>
       <use xlink:href="#m8dc3c31936" x="107.515677" y="163.342302" style="stroke: #000000; stroke-width: 0.6"/>
      </g>
     </g>
    </g>
    <g id="xtick_11">
     <g id="line2d_11">
      <g>
       <use xlink:href="#m8dc3c31936" x="111.534613" y="163.342302" style="stroke: #000000; stroke-width: 0.6"/>
      </g>
     </g>
    </g>
    <g id="xtick_12">
     <g id="line2d_12">
      <g>
       <use xlink:href="#m8dc3c31936" x="138.780911" y="163.342302" style="stroke: #000000; stroke-width: 0.6"/>
      </g>
     </g>
    </g>
    <g id="xtick_13">
     <g id="line2d_13">
      <g>
       <use xlink:href="#m8dc3c31936" x="152.615998" y="163.342302" style="stroke: #000000; stroke-width: 0.6"/>
      </g>
     </g>
    </g>
    <g id="xtick_14">
     <g id="line2d_14">
      <g>
       <use xlink:href="#m8dc3c31936" x="162.432148" y="163.342302" style="stroke: #000000; stroke-width: 0.6"/>
      </g>
     </g>
    </g>
    <g id="xtick_15">
     <g id="line2d_15">
      <g>
       <use xlink:href="#m8dc3c31936" x="170.046146" y="163.342302" style="stroke: #000000; stroke-width: 0.6"/>
      </g>
     </g>
    </g>
    <g id="xtick_16">
     <g id="line2d_16">
      <g>
       <use xlink:href="#m8dc3c31936" x="176.267235" y="163.342302" style="stroke: #000000; stroke-width: 0.6"/>
      </g>
     </g>
    </g>
    <g id="xtick_17">
     <g id="line2d_17">
      <g>
       <use xlink:href="#m8dc3c31936" x="181.527091" y="163.342302" style="stroke: #000000; stroke-width: 0.6"/>
      </g>
     </g>
    </g>
    <g id="xtick_18">
     <g id="line2d_18">
      <g>
       <use xlink:href="#m8dc3c31936" x="186.083386" y="163.342302" style="stroke: #000000; stroke-width: 0.6"/>
      </g>
     </g>
    </g>
    <g id="xtick_19">
     <g id="line2d_19">
      <g>
       <use xlink:href="#m8dc3c31936" x="190.102322" y="163.342302" style="stroke: #000000; stroke-width: 0.6"/>
      </g>
     </g>
    </g>
    <g id="text_4">
     <!-- $l$ -->
     <g transform="translate(113.865882 183.961651) scale(0.08 -0.08)">
      <defs>
       <path id="CMMI12-6c" d="M 1626 4255 
C 1632 4281 1645 4319 1645 4351 
C 1645 4416 1581 4416 1568 4416 
C 1562 4416 1331 4396 1216 4383 
C 1107 4377 1011 4364 896 4358 
C 742 4345 698 4339 698 4223 
C 698 4159 762 4159 826 4159 
C 1152 4159 1152 4102 1152 4039 
C 1152 4013 1152 4001 1120 3886 
L 326 731 
C 307 661 294 610 294 509 
C 294 191 531 -64 858 -64 
C 1069 -64 1210 76 1312 273 
C 1421 483 1510 884 1510 909 
C 1510 941 1485 967 1446 967 
C 1389 967 1382 935 1357 839 
C 1242 401 1126 64 870 64 
C 678 64 678 267 678 356 
C 678 382 678 515 723 693 
L 1626 4255 
z
" transform="scale(0.015625)"/>
      </defs>
      <use xlink:href="#CMMI12-6c" transform="scale(0.996264)"/>
     </g>
    </g>
   </g>
   <g id="matplotlib.axis_2">
    <g id="ytick_1">
     <g id="line2d_20">
      <defs>
       <path id="m9cbd698f31" d="M 0 0 
L -3.5 0 
" style="stroke: #000000; stroke-width: 0.8"/>
      </defs>
      <g>
       <use xlink:href="#m9cbd698f31" x="36.561965" y="163.342302" style="stroke: #000000; stroke-width: 0.8"/>
      </g>
     </g>
     <g id="text_5">
      <!-- $\mathdefault{10^{-2}}$ -->
      <g transform="translate(11.684547 166.109703) scale(0.08 -0.08)">
       <use xlink:href="#CMR17-31" transform="scale(0.996264)"/>
       <use xlink:href="#CMR17-30" transform="translate(45.690477 0) scale(0.996264)"/>
       <use xlink:href="#CMSY10-0" transform="translate(91.380954 36.153639) scale(0.697382)"/>
       <use xlink:href="#CMR17-32" transform="translate(145.621947 36.153639) scale(0.697382)"/>
      </g>
     </g>
    </g>
    <g id="ytick_2">
     <g id="line2d_21">
      <g>
       <use xlink:href="#m9cbd698f31" x="36.561965" y="95.283024" style="stroke: #000000; stroke-width: 0.8"/>
      </g>
     </g>
     <g id="text_6">
      <!-- $\mathdefault{10^{-1}}$ -->
      <g transform="translate(11.684547 98.050425) scale(0.08 -0.08)">
       <use xlink:href="#CMR17-31" transform="scale(0.996264)"/>
       <use xlink:href="#CMR17-30" transform="translate(45.690477 0) scale(0.996264)"/>
       <use xlink:href="#CMSY10-0" transform="translate(91.380954 36.153639) scale(0.697382)"/>
       <use xlink:href="#CMR17-31" transform="translate(145.621947 36.153639) scale(0.697382)"/>
      </g>
     </g>
    </g>
    <g id="ytick_3">
     <g id="line2d_22">
      <g>
       <use xlink:href="#m9cbd698f31" x="36.561965" y="27.223746" style="stroke: #000000; stroke-width: 0.8"/>
      </g>
     </g>
     <g id="text_7">
      <!-- $\mathdefault{10^{0}}$ -->
      <g transform="translate(17.440687 29.991147) scale(0.08 -0.08)">
       <use xlink:href="#CMR17-31" transform="scale(0.996264)"/>
       <use xlink:href="#CMR17-30" transform="translate(45.690477 0) scale(0.996264)"/>
       <use xlink:href="#CMR17-30" transform="translate(91.380954 36.153639) scale(0.697382)"/>
      </g>
     </g>
    </g>
    <g id="ytick_4">
     <g id="line2d_23">
      <defs>
       <path id="m91fcdf5d4f" d="M 0 0 
L -2 0 
" style="stroke: #000000; stroke-width: 0.6"/>
      </defs>
      <g>
       <use xlink:href="#m91fcdf5d4f" x="36.561965" y="142.854418" style="stroke: #000000; stroke-width: 0.6"/>
      </g>
     </g>
    </g>
    <g id="ytick_5">
     <g id="line2d_24">
      <g>
       <use xlink:href="#m91fcdf5d4f" x="36.561965" y="130.869774" style="stroke: #000000; stroke-width: 0.6"/>
      </g>
     </g>
    </g>
    <g id="ytick_6">
     <g id="line2d_25">
      <g>
       <use xlink:href="#m91fcdf5d4f" x="36.561965" y="122.366534" style="stroke: #000000; stroke-width: 0.6"/>
      </g>
     </g>
    </g>
    <g id="ytick_7">
     <g id="line2d_26">
      <g>
       <use xlink:href="#m91fcdf5d4f" x="36.561965" y="115.770908" style="stroke: #000000; stroke-width: 0.6"/>
      </g>
     </g>
    </g>
    <g id="ytick_8">
     <g id="line2d_27">
      <g>
       <use xlink:href="#m91fcdf5d4f" x="36.561965" y="110.38189" style="stroke: #000000; stroke-width: 0.6"/>
      </g>
     </g>
    </g>
    <g id="ytick_9">
     <g id="line2d_28">
      <g>
       <use xlink:href="#m91fcdf5d4f" x="36.561965" y="105.82554" style="stroke: #000000; stroke-width: 0.6"/>
      </g>
     </g>
    </g>
    <g id="ytick_10">
     <g id="line2d_29">
      <g>
       <use xlink:href="#m91fcdf5d4f" x="36.561965" y="101.87865" style="stroke: #000000; stroke-width: 0.6"/>
      </g>
     </g>
    </g>
    <g id="ytick_11">
     <g id="line2d_30">
      <g>
       <use xlink:href="#m91fcdf5d4f" x="36.561965" y="98.397246" style="stroke: #000000; stroke-width: 0.6"/>
      </g>
     </g>
    </g>
    <g id="ytick_12">
     <g id="line2d_31">
      <g>
       <use xlink:href="#m91fcdf5d4f" x="36.561965" y="74.79514" style="stroke: #000000; stroke-width: 0.6"/>
      </g>
     </g>
    </g>
    <g id="ytick_13">
     <g id="line2d_32">
      <g>
       <use xlink:href="#m91fcdf5d4f" x="36.561965" y="62.810496" style="stroke: #000000; stroke-width: 0.6"/>
      </g>
     </g>
    </g>
    <g id="ytick_14">
     <g id="line2d_33">
      <g>
       <use xlink:href="#m91fcdf5d4f" x="36.561965" y="54.307256" style="stroke: #000000; stroke-width: 0.6"/>
      </g>
     </g>
    </g>
    <g id="ytick_15">
     <g id="line2d_34">
      <g>
       <use xlink:href="#m91fcdf5d4f" x="36.561965" y="47.71163" style="stroke: #000000; stroke-width: 0.6"/>
      </g>
     </g>
    </g>
    <g id="ytick_16">
     <g id="line2d_35">
      <g>
       <use xlink:href="#m91fcdf5d4f" x="36.561965" y="42.322612" style="stroke: #000000; stroke-width: 0.6"/>
      </g>
     </g>
    </g>
    <g id="ytick_17">
     <g id="line2d_36">
      <g>
       <use xlink:href="#m91fcdf5d4f" x="36.561965" y="37.766262" style="stroke: #000000; stroke-width: 0.6"/>
      </g>
     </g>
    </g>
    <g id="ytick_18">
     <g id="line2d_37">
      <g>
       <use xlink:href="#m91fcdf5d4f" x="36.561965" y="33.819372" style="stroke: #000000; stroke-width: 0.6"/>
      </g>
     </g>
    </g>
    <g id="ytick_19">
     <g id="line2d_38">
      <g>
       <use xlink:href="#m91fcdf5d4f" x="36.561965" y="30.337968" style="stroke: #000000; stroke-width: 0.6"/>
      </g>
     </g>
    </g>
    <g id="text_8">
     <!-- $l$ -->
     <g transform="translate(9.134802 96.546817) rotate(-90) scale(0.08 -0.08)">
      <use xlink:href="#CMMI12-6c" transform="scale(0.996264)"/>
     </g>
    </g>
   </g>
   <g id="line2d_39">
    <path d="M 36.561965 163.342302 
L 67.989049 136.118591 
L 99.416132 108.89488 
L 130.843216 81.671168 
L 162.2703 54.447457 
L 193.697383 27.223746 
" clip-path="url(#p0548e1e876)" style="fill: none; stroke-dasharray: 1.5,2.475; stroke-dashoffset: 0; stroke: #000000; stroke-width: 1.5"/>
   </g>
   <g id="patch_3">
    <path d="M 36.561965 163.342302 
L 36.561965 27.223746 
" style="fill: none; stroke: #000000; stroke-width: 0.8; stroke-linejoin: miter; stroke-linecap: square"/>
   </g>
   <g id="patch_4">
    <path d="M 193.697383 163.342302 
L 193.697383 27.223746 
" style="fill: none; stroke: #000000; stroke-width: 0.8; stroke-linejoin: miter; stroke-linecap: square"/>
   </g>
   <g id="patch_5">
    <path d="M 36.561965 163.342302 
L 193.697383 163.342302 
" style="fill: none; stroke: #000000; stroke-width: 0.8; stroke-linejoin: miter; stroke-linecap: square"/>
   </g>
   <g id="patch_6">
    <path d="M 36.561965 27.223746 
L 193.697383 27.223746 
" style="fill: none; stroke: #000000; stroke-width: 0.8; stroke-linejoin: miter; stroke-linecap: square"/>
   </g>
   <g id="text_9">
    <!-- $\mathbf{a)}$ -->
    <g transform="translate(20.665808 9.577584) scale(0.08 -0.08)">
     <defs>
      <path id="CMBX12-61" d="M 2944 1894 
C 2944 2483 2477 2880 1574 2880 
C 1216 2880 461 2847 461 2310 
C 461 2041 666 1926 838 1926 
C 1030 1926 1216 2060 1216 2303 
C 1216 2425 1171 2540 1062 2611 
C 1274 2668 1427 2668 1549 2668 
C 1984 2668 2246 2425 2246 1900 
L 2246 1644 
C 1235 1644 218 1362 218 648 
C 218 64 960 -64 1402 -64 
C 1894 -64 2208 205 2336 488 
C 2336 250 2336 -26 2982 -26 
L 3309 -26 
C 3443 -26 3494 -26 3494 115 
C 3494 250 3437 250 3347 250 
C 2944 256 2944 359 2944 507 
L 2944 1894 
z
M 2246 867 
C 2246 262 1709 147 1504 147 
C 1190 147 928 359 928 655 
C 928 1240 1619 1439 2246 1472 
L 2246 867 
z
" transform="scale(0.015625)"/>
      <path id="CMR17-29" d="M 1683 1596 
C 1683 2057 1638 2839 1254 3665 
C 947 4332 422 4800 346 4800 
C 326 4800 301 4793 301 4761 
C 301 4748 307 4742 314 4729 
C 621 4408 1402 3595 1402 1603 
C 1402 -396 627 -1210 314 -1530 
C 307 -1543 301 -1549 301 -1562 
C 301 -1594 326 -1600 346 -1600 
C 416 -1600 960 -1127 1274 -422 
C 1594 289 1683 981 1683 1596 
z
" transform="scale(0.015625)"/>
     </defs>
     <use xlink:href="#CMBX12-61" transform="scale(0.996264)"/>
     <use xlink:href="#CMR17-29" transform="translate(54.483188 0) scale(0.996264)"/>
    </g>
   </g>
  </g>
  <g id="axes_2">
   <g id="patch_7">
    <path d="M 225.124467 163.342302 
L 371.260406 163.342302 
L 371.260406 27.223746 
L 225.124467 27.223746 
z
" style="fill: #ffffff"/>
   </g>
   <g id="QuadContourSet_2">
    <path d="M 232.010903 81.671168 
L 227.680878 54.447457 
L 225.124467 38.355548 
L 225.124467 54.447457 
L 225.124467 81.671168 
L 225.124467 92.053875 
z
" clip-path="url(#p4880f1d3bb)" style="fill: #aeaeff"/>
    <path d="M 253.765308 136.118591 
L 254.351655 134.373623 
L 280.062619 108.89488 
L 282.449748 81.671168 
L 275.974717 54.447457 
L 276.252481 27.223746 
L 254.351655 27.223746 
L 225.124467 27.223746 
L 225.124467 38.355548 
L 227.680878 54.447457 
L 232.010903 81.671168 
L 225.124467 92.053875 
L 225.124467 108.89488 
L 225.124467 136.118591 
L 225.124467 155.152161 
z
" clip-path="url(#p4880f1d3bb)" style="fill: #e4e4ff"/>
    <path d="M 254.351655 142.740116 
L 267.988269 136.118591 
L 283.578843 115.603683 
L 297.358171 108.89488 
L 312.80603 89.274015 
L 329.593389 81.671168 
L 342.033218 62.812773 
L 368.592464 54.447457 
L 371.260406 49.780114 
L 371.260406 27.223746 
L 342.033218 27.223746 
L 312.80603 27.223746 
L 283.578843 27.223746 
L 276.252481 27.223746 
L 275.974717 54.447457 
L 282.449748 81.671168 
L 280.062619 108.89488 
L 254.351655 134.373623 
L 253.765308 136.118591 
L 225.124467 155.152161 
L 225.124467 163.342302 
L 237.015383 163.342302 
z
" clip-path="url(#p4880f1d3bb)" style="fill: #ffe4e4"/>
    <path d="M 254.351655 151.472055 
L 277.648291 136.118591 
L 283.578843 125.341598 
L 307.762801 108.89488 
L 312.80603 99.82342 
L 340.729457 81.671168 
L 342.033218 78.565096 
L 371.260406 63.492067 
L 371.260406 54.447457 
L 371.260406 49.780114 
L 368.592464 54.447457 
L 342.033218 62.812773 
L 329.593389 81.671168 
L 312.80603 89.274015 
L 297.358171 108.89488 
L 283.578843 115.603683 
L 267.988269 136.118591 
L 254.351655 142.740116 
L 237.015383 163.342302 
L 247.014869 163.342302 
z
" clip-path="url(#p4880f1d3bb)" style="fill: #ffaeae"/>
    <path d="M 254.351655 163.342302 
L 255.830095 163.342302 
L 283.578843 139.073218 
L 291.149018 136.118591 
L 312.80603 114.290487 
L 326.618575 108.89488 
L 342.033218 93.764711 
L 368.714981 81.671168 
L 371.260406 78.985299 
L 371.260406 63.492067 
L 342.033218 78.565096 
L 340.729457 81.671168 
L 312.80603 99.82342 
L 307.762801 108.89488 
L 283.578843 125.341598 
L 277.648291 136.118591 
L 254.351655 151.472055 
L 247.014869 163.342302 
z
" clip-path="url(#p4880f1d3bb)" style="fill: #ff7878"/>
    <path d="M 283.578843 158.655754 
L 312.794102 136.118591 
L 312.80603 136.094059 
L 342.033218 118.265718 
L 371.165377 108.89488 
L 371.260406 108.813494 
L 371.260406 81.671168 
L 371.260406 78.985299 
L 368.714981 81.671168 
L 342.033218 93.764711 
L 326.618575 108.89488 
L 312.80603 114.290487 
L 291.149018 136.118591 
L 283.578843 139.073218 
L 255.830095 163.342302 
L 280.978431 163.342302 
z
" clip-path="url(#p4880f1d3bb)" style="fill: #ff4242"/>
    <path d="M 283.578843 163.342302 
L 312.80603 163.342302 
L 342.033218 163.342302 
L 371.260406 163.342302 
L 371.260406 136.118591 
L 371.260406 108.89488 
L 371.260406 108.813494 
L 371.165377 108.89488 
L 342.033218 118.265718 
L 312.80603 136.094059 
L 312.794102 136.118591 
L 283.578843 158.655754 
L 280.978431 163.342302 
z
" clip-path="url(#p4880f1d3bb)" style="fill: #ff0c0c"/>
   </g>
   <g id="matplotlib.axis_3">
    <g id="xtick_20">
     <g id="line2d_40">
      <g>
       <use xlink:href="#m60d23b0e54" x="225.124467" y="163.342302" style="stroke: #000000; stroke-width: 0.8"/>
      </g>
     </g>
     <g id="text_10">
      <!-- $\mathdefault{10^{-2}}$ -->
      <g transform="translate(216.185758 175.877104) scale(0.08 -0.08)">
       <use xlink:href="#CMR17-31" transform="scale(0.996264)"/>
       <use xlink:href="#CMR17-30" transform="translate(45.690477 0) scale(0.996264)"/>
       <use xlink:href="#CMSY10-0" transform="translate(91.380954 36.153639) scale(0.697382)"/>
       <use xlink:href="#CMR17-32" transform="translate(145.621947 36.153639) scale(0.697382)"/>
      </g>
     </g>
    </g>
    <g id="xtick_21">
     <g id="line2d_41">
      <g>
       <use xlink:href="#m60d23b0e54" x="298.192436" y="163.342302" style="stroke: #000000; stroke-width: 0.8"/>
      </g>
     </g>
     <g id="text_11">
      <!-- $\mathdefault{10^{-1}}$ -->
      <g transform="translate(289.253728 175.877104) scale(0.08 -0.08)">
       <use xlink:href="#CMR17-31" transform="scale(0.996264)"/>
       <use xlink:href="#CMR17-30" transform="translate(45.690477 0) scale(0.996264)"/>
       <use xlink:href="#CMSY10-0" transform="translate(91.380954 36.153639) scale(0.697382)"/>
       <use xlink:href="#CMR17-31" transform="translate(145.621947 36.153639) scale(0.697382)"/>
      </g>
     </g>
    </g>
    <g id="xtick_22">
     <g id="line2d_42">
      <g>
       <use xlink:href="#m60d23b0e54" x="371.260406" y="163.342302" style="stroke: #000000; stroke-width: 0.8"/>
      </g>
     </g>
     <g id="text_12">
      <!-- $\mathdefault{10^{0}}$ -->
      <g transform="translate(365.199767 175.877104) scale(0.08 -0.08)">
       <use xlink:href="#CMR17-31" transform="scale(0.996264)"/>
       <use xlink:href="#CMR17-30" transform="translate(45.690477 0) scale(0.996264)"/>
       <use xlink:href="#CMR17-30" transform="translate(91.380954 36.153639) scale(0.697382)"/>
      </g>
     </g>
    </g>
    <g id="xtick_23">
     <g id="line2d_43">
      <g>
       <use xlink:href="#m8dc3c31936" x="247.120117" y="163.342302" style="stroke: #000000; stroke-width: 0.6"/>
      </g>
     </g>
    </g>
    <g id="xtick_24">
     <g id="line2d_44">
      <g>
       <use xlink:href="#m8dc3c31936" x="259.986748" y="163.342302" style="stroke: #000000; stroke-width: 0.6"/>
      </g>
     </g>
    </g>
    <g id="xtick_25">
     <g id="line2d_45">
      <g>
       <use xlink:href="#m8dc3c31936" x="269.115768" y="163.342302" style="stroke: #000000; stroke-width: 0.6"/>
      </g>
     </g>
    </g>
    <g id="xtick_26">
     <g id="line2d_46">
      <g>
       <use xlink:href="#m8dc3c31936" x="276.196786" y="163.342302" style="stroke: #000000; stroke-width: 0.6"/>
      </g>
     </g>
    </g>
    <g id="xtick_27">
     <g id="line2d_47">
      <g>
       <use xlink:href="#m8dc3c31936" x="281.982399" y="163.342302" style="stroke: #000000; stroke-width: 0.6"/>
      </g>
     </g>
    </g>
    <g id="xtick_28">
     <g id="line2d_48">
      <g>
       <use xlink:href="#m8dc3c31936" x="286.874065" y="163.342302" style="stroke: #000000; stroke-width: 0.6"/>
      </g>
     </g>
    </g>
    <g id="xtick_29">
     <g id="line2d_49">
      <g>
       <use xlink:href="#m8dc3c31936" x="291.111419" y="163.342302" style="stroke: #000000; stroke-width: 0.6"/>
      </g>
     </g>
    </g>
    <g id="xtick_30">
     <g id="line2d_50">
      <g>
       <use xlink:href="#m8dc3c31936" x="294.849029" y="163.342302" style="stroke: #000000; stroke-width: 0.6"/>
      </g>
     </g>
    </g>
    <g id="xtick_31">
     <g id="line2d_51">
      <g>
       <use xlink:href="#m8dc3c31936" x="320.188087" y="163.342302" style="stroke: #000000; stroke-width: 0.6"/>
      </g>
     </g>
    </g>
    <g id="xtick_32">
     <g id="line2d_52">
      <g>
       <use xlink:href="#m8dc3c31936" x="333.054718" y="163.342302" style="stroke: #000000; stroke-width: 0.6"/>
      </g>
     </g>
    </g>
    <g id="xtick_33">
     <g id="line2d_53">
      <g>
       <use xlink:href="#m8dc3c31936" x="342.183737" y="163.342302" style="stroke: #000000; stroke-width: 0.6"/>
      </g>
     </g>
    </g>
    <g id="xtick_34">
     <g id="line2d_54">
      <g>
       <use xlink:href="#m8dc3c31936" x="349.264755" y="163.342302" style="stroke: #000000; stroke-width: 0.6"/>
      </g>
     </g>
    </g>
    <g id="xtick_35">
     <g id="line2d_55">
      <g>
       <use xlink:href="#m8dc3c31936" x="355.050368" y="163.342302" style="stroke: #000000; stroke-width: 0.6"/>
      </g>
     </g>
    </g>
    <g id="xtick_36">
     <g id="line2d_56">
      <g>
       <use xlink:href="#m8dc3c31936" x="359.942034" y="163.342302" style="stroke: #000000; stroke-width: 0.6"/>
      </g>
     </g>
    </g>
    <g id="xtick_37">
     <g id="line2d_57">
      <g>
       <use xlink:href="#m8dc3c31936" x="364.179388" y="163.342302" style="stroke: #000000; stroke-width: 0.6"/>
      </g>
     </g>
    </g>
    <g id="xtick_38">
     <g id="line2d_58">
      <g>
       <use xlink:href="#m8dc3c31936" x="367.916999" y="163.342302" style="stroke: #000000; stroke-width: 0.6"/>
      </g>
     </g>
    </g>
    <g id="text_13">
     <!-- $l$ -->
     <g transform="translate(296.928644 183.961651) scale(0.08 -0.08)">
      <use xlink:href="#CMMI12-6c" transform="scale(0.996264)"/>
     </g>
    </g>
   </g>
   <g id="matplotlib.axis_4">
    <g id="ytick_20">
     <g id="line2d_59">
      <g>
       <use xlink:href="#m9cbd698f31" x="225.124467" y="163.342302" style="stroke: #000000; stroke-width: 0.8"/>
      </g>
     </g>
     <g id="text_14">
      <!-- $\mathdefault{10^{-2}}$ -->
      <g transform="translate(200.247049 166.109703) scale(0.08 -0.08)">
       <use xlink:href="#CMR17-31" transform="scale(0.996264)"/>
       <use xlink:href="#CMR17-30" transform="translate(45.690477 0) scale(0.996264)"/>
       <use xlink:href="#CMSY10-0" transform="translate(91.380954 36.153639) scale(0.697382)"/>
       <use xlink:href="#CMR17-32" transform="translate(145.621947 36.153639) scale(0.697382)"/>
      </g>
     </g>
    </g>
    <g id="ytick_21">
     <g id="line2d_60">
      <g>
       <use xlink:href="#m9cbd698f31" x="225.124467" y="95.283024" style="stroke: #000000; stroke-width: 0.8"/>
      </g>
     </g>
     <g id="text_15">
      <!-- $\mathdefault{10^{-1}}$ -->
      <g transform="translate(200.247049 98.050425) scale(0.08 -0.08)">
       <use xlink:href="#CMR17-31" transform="scale(0.996264)"/>
       <use xlink:href="#CMR17-30" transform="translate(45.690477 0) scale(0.996264)"/>
       <use xlink:href="#CMSY10-0" transform="translate(91.380954 36.153639) scale(0.697382)"/>
       <use xlink:href="#CMR17-31" transform="translate(145.621947 36.153639) scale(0.697382)"/>
      </g>
     </g>
    </g>
    <g id="ytick_22">
     <g id="line2d_61">
      <g>
       <use xlink:href="#m9cbd698f31" x="225.124467" y="27.223746" style="stroke: #000000; stroke-width: 0.8"/>
      </g>
     </g>
     <g id="text_16">
      <!-- $\mathdefault{10^{0}}$ -->
      <g transform="translate(206.003189 29.991147) scale(0.08 -0.08)">
       <use xlink:href="#CMR17-31" transform="scale(0.996264)"/>
       <use xlink:href="#CMR17-30" transform="translate(45.690477 0) scale(0.996264)"/>
       <use xlink:href="#CMR17-30" transform="translate(91.380954 36.153639) scale(0.697382)"/>
      </g>
     </g>
    </g>
    <g id="ytick_23">
     <g id="line2d_62">
      <g>
       <use xlink:href="#m91fcdf5d4f" x="225.124467" y="142.854418" style="stroke: #000000; stroke-width: 0.6"/>
      </g>
     </g>
    </g>
    <g id="ytick_24">
     <g id="line2d_63">
      <g>
       <use xlink:href="#m91fcdf5d4f" x="225.124467" y="130.869774" style="stroke: #000000; stroke-width: 0.6"/>
      </g>
     </g>
    </g>
    <g id="ytick_25">
     <g id="line2d_64">
      <g>
       <use xlink:href="#m91fcdf5d4f" x="225.124467" y="122.366534" style="stroke: #000000; stroke-width: 0.6"/>
      </g>
     </g>
    </g>
    <g id="ytick_26">
     <g id="line2d_65">
      <g>
       <use xlink:href="#m91fcdf5d4f" x="225.124467" y="115.770908" style="stroke: #000000; stroke-width: 0.6"/>
      </g>
     </g>
    </g>
    <g id="ytick_27">
     <g id="line2d_66">
      <g>
       <use xlink:href="#m91fcdf5d4f" x="225.124467" y="110.38189" style="stroke: #000000; stroke-width: 0.6"/>
      </g>
     </g>
    </g>
    <g id="ytick_28">
     <g id="line2d_67">
      <g>
       <use xlink:href="#m91fcdf5d4f" x="225.124467" y="105.82554" style="stroke: #000000; stroke-width: 0.6"/>
      </g>
     </g>
    </g>
    <g id="ytick_29">
     <g id="line2d_68">
      <g>
       <use xlink:href="#m91fcdf5d4f" x="225.124467" y="101.87865" style="stroke: #000000; stroke-width: 0.6"/>
      </g>
     </g>
    </g>
    <g id="ytick_30">
     <g id="line2d_69">
      <g>
       <use xlink:href="#m91fcdf5d4f" x="225.124467" y="98.397246" style="stroke: #000000; stroke-width: 0.6"/>
      </g>
     </g>
    </g>
    <g id="ytick_31">
     <g id="line2d_70">
      <g>
       <use xlink:href="#m91fcdf5d4f" x="225.124467" y="74.79514" style="stroke: #000000; stroke-width: 0.6"/>
      </g>
     </g>
    </g>
    <g id="ytick_32">
     <g id="line2d_71">
      <g>
       <use xlink:href="#m91fcdf5d4f" x="225.124467" y="62.810496" style="stroke: #000000; stroke-width: 0.6"/>
      </g>
     </g>
    </g>
    <g id="ytick_33">
     <g id="line2d_72">
      <g>
       <use xlink:href="#m91fcdf5d4f" x="225.124467" y="54.307256" style="stroke: #000000; stroke-width: 0.6"/>
      </g>
     </g>
    </g>
    <g id="ytick_34">
     <g id="line2d_73">
      <g>
       <use xlink:href="#m91fcdf5d4f" x="225.124467" y="47.71163" style="stroke: #000000; stroke-width: 0.6"/>
      </g>
     </g>
    </g>
    <g id="ytick_35">
     <g id="line2d_74">
      <g>
       <use xlink:href="#m91fcdf5d4f" x="225.124467" y="42.322612" style="stroke: #000000; stroke-width: 0.6"/>
      </g>
     </g>
    </g>
    <g id="ytick_36">
     <g id="line2d_75">
      <g>
       <use xlink:href="#m91fcdf5d4f" x="225.124467" y="37.766262" style="stroke: #000000; stroke-width: 0.6"/>
      </g>
     </g>
    </g>
    <g id="ytick_37">
     <g id="line2d_76">
      <g>
       <use xlink:href="#m91fcdf5d4f" x="225.124467" y="33.819372" style="stroke: #000000; stroke-width: 0.6"/>
      </g>
     </g>
    </g>
    <g id="ytick_38">
     <g id="line2d_77">
      <g>
       <use xlink:href="#m91fcdf5d4f" x="225.124467" y="30.337968" style="stroke: #000000; stroke-width: 0.6"/>
      </g>
     </g>
    </g>
   </g>
   <g id="line2d_78">
    <path d="M 225.124467 163.342302 
L 254.351655 136.118591 
L 283.578843 108.89488 
L 312.80603 81.671168 
L 342.033218 54.447457 
L 371.260406 27.223746 
" clip-path="url(#p4880f1d3bb)" style="fill: none; stroke-dasharray: 1.5,2.475; stroke-dashoffset: 0; stroke: #000000; stroke-width: 1.5"/>
   </g>
   <g id="patch_8">
    <path d="M 225.124467 163.342302 
L 225.124467 27.223746 
" style="fill: none; stroke: #000000; stroke-width: 0.8; stroke-linejoin: miter; stroke-linecap: square"/>
   </g>
   <g id="patch_9">
    <path d="M 371.260406 163.342302 
L 371.260406 27.223746 
" style="fill: none; stroke: #000000; stroke-width: 0.8; stroke-linejoin: miter; stroke-linecap: square"/>
   </g>
   <g id="patch_10">
    <path d="M 225.124467 163.342302 
L 371.260406 163.342302 
" style="fill: none; stroke: #000000; stroke-width: 0.8; stroke-linejoin: miter; stroke-linecap: square"/>
   </g>
   <g id="patch_11">
    <path d="M 225.124467 27.223746 
L 371.260406 27.223746 
" style="fill: none; stroke: #000000; stroke-width: 0.8; stroke-linejoin: miter; stroke-linecap: square"/>
   </g>
   <g id="text_17">
    <!-- $\mathbf{b)}$ -->
    <g transform="translate(209.100269 9.577584) scale(0.08 -0.08)">
     <defs>
      <path id="CMBX12-62" d="M 1331 4480 
L 224 4428 
L 224 4153 
C 621 4153 666 4153 666 3896 
L 666 -26 
L 934 -26 
C 1043 96 1152 218 1254 347 
C 1581 6 1933 -64 2189 -64 
C 3072 -64 3750 476 3750 1414 
C 3750 2300 3149 2880 2272 2880 
C 1894 2880 1594 2758 1331 2552 
L 1331 4480 
z
M 1363 2242 
C 1587 2552 1920 2668 2189 2668 
C 2982 2668 2982 1847 2982 1420 
C 2982 1130 2982 761 2829 522 
C 2630 211 2330 147 2125 147 
C 1690 147 1453 457 1363 599 
L 1363 2242 
z
" transform="scale(0.015625)"/>
     </defs>
     <use xlink:href="#CMBX12-62" transform="scale(0.996264)"/>
     <use xlink:href="#CMR17-29" transform="translate(62.266501 0) scale(0.996264)"/>
    </g>
   </g>
  </g>
  <g id="axes_3">
   <g id="patch_12">
    <path d="M 374.403114 163.342302 
L 381.209042 163.342302 
L 381.209042 27.223746 
L 374.403114 27.223746 
z
" style="fill: #ffffff"/>
   </g>
   <g id="QuadMesh_1">
    <path d="M 374.403114 163.342302 
L 381.209042 163.342302 
L 381.209042 143.896794 
L 374.403114 143.896794 
L 374.403114 163.342302 
" clip-path="url(#pccb8d0beb0)" style="fill: #aeaeff"/>
    <path d="M 374.403114 143.896794 
L 381.209042 143.896794 
L 381.209042 124.451286 
L 374.403114 124.451286 
L 374.403114 143.896794 
" clip-path="url(#pccb8d0beb0)" style="fill: #e4e4ff"/>
    <path d="M 374.403114 124.451286 
L 381.209042 124.451286 
L 381.209042 105.005778 
L 374.403114 105.005778 
L 374.403114 124.451286 
" clip-path="url(#pccb8d0beb0)" style="fill: #ffe4e4"/>
    <path d="M 374.403114 105.005778 
L 381.209042 105.005778 
L 381.209042 85.56027 
L 374.403114 85.56027 
L 374.403114 105.005778 
" clip-path="url(#pccb8d0beb0)" style="fill: #ffaeae"/>
    <path d="M 374.403114 85.56027 
L 381.209042 85.56027 
L 381.209042 66.114762 
L 374.403114 66.114762 
L 374.403114 85.56027 
" clip-path="url(#pccb8d0beb0)" style="fill: #ff7878"/>
    <path d="M 374.403114 66.114762 
L 381.209042 66.114762 
L 381.209042 46.669254 
L 374.403114 46.669254 
L 374.403114 66.114762 
" clip-path="url(#pccb8d0beb0)" style="fill: #ff4242"/>
    <path d="M 374.403114 46.669254 
L 381.209042 46.669254 
L 381.209042 27.223746 
L 374.403114 27.223746 
L 374.403114 46.669254 
" clip-path="url(#pccb8d0beb0)" style="fill: #ff0c0c"/>
   </g>
   <g id="matplotlib.axis_5"/>
   <g id="matplotlib.axis_6">
    <g id="ytick_39">
     <g id="line2d_79">
      <defs>
       <path id="m98c6af34b9" d="M 0 0 
L 3.5 0 
" style="stroke: #000000; stroke-width: 0.8"/>
      </defs>
      <g>
       <use xlink:href="#m98c6af34b9" x="381.209042" y="163.342302" style="stroke: #000000; stroke-width: 0.8"/>
      </g>
     </g>
     <g id="text_18">
      <!-- $\mathdefault{−1.6}$ -->
      <g transform="translate(388.209042 166.109703) scale(0.08 -0.08)">
       <defs>
        <path id="CMMI12-3a" d="M 1178 307 
C 1178 492 1024 620 870 620 
C 685 620 557 467 557 313 
C 557 128 710 0 864 0 
C 1050 0 1178 153 1178 307 
z
" transform="scale(0.015625)"/>
        <path id="CMR17-36" d="M 678 2198 
C 678 3712 1395 4076 1811 4076 
C 1946 4076 2272 4049 2400 3782 
C 2298 3782 2106 3782 2106 3558 
C 2106 3385 2246 3328 2336 3328 
C 2394 3328 2566 3353 2566 3571 
C 2566 3987 2246 4224 1805 4224 
C 1043 4224 243 3411 243 2011 
C 243 257 966 -128 1478 -128 
C 2099 -128 2688 431 2688 1295 
C 2688 2101 2170 2688 1517 2688 
C 1126 2688 838 2430 678 1979 
L 678 2198 
z
M 1478 25 
C 691 25 691 1212 691 1450 
C 691 1914 909 2585 1504 2585 
C 1613 2585 1926 2585 2138 2140 
C 2253 1889 2253 1624 2253 1302 
C 2253 954 2253 696 2118 438 
C 1978 173 1773 25 1478 25 
z
" transform="scale(0.015625)"/>
       </defs>
       <use xlink:href="#CMSY10-0" transform="scale(0.996264)"/>
       <use xlink:href="#CMR17-31" transform="translate(77.487468 0) scale(0.996264)"/>
       <use xlink:href="#CMMI12-3a" transform="translate(123.177945 0) scale(0.996264)"/>
       <use xlink:href="#CMR17-36" transform="translate(150.275122 0) scale(0.996264)"/>
      </g>
     </g>
    </g>
    <g id="ytick_40">
     <g id="line2d_80">
      <g>
       <use xlink:href="#m98c6af34b9" x="381.209042" y="143.896794" style="stroke: #000000; stroke-width: 0.8"/>
      </g>
     </g>
     <g id="text_19">
      <!-- $\mathdefault{−0.8}$ -->
      <g transform="translate(388.209042 146.664195) scale(0.08 -0.08)">
       <defs>
        <path id="CMR17-38" d="M 1741 2289 
C 2144 2494 2554 2803 2554 3298 
C 2554 3884 1990 4224 1472 4224 
C 890 4224 378 3800 378 3215 
C 378 3054 416 2777 666 2533 
C 730 2469 998 2276 1171 2154 
C 883 2006 211 1652 211 945 
C 211 282 838 -128 1459 -128 
C 2144 -128 2720 366 2720 1022 
C 2720 1607 2330 1877 2074 2051 
L 1741 2289 
z
M 902 2855 
C 851 2887 595 3086 595 3388 
C 595 3781 998 4076 1459 4076 
C 1965 4076 2336 3716 2336 3298 
C 2336 2700 1670 2359 1638 2359 
C 1632 2359 1626 2359 1574 2398 
L 902 2855 
z
M 2080 1536 
C 2176 1466 2483 1253 2483 861 
C 2483 385 2010 25 1472 25 
C 890 25 448 443 448 951 
C 448 1459 838 1884 1280 2083 
L 2080 1536 
z
" transform="scale(0.015625)"/>
       </defs>
       <use xlink:href="#CMSY10-0" transform="scale(0.996264)"/>
       <use xlink:href="#CMR17-30" transform="translate(77.487468 0) scale(0.996264)"/>
       <use xlink:href="#CMMI12-3a" transform="translate(123.177945 0) scale(0.996264)"/>
       <use xlink:href="#CMR17-38" transform="translate(150.275122 0) scale(0.996264)"/>
      </g>
     </g>
    </g>
    <g id="ytick_41">
     <g id="line2d_81">
      <g>
       <use xlink:href="#m98c6af34b9" x="381.209042" y="124.451286" style="stroke: #000000; stroke-width: 0.8"/>
      </g>
     </g>
     <g id="text_20">
      <!-- $\mathdefault{0.0}$ -->
      <g transform="translate(388.209042 127.218687) scale(0.08 -0.08)">
       <use xlink:href="#CMR17-30" transform="scale(0.996264)"/>
       <use xlink:href="#CMMI12-3a" transform="translate(45.690477 0) scale(0.996264)"/>
       <use xlink:href="#CMR17-30" transform="translate(72.787654 0) scale(0.996264)"/>
      </g>
     </g>
    </g>
    <g id="ytick_42">
     <g id="line2d_82">
      <g>
       <use xlink:href="#m98c6af34b9" x="381.209042" y="105.005778" style="stroke: #000000; stroke-width: 0.8"/>
      </g>
     </g>
     <g id="text_21">
      <!-- $\mathdefault{0.8}$ -->
      <g transform="translate(388.209042 107.773179) scale(0.08 -0.08)">
       <use xlink:href="#CMR17-30" transform="scale(0.996264)"/>
       <use xlink:href="#CMMI12-3a" transform="translate(45.690477 0) scale(0.996264)"/>
       <use xlink:href="#CMR17-38" transform="translate(72.787654 0) scale(0.996264)"/>
      </g>
     </g>
    </g>
    <g id="ytick_43">
     <g id="line2d_83">
      <g>
       <use xlink:href="#m98c6af34b9" x="381.209042" y="85.56027" style="stroke: #000000; stroke-width: 0.8"/>
      </g>
     </g>
     <g id="text_22">
      <!-- $\mathdefault{1.6}$ -->
      <g transform="translate(388.209042 88.327671) scale(0.08 -0.08)">
       <use xlink:href="#CMR17-31" transform="scale(0.996264)"/>
       <use xlink:href="#CMMI12-3a" transform="translate(45.690477 0) scale(0.996264)"/>
       <use xlink:href="#CMR17-36" transform="translate(72.787654 0) scale(0.996264)"/>
      </g>
     </g>
    </g>
    <g id="ytick_44">
     <g id="line2d_84">
      <g>
       <use xlink:href="#m98c6af34b9" x="381.209042" y="66.114762" style="stroke: #000000; stroke-width: 0.8"/>
      </g>
     </g>
     <g id="text_23">
      <!-- $\mathdefault{2.4}$ -->
      <g transform="translate(388.209042 68.882163) scale(0.08 -0.08)">
       <defs>
        <path id="CMR17-34" d="M 2150 4147 
C 2150 4281 2144 4288 2029 4288 
L 128 1254 
L 128 1088 
L 1779 1088 
L 1779 460 
C 1779 230 1766 166 1318 166 
L 1197 166 
L 1197 0 
C 1402 12 1747 12 1965 12 
C 2182 12 2528 12 2733 0 
L 2733 166 
L 2611 166 
C 2163 166 2150 230 2150 460 
L 2150 1088 
L 2803 1088 
L 2803 1254 
L 2150 1254 
L 2150 4147 
z
M 1798 3723 
L 1798 1254 
L 256 1254 
L 1798 3723 
z
" transform="scale(0.015625)"/>
       </defs>
       <use xlink:href="#CMR17-32" transform="scale(0.996264)"/>
       <use xlink:href="#CMMI12-3a" transform="translate(45.690477 0) scale(0.996264)"/>
       <use xlink:href="#CMR17-34" transform="translate(72.787654 0) scale(0.996264)"/>
      </g>
     </g>
    </g>
    <g id="ytick_45">
     <g id="line2d_85">
      <g>
       <use xlink:href="#m98c6af34b9" x="381.209042" y="46.669254" style="stroke: #000000; stroke-width: 0.8"/>
      </g>
     </g>
     <g id="text_24">
      <!-- $\mathdefault{3.2}$ -->
      <g transform="translate(388.209042 49.436655) scale(0.08 -0.08)">
       <defs>
        <path id="CMR17-33" d="M 1414 2176 
C 1984 2176 2234 1673 2234 1094 
C 2234 322 1824 25 1453 25 
C 1114 25 563 193 390 691 
C 422 678 454 678 486 678 
C 640 678 755 780 755 947 
C 755 1132 614 1216 486 1216 
C 378 1216 211 1164 211 927 
C 211 335 787 -128 1466 -128 
C 2176 -128 2720 432 2720 1087 
C 2720 1718 2208 2176 1600 2246 
C 2086 2347 2554 2776 2554 3353 
C 2554 3856 2048 4224 1472 4224 
C 890 4224 378 3862 378 3347 
C 378 3123 544 3084 627 3084 
C 762 3084 877 3167 877 3334 
C 877 3500 762 3584 627 3584 
C 602 3584 570 3584 544 3571 
C 730 3999 1235 4076 1459 4076 
C 1683 4076 2106 3966 2106 3347 
C 2106 3167 2080 2851 1862 2574 
C 1670 2329 1453 2316 1242 2297 
C 1210 2297 1062 2284 1037 2284 
C 992 2278 966 2272 966 2227 
C 966 2182 973 2176 1101 2176 
L 1414 2176 
z
" transform="scale(0.015625)"/>
       </defs>
       <use xlink:href="#CMR17-33" transform="scale(0.996264)"/>
       <use xlink:href="#CMMI12-3a" transform="translate(45.690477 0) scale(0.996264)"/>
       <use xlink:href="#CMR17-32" transform="translate(72.787654 0) scale(0.996264)"/>
      </g>
     </g>
    </g>
    <g id="ytick_46">
     <g id="line2d_86">
      <g>
       <use xlink:href="#m98c6af34b9" x="381.209042" y="27.223746" style="stroke: #000000; stroke-width: 0.8"/>
      </g>
     </g>
     <g id="text_25">
      <!-- $\mathdefault{4.0}$ -->
      <g transform="translate(388.209042 29.991147) scale(0.08 -0.08)">
       <use xlink:href="#CMR17-34" transform="scale(0.996264)"/>
       <use xlink:href="#CMMI12-3a" transform="translate(45.690477 0) scale(0.996264)"/>
       <use xlink:href="#CMR17-30" transform="translate(72.787654 0) scale(0.996264)"/>
      </g>
     </g>
    </g>
   </g>
   <g id="LineCollection_1"/>
   <g id="patch_13">
    <path d="M 374.403114 163.342302 
L 377.806078 163.342302 
L 381.209042 163.342302 
L 381.209042 27.223746 
L 377.806078 27.223746 
L 374.403114 27.223746 
L 374.403114 163.342302 
z
" style="fill: none; stroke: #000000; stroke-width: 0.8; stroke-linejoin: miter; stroke-linecap: square"/>
   </g>
  </g>
 </g>
 <defs>
  <clipPath id="p0548e1e876">
   <rect x="36.561965" y="27.223746" width="157.135418" height="136.118556"/>
  </clipPath>
  <clipPath id="p4880f1d3bb">
   <rect x="225.124467" y="27.223746" width="146.135939" height="136.118556"/>
  </clipPath>
  <clipPath id="pccb8d0beb0">
   <rect x="374.403114" y="27.223746" width="6.805928" height="136.118556"/>
  </clipPath>
 </defs>
</svg>
