<?xml version="1.0" encoding="utf-8" standalone="no"?>
<!DOCTYPE svg PUBLIC "-//W3C//DTD SVG 1.1//EN"
  "http://www.w3.org/Graphics/SVG/1.1/DTD/svg11.dtd">
<svg xmlns:xlink="http://www.w3.org/1999/xlink" width="216.467904pt" height="134.806076pt" viewBox="0 0 216.467904 134.806076" xmlns="http://www.w3.org/2000/svg" version="1.1">
 <metadata>
  <rdf:RDF xmlns:dc="http://purl.org/dc/elements/1.1/" xmlns:cc="http://creativecommons.org/ns#" xmlns:rdf="http://www.w3.org/1999/02/22-rdf-syntax-ns#">
   <cc:Work>
    <dc:type rdf:resource="http://purl.org/dc/dcmitype/StillImage"/>
    <dc:date>2025-09-20T15:44:33.108065</dc:date>
    <dc:format>image/svg+xml</dc:format>
    <dc:creator>
     <cc:Agent>
      <dc:title>Matplotlib v3.10.0, https://matplotlib.org/</dc:title>
     </cc:Agent>
    </dc:creator>
   </cc:Work>
  </rdf:RDF>
 </metadata>
 <defs>
  <style type="text/css">*{stroke-linejoin: round; stroke-linecap: butt}</style>
 </defs>
 <g id="figure_1">
  <g id="patch_1">
   <path d="M 0 134.806076 
L 216.467904 134.806076 
L 216.467904 0 
L 0 0 
z
" style="fill: #ffffff"/>
  </g>
  <g id="axes_1">
   <g id="patch_2">
    <path d="M 36.561965 51.597942 
L 111.585769 51.597942 
L 111.585769 15.698543 
L 36.561965 15.698543 
z
" style="fill: #ffffff"/>
   </g>
   <g id="FillBetweenPolyCollection_1">
    <defs>
     <path id="mb15779a3a3" d="M 39.972138 -111.600631 
L 39.972138 -111.539534 
L 41.364045 -111.541925 
L 42.755953 -111.549055 
L 44.14786 -111.549849 
L 45.539767 -111.542312 
L 46.931675 -111.542913 
L 48.323582 -111.556347 
L 49.715489 -111.545499 
L 51.107397 -111.552959 
L 52.499304 -111.55266 
L 53.891211 -111.544786 
L 55.283118 -111.541807 
L 56.675026 -111.543837 
L 58.066933 -111.555968 
L 59.45884 -111.546714 
L 60.850748 -111.54281 
L 62.242655 -111.544545 
L 63.634562 -111.55096 
L 65.02647 -111.549349 
L 66.418377 -111.543796 
L 67.810284 -111.541687 
L 69.202192 -111.540001 
L 70.594099 -111.531585 
L 71.986006 -111.522244 
L 73.377913 -111.449886 
L 74.769821 -111.349838 
L 76.161728 -111.243761 
L 77.553635 -111.136192 
L 78.945543 -111.008698 
L 80.33745 -110.841102 
L 81.729357 -110.714275 
L 83.121265 -110.563063 
L 84.513172 -110.47044 
L 85.905079 -110.360284 
L 87.296987 -110.277376 
L 88.688894 -110.226682 
L 90.080801 -110.166076 
L 91.472708 -110.130872 
L 92.864616 -110.079989 
L 94.256523 -110.009276 
L 95.64843 -109.944043 
L 97.040338 -109.864815 
L 98.432245 -109.782195 
L 99.824152 -109.751652 
L 101.21606 -109.716142 
L 102.607967 -109.686177 
L 103.999874 -109.65841 
L 105.391782 -109.629231 
L 106.783689 -109.584723 
L 108.175596 -109.58665 
L 108.175596 -109.731387 
L 108.175596 -109.731387 
L 106.783689 -109.750832 
L 105.391782 -109.720316 
L 103.999874 -109.732369 
L 102.607967 -109.776524 
L 101.21606 -109.824923 
L 99.824152 -109.816289 
L 98.432245 -109.876544 
L 97.040338 -109.97195 
L 95.64843 -110.015538 
L 94.256523 -110.086939 
L 92.864616 -110.143662 
L 91.472708 -110.212162 
L 90.080801 -110.240099 
L 88.688894 -110.300813 
L 87.296987 -110.367798 
L 85.905079 -110.481814 
L 84.513172 -110.569288 
L 83.121265 -110.816104 
L 81.729357 -110.916808 
L 80.33745 -111.115287 
L 78.945543 -111.320301 
L 77.553635 -111.379674 
L 76.161728 -111.484863 
L 74.769821 -111.554672 
L 73.377913 -111.578467 
L 71.986006 -111.597981 
L 70.594099 -111.598495 
L 69.202192 -111.591737 
L 67.810284 -111.598035 
L 66.418377 -111.597935 
L 65.02647 -111.594134 
L 63.634562 -111.595107 
L 62.242655 -111.595601 
L 60.850748 -111.593364 
L 59.45884 -111.592426 
L 58.066933 -111.599541 
L 56.675026 -111.597318 
L 55.283118 -111.594671 
L 53.891211 -111.604906 
L 52.499304 -111.6016 
L 51.107397 -111.59908 
L 49.715489 -111.591469 
L 48.323582 -111.60106 
L 46.931675 -111.59637 
L 45.539767 -111.592069 
L 44.14786 -111.585487 
L 42.755953 -111.593664 
L 41.364045 -111.589902 
L 39.972138 -111.600631 
z
" style="stroke: #0000ff; stroke-opacity: 0.2"/>
    </defs>
    <g clip-path="url(#pff7f55bae1)">
     <use xlink:href="#mb15779a3a3" x="0" y="134.806076" style="fill: #0000ff; fill-opacity: 0.2; stroke: #0000ff; stroke-opacity: 0.2"/>
    </g>
   </g>
   <g id="FillBetweenPolyCollection_2">
    <defs>
     <path id="m738dd61968" d="M 39.972138 -112.234556 
L 39.972138 -112.176832 
L 41.364045 -112.173419 
L 42.755953 -112.169264 
L 44.14786 -112.179411 
L 45.539767 -112.177825 
L 46.931675 -112.169921 
L 48.323582 -112.166584 
L 49.715489 -112.176446 
L 51.107397 -112.171431 
L 52.499304 -112.169828 
L 53.891211 -112.16933 
L 55.283118 -112.171765 
L 56.675026 -112.17342 
L 58.066933 -112.169232 
L 59.45884 -112.174021 
L 60.850748 -112.172513 
L 62.242655 -112.177076 
L 63.634562 -112.171171 
L 65.02647 -112.174467 
L 66.418377 -112.172417 
L 67.810284 -112.171418 
L 69.202192 -112.176758 
L 70.594099 -112.174332 
L 71.986006 -112.176017 
L 73.377913 -112.167701 
L 74.769821 -112.09651 
L 76.161728 -111.989799 
L 77.553635 -111.886572 
L 78.945543 -111.780829 
L 80.33745 -111.609064 
L 81.729357 -111.505024 
L 83.121265 -111.332982 
L 84.513172 -111.301506 
L 85.905079 -111.227501 
L 87.296987 -111.154896 
L 88.688894 -111.123234 
L 90.080801 -111.093869 
L 91.472708 -111.057091 
L 92.864616 -111.015116 
L 94.256523 -110.987013 
L 95.64843 -110.938475 
L 97.040338 -110.911857 
L 98.432245 -110.868354 
L 99.824152 -110.840363 
L 101.21606 -110.820742 
L 102.607967 -110.816115 
L 103.999874 -110.796958 
L 105.391782 -110.793224 
L 106.783689 -110.784138 
L 108.175596 -110.762283 
L 108.175596 -110.841792 
L 108.175596 -110.841792 
L 106.783689 -110.847515 
L 105.391782 -110.848375 
L 103.999874 -110.867208 
L 102.607967 -110.877769 
L 101.21606 -110.888605 
L 99.824152 -110.898566 
L 98.432245 -110.922891 
L 97.040338 -110.996566 
L 95.64843 -111.009701 
L 94.256523 -111.041107 
L 92.864616 -111.089157 
L 91.472708 -111.124393 
L 90.080801 -111.160255 
L 88.688894 -111.196094 
L 87.296987 -111.241403 
L 85.905079 -111.3211 
L 84.513172 -111.389922 
L 83.121265 -111.610861 
L 81.729357 -111.678808 
L 80.33745 -111.831822 
L 78.945543 -111.997758 
L 77.553635 -112.060925 
L 76.161728 -112.149455 
L 74.769821 -112.200412 
L 73.377913 -112.210393 
L 71.986006 -112.235894 
L 70.594099 -112.233784 
L 69.202192 -112.251701 
L 67.810284 -112.237165 
L 66.418377 -112.232659 
L 65.02647 -112.215702 
L 63.634562 -112.22581 
L 62.242655 -112.230799 
L 60.850748 -112.228034 
L 59.45884 -112.221623 
L 58.066933 -112.211187 
L 56.675026 -112.225532 
L 55.283118 -112.231303 
L 53.891211 -112.230906 
L 52.499304 -112.219812 
L 51.107397 -112.220962 
L 49.715489 -112.230785 
L 48.323582 -112.222042 
L 46.931675 -112.231785 
L 45.539767 -112.24401 
L 44.14786 -112.221667 
L 42.755953 -112.232217 
L 41.364045 -112.250437 
L 39.972138 -112.234556 
z
" style="stroke: #000000; stroke-opacity: 0.2"/>
    </defs>
    <g clip-path="url(#pff7f55bae1)">
     <use xlink:href="#m738dd61968" x="0" y="134.806076" style="fill-opacity: 0.2; stroke: #000000; stroke-opacity: 0.2"/>
    </g>
   </g>
   <g id="matplotlib.axis_1">
    <g id="xtick_1">
     <g id="line2d_1">
      <defs>
       <path id="m336bafbb21" d="M 0 0 
L 0 3.5 
" style="stroke: #000000; stroke-width: 0.8"/>
      </defs>
      <g>
       <use xlink:href="#m336bafbb21" x="57.023003" y="51.597942" style="stroke: #000000; stroke-width: 0.8"/>
      </g>
     </g>
    </g>
    <g id="xtick_2">
     <g id="line2d_2">
      <g>
       <use xlink:href="#m336bafbb21" x="91.124732" y="51.597942" style="stroke: #000000; stroke-width: 0.8"/>
      </g>
     </g>
    </g>
   </g>
   <g id="matplotlib.axis_2">
    <g id="ytick_1">
     <g id="line2d_3">
      <defs>
       <path id="m85e18dda3f" d="M 0 0 
L -3.5 0 
" style="stroke: #000000; stroke-width: 0.8"/>
      </defs>
      <g>
       <use xlink:href="#m85e18dda3f" x="36.561965" y="51.597942" style="stroke: #000000; stroke-width: 0.8"/>
      </g>
     </g>
     <g id="text_1">
      <!-- $10^{-1}$ -->
      <g transform="translate(11.684547 54.365343) scale(0.08 -0.08)">
       <defs>
        <path id="CMR17-31" d="M 1702 4083 
C 1702 4217 1696 4224 1606 4224 
C 1357 3927 979 3833 621 3820 
C 602 3820 570 3820 563 3808 
C 557 3795 557 3782 557 3648 
C 755 3648 1088 3686 1344 3839 
L 1344 467 
C 1344 243 1331 166 781 166 
L 589 166 
L 589 0 
C 896 6 1216 12 1523 12 
C 1830 12 2150 6 2458 0 
L 2458 166 
L 2266 166 
C 1715 166 1702 236 1702 467 
L 1702 4083 
z
" transform="scale(0.015625)"/>
        <path id="CMR17-30" d="M 2688 2038 
C 2688 2430 2682 3099 2413 3613 
C 2176 4063 1798 4224 1466 4224 
C 1158 4224 768 4082 525 3620 
C 269 3137 243 2539 243 2038 
C 243 1671 250 1112 448 623 
C 723 -39 1216 -128 1466 -128 
C 1760 -128 2208 -7 2470 604 
C 2662 1048 2688 1568 2688 2038 
z
M 1466 -26 
C 1056 -26 813 328 723 816 
C 653 1196 653 1749 653 2109 
C 653 2604 653 3015 736 3407 
C 858 3954 1216 4121 1466 4121 
C 1728 4121 2067 3947 2189 3420 
C 2272 3054 2278 2623 2278 2109 
C 2278 1691 2278 1176 2202 797 
C 2067 96 1690 -26 1466 -26 
z
" transform="scale(0.015625)"/>
        <path id="CMSY10-0" d="M 4218 1472 
C 4326 1472 4442 1472 4442 1600 
C 4442 1728 4326 1728 4218 1728 
L 755 1728 
C 646 1728 531 1728 531 1600 
C 531 1472 646 1472 755 1472 
L 4218 1472 
z
" transform="scale(0.015625)"/>
       </defs>
       <use xlink:href="#CMR17-31" transform="scale(0.996264)"/>
       <use xlink:href="#CMR17-30" transform="translate(45.690477 0) scale(0.996264)"/>
       <use xlink:href="#CMSY10-0" transform="translate(91.380954 36.153639) scale(0.697382)"/>
       <use xlink:href="#CMR17-31" transform="translate(145.621947 36.153639) scale(0.697382)"/>
      </g>
     </g>
    </g>
    <g id="ytick_2">
     <g id="line2d_4">
      <g>
       <use xlink:href="#m85e18dda3f" x="36.561965" y="15.698543" style="stroke: #000000; stroke-width: 0.8"/>
      </g>
     </g>
     <g id="text_2">
      <!-- $10^{0}$ -->
      <g transform="translate(17.440687 18.465944) scale(0.08 -0.08)">
       <use xlink:href="#CMR17-31" transform="scale(0.996264)"/>
       <use xlink:href="#CMR17-30" transform="translate(45.690477 0) scale(0.996264)"/>
       <use xlink:href="#CMR17-30" transform="translate(91.380954 36.153639) scale(0.697382)"/>
      </g>
     </g>
    </g>
    <g id="text_3">
     <!-- $\mathcal{L}$ -->
     <g transform="translate(9.134802 36.560137) rotate(-90) scale(0.08 -0.08)">
      <defs>
       <path id="CMSY10-4c" d="M 1152 609 
C 1498 1149 1606 1561 1690 1902 
C 1914 2790 2157 3561 2554 4005 
C 2630 4089 2682 4147 2886 4147 
C 3328 4147 3341 3703 3341 3613 
C 3341 3497 3309 3407 3309 3375 
C 3309 3330 3347 3330 3354 3330 
C 3456 3330 3629 3401 3789 3516 
C 3904 3606 3962 3671 3962 3934 
C 3962 4281 3782 4544 3424 4544 
C 3219 4544 2656 4492 2029 3857 
C 1517 3330 1216 2172 1094 1690 
C 979 1246 928 1047 736 661 
C 691 583 525 300 435 217 
C 262 57 198 -58 198 -90 
C 198 -103 211 -128 256 -128 
C 282 -128 416 -103 582 6 
C 691 70 704 83 851 236 
C 1171 230 1395 172 1798 57 
C 2125 -32 2451 -128 2778 -128 
C 3296 -128 3821 262 4026 545 
C 4154 719 4192 879 4192 899 
C 4192 944 4154 944 4147 944 
C 4045 944 3891 873 3782 796 
C 3610 686 3597 648 3558 538 
C 3526 436 3488 384 3462 346 
C 3411 268 3405 268 3309 268 
C 3002 268 2682 365 2259 481 
C 2080 532 1728 635 1408 635 
C 1325 635 1235 628 1152 609 
z
" transform="scale(0.015625)"/>
      </defs>
      <use xlink:href="#CMSY10-4c" transform="scale(0.996264)"/>
     </g>
    </g>
   </g>
   <g id="line2d_5">
    <path d="M 39.972138 23.235964 
L 41.364045 23.240144 
L 42.755953 23.234701 
L 44.14786 23.238398 
L 45.539767 23.238866 
L 46.931675 23.236412 
L 48.323582 23.227357 
L 49.715489 23.237575 
L 51.107397 23.23004 
L 52.499304 23.228927 
L 53.891211 23.231201 
L 55.283118 23.237815 
L 56.675026 23.235476 
L 58.066933 23.228307 
L 59.45884 23.236489 
L 60.850748 23.237969 
L 62.242655 23.235982 
L 63.634562 23.233028 
L 65.02647 23.234319 
L 66.418377 23.235188 
L 67.810284 23.23619 
L 69.202192 23.240186 
L 70.594099 23.241001 
L 71.986006 23.245918 
L 73.377913 23.291767 
L 74.769821 23.353485 
L 76.161728 23.441298 
L 77.553635 23.547668 
L 78.945543 23.640798 
L 80.33745 23.827279 
L 81.729357 23.990206 
L 83.121265 24.11598 
L 84.513172 24.286134 
L 85.905079 24.384909 
L 87.296987 24.483424 
L 88.688894 24.542285 
L 90.080801 24.602945 
L 91.472708 24.634506 
L 92.864616 24.694219 
L 94.256523 24.75792 
L 95.64843 24.826245 
L 97.040338 24.887601 
L 98.432245 24.976635 
L 99.824152 25.022072 
L 101.21606 25.035449 
L 102.607967 25.07466 
L 103.999874 25.110643 
L 105.391782 25.131237 
L 106.783689 25.138078 
L 108.175596 25.14689 
" clip-path="url(#pff7f55bae1)" style="fill: none; stroke: #0000ff; stroke-width: 1.5; stroke-linecap: square"/>
   </g>
   <g id="line2d_6">
    <path d="M 39.972138 22.600355 
L 41.364045 22.594101 
L 42.755953 22.605304 
L 44.14786 22.605523 
L 45.539767 22.595124 
L 46.931675 22.605192 
L 48.323582 22.611739 
L 49.715489 22.602437 
L 51.107397 22.60986 
L 52.499304 22.611236 
L 53.891211 22.605928 
L 55.283118 22.604514 
L 56.675026 22.606578 
L 58.066933 22.615853 
L 59.45884 22.608236 
L 60.850748 22.605778 
L 62.242655 22.602115 
L 63.634562 22.607562 
L 65.02647 22.610978 
L 66.418377 22.603509 
L 67.810284 22.60175 
L 69.202192 22.591802 
L 70.594099 22.60199 
L 71.986006 22.600092 
L 73.377913 22.617014 
L 74.769821 22.657529 
L 76.161728 22.736245 
L 77.553635 22.832084 
L 78.945543 22.916405 
L 80.33745 23.085236 
L 81.729357 23.213918 
L 83.121265 23.333536 
L 84.513172 23.460299 
L 85.905079 23.531706 
L 87.296987 23.607867 
L 88.688894 23.64637 
L 90.080801 23.678979 
L 91.472708 23.715298 
L 92.864616 23.753895 
L 94.256523 23.791992 
L 95.64843 23.831948 
L 97.040338 23.851807 
L 98.432245 23.91043 
L 99.824152 23.936584 
L 101.21606 23.951366 
L 102.607967 23.959104 
L 103.999874 23.973954 
L 105.391782 23.985253 
L 106.783689 23.990218 
L 108.175596 24.003988 
" clip-path="url(#pff7f55bae1)" style="fill: none; stroke: #000000; stroke-width: 1.5; stroke-linecap: square"/>
   </g>
   <g id="line2d_7">
    <path d="M 39.972138 23.275312 
L 41.364045 23.281545 
L 42.755953 23.272361 
L 44.14786 23.270369 
L 45.539767 23.274487 
L 46.931675 23.275785 
L 48.323582 23.26983 
L 49.715489 23.278474 
L 51.107397 23.277738 
L 52.499304 23.273695 
L 53.891211 23.279824 
L 55.283118 23.275868 
L 56.675026 23.273734 
L 58.066933 23.277889 
L 59.45884 23.282175 
L 60.850748 23.281359 
L 62.242655 23.279158 
L 63.634562 23.266495 
L 65.02647 23.271386 
L 66.418377 23.280937 
L 67.810284 23.277626 
L 69.202192 23.285838 
L 70.594099 23.293337 
L 71.986006 23.317614 
L 73.377913 23.395812 
L 74.769821 23.557355 
L 76.161728 23.666243 
L 77.553635 23.683252 
L 78.945543 23.829307 
L 80.33745 24.024559 
L 81.729357 24.197482 
L 83.121265 24.280876 
L 84.513172 24.369171 
L 85.905079 24.49058 
L 87.296987 24.565814 
L 88.688894 24.612563 
L 90.080801 24.664769 
L 91.472708 24.690069 
L 92.864616 24.746168 
L 94.256523 24.818406 
L 95.64843 24.928167 
L 97.040338 24.966827 
L 98.432245 25.073512 
L 99.824152 25.07698 
L 101.21606 25.127095 
L 102.607967 25.155278 
L 103.999874 25.173135 
L 105.391782 25.214815 
L 106.783689 25.229016 
L 108.175596 25.271179 
" clip-path="url(#pff7f55bae1)" style="fill: none; stroke-dasharray: 5.55,2.4; stroke-dashoffset: 0; stroke: #0000ff; stroke-width: 1.5"/>
   </g>
   <g id="line2d_8">
    <path d="M 39.972138 23.140723 
L 41.364045 23.19843 
L 42.755953 23.199423 
L 44.14786 23.197845 
L 45.539767 23.194277 
L 46.931675 23.192966 
L 48.323582 23.162665 
L 49.715489 23.171154 
L 51.107397 23.189957 
L 52.499304 23.16992 
L 53.891211 23.154317 
L 55.283118 23.149423 
L 56.675026 23.17082 
L 58.066933 23.184254 
L 59.45884 23.192075 
L 60.850748 23.190966 
L 62.242655 23.179835 
L 63.634562 23.183276 
L 65.02647 23.173714 
L 66.418377 23.189427 
L 67.810284 23.192463 
L 69.202192 23.182113 
L 70.594099 23.148424 
L 71.986006 23.170879 
L 73.377913 23.192695 
L 74.769821 23.187998 
L 76.161728 23.207543 
L 77.553635 23.20976 
L 78.945543 23.203709 
L 80.33745 23.216871 
L 81.729357 23.802602 
L 83.121265 23.569889 
L 84.513172 24.191608 
L 85.905079 24.260093 
L 87.296987 24.371038 
L 88.688894 24.468857 
L 90.080801 24.509944 
L 91.472708 24.478971 
L 92.864616 24.586087 
L 94.256523 24.651784 
L 95.64843 24.776563 
L 97.040338 24.766248 
L 98.432245 24.838719 
L 99.824152 24.937004 
L 101.21606 24.881407 
L 102.607967 24.940801 
L 103.999874 25.028076 
L 105.391782 25.034716 
L 106.783689 24.839837 
L 108.175596 24.890911 
" clip-path="url(#pff7f55bae1)" style="fill: none; stroke-dasharray: 1.5,2.475; stroke-dashoffset: 0; stroke: #0000ff; stroke-width: 1.5"/>
   </g>
   <g id="line2d_9">
    <path d="M 39.972138 22.641009 
L 41.364045 22.64275 
L 42.755953 22.640266 
L 44.14786 22.644347 
L 45.539767 22.644839 
L 46.931675 22.656064 
L 48.323582 22.644332 
L 49.715489 22.646364 
L 51.107397 22.646036 
L 52.499304 22.646234 
L 53.891211 22.659257 
L 55.283118 22.642457 
L 56.675026 22.638492 
L 58.066933 22.651541 
L 59.45884 22.639866 
L 60.850748 22.646043 
L 62.242655 22.639168 
L 63.634562 22.650811 
L 65.02647 22.647903 
L 66.418377 22.650322 
L 67.810284 22.650104 
L 69.202192 22.650312 
L 70.594099 22.641447 
L 71.986006 22.644595 
L 73.377913 22.646963 
L 74.769821 22.81204 
L 76.161728 22.904213 
L 77.553635 22.977111 
L 78.945543 23.070378 
L 80.33745 23.21857 
L 81.729357 23.409274 
L 83.121265 23.482443 
L 84.513172 23.538668 
L 85.905079 23.611341 
L 87.296987 23.693395 
L 88.688894 23.744929 
L 90.080801 23.736249 
L 91.472708 23.778229 
L 92.864616 23.817099 
L 94.256523 23.845392 
L 95.64843 23.897448 
L 97.040338 23.933718 
L 98.432245 23.957307 
L 99.824152 24.003298 
L 101.21606 24.015453 
L 102.607967 24.037379 
L 103.999874 24.057204 
L 105.391782 24.056944 
L 106.783689 24.081587 
L 108.175596 24.0623 
" clip-path="url(#pff7f55bae1)" style="fill: none; stroke-dasharray: 5.55,2.4; stroke-dashoffset: 0; stroke: #000000; stroke-width: 1.5"/>
   </g>
   <g id="line2d_10">
    <path d="M 39.972138 22.543164 
L 41.364045 22.507095 
L 42.755953 22.536357 
L 44.14786 22.571341 
L 45.539767 22.501617 
L 46.931675 22.548001 
L 48.323582 22.536586 
L 49.715489 22.548809 
L 51.107397 22.552594 
L 52.499304 22.557053 
L 53.891211 22.53543 
L 55.283118 22.52499 
L 56.675026 22.544814 
L 58.066933 22.56332 
L 59.45884 22.551129 
L 60.850748 22.55332 
L 62.242655 22.557271 
L 63.634562 22.559869 
L 65.02647 22.5669 
L 66.418377 22.533269 
L 67.810284 22.52467 
L 69.202192 22.47391 
L 70.594099 22.532735 
L 71.986006 22.524621 
L 73.377913 22.575289 
L 74.769821 22.592617 
L 76.161728 22.600442 
L 77.553635 22.626346 
L 78.945543 22.618023 
L 80.33745 22.626869 
L 81.729357 23.038651 
L 83.121265 22.681386 
L 84.513172 23.383151 
L 85.905079 23.429439 
L 87.296987 23.501006 
L 88.688894 23.542211 
L 90.080801 23.606256 
L 91.472708 23.633401 
L 92.864616 23.671679 
L 94.256523 23.740674 
L 95.64843 23.735141 
L 97.040338 23.745866 
L 98.432245 23.842457 
L 99.824152 23.860786 
L 101.21606 23.872478 
L 102.607967 23.900757 
L 103.999874 23.907824 
L 105.391782 23.918502 
L 106.783689 23.925419 
L 108.175596 23.905243 
" clip-path="url(#pff7f55bae1)" style="fill: none; stroke-dasharray: 1.5,2.475; stroke-dashoffset: 0; stroke: #000000; stroke-width: 1.5"/>
   </g>
   <g id="patch_3">
    <path d="M 36.561965 51.597942 
L 36.561965 15.698543 
" style="fill: none; stroke: #000000; stroke-width: 0.8; stroke-linejoin: miter; stroke-linecap: square"/>
   </g>
   <g id="patch_4">
    <path d="M 111.585769 51.597942 
L 111.585769 15.698543 
" style="fill: none; stroke: #000000; stroke-width: 0.8; stroke-linejoin: miter; stroke-linecap: square"/>
   </g>
   <g id="patch_5">
    <path d="M 36.561965 51.597942 
L 111.585769 51.597942 
" style="fill: none; stroke: #000000; stroke-width: 0.8; stroke-linejoin: miter; stroke-linecap: square"/>
   </g>
   <g id="patch_6">
    <path d="M 36.561965 15.698543 
L 111.585769 15.698543 
" style="fill: none; stroke: #000000; stroke-width: 0.8; stroke-linejoin: miter; stroke-linecap: square"/>
   </g>
   <g id="text_4">
    <!-- $\mathbf{a)}$ -->
    <g transform="translate(24.771388 9.577584) scale(0.08 -0.08)">
     <defs>
      <path id="CMBX12-61" d="M 2944 1894 
C 2944 2483 2477 2880 1574 2880 
C 1216 2880 461 2847 461 2310 
C 461 2041 666 1926 838 1926 
C 1030 1926 1216 2060 1216 2303 
C 1216 2425 1171 2540 1062 2611 
C 1274 2668 1427 2668 1549 2668 
C 1984 2668 2246 2425 2246 1900 
L 2246 1644 
C 1235 1644 218 1362 218 648 
C 218 64 960 -64 1402 -64 
C 1894 -64 2208 205 2336 488 
C 2336 250 2336 -26 2982 -26 
L 3309 -26 
C 3443 -26 3494 -26 3494 115 
C 3494 250 3437 250 3347 250 
C 2944 256 2944 359 2944 507 
L 2944 1894 
z
M 2246 867 
C 2246 262 1709 147 1504 147 
C 1190 147 928 359 928 655 
C 928 1240 1619 1439 2246 1472 
L 2246 867 
z
" transform="scale(0.015625)"/>
      <path id="CMR17-29" d="M 1683 1596 
C 1683 2057 1638 2839 1254 3665 
C 947 4332 422 4800 346 4800 
C 326 4800 301 4793 301 4761 
C 301 4748 307 4742 314 4729 
C 621 4408 1402 3595 1402 1603 
C 1402 -396 627 -1210 314 -1530 
C 307 -1543 301 -1549 301 -1562 
C 301 -1594 326 -1600 346 -1600 
C 416 -1600 960 -1127 1274 -422 
C 1594 289 1683 981 1683 1596 
z
" transform="scale(0.015625)"/>
     </defs>
     <use xlink:href="#CMBX12-61" transform="scale(0.996264)"/>
     <use xlink:href="#CMR17-29" transform="translate(54.483188 0) scale(0.996264)"/>
    </g>
   </g>
   <g id="legend_1">
    <g id="line2d_11">
     <path d="M 38.961965 30.298481 
L 40.961965 30.298481 
L 42.961965 30.298481 
" style="fill: none; stroke: #0000ff; stroke-width: 1.5; stroke-linecap: square"/>
    </g>
    <g id="text_5">
     <!-- Mean -->
     <g transform="translate(44.161965 31.698481) scale(0.04 -0.04)">
      <defs>
       <path id="CMR17-4d" d="M 1338 4249 
C 1299 4345 1293 4352 1158 4352 
L 339 4352 
L 339 4185 
C 781 4185 851 4185 851 3898 
L 851 624 
C 851 465 851 166 339 166 
L 339 0 
C 486 12 755 12 915 12 
C 1075 12 1344 12 1491 0 
L 1491 166 
C 979 166 979 465 979 624 
L 979 4159 
L 986 4159 
L 2490 102 
C 2515 38 2528 0 2579 0 
C 2630 0 2643 38 2669 102 
L 4186 4191 
L 4192 4191 
L 4192 453 
C 4192 166 4122 166 3680 166 
L 3680 0 
C 3853 12 4198 12 4384 12 
C 4570 12 4922 12 5094 0 
L 5094 166 
C 4653 166 4582 166 4582 453 
L 4582 3898 
C 4582 4185 4653 4185 5094 4185 
L 5094 4352 
L 4282 4352 
C 4147 4352 4141 4345 4102 4249 
L 2720 516 
L 1338 4249 
z
" transform="scale(0.015625)"/>
       <path id="CMR17-65" d="M 2438 1503 
C 2464 1529 2464 1542 2464 1606 
C 2464 2251 2118 2816 1389 2816 
C 710 2816 173 2175 173 1394 
C 173 554 781 -64 1459 -64 
C 2176 -64 2458 619 2458 755 
C 2458 800 2419 800 2406 800 
C 2362 800 2355 787 2330 709 
C 2189 270 1837 51 1504 51 
C 1229 51 954 206 781 490 
C 582 819 582 1200 582 1503 
L 2438 1503 
z
M 589 1600 
C 634 2511 1126 2713 1382 2713 
C 1818 2713 2112 2308 2118 1600 
L 589 1600 
z
" transform="scale(0.015625)"/>
       <path id="CMR17-61" d="M 2304 1656 
C 2304 2048 2304 2275 2035 2534 
C 1798 2751 1523 2816 1306 2816 
C 800 2816 435 2408 435 1977 
C 435 1740 627 1728 666 1728 
C 749 1728 896 1779 896 1958 
C 896 2118 774 2188 666 2188 
C 640 2188 608 2182 589 2176 
C 723 2594 1069 2713 1293 2713 
C 1613 2713 1965 2421 1965 1875 
L 1965 1632 
C 1587 1619 1133 1568 774 1373 
C 371 1147 256 822 256 576 
C 256 77 832 -64 1171 -64 
C 1523 -64 1850 135 1990 505 
C 2003 219 2182 -39 2464 -39 
C 2598 -39 2938 51 2938 563 
L 2938 926 
L 2822 926 
L 2822 557 
C 2822 161 2650 109 2566 109 
C 2304 109 2304 446 2304 732 
L 2304 1656 
z
M 1965 887 
C 1965 323 1568 38 1216 38 
C 896 38 646 278 646 576 
C 646 771 730 1114 1101 1322 
C 1408 1497 1760 1523 1965 1536 
L 1965 887 
z
" transform="scale(0.015625)"/>
       <path id="CMR17-6e" d="M 2656 1954 
C 2656 2282 2592 2816 1837 2816 
C 1331 2816 1069 2424 973 2166 
L 966 2166 
L 966 2816 
L 211 2745 
L 211 2578 
C 589 2578 646 2540 646 2231 
L 646 443 
C 646 198 621 166 211 166 
L 211 0 
C 365 12 646 12 813 12 
C 979 12 1267 12 1421 0 
L 1421 166 
C 1011 166 986 192 986 443 
L 986 1678 
C 986 2269 1344 2713 1792 2713 
C 2266 2713 2317 2289 2317 1980 
L 2317 443 
C 2317 198 2291 166 1882 166 
L 1882 0 
C 2035 12 2317 12 2483 12 
C 2650 12 2938 12 3091 0 
L 3091 166 
C 2682 166 2656 192 2656 443 
L 2656 1954 
z
" transform="scale(0.015625)"/>
      </defs>
      <use xlink:href="#CMR17-4d" transform="scale(0.996264)"/>
      <use xlink:href="#CMR17-65" transform="translate(84.686941 0) scale(0.996264)"/>
      <use xlink:href="#CMR17-61" transform="translate(125.172601 0) scale(0.996264)"/>
      <use xlink:href="#CMR17-6e" transform="translate(170.863078 0) scale(0.996264)"/>
     </g>
    </g>
    <g id="patch_7">
     <path d="M 38.961965 37.273347 
L 42.961965 37.273347 
L 42.961965 34.473347 
L 38.961965 34.473347 
z
" style="fill: #0000ff; fill-opacity: 0.2; stroke: #0000ff; stroke-opacity: 0.2; stroke-linejoin: miter"/>
    </g>
    <g id="text_6">
     <!-- Std -->
     <g transform="translate(44.161965 37.273347) scale(0.04 -0.04)">
      <defs>
       <path id="CMR17-53" d="M 2803 4351 
C 2803 4467 2797 4473 2758 4473 
C 2720 4473 2707 4447 2682 4390 
L 2490 3965 
C 2246 4320 1875 4480 1472 4480 
C 819 4480 294 3958 294 3301 
C 294 3101 339 2817 557 2546 
C 794 2250 1018 2198 1530 2063 
C 1722 2011 2042 1927 2106 1901 
C 2470 1747 2662 1360 2662 999 
C 2662 534 2336 38 1779 38 
C 1094 38 454 425 410 1328 
C 403 1431 397 1437 352 1437 
C 301 1437 294 1431 294 1302 
L 294 0 
C 294 -116 301 -122 339 -122 
C 384 -122 397 -90 486 109 
C 493 128 493 141 614 386 
C 934 -39 1472 -128 1779 -128 
C 2477 -128 2970 457 2970 1141 
C 2970 1476 2848 1734 2778 1850 
C 2509 2263 2221 2340 1914 2417 
C 1869 2437 1856 2437 1498 2527 
C 1152 2617 1005 2662 845 2836 
C 666 3036 602 3243 602 3449 
C 602 3868 934 4326 1478 4326 
C 2157 4326 2579 3842 2675 3036 
C 2694 2920 2701 2914 2746 2914 
C 2803 2914 2803 2933 2803 3043 
L 2803 4351 
z
" transform="scale(0.015625)"/>
       <path id="CMR17-74" d="M 966 2585 
L 1862 2585 
L 1862 2752 
L 966 2752 
L 966 3968 
L 851 3968 
C 838 3292 614 2700 70 2687 
L 70 2585 
L 627 2585 
L 627 778 
C 627 655 627 -64 1370 -64 
C 1747 -64 1965 308 1965 784 
L 1965 1151 
L 1850 1151 
L 1850 790 
C 1850 347 1677 51 1408 51 
C 1222 51 966 179 966 765 
L 966 2585 
z
" transform="scale(0.015625)"/>
       <path id="CMR17-64" d="M 1869 4345 
L 1869 4179 
C 2246 4179 2304 4141 2304 3843 
L 2304 2371 
C 2278 2403 2016 2816 1498 2816 
C 845 2816 211 2228 211 1376 
C 211 529 806 -64 1434 -64 
C 1978 -64 2259 361 2291 406 
L 2291 -64 
L 3066 -13 
L 3066 154 
C 2688 154 2630 193 2630 503 
L 2630 4416 
L 1869 4345 
z
M 2291 762 
C 2291 568 2176 393 2029 264 
C 1811 70 1594 38 1472 38 
C 1286 38 621 135 621 1369 
C 621 2636 1363 2713 1530 2713 
C 1824 2713 2061 2545 2208 2313 
C 2291 2177 2291 2157 2291 2041 
L 2291 762 
z
" transform="scale(0.015625)"/>
      </defs>
      <use xlink:href="#CMR17-53" transform="scale(0.996264)"/>
      <use xlink:href="#CMR17-74" transform="translate(50.89537 0) scale(0.996264)"/>
      <use xlink:href="#CMR17-64" transform="translate(86.176138 0) scale(0.996264)"/>
     </g>
    </g>
    <g id="line2d_12">
     <path d="M 38.961965 41.448212 
L 40.961965 41.448212 
L 42.961965 41.448212 
" style="fill: none; stroke: #000000; stroke-width: 1.5; stroke-linecap: square"/>
    </g>
    <g id="text_7">
     <!-- Mean -->
     <g transform="translate(44.161965 42.848212) scale(0.04 -0.04)">
      <use xlink:href="#CMR17-4d" transform="scale(0.996264)"/>
      <use xlink:href="#CMR17-65" transform="translate(84.686941 0) scale(0.996264)"/>
      <use xlink:href="#CMR17-61" transform="translate(125.172601 0) scale(0.996264)"/>
      <use xlink:href="#CMR17-6e" transform="translate(170.863078 0) scale(0.996264)"/>
     </g>
    </g>
    <g id="patch_8">
     <path d="M 38.961965 48.423077 
L 42.961965 48.423077 
L 42.961965 45.623077 
L 38.961965 45.623077 
z
" style="fill-opacity: 0.2; stroke: #000000; stroke-opacity: 0.2; stroke-linejoin: miter"/>
    </g>
    <g id="text_8">
     <!-- Std -->
     <g transform="translate(44.161965 48.423077) scale(0.04 -0.04)">
      <use xlink:href="#CMR17-53" transform="scale(0.996264)"/>
      <use xlink:href="#CMR17-74" transform="translate(50.89537 0) scale(0.996264)"/>
      <use xlink:href="#CMR17-64" transform="translate(86.176138 0) scale(0.996264)"/>
     </g>
    </g>
    <g id="line2d_13">
     <path d="M 65.036096 30.298481 
L 67.036096 30.298481 
L 69.036096 30.298481 
" style="fill: none; stroke-dasharray: 5.55,2.4; stroke-dashoffset: 0; stroke: #0000ff; stroke-width: 1.5"/>
    </g>
    <g id="text_9">
     <!-- Max -->
     <g transform="translate(70.236096 31.698481) scale(0.04 -0.04)">
      <defs>
       <path id="CMR17-78" d="M 1664 1491 
C 1856 1740 2074 2022 2253 2233 
C 2464 2476 2707 2579 2989 2585 
L 2989 2752 
C 2880 2745 2656 2739 2541 2739 
C 2368 2739 2170 2739 2022 2752 
L 2022 2585 
C 2112 2572 2163 2508 2163 2419 
C 2163 2304 2099 2233 2067 2188 
L 1594 1587 
L 1030 2323 
C 973 2393 973 2406 973 2438 
C 973 2515 1037 2579 1146 2585 
L 1146 2752 
C 992 2739 717 2739 557 2739 
C 384 2739 179 2739 38 2752 
L 38 2585 
C 384 2585 461 2560 614 2368 
L 1350 1414 
C 1363 1401 1395 1363 1395 1344 
C 1395 1318 838 633 768 544 
C 480 198 179 172 6 166 
L 6 0 
C 115 6 339 12 454 12 
C 582 12 864 12 979 0 
L 979 166 
C 941 172 838 185 838 332 
C 838 448 890 518 947 595 
L 1478 1248 
L 2035 524 
C 2086 454 2163 358 2163 313 
C 2163 224 2086 172 1984 166 
L 1984 0 
C 2138 12 2413 12 2573 12 
C 2746 12 2950 12 3091 0 
L 3091 166 
C 2771 166 2675 179 2522 377 
L 1664 1491 
z
" transform="scale(0.015625)"/>
      </defs>
      <use xlink:href="#CMR17-4d" transform="scale(0.996264)"/>
      <use xlink:href="#CMR17-61" transform="translate(84.686941 0) scale(0.996264)"/>
      <use xlink:href="#CMR17-78" transform="translate(130.377418 0) scale(0.996264)"/>
     </g>
    </g>
    <g id="line2d_14">
     <path d="M 65.036096 35.873347 
L 67.036096 35.873347 
L 69.036096 35.873347 
" style="fill: none; stroke-dasharray: 1.5,2.475; stroke-dashoffset: 0; stroke: #0000ff; stroke-width: 1.5"/>
    </g>
    <g id="text_10">
     <!-- Min -->
     <g transform="translate(70.236096 37.273347) scale(0.04 -0.04)">
      <defs>
       <path id="CMR17-69" d="M 992 3961 
C 992 4102 877 4224 730 4224 
C 589 4224 467 4108 467 3961 
C 467 3820 582 3699 730 3699 
C 870 3699 992 3814 992 3961 
z
M 243 2745 
L 243 2579 
C 602 2579 653 2540 653 2231 
L 653 443 
C 653 198 627 166 218 166 
L 218 0 
C 371 12 646 12 806 12 
C 960 12 1222 12 1370 0 
L 1370 166 
C 992 166 979 205 979 436 
L 979 2816 
L 243 2745 
z
" transform="scale(0.015625)"/>
      </defs>
      <use xlink:href="#CMR17-4d" transform="scale(0.996264)"/>
      <use xlink:href="#CMR17-69" transform="translate(84.686941 0) scale(0.996264)"/>
      <use xlink:href="#CMR17-6e" transform="translate(109.557999 0) scale(0.996264)"/>
     </g>
    </g>
    <g id="line2d_15">
     <path d="M 65.036096 41.448212 
L 67.036096 41.448212 
L 69.036096 41.448212 
" style="fill: none; stroke-dasharray: 5.55,2.4; stroke-dashoffset: 0; stroke: #000000; stroke-width: 1.5"/>
    </g>
    <g id="text_11">
     <!-- Max -->
     <g transform="translate(70.236096 42.848212) scale(0.04 -0.04)">
      <use xlink:href="#CMR17-4d" transform="scale(0.996264)"/>
      <use xlink:href="#CMR17-61" transform="translate(84.686941 0) scale(0.996264)"/>
      <use xlink:href="#CMR17-78" transform="translate(130.377418 0) scale(0.996264)"/>
     </g>
    </g>
    <g id="line2d_16">
     <path d="M 65.036096 47.023077 
L 67.036096 47.023077 
L 69.036096 47.023077 
" style="fill: none; stroke-dasharray: 1.5,2.475; stroke-dashoffset: 0; stroke: #000000; stroke-width: 1.5"/>
    </g>
    <g id="text_12">
     <!-- Min -->
     <g transform="translate(70.236096 48.423077) scale(0.04 -0.04)">
      <use xlink:href="#CMR17-4d" transform="scale(0.996264)"/>
      <use xlink:href="#CMR17-69" transform="translate(84.686941 0) scale(0.996264)"/>
      <use xlink:href="#CMR17-6e" transform="translate(109.557999 0) scale(0.996264)"/>
     </g>
    </g>
   </g>
  </g>
  <g id="axes_2">
   <g id="patch_9">
    <path d="M 137.8441 51.597942 
L 212.867904 51.597942 
L 212.867904 15.698543 
L 137.8441 15.698543 
z
" style="fill: #ffffff"/>
   </g>
   <g id="FillBetweenPolyCollection_3">
    <defs>
     <path id="m6fb3ba121d" d="M 141.254273 -100.143127 
L 141.254273 -92.199622 
L 142.646181 -92.96462 
L 144.038088 -94.250812 
L 145.429995 -93.915031 
L 146.821903 -94.254815 
L 148.21381 -93.531179 
L 149.605717 -93.913924 
L 150.997624 -95.675504 
L 152.389532 -94.331845 
L 153.781439 -94.764296 
L 155.173346 -93.659776 
L 156.565254 -94.761652 
L 157.957161 -94.237345 
L 159.349068 -94.790758 
L 160.740976 -94.288378 
L 162.132883 -94.451029 
L 163.52479 -94.627632 
L 164.916698 -93.321929 
L 166.308605 -93.987439 
L 167.700512 -94.325547 
L 169.092419 -93.605514 
L 170.484327 -94.973764 
L 171.876234 -93.817292 
L 173.268141 -94.637494 
L 174.660049 -94.952077 
L 176.051956 -94.755942 
L 177.443863 -95.024481 
L 178.835771 -95.755966 
L 180.227678 -95.708718 
L 181.619585 -95.938084 
L 183.011493 -96.470202 
L 184.4034 -96.666574 
L 185.795307 -97.506565 
L 187.187215 -98.339423 
L 188.579122 -98.363567 
L 189.971029 -99.42161 
L 191.362936 -100.717115 
L 192.754844 -101.033194 
L 194.146751 -101.83188 
L 195.538658 -102.792961 
L 196.930566 -103.206887 
L 198.322473 -104.432578 
L 199.71438 -105.313799 
L 201.106288 -106.577988 
L 202.498195 -107.909907 
L 203.890102 -108.920206 
L 205.28201 -110.252939 
L 206.673917 -111.505214 
L 208.065824 -112.318647 
L 209.457731 -113.779757 
L 209.457731 -114.923407 
L 209.457731 -114.923407 
L 208.065824 -114.025901 
L 206.673917 -112.633586 
L 205.28201 -111.662275 
L 203.890102 -110.349204 
L 202.498195 -109.592633 
L 201.106288 -108.106887 
L 199.71438 -107.239703 
L 198.322473 -106.325442 
L 196.930566 -105.024325 
L 195.538658 -104.219937 
L 194.146751 -103.304648 
L 192.754844 -102.292139 
L 191.362936 -101.926218 
L 189.971029 -101.154236 
L 188.579122 -101.23392 
L 187.187215 -99.792925 
L 185.795307 -99.478812 
L 184.4034 -98.258031 
L 183.011493 -98.029383 
L 181.619585 -98.225746 
L 180.227678 -97.776659 
L 178.835771 -97.70516 
L 177.443863 -97.788685 
L 176.051956 -97.06219 
L 174.660049 -97.377222 
L 173.268141 -97.718192 
L 171.876234 -97.510567 
L 170.484327 -97.073103 
L 169.092419 -97.326877 
L 167.700512 -96.882741 
L 166.308605 -98.673578 
L 164.916698 -98.420157 
L 163.52479 -97.514982 
L 162.132883 -97.402817 
L 160.740976 -97.700789 
L 159.349068 -97.029838 
L 157.957161 -97.268985 
L 156.565254 -97.963487 
L 155.173346 -99.394729 
L 153.781439 -97.250589 
L 152.389532 -98.517859 
L 150.997624 -99.415234 
L 149.605717 -99.283747 
L 148.21381 -98.693469 
L 146.821903 -99.278815 
L 145.429995 -97.368857 
L 144.038088 -98.443035 
L 142.646181 -99.075576 
L 141.254273 -100.143127 
z
" style="stroke: #0000ff; stroke-opacity: 0.2"/>
    </defs>
    <g clip-path="url(#pfa897971bd)">
     <use xlink:href="#m6fb3ba121d" x="0" y="134.806076" style="fill: #0000ff; fill-opacity: 0.2; stroke: #0000ff; stroke-opacity: 0.2"/>
    </g>
   </g>
   <g id="FillBetweenPolyCollection_4">
    <defs>
     <path id="m16eccc928c" d="M 141.254273 -100.384013 
L 141.254273 -92.895384 
L 142.646181 -93.436702 
L 144.038088 -94.668752 
L 145.429995 -94.28456 
L 146.821903 -94.68875 
L 148.21381 -93.902625 
L 149.605717 -94.391368 
L 150.997624 -96.024019 
L 152.389532 -94.724362 
L 153.781439 -95.088332 
L 155.173346 -94.016091 
L 156.565254 -95.134517 
L 157.957161 -94.623382 
L 159.349068 -95.232376 
L 160.740976 -94.670472 
L 162.132883 -94.801075 
L 163.52479 -94.957325 
L 164.916698 -93.75162 
L 166.308605 -94.406272 
L 167.700512 -94.689096 
L 169.092419 -94.024425 
L 170.484327 -95.349741 
L 171.876234 -94.33466 
L 173.268141 -95.084845 
L 174.660049 -95.446852 
L 176.051956 -95.344605 
L 177.443863 -95.733142 
L 178.835771 -96.449718 
L 180.227678 -96.414201 
L 181.619585 -96.778773 
L 183.011493 -97.263088 
L 184.4034 -97.454958 
L 185.795307 -98.382366 
L 187.187215 -99.319324 
L 188.579122 -99.551074 
L 189.971029 -100.735811 
L 191.362936 -102.077823 
L 192.754844 -102.595375 
L 194.146751 -103.428992 
L 195.538658 -104.552001 
L 196.930566 -105.098585 
L 198.322473 -106.409653 
L 199.71438 -107.332258 
L 201.106288 -108.759956 
L 202.498195 -110.038877 
L 203.890102 -111.285312 
L 205.28201 -112.699064 
L 206.673917 -113.970768 
L 208.065824 -114.875566 
L 209.457731 -116.354094 
L 209.457731 -117.448006 
L 209.457731 -117.448006 
L 208.065824 -116.487195 
L 206.673917 -115.106377 
L 205.28201 -114.041563 
L 203.890102 -112.508975 
L 202.498195 -111.641881 
L 201.106288 -110.047065 
L 199.71438 -109.201466 
L 198.322473 -108.197749 
L 196.930566 -106.853629 
L 195.538658 -105.856205 
L 194.146751 -104.939542 
L 192.754844 -103.73566 
L 191.362936 -103.176866 
L 189.971029 -102.251889 
L 188.579122 -102.277329 
L 187.187215 -100.681136 
L 185.795307 -100.213764 
L 184.4034 -99.035426 
L 183.011493 -98.725157 
L 181.619585 -98.830152 
L 180.227678 -98.363378 
L 178.835771 -98.262483 
L 177.443863 -98.226371 
L 176.051956 -97.52598 
L 174.660049 -97.793412 
L 173.268141 -98.105486 
L 171.876234 -97.878794 
L 170.484327 -97.454185 
L 169.092419 -97.717236 
L 167.700512 -97.282173 
L 166.308605 -98.980258 
L 164.916698 -98.734944 
L 163.52479 -97.876318 
L 162.132883 -97.776874 
L 160.740976 -98.046187 
L 159.349068 -97.379775 
L 157.957161 -97.6356 
L 156.565254 -98.294472 
L 155.173346 -99.740382 
L 153.781439 -97.627127 
L 152.389532 -98.853855 
L 150.997624 -99.744304 
L 149.605717 -99.585569 
L 148.21381 -99.053402 
L 146.821903 -99.633104 
L 145.429995 -97.696868 
L 144.038088 -98.752029 
L 142.646181 -99.418262 
L 141.254273 -100.384013 
z
" style="stroke: #000000; stroke-opacity: 0.2"/>
    </defs>
    <g clip-path="url(#pfa897971bd)">
     <use xlink:href="#m16eccc928c" x="0" y="134.806076" style="fill-opacity: 0.2; stroke: #000000; stroke-opacity: 0.2"/>
    </g>
   </g>
   <g id="matplotlib.axis_3">
    <g id="xtick_3">
     <g id="line2d_17">
      <g>
       <use xlink:href="#m336bafbb21" x="158.305138" y="51.597942" style="stroke: #000000; stroke-width: 0.8"/>
      </g>
     </g>
    </g>
    <g id="xtick_4">
     <g id="line2d_18">
      <g>
       <use xlink:href="#m336bafbb21" x="192.406867" y="51.597942" style="stroke: #000000; stroke-width: 0.8"/>
      </g>
     </g>
    </g>
   </g>
   <g id="matplotlib.axis_4">
    <g id="ytick_3">
     <g id="line2d_19">
      <g>
       <use xlink:href="#m85e18dda3f" x="137.8441" y="51.597942" style="stroke: #000000; stroke-width: 0.8"/>
      </g>
     </g>
     <g id="text_13">
      <!-- $10^{-5}$ -->
      <g transform="translate(112.966683 54.365343) scale(0.08 -0.08)">
       <defs>
        <path id="CMR17-35" d="M 730 3750 
C 794 3724 1056 3641 1325 3641 
C 1920 3641 2246 3961 2432 4140 
C 2432 4191 2432 4224 2394 4224 
C 2387 4224 2374 4224 2323 4198 
C 2099 4102 1837 4032 1517 4032 
C 1325 4032 1037 4055 723 4191 
C 653 4224 640 4224 634 4224 
C 602 4224 595 4217 595 4090 
L 595 2231 
C 595 2113 595 2080 659 2080 
C 691 2080 704 2093 736 2139 
C 941 2435 1222 2560 1542 2560 
C 1766 2560 2246 2415 2246 1293 
C 2246 1087 2246 716 2054 422 
C 1894 159 1645 25 1370 25 
C 947 25 518 319 403 812 
C 429 806 480 793 506 793 
C 589 793 749 838 749 1036 
C 749 1209 627 1280 506 1280 
C 358 1280 262 1190 262 1011 
C 262 454 704 -128 1382 -128 
C 2042 -128 2669 441 2669 1267 
C 2669 2054 2170 2662 1549 2662 
C 1222 2662 947 2540 730 2304 
L 730 3750 
z
" transform="scale(0.015625)"/>
       </defs>
       <use xlink:href="#CMR17-31" transform="scale(0.996264)"/>
       <use xlink:href="#CMR17-30" transform="translate(45.690477 0) scale(0.996264)"/>
       <use xlink:href="#CMSY10-0" transform="translate(91.380954 36.153639) scale(0.697382)"/>
       <use xlink:href="#CMR17-35" transform="translate(145.621947 36.153639) scale(0.697382)"/>
      </g>
     </g>
    </g>
    <g id="ytick_4">
     <g id="line2d_20">
      <g>
       <use xlink:href="#m85e18dda3f" x="137.8441" y="39.631476" style="stroke: #000000; stroke-width: 0.8"/>
      </g>
     </g>
     <g id="text_14">
      <!-- $10^{-4}$ -->
      <g transform="translate(112.966683 42.398877) scale(0.08 -0.08)">
       <defs>
        <path id="CMR17-34" d="M 2150 4147 
C 2150 4281 2144 4288 2029 4288 
L 128 1254 
L 128 1088 
L 1779 1088 
L 1779 460 
C 1779 230 1766 166 1318 166 
L 1197 166 
L 1197 0 
C 1402 12 1747 12 1965 12 
C 2182 12 2528 12 2733 0 
L 2733 166 
L 2611 166 
C 2163 166 2150 230 2150 460 
L 2150 1088 
L 2803 1088 
L 2803 1254 
L 2150 1254 
L 2150 4147 
z
M 1798 3723 
L 1798 1254 
L 256 1254 
L 1798 3723 
z
" transform="scale(0.015625)"/>
       </defs>
       <use xlink:href="#CMR17-31" transform="scale(0.996264)"/>
       <use xlink:href="#CMR17-30" transform="translate(45.690477 0) scale(0.996264)"/>
       <use xlink:href="#CMSY10-0" transform="translate(91.380954 36.153639) scale(0.697382)"/>
       <use xlink:href="#CMR17-34" transform="translate(145.621947 36.153639) scale(0.697382)"/>
      </g>
     </g>
    </g>
    <g id="ytick_5">
     <g id="line2d_21">
      <g>
       <use xlink:href="#m85e18dda3f" x="137.8441" y="15.698543" style="stroke: #000000; stroke-width: 0.8"/>
      </g>
     </g>
     <g id="text_15">
      <!-- $10^{-2}$ -->
      <g transform="translate(112.966683 18.465944) scale(0.08 -0.08)">
       <defs>
        <path id="CMR17-32" d="M 2669 990 
L 2554 990 
C 2490 537 2438 460 2413 422 
C 2381 371 1920 371 1830 371 
L 602 371 
C 832 620 1280 1073 1824 1596 
C 2214 1966 2669 2400 2669 3033 
C 2669 3788 2067 4224 1395 4224 
C 691 4224 262 3603 262 3027 
C 262 2777 448 2745 525 2745 
C 589 2745 781 2783 781 3007 
C 781 3206 614 3264 525 3264 
C 486 3264 448 3257 422 3244 
C 544 3788 915 4057 1306 4057 
C 1862 4057 2227 3616 2227 3033 
C 2227 2477 1901 1998 1536 1583 
L 262 147 
L 262 0 
L 2515 0 
L 2669 990 
z
" transform="scale(0.015625)"/>
       </defs>
       <use xlink:href="#CMR17-31" transform="scale(0.996264)"/>
       <use xlink:href="#CMR17-30" transform="translate(45.690477 0) scale(0.996264)"/>
       <use xlink:href="#CMSY10-0" transform="translate(91.380954 36.153639) scale(0.697382)"/>
       <use xlink:href="#CMR17-32" transform="translate(145.621947 36.153639) scale(0.697382)"/>
      </g>
     </g>
    </g>
   </g>
   <g id="line2d_22">
    <path d="M 141.254273 37.245172 
L 142.646181 37.935195 
L 144.038088 38.047424 
L 145.429995 38.882342 
L 146.821903 37.454427 
L 148.21381 38.077511 
L 149.605717 37.542508 
L 150.997624 36.931336 
L 152.389532 37.970683 
L 153.781439 38.651346 
L 155.173346 37.5249 
L 156.565254 38.200731 
L 157.957161 38.834914 
L 159.349068 38.776113 
L 160.740976 38.536304 
L 162.132883 38.672341 
L 163.52479 38.536776 
L 164.916698 38.333432 
L 166.308605 37.964358 
L 167.700512 39.046209 
L 169.092419 39.013671 
L 170.484327 38.677351 
L 171.876234 38.820744 
L 173.268141 38.403224 
L 174.660049 38.501232 
L 176.051956 38.770116 
L 177.443863 38.217839 
L 178.835771 37.98466 
L 180.227678 37.961202 
L 181.619585 37.599289 
L 183.011493 37.498029 
L 184.4034 37.283092 
L 185.795307 36.220386 
L 187.187215 35.689252 
L 188.579122 34.811635 
L 189.971029 34.44628 
L 191.362936 33.449326 
L 192.754844 33.105381 
L 194.146751 32.185815 
L 195.538658 31.250803 
L 196.930566 30.611424 
L 198.322473 29.34136 
L 199.71438 28.440618 
L 201.106288 27.407617 
L 202.498195 25.986996 
L 203.890102 25.122409 
L 205.28201 23.800841 
L 206.673917 22.706112 
L 208.065824 21.564009 
L 209.457731 20.423098 
" clip-path="url(#pfa897971bd)" style="fill: none; stroke: #0000ff; stroke-width: 1.5; stroke-linecap: square"/>
   </g>
   <g id="line2d_23">
    <path d="M 141.254273 36.920249 
L 142.646181 37.561707 
L 144.038088 37.704565 
L 145.429995 38.54019 
L 146.821903 37.078071 
L 148.21381 37.714464 
L 149.605717 37.194016 
L 150.997624 36.595891 
L 152.389532 37.617165 
L 153.781439 38.294835 
L 155.173346 37.176589 
L 156.565254 37.855022 
L 157.957161 38.461334 
L 159.349068 38.389867 
L 160.740976 38.178345 
L 162.132883 38.306956 
L 163.52479 38.186954 
L 164.916698 37.987059 
L 166.308605 37.625051 
L 167.700512 38.660362 
L 169.092419 38.613923 
L 170.484327 38.298313 
L 171.876234 38.402908 
L 173.268141 37.994471 
L 174.660049 38.054613 
L 176.051956 38.257163 
L 177.443863 37.678217 
L 178.835771 37.371334 
L 180.227678 37.326435 
L 181.619585 36.901048 
L 183.011493 36.760707 
L 184.4034 36.501034 
L 185.795307 35.427753 
L 187.187215 34.761368 
L 188.579122 33.715118 
L 189.971029 33.257137 
L 191.362936 32.149733 
L 192.754844 31.609347 
L 194.146751 30.567119 
L 195.538658 29.561168 
L 196.930566 28.756233 
L 198.322473 27.425849 
L 199.71438 26.455626 
L 201.106288 25.362821 
L 202.498195 23.904135 
L 203.890102 22.873001 
L 205.28201 21.392533 
L 206.673917 20.236547 
L 208.065824 19.062472 
L 209.457731 17.876297 
" clip-path="url(#pfa897971bd)" style="fill: none; stroke: #000000; stroke-width: 1.5; stroke-linecap: square"/>
   </g>
   <g id="line2d_24">
    <path d="M 141.254273 41.896615 
L 142.646181 42.34305 
L 144.038088 41.066759 
L 145.429995 40.815037 
L 146.821903 40.932844 
L 148.21381 41.709957 
L 149.605717 40.872852 
L 150.997624 40.149553 
L 152.389532 41.499851 
L 153.781439 41.458984 
L 155.173346 40.447659 
L 156.565254 41.382495 
L 157.957161 41.082486 
L 159.349068 41.542758 
L 160.740976 41.253001 
L 162.132883 41.29082 
L 163.52479 40.727658 
L 164.916698 41.349521 
L 166.308605 41.242104 
L 167.700512 41.284331 
L 169.092419 42.740004 
L 170.484327 40.665439 
L 171.876234 41.418125 
L 173.268141 40.827719 
L 174.660049 41.023806 
L 176.051956 40.256793 
L 177.443863 40.032855 
L 178.835771 40.15911 
L 180.227678 40.013458 
L 181.619585 39.352328 
L 183.011493 38.918839 
L 184.4034 38.903987 
L 185.795307 37.390353 
L 187.187215 36.975227 
L 188.579122 37.137812 
L 189.971029 36.204293 
L 191.362936 34.426361 
L 192.754844 34.514816 
L 194.146751 34.276291 
L 195.538658 32.899284 
L 196.930566 32.700466 
L 198.322473 30.949949 
L 199.71438 30.817776 
L 201.106288 28.661208 
L 202.498195 28.081819 
L 203.890102 26.787767 
L 205.28201 25.891752 
L 206.673917 24.339446 
L 208.065824 22.836898 
L 209.457731 21.553437 
" clip-path="url(#pfa897971bd)" style="fill: none; stroke-dasharray: 5.55,2.4; stroke-dashoffset: 0; stroke: #0000ff; stroke-width: 1.5"/>
   </g>
   <g id="line2d_25">
    <path d="M 141.254273 30.837703 
L 142.646181 31.839301 
L 144.038088 34.372276 
L 145.429995 35.025708 
L 146.821903 32.822479 
L 148.21381 33.298813 
L 149.605717 32.884483 
L 150.997624 33.830227 
L 152.389532 34.583219 
L 153.781439 35.882696 
L 155.173346 31.137547 
L 156.565254 34.657426 
L 157.957161 35.278715 
L 159.349068 36.848723 
L 160.740976 35.227353 
L 162.132883 35.223866 
L 163.52479 35.015499 
L 164.916698 32.413055 
L 166.308605 33.242758 
L 167.700512 36.579545 
L 169.092419 34.739318 
L 170.484327 36.48367 
L 171.876234 34.13852 
L 173.268141 35.380278 
L 174.660049 36.46296 
L 176.051956 36.229625 
L 177.443863 34.575384 
L 178.835771 35.9596 
L 180.227678 35.917676 
L 181.619585 35.053577 
L 183.011493 35.808293 
L 184.4034 35.443459 
L 185.795307 34.045596 
L 187.187215 34.305139 
L 188.579122 30.942644 
L 189.971029 32.703135 
L 191.362936 31.842692 
L 192.754844 31.830604 
L 194.146751 30.871215 
L 195.538658 29.756952 
L 196.930566 29.269078 
L 198.322473 26.894485 
L 199.71438 26.588748 
L 201.106288 26.067713 
L 202.498195 24.2742 
L 203.890102 24.029234 
L 205.28201 22.620577 
L 206.673917 21.537797 
L 208.065824 19.327237 
L 209.457731 19.023376 
" clip-path="url(#pfa897971bd)" style="fill: none; stroke-dasharray: 1.5,2.475; stroke-dashoffset: 0; stroke: #0000ff; stroke-width: 1.5"/>
   </g>
   <g id="line2d_26">
    <path d="M 141.254273 41.425753 
L 142.646181 41.927496 
L 144.038088 40.614495 
L 145.429995 40.604757 
L 146.821903 40.515745 
L 148.21381 41.382493 
L 149.605717 40.335399 
L 150.997624 39.822868 
L 152.389532 41.08404 
L 153.781439 41.12833 
L 155.173346 39.942881 
L 156.565254 41.052758 
L 157.957161 40.575942 
L 159.349068 41.0996 
L 160.740976 40.832378 
L 162.132883 41.013192 
L 163.52479 40.367929 
L 164.916698 40.925138 
L 166.308605 40.890325 
L 167.700512 40.890034 
L 169.092419 42.196962 
L 170.484327 40.298296 
L 171.876234 41.00716 
L 173.268141 40.382962 
L 174.660049 40.470795 
L 176.051956 39.623775 
L 177.443863 39.510587 
L 178.835771 39.464091 
L 180.227678 39.120346 
L 181.619585 38.726108 
L 183.011493 38.267936 
L 184.4034 38.197795 
L 185.795307 36.726675 
L 187.187215 35.91536 
L 188.579122 35.592608 
L 189.971029 34.623995 
L 191.362936 33.225475 
L 192.754844 32.986594 
L 194.146751 32.530396 
L 195.538658 31.27267 
L 196.930566 30.700842 
L 198.322473 29.217155 
L 199.71438 28.664232 
L 201.106288 26.471467 
L 202.498195 25.861607 
L 203.890102 24.604803 
L 205.28201 23.320178 
L 206.673917 21.848814 
L 208.065824 20.389354 
L 209.457731 19.087717 
" clip-path="url(#pfa897971bd)" style="fill: none; stroke-dasharray: 5.55,2.4; stroke-dashoffset: 0; stroke: #000000; stroke-width: 1.5"/>
   </g>
   <g id="line2d_27">
    <path d="M 141.254273 30.783072 
L 142.646181 31.542599 
L 144.038088 34.307937 
L 145.429995 34.702802 
L 146.821903 32.483955 
L 148.21381 32.94276 
L 149.605717 32.687996 
L 150.997624 33.492276 
L 152.389532 34.333665 
L 153.781439 35.401553 
L 155.173346 30.783364 
L 156.565254 34.337794 
L 157.957161 34.901073 
L 159.349068 36.547189 
L 160.740976 34.811756 
L 162.132883 34.724273 
L 163.52479 34.684281 
L 164.916698 32.137056 
L 166.308605 33.028349 
L 167.700512 36.072984 
L 169.092419 34.317756 
L 170.484327 36.045057 
L 171.876234 33.890047 
L 173.268141 34.951503 
L 174.660049 36.051023 
L 176.051956 35.836451 
L 177.443863 34.373019 
L 178.835771 35.467836 
L 180.227678 35.550936 
L 181.619585 34.551187 
L 183.011493 35.174692 
L 184.4034 34.679253 
L 185.795307 33.54627 
L 187.187215 33.463557 
L 188.579122 29.843804 
L 189.971029 31.783668 
L 191.362936 31.024732 
L 192.754844 30.437489 
L 194.146751 29.000524 
L 195.538658 28.394191 
L 196.930566 27.439715 
L 198.322473 25.159083 
L 199.71438 24.810067 
L 201.106288 24.090254 
L 202.498195 22.518715 
L 203.890102 21.993156 
L 205.28201 20.442343 
L 206.673917 18.84168 
L 208.065824 16.878834 
L 209.457731 16.564756 
" clip-path="url(#pfa897971bd)" style="fill: none; stroke-dasharray: 1.5,2.475; stroke-dashoffset: 0; stroke: #000000; stroke-width: 1.5"/>
   </g>
   <g id="patch_10">
    <path d="M 137.8441 51.597942 
L 137.8441 15.698543 
" style="fill: none; stroke: #000000; stroke-width: 0.8; stroke-linejoin: miter; stroke-linecap: square"/>
   </g>
   <g id="patch_11">
    <path d="M 212.867904 51.597942 
L 212.867904 15.698543 
" style="fill: none; stroke: #000000; stroke-width: 0.8; stroke-linejoin: miter; stroke-linecap: square"/>
   </g>
   <g id="patch_12">
    <path d="M 137.8441 51.597942 
L 212.867904 51.597942 
" style="fill: none; stroke: #000000; stroke-width: 0.8; stroke-linejoin: miter; stroke-linecap: square"/>
   </g>
   <g id="patch_13">
    <path d="M 137.8441 15.698543 
L 212.867904 15.698543 
" style="fill: none; stroke: #000000; stroke-width: 0.8; stroke-linejoin: miter; stroke-linecap: square"/>
   </g>
   <g id="text_16">
    <!-- $\mathbf{b)}$ -->
    <g transform="translate(125.375509 9.577584) scale(0.08 -0.08)">
     <defs>
      <path id="CMBX12-62" d="M 1331 4480 
L 224 4428 
L 224 4153 
C 621 4153 666 4153 666 3896 
L 666 -26 
L 934 -26 
C 1043 96 1152 218 1254 347 
C 1581 6 1933 -64 2189 -64 
C 3072 -64 3750 476 3750 1414 
C 3750 2300 3149 2880 2272 2880 
C 1894 2880 1594 2758 1331 2552 
L 1331 4480 
z
M 1363 2242 
C 1587 2552 1920 2668 2189 2668 
C 2982 2668 2982 1847 2982 1420 
C 2982 1130 2982 761 2829 522 
C 2630 211 2330 147 2125 147 
C 1690 147 1453 457 1363 599 
L 1363 2242 
z
" transform="scale(0.015625)"/>
     </defs>
     <use xlink:href="#CMBX12-62" transform="scale(0.996264)"/>
     <use xlink:href="#CMR17-29" transform="translate(62.266501 0) scale(0.996264)"/>
    </g>
   </g>
  </g>
  <g id="axes_3">
   <g id="patch_14">
    <path d="M 36.561965 109.036981 
L 111.585769 109.036981 
L 111.585769 73.137582 
L 36.561965 73.137582 
z
" style="fill: #ffffff"/>
   </g>
   <g id="FillBetweenPolyCollection_5">
    <defs>
     <path id="mfa35871009" d="M 39.972138 -42.326017 
L 39.972138 -35.458679 
L 41.364045 -38.0529 
L 42.755953 -38.264726 
L 44.14786 -36.996753 
L 45.539767 -37.97872 
L 46.931675 -37.851642 
L 48.323582 -38.004147 
L 49.715489 -37.966066 
L 51.107397 -35.996301 
L 52.499304 -36.441634 
L 53.891211 -37.857538 
L 55.283118 -37.978741 
L 56.675026 -37.667094 
L 58.066933 -37.392739 
L 59.45884 -37.759764 
L 60.850748 -38.059656 
L 62.242655 -38.220101 
L 63.634562 -37.756549 
L 65.02647 -37.713395 
L 66.418377 -37.720932 
L 67.810284 -38.156104 
L 69.202192 -37.786129 
L 70.594099 -37.017163 
L 71.986006 -37.554248 
L 73.377913 -37.057328 
L 74.769821 -37.036188 
L 76.161728 -36.73655 
L 77.553635 -36.335262 
L 78.945543 -36.246843 
L 80.33745 -36.240254 
L 81.729357 -36.283783 
L 83.121265 -36.032377 
L 84.513172 -36.055143 
L 85.905079 -36.357003 
L 87.296987 -36.494892 
L 88.688894 -36.15765 
L 90.080801 -36.730025 
L 91.472708 -36.235811 
L 92.864616 -37.072512 
L 94.256523 -36.837713 
L 95.64843 -37.157428 
L 97.040338 -37.27252 
L 98.432245 -37.487792 
L 99.824152 -38.149734 
L 101.21606 -38.26988 
L 102.607967 -38.833158 
L 103.999874 -39.37389 
L 105.391782 -39.933401 
L 106.783689 -40.052341 
L 108.175596 -41.052187 
L 108.175596 -42.628203 
L 108.175596 -42.628203 
L 106.783689 -41.917775 
L 105.391782 -42.145889 
L 103.999874 -41.687114 
L 102.607967 -40.556659 
L 101.21606 -40.667274 
L 99.824152 -40.240227 
L 98.432245 -39.456809 
L 97.040338 -40.142106 
L 95.64843 -39.701692 
L 94.256523 -39.676856 
L 92.864616 -38.47753 
L 91.472708 -38.294147 
L 90.080801 -38.490572 
L 88.688894 -37.82998 
L 87.296987 -37.909224 
L 85.905079 -37.67996 
L 84.513172 -37.563612 
L 83.121265 -37.904796 
L 81.729357 -37.52989 
L 80.33745 -37.612167 
L 78.945543 -37.706932 
L 77.553635 -38.042772 
L 76.161728 -37.75553 
L 74.769821 -38.244619 
L 73.377913 -38.594183 
L 71.986006 -38.857824 
L 70.594099 -39.681456 
L 69.202192 -39.098912 
L 67.810284 -39.665692 
L 66.418377 -39.474168 
L 65.02647 -39.329362 
L 63.634562 -39.683621 
L 62.242655 -39.939552 
L 60.850748 -40.066671 
L 59.45884 -40.719991 
L 58.066933 -40.53923 
L 56.675026 -40.154504 
L 55.283118 -40.088623 
L 53.891211 -40.240041 
L 52.499304 -41.440845 
L 51.107397 -41.757074 
L 49.715489 -40.064426 
L 48.323582 -39.407361 
L 46.931675 -40.44943 
L 45.539767 -39.591489 
L 44.14786 -41.110715 
L 42.755953 -40.364366 
L 41.364045 -40.085023 
L 39.972138 -42.326017 
z
" style="stroke: #0000ff; stroke-opacity: 0.2"/>
    </defs>
    <g clip-path="url(#p933d78fe34)">
     <use xlink:href="#mfa35871009" x="0" y="134.806076" style="fill: #0000ff; fill-opacity: 0.2; stroke: #0000ff; stroke-opacity: 0.2"/>
    </g>
   </g>
   <g id="FillBetweenPolyCollection_6">
    <defs>
     <path id="m186cbb6ccf" d="M 39.972138 -42.638248 
L 39.972138 -36.097506 
L 41.364045 -38.545104 
L 42.755953 -38.752804 
L 44.14786 -37.533739 
L 45.539767 -38.465942 
L 46.931675 -38.362504 
L 48.323582 -38.493441 
L 49.715489 -38.44985 
L 51.107397 -36.616652 
L 52.499304 -37.032362 
L 53.891211 -38.345519 
L 55.283118 -38.500602 
L 56.675026 -38.18869 
L 58.066933 -37.906933 
L 59.45884 -38.261689 
L 60.850748 -38.545186 
L 62.242655 -38.720492 
L 63.634562 -38.260696 
L 65.02647 -38.212987 
L 66.418377 -38.239524 
L 67.810284 -38.624064 
L 69.202192 -38.277248 
L 70.594099 -37.525886 
L 71.986006 -38.045555 
L 73.377913 -37.600861 
L 74.769821 -37.56325 
L 76.161728 -37.278052 
L 77.553635 -36.930134 
L 78.945543 -36.845277 
L 80.33745 -36.874115 
L 81.729357 -36.91292 
L 83.121265 -36.745428 
L 84.513172 -36.826014 
L 85.905079 -37.172958 
L 87.296987 -37.364465 
L 88.688894 -37.112241 
L 90.080801 -37.738109 
L 91.472708 -37.379724 
L 92.864616 -38.335698 
L 94.256523 -38.241915 
L 95.64843 -38.599118 
L 97.040338 -38.847044 
L 98.432245 -39.210893 
L 99.824152 -40.048212 
L 101.21606 -40.255337 
L 102.607967 -40.911444 
L 103.999874 -41.771001 
L 105.391782 -42.138991 
L 106.783689 -42.499925 
L 108.175596 -43.691382 
L 108.175596 -45.276409 
L 108.175596 -45.276409 
L 106.783689 -44.684238 
L 105.391782 -44.393964 
L 103.999874 -43.985029 
L 102.607967 -42.70832 
L 101.21606 -42.848828 
L 99.824152 -42.157204 
L 98.432245 -41.159677 
L 97.040338 -41.784963 
L 95.64843 -41.227521 
L 94.256523 -41.087594 
L 92.864616 -39.875969 
L 91.472708 -39.433239 
L 90.080801 -39.542199 
L 88.688894 -38.837648 
L 87.296987 -38.778102 
L 85.905079 -38.432462 
L 84.513172 -38.300154 
L 83.121265 -38.548438 
L 81.729357 -38.200806 
L 80.33745 -38.217814 
L 78.945543 -38.269347 
L 77.553635 -38.570599 
L 76.161728 -38.305569 
L 74.769821 -38.749256 
L 73.377913 -39.067035 
L 71.986006 -39.319925 
L 70.594099 -40.113692 
L 69.202192 -39.53103 
L 67.810284 -40.084123 
L 66.418377 -39.915067 
L 65.02647 -39.751031 
L 63.634562 -40.094063 
L 62.242655 -40.347365 
L 60.850748 -40.465855 
L 59.45884 -41.105476 
L 58.066933 -40.94769 
L 56.675026 -40.55131 
L 55.283118 -40.492105 
L 53.891211 -40.652151 
L 52.499304 -41.788428 
L 51.107397 -42.099912 
L 49.715489 -40.471738 
L 48.323582 -39.831401 
L 46.931675 -40.857965 
L 45.539767 -39.998443 
L 44.14786 -41.480597 
L 42.755953 -40.737535 
L 41.364045 -40.502105 
L 39.972138 -42.638248 
z
" style="stroke: #000000; stroke-opacity: 0.2"/>
    </defs>
    <g clip-path="url(#p933d78fe34)">
     <use xlink:href="#m186cbb6ccf" x="0" y="134.806076" style="fill-opacity: 0.2; stroke: #000000; stroke-opacity: 0.2"/>
    </g>
   </g>
   <g id="matplotlib.axis_5">
    <g id="xtick_5">
     <g id="line2d_28">
      <g>
       <use xlink:href="#m336bafbb21" x="57.023003" y="109.036981" style="stroke: #000000; stroke-width: 0.8"/>
      </g>
     </g>
     <g id="text_17">
      <!-- $\mathdefault{10^{-2}}$ -->
      <g transform="translate(48.084294 121.571783) scale(0.08 -0.08)">
       <use xlink:href="#CMR17-31" transform="scale(0.996264)"/>
       <use xlink:href="#CMR17-30" transform="translate(45.690477 0) scale(0.996264)"/>
       <use xlink:href="#CMSY10-0" transform="translate(91.380954 36.153639) scale(0.697382)"/>
       <use xlink:href="#CMR17-32" transform="translate(145.621947 36.153639) scale(0.697382)"/>
      </g>
     </g>
    </g>
    <g id="xtick_6">
     <g id="line2d_29">
      <g>
       <use xlink:href="#m336bafbb21" x="91.124732" y="109.036981" style="stroke: #000000; stroke-width: 0.8"/>
      </g>
     </g>
     <g id="text_18">
      <!-- $\mathdefault{10^{0}}$ -->
      <g transform="translate(85.064093 121.571783) scale(0.08 -0.08)">
       <use xlink:href="#CMR17-31" transform="scale(0.996264)"/>
       <use xlink:href="#CMR17-30" transform="translate(45.690477 0) scale(0.996264)"/>
       <use xlink:href="#CMR17-30" transform="translate(91.380954 36.153639) scale(0.697382)"/>
      </g>
     </g>
    </g>
    <g id="text_19">
     <!-- $\sigma_b$ -->
     <g transform="translate(70.017279 129.656331) scale(0.08 -0.08)">
      <defs>
       <path id="CMMI12-1b" d="M 3251 2406 
C 3334 2406 3546 2406 3546 2611 
C 3546 2752 3424 2752 3309 2752 
L 1894 2752 
C 934 2752 243 1685 243 932 
C 243 389 595 -64 1171 -64 
C 1926 -64 2752 746 2752 1704 
C 2752 1953 2694 2195 2541 2406 
L 3251 2406 
z
M 1178 64 
C 851 64 614 312 614 753 
C 614 1136 845 2406 1786 2406 
C 2061 2406 2368 2272 2368 1780 
C 2368 1557 2266 1021 2042 651 
C 1811 274 1466 64 1178 64 
z
" transform="scale(0.015625)"/>
       <path id="CMMI12-62" d="M 1478 4255 
C 1485 4281 1498 4319 1498 4351 
C 1498 4416 1434 4416 1421 4416 
C 1414 4416 1184 4396 1069 4383 
C 960 4377 864 4364 749 4358 
C 595 4345 550 4339 550 4223 
C 550 4159 614 4159 678 4159 
C 1005 4159 1005 4103 1005 4040 
C 1005 3995 954 3812 928 3699 
L 774 3093 
C 710 2841 346 1392 320 1277 
C 288 1117 288 1008 288 925 
C 288 274 653 -64 1069 -64 
C 1811 -64 2579 887 2579 1813 
C 2579 2400 2246 2816 1766 2816 
C 1434 2816 1133 2541 1011 2413 
L 1478 4255 
z
M 1075 64 
C 870 64 646 217 646 715 
C 646 925 666 1047 781 1494 
C 800 1577 902 1985 928 2068 
C 941 2119 1318 2687 1754 2687 
C 2035 2687 2163 2407 2163 2075 
C 2163 1768 1984 1047 1824 715 
C 1664 370 1370 64 1075 64 
z
" transform="scale(0.015625)"/>
      </defs>
      <use xlink:href="#CMMI12-1b" transform="scale(0.996264)"/>
      <use xlink:href="#CMMI12-62" transform="translate(55.445461 -14.943915) scale(0.697382)"/>
     </g>
    </g>
   </g>
   <g id="matplotlib.axis_6">
    <g id="ytick_6">
     <g id="line2d_30">
      <g>
       <use xlink:href="#m85e18dda3f" x="36.561965" y="109.036981" style="stroke: #000000; stroke-width: 0.8"/>
      </g>
     </g>
     <g id="text_20">
      <!-- $10^{-3}$ -->
      <g transform="translate(11.684547 111.804382) scale(0.08 -0.08)">
       <defs>
        <path id="CMR17-33" d="M 1414 2176 
C 1984 2176 2234 1673 2234 1094 
C 2234 322 1824 25 1453 25 
C 1114 25 563 193 390 691 
C 422 678 454 678 486 678 
C 640 678 755 780 755 947 
C 755 1132 614 1216 486 1216 
C 378 1216 211 1164 211 927 
C 211 335 787 -128 1466 -128 
C 2176 -128 2720 432 2720 1087 
C 2720 1718 2208 2176 1600 2246 
C 2086 2347 2554 2776 2554 3353 
C 2554 3856 2048 4224 1472 4224 
C 890 4224 378 3862 378 3347 
C 378 3123 544 3084 627 3084 
C 762 3084 877 3167 877 3334 
C 877 3500 762 3584 627 3584 
C 602 3584 570 3584 544 3571 
C 730 3999 1235 4076 1459 4076 
C 1683 4076 2106 3966 2106 3347 
C 2106 3167 2080 2851 1862 2574 
C 1670 2329 1453 2316 1242 2297 
C 1210 2297 1062 2284 1037 2284 
C 992 2278 966 2272 966 2227 
C 966 2182 973 2176 1101 2176 
L 1414 2176 
z
" transform="scale(0.015625)"/>
       </defs>
       <use xlink:href="#CMR17-31" transform="scale(0.996264)"/>
       <use xlink:href="#CMR17-30" transform="translate(45.690477 0) scale(0.996264)"/>
       <use xlink:href="#CMSY10-0" transform="translate(91.380954 36.153639) scale(0.697382)"/>
       <use xlink:href="#CMR17-33" transform="translate(145.621947 36.153639) scale(0.697382)"/>
      </g>
     </g>
    </g>
    <g id="ytick_7">
     <g id="line2d_31">
      <g>
       <use xlink:href="#m85e18dda3f" x="36.561965" y="91.087282" style="stroke: #000000; stroke-width: 0.8"/>
      </g>
     </g>
     <g id="text_21">
      <!-- $10^{-2}$ -->
      <g transform="translate(11.684547 93.854683) scale(0.08 -0.08)">
       <use xlink:href="#CMR17-31" transform="scale(0.996264)"/>
       <use xlink:href="#CMR17-30" transform="translate(45.690477 0) scale(0.996264)"/>
       <use xlink:href="#CMSY10-0" transform="translate(91.380954 36.153639) scale(0.697382)"/>
       <use xlink:href="#CMR17-32" transform="translate(145.621947 36.153639) scale(0.697382)"/>
      </g>
     </g>
    </g>
    <g id="ytick_8">
     <g id="line2d_32">
      <g>
       <use xlink:href="#m85e18dda3f" x="36.561965" y="73.137582" style="stroke: #000000; stroke-width: 0.8"/>
      </g>
     </g>
     <g id="text_22">
      <!-- $10^{-1}$ -->
      <g transform="translate(11.684547 75.904983) scale(0.08 -0.08)">
       <use xlink:href="#CMR17-31" transform="scale(0.996264)"/>
       <use xlink:href="#CMR17-30" transform="translate(45.690477 0) scale(0.996264)"/>
       <use xlink:href="#CMSY10-0" transform="translate(91.380954 36.153639) scale(0.697382)"/>
       <use xlink:href="#CMR17-31" transform="translate(145.621947 36.153639) scale(0.697382)"/>
      </g>
     </g>
    </g>
    <g id="text_23">
     <!-- $\mathcal{L}$ -->
     <g transform="translate(9.134802 93.999176) rotate(-90) scale(0.08 -0.08)">
      <use xlink:href="#CMSY10-4c" transform="scale(0.996264)"/>
     </g>
    </g>
   </g>
   <g id="line2d_33">
    <path d="M 39.972138 95.180771 
L 41.364045 95.671085 
L 42.755953 95.421053 
L 44.14786 95.484047 
L 45.539767 95.979339 
L 46.931675 95.547825 
L 48.323582 96.068792 
L 49.715489 95.720439 
L 51.107397 95.408929 
L 52.499304 95.470773 
L 53.891211 95.666619 
L 55.283118 95.70123 
L 56.675026 95.796483 
L 58.066933 95.682405 
L 59.45884 95.426521 
L 60.850748 95.6785 
L 62.242655 95.678938 
L 63.634562 96.026595 
L 65.02647 96.2429 
L 66.418377 96.159341 
L 67.810284 95.858694 
L 69.202192 96.335954 
L 70.594099 96.343493 
L 71.986006 96.572823 
L 73.377913 96.942509 
L 74.769821 97.14228 
L 76.161728 97.543399 
L 77.553635 97.570401 
L 78.945543 97.795054 
L 80.33745 97.849724 
L 81.729357 97.874367 
L 83.121265 97.781407 
L 84.513172 97.960269 
L 85.905079 97.759564 
L 87.296987 97.571987 
L 88.688894 97.767502 
L 90.080801 97.146182 
L 91.472708 97.473358 
L 92.864616 96.999444 
L 94.256523 96.420246 
L 95.64843 96.273175 
L 97.040338 95.967462 
L 98.432245 96.271772 
L 99.824152 95.541229 
L 101.21606 95.245699 
L 102.607967 95.063633 
L 103.999874 94.190084 
L 105.391782 93.6882 
L 106.783689 93.765352 
L 108.175596 92.926121 
" clip-path="url(#p933d78fe34)" style="fill: none; stroke: #0000ff; stroke-width: 1.5; stroke-linecap: square"/>
   </g>
   <g id="line2d_34">
    <path d="M 39.972138 94.771427 
L 41.364045 95.221221 
L 42.755953 94.997913 
L 44.14786 95.051743 
L 45.539767 95.536285 
L 46.931675 95.09641 
L 48.323582 95.614985 
L 49.715489 95.279914 
L 51.107397 94.975307 
L 52.499304 95.038457 
L 53.891211 95.222236 
L 55.283118 95.246299 
L 56.675026 95.34691 
L 58.066933 95.231432 
L 59.45884 94.99353 
L 60.850748 95.241552 
L 62.242655 95.229784 
L 63.634562 95.574923 
L 65.02647 95.786197 
L 66.418377 95.68385 
L 67.810284 95.41785 
L 69.202192 95.876758 
L 70.594099 95.879395 
L 71.986006 96.097324 
L 73.377913 96.437709 
L 74.769821 96.62729 
L 76.161728 96.997348 
L 77.553635 97.012637 
L 78.945543 97.216291 
L 80.33745 97.231196 
L 81.729357 97.222647 
L 83.121265 97.107132 
L 84.513172 97.208199 
L 85.905079 96.977957 
L 87.296987 96.702793 
L 88.688894 96.783493 
L 90.080801 96.113849 
L 91.472708 96.332171 
L 92.864616 95.662263 
L 94.256523 95.012187 
L 95.64843 94.7825 
L 97.040338 94.352481 
L 98.432245 94.560053 
L 99.824152 93.632263 
L 101.21606 93.146633 
L 102.607967 92.944535 
L 103.999874 91.849722 
L 105.391782 91.458345 
L 106.783689 91.137737 
L 108.175596 90.281965 
" clip-path="url(#p933d78fe34)" style="fill: none; stroke: #000000; stroke-width: 1.5; stroke-linecap: square"/>
   </g>
   <g id="line2d_35">
    <path d="M 39.972138 96.755718 
L 41.364045 97.23962 
L 42.755953 96.988417 
L 44.14786 97.103762 
L 45.539767 97.230152 
L 46.931675 96.902404 
L 48.323582 97.3298 
L 49.715489 97.146121 
L 51.107397 97.174301 
L 52.499304 97.699188 
L 53.891211 97.201916 
L 55.283118 97.065661 
L 56.675026 97.348122 
L 58.066933 97.026959 
L 59.45884 96.884264 
L 60.850748 97.654847 
L 62.242655 97.373048 
L 63.634562 97.40658 
L 65.02647 97.684718 
L 66.418377 97.358095 
L 67.810284 97.149881 
L 69.202192 97.684877 
L 70.594099 97.778052 
L 71.986006 97.644307 
L 73.377913 98.336498 
L 74.769821 98.370735 
L 76.161728 98.467558 
L 77.553635 99.124231 
L 78.945543 99.343611 
L 80.33745 99.226946 
L 81.729357 99.077293 
L 83.121265 99.38919 
L 84.513172 99.628324 
L 85.905079 98.954989 
L 87.296987 98.68867 
L 88.688894 99.42203 
L 90.080801 98.844888 
L 91.472708 99.136712 
L 92.864616 98.373424 
L 94.256523 98.457165 
L 95.64843 98.101179 
L 97.040338 98.136062 
L 98.432245 97.78072 
L 99.824152 97.526258 
L 101.21606 97.40502 
L 102.607967 96.566901 
L 103.999874 95.717654 
L 105.391782 96.946773 
L 106.783689 95.684261 
L 108.175596 95.025528 
" clip-path="url(#p933d78fe34)" style="fill: none; stroke-dasharray: 5.55,2.4; stroke-dashoffset: 0; stroke: #0000ff; stroke-width: 1.5"/>
   </g>
   <g id="line2d_36">
    <path d="M 39.972138 86.873719 
L 41.364045 93.631014 
L 42.755953 93.067915 
L 44.14786 90.572482 
L 45.539767 93.420305 
L 46.931675 91.666766 
L 48.323582 94.632667 
L 49.715489 93.192451 
L 51.107397 87.988524 
L 52.499304 88.147762 
L 53.891211 92.014466 
L 55.283118 92.894792 
L 56.675026 92.942107 
L 58.066933 91.245127 
L 59.45884 91.077429 
L 60.850748 93.077355 
L 62.242655 93.615436 
L 63.634562 93.73073 
L 65.02647 93.644384 
L 66.418377 93.201736 
L 67.810284 94.261637 
L 69.202192 94.918097 
L 70.594099 91.934896 
L 71.986006 94.955115 
L 73.377913 95.408412 
L 74.769821 96.150854 
L 76.161728 96.331457 
L 77.553635 95.660169 
L 78.945543 96.330708 
L 80.33745 96.120151 
L 81.729357 96.510235 
L 83.121265 95.310761 
L 84.513172 96.46711 
L 85.905079 96.348775 
L 87.296987 96.201942 
L 88.688894 95.828277 
L 90.080801 95.413689 
L 91.472708 94.913872 
L 92.864616 95.845422 
L 94.256523 93.021689 
L 95.64843 92.8436 
L 97.040338 92.369835 
L 98.432245 94.17265 
L 99.824152 93.501467 
L 101.21606 92.743018 
L 102.607967 93.13261 
L 103.999874 90.612053 
L 105.391782 91.649498 
L 106.783689 91.888563 
L 108.175596 91.452833 
" clip-path="url(#p933d78fe34)" style="fill: none; stroke-dasharray: 1.5,2.475; stroke-dashoffset: 0; stroke: #0000ff; stroke-width: 1.5"/>
   </g>
   <g id="line2d_37">
    <path d="M 39.972138 96.303696 
L 41.364045 96.705456 
L 42.755953 96.495542 
L 44.14786 96.606256 
L 45.539767 96.730164 
L 46.931675 96.424298 
L 48.323582 96.870038 
L 49.715489 96.654134 
L 51.107397 96.703785 
L 52.499304 97.178078 
L 53.891211 96.677307 
L 55.283118 96.500141 
L 56.675026 96.813483 
L 58.066933 96.520061 
L 59.45884 96.406622 
L 60.850748 97.152836 
L 62.242655 96.891536 
L 63.634562 96.823918 
L 65.02647 97.179744 
L 66.418377 96.826377 
L 67.810284 96.607709 
L 69.202192 97.1347 
L 70.594099 97.260566 
L 71.986006 97.105043 
L 73.377913 97.737443 
L 74.769821 97.863483 
L 76.161728 97.888948 
L 77.553635 98.580611 
L 78.945543 98.708521 
L 80.33745 98.534947 
L 81.729357 98.380652 
L 83.121265 98.711208 
L 84.513172 98.830517 
L 85.905079 98.120912 
L 87.296987 97.760832 
L 88.688894 98.418429 
L 90.080801 97.769461 
L 91.472708 98.037121 
L 92.864616 97.14849 
L 94.256523 97.125185 
L 95.64843 96.794887 
L 97.040338 96.516755 
L 98.432245 96.197416 
L 99.824152 95.753604 
L 101.21606 95.707134 
L 102.607967 94.673489 
L 103.999874 93.532047 
L 105.391782 95.000392 
L 106.783689 93.070244 
L 108.175596 92.13617 
" clip-path="url(#p933d78fe34)" style="fill: none; stroke-dasharray: 5.55,2.4; stroke-dashoffset: 0; stroke: #000000; stroke-width: 1.5"/>
   </g>
   <g id="line2d_38">
    <path d="M 39.972138 86.669236 
L 41.364045 93.262303 
L 42.755953 92.849327 
L 44.14786 90.294736 
L 45.539767 93.117178 
L 46.931675 91.342162 
L 48.323582 94.308076 
L 49.715489 92.846271 
L 51.107397 87.813105 
L 52.499304 87.94481 
L 53.891211 91.708961 
L 55.283118 92.549111 
L 56.675026 92.641419 
L 58.066933 90.865883 
L 59.45884 90.738981 
L 60.850748 92.722503 
L 62.242655 93.298734 
L 63.634562 93.420427 
L 65.02647 93.308681 
L 66.418377 92.863409 
L 67.810284 93.773689 
L 69.202192 94.540438 
L 70.594099 91.546683 
L 71.986006 94.526123 
L 73.377913 94.984187 
L 74.769821 95.655561 
L 76.161728 95.810955 
L 77.553635 95.199672 
L 78.945543 95.789487 
L 80.33745 95.583412 
L 81.729357 95.734819 
L 83.121265 94.74631 
L 84.513172 95.675919 
L 85.905079 95.722642 
L 87.296987 95.344213 
L 88.688894 94.677844 
L 90.080801 94.378076 
L 91.472708 93.791767 
L 92.864616 94.33776 
L 94.256523 91.660836 
L 95.64843 91.180522 
L 97.040338 90.718684 
L 98.432245 92.631344 
L 99.824152 91.517639 
L 101.21606 90.60648 
L 102.607967 91.039877 
L 103.999874 88.73468 
L 105.391782 89.591869 
L 106.783689 88.992747 
L 108.175596 89.071578 
" clip-path="url(#p933d78fe34)" style="fill: none; stroke-dasharray: 1.5,2.475; stroke-dashoffset: 0; stroke: #000000; stroke-width: 1.5"/>
   </g>
   <g id="patch_15">
    <path d="M 36.561965 109.036981 
L 36.561965 73.137582 
" style="fill: none; stroke: #000000; stroke-width: 0.8; stroke-linejoin: miter; stroke-linecap: square"/>
   </g>
   <g id="patch_16">
    <path d="M 111.585769 109.036981 
L 111.585769 73.137582 
" style="fill: none; stroke: #000000; stroke-width: 0.8; stroke-linejoin: miter; stroke-linecap: square"/>
   </g>
   <g id="patch_17">
    <path d="M 36.561965 109.036981 
L 111.585769 109.036981 
" style="fill: none; stroke: #000000; stroke-width: 0.8; stroke-linejoin: miter; stroke-linecap: square"/>
   </g>
   <g id="patch_18">
    <path d="M 36.561965 73.137582 
L 111.585769 73.137582 
" style="fill: none; stroke: #000000; stroke-width: 0.8; stroke-linejoin: miter; stroke-linecap: square"/>
   </g>
   <g id="text_24">
    <!-- $\mathbf{c)}$ -->
    <g transform="translate(25.178203 67.016623) scale(0.08 -0.08)">
     <defs>
      <path id="CMBX12-63" d="M 2995 724 
C 2995 801 2925 801 2861 801 
C 2758 801 2752 795 2720 718 
C 2675 596 2502 166 1914 166 
C 1011 166 1011 1141 1011 1430 
C 1011 1808 1018 2649 1856 2649 
C 1901 2649 2278 2636 2278 2604 
C 2278 2598 2272 2591 2259 2585 
C 2240 2566 2157 2469 2157 2309 
C 2157 2039 2374 1930 2534 1930 
C 2669 1930 2912 2014 2912 2315 
C 2912 2841 2176 2880 1830 2880 
C 691 2880 243 2136 243 1398 
C 243 525 851 -64 1792 -64 
C 2797 -64 2995 679 2995 724 
z
" transform="scale(0.015625)"/>
     </defs>
     <use xlink:href="#CMBX12-63" transform="scale(0.996264)"/>
     <use xlink:href="#CMR17-29" transform="translate(49.8132 0) scale(0.996264)"/>
    </g>
   </g>
  </g>
  <g id="axes_4">
   <g id="patch_19">
    <path d="M 137.8441 109.036981 
L 212.867904 109.036981 
L 212.867904 73.137582 
L 137.8441 73.137582 
z
" style="fill: #ffffff"/>
   </g>
   <g id="FillBetweenPolyCollection_7">
    <defs>
     <path id="m22f124eab2" d="M 141.254273 -38.112647 
L 141.254273 -35.26104 
L 142.646181 -35.582091 
L 144.038088 -35.773604 
L 145.429995 -35.713976 
L 146.821903 -35.509148 
L 148.21381 -35.371719 
L 149.605717 -35.765663 
L 150.997624 -35.640162 
L 152.389532 -35.972227 
L 153.781439 -35.874197 
L 155.173346 -35.818328 
L 156.565254 -35.760649 
L 157.957161 -35.34531 
L 159.349068 -35.72306 
L 160.740976 -35.65948 
L 162.132883 -35.888928 
L 163.52479 -35.768878 
L 164.916698 -35.799883 
L 166.308605 -35.880125 
L 167.700512 -35.634639 
L 169.092419 -35.169972 
L 170.484327 -35.036219 
L 171.876234 -34.397015 
L 173.268141 -33.874249 
L 174.660049 -33.178701 
L 176.051956 -32.338094 
L 177.443863 -31.901241 
L 178.835771 -31.157483 
L 180.227678 -31.212777 
L 181.619585 -30.248071 
L 183.011493 -30.374941 
L 184.4034 -31.326884 
L 185.795307 -31.964016 
L 187.187215 -32.307646 
L 188.579122 -32.296976 
L 189.971029 -34.420414 
L 191.362936 -34.350515 
L 192.754844 -35.224952 
L 194.146751 -35.946865 
L 195.538658 -36.058452 
L 196.930566 -37.427049 
L 198.322473 -38.230894 
L 199.71438 -38.722323 
L 201.106288 -39.925641 
L 202.498195 -41.146628 
L 203.890102 -42.881358 
L 205.28201 -43.776312 
L 206.673917 -44.097378 
L 208.065824 -45.37582 
L 209.457731 -46.541633 
L 209.457731 -48.588035 
L 209.457731 -48.588035 
L 208.065824 -47.43488 
L 206.673917 -46.953231 
L 205.28201 -46.156447 
L 203.890102 -44.781159 
L 202.498195 -43.388466 
L 201.106288 -42.859647 
L 199.71438 -41.921989 
L 198.322473 -40.78255 
L 196.930566 -39.69288 
L 195.538658 -39.80297 
L 194.146751 -38.895839 
L 192.754844 -38.336865 
L 191.362936 -37.559549 
L 189.971029 -36.968298 
L 188.579122 -37.185233 
L 187.187215 -35.213221 
L 185.795307 -34.398277 
L 184.4034 -34.645694 
L 183.011493 -34.226343 
L 181.619585 -34.197386 
L 180.227678 -33.471238 
L 178.835771 -34.194733 
L 177.443863 -33.994103 
L 176.051956 -35.222647 
L 174.660049 -34.933333 
L 173.268141 -35.911871 
L 171.876234 -36.560679 
L 170.484327 -37.222184 
L 169.092419 -37.380136 
L 167.700512 -36.633854 
L 166.308605 -36.943252 
L 164.916698 -37.003196 
L 163.52479 -37.248639 
L 162.132883 -36.913989 
L 160.740976 -37.35757 
L 159.349068 -37.392007 
L 157.957161 -37.821591 
L 156.565254 -37.666974 
L 155.173346 -37.149003 
L 153.781439 -37.015681 
L 152.389532 -37.047638 
L 150.997624 -37.299787 
L 149.605717 -37.189614 
L 148.21381 -38.006312 
L 146.821903 -37.786216 
L 145.429995 -37.135682 
L 144.038088 -37.20729 
L 142.646181 -38.141263 
L 141.254273 -38.112647 
z
" style="stroke: #0000ff; stroke-opacity: 0.2"/>
    </defs>
    <g clip-path="url(#pf6d9d1d4ad)">
     <use xlink:href="#m22f124eab2" x="0" y="134.806076" style="fill: #0000ff; fill-opacity: 0.2; stroke: #0000ff; stroke-opacity: 0.2"/>
    </g>
   </g>
   <g id="FillBetweenPolyCollection_8">
    <defs>
     <path id="mf2c233cd6c" d="M 141.254273 -38.632351 
L 141.254273 -35.656077 
L 142.646181 -36.005956 
L 144.038088 -36.212192 
L 145.429995 -36.156001 
L 146.821903 -35.921692 
L 148.21381 -35.779501 
L 149.605717 -36.214272 
L 150.997624 -36.064393 
L 152.389532 -36.402754 
L 153.781439 -36.297721 
L 155.173346 -36.246453 
L 156.565254 -36.202034 
L 157.957161 -35.773777 
L 159.349068 -36.151446 
L 160.740976 -36.096586 
L 162.132883 -36.337595 
L 163.52479 -36.214831 
L 164.916698 -36.237737 
L 166.308605 -36.336867 
L 167.700512 -36.082556 
L 169.092419 -35.610257 
L 170.484327 -35.501043 
L 171.876234 -34.854867 
L 173.268141 -34.36529 
L 174.660049 -33.727211 
L 176.051956 -32.885689 
L 177.443863 -32.4841 
L 178.835771 -31.868335 
L 180.227678 -31.906399 
L 181.619585 -30.956671 
L 183.011493 -30.972011 
L 184.4034 -32.163777 
L 185.795307 -32.899184 
L 187.187215 -33.345724 
L 188.579122 -33.289464 
L 189.971029 -35.645324 
L 191.362936 -35.682078 
L 192.754844 -36.741789 
L 194.146751 -37.659385 
L 195.538658 -37.959326 
L 196.930566 -39.494142 
L 198.322473 -40.467352 
L 199.71438 -41.022332 
L 201.106288 -42.418198 
L 202.498195 -44.034899 
L 203.890102 -46.021748 
L 205.28201 -47.131986 
L 206.673917 -47.526569 
L 208.065824 -48.811411 
L 209.457731 -50.050437 
L 209.457731 -52.269066 
L 209.457731 -52.269066 
L 208.065824 -50.990398 
L 206.673917 -50.373515 
L 205.28201 -49.518587 
L 203.890102 -47.968231 
L 202.498195 -46.449533 
L 201.106288 -45.706171 
L 199.71438 -44.700475 
L 198.322473 -43.173103 
L 196.930566 -41.940765 
L 195.538658 -41.829943 
L 194.146751 -40.834449 
L 192.754844 -40.053553 
L 191.362936 -39.031677 
L 189.971029 -38.260825 
L 188.579122 -38.437615 
L 187.187215 -36.204266 
L 185.795307 -35.428548 
L 184.4034 -35.523586 
L 183.011493 -35.10221 
L 181.619585 -35.110861 
L 180.227678 -34.239288 
L 178.835771 -34.97817 
L 177.443863 -34.71718 
L 176.051956 -35.914999 
L 174.660049 -35.533305 
L 173.268141 -36.523969 
L 171.876234 -37.16887 
L 170.484327 -37.794092 
L 169.092419 -37.938103 
L 167.700512 -37.138672 
L 166.308605 -37.469846 
L 164.916698 -37.522525 
L 163.52479 -37.763325 
L 162.132883 -37.418136 
L 160.740976 -37.872565 
L 159.349068 -37.933269 
L 157.957161 -38.367223 
L 156.565254 -38.196612 
L 155.173346 -37.668207 
L 153.781439 -37.510142 
L 152.389532 -37.544376 
L 150.997624 -37.832746 
L 149.605717 -37.673749 
L 148.21381 -38.531769 
L 146.821903 -38.353019 
L 145.429995 -37.638825 
L 144.038088 -37.697841 
L 142.646181 -38.688816 
L 141.254273 -38.632351 
z
" style="stroke: #000000; stroke-opacity: 0.2"/>
    </defs>
    <g clip-path="url(#pf6d9d1d4ad)">
     <use xlink:href="#mf2c233cd6c" x="0" y="134.806076" style="fill-opacity: 0.2; stroke: #000000; stroke-opacity: 0.2"/>
    </g>
   </g>
   <g id="matplotlib.axis_7">
    <g id="xtick_7">
     <g id="line2d_39">
      <g>
       <use xlink:href="#m336bafbb21" x="158.305138" y="109.036981" style="stroke: #000000; stroke-width: 0.8"/>
      </g>
     </g>
     <g id="text_25">
      <!-- $\mathdefault{10^{-2}}$ -->
      <g transform="translate(149.366429 121.571783) scale(0.08 -0.08)">
       <use xlink:href="#CMR17-31" transform="scale(0.996264)"/>
       <use xlink:href="#CMR17-30" transform="translate(45.690477 0) scale(0.996264)"/>
       <use xlink:href="#CMSY10-0" transform="translate(91.380954 36.153639) scale(0.697382)"/>
       <use xlink:href="#CMR17-32" transform="translate(145.621947 36.153639) scale(0.697382)"/>
      </g>
     </g>
    </g>
    <g id="xtick_8">
     <g id="line2d_40">
      <g>
       <use xlink:href="#m336bafbb21" x="192.406867" y="109.036981" style="stroke: #000000; stroke-width: 0.8"/>
      </g>
     </g>
     <g id="text_26">
      <!-- $\mathdefault{10^{0}}$ -->
      <g transform="translate(186.346228 121.571783) scale(0.08 -0.08)">
       <use xlink:href="#CMR17-31" transform="scale(0.996264)"/>
       <use xlink:href="#CMR17-30" transform="translate(45.690477 0) scale(0.996264)"/>
       <use xlink:href="#CMR17-30" transform="translate(91.380954 36.153639) scale(0.697382)"/>
      </g>
     </g>
    </g>
    <g id="text_27">
     <!-- $\sigma_b$ -->
     <g transform="translate(171.299414 129.656331) scale(0.08 -0.08)">
      <use xlink:href="#CMMI12-1b" transform="scale(0.996264)"/>
      <use xlink:href="#CMMI12-62" transform="translate(55.445461 -14.943915) scale(0.697382)"/>
     </g>
    </g>
   </g>
   <g id="matplotlib.axis_8">
    <g id="ytick_9">
     <g id="line2d_41">
      <g>
       <use xlink:href="#m85e18dda3f" x="137.8441" y="109.036981" style="stroke: #000000; stroke-width: 0.8"/>
      </g>
     </g>
     <g id="text_28">
      <!-- $10^{-4}$ -->
      <g transform="translate(112.966683 111.804382) scale(0.08 -0.08)">
       <use xlink:href="#CMR17-31" transform="scale(0.996264)"/>
       <use xlink:href="#CMR17-30" transform="translate(45.690477 0) scale(0.996264)"/>
       <use xlink:href="#CMSY10-0" transform="translate(91.380954 36.153639) scale(0.697382)"/>
       <use xlink:href="#CMR17-34" transform="translate(145.621947 36.153639) scale(0.697382)"/>
      </g>
     </g>
    </g>
    <g id="ytick_10">
     <g id="line2d_42">
      <g>
       <use xlink:href="#m85e18dda3f" x="137.8441" y="97.070515" style="stroke: #000000; stroke-width: 0.8"/>
      </g>
     </g>
     <g id="text_29">
      <!-- $10^{-3}$ -->
      <g transform="translate(112.966683 99.837916) scale(0.08 -0.08)">
       <use xlink:href="#CMR17-31" transform="scale(0.996264)"/>
       <use xlink:href="#CMR17-30" transform="translate(45.690477 0) scale(0.996264)"/>
       <use xlink:href="#CMSY10-0" transform="translate(91.380954 36.153639) scale(0.697382)"/>
       <use xlink:href="#CMR17-33" transform="translate(145.621947 36.153639) scale(0.697382)"/>
      </g>
     </g>
    </g>
    <g id="ytick_11">
     <g id="line2d_43">
      <g>
       <use xlink:href="#m85e18dda3f" x="137.8441" y="73.137582" style="stroke: #000000; stroke-width: 0.8"/>
      </g>
     </g>
     <g id="text_30">
      <!-- $10^{-1}$ -->
      <g transform="translate(112.966683 75.904983) scale(0.08 -0.08)">
       <use xlink:href="#CMR17-31" transform="scale(0.996264)"/>
       <use xlink:href="#CMR17-30" transform="translate(45.690477 0) scale(0.996264)"/>
       <use xlink:href="#CMSY10-0" transform="translate(91.380954 36.153639) scale(0.697382)"/>
       <use xlink:href="#CMR17-31" transform="translate(145.621947 36.153639) scale(0.697382)"/>
      </g>
     </g>
    </g>
   </g>
   <g id="line2d_44">
    <path d="M 141.254273 97.926052 
L 142.646181 97.788438 
L 144.038088 98.266347 
L 145.429995 98.332782 
L 146.821903 98.034666 
L 148.21381 97.951868 
L 149.605717 98.27982 
L 150.997624 98.270132 
L 152.389532 98.268376 
L 153.781439 98.32986 
L 155.173346 98.279937 
L 156.565254 98.005342 
L 157.957161 98.076511 
L 159.349068 98.181833 
L 160.740976 98.228502 
L 162.132883 98.379385 
L 163.52479 98.244827 
L 164.916698 98.369787 
L 166.308605 98.36725 
L 167.700512 98.647852 
L 169.092419 98.414405 
L 170.484327 98.562779 
L 171.876234 99.215433 
L 173.268141 99.813786 
L 174.660049 100.676357 
L 176.051956 100.828091 
L 177.443863 101.753757 
L 178.835771 101.911175 
L 180.227678 102.342339 
L 181.619585 102.216893 
L 183.011493 102.156534 
L 184.4034 101.559244 
L 185.795307 101.483688 
L 187.187215 100.845174 
L 188.579122 99.510252 
L 189.971029 98.957118 
L 191.362936 98.607192 
L 192.754844 97.795643 
L 194.146751 97.178301 
L 195.538658 96.545168 
L 196.930566 96.123592 
L 198.322473 95.144298 
L 199.71438 94.241469 
L 201.106288 93.209072 
L 202.498195 92.418571 
L 203.890102 90.888485 
L 205.28201 89.704613 
L 206.673917 89.087022 
L 208.065824 88.299411 
L 209.457731 87.14116 
" clip-path="url(#pf6d9d1d4ad)" style="fill: none; stroke: #0000ff; stroke-width: 1.5; stroke-linecap: square"/>
   </g>
   <g id="line2d_45">
    <path d="M 141.254273 97.45165 
L 142.646181 97.287455 
L 144.038088 97.798152 
L 145.429995 97.855956 
L 146.821903 97.527816 
L 148.21381 97.470335 
L 149.605717 97.811 
L 150.997624 97.782653 
L 152.389532 97.801227 
L 153.781439 97.866868 
L 155.173346 97.800278 
L 156.565254 97.511646 
L 157.957161 97.575452 
L 159.349068 97.687726 
L 160.740976 97.746003 
L 162.132883 97.900179 
L 163.52479 97.759537 
L 164.916698 97.886343 
L 166.308605 97.871906 
L 167.700512 98.168681 
L 169.092419 97.902635 
L 170.484327 98.033052 
L 171.876234 98.666466 
L 173.268141 99.250161 
L 174.660049 100.097752 
L 176.051956 100.188065 
L 177.443863 101.086407 
L 178.835771 101.153601 
L 180.227678 101.603415 
L 181.619585 101.367832 
L 183.011493 101.369029 
L 184.4034 100.695484 
L 185.795307 100.489826 
L 187.187215 99.836971 
L 188.579122 98.32954 
L 189.971029 97.69017 
L 191.362936 97.18388 
L 192.754844 96.148949 
L 194.146751 95.320365 
L 195.538658 94.559129 
L 196.930566 93.945956 
L 198.322473 92.811712 
L 199.71438 91.625846 
L 201.106288 90.488091 
L 202.498195 89.424867 
L 203.890102 87.720484 
L 205.28201 86.344978 
L 206.673917 85.663477 
L 208.065824 84.791798 
L 209.457731 83.528819 
" clip-path="url(#pf6d9d1d4ad)" style="fill: none; stroke: #000000; stroke-width: 1.5; stroke-linecap: square"/>
   </g>
   <g id="line2d_46">
    <path d="M 141.254273 99.262358 
L 142.646181 99.073496 
L 144.038088 99.034546 
L 145.429995 99.222428 
L 146.821903 99.229603 
L 148.21381 99.131567 
L 149.605717 99.355409 
L 150.997624 99.361273 
L 152.389532 99.084053 
L 153.781439 99.184285 
L 155.173346 99.126793 
L 156.565254 99.378636 
L 157.957161 99.067013 
L 159.349068 99.294933 
L 160.740976 99.299171 
L 162.132883 99.197052 
L 163.52479 99.045142 
L 164.916698 99.194551 
L 166.308605 99.092782 
L 167.700512 99.325838 
L 169.092419 99.638254 
L 170.484327 99.861601 
L 171.876234 100.662649 
L 173.268141 101.002766 
L 174.660049 102.123713 
L 176.051956 102.505748 
L 177.443863 103.27464 
L 178.835771 104.354624 
L 180.227678 103.760278 
L 181.619585 104.970463 
L 183.011493 104.384804 
L 184.4034 103.675378 
L 185.795307 103.761366 
L 187.187215 103.395384 
L 188.579122 103.151786 
L 189.971029 101.654086 
L 191.362936 102.592207 
L 192.754844 100.744093 
L 194.146751 100.174318 
L 195.538658 100.163018 
L 196.930566 99.032964 
L 198.322473 96.77431 
L 199.71438 96.897368 
L 201.106288 96.69424 
L 202.498195 94.854172 
L 203.890102 93.308383 
L 205.28201 92.684612 
L 206.673917 91.618054 
L 208.065824 90.669872 
L 209.457731 89.709716 
" clip-path="url(#pf6d9d1d4ad)" style="fill: none; stroke-dasharray: 5.55,2.4; stroke-dashoffset: 0; stroke: #0000ff; stroke-width: 1.5"/>
   </g>
   <g id="line2d_47">
    <path d="M 141.254273 94.868909 
L 142.646181 94.808964 
L 144.038088 96.543839 
L 145.429995 96.558502 
L 146.821903 95.672356 
L 148.21381 94.233803 
L 149.605717 96.737033 
L 150.997624 95.973809 
L 152.389532 96.939408 
L 153.781439 96.895808 
L 155.173346 96.691085 
L 156.565254 95.626476 
L 157.957161 94.436147 
L 159.349068 96.201583 
L 160.740976 95.862494 
L 162.132883 97.383994 
L 163.52479 96.469662 
L 164.916698 96.859609 
L 166.308605 97.137394 
L 167.700512 97.216011 
L 169.092419 95.070232 
L 170.484327 95.843514 
L 171.876234 96.95797 
L 173.268141 97.657502 
L 174.660049 98.994468 
L 176.051956 98.369223 
L 177.443863 99.042255 
L 178.835771 99.244188 
L 180.227678 99.068762 
L 181.619585 98.695775 
L 183.011493 97.433776 
L 184.4034 98.24703 
L 185.795307 98.542851 
L 187.187215 97.671013 
L 188.579122 94.087999 
L 189.971029 96.645993 
L 191.362936 95.871445 
L 192.754844 95.426242 
L 194.146751 93.722823 
L 195.538658 93.643854 
L 196.930566 94.422137 
L 198.322473 92.991163 
L 199.71438 90.715494 
L 201.106288 90.286577 
L 202.498195 90.309029 
L 203.890102 89.161106 
L 205.28201 87.702856 
L 206.673917 86.199576 
L 208.065824 86.371782 
L 209.457731 85.089937 
" clip-path="url(#pf6d9d1d4ad)" style="fill: none; stroke-dasharray: 1.5,2.475; stroke-dashoffset: 0; stroke: #0000ff; stroke-width: 1.5"/>
   </g>
   <g id="line2d_48">
    <path d="M 141.254273 98.815434 
L 142.646181 98.636635 
L 144.038088 98.630519 
L 145.429995 98.733066 
L 146.821903 98.798216 
L 148.21381 98.725686 
L 149.605717 98.947062 
L 150.997624 98.917092 
L 152.389532 98.66647 
L 153.781439 98.7201 
L 155.173346 98.740573 
L 156.565254 98.927278 
L 157.957161 98.651453 
L 159.349068 98.869949 
L 160.740976 98.804211 
L 162.132883 98.759002 
L 163.52479 98.678744 
L 164.916698 98.717097 
L 166.308605 98.644241 
L 167.700512 98.82587 
L 169.092419 99.150504 
L 170.484327 99.349052 
L 171.876234 100.235304 
L 173.268141 100.50931 
L 174.660049 101.52396 
L 176.051956 101.969813 
L 177.443863 102.628309 
L 178.835771 103.591926 
L 180.227678 103.086456 
L 181.619585 104.068736 
L 183.011493 103.616072 
L 184.4034 102.8435 
L 185.795307 102.722276 
L 187.187215 102.30392 
L 188.579122 101.857199 
L 189.971029 100.666581 
L 191.362936 101.143411 
L 192.754844 99.284283 
L 194.146751 98.299073 
L 195.538658 98.181392 
L 196.930566 96.940204 
L 198.322473 94.640362 
L 199.71438 94.863229 
L 201.106288 94.213823 
L 202.498195 92.101463 
L 203.890102 90.593622 
L 205.28201 89.172989 
L 206.673917 88.414704 
L 208.065824 87.400728 
L 209.457731 86.010121 
" clip-path="url(#pf6d9d1d4ad)" style="fill: none; stroke-dasharray: 5.55,2.4; stroke-dashoffset: 0; stroke: #000000; stroke-width: 1.5"/>
   </g>
   <g id="line2d_49">
    <path d="M 141.254273 94.305748 
L 142.646181 94.128266 
L 144.038088 96.189304 
L 145.429995 96.118811 
L 146.821903 95.072999 
L 148.21381 93.651926 
L 149.605717 96.215331 
L 150.997624 95.3098 
L 152.389532 96.328466 
L 153.781439 96.292661 
L 155.173346 96.180365 
L 156.565254 95.081798 
L 157.957161 93.853285 
L 159.349068 95.580257 
L 160.740976 95.296888 
L 162.132883 96.812731 
L 163.52479 95.889368 
L 164.916698 96.285888 
L 166.308605 96.559998 
L 167.700512 96.648633 
L 169.092419 94.441866 
L 170.484327 95.152369 
L 171.876234 96.220127 
L 173.268141 96.945009 
L 174.660049 98.307444 
L 176.051956 97.562455 
L 177.443863 98.194968 
L 178.835771 98.418107 
L 180.227678 98.257873 
L 181.619585 97.665995 
L 183.011493 96.328038 
L 184.4034 97.243313 
L 185.795307 97.298753 
L 187.187215 96.913658 
L 188.579122 92.699104 
L 189.971029 95.293794 
L 191.362936 94.183745 
L 192.754844 93.592319 
L 194.146751 91.606464 
L 195.538658 91.616705 
L 196.930566 92.105599 
L 198.322473 90.355181 
L 199.71438 87.894629 
L 201.106288 87.071364 
L 202.498195 87.051731 
L 203.890102 86.223317 
L 205.28201 84.203624 
L 206.673917 83.209113 
L 208.065824 82.67169 
L 209.457731 81.383203 
" clip-path="url(#pf6d9d1d4ad)" style="fill: none; stroke-dasharray: 1.5,2.475; stroke-dashoffset: 0; stroke: #000000; stroke-width: 1.5"/>
   </g>
   <g id="patch_20">
    <path d="M 137.8441 109.036981 
L 137.8441 73.137582 
" style="fill: none; stroke: #000000; stroke-width: 0.8; stroke-linejoin: miter; stroke-linecap: square"/>
   </g>
   <g id="patch_21">
    <path d="M 212.867904 109.036981 
L 212.867904 73.137582 
" style="fill: none; stroke: #000000; stroke-width: 0.8; stroke-linejoin: miter; stroke-linecap: square"/>
   </g>
   <g id="patch_22">
    <path d="M 137.8441 109.036981 
L 212.867904 109.036981 
" style="fill: none; stroke: #000000; stroke-width: 0.8; stroke-linejoin: miter; stroke-linecap: square"/>
   </g>
   <g id="patch_23">
    <path d="M 137.8441 73.137582 
L 212.867904 73.137582 
" style="fill: none; stroke: #000000; stroke-width: 0.8; stroke-linejoin: miter; stroke-linecap: square"/>
   </g>
   <g id="text_31">
    <!-- $\mathbf{d)}$ -->
    <g transform="translate(125.375509 67.016623) scale(0.08 -0.08)">
     <defs>
      <path id="CMBX12-64" d="M 2221 4428 
L 2221 4153 
C 2618 4153 2662 4153 2662 3896 
L 2662 2571 
C 2522 2694 2240 2880 1798 2880 
C 890 2880 243 2313 243 1408 
C 243 483 877 -64 1728 -64 
C 2080 -64 2381 57 2630 270 
L 2630 -64 
L 3770 -26 
L 3770 250 
C 3373 250 3328 250 3328 502 
L 3328 4480 
L 2221 4428 
z
M 2630 625 
C 2362 231 2035 147 1805 147 
C 1011 147 1011 968 1011 1395 
C 1011 1699 1011 2022 1152 2268 
C 1350 2630 1728 2668 1875 2668 
C 2138 2668 2419 2552 2630 2268 
L 2630 625 
z
" transform="scale(0.015625)"/>
     </defs>
     <use xlink:href="#CMBX12-64" transform="scale(0.996264)"/>
     <use xlink:href="#CMR17-29" transform="translate(62.266501 0) scale(0.996264)"/>
    </g>
   </g>
  </g>
 </g>
 <defs>
  <clipPath id="pff7f55bae1">
   <rect x="36.561965" y="15.698543" width="75.023804" height="35.899399"/>
  </clipPath>
  <clipPath id="pfa897971bd">
   <rect x="137.8441" y="15.698543" width="75.023804" height="35.899399"/>
  </clipPath>
  <clipPath id="p933d78fe34">
   <rect x="36.561965" y="73.137582" width="75.023804" height="35.899399"/>
  </clipPath>
  <clipPath id="pf6d9d1d4ad">
   <rect x="137.8441" y="73.137582" width="75.023804" height="35.899399"/>
  </clipPath>
 </defs>
</svg>
