<?xml version="1.0" encoding="utf-8" standalone="no"?>
<!DOCTYPE svg PUBLIC "-//W3C//DTD SVG 1.1//EN"
  "http://www.w3.org/Graphics/SVG/1.1/DTD/svg11.dtd">
<svg xmlns:xlink="http://www.w3.org/1999/xlink" width="218.177479pt" height="134.806076pt" viewBox="0 0 218.177479 134.806076" xmlns="http://www.w3.org/2000/svg" version="1.1">
 <metadata>
  <rdf:RDF xmlns:dc="http://purl.org/dc/elements/1.1/" xmlns:cc="http://creativecommons.org/ns#" xmlns:rdf="http://www.w3.org/1999/02/22-rdf-syntax-ns#">
   <cc:Work>
    <dc:type rdf:resource="http://purl.org/dc/dcmitype/StillImage"/>
    <dc:date>2025-09-20T15:44:33.347963</dc:date>
    <dc:format>image/svg+xml</dc:format>
    <dc:creator>
     <cc:Agent>
      <dc:title>Matplotlib v3.10.0, https://matplotlib.org/</dc:title>
     </cc:Agent>
    </dc:creator>
   </cc:Work>
  </rdf:RDF>
 </metadata>
 <defs>
  <style type="text/css">*{stroke-linejoin: round; stroke-linecap: butt}</style>
 </defs>
 <g id="figure_1">
  <g id="patch_1">
   <path d="M 0 134.806076 
L 218.177479 134.806076 
L 218.177479 0 
L 0 0 
z
" style="fill: #ffffff"/>
  </g>
  <g id="axes_1">
   <g id="patch_2">
    <path d="M 37.44753 51.597942 
L 112.471334 51.597942 
L 112.471334 15.698543 
L 37.44753 15.698543 
z
" style="fill: #ffffff"/>
   </g>
   <g id="FillBetweenPolyCollection_1">
    <defs>
     <path id="m7b387473bd" d="M 40.857703 -100.117676 
L 40.857703 -98.561269 
L 40.859113 -98.488288 
L 40.860815 -98.329796 
L 40.86287 -98.686035 
L 40.865349 -98.370319 
L 40.86834 -98.422262 
L 40.871951 -98.204804 
L 40.876308 -98.278608 
L 40.881566 -98.350616 
L 40.887911 -98.456754 
L 40.895568 -98.837553 
L 40.904809 -98.556343 
L 40.915961 -98.779393 
L 40.929419 -98.741297 
L 40.94566 -98.872287 
L 40.965259 -98.648412 
L 40.988911 -98.949906 
L 41.017455 -98.935243 
L 41.051901 -98.768808 
L 41.09347 -98.927712 
L 41.143636 -98.685437 
L 41.204175 -98.927935 
L 41.277234 -98.657187 
L 41.3654 -98.842394 
L 41.471799 -99.320216 
L 41.6002 -99.017763 
L 41.755153 -98.95722 
L 41.94215 -99.154076 
L 42.167816 -99.622639 
L 42.440148 -99.557945 
L 42.768797 -99.090683 
L 43.165408 -99.644788 
L 43.644035 -100.427516 
L 44.221638 -100.021008 
L 44.918686 -99.823237 
L 45.759878 -99.885498 
L 46.775022 -100.037409 
L 48.000091 -99.525481 
L 49.478494 -99.670757 
L 51.262621 -99.443059 
L 53.415692 -99.600756 
L 56.014003 -99.802875 
L 59.149625 -99.801337 
L 62.93367 -99.470686 
L 67.500228 -99.28997 
L 73.011117 -99.278215 
L 79.661617 -99.500372 
L 87.687391 -99.377698 
L 97.372836 -99.231691 
L 109.061161 -99.366155 
L 109.061161 -100.652611 
L 109.061161 -100.652611 
L 97.372836 -100.516835 
L 87.687391 -100.44377 
L 79.661617 -100.564819 
L 73.011117 -100.781778 
L 67.500228 -100.872652 
L 62.93367 -100.666178 
L 59.149625 -101.121638 
L 56.014003 -100.874057 
L 53.415692 -100.725246 
L 51.262621 -100.363997 
L 49.478494 -100.739407 
L 48.000091 -100.600563 
L 46.775022 -101.117202 
L 45.759878 -101.047685 
L 44.918686 -100.90505 
L 44.221638 -101.119104 
L 43.644035 -101.15739 
L 43.165408 -100.609541 
L 42.768797 -100.48722 
L 42.440148 -100.968504 
L 42.167816 -100.735465 
L 41.94215 -100.387214 
L 41.755153 -100.433872 
L 41.6002 -100.275996 
L 41.471799 -100.244965 
L 41.3654 -99.980333 
L 41.277234 -99.843692 
L 41.204175 -100.228793 
L 41.143636 -100.282482 
L 41.09347 -99.934783 
L 41.051901 -100.001831 
L 41.017455 -100.117618 
L 40.988911 -100.240911 
L 40.965259 -100.200344 
L 40.94566 -100.136936 
L 40.929419 -100.116031 
L 40.915961 -100.094094 
L 40.904809 -100.056383 
L 40.895568 -100.101305 
L 40.887911 -100.144953 
L 40.881566 -100.392225 
L 40.876308 -99.972038 
L 40.871951 -99.805131 
L 40.86834 -100.118163 
L 40.865349 -99.946618 
L 40.86287 -99.86017 
L 40.860815 -99.958523 
L 40.859113 -99.97524 
L 40.857703 -100.117676 
z
" style="stroke: #0000ff; stroke-opacity: 0.2"/>
    </defs>
    <g clip-path="url(#pd0f68c9f72)">
     <use xlink:href="#m7b387473bd" x="0" y="134.806076" style="fill: #0000ff; fill-opacity: 0.2; stroke: #0000ff; stroke-opacity: 0.2"/>
    </g>
   </g>
   <g id="FillBetweenPolyCollection_2">
    <defs>
     <path id="m9b546eb07e" d="M 40.857703 -96.63207 
L 40.857703 -95.14505 
L 40.859113 -95.69883 
L 40.860815 -95.554184 
L 40.86287 -95.622295 
L 40.865349 -95.655167 
L 40.86834 -95.315107 
L 40.871951 -95.715025 
L 40.876308 -95.108372 
L 40.881566 -95.592175 
L 40.887911 -95.172083 
L 40.895568 -95.650505 
L 40.904809 -95.634501 
L 40.915961 -95.643427 
L 40.929419 -95.6161 
L 40.94566 -95.62816 
L 40.965259 -95.639574 
L 40.988911 -95.663112 
L 41.017455 -95.011807 
L 41.051901 -95.630418 
L 41.09347 -95.638223 
L 41.143636 -95.639823 
L 41.204175 -95.631542 
L 41.277234 -95.653263 
L 41.3654 -95.602354 
L 41.471799 -95.565281 
L 41.6002 -95.685964 
L 41.755153 -95.635193 
L 41.94215 -95.175539 
L 42.167816 -94.978608 
L 42.440148 -95.638995 
L 42.768797 -95.638839 
L 43.165408 -94.606563 
L 43.644035 -95.647576 
L 44.221638 -95.656621 
L 44.918686 -93.860108 
L 45.759878 -95.659329 
L 46.775022 -95.625671 
L 48.000091 -95.638062 
L 49.478494 -95.53505 
L 51.262621 -95.626887 
L 53.415692 -95.569245 
L 56.014003 -95.618365 
L 59.149625 -95.585653 
L 62.93367 -95.652089 
L 67.500228 -94.990204 
L 73.011117 -94.861788 
L 79.661617 -94.729012 
L 87.687391 -95.652205 
L 97.372836 -95.058271 
L 109.061161 -95.170082 
L 109.061161 -96.611047 
L 109.061161 -96.611047 
L 97.372836 -97.089674 
L 87.687391 -95.812399 
L 79.661617 -97.022366 
L 73.011117 -97.140984 
L 67.500228 -96.741141 
L 62.93367 -95.954292 
L 59.149625 -96.075281 
L 56.014003 -96.044196 
L 53.415692 -96.008993 
L 51.262621 -95.916506 
L 49.478494 -96.072387 
L 48.000091 -95.902067 
L 46.775022 -95.869669 
L 45.759878 -95.88068 
L 44.918686 -97.955187 
L 44.221638 -95.89296 
L 43.644035 -95.898176 
L 43.165408 -97.444312 
L 42.768797 -95.920021 
L 42.440148 -95.845867 
L 42.167816 -96.752476 
L 41.94215 -96.585411 
L 41.755153 -95.891122 
L 41.6002 -95.885787 
L 41.471799 -96.01099 
L 41.3654 -95.978389 
L 41.277234 -95.96562 
L 41.204175 -95.897416 
L 41.143636 -95.809548 
L 41.09347 -95.853163 
L 41.051901 -95.871857 
L 41.017455 -96.663693 
L 40.988911 -95.880149 
L 40.965259 -96.002535 
L 40.94566 -95.864547 
L 40.929419 -95.931664 
L 40.915961 -95.849967 
L 40.904809 -95.864352 
L 40.895568 -95.890233 
L 40.887911 -96.635553 
L 40.881566 -96.084151 
L 40.876308 -96.659617 
L 40.871951 -95.878536 
L 40.86834 -96.614261 
L 40.865349 -95.856962 
L 40.86287 -95.904032 
L 40.860815 -96.11974 
L 40.859113 -95.922081 
L 40.857703 -96.63207 
z
" style="stroke: #000000; stroke-opacity: 0.2"/>
    </defs>
    <g clip-path="url(#pd0f68c9f72)">
     <use xlink:href="#m9b546eb07e" x="0" y="134.806076" style="fill-opacity: 0.2; stroke: #000000; stroke-opacity: 0.2"/>
    </g>
   </g>
   <g id="matplotlib.axis_1">
    <g id="xtick_1">
     <g id="line2d_1">
      <defs>
       <path id="m68f8523727" d="M 0 0 
L 0 3.5 
" style="stroke: #000000; stroke-width: 0.8"/>
      </defs>
      <g>
       <use xlink:href="#m68f8523727" x="40.850882" y="51.597942" style="stroke: #000000; stroke-width: 0.8"/>
      </g>
     </g>
    </g>
    <g id="xtick_2">
     <g id="line2d_2">
      <g>
       <use xlink:href="#m68f8523727" x="74.956021" y="51.597942" style="stroke: #000000; stroke-width: 0.8"/>
      </g>
     </g>
    </g>
    <g id="xtick_3">
     <g id="line2d_3">
      <g>
       <use xlink:href="#m68f8523727" x="109.061161" y="51.597942" style="stroke: #000000; stroke-width: 0.8"/>
      </g>
     </g>
    </g>
   </g>
   <g id="matplotlib.axis_2">
    <g id="ytick_1">
     <g id="line2d_4">
      <defs>
       <path id="mcf2a59bfe1" d="M 0 0 
L -3.5 0 
" style="stroke: #000000; stroke-width: 0.8"/>
      </defs>
      <g>
       <use xlink:href="#mcf2a59bfe1" x="37.44753" y="51.597942" style="stroke: #000000; stroke-width: 0.8"/>
      </g>
     </g>
     <g id="text_1">
      <!-- $10^{-2}$ -->
      <g transform="translate(12.570112 54.365343) scale(0.08 -0.08)">
       <defs>
        <path id="CMR17-31" d="M 1702 4083 
C 1702 4217 1696 4224 1606 4224 
C 1357 3927 979 3833 621 3820 
C 602 3820 570 3820 563 3808 
C 557 3795 557 3782 557 3648 
C 755 3648 1088 3686 1344 3839 
L 1344 467 
C 1344 243 1331 166 781 166 
L 589 166 
L 589 0 
C 896 6 1216 12 1523 12 
C 1830 12 2150 6 2458 0 
L 2458 166 
L 2266 166 
C 1715 166 1702 236 1702 467 
L 1702 4083 
z
" transform="scale(0.015625)"/>
        <path id="CMR17-30" d="M 2688 2038 
C 2688 2430 2682 3099 2413 3613 
C 2176 4063 1798 4224 1466 4224 
C 1158 4224 768 4082 525 3620 
C 269 3137 243 2539 243 2038 
C 243 1671 250 1112 448 623 
C 723 -39 1216 -128 1466 -128 
C 1760 -128 2208 -7 2470 604 
C 2662 1048 2688 1568 2688 2038 
z
M 1466 -26 
C 1056 -26 813 328 723 816 
C 653 1196 653 1749 653 2109 
C 653 2604 653 3015 736 3407 
C 858 3954 1216 4121 1466 4121 
C 1728 4121 2067 3947 2189 3420 
C 2272 3054 2278 2623 2278 2109 
C 2278 1691 2278 1176 2202 797 
C 2067 96 1690 -26 1466 -26 
z
" transform="scale(0.015625)"/>
        <path id="CMSY10-0" d="M 4218 1472 
C 4326 1472 4442 1472 4442 1600 
C 4442 1728 4326 1728 4218 1728 
L 755 1728 
C 646 1728 531 1728 531 1600 
C 531 1472 646 1472 755 1472 
L 4218 1472 
z
" transform="scale(0.015625)"/>
        <path id="CMR17-32" d="M 2669 990 
L 2554 990 
C 2490 537 2438 460 2413 422 
C 2381 371 1920 371 1830 371 
L 602 371 
C 832 620 1280 1073 1824 1596 
C 2214 1966 2669 2400 2669 3033 
C 2669 3788 2067 4224 1395 4224 
C 691 4224 262 3603 262 3027 
C 262 2777 448 2745 525 2745 
C 589 2745 781 2783 781 3007 
C 781 3206 614 3264 525 3264 
C 486 3264 448 3257 422 3244 
C 544 3788 915 4057 1306 4057 
C 1862 4057 2227 3616 2227 3033 
C 2227 2477 1901 1998 1536 1583 
L 262 147 
L 262 0 
L 2515 0 
L 2669 990 
z
" transform="scale(0.015625)"/>
       </defs>
       <use xlink:href="#CMR17-31" transform="scale(0.996264)"/>
       <use xlink:href="#CMR17-30" transform="translate(45.690477 0) scale(0.996264)"/>
       <use xlink:href="#CMSY10-0" transform="translate(91.380954 36.153639) scale(0.697382)"/>
       <use xlink:href="#CMR17-32" transform="translate(145.621947 36.153639) scale(0.697382)"/>
      </g>
     </g>
    </g>
    <g id="ytick_2">
     <g id="line2d_5">
      <g>
       <use xlink:href="#mcf2a59bfe1" x="37.44753" y="33.648243" style="stroke: #000000; stroke-width: 0.8"/>
      </g>
     </g>
     <g id="text_2">
      <!-- $10^{-1}$ -->
      <g transform="translate(12.570112 36.415644) scale(0.08 -0.08)">
       <use xlink:href="#CMR17-31" transform="scale(0.996264)"/>
       <use xlink:href="#CMR17-30" transform="translate(45.690477 0) scale(0.996264)"/>
       <use xlink:href="#CMSY10-0" transform="translate(91.380954 36.153639) scale(0.697382)"/>
       <use xlink:href="#CMR17-31" transform="translate(145.621947 36.153639) scale(0.697382)"/>
      </g>
     </g>
    </g>
    <g id="ytick_3">
     <g id="line2d_6">
      <g>
       <use xlink:href="#mcf2a59bfe1" x="37.44753" y="15.698543" style="stroke: #000000; stroke-width: 0.8"/>
      </g>
     </g>
     <g id="text_3">
      <!-- $10^{0}$ -->
      <g transform="translate(18.326252 18.465944) scale(0.08 -0.08)">
       <use xlink:href="#CMR17-31" transform="scale(0.996264)"/>
       <use xlink:href="#CMR17-30" transform="translate(45.690477 0) scale(0.996264)"/>
       <use xlink:href="#CMR17-30" transform="translate(91.380954 36.153639) scale(0.697382)"/>
      </g>
     </g>
    </g>
    <g id="text_4">
     <!-- Time ($s$) -->
     <g transform="translate(9.577584 49.955377) rotate(-90) scale(0.08 -0.08)">
      <defs>
       <path id="CMR17-54" d="M 3981 4332 
L 288 4332 
L 179 2924 
L 294 2924 
C 378 3981 467 4166 1453 4166 
C 1568 4166 1754 4166 1805 4159 
C 1926 4140 1926 4064 1926 3917 
L 1926 465 
C 1926 236 1907 166 1376 166 
L 1197 166 
L 1197 0 
C 1504 6 1824 12 2138 12 
C 2451 12 2771 6 3078 0 
L 3078 166 
L 2899 166 
C 2368 166 2349 236 2349 465 
L 2349 3917 
C 2349 4057 2349 4134 2464 4159 
C 2515 4166 2701 4166 2816 4166 
C 3795 4166 3891 3981 3974 2924 
L 4090 2924 
L 3981 4332 
z
" transform="scale(0.015625)"/>
       <path id="CMR17-69" d="M 992 3961 
C 992 4102 877 4224 730 4224 
C 589 4224 467 4108 467 3961 
C 467 3820 582 3699 730 3699 
C 870 3699 992 3814 992 3961 
z
M 243 2745 
L 243 2579 
C 602 2579 653 2540 653 2231 
L 653 443 
C 653 198 627 166 218 166 
L 218 0 
C 371 12 646 12 806 12 
C 960 12 1222 12 1370 0 
L 1370 166 
C 992 166 979 205 979 436 
L 979 2816 
L 243 2745 
z
" transform="scale(0.015625)"/>
       <path id="CMR17-6d" d="M 4326 1954 
C 4326 2276 4269 2816 3507 2816 
C 3072 2816 2771 2520 2656 2173 
L 2650 2173 
C 2573 2700 2195 2816 1837 2816 
C 1331 2816 1069 2424 973 2166 
L 966 2166 
L 966 2816 
L 211 2745 
L 211 2578 
C 589 2578 646 2540 646 2231 
L 646 443 
C 646 198 621 166 211 166 
L 211 0 
C 365 12 646 12 813 12 
C 979 12 1267 12 1421 0 
L 1421 166 
C 1011 166 986 192 986 443 
L 986 1678 
C 986 2269 1344 2713 1792 2713 
C 2266 2713 2317 2289 2317 1980 
L 2317 443 
C 2317 198 2291 166 1882 166 
L 1882 0 
C 2035 12 2317 12 2483 12 
C 2650 12 2938 12 3091 0 
L 3091 166 
C 2682 166 2656 192 2656 443 
L 2656 1678 
C 2656 2269 3014 2713 3462 2713 
C 3936 2713 3987 2289 3987 1980 
L 3987 443 
C 3987 198 3962 166 3552 166 
L 3552 0 
C 3706 12 3987 12 4154 12 
C 4320 12 4608 12 4762 0 
L 4762 166 
C 4352 166 4326 192 4326 443 
L 4326 1954 
z
" transform="scale(0.015625)"/>
       <path id="CMR17-65" d="M 2438 1503 
C 2464 1529 2464 1542 2464 1606 
C 2464 2251 2118 2816 1389 2816 
C 710 2816 173 2175 173 1394 
C 173 554 781 -64 1459 -64 
C 2176 -64 2458 619 2458 755 
C 2458 800 2419 800 2406 800 
C 2362 800 2355 787 2330 709 
C 2189 270 1837 51 1504 51 
C 1229 51 954 206 781 490 
C 582 819 582 1200 582 1503 
L 2438 1503 
z
M 589 1600 
C 634 2511 1126 2713 1382 2713 
C 1818 2713 2112 2308 2118 1600 
L 589 1600 
z
" transform="scale(0.015625)"/>
       <path id="CMR17-28" d="M 1958 -1562 
C 1958 -1556 1958 -1543 1939 -1524 
C 1645 -1223 858 -403 858 1596 
C 858 3595 1632 4408 1946 4729 
C 1946 4735 1958 4748 1958 4767 
C 1958 4787 1939 4800 1914 4800 
C 1843 4800 1299 4325 986 3620 
C 666 2909 576 2218 576 1603 
C 576 1141 621 360 1005 -467 
C 1312 -1133 1837 -1600 1914 -1600 
C 1946 -1600 1958 -1588 1958 -1562 
z
" transform="scale(0.015625)"/>
       <path id="CMMI12-73" d="M 1459 1290 
C 1568 1271 1741 1233 1779 1227 
C 1862 1201 2150 1099 2150 793 
C 2150 595 1971 64 1229 64 
C 1094 64 614 83 486 447 
C 742 414 870 614 870 755 
C 870 889 781 960 653 960 
C 512 960 326 851 326 563 
C 326 176 710 -64 1222 -64 
C 2195 -64 2483 665 2483 998 
C 2483 1093 2483 1271 2278 1475 
C 2118 1627 1965 1659 1619 1729 
C 1446 1767 1171 1824 1171 2111 
C 1171 2239 1286 2687 1894 2687 
C 2163 2687 2426 2589 2490 2368 
C 2208 2368 2195 2124 2195 2118 
C 2195 1983 2317 1945 2374 1945 
C 2464 1945 2643 2015 2643 2284 
C 2643 2546 2400 2816 1901 2816 
C 1062 2816 838 2169 838 1907 
C 838 1424 1312 1322 1459 1290 
z
" transform="scale(0.015625)"/>
       <path id="CMR17-29" d="M 1683 1596 
C 1683 2057 1638 2839 1254 3665 
C 947 4332 422 4800 346 4800 
C 326 4800 301 4793 301 4761 
C 301 4748 307 4742 314 4729 
C 621 4408 1402 3595 1402 1603 
C 1402 -396 627 -1210 314 -1530 
C 307 -1543 301 -1549 301 -1562 
C 301 -1594 326 -1600 346 -1600 
C 416 -1600 960 -1127 1274 -422 
C 1594 289 1683 981 1683 1596 
z
" transform="scale(0.015625)"/>
      </defs>
      <use xlink:href="#CMR17-54" transform="scale(0.996264)"/>
      <use xlink:href="#CMR17-69" transform="translate(66.509881 0) scale(0.996264)"/>
      <use xlink:href="#CMR17-6d" transform="translate(91.380939 0) scale(0.996264)"/>
      <use xlink:href="#CMR17-65" transform="translate(168.300529 0) scale(0.996264)"/>
      <use xlink:href="#CMR17-28" transform="translate(238.862156 0) scale(0.996264)"/>
      <use xlink:href="#CMMI12-73" transform="translate(274.142924 0) scale(0.996264)"/>
      <use xlink:href="#CMR17-29" transform="translate(320.092971 0) scale(0.996264)"/>
     </g>
    </g>
   </g>
   <g id="line2d_7">
    <path d="M 40.857703 35.427825 
L 40.859113 35.538912 
L 40.860815 35.619457 
L 40.86287 35.510889 
L 40.865349 35.607833 
L 40.86834 35.489836 
L 40.871951 35.760114 
L 40.876308 35.63486 
L 40.881566 35.368009 
L 40.887911 35.459612 
L 40.895568 35.311067 
L 40.904809 35.463688 
L 40.915961 35.34165 
L 40.929419 35.347147 
L 40.94566 35.275848 
L 40.965259 35.343141 
L 40.988911 35.183973 
L 41.017455 35.25725 
L 41.051901 35.396404 
L 41.09347 35.358577 
L 41.143636 35.28129 
L 41.204175 35.200609 
L 41.277234 35.533085 
L 41.3654 35.373967 
L 41.471799 35.009781 
L 41.6002 35.133839 
L 41.755153 35.075619 
L 41.94215 35.011073 
L 42.167816 34.607184 
L 42.440148 34.510991 
L 42.768797 34.985893 
L 43.165408 34.663996 
L 43.644035 34.005084 
L 44.221638 34.216701 
L 44.918686 34.423182 
L 45.759878 34.317847 
L 46.775022 34.21009 
L 48.000091 34.724536 
L 49.478494 34.582696 
L 51.262621 34.888956 
L 53.415692 34.622817 
L 56.014003 34.449225 
L 59.149625 34.31667 
L 62.93367 34.714749 
L 67.500228 34.684668 
L 73.011117 34.739886 
L 79.661617 34.755327 
L 87.687391 34.877132 
L 97.372836 34.90536 
L 109.061161 34.770186 
" clip-path="url(#pd0f68c9f72)" style="fill: none; stroke: #0000ff; stroke-width: 1.5; stroke-linecap: square"/>
   </g>
   <g id="line2d_8">
    <path d="M 40.857703 38.882113 
L 40.859113 38.994822 
L 40.860815 38.963987 
L 40.86287 39.041641 
L 40.865349 39.049359 
L 40.86834 38.81436 
L 40.871951 39.008867 
L 40.876308 38.883559 
L 40.881566 38.964033 
L 40.887911 38.867966 
L 40.895568 39.034786 
L 40.904809 39.055803 
L 40.915961 39.058695 
L 40.929419 39.030598 
L 40.94566 39.058827 
L 40.965259 38.982909 
L 40.988911 39.03369 
L 41.017455 38.924653 
L 41.051901 39.054004 
L 41.09347 39.059643 
L 41.143636 39.080929 
L 41.204175 39.040464 
L 41.277234 38.995071 
L 41.3654 39.013438 
L 41.471799 39.014756 
L 41.6002 39.019561 
L 41.755153 39.041868 
L 41.94215 38.893771 
L 42.167816 38.890187 
L 42.440148 39.062959 
L 42.768797 39.025379 
L 43.165408 38.652218 
L 43.644035 39.032193 
L 44.221638 39.03039 
L 44.918686 38.632563 
L 45.759878 39.035286 
L 46.775022 39.057452 
L 48.000091 39.034894 
L 49.478494 38.997729 
L 51.262621 39.033035 
L 53.415692 39.013857 
L 56.014003 38.971888 
L 59.149625 38.971766 
L 62.93367 39.001422 
L 67.500228 38.891347 
L 73.011117 38.721688 
L 79.661617 38.846354 
L 87.687391 39.073363 
L 97.372836 38.66612 
L 109.061161 38.882264 
" clip-path="url(#pd0f68c9f72)" style="fill: none; stroke: #000000; stroke-width: 1.5; stroke-linecap: square"/>
   </g>
   <g id="line2d_9">
    <path d="M 40.857703 37.374985 
L 40.859113 37.500945 
L 40.860815 37.564697 
L 40.86287 37.006242 
L 40.865349 37.501585 
L 40.86834 37.436925 
L 40.871951 37.621762 
L 40.876308 37.250142 
L 40.881566 36.945462 
L 40.887911 37.501402 
L 40.895568 36.483368 
L 40.904809 37.187146 
L 40.915961 36.711542 
L 40.929419 37.065713 
L 40.94566 36.428375 
L 40.965259 37.374145 
L 40.988911 36.514607 
L 41.017455 36.182253 
L 41.051901 36.827737 
L 41.09347 36.827904 
L 41.143636 36.769908 
L 41.204175 36.945859 
L 41.277234 36.654922 
L 41.3654 36.711322 
L 41.471799 36.154212 
L 41.6002 37.187819 
L 41.755153 36.770102 
L 41.94215 36.209337 
L 42.167816 36.651806 
L 42.440148 36.596946 
L 42.768797 36.711212 
L 43.165408 36.483689 
L 43.644035 35.147375 
L 44.221638 35.387245 
L 44.918686 35.735009 
L 45.759878 35.436066 
L 46.775022 35.633795 
L 48.000091 35.685348 
L 49.478494 35.634442 
L 51.262621 35.634466 
L 53.415692 35.685831 
L 56.014003 35.534706 
L 59.149625 36.262125 
L 62.93367 36.154237 
L 67.500228 36.42872 
L 73.011117 36.654867 
L 79.661617 35.67922 
L 87.687391 35.941594 
L 97.372836 36.770019 
L 109.061161 35.735884 
" clip-path="url(#pd0f68c9f72)" style="fill: none; stroke-dasharray: 5.55,2.4; stroke-dashoffset: 0; stroke: #0000ff; stroke-width: 1.5"/>
   </g>
   <g id="line2d_10">
    <path d="M 40.857703 34.254966 
L 40.859113 34.255268 
L 40.860815 33.925324 
L 40.86287 34.688578 
L 40.865349 34.340211 
L 40.86834 34.171498 
L 40.871951 34.255207 
L 40.876308 34.088698 
L 40.881566 31.998193 
L 40.887911 33.686351 
L 40.895568 34.255006 
L 40.904809 34.425762 
L 40.915961 33.455121 
L 40.929419 34.088836 
L 40.94566 33.608707 
L 40.965259 34.006321 
L 40.988911 33.925498 
L 41.017455 33.925036 
L 41.051901 34.340231 
L 41.09347 34.425762 
L 41.143636 33.765267 
L 41.204175 34.124751 
L 41.277234 34.512116 
L 41.3654 34.17126 
L 41.471799 34.255247 
L 41.6002 34.17122 
L 41.755153 33.531536 
L 41.94215 33.92519 
L 42.167816 33.765286 
L 42.440148 33.455121 
L 42.768797 34.006145 
L 43.165408 33.925382 
L 43.644035 33.230235 
L 44.221638 33.230253 
L 44.918686 33.230235 
L 45.759878 33.230094 
L 46.775022 33.379125 
L 48.000091 33.531408 
L 49.478494 33.60843 
L 51.262621 33.765135 
L 53.415692 33.531462 
L 56.014003 33.531426 
L 59.149625 32.869745 
L 62.93367 33.608393 
L 67.500228 33.454867 
L 73.011117 33.01169 
L 79.661617 33.531188 
L 87.687391 33.765493 
L 97.372836 33.686594 
L 109.061161 33.455248 
" clip-path="url(#pd0f68c9f72)" style="fill: none; stroke-dasharray: 1.5,2.475; stroke-dashoffset: 0; stroke: #0000ff; stroke-width: 1.5"/>
   </g>
   <g id="line2d_11">
    <path d="M 40.857703 39.20905 
L 40.859113 39.209354 
L 40.860815 39.287771 
L 40.86287 39.209316 
L 40.865349 39.209278 
L 40.86834 39.209012 
L 40.871951 39.128901 
L 40.876308 39.369502 
L 40.881566 39.209164 
L 40.887911 39.288231 
L 40.895568 39.209354 
L 40.904809 39.209278 
L 40.915961 39.209354 
L 40.929419 39.288538 
L 40.94566 39.288231 
L 40.965259 39.209126 
L 40.988911 39.20943 
L 41.017455 39.287388 
L 41.051901 39.209278 
L 41.09347 39.209392 
L 41.143636 39.288078 
L 41.204175 39.20924 
L 41.277234 39.288155 
L 41.3654 39.370006 
L 41.471799 39.20924 
L 41.6002 39.209354 
L 41.755153 39.209202 
L 41.94215 39.210074 
L 42.167816 39.209126 
L 42.440148 39.209392 
L 42.768797 39.28804 
L 43.165408 39.20905 
L 43.644035 39.20924 
L 44.221638 39.209316 
L 44.918686 39.209581 
L 45.759878 39.209354 
L 46.775022 39.209695 
L 48.000091 39.287733 
L 49.478494 39.28827 
L 51.262621 39.370083 
L 53.415692 39.209316 
L 56.014003 39.209202 
L 59.149625 39.209278 
L 62.93367 39.208633 
L 67.500228 39.287082 
L 73.011117 39.287503 
L 79.661617 39.209316 
L 87.687391 39.209278 
L 97.372836 39.209088 
L 109.061161 39.20924 
" clip-path="url(#pd0f68c9f72)" style="fill: none; stroke-dasharray: 5.55,2.4; stroke-dashoffset: 0; stroke: #000000; stroke-width: 1.5"/>
   </g>
   <g id="line2d_12">
    <path d="M 40.857703 35.735325 
L 40.859113 38.669669 
L 40.860815 37.761504 
L 40.86287 38.597412 
L 40.865349 38.818895 
L 40.86834 36.047469 
L 40.871951 38.819905 
L 40.876308 35.585248 
L 40.881566 38.029933 
L 40.887911 35.735568 
L 40.895568 38.745569 
L 40.904809 38.745676 
L 40.915961 38.819797 
L 40.929419 38.451915 
L 40.94566 38.819688 
L 40.965259 38.236194 
L 40.988911 38.745748 
L 41.017455 35.436042 
L 41.051901 38.745962 
L 41.09347 38.820085 
L 41.143636 38.896961 
L 41.204175 38.74489 
L 41.277234 38.451709 
L 41.3654 38.308645 
L 41.471799 38.030389 
L 41.6002 38.833231 
L 41.755153 38.522692 
L 41.94215 35.890801 
L 42.167816 35.194985 
L 42.440148 38.745783 
L 42.768797 38.597307 
L 43.165408 34.511825 
L 43.644035 38.670625 
L 44.221638 38.596816 
L 44.918686 31.877057 
L 45.759878 38.819688 
L 46.775022 38.818714 
L 48.000091 38.745712 
L 49.478494 37.826574 
L 51.262621 38.596921 
L 53.415692 38.030194 
L 56.014003 38.030357 
L 59.149625 37.960532 
L 62.93367 38.451778 
L 67.500228 35.241769 
L 73.011117 34.599732 
L 79.661617 34.340109 
L 87.687391 38.897179 
L 97.372836 35.838319 
L 109.061161 35.78719 
" clip-path="url(#pd0f68c9f72)" style="fill: none; stroke-dasharray: 1.5,2.475; stroke-dashoffset: 0; stroke: #000000; stroke-width: 1.5"/>
   </g>
   <g id="patch_3">
    <path d="M 37.44753 51.597942 
L 37.44753 15.698543 
" style="fill: none; stroke: #000000; stroke-width: 0.8; stroke-linejoin: miter; stroke-linecap: square"/>
   </g>
   <g id="patch_4">
    <path d="M 112.471334 51.597942 
L 112.471334 15.698543 
" style="fill: none; stroke: #000000; stroke-width: 0.8; stroke-linejoin: miter; stroke-linecap: square"/>
   </g>
   <g id="patch_5">
    <path d="M 37.44753 51.597942 
L 112.471334 51.597942 
" style="fill: none; stroke: #000000; stroke-width: 0.8; stroke-linejoin: miter; stroke-linecap: square"/>
   </g>
   <g id="patch_6">
    <path d="M 37.44753 15.698543 
L 112.471334 15.698543 
" style="fill: none; stroke: #000000; stroke-width: 0.8; stroke-linejoin: miter; stroke-linecap: square"/>
   </g>
   <g id="text_5">
    <!-- $\mathbf{a)}$ -->
    <g transform="translate(25.656953 9.577584) scale(0.08 -0.08)">
     <defs>
      <path id="CMBX12-61" d="M 2944 1894 
C 2944 2483 2477 2880 1574 2880 
C 1216 2880 461 2847 461 2310 
C 461 2041 666 1926 838 1926 
C 1030 1926 1216 2060 1216 2303 
C 1216 2425 1171 2540 1062 2611 
C 1274 2668 1427 2668 1549 2668 
C 1984 2668 2246 2425 2246 1900 
L 2246 1644 
C 1235 1644 218 1362 218 648 
C 218 64 960 -64 1402 -64 
C 1894 -64 2208 205 2336 488 
C 2336 250 2336 -26 2982 -26 
L 3309 -26 
C 3443 -26 3494 -26 3494 115 
C 3494 250 3437 250 3347 250 
C 2944 256 2944 359 2944 507 
L 2944 1894 
z
M 2246 867 
C 2246 262 1709 147 1504 147 
C 1190 147 928 359 928 655 
C 928 1240 1619 1439 2246 1472 
L 2246 867 
z
" transform="scale(0.015625)"/>
     </defs>
     <use xlink:href="#CMBX12-61" transform="scale(0.996264)"/>
     <use xlink:href="#CMR17-29" transform="translate(54.483188 0) scale(0.996264)"/>
    </g>
   </g>
   <g id="legend_1">
    <g id="line2d_13">
     <path d="M 68.496794 19.498543 
L 70.496794 19.498543 
L 72.496794 19.498543 
" style="fill: none; stroke: #0000ff; stroke-width: 1.5; stroke-linecap: square"/>
    </g>
    <g id="text_6">
     <!-- Mean -->
     <g transform="translate(73.696794 20.898543) scale(0.04 -0.04)">
      <defs>
       <path id="CMR17-4d" d="M 1338 4249 
C 1299 4345 1293 4352 1158 4352 
L 339 4352 
L 339 4185 
C 781 4185 851 4185 851 3898 
L 851 624 
C 851 465 851 166 339 166 
L 339 0 
C 486 12 755 12 915 12 
C 1075 12 1344 12 1491 0 
L 1491 166 
C 979 166 979 465 979 624 
L 979 4159 
L 986 4159 
L 2490 102 
C 2515 38 2528 0 2579 0 
C 2630 0 2643 38 2669 102 
L 4186 4191 
L 4192 4191 
L 4192 453 
C 4192 166 4122 166 3680 166 
L 3680 0 
C 3853 12 4198 12 4384 12 
C 4570 12 4922 12 5094 0 
L 5094 166 
C 4653 166 4582 166 4582 453 
L 4582 3898 
C 4582 4185 4653 4185 5094 4185 
L 5094 4352 
L 4282 4352 
C 4147 4352 4141 4345 4102 4249 
L 2720 516 
L 1338 4249 
z
" transform="scale(0.015625)"/>
       <path id="CMR17-61" d="M 2304 1656 
C 2304 2048 2304 2275 2035 2534 
C 1798 2751 1523 2816 1306 2816 
C 800 2816 435 2408 435 1977 
C 435 1740 627 1728 666 1728 
C 749 1728 896 1779 896 1958 
C 896 2118 774 2188 666 2188 
C 640 2188 608 2182 589 2176 
C 723 2594 1069 2713 1293 2713 
C 1613 2713 1965 2421 1965 1875 
L 1965 1632 
C 1587 1619 1133 1568 774 1373 
C 371 1147 256 822 256 576 
C 256 77 832 -64 1171 -64 
C 1523 -64 1850 135 1990 505 
C 2003 219 2182 -39 2464 -39 
C 2598 -39 2938 51 2938 563 
L 2938 926 
L 2822 926 
L 2822 557 
C 2822 161 2650 109 2566 109 
C 2304 109 2304 446 2304 732 
L 2304 1656 
z
M 1965 887 
C 1965 323 1568 38 1216 38 
C 896 38 646 278 646 576 
C 646 771 730 1114 1101 1322 
C 1408 1497 1760 1523 1965 1536 
L 1965 887 
z
" transform="scale(0.015625)"/>
       <path id="CMR17-6e" d="M 2656 1954 
C 2656 2282 2592 2816 1837 2816 
C 1331 2816 1069 2424 973 2166 
L 966 2166 
L 966 2816 
L 211 2745 
L 211 2578 
C 589 2578 646 2540 646 2231 
L 646 443 
C 646 198 621 166 211 166 
L 211 0 
C 365 12 646 12 813 12 
C 979 12 1267 12 1421 0 
L 1421 166 
C 1011 166 986 192 986 443 
L 986 1678 
C 986 2269 1344 2713 1792 2713 
C 2266 2713 2317 2289 2317 1980 
L 2317 443 
C 2317 198 2291 166 1882 166 
L 1882 0 
C 2035 12 2317 12 2483 12 
C 2650 12 2938 12 3091 0 
L 3091 166 
C 2682 166 2656 192 2656 443 
L 2656 1954 
z
" transform="scale(0.015625)"/>
      </defs>
      <use xlink:href="#CMR17-4d" transform="scale(0.996264)"/>
      <use xlink:href="#CMR17-65" transform="translate(84.686941 0) scale(0.996264)"/>
      <use xlink:href="#CMR17-61" transform="translate(125.172601 0) scale(0.996264)"/>
      <use xlink:href="#CMR17-6e" transform="translate(170.863078 0) scale(0.996264)"/>
     </g>
    </g>
    <g id="patch_7">
     <path d="M 68.496794 26.473408 
L 72.496794 26.473408 
L 72.496794 23.673408 
L 68.496794 23.673408 
z
" style="fill: #0000ff; fill-opacity: 0.2; stroke: #0000ff; stroke-opacity: 0.2; stroke-linejoin: miter"/>
    </g>
    <g id="text_7">
     <!-- Std -->
     <g transform="translate(73.696794 26.473408) scale(0.04 -0.04)">
      <defs>
       <path id="CMR17-53" d="M 2803 4351 
C 2803 4467 2797 4473 2758 4473 
C 2720 4473 2707 4447 2682 4390 
L 2490 3965 
C 2246 4320 1875 4480 1472 4480 
C 819 4480 294 3958 294 3301 
C 294 3101 339 2817 557 2546 
C 794 2250 1018 2198 1530 2063 
C 1722 2011 2042 1927 2106 1901 
C 2470 1747 2662 1360 2662 999 
C 2662 534 2336 38 1779 38 
C 1094 38 454 425 410 1328 
C 403 1431 397 1437 352 1437 
C 301 1437 294 1431 294 1302 
L 294 0 
C 294 -116 301 -122 339 -122 
C 384 -122 397 -90 486 109 
C 493 128 493 141 614 386 
C 934 -39 1472 -128 1779 -128 
C 2477 -128 2970 457 2970 1141 
C 2970 1476 2848 1734 2778 1850 
C 2509 2263 2221 2340 1914 2417 
C 1869 2437 1856 2437 1498 2527 
C 1152 2617 1005 2662 845 2836 
C 666 3036 602 3243 602 3449 
C 602 3868 934 4326 1478 4326 
C 2157 4326 2579 3842 2675 3036 
C 2694 2920 2701 2914 2746 2914 
C 2803 2914 2803 2933 2803 3043 
L 2803 4351 
z
" transform="scale(0.015625)"/>
       <path id="CMR17-74" d="M 966 2585 
L 1862 2585 
L 1862 2752 
L 966 2752 
L 966 3968 
L 851 3968 
C 838 3292 614 2700 70 2687 
L 70 2585 
L 627 2585 
L 627 778 
C 627 655 627 -64 1370 -64 
C 1747 -64 1965 308 1965 784 
L 1965 1151 
L 1850 1151 
L 1850 790 
C 1850 347 1677 51 1408 51 
C 1222 51 966 179 966 765 
L 966 2585 
z
" transform="scale(0.015625)"/>
       <path id="CMR17-64" d="M 1869 4345 
L 1869 4179 
C 2246 4179 2304 4141 2304 3843 
L 2304 2371 
C 2278 2403 2016 2816 1498 2816 
C 845 2816 211 2228 211 1376 
C 211 529 806 -64 1434 -64 
C 1978 -64 2259 361 2291 406 
L 2291 -64 
L 3066 -13 
L 3066 154 
C 2688 154 2630 193 2630 503 
L 2630 4416 
L 1869 4345 
z
M 2291 762 
C 2291 568 2176 393 2029 264 
C 1811 70 1594 38 1472 38 
C 1286 38 621 135 621 1369 
C 621 2636 1363 2713 1530 2713 
C 1824 2713 2061 2545 2208 2313 
C 2291 2177 2291 2157 2291 2041 
L 2291 762 
z
" transform="scale(0.015625)"/>
      </defs>
      <use xlink:href="#CMR17-53" transform="scale(0.996264)"/>
      <use xlink:href="#CMR17-74" transform="translate(50.89537 0) scale(0.996264)"/>
      <use xlink:href="#CMR17-64" transform="translate(86.176138 0) scale(0.996264)"/>
     </g>
    </g>
    <g id="line2d_14">
     <path d="M 68.496794 30.648274 
L 70.496794 30.648274 
L 72.496794 30.648274 
" style="fill: none; stroke: #000000; stroke-width: 1.5; stroke-linecap: square"/>
    </g>
    <g id="text_8">
     <!-- Mean -->
     <g transform="translate(73.696794 32.048274) scale(0.04 -0.04)">
      <use xlink:href="#CMR17-4d" transform="scale(0.996264)"/>
      <use xlink:href="#CMR17-65" transform="translate(84.686941 0) scale(0.996264)"/>
      <use xlink:href="#CMR17-61" transform="translate(125.172601 0) scale(0.996264)"/>
      <use xlink:href="#CMR17-6e" transform="translate(170.863078 0) scale(0.996264)"/>
     </g>
    </g>
    <g id="patch_8">
     <path d="M 68.496794 37.623139 
L 72.496794 37.623139 
L 72.496794 34.823139 
L 68.496794 34.823139 
z
" style="fill-opacity: 0.2; stroke: #000000; stroke-opacity: 0.2; stroke-linejoin: miter"/>
    </g>
    <g id="text_9">
     <!-- Std -->
     <g transform="translate(73.696794 37.623139) scale(0.04 -0.04)">
      <use xlink:href="#CMR17-53" transform="scale(0.996264)"/>
      <use xlink:href="#CMR17-74" transform="translate(50.89537 0) scale(0.996264)"/>
      <use xlink:href="#CMR17-64" transform="translate(86.176138 0) scale(0.996264)"/>
     </g>
    </g>
    <g id="line2d_15">
     <path d="M 94.570925 19.498543 
L 96.570925 19.498543 
L 98.570925 19.498543 
" style="fill: none; stroke-dasharray: 5.55,2.4; stroke-dashoffset: 0; stroke: #0000ff; stroke-width: 1.5"/>
    </g>
    <g id="text_10">
     <!-- Max -->
     <g transform="translate(99.770925 20.898543) scale(0.04 -0.04)">
      <defs>
       <path id="CMR17-78" d="M 1664 1491 
C 1856 1740 2074 2022 2253 2233 
C 2464 2476 2707 2579 2989 2585 
L 2989 2752 
C 2880 2745 2656 2739 2541 2739 
C 2368 2739 2170 2739 2022 2752 
L 2022 2585 
C 2112 2572 2163 2508 2163 2419 
C 2163 2304 2099 2233 2067 2188 
L 1594 1587 
L 1030 2323 
C 973 2393 973 2406 973 2438 
C 973 2515 1037 2579 1146 2585 
L 1146 2752 
C 992 2739 717 2739 557 2739 
C 384 2739 179 2739 38 2752 
L 38 2585 
C 384 2585 461 2560 614 2368 
L 1350 1414 
C 1363 1401 1395 1363 1395 1344 
C 1395 1318 838 633 768 544 
C 480 198 179 172 6 166 
L 6 0 
C 115 6 339 12 454 12 
C 582 12 864 12 979 0 
L 979 166 
C 941 172 838 185 838 332 
C 838 448 890 518 947 595 
L 1478 1248 
L 2035 524 
C 2086 454 2163 358 2163 313 
C 2163 224 2086 172 1984 166 
L 1984 0 
C 2138 12 2413 12 2573 12 
C 2746 12 2950 12 3091 0 
L 3091 166 
C 2771 166 2675 179 2522 377 
L 1664 1491 
z
" transform="scale(0.015625)"/>
      </defs>
      <use xlink:href="#CMR17-4d" transform="scale(0.996264)"/>
      <use xlink:href="#CMR17-61" transform="translate(84.686941 0) scale(0.996264)"/>
      <use xlink:href="#CMR17-78" transform="translate(130.377418 0) scale(0.996264)"/>
     </g>
    </g>
    <g id="line2d_16">
     <path d="M 94.570925 25.073408 
L 96.570925 25.073408 
L 98.570925 25.073408 
" style="fill: none; stroke-dasharray: 1.5,2.475; stroke-dashoffset: 0; stroke: #0000ff; stroke-width: 1.5"/>
    </g>
    <g id="text_11">
     <!-- Min -->
     <g transform="translate(99.770925 26.473408) scale(0.04 -0.04)">
      <use xlink:href="#CMR17-4d" transform="scale(0.996264)"/>
      <use xlink:href="#CMR17-69" transform="translate(84.686941 0) scale(0.996264)"/>
      <use xlink:href="#CMR17-6e" transform="translate(109.557999 0) scale(0.996264)"/>
     </g>
    </g>
    <g id="line2d_17">
     <path d="M 94.570925 30.648274 
L 96.570925 30.648274 
L 98.570925 30.648274 
" style="fill: none; stroke-dasharray: 5.55,2.4; stroke-dashoffset: 0; stroke: #000000; stroke-width: 1.5"/>
    </g>
    <g id="text_12">
     <!-- Max -->
     <g transform="translate(99.770925 32.048274) scale(0.04 -0.04)">
      <use xlink:href="#CMR17-4d" transform="scale(0.996264)"/>
      <use xlink:href="#CMR17-61" transform="translate(84.686941 0) scale(0.996264)"/>
      <use xlink:href="#CMR17-78" transform="translate(130.377418 0) scale(0.996264)"/>
     </g>
    </g>
    <g id="line2d_18">
     <path d="M 94.570925 36.223139 
L 96.570925 36.223139 
L 98.570925 36.223139 
" style="fill: none; stroke-dasharray: 1.5,2.475; stroke-dashoffset: 0; stroke: #000000; stroke-width: 1.5"/>
    </g>
    <g id="text_13">
     <!-- Min -->
     <g transform="translate(99.770925 37.623139) scale(0.04 -0.04)">
      <use xlink:href="#CMR17-4d" transform="scale(0.996264)"/>
      <use xlink:href="#CMR17-69" transform="translate(84.686941 0) scale(0.996264)"/>
      <use xlink:href="#CMR17-6e" transform="translate(109.557999 0) scale(0.996264)"/>
     </g>
    </g>
   </g>
  </g>
  <g id="axes_2">
   <g id="patch_9">
    <path d="M 138.729665 51.597942 
L 213.753469 51.597942 
L 213.753469 15.698543 
L 138.729665 15.698543 
z
" style="fill: #ffffff"/>
   </g>
   <g id="FillBetweenPolyCollection_3">
    <defs>
     <path id="m388ec152fb" d="M 142.139838 -99.966162 
L 142.139838 -98.428107 
L 142.141248 -98.480401 
L 142.142951 -98.854623 
L 142.145005 -98.91763 
L 142.147484 -98.447305 
L 142.150476 -98.252024 
L 142.154086 -98.626505 
L 142.158443 -98.285988 
L 142.163701 -98.91843 
L 142.170046 -98.933638 
L 142.177703 -98.362333 
L 142.186944 -98.418423 
L 142.198096 -98.671215 
L 142.211554 -98.85279 
L 142.227795 -99.486632 
L 142.247394 -99.834143 
L 142.271047 -99.424697 
L 142.29959 -99.122416 
L 142.334036 -98.932447 
L 142.375605 -98.62399 
L 142.425771 -98.72075 
L 142.48631 -98.523372 
L 142.559369 -98.822486 
L 142.647535 -98.472853 
L 142.753934 -98.70406 
L 142.882335 -98.852382 
L 143.037288 -99.088555 
L 143.224285 -99.021195 
L 143.449951 -99.335375 
L 143.722284 -98.966753 
L 144.050932 -99.450133 
L 144.447543 -98.965879 
L 144.92617 -99.088362 
L 145.503773 -99.619376 
L 146.200821 -99.710489 
L 147.042013 -99.909438 
L 148.057157 -100.153683 
L 149.282226 -100.100268 
L 150.76063 -100.122376 
L 152.544756 -100.253593 
L 154.697828 -100.088307 
L 157.296138 -100.16655 
L 160.43176 -100.376384 
L 164.215805 -100.166716 
L 168.782363 -100.304525 
L 174.293252 -100.088212 
L 180.943752 -100.196683 
L 188.969526 -99.993533 
L 198.654972 -100.257379 
L 210.343296 -100.214888 
L 210.343296 -101.44607 
L 210.343296 -101.44607 
L 198.654972 -101.342769 
L 188.969526 -101.176552 
L 180.943752 -101.058189 
L 174.293252 -101.065401 
L 168.782363 -101.206378 
L 164.215805 -101.323157 
L 160.43176 -101.143299 
L 157.296138 -101.086744 
L 154.697828 -101.100248 
L 152.544756 -101.242343 
L 150.76063 -101.321615 
L 149.282226 -101.172259 
L 148.057157 -100.854631 
L 147.042013 -100.938489 
L 146.200821 -101.116012 
L 145.503773 -100.73663 
L 144.92617 -100.630081 
L 144.447543 -100.666818 
L 144.050932 -100.725309 
L 143.722284 -100.30671 
L 143.449951 -100.03955 
L 143.224285 -100.344986 
L 143.037288 -100.218058 
L 142.882335 -100.077188 
L 142.753934 -100.233341 
L 142.647535 -99.96776 
L 142.559369 -100.17102 
L 142.48631 -99.945909 
L 142.425771 -99.866799 
L 142.375605 -100.220605 
L 142.334036 -100.311623 
L 142.29959 -100.413684 
L 142.271047 -101.053978 
L 142.247394 -100.808198 
L 142.227795 -100.627264 
L 142.211554 -100.088115 
L 142.198096 -100.042028 
L 142.186944 -100.181724 
L 142.177703 -100.032373 
L 142.170046 -100.848404 
L 142.163701 -100.330907 
L 142.158443 -99.938587 
L 142.154086 -100.188117 
L 142.150476 -99.818572 
L 142.147484 -99.821988 
L 142.145005 -100.178386 
L 142.142951 -100.302341 
L 142.141248 -100.10978 
L 142.139838 -99.966162 
z
" style="stroke: #0000ff; stroke-opacity: 0.2"/>
    </defs>
    <g clip-path="url(#pcf94c54838)">
     <use xlink:href="#m388ec152fb" x="0" y="134.806076" style="fill: #0000ff; fill-opacity: 0.2; stroke: #0000ff; stroke-opacity: 0.2"/>
    </g>
   </g>
   <g id="FillBetweenPolyCollection_4">
    <defs>
     <path id="m5eb3fd3382" d="M 142.139838 -98.030844 
L 142.139838 -93.845143 
L 142.141248 -94.740504 
L 142.142951 -95.635902 
L 142.145005 -95.401907 
L 142.147484 -95.624456 
L 142.150476 -95.611236 
L 142.154086 -95.615254 
L 142.158443 -95.610882 
L 142.163701 -95.591371 
L 142.170046 -95.596916 
L 142.177703 -95.616549 
L 142.186944 -95.592719 
L 142.198096 -95.592808 
L 142.211554 -95.606386 
L 142.227795 -95.616252 
L 142.247394 -95.593078 
L 142.271047 -95.609808 
L 142.29959 -95.194915 
L 142.334036 -95.586184 
L 142.375605 -95.629745 
L 142.425771 -95.494542 
L 142.48631 -95.522837 
L 142.559369 -95.550233 
L 142.647535 -95.564925 
L 142.753934 -95.613429 
L 142.882335 -94.779266 
L 143.037288 -95.588424 
L 143.224285 -95.513833 
L 143.449951 -95.612242 
L 143.722284 -95.594835 
L 144.050932 -95.600677 
L 144.447543 -95.597135 
L 144.92617 -94.869667 
L 145.503773 -95.498747 
L 146.200821 -95.615759 
L 147.042013 -95.606236 
L 148.057157 -95.482895 
L 149.282226 -95.49828 
L 150.76063 -95.608195 
L 152.544756 -95.006885 
L 154.697828 -94.803535 
L 157.296138 -94.877964 
L 160.43176 -95.634214 
L 164.215805 -94.787519 
L 168.782363 -95.593858 
L 174.293252 -95.583367 
L 180.943752 -95.621316 
L 188.969526 -95.622218 
L 198.654972 -94.695848 
L 210.343296 -95.152906 
L 210.343296 -96.66581 
L 210.343296 -96.66581 
L 198.654972 -97.125143 
L 188.969526 -95.819079 
L 180.943752 -95.769162 
L 174.293252 -95.821732 
L 168.782363 -95.883976 
L 164.215805 -97.101804 
L 160.43176 -95.819703 
L 157.296138 -96.785251 
L 154.697828 -96.764059 
L 152.544756 -96.760046 
L 150.76063 -95.798404 
L 149.282226 -96.027065 
L 148.057157 -96.01114 
L 147.042013 -95.803431 
L 146.200821 -95.79431 
L 145.503773 -95.949691 
L 144.92617 -96.986324 
L 144.447543 -95.845553 
L 144.050932 -95.865278 
L 143.722284 -95.783898 
L 143.449951 -95.873487 
L 143.224285 -95.940935 
L 143.037288 -95.838977 
L 142.882335 -97.091938 
L 142.753934 -95.822608 
L 142.647535 -95.788748 
L 142.559369 -95.934129 
L 142.48631 -95.941396 
L 142.425771 -96.041871 
L 142.375605 -95.830816 
L 142.334036 -95.859294 
L 142.29959 -96.486371 
L 142.271047 -95.80095 
L 142.247394 -95.783643 
L 142.227795 -95.828695 
L 142.211554 -95.849977 
L 142.198096 -95.781397 
L 142.186944 -95.799303 
L 142.177703 -95.807895 
L 142.170046 -95.805718 
L 142.163701 -95.766219 
L 142.158443 -95.822136 
L 142.154086 -95.835125 
L 142.150476 -95.799642 
L 142.147484 -95.808056 
L 142.145005 -96.181959 
L 142.142951 -95.804788 
L 142.141248 -96.923718 
L 142.139838 -98.030844 
z
" style="stroke: #000000; stroke-opacity: 0.2"/>
    </defs>
    <g clip-path="url(#pcf94c54838)">
     <use xlink:href="#m5eb3fd3382" x="0" y="134.806076" style="fill-opacity: 0.2; stroke: #000000; stroke-opacity: 0.2"/>
    </g>
   </g>
   <g id="matplotlib.axis_3">
    <g id="xtick_4">
     <g id="line2d_19">
      <g>
       <use xlink:href="#m68f8523727" x="142.133017" y="51.597942" style="stroke: #000000; stroke-width: 0.8"/>
      </g>
     </g>
    </g>
    <g id="xtick_5">
     <g id="line2d_20">
      <g>
       <use xlink:href="#m68f8523727" x="176.238156" y="51.597942" style="stroke: #000000; stroke-width: 0.8"/>
      </g>
     </g>
    </g>
    <g id="xtick_6">
     <g id="line2d_21">
      <g>
       <use xlink:href="#m68f8523727" x="210.343296" y="51.597942" style="stroke: #000000; stroke-width: 0.8"/>
      </g>
     </g>
    </g>
   </g>
   <g id="matplotlib.axis_4">
    <g id="ytick_4">
     <g id="line2d_22">
      <g>
       <use xlink:href="#mcf2a59bfe1" x="138.729665" y="51.597942" style="stroke: #000000; stroke-width: 0.8"/>
      </g>
     </g>
     <g id="text_14">
      <!-- $10^{-2}$ -->
      <g transform="translate(113.852247 54.365343) scale(0.08 -0.08)">
       <use xlink:href="#CMR17-31" transform="scale(0.996264)"/>
       <use xlink:href="#CMR17-30" transform="translate(45.690477 0) scale(0.996264)"/>
       <use xlink:href="#CMSY10-0" transform="translate(91.380954 36.153639) scale(0.697382)"/>
       <use xlink:href="#CMR17-32" transform="translate(145.621947 36.153639) scale(0.697382)"/>
      </g>
     </g>
    </g>
    <g id="ytick_5">
     <g id="line2d_23">
      <g>
       <use xlink:href="#mcf2a59bfe1" x="138.729665" y="33.648243" style="stroke: #000000; stroke-width: 0.8"/>
      </g>
     </g>
     <g id="text_15">
      <!-- $10^{-1}$ -->
      <g transform="translate(113.852247 36.415644) scale(0.08 -0.08)">
       <use xlink:href="#CMR17-31" transform="scale(0.996264)"/>
       <use xlink:href="#CMR17-30" transform="translate(45.690477 0) scale(0.996264)"/>
       <use xlink:href="#CMSY10-0" transform="translate(91.380954 36.153639) scale(0.697382)"/>
       <use xlink:href="#CMR17-31" transform="translate(145.621947 36.153639) scale(0.697382)"/>
      </g>
     </g>
    </g>
    <g id="ytick_6">
     <g id="line2d_24">
      <g>
       <use xlink:href="#mcf2a59bfe1" x="138.729665" y="15.698543" style="stroke: #000000; stroke-width: 0.8"/>
      </g>
     </g>
     <g id="text_16">
      <!-- $10^{0}$ -->
      <g transform="translate(119.608387 18.465944) scale(0.08 -0.08)">
       <use xlink:href="#CMR17-31" transform="scale(0.996264)"/>
       <use xlink:href="#CMR17-30" transform="translate(45.690477 0) scale(0.996264)"/>
       <use xlink:href="#CMR17-30" transform="translate(91.380954 36.153639) scale(0.697382)"/>
      </g>
     </g>
    </g>
   </g>
   <g id="line2d_25">
    <path d="M 142.139838 35.571071 
L 142.141248 35.468492 
L 142.142951 35.194035 
L 142.145005 35.232608 
L 142.147484 35.641167 
L 142.150476 35.731494 
L 142.154086 35.359727 
L 142.158443 35.650078 
L 142.163701 35.14946 
L 142.170046 34.856413 
L 142.177703 35.564086 
L 142.186944 35.456253 
L 142.198096 35.419361 
L 142.211554 35.311179 
L 142.227795 34.728285 
L 142.247394 34.469702 
L 142.271047 34.52425 
L 142.29959 35.01132 
L 142.334036 35.15358 
L 142.375605 35.342974 
L 142.425771 35.49126 
L 142.48631 35.539032 
L 142.559369 35.280199 
L 142.647535 35.549991 
L 142.753934 35.299935 
L 142.882335 35.317261 
L 143.037288 35.132331 
L 143.224285 35.09492 
L 143.449951 35.110665 
L 143.722284 35.14059 
L 144.050932 34.69231 
L 144.447543 34.943427 
L 144.92617 34.908803 
L 145.503773 34.608075 
L 146.200821 34.361191 
L 147.042013 34.365145 
L 148.057157 34.294044 
L 149.282226 34.151401 
L 150.76063 34.061043 
L 152.544756 34.042442 
L 154.697828 34.19539 
L 157.296138 34.165859 
L 160.43176 34.036808 
L 164.215805 34.039715 
L 168.782363 34.03759 
L 174.293252 34.213968 
L 180.943752 34.166745 
L 188.969526 34.198614 
L 198.654972 33.987127 
L 210.343296 33.951316 
" clip-path="url(#pcf94c54838)" style="fill: none; stroke: #0000ff; stroke-width: 1.5; stroke-linecap: square"/>
   </g>
   <g id="line2d_26">
    <path d="M 142.139838 38.59046 
L 142.141248 38.897784 
L 142.142951 39.085274 
L 142.145005 39.00439 
L 142.147484 39.08928 
L 142.150476 39.100068 
L 142.154086 39.080112 
L 142.158443 39.088851 
L 142.163701 39.126791 
L 142.170046 39.10406 
L 142.177703 39.093267 
L 142.186944 39.109381 
L 142.198096 39.118404 
L 142.211554 39.076944 
L 142.227795 39.082879 
L 142.247394 39.117134 
L 142.271047 39.100112 
L 142.29959 38.93872 
L 142.334036 39.082141 
L 142.375605 39.075148 
L 142.425771 39.033067 
L 142.48631 39.07115 
L 142.559369 39.061532 
L 142.647535 39.128436 
L 142.753934 39.087356 
L 142.882335 38.785025 
L 143.037288 39.091369 
L 143.224285 39.075768 
L 143.449951 39.062118 
L 143.722284 39.116137 
L 144.050932 39.071977 
L 144.447543 39.083742 
L 144.92617 38.80646 
L 145.503773 39.078597 
L 146.200821 39.100531 
L 147.042013 39.100619 
L 148.057157 39.054585 
L 149.282226 39.038921 
L 150.76063 39.102197 
L 152.544756 38.87343 
L 154.697828 38.960808 
L 157.296138 38.916283 
L 160.43176 39.078566 
L 164.215805 38.775846 
L 168.782363 39.06581 
L 174.293252 39.102616 
L 180.943752 39.110487 
L 188.969526 39.084806 
L 198.654972 38.801331 
L 210.343296 38.860073 
" clip-path="url(#pcf94c54838)" style="fill: none; stroke: #000000; stroke-width: 1.5; stroke-linecap: square"/>
   </g>
   <g id="line2d_27">
    <path d="M 142.139838 37.694536 
L 142.141248 37.005899 
L 142.142951 36.540933 
L 142.145005 36.262593 
L 142.147484 37.374475 
L 142.150476 37.564789 
L 142.154086 37.374595 
L 142.158443 37.187058 
L 142.163701 37.18735 
L 142.170046 37.065799 
L 142.177703 37.249965 
L 142.186944 37.436442 
L 142.198096 36.8281 
L 142.211554 36.483609 
L 142.227795 35.6853 
L 142.247394 35.634298 
L 142.271047 36.153776 
L 142.29959 36.827848 
L 142.334036 36.596919 
L 142.375605 36.769936 
L 142.425771 36.654594 
L 142.48631 37.249965 
L 142.559369 37.436079 
L 142.647535 36.858257 
L 142.753934 36.945717 
L 142.882335 37.006213 
L 143.037288 36.827597 
L 143.224285 36.428242 
L 143.449951 35.890851 
L 143.722284 36.262359 
L 144.050932 36.371 
L 144.447543 36.65473 
L 144.92617 36.596376 
L 145.503773 36.262307 
L 146.200821 36.541472 
L 147.042013 35.290763 
L 148.057157 34.960718 
L 149.282226 35.634658 
L 150.76063 35.534516 
L 152.544756 35.338104 
L 154.697828 35.146587 
L 157.296138 34.960322 
L 160.43176 34.733394 
L 164.215805 35.338751 
L 168.782363 35.007242 
L 174.293252 35.838196 
L 180.943752 35.053399 
L 188.969526 35.290648 
L 198.654972 36.047646 
L 210.343296 36.153776 
" clip-path="url(#pcf94c54838)" style="fill: none; stroke-dasharray: 5.55,2.4; stroke-dashoffset: 0; stroke: #0000ff; stroke-width: 1.5"/>
   </g>
   <g id="line2d_28">
    <path d="M 142.139838 34.255247 
L 142.141248 33.925459 
L 142.142951 33.608689 
L 142.145005 34.129909 
L 142.147484 34.425474 
L 142.150476 34.371329 
L 142.154086 34.088678 
L 142.158443 33.845142 
L 142.163701 33.925055 
L 142.170046 32.94008 
L 142.177703 33.883837 
L 142.186944 33.686501 
L 142.198096 33.925286 
L 142.211554 33.925517 
L 142.227795 33.844494 
L 142.247394 33.686613 
L 142.271047 31.876983 
L 142.29959 34.255207 
L 142.334036 33.845047 
L 142.375605 34.006126 
L 142.425771 34.298139 
L 142.48631 34.088442 
L 142.559369 34.298038 
L 142.647535 34.088501 
L 142.753934 33.454994 
L 142.882335 34.171399 
L 143.037288 33.925247 
L 143.224285 33.845066 
L 143.449951 34.512469 
L 143.722284 33.804609 
L 144.050932 33.765229 
L 144.447543 33.230447 
L 144.92617 33.156913 
L 145.503773 33.531554 
L 146.200821 33.230253 
L 147.042013 33.568517 
L 148.057157 33.686388 
L 149.282226 33.304591 
L 150.76063 32.66065 
L 152.544756 33.230464 
L 154.697828 32.799105 
L 157.296138 33.083773 
L 160.43176 33.156808 
L 164.215805 32.975189 
L 168.782363 33.156896 
L 174.293252 33.304467 
L 180.943752 33.230499 
L 188.969526 33.2302 
L 198.654972 32.9384 
L 210.343296 32.799238 
" clip-path="url(#pcf94c54838)" style="fill: none; stroke-dasharray: 1.5,2.475; stroke-dashoffset: 0; stroke: #0000ff; stroke-width: 1.5"/>
   </g>
   <g id="line2d_29">
    <path d="M 142.139838 39.209354 
L 142.141248 39.28758 
L 142.142951 39.209354 
L 142.145005 39.287963 
L 142.147484 39.28781 
L 142.150476 39.20943 
L 142.154086 39.288308 
L 142.158443 39.287963 
L 142.163701 39.28804 
L 142.170046 39.28735 
L 142.177703 39.287465 
L 142.186944 39.288155 
L 142.198096 39.287465 
L 142.211554 39.296052 
L 142.227795 39.209581 
L 142.247394 39.288423 
L 142.271047 39.287733 
L 142.29959 39.287044 
L 142.334036 39.288423 
L 142.375605 39.20924 
L 142.425771 39.28827 
L 142.48631 39.287963 
L 142.559369 39.288155 
L 142.647535 39.370161 
L 142.753934 39.369851 
L 142.882335 39.28758 
L 143.037288 39.335466 
L 143.224285 39.287427 
L 143.449951 39.209202 
L 143.722284 39.287925 
L 144.050932 39.369928 
L 144.447543 39.28781 
L 144.92617 39.287771 
L 145.503773 39.28781 
L 146.200821 39.28804 
L 147.042013 39.288385 
L 148.057157 39.28781 
L 149.282226 39.287925 
L 150.76063 39.287695 
L 152.544756 39.358823 
L 154.697828 39.369619 
L 157.296138 39.209278 
L 160.43176 39.288116 
L 164.215805 39.287886 
L 168.782363 39.287427 
L 174.293252 39.287771 
L 180.943752 39.209581 
L 188.969526 39.288193 
L 198.654972 39.351171 
L 210.343296 39.286852 
" clip-path="url(#pcf94c54838)" style="fill: none; stroke-dasharray: 5.55,2.4; stroke-dashoffset: 0; stroke: #000000; stroke-width: 1.5"/>
   </g>
   <g id="line2d_30">
    <path d="M 142.139838 32.065487 
L 142.141248 34.551981 
L 142.142951 38.972357 
L 142.145005 37.250024 
L 142.147484 38.972136 
L 142.150476 38.897033 
L 142.154086 38.820266 
L 142.158443 38.897143 
L 142.163701 38.897361 
L 142.170046 38.897434 
L 142.177703 38.972357 
L 142.186944 38.896742 
L 142.198096 38.897289 
L 142.211554 38.819941 
L 142.227795 38.819941 
L 142.247394 38.896961 
L 142.271047 38.897252 
L 142.29959 36.101459 
L 142.334036 38.745998 
L 142.375605 38.820013 
L 142.425771 37.826574 
L 142.48631 38.167927 
L 142.559369 38.379218 
L 142.647535 38.972283 
L 142.753934 38.897398 
L 142.882335 35.100817 
L 143.037288 38.819977 
L 143.224285 38.097556 
L 143.449951 38.597587 
L 143.722284 38.972099 
L 144.050932 38.597237 
L 144.447543 38.819544 
L 144.92617 35.33815 
L 145.503773 38.030194 
L 146.200821 38.897471 
L 147.042013 38.852737 
L 148.057157 37.827273 
L 149.282226 37.826257 
L 150.76063 38.897252 
L 152.544756 35.837974 
L 154.697828 34.960652 
L 157.296138 34.998794 
L 160.43176 38.897106 
L 164.215805 35.053488 
L 168.782363 38.522796 
L 174.293252 38.746105 
L 180.943752 38.879925 
L 188.969526 38.896669 
L 198.654972 34.383145 
L 210.343296 35.995381 
" clip-path="url(#pcf94c54838)" style="fill: none; stroke-dasharray: 1.5,2.475; stroke-dashoffset: 0; stroke: #000000; stroke-width: 1.5"/>
   </g>
   <g id="patch_10">
    <path d="M 138.729665 51.597942 
L 138.729665 15.698543 
" style="fill: none; stroke: #000000; stroke-width: 0.8; stroke-linejoin: miter; stroke-linecap: square"/>
   </g>
   <g id="patch_11">
    <path d="M 213.753469 51.597942 
L 213.753469 15.698543 
" style="fill: none; stroke: #000000; stroke-width: 0.8; stroke-linejoin: miter; stroke-linecap: square"/>
   </g>
   <g id="patch_12">
    <path d="M 138.729665 51.597942 
L 213.753469 51.597942 
" style="fill: none; stroke: #000000; stroke-width: 0.8; stroke-linejoin: miter; stroke-linecap: square"/>
   </g>
   <g id="patch_13">
    <path d="M 138.729665 15.698543 
L 213.753469 15.698543 
" style="fill: none; stroke: #000000; stroke-width: 0.8; stroke-linejoin: miter; stroke-linecap: square"/>
   </g>
   <g id="text_17">
    <!-- $\mathbf{b)}$ -->
    <g transform="translate(126.261074 9.577584) scale(0.08 -0.08)">
     <defs>
      <path id="CMBX12-62" d="M 1331 4480 
L 224 4428 
L 224 4153 
C 621 4153 666 4153 666 3896 
L 666 -26 
L 934 -26 
C 1043 96 1152 218 1254 347 
C 1581 6 1933 -64 2189 -64 
C 3072 -64 3750 476 3750 1414 
C 3750 2300 3149 2880 2272 2880 
C 1894 2880 1594 2758 1331 2552 
L 1331 4480 
z
M 1363 2242 
C 1587 2552 1920 2668 2189 2668 
C 2982 2668 2982 1847 2982 1420 
C 2982 1130 2982 761 2829 522 
C 2630 211 2330 147 2125 147 
C 1690 147 1453 457 1363 599 
L 1363 2242 
z
" transform="scale(0.015625)"/>
     </defs>
     <use xlink:href="#CMBX12-62" transform="scale(0.996264)"/>
     <use xlink:href="#CMR17-29" transform="translate(62.266501 0) scale(0.996264)"/>
    </g>
   </g>
  </g>
  <g id="axes_3">
   <g id="patch_14">
    <path d="M 37.44753 109.036981 
L 112.471334 109.036981 
L 112.471334 73.137582 
L 37.44753 73.137582 
z
" style="fill: #ffffff"/>
   </g>
   <g id="FillBetweenPolyCollection_5">
    <defs>
     <path id="m30db4d5375" d="M 40.857703 -42.750962 
L 40.857703 -41.290889 
L 40.859113 -41.421237 
L 40.860815 -42.324256 
L 40.86287 -41.930263 
L 40.865349 -42.22026 
L 40.86834 -41.911248 
L 40.871951 -41.194149 
L 40.876308 -40.965693 
L 40.881566 -40.754975 
L 40.887911 -41.123582 
L 40.895568 -41.046106 
L 40.904809 -41.259478 
L 40.915961 -40.960685 
L 40.929419 -41.996902 
L 40.94566 -42.534863 
L 40.965259 -42.385627 
L 40.988911 -42.251352 
L 41.017455 -42.075623 
L 41.051901 -41.786785 
L 41.09347 -42.454872 
L 41.143636 -42.093727 
L 41.204175 -42.451066 
L 41.277234 -42.243976 
L 41.3654 -42.202558 
L 41.471799 -42.249452 
L 41.6002 -41.938382 
L 41.755153 -41.680556 
L 41.94215 -41.40775 
L 42.167816 -41.556837 
L 42.440148 -41.926253 
L 42.768797 -42.217409 
L 43.165408 -41.986942 
L 43.644035 -42.62291 
L 44.221638 -42.941444 
L 44.918686 -42.820635 
L 45.759878 -43.031073 
L 46.775022 -42.800381 
L 48.000091 -42.910377 
L 49.478494 -42.879025 
L 51.262621 -42.875379 
L 53.415692 -42.45205 
L 56.014003 -42.452235 
L 59.149625 -42.330091 
L 62.93367 -42.276938 
L 67.500228 -42.101706 
L 73.011117 -42.274974 
L 79.661617 -42.239115 
L 87.687391 -42.549421 
L 97.372836 -42.174376 
L 109.061161 -42.457209 
L 109.061161 -43.524653 
L 109.061161 -43.524653 
L 97.372836 -43.309666 
L 87.687391 -43.393056 
L 79.661617 -43.416751 
L 73.011117 -43.395405 
L 67.500228 -43.363663 
L 62.93367 -43.53004 
L 59.149625 -43.53735 
L 56.014003 -43.733759 
L 53.415692 -44.533786 
L 51.262621 -43.960193 
L 49.478494 -44.018979 
L 48.000091 -44.078493 
L 46.775022 -44.084124 
L 45.759878 -44.153983 
L 44.918686 -44.068603 
L 44.221638 -43.989351 
L 43.644035 -43.505153 
L 43.165408 -43.999071 
L 42.768797 -43.368535 
L 42.440148 -43.051856 
L 42.167816 -42.97691 
L 41.94215 -42.77845 
L 41.755153 -43.086537 
L 41.6002 -43.091559 
L 41.471799 -43.397982 
L 41.3654 -43.413911 
L 41.277234 -43.63857 
L 41.204175 -43.535401 
L 41.143636 -43.820355 
L 41.09347 -43.880502 
L 41.051901 -43.760596 
L 41.017455 -43.18582 
L 40.988911 -43.392729 
L 40.965259 -43.500905 
L 40.94566 -43.569984 
L 40.929419 -43.43707 
L 40.915961 -42.798284 
L 40.904809 -42.871872 
L 40.895568 -42.860815 
L 40.887911 -42.884065 
L 40.881566 -42.82561 
L 40.876308 -42.538868 
L 40.871951 -42.913746 
L 40.86834 -43.320511 
L 40.865349 -43.62659 
L 40.86287 -43.379322 
L 40.860815 -43.446523 
L 40.859113 -42.838863 
L 40.857703 -42.750962 
z
" style="stroke: #0000ff; stroke-opacity: 0.2"/>
    </defs>
    <g clip-path="url(#pd7e179027f)">
     <use xlink:href="#m30db4d5375" x="0" y="134.806076" style="fill: #0000ff; fill-opacity: 0.2; stroke: #0000ff; stroke-opacity: 0.2"/>
    </g>
   </g>
   <g id="FillBetweenPolyCollection_6">
    <defs>
     <path id="medd038232c" d="M 40.857703 -40.030292 
L 40.857703 -39.244037 
L 40.859113 -39.277448 
L 40.860815 -38.889359 
L 40.86287 -39.285751 
L 40.865349 -39.225742 
L 40.86834 -39.230703 
L 40.871951 -39.264261 
L 40.876308 -39.280402 
L 40.881566 -39.239195 
L 40.887911 -39.351733 
L 40.895568 -39.259178 
L 40.904809 -39.330308 
L 40.915961 -39.004715 
L 40.929419 -39.191905 
L 40.94566 -39.001275 
L 40.965259 -39.028231 
L 40.988911 -38.862879 
L 41.017455 -38.956431 
L 41.051901 -39.33604 
L 41.09347 -38.95094 
L 41.143636 -38.793737 
L 41.204175 -38.779507 
L 41.277234 -39.31987 
L 41.3654 -39.219558 
L 41.471799 -39.018732 
L 41.6002 -39.229351 
L 41.755153 -39.290344 
L 41.94215 -39.376016 
L 42.167816 -38.855307 
L 42.440148 -39.376995 
L 42.768797 -38.506648 
L 43.165408 -39.278802 
L 43.644035 -39.274747 
L 44.221638 -38.804074 
L 44.918686 -39.318313 
L 45.759878 -38.631655 
L 46.775022 -39.321818 
L 48.000091 -39.284621 
L 49.478494 -39.113677 
L 51.262621 -39.409362 
L 53.415692 -39.239732 
L 56.014003 -39.041716 
L 59.149625 -39.106817 
L 62.93367 -38.850206 
L 67.500228 -39.270941 
L 73.011117 -38.582303 
L 79.661617 -38.926364 
L 87.687391 -39.295206 
L 97.372836 -39.283985 
L 109.061161 -38.739666 
L 109.061161 -40.572056 
L 109.061161 -40.572056 
L 97.372836 -40.183822 
L 87.687391 -40.05885 
L 79.661617 -40.669076 
L 73.011117 -41.370915 
L 67.500228 -39.971804 
L 62.93367 -40.801692 
L 59.149625 -40.61629 
L 56.014003 -40.515886 
L 53.415692 -40.531483 
L 51.262621 -40.280979 
L 49.478494 -40.689699 
L 48.000091 -40.117925 
L 46.775022 -40.377429 
L 45.759878 -41.020473 
L 44.918686 -40.120565 
L 44.221638 -41.704553 
L 43.644035 -39.967706 
L 43.165408 -40.143315 
L 42.768797 -40.676348 
L 42.440148 -40.300392 
L 42.167816 -40.443236 
L 41.94215 -40.314118 
L 41.755153 -40.104224 
L 41.6002 -40.594362 
L 41.471799 -40.408823 
L 41.3654 -40.221017 
L 41.277234 -40.142251 
L 41.204175 -40.77708 
L 41.143636 -41.048224 
L 41.09347 -40.875962 
L 41.051901 -40.210991 
L 41.017455 -40.750703 
L 40.988911 -40.725183 
L 40.965259 -40.678576 
L 40.94566 -40.556675 
L 40.929419 -40.323714 
L 40.915961 -40.589649 
L 40.904809 -40.496562 
L 40.895568 -40.324893 
L 40.887911 -40.453826 
L 40.881566 -40.060176 
L 40.876308 -40.144537 
L 40.871951 -40.10551 
L 40.86834 -39.981581 
L 40.865349 -40.052771 
L 40.86287 -40.130958 
L 40.860815 -40.662245 
L 40.859113 -39.909341 
L 40.857703 -40.030292 
z
" style="stroke: #000000; stroke-opacity: 0.2"/>
    </defs>
    <g clip-path="url(#pd7e179027f)">
     <use xlink:href="#medd038232c" x="0" y="134.806076" style="fill-opacity: 0.2; stroke: #000000; stroke-opacity: 0.2"/>
    </g>
   </g>
   <g id="matplotlib.axis_5">
    <g id="xtick_7">
     <g id="line2d_31">
      <g>
       <use xlink:href="#m68f8523727" x="40.850882" y="109.036981" style="stroke: #000000; stroke-width: 0.8"/>
      </g>
     </g>
     <g id="text_18">
      <!-- $\mathdefault{0}$ -->
      <g transform="translate(38.73379 121.571783) scale(0.08 -0.08)">
       <use xlink:href="#CMR17-30" transform="scale(0.996264)"/>
      </g>
     </g>
    </g>
    <g id="xtick_8">
     <g id="line2d_32">
      <g>
       <use xlink:href="#m68f8523727" x="74.956021" y="109.036981" style="stroke: #000000; stroke-width: 0.8"/>
      </g>
     </g>
     <g id="text_19">
      <!-- $\mathdefault{5}$ -->
      <g transform="translate(72.83893 121.571783) scale(0.08 -0.08)">
       <defs>
        <path id="CMR17-35" d="M 730 3750 
C 794 3724 1056 3641 1325 3641 
C 1920 3641 2246 3961 2432 4140 
C 2432 4191 2432 4224 2394 4224 
C 2387 4224 2374 4224 2323 4198 
C 2099 4102 1837 4032 1517 4032 
C 1325 4032 1037 4055 723 4191 
C 653 4224 640 4224 634 4224 
C 602 4224 595 4217 595 4090 
L 595 2231 
C 595 2113 595 2080 659 2080 
C 691 2080 704 2093 736 2139 
C 941 2435 1222 2560 1542 2560 
C 1766 2560 2246 2415 2246 1293 
C 2246 1087 2246 716 2054 422 
C 1894 159 1645 25 1370 25 
C 947 25 518 319 403 812 
C 429 806 480 793 506 793 
C 589 793 749 838 749 1036 
C 749 1209 627 1280 506 1280 
C 358 1280 262 1190 262 1011 
C 262 454 704 -128 1382 -128 
C 2042 -128 2669 441 2669 1267 
C 2669 2054 2170 2662 1549 2662 
C 1222 2662 947 2540 730 2304 
L 730 3750 
z
" transform="scale(0.015625)"/>
       </defs>
       <use xlink:href="#CMR17-35" transform="scale(0.996264)"/>
      </g>
     </g>
    </g>
    <g id="xtick_9">
     <g id="line2d_33">
      <g>
       <use xlink:href="#m68f8523727" x="109.061161" y="109.036981" style="stroke: #000000; stroke-width: 0.8"/>
      </g>
     </g>
     <g id="text_20">
      <!-- $\mathdefault{10}$ -->
      <g transform="translate(104.826978 121.571783) scale(0.08 -0.08)">
       <use xlink:href="#CMR17-31" transform="scale(0.996264)"/>
       <use xlink:href="#CMR17-30" transform="translate(45.690477 0) scale(0.996264)"/>
      </g>
     </g>
    </g>
    <g id="text_21">
     <!-- $\sigma_b$ -->
     <g transform="translate(70.902844 129.656331) scale(0.08 -0.08)">
      <defs>
       <path id="CMMI12-1b" d="M 3251 2406 
C 3334 2406 3546 2406 3546 2611 
C 3546 2752 3424 2752 3309 2752 
L 1894 2752 
C 934 2752 243 1685 243 932 
C 243 389 595 -64 1171 -64 
C 1926 -64 2752 746 2752 1704 
C 2752 1953 2694 2195 2541 2406 
L 3251 2406 
z
M 1178 64 
C 851 64 614 312 614 753 
C 614 1136 845 2406 1786 2406 
C 2061 2406 2368 2272 2368 1780 
C 2368 1557 2266 1021 2042 651 
C 1811 274 1466 64 1178 64 
z
" transform="scale(0.015625)"/>
       <path id="CMMI12-62" d="M 1478 4255 
C 1485 4281 1498 4319 1498 4351 
C 1498 4416 1434 4416 1421 4416 
C 1414 4416 1184 4396 1069 4383 
C 960 4377 864 4364 749 4358 
C 595 4345 550 4339 550 4223 
C 550 4159 614 4159 678 4159 
C 1005 4159 1005 4103 1005 4040 
C 1005 3995 954 3812 928 3699 
L 774 3093 
C 710 2841 346 1392 320 1277 
C 288 1117 288 1008 288 925 
C 288 274 653 -64 1069 -64 
C 1811 -64 2579 887 2579 1813 
C 2579 2400 2246 2816 1766 2816 
C 1434 2816 1133 2541 1011 2413 
L 1478 4255 
z
M 1075 64 
C 870 64 646 217 646 715 
C 646 925 666 1047 781 1494 
C 800 1577 902 1985 928 2068 
C 941 2119 1318 2687 1754 2687 
C 2035 2687 2163 2407 2163 2075 
C 2163 1768 1984 1047 1824 715 
C 1664 370 1370 64 1075 64 
z
" transform="scale(0.015625)"/>
      </defs>
      <use xlink:href="#CMMI12-1b" transform="scale(0.996264)"/>
      <use xlink:href="#CMMI12-62" transform="translate(55.445461 -14.943915) scale(0.697382)"/>
     </g>
    </g>
   </g>
   <g id="matplotlib.axis_6">
    <g id="ytick_7">
     <g id="line2d_34">
      <g>
       <use xlink:href="#mcf2a59bfe1" x="37.44753" y="109.036981" style="stroke: #000000; stroke-width: 0.8"/>
      </g>
     </g>
     <g id="text_22">
      <!-- $10^{-2}$ -->
      <g transform="translate(12.570112 111.804382) scale(0.08 -0.08)">
       <use xlink:href="#CMR17-31" transform="scale(0.996264)"/>
       <use xlink:href="#CMR17-30" transform="translate(45.690477 0) scale(0.996264)"/>
       <use xlink:href="#CMSY10-0" transform="translate(91.380954 36.153639) scale(0.697382)"/>
       <use xlink:href="#CMR17-32" transform="translate(145.621947 36.153639) scale(0.697382)"/>
      </g>
     </g>
    </g>
    <g id="ytick_8">
     <g id="line2d_35">
      <g>
       <use xlink:href="#mcf2a59bfe1" x="37.44753" y="91.087282" style="stroke: #000000; stroke-width: 0.8"/>
      </g>
     </g>
     <g id="text_23">
      <!-- $10^{-1}$ -->
      <g transform="translate(12.570112 93.854683) scale(0.08 -0.08)">
       <use xlink:href="#CMR17-31" transform="scale(0.996264)"/>
       <use xlink:href="#CMR17-30" transform="translate(45.690477 0) scale(0.996264)"/>
       <use xlink:href="#CMSY10-0" transform="translate(91.380954 36.153639) scale(0.697382)"/>
       <use xlink:href="#CMR17-31" transform="translate(145.621947 36.153639) scale(0.697382)"/>
      </g>
     </g>
    </g>
    <g id="ytick_9">
     <g id="line2d_36">
      <g>
       <use xlink:href="#mcf2a59bfe1" x="37.44753" y="73.137582" style="stroke: #000000; stroke-width: 0.8"/>
      </g>
     </g>
     <g id="text_24">
      <!-- $10^{0}$ -->
      <g transform="translate(18.326252 75.904983) scale(0.08 -0.08)">
       <use xlink:href="#CMR17-31" transform="scale(0.996264)"/>
       <use xlink:href="#CMR17-30" transform="translate(45.690477 0) scale(0.996264)"/>
       <use xlink:href="#CMR17-30" transform="translate(91.380954 36.153639) scale(0.697382)"/>
      </g>
     </g>
    </g>
    <g id="text_25">
     <!-- Time ($s$) -->
     <g transform="translate(9.577584 107.394416) rotate(-90) scale(0.08 -0.08)">
      <use xlink:href="#CMR17-54" transform="scale(0.996264)"/>
      <use xlink:href="#CMR17-69" transform="translate(66.509881 0) scale(0.996264)"/>
      <use xlink:href="#CMR17-6d" transform="translate(91.380939 0) scale(0.996264)"/>
      <use xlink:href="#CMR17-65" transform="translate(168.300529 0) scale(0.996264)"/>
      <use xlink:href="#CMR17-28" transform="translate(238.862156 0) scale(0.996264)"/>
      <use xlink:href="#CMMI12-73" transform="translate(274.142924 0) scale(0.996264)"/>
      <use xlink:href="#CMR17-29" transform="translate(320.092971 0) scale(0.996264)"/>
     </g>
    </g>
   </g>
   <g id="line2d_37">
    <path d="M 40.857703 92.751017 
L 40.859113 92.643846 
L 40.860815 91.900509 
L 40.86287 92.117662 
L 40.865349 91.850981 
L 40.86834 92.158394 
L 40.871951 92.704809 
L 40.876308 93.014178 
L 40.881566 92.947234 
L 40.887911 92.752661 
L 40.895568 92.799929 
L 40.904809 92.698788 
L 40.915961 92.87257 
L 40.929419 92.055879 
L 40.94566 91.736484 
L 40.965259 91.842882 
L 40.988911 91.963165 
L 41.017455 92.155608 
L 41.051901 91.970081 
L 41.09347 91.605845 
L 41.143636 91.801329 
L 41.204175 91.794004 
L 41.277234 91.833658 
L 41.3654 91.974336 
L 41.471799 91.961227 
L 41.6002 92.269802 
L 41.755153 92.390875 
L 41.94215 92.682888 
L 42.167816 92.506911 
L 42.440148 92.296723 
L 42.768797 91.991876 
L 43.165408 91.748329 
L 43.644035 91.729571 
L 44.221638 91.323084 
L 44.918686 91.336511 
L 45.759878 91.193347 
L 46.775022 91.337428 
L 48.000091 91.289782 
L 49.478494 91.336255 
L 51.262621 91.369435 
L 53.415692 91.243875 
L 56.014003 91.686775 
L 59.149625 91.849009 
L 62.93367 91.877435 
L 67.500228 92.047883 
L 73.011117 91.950775 
L 79.661617 91.955927 
L 87.687391 91.823431 
L 97.372836 92.043406 
L 109.061161 91.796888 
" clip-path="url(#pd7e179027f)" style="fill: none; stroke: #0000ff; stroke-width: 1.5; stroke-linecap: square"/>
   </g>
   <g id="line2d_38">
    <path d="M 40.857703 95.159003 
L 40.859113 95.206281 
L 40.860815 94.979983 
L 40.86287 95.086273 
L 40.865349 95.155857 
L 40.86834 95.190897 
L 40.871951 95.109849 
L 40.876308 95.081639 
L 40.881566 95.145588 
L 40.887911 94.883837 
L 40.895568 94.995843 
L 40.904809 94.870852 
L 40.915961 94.968684 
L 40.929419 95.027744 
L 40.94566 94.988373 
L 40.965259 94.909081 
L 40.988911 94.956565 
L 41.017455 94.901 
L 41.051901 95.020292 
L 41.09347 94.833355 
L 41.143636 94.803877 
L 41.204175 94.963973 
L 41.277234 95.064176 
L 41.3654 95.069718 
L 41.471799 95.061355 
L 41.6002 94.86438 
L 41.755153 95.098176 
L 41.94215 94.946906 
L 42.167816 95.116442 
L 42.440148 94.953719 
L 42.768797 95.139335 
L 43.165408 95.08304 
L 43.644035 95.177153 
L 44.221638 94.417635 
L 44.918686 95.076321 
L 45.759878 94.888865 
L 46.775022 94.938598 
L 48.000091 95.093674 
L 49.478494 94.864628 
L 51.262621 94.94873 
L 53.415692 94.893743 
L 56.014003 94.992481 
L 59.149625 94.908044 
L 62.93367 94.91922 
L 67.500228 95.17683 
L 73.011117 94.705433 
L 79.661617 94.959759 
L 87.687391 95.119702 
L 97.372836 95.059196 
L 109.061161 95.096499 
" clip-path="url(#pd7e179027f)" style="fill: none; stroke: #000000; stroke-width: 1.5; stroke-linecap: square"/>
   </g>
   <g id="line2d_39">
    <path d="M 40.857703 94.750312 
L 40.859113 94.150168 
L 40.860815 92.973437 
L 40.86287 93.701398 
L 40.865349 93.593097 
L 40.86834 93.810961 
L 40.871951 94.627004 
L 40.876308 94.875964 
L 40.881566 94.750104 
L 40.887911 95.468776 
L 40.895568 95.06947 
L 40.904809 94.384274 
L 40.915961 94.876176 
L 40.929419 93.922541 
L 40.94566 92.727691 
L 40.965259 92.973721 
L 40.988911 93.023906 
L 41.017455 93.276988 
L 41.051901 94.093441 
L 41.09347 92.681196 
L 41.143636 93.226644 
L 41.204175 93.277259 
L 41.277234 93.811357 
L 41.3654 93.277284 
L 41.471799 93.174729 
L 41.6002 93.381032 
L 41.755153 93.756929 
L 41.94215 93.867706 
L 42.167816 94.1497 
L 42.440148 93.486685 
L 42.768797 93.486583 
L 43.165408 93.38158 
L 43.644035 92.874777 
L 44.221638 92.49206 
L 44.918686 92.491904 
L 45.759878 92.399801 
L 46.775022 93.124556 
L 48.000091 92.634114 
L 49.478494 92.973342 
L 51.262621 92.399141 
L 53.415692 92.681492 
L 56.014003 93.540218 
L 59.149625 93.226522 
L 62.93367 93.381181 
L 67.500228 93.073385 
L 73.011117 93.073625 
L 79.661617 93.540549 
L 87.687391 92.915558 
L 97.372836 93.276939 
L 109.061161 92.777836 
" clip-path="url(#pd7e179027f)" style="fill: none; stroke-dasharray: 5.55,2.4; stroke-dashoffset: 0; stroke: #0000ff; stroke-width: 1.5"/>
   </g>
   <g id="line2d_40">
    <path d="M 40.857703 91.610796 
L 40.859113 90.970721 
L 40.860815 90.596022 
L 40.86287 90.970575 
L 40.865349 90.894377 
L 40.86834 90.970318 
L 40.871951 90.893942 
L 40.876308 91.445321 
L 40.881566 90.743648 
L 40.887911 90.894124 
L 40.895568 91.405182 
L 40.904809 91.324351 
L 40.915961 91.402318 
L 40.929419 90.743221 
L 40.94566 90.669327 
L 40.965259 90.970263 
L 40.988911 90.894124 
L 41.017455 91.047728 
L 41.051901 89.223269 
L 41.09347 89.451578 
L 41.143636 89.35697 
L 41.204175 90.629705 
L 41.277234 90.818397 
L 41.3654 90.52302 
L 41.471799 90.669327 
L 41.6002 91.204457 
L 41.755153 91.12554 
L 41.94215 91.445632 
L 42.167816 91.047598 
L 42.440148 91.364344 
L 42.768797 90.743506 
L 43.165408 88.575362 
L 43.644035 91.047543 
L 44.221638 90.099459 
L 44.918686 90.238394 
L 45.759878 89.829533 
L 46.775022 90.237977 
L 48.000091 90.202938 
L 49.478494 90.238127 
L 51.262621 90.168402 
L 53.415692 87.873972 
L 56.014003 90.450849 
L 59.149625 90.595656 
L 62.93367 90.523037 
L 67.500228 90.441245 
L 73.011117 90.595638 
L 79.661617 90.894069 
L 87.687391 90.970611 
L 97.372836 90.743452 
L 109.061161 90.595813 
" clip-path="url(#pd7e179027f)" style="fill: none; stroke-dasharray: 1.5,2.475; stroke-dashoffset: 0; stroke: #0000ff; stroke-width: 1.5"/>
   </g>
   <g id="line2d_41">
    <path d="M 40.857703 95.536957 
L 40.859113 95.537351 
L 40.860815 95.469428 
L 40.86287 95.60388 
L 40.865349 95.606336 
L 40.86834 95.53722 
L 40.871951 95.536693 
L 40.876308 95.607331 
L 40.881566 95.537088 
L 40.887911 95.536562 
L 40.895568 95.535904 
L 40.904809 95.536726 
L 40.915961 95.537055 
L 40.929419 95.536562 
L 40.94566 95.607099 
L 40.965259 95.607365 
L 40.988911 95.536924 
L 41.017455 95.536924 
L 41.051901 95.469168 
L 41.09347 95.606834 
L 41.143636 95.536957 
L 41.204175 95.469233 
L 41.277234 95.606734 
L 41.3654 95.536529 
L 41.471799 95.606767 
L 41.6002 95.606966 
L 41.755153 95.537055 
L 41.94215 95.536693 
L 42.167816 95.53699 
L 42.440148 95.469428 
L 42.768797 95.53699 
L 43.165408 95.536792 
L 43.644035 95.536496 
L 44.221638 95.539325 
L 44.918686 95.536924 
L 45.759878 95.537022 
L 46.775022 95.536693 
L 48.000091 95.537351 
L 49.478494 95.537121 
L 51.262621 95.469363 
L 53.415692 95.606999 
L 56.014003 95.606767 
L 59.149625 95.537022 
L 62.93367 95.536332 
L 67.500228 95.607464 
L 73.011117 95.607232 
L 79.661617 95.607066 
L 87.687391 95.469396 
L 97.372836 95.536365 
L 109.061161 95.578047 
" clip-path="url(#pd7e179027f)" style="fill: none; stroke-dasharray: 5.55,2.4; stroke-dashoffset: 0; stroke: #000000; stroke-width: 1.5"/>
   </g>
   <g id="line2d_42">
    <path d="M 40.857703 94.266468 
L 40.859113 94.504666 
L 40.860815 91.694025 
L 40.86287 94.266328 
L 40.865349 94.266803 
L 40.86834 94.504349 
L 40.871951 94.266552 
L 40.876308 94.266496 
L 40.881566 94.208864 
L 40.887911 93.381456 
L 40.895568 93.486432 
L 40.904809 93.51739 
L 40.915961 92.03896 
L 40.929419 93.593353 
L 40.94566 92.127659 
L 40.965259 92.127638 
L 40.988911 92.038834 
L 41.017455 91.650831 
L 41.051901 94.266636 
L 41.09347 91.610637 
L 41.143636 91.321727 
L 41.204175 91.125764 
L 41.277234 94.445052 
L 41.3654 93.861628 
L 41.471799 92.423856 
L 41.6002 92.586189 
L 41.755153 94.325852 
L 41.94215 94.266189 
L 42.167816 91.993003 
L 42.440148 94.035442 
L 42.768797 90.894649 
L 43.165408 94.326528 
L 43.644035 94.384274 
L 44.221638 90.818271 
L 44.918686 94.326641 
L 45.759878 90.523123 
L 46.775022 93.380483 
L 48.000091 94.197222 
L 49.478494 91.951467 
L 51.262621 94.209502 
L 53.415692 92.77772 
L 56.014003 92.30773 
L 59.149625 92.127404 
L 62.93367 91.736673 
L 67.500228 94.326444 
L 73.011117 90.693639 
L 79.661617 91.610458 
L 87.687391 94.093715 
L 97.372836 94.325993 
L 109.061161 91.445282 
" clip-path="url(#pd7e179027f)" style="fill: none; stroke-dasharray: 1.5,2.475; stroke-dashoffset: 0; stroke: #000000; stroke-width: 1.5"/>
   </g>
   <g id="patch_15">
    <path d="M 37.44753 109.036981 
L 37.44753 73.137582 
" style="fill: none; stroke: #000000; stroke-width: 0.8; stroke-linejoin: miter; stroke-linecap: square"/>
   </g>
   <g id="patch_16">
    <path d="M 112.471334 109.036981 
L 112.471334 73.137582 
" style="fill: none; stroke: #000000; stroke-width: 0.8; stroke-linejoin: miter; stroke-linecap: square"/>
   </g>
   <g id="patch_17">
    <path d="M 37.44753 109.036981 
L 112.471334 109.036981 
" style="fill: none; stroke: #000000; stroke-width: 0.8; stroke-linejoin: miter; stroke-linecap: square"/>
   </g>
   <g id="patch_18">
    <path d="M 37.44753 73.137582 
L 112.471334 73.137582 
" style="fill: none; stroke: #000000; stroke-width: 0.8; stroke-linejoin: miter; stroke-linecap: square"/>
   </g>
   <g id="text_26">
    <!-- $\mathbf{c)}$ -->
    <g transform="translate(26.063768 67.016623) scale(0.08 -0.08)">
     <defs>
      <path id="CMBX12-63" d="M 2995 724 
C 2995 801 2925 801 2861 801 
C 2758 801 2752 795 2720 718 
C 2675 596 2502 166 1914 166 
C 1011 166 1011 1141 1011 1430 
C 1011 1808 1018 2649 1856 2649 
C 1901 2649 2278 2636 2278 2604 
C 2278 2598 2272 2591 2259 2585 
C 2240 2566 2157 2469 2157 2309 
C 2157 2039 2374 1930 2534 1930 
C 2669 1930 2912 2014 2912 2315 
C 2912 2841 2176 2880 1830 2880 
C 691 2880 243 2136 243 1398 
C 243 525 851 -64 1792 -64 
C 2797 -64 2995 679 2995 724 
z
" transform="scale(0.015625)"/>
     </defs>
     <use xlink:href="#CMBX12-63" transform="scale(0.996264)"/>
     <use xlink:href="#CMR17-29" transform="translate(49.8132 0) scale(0.996264)"/>
    </g>
   </g>
  </g>
  <g id="axes_4">
   <g id="patch_19">
    <path d="M 138.729665 109.036981 
L 213.753469 109.036981 
L 213.753469 73.137582 
L 138.729665 73.137582 
z
" style="fill: #ffffff"/>
   </g>
   <g id="FillBetweenPolyCollection_7">
    <defs>
     <path id="md10381ff02" d="M 142.139838 -43.110879 
L 142.139838 -41.619686 
L 142.141248 -41.115226 
L 142.142951 -40.978173 
L 142.145005 -41.075907 
L 142.147484 -40.950844 
L 142.150476 -40.928265 
L 142.154086 -41.187698 
L 142.158443 -41.424536 
L 142.163701 -41.742048 
L 142.170046 -41.740712 
L 142.177703 -41.215174 
L 142.186944 -41.271365 
L 142.198096 -41.251888 
L 142.211554 -41.33948 
L 142.227795 -42.195452 
L 142.247394 -41.992479 
L 142.271047 -42.162915 
L 142.29959 -42.041764 
L 142.334036 -41.956883 
L 142.375605 -41.692846 
L 142.425771 -41.305016 
L 142.48631 -41.315527 
L 142.559369 -41.392443 
L 142.647535 -41.276692 
L 142.753934 -41.537253 
L 142.882335 -41.784968 
L 143.037288 -41.675261 
L 143.224285 -41.722091 
L 143.449951 -41.864029 
L 143.722284 -41.649153 
L 144.050932 -41.987412 
L 144.447543 -41.769668 
L 144.92617 -41.753622 
L 145.503773 -42.136882 
L 146.200821 -42.388253 
L 147.042013 -42.765378 
L 148.057157 -42.622144 
L 149.282226 -42.614943 
L 150.76063 -42.860996 
L 152.544756 -42.91347 
L 154.697828 -42.702228 
L 157.296138 -42.754093 
L 160.43176 -42.751614 
L 164.215805 -42.540312 
L 168.782363 -42.814021 
L 174.293252 -42.83051 
L 180.943752 -42.537095 
L 188.969526 -42.517003 
L 198.654972 -42.639128 
L 210.343296 -42.764938 
L 210.343296 -43.692303 
L 210.343296 -43.692303 
L 198.654972 -43.763455 
L 188.969526 -43.557002 
L 180.943752 -44.089682 
L 174.293252 -43.790654 
L 168.782363 -43.746324 
L 164.215805 -43.61579 
L 160.43176 -43.597292 
L 157.296138 -43.865485 
L 154.697828 -43.735001 
L 152.544756 -43.874348 
L 150.76063 -43.8059 
L 149.282226 -43.862333 
L 148.057157 -43.673507 
L 147.042013 -43.797343 
L 146.200821 -43.490999 
L 145.503773 -43.396297 
L 144.92617 -42.988836 
L 144.447543 -43.010281 
L 144.050932 -43.142638 
L 143.722284 -43.109364 
L 143.449951 -42.892711 
L 143.224285 -42.664161 
L 143.037288 -43.005349 
L 142.882335 -42.788092 
L 142.753934 -42.577348 
L 142.647535 -42.536369 
L 142.559369 -42.464293 
L 142.48631 -42.479024 
L 142.425771 -42.759187 
L 142.375605 -42.926518 
L 142.334036 -43.056933 
L 142.29959 -43.225921 
L 142.271047 -43.090413 
L 142.247394 -43.205166 
L 142.227795 -43.340352 
L 142.211554 -42.62605 
L 142.198096 -42.482077 
L 142.186944 -42.3057 
L 142.177703 -42.687677 
L 142.170046 -43.36805 
L 142.163701 -42.98986 
L 142.158443 -42.706557 
L 142.154086 -42.480435 
L 142.150476 -42.648825 
L 142.147484 -42.445878 
L 142.145005 -42.397661 
L 142.142951 -42.395266 
L 142.141248 -42.568353 
L 142.139838 -43.110879 
z
" style="stroke: #0000ff; stroke-opacity: 0.2"/>
    </defs>
    <g clip-path="url(#p26c4bc391f)">
     <use xlink:href="#md10381ff02" x="0" y="134.806076" style="fill: #0000ff; fill-opacity: 0.2; stroke: #0000ff; stroke-opacity: 0.2"/>
    </g>
   </g>
   <g id="FillBetweenPolyCollection_8">
    <defs>
     <path id="m4eb8101f33" d="M 142.139838 -39.181798 
L 142.139838 -38.569882 
L 142.141248 -38.492552 
L 142.142951 -38.481544 
L 142.145005 -38.539737 
L 142.147484 -38.506717 
L 142.150476 -38.558518 
L 142.154086 -38.116825 
L 142.158443 -38.547514 
L 142.163701 -38.130076 
L 142.170046 -38.508102 
L 142.177703 -37.76543 
L 142.186944 -38.517723 
L 142.198096 -38.530703 
L 142.211554 -38.393556 
L 142.227795 -38.570027 
L 142.247394 -38.537251 
L 142.271047 -38.523865 
L 142.29959 -38.484409 
L 142.334036 -38.042286 
L 142.375605 -38.543688 
L 142.425771 -37.849212 
L 142.48631 -38.575012 
L 142.559369 -38.141887 
L 142.647535 -38.482809 
L 142.753934 -37.867578 
L 142.882335 -37.965639 
L 143.037288 -38.572025 
L 143.224285 -38.55756 
L 143.449951 -38.484214 
L 143.722284 -38.547286 
L 144.050932 -38.545467 
L 144.447543 -38.536601 
L 144.92617 -37.640253 
L 145.503773 -38.208254 
L 146.200821 -37.964506 
L 147.042013 -38.31557 
L 148.057157 -38.129113 
L 149.282226 -38.246555 
L 150.76063 -38.094457 
L 152.544756 -38.314095 
L 154.697828 -38.377026 
L 157.296138 -38.468026 
L 160.43176 -38.554884 
L 164.215805 -38.549398 
L 168.782363 -37.967422 
L 174.293252 -38.184159 
L 180.943752 -38.552431 
L 188.969526 -37.915582 
L 198.654972 -38.165727 
L 210.343296 -38.406553 
L 210.343296 -39.239114 
L 210.343296 -39.239114 
L 198.654972 -40.188543 
L 188.969526 -39.929 
L 180.943752 -39.096259 
L 174.293252 -39.70282 
L 168.782363 -40.144606 
L 164.215805 -39.094756 
L 160.43176 -38.925501 
L 157.296138 -39.412049 
L 154.697828 -39.666527 
L 152.544756 -39.73474 
L 150.76063 -40.257206 
L 149.282226 -39.807574 
L 148.057157 -39.892175 
L 147.042013 -39.523698 
L 146.200821 -40.120001 
L 145.503773 -39.551845 
L 144.92617 -40.371003 
L 144.447543 -38.905575 
L 144.050932 -38.975473 
L 143.722284 -39.088976 
L 143.449951 -38.969055 
L 143.224285 -39.021501 
L 143.037288 -38.987714 
L 142.882335 -39.95204 
L 142.753934 -39.722571 
L 142.647535 -39.036931 
L 142.559369 -39.526844 
L 142.48631 -38.98955 
L 142.425771 -39.982333 
L 142.375605 -38.895762 
L 142.334036 -39.953215 
L 142.29959 -39.137329 
L 142.271047 -38.982494 
L 142.247394 -38.934767 
L 142.227795 -38.85578 
L 142.211554 -39.219543 
L 142.198096 -39.141435 
L 142.186944 -39.050526 
L 142.177703 -40.074194 
L 142.170046 -38.963379 
L 142.163701 -39.769679 
L 142.158443 -39.050328 
L 142.154086 -39.546312 
L 142.150476 -38.910693 
L 142.147484 -39.084846 
L 142.145005 -38.92369 
L 142.142951 -39.034691 
L 142.141248 -38.943915 
L 142.139838 -39.181798 
z
" style="stroke: #000000; stroke-opacity: 0.2"/>
    </defs>
    <g clip-path="url(#p26c4bc391f)">
     <use xlink:href="#m4eb8101f33" x="0" y="134.806076" style="fill-opacity: 0.2; stroke: #000000; stroke-opacity: 0.2"/>
    </g>
   </g>
   <g id="matplotlib.axis_7">
    <g id="xtick_10">
     <g id="line2d_43">
      <g>
       <use xlink:href="#m68f8523727" x="142.133017" y="109.036981" style="stroke: #000000; stroke-width: 0.8"/>
      </g>
     </g>
     <g id="text_27">
      <!-- $\mathdefault{0}$ -->
      <g transform="translate(140.015926 121.571783) scale(0.08 -0.08)">
       <use xlink:href="#CMR17-30" transform="scale(0.996264)"/>
      </g>
     </g>
    </g>
    <g id="xtick_11">
     <g id="line2d_44">
      <g>
       <use xlink:href="#m68f8523727" x="176.238156" y="109.036981" style="stroke: #000000; stroke-width: 0.8"/>
      </g>
     </g>
     <g id="text_28">
      <!-- $\mathdefault{5}$ -->
      <g transform="translate(174.121065 121.571783) scale(0.08 -0.08)">
       <use xlink:href="#CMR17-35" transform="scale(0.996264)"/>
      </g>
     </g>
    </g>
    <g id="xtick_12">
     <g id="line2d_45">
      <g>
       <use xlink:href="#m68f8523727" x="210.343296" y="109.036981" style="stroke: #000000; stroke-width: 0.8"/>
      </g>
     </g>
     <g id="text_29">
      <!-- $\mathdefault{10}$ -->
      <g transform="translate(206.109113 121.571783) scale(0.08 -0.08)">
       <use xlink:href="#CMR17-31" transform="scale(0.996264)"/>
       <use xlink:href="#CMR17-30" transform="translate(45.690477 0) scale(0.996264)"/>
      </g>
     </g>
    </g>
    <g id="text_30">
     <!-- $\sigma_b$ -->
     <g transform="translate(172.184979 129.656331) scale(0.08 -0.08)">
      <use xlink:href="#CMMI12-1b" transform="scale(0.996264)"/>
      <use xlink:href="#CMMI12-62" transform="translate(55.445461 -14.943915) scale(0.697382)"/>
     </g>
    </g>
   </g>
   <g id="matplotlib.axis_8">
    <g id="ytick_10">
     <g id="line2d_46">
      <g>
       <use xlink:href="#mcf2a59bfe1" x="138.729665" y="109.036981" style="stroke: #000000; stroke-width: 0.8"/>
      </g>
     </g>
     <g id="text_31">
      <!-- $10^{-2}$ -->
      <g transform="translate(113.852247 111.804382) scale(0.08 -0.08)">
       <use xlink:href="#CMR17-31" transform="scale(0.996264)"/>
       <use xlink:href="#CMR17-30" transform="translate(45.690477 0) scale(0.996264)"/>
       <use xlink:href="#CMSY10-0" transform="translate(91.380954 36.153639) scale(0.697382)"/>
       <use xlink:href="#CMR17-32" transform="translate(145.621947 36.153639) scale(0.697382)"/>
      </g>
     </g>
    </g>
    <g id="ytick_11">
     <g id="line2d_47">
      <g>
       <use xlink:href="#mcf2a59bfe1" x="138.729665" y="91.087282" style="stroke: #000000; stroke-width: 0.8"/>
      </g>
     </g>
     <g id="text_32">
      <!-- $10^{-1}$ -->
      <g transform="translate(113.852247 93.854683) scale(0.08 -0.08)">
       <use xlink:href="#CMR17-31" transform="scale(0.996264)"/>
       <use xlink:href="#CMR17-30" transform="translate(45.690477 0) scale(0.996264)"/>
       <use xlink:href="#CMSY10-0" transform="translate(91.380954 36.153639) scale(0.697382)"/>
       <use xlink:href="#CMR17-31" transform="translate(145.621947 36.153639) scale(0.697382)"/>
      </g>
     </g>
    </g>
    <g id="ytick_12">
     <g id="line2d_48">
      <g>
       <use xlink:href="#mcf2a59bfe1" x="138.729665" y="73.137582" style="stroke: #000000; stroke-width: 0.8"/>
      </g>
     </g>
     <g id="text_33">
      <!-- $10^{0}$ -->
      <g transform="translate(119.608387 75.904983) scale(0.08 -0.08)">
       <use xlink:href="#CMR17-31" transform="scale(0.996264)"/>
       <use xlink:href="#CMR17-30" transform="translate(45.690477 0) scale(0.996264)"/>
       <use xlink:href="#CMR17-30" transform="translate(91.380954 36.153639) scale(0.697382)"/>
      </g>
     </g>
    </g>
   </g>
   <g id="line2d_49">
    <path d="M 142.139838 92.405191 
L 142.141248 92.930477 
L 142.142951 93.0872 
L 142.145005 93.041312 
L 142.147484 93.07193 
L 142.150476 92.970159 
L 142.154086 92.945243 
L 142.158443 92.714205 
L 142.163701 92.415182 
L 142.170046 92.209308 
L 142.177703 92.819934 
L 142.186944 93.000401 
L 142.198096 92.914852 
L 142.211554 92.796799 
L 142.227795 92.017175 
L 142.247394 92.183696 
L 142.271047 92.165626 
L 142.29959 92.149771 
L 142.334036 92.27978 
L 142.375605 92.472015 
L 142.425771 92.740116 
L 142.48631 92.887114 
L 142.559369 92.859301 
L 142.647535 92.874129 
L 142.753934 92.731442 
L 142.882335 92.503422 
L 143.037288 92.437438 
L 143.224285 92.598728 
L 143.449951 92.410751 
L 143.722284 92.392678 
L 144.050932 92.219672 
L 144.447543 92.391448 
L 144.92617 92.410407 
L 145.503773 92.014081 
L 146.200821 91.846967 
L 147.042013 91.507652 
L 148.057157 91.64054 
L 149.282226 91.542514 
L 150.76063 91.458321 
L 152.544756 91.397372 
L 154.697828 91.570371 
L 157.296138 91.476498 
L 160.43176 91.620161 
L 164.215805 91.709493 
L 168.782363 91.511975 
L 174.293252 91.480722 
L 180.943752 91.454098 
L 188.969526 91.751743 
L 198.654972 91.584532 
L 210.343296 91.563674 
" clip-path="url(#p26c4bc391f)" style="fill: none; stroke: #0000ff; stroke-width: 1.5; stroke-linecap: square"/>
   </g>
   <g id="line2d_50">
    <path d="M 142.139838 95.924234 
L 142.141248 96.084576 
L 142.142951 96.043053 
L 142.145005 96.071999 
L 142.147484 96.004936 
L 142.150476 96.069482 
L 142.154086 95.941787 
L 142.158443 96.003102 
L 142.163701 95.813171 
L 142.170046 96.067013 
L 142.177703 95.801102 
L 142.186944 96.017401 
L 142.198096 95.964028 
L 142.211554 95.988592 
L 142.227795 96.091864 
L 142.247394 96.067534 
L 142.271047 96.049525 
L 142.29959 95.988373 
L 142.334036 95.749918 
L 142.375605 96.084363 
L 142.425771 95.817568 
L 142.48631 96.02104 
L 142.559369 95.940995 
L 142.647535 96.041284 
L 142.753934 95.955955 
L 142.882335 95.784136 
L 143.037288 96.023437 
L 143.224285 96.013095 
L 143.449951 96.075673 
L 143.722284 95.983241 
L 144.050932 96.042642 
L 144.447543 96.082805 
L 144.92617 95.681482 
L 145.503773 95.897115 
L 146.200821 95.689558 
L 147.042013 95.863062 
L 148.057157 95.745695 
L 149.282226 95.740003 
L 150.76063 95.555481 
L 152.544756 95.749341 
L 154.697828 95.757667 
L 157.296138 95.851758 
L 160.43176 96.063682 
L 164.215805 95.979231 
L 168.782363 95.6743 
L 174.293252 95.825663 
L 180.943752 95.97699 
L 188.969526 95.818962 
L 198.654972 95.563513 
L 210.343296 95.972133 
" clip-path="url(#p26c4bc391f)" style="fill: none; stroke: #000000; stroke-width: 1.5; stroke-linecap: square"/>
   </g>
   <g id="line2d_51">
    <path d="M 142.139838 94.093223 
L 142.141248 94.445395 
L 142.142951 94.810008 
L 142.145005 95.003828 
L 142.147484 94.750669 
L 142.150476 95.199882 
L 142.154086 94.626624 
L 142.158443 94.43588 
L 142.163701 93.593174 
L 142.170046 93.756799 
L 142.177703 94.875692 
L 142.186944 94.266524 
L 142.198096 93.922434 
L 142.211554 94.150333 
L 142.227795 93.329716 
L 142.247394 93.701866 
L 142.271047 93.277111 
L 142.29959 93.486508 
L 142.334036 93.486508 
L 142.375605 94.150306 
L 142.425771 93.923076 
L 142.48631 94.036311 
L 142.559369 93.922995 
L 142.647535 94.44531 
L 142.753934 94.150802 
L 142.882335 93.756772 
L 143.037288 94.208753 
L 143.224285 93.486609 
L 143.449951 93.540371 
L 143.722284 94.035659 
L 144.050932 93.277481 
L 144.447543 93.592661 
L 144.92617 93.381456 
L 145.503773 93.593225 
L 146.200821 93.023882 
L 147.042013 92.586167 
L 148.057157 92.924492 
L 149.282226 92.874824 
L 150.76063 92.399625 
L 152.544756 92.539363 
L 154.697828 92.681538 
L 157.296138 92.539587 
L 160.43176 92.399757 
L 164.215805 92.777697 
L 168.782363 92.586122 
L 174.293252 92.446214 
L 180.943752 92.492305 
L 188.969526 92.92461 
L 198.654972 92.681446 
L 210.343296 92.586167 
" clip-path="url(#p26c4bc391f)" style="fill: none; stroke-dasharray: 5.55,2.4; stroke-dashoffset: 0; stroke: #0000ff; stroke-width: 1.5"/>
   </g>
   <g id="line2d_52">
    <path d="M 142.139838 91.204136 
L 142.141248 91.610656 
L 142.142951 91.878839 
L 142.145005 91.52758 
L 142.147484 91.693885 
L 142.150476 91.364075 
L 142.154086 91.364132 
L 142.158443 91.283609 
L 142.163701 91.125876 
L 142.170046 90.770638 
L 142.177703 91.565944 
L 142.186944 91.951363 
L 142.198096 91.283781 
L 142.211554 91.44534 
L 142.227795 91.047617 
L 142.247394 91.204551 
L 142.271047 91.20423 
L 142.29959 91.047709 
L 142.334036 90.894287 
L 142.375605 91.36444 
L 142.425771 91.204589 
L 142.48631 91.984365 
L 142.559369 91.694467 
L 142.647535 91.694266 
L 142.753934 91.778722 
L 142.882335 91.445535 
L 143.037288 90.743435 
L 143.224285 91.77927 
L 143.449951 91.485002 
L 143.722284 90.970318 
L 144.050932 91.125689 
L 144.447543 91.445827 
L 144.92617 91.04758 
L 145.503773 90.743381 
L 146.200821 90.479042 
L 147.042013 90.126885 
L 148.057157 90.595848 
L 149.282226 90.523158 
L 150.76063 90.595795 
L 152.544756 90.704231 
L 154.697828 90.743737 
L 157.296138 90.523054 
L 160.43176 90.669309 
L 164.215805 90.522968 
L 168.782363 90.595638 
L 174.293252 90.308128 
L 180.943752 88.661289 
L 188.969526 90.846638 
L 198.654972 90.669468 
L 210.343296 90.74363 
" clip-path="url(#p26c4bc391f)" style="fill: none; stroke-dasharray: 1.5,2.475; stroke-dashoffset: 0; stroke: #0000ff; stroke-width: 1.5"/>
   </g>
   <g id="line2d_53">
    <path d="M 142.139838 96.259052 
L 142.141248 96.295981 
L 142.142951 96.336583 
L 142.145005 96.336145 
L 142.147484 96.259557 
L 142.150476 96.259016 
L 142.154086 96.259377 
L 142.158443 96.263022 
L 142.163701 96.185001 
L 142.170046 96.411396 
L 142.177703 96.335781 
L 142.186944 96.3364 
L 142.198096 96.25916 
L 142.211554 96.258944 
L 142.227795 96.335708 
L 142.247394 96.336473 
L 142.271047 96.336437 
L 142.29959 96.335526 
L 142.334036 96.259413 
L 142.375605 96.336218 
L 142.425771 96.258727 
L 142.48631 96.185287 
L 142.559369 96.335854 
L 142.647535 96.321546 
L 142.753934 96.335489 
L 142.882335 96.259341 
L 143.037288 96.258511 
L 143.224285 96.185144 
L 143.449951 96.317328 
L 143.722284 96.259377 
L 144.050932 96.2588 
L 144.447543 96.336619 
L 144.92617 96.25916 
L 145.503773 96.259341 
L 146.200821 96.258763 
L 147.042013 96.25916 
L 148.057157 96.336182 
L 149.282226 96.317182 
L 150.76063 96.258763 
L 152.544756 96.280443 
L 154.697828 96.185073 
L 157.296138 96.336182 
L 160.43176 96.336364 
L 164.215805 96.335745 
L 168.782363 96.25898 
L 174.293252 96.259196 
L 180.943752 96.259449 
L 188.969526 96.259521 
L 198.654972 96.336437 
L 210.343296 96.25898 
" clip-path="url(#p26c4bc391f)" style="fill: none; stroke-dasharray: 5.55,2.4; stroke-dashoffset: 0; stroke: #000000; stroke-width: 1.5"/>
   </g>
   <g id="line2d_54">
    <path d="M 142.139838 95.133919 
L 142.141248 95.265836 
L 142.142951 95.265042 
L 142.145005 95.265931 
L 142.147484 95.003828 
L 142.150476 95.296966 
L 142.154086 92.874871 
L 142.158443 95.33373 
L 142.163701 92.777166 
L 142.170046 95.265296 
L 142.177703 91.364075 
L 142.186944 95.200134 
L 142.198096 95.133794 
L 142.211554 94.208892 
L 142.227795 95.817302 
L 142.247394 95.20048 
L 142.271047 95.333186 
L 142.29959 95.133575 
L 142.334036 92.585919 
L 142.375605 95.333987 
L 142.425771 91.610239 
L 142.48631 95.265613 
L 142.559369 93.01281 
L 142.647535 95.200291 
L 142.753934 92.12768 
L 142.882335 91.864513 
L 143.037288 95.265868 
L 143.224285 95.333474 
L 143.449951 95.33341 
L 143.722284 95.265169 
L 144.050932 95.068664 
L 144.447543 95.333442 
L 144.92617 91.610776 
L 145.503773 93.508181 
L 146.200821 91.864595 
L 147.042013 93.537037 
L 148.057157 92.307926 
L 149.282226 92.727645 
L 150.76063 92.492483 
L 152.544756 93.073505 
L 154.697828 93.922862 
L 157.296138 94.326416 
L 160.43176 95.33309 
L 164.215805 95.191193 
L 168.782363 92.399031 
L 174.293252 93.174704 
L 180.943752 95.133981 
L 188.969526 91.864842 
L 198.654972 92.399295 
L 210.343296 94.384331 
" clip-path="url(#p26c4bc391f)" style="fill: none; stroke-dasharray: 1.5,2.475; stroke-dashoffset: 0; stroke: #000000; stroke-width: 1.5"/>
   </g>
   <g id="patch_20">
    <path d="M 138.729665 109.036981 
L 138.729665 73.137582 
" style="fill: none; stroke: #000000; stroke-width: 0.8; stroke-linejoin: miter; stroke-linecap: square"/>
   </g>
   <g id="patch_21">
    <path d="M 213.753469 109.036981 
L 213.753469 73.137582 
" style="fill: none; stroke: #000000; stroke-width: 0.8; stroke-linejoin: miter; stroke-linecap: square"/>
   </g>
   <g id="patch_22">
    <path d="M 138.729665 109.036981 
L 213.753469 109.036981 
" style="fill: none; stroke: #000000; stroke-width: 0.8; stroke-linejoin: miter; stroke-linecap: square"/>
   </g>
   <g id="patch_23">
    <path d="M 138.729665 73.137582 
L 213.753469 73.137582 
" style="fill: none; stroke: #000000; stroke-width: 0.8; stroke-linejoin: miter; stroke-linecap: square"/>
   </g>
   <g id="text_34">
    <!-- $\mathbf{d)}$ -->
    <g transform="translate(126.261074 67.016623) scale(0.08 -0.08)">
     <defs>
      <path id="CMBX12-64" d="M 2221 4428 
L 2221 4153 
C 2618 4153 2662 4153 2662 3896 
L 2662 2571 
C 2522 2694 2240 2880 1798 2880 
C 890 2880 243 2313 243 1408 
C 243 483 877 -64 1728 -64 
C 2080 -64 2381 57 2630 270 
L 2630 -64 
L 3770 -26 
L 3770 250 
C 3373 250 3328 250 3328 502 
L 3328 4480 
L 2221 4428 
z
M 2630 625 
C 2362 231 2035 147 1805 147 
C 1011 147 1011 968 1011 1395 
C 1011 1699 1011 2022 1152 2268 
C 1350 2630 1728 2668 1875 2668 
C 2138 2668 2419 2552 2630 2268 
L 2630 625 
z
" transform="scale(0.015625)"/>
     </defs>
     <use xlink:href="#CMBX12-64" transform="scale(0.996264)"/>
     <use xlink:href="#CMR17-29" transform="translate(62.266501 0) scale(0.996264)"/>
    </g>
   </g>
  </g>
 </g>
 <defs>
  <clipPath id="pd0f68c9f72">
   <rect x="37.44753" y="15.698543" width="75.023804" height="35.899399"/>
  </clipPath>
  <clipPath id="pcf94c54838">
   <rect x="138.729665" y="15.698543" width="75.023804" height="35.899399"/>
  </clipPath>
  <clipPath id="pd7e179027f">
   <rect x="37.44753" y="73.137582" width="75.023804" height="35.899399"/>
  </clipPath>
  <clipPath id="p26c4bc391f">
   <rect x="138.729665" y="73.137582" width="75.023804" height="35.899399"/>
  </clipPath>
 </defs>
</svg>
