<?xml version="1.0" encoding="utf-8" standalone="no"?>
<!DOCTYPE svg PUBLIC "-//W3C//DTD SVG 1.1//EN"
  "http://www.w3.org/Graphics/SVG/1.1/DTD/svg11.dtd">
<svg xmlns:xlink="http://www.w3.org/1999/xlink" width="219.11837pt" height="134.806076pt" viewBox="0 0 219.11837 134.806076" xmlns="http://www.w3.org/2000/svg" version="1.1">
 <metadata>
  <rdf:RDF xmlns:dc="http://purl.org/dc/elements/1.1/" xmlns:cc="http://creativecommons.org/ns#" xmlns:rdf="http://www.w3.org/1999/02/22-rdf-syntax-ns#">
   <cc:Work>
    <dc:type rdf:resource="http://purl.org/dc/dcmitype/StillImage"/>
    <dc:date>2025-09-20T15:44:32.607867</dc:date>
    <dc:format>image/svg+xml</dc:format>
    <dc:creator>
     <cc:Agent>
      <dc:title>Matplotlib v3.10.0, https://matplotlib.org/</dc:title>
     </cc:Agent>
    </dc:creator>
   </cc:Work>
  </rdf:RDF>
 </metadata>
 <defs>
  <style type="text/css">*{stroke-linejoin: round; stroke-linecap: butt}</style>
 </defs>
 <g id="figure_1">
  <g id="patch_1">
   <path d="M 0 134.806076 
L 219.11837 134.806076 
L 219.11837 0 
L 0 0 
z
" style="fill: #ffffff"/>
  </g>
  <g id="axes_1">
   <g id="patch_2">
    <path d="M 36.561965 51.597942 
L 111.585769 51.597942 
L 111.585769 15.698543 
L 36.561965 15.698543 
z
" style="fill: #ffffff"/>
   </g>
   <g id="FillBetweenPolyCollection_1">
    <defs>
     <path id="m40e6a4c9d9" d="M 39.972138 -112.967294 
L 39.972138 -112.924826 
L 41.364045 -112.932109 
L 42.755953 -112.923069 
L 44.14786 -112.921754 
L 45.539767 -112.941576 
L 46.931675 -112.926147 
L 48.323582 -112.928393 
L 49.715489 -112.918975 
L 51.107397 -112.928248 
L 52.499304 -112.929474 
L 53.891211 -112.917448 
L 55.283118 -112.896102 
L 56.675026 -112.877967 
L 58.066933 -112.751548 
L 59.45884 -112.560599 
L 60.850748 -112.398135 
L 62.242655 -112.125728 
L 63.634562 -112.048624 
L 65.02647 -112.016256 
L 66.418377 -112.060933 
L 67.810284 -112.029972 
L 69.202192 -111.986696 
L 70.594099 -111.896318 
L 71.986006 -111.835461 
L 73.377913 -111.786601 
L 74.769821 -111.707117 
L 76.161728 -111.654309 
L 77.553635 -111.591692 
L 78.945543 -111.545734 
L 80.33745 -111.517207 
L 81.729357 -111.522871 
L 83.121265 -111.483735 
L 84.513172 -111.477798 
L 85.905079 -111.479801 
L 87.296987 -111.446803 
L 88.688894 -111.41667 
L 90.080801 -111.42152 
L 91.472708 -111.424307 
L 92.864616 -111.420432 
L 94.256523 -111.369997 
L 95.64843 -111.391591 
L 97.040338 -111.41458 
L 98.432245 -111.440835 
L 99.824152 -111.448093 
L 101.21606 -111.417534 
L 102.607967 -111.41183 
L 103.999874 -111.428564 
L 105.391782 -111.514571 
L 106.783689 -111.39668 
L 108.175596 -111.383934 
L 108.175596 -111.595193 
L 108.175596 -111.595193 
L 106.783689 -111.598791 
L 105.391782 -111.578346 
L 103.999874 -111.624622 
L 102.607967 -111.603228 
L 101.21606 -111.615215 
L 99.824152 -111.600618 
L 98.432245 -111.617478 
L 97.040338 -111.577404 
L 95.64843 -111.55226 
L 94.256523 -111.539931 
L 92.864616 -111.568752 
L 91.472708 -111.525566 
L 90.080801 -111.546415 
L 88.688894 -111.561484 
L 87.296987 -111.540543 
L 85.905079 -111.566731 
L 84.513172 -111.556547 
L 83.121265 -111.569539 
L 81.729357 -111.595164 
L 80.33745 -111.610278 
L 78.945543 -111.644701 
L 77.553635 -111.709405 
L 76.161728 -111.75078 
L 74.769821 -111.833941 
L 73.377913 -111.877236 
L 71.986006 -111.971529 
L 70.594099 -112.049473 
L 69.202192 -112.110924 
L 67.810284 -112.133424 
L 66.418377 -112.163799 
L 65.02647 -112.326936 
L 63.634562 -112.405864 
L 62.242655 -112.502743 
L 60.850748 -112.641149 
L 59.45884 -112.866494 
L 58.066933 -112.945717 
L 56.675026 -112.963982 
L 55.283118 -112.973482 
L 53.891211 -112.967639 
L 52.499304 -112.975168 
L 51.107397 -112.967514 
L 49.715489 -112.971567 
L 48.323582 -112.974264 
L 46.931675 -112.979509 
L 45.539767 -112.965849 
L 44.14786 -112.96399 
L 42.755953 -112.96398 
L 41.364045 -112.962937 
L 39.972138 -112.967294 
z
" style="stroke: #0000ff; stroke-opacity: 0.2"/>
    </defs>
    <g clip-path="url(#paf23e1afbb)">
     <use xlink:href="#m40e6a4c9d9" x="0" y="134.806076" style="fill: #0000ff; fill-opacity: 0.2; stroke: #0000ff; stroke-opacity: 0.2"/>
    </g>
   </g>
   <g id="FillBetweenPolyCollection_2">
    <defs>
     <path id="m9f3256559d" d="M 39.972138 -113.373249 
L 39.972138 -113.315346 
L 41.364045 -113.328693 
L 42.755953 -113.321967 
L 44.14786 -113.324446 
L 45.539767 -113.343695 
L 46.931675 -113.320038 
L 48.323582 -113.328604 
L 49.715489 -113.318752 
L 51.107397 -113.332652 
L 52.499304 -113.329706 
L 53.891211 -113.313998 
L 55.283118 -113.292424 
L 56.675026 -113.279424 
L 58.066933 -113.148969 
L 59.45884 -112.961902 
L 60.850748 -112.785844 
L 62.242655 -112.50996 
L 63.634562 -112.43005 
L 65.02647 -112.39638 
L 66.418377 -112.441128 
L 67.810284 -112.421256 
L 69.202192 -112.377873 
L 70.594099 -112.310506 
L 71.986006 -112.26434 
L 73.377913 -112.236085 
L 74.769821 -112.172558 
L 76.161728 -112.13163 
L 77.553635 -112.094189 
L 78.945543 -112.063479 
L 80.33745 -112.048415 
L 81.729357 -112.064677 
L 83.121265 -112.030182 
L 84.513172 -112.034155 
L 85.905079 -112.047277 
L 87.296987 -112.040081 
L 88.688894 -112.062728 
L 90.080801 -112.093679 
L 91.472708 -112.101396 
L 92.864616 -112.126231 
L 94.256523 -112.11293 
L 95.64843 -112.147402 
L 97.040338 -112.16984 
L 98.432245 -112.167807 
L 99.824152 -112.178983 
L 101.21606 -112.179802 
L 102.607967 -112.181178 
L 103.999874 -112.175615 
L 105.391782 -112.189262 
L 106.783689 -112.170132 
L 108.175596 -112.168485 
L 108.175596 -112.329471 
L 108.175596 -112.329471 
L 106.783689 -112.313968 
L 105.391782 -112.24087 
L 103.999874 -112.2639 
L 102.607967 -112.287955 
L 101.21606 -112.232278 
L 99.824152 -112.237788 
L 98.432245 -112.245014 
L 97.040338 -112.232911 
L 95.64843 -112.208554 
L 94.256523 -112.202627 
L 92.864616 -112.188961 
L 91.472708 -112.178268 
L 90.080801 -112.165231 
L 88.688894 -112.154219 
L 87.296987 -112.129737 
L 85.905079 -112.146604 
L 84.513172 -112.123293 
L 83.121265 -112.121103 
L 81.729357 -112.136841 
L 80.33745 -112.138205 
L 78.945543 -112.159504 
L 77.553635 -112.210216 
L 76.161728 -112.231893 
L 74.769821 -112.287724 
L 73.377913 -112.309543 
L 71.986006 -112.386523 
L 70.594099 -112.454081 
L 69.202192 -112.504635 
L 67.810284 -112.521045 
L 66.418377 -112.549403 
L 65.02647 -112.718428 
L 63.634562 -112.799204 
L 62.242655 -112.893105 
L 60.850748 -113.042009 
L 59.45884 -113.270376 
L 58.066933 -113.352108 
L 56.675026 -113.362874 
L 55.283118 -113.381351 
L 53.891211 -113.367653 
L 52.499304 -113.379579 
L 51.107397 -113.372853 
L 49.715489 -113.376745 
L 48.323582 -113.377843 
L 46.931675 -113.381412 
L 45.539767 -113.378182 
L 44.14786 -113.369185 
L 42.755953 -113.371771 
L 41.364045 -113.372896 
L 39.972138 -113.373249 
z
" style="stroke: #000000; stroke-opacity: 0.2"/>
    </defs>
    <g clip-path="url(#paf23e1afbb)">
     <use xlink:href="#m9f3256559d" x="0" y="134.806076" style="fill-opacity: 0.2; stroke: #000000; stroke-opacity: 0.2"/>
    </g>
   </g>
   <g id="matplotlib.axis_1">
    <g id="xtick_1">
     <g id="line2d_1">
      <defs>
       <path id="m1a20d3d3e3" d="M 0 0 
L 0 3.5 
" style="stroke: #000000; stroke-width: 0.8"/>
      </defs>
      <g>
       <use xlink:href="#m1a20d3d3e3" x="53.61283" y="51.597942" style="stroke: #000000; stroke-width: 0.8"/>
      </g>
     </g>
    </g>
    <g id="xtick_2">
     <g id="line2d_2">
      <g>
       <use xlink:href="#m1a20d3d3e3" x="80.894213" y="51.597942" style="stroke: #000000; stroke-width: 0.8"/>
      </g>
     </g>
    </g>
    <g id="xtick_3">
     <g id="line2d_3">
      <g>
       <use xlink:href="#m1a20d3d3e3" x="108.175596" y="51.597942" style="stroke: #000000; stroke-width: 0.8"/>
      </g>
     </g>
    </g>
   </g>
   <g id="matplotlib.axis_2">
    <g id="ytick_1">
     <g id="line2d_4">
      <defs>
       <path id="m29164f69f2" d="M 0 0 
L -3.5 0 
" style="stroke: #000000; stroke-width: 0.8"/>
      </defs>
      <g>
       <use xlink:href="#m29164f69f2" x="36.561965" y="51.597942" style="stroke: #000000; stroke-width: 0.8"/>
      </g>
     </g>
     <g id="text_1">
      <!-- $10^{-1}$ -->
      <g transform="translate(11.684547 54.365343) scale(0.08 -0.08)">
       <defs>
        <path id="CMR17-31" d="M 1702 4083 
C 1702 4217 1696 4224 1606 4224 
C 1357 3927 979 3833 621 3820 
C 602 3820 570 3820 563 3808 
C 557 3795 557 3782 557 3648 
C 755 3648 1088 3686 1344 3839 
L 1344 467 
C 1344 243 1331 166 781 166 
L 589 166 
L 589 0 
C 896 6 1216 12 1523 12 
C 1830 12 2150 6 2458 0 
L 2458 166 
L 2266 166 
C 1715 166 1702 236 1702 467 
L 1702 4083 
z
" transform="scale(0.015625)"/>
        <path id="CMR17-30" d="M 2688 2038 
C 2688 2430 2682 3099 2413 3613 
C 2176 4063 1798 4224 1466 4224 
C 1158 4224 768 4082 525 3620 
C 269 3137 243 2539 243 2038 
C 243 1671 250 1112 448 623 
C 723 -39 1216 -128 1466 -128 
C 1760 -128 2208 -7 2470 604 
C 2662 1048 2688 1568 2688 2038 
z
M 1466 -26 
C 1056 -26 813 328 723 816 
C 653 1196 653 1749 653 2109 
C 653 2604 653 3015 736 3407 
C 858 3954 1216 4121 1466 4121 
C 1728 4121 2067 3947 2189 3420 
C 2272 3054 2278 2623 2278 2109 
C 2278 1691 2278 1176 2202 797 
C 2067 96 1690 -26 1466 -26 
z
" transform="scale(0.015625)"/>
        <path id="CMSY10-0" d="M 4218 1472 
C 4326 1472 4442 1472 4442 1600 
C 4442 1728 4326 1728 4218 1728 
L 755 1728 
C 646 1728 531 1728 531 1600 
C 531 1472 646 1472 755 1472 
L 4218 1472 
z
" transform="scale(0.015625)"/>
       </defs>
       <use xlink:href="#CMR17-31" transform="scale(0.996264)"/>
       <use xlink:href="#CMR17-30" transform="translate(45.690477 0) scale(0.996264)"/>
       <use xlink:href="#CMSY10-0" transform="translate(91.380954 36.153639) scale(0.697382)"/>
       <use xlink:href="#CMR17-31" transform="translate(145.621947 36.153639) scale(0.697382)"/>
      </g>
     </g>
    </g>
    <g id="ytick_2">
     <g id="line2d_5">
      <g>
       <use xlink:href="#m29164f69f2" x="36.561965" y="15.698543" style="stroke: #000000; stroke-width: 0.8"/>
      </g>
     </g>
     <g id="text_2">
      <!-- $10^{0}$ -->
      <g transform="translate(17.440687 18.465944) scale(0.08 -0.08)">
       <use xlink:href="#CMR17-31" transform="scale(0.996264)"/>
       <use xlink:href="#CMR17-30" transform="translate(45.690477 0) scale(0.996264)"/>
       <use xlink:href="#CMR17-30" transform="translate(91.380954 36.153639) scale(0.697382)"/>
      </g>
     </g>
    </g>
    <g id="text_3">
     <!-- $\mathcal{L}$ -->
     <g transform="translate(9.134802 36.560137) rotate(-90) scale(0.08 -0.08)">
      <defs>
       <path id="CMSY10-4c" d="M 1152 609 
C 1498 1149 1606 1561 1690 1902 
C 1914 2790 2157 3561 2554 4005 
C 2630 4089 2682 4147 2886 4147 
C 3328 4147 3341 3703 3341 3613 
C 3341 3497 3309 3407 3309 3375 
C 3309 3330 3347 3330 3354 3330 
C 3456 3330 3629 3401 3789 3516 
C 3904 3606 3962 3671 3962 3934 
C 3962 4281 3782 4544 3424 4544 
C 3219 4544 2656 4492 2029 3857 
C 1517 3330 1216 2172 1094 1690 
C 979 1246 928 1047 736 661 
C 691 583 525 300 435 217 
C 262 57 198 -58 198 -90 
C 198 -103 211 -128 256 -128 
C 282 -128 416 -103 582 6 
C 691 70 704 83 851 236 
C 1171 230 1395 172 1798 57 
C 2125 -32 2451 -128 2778 -128 
C 3296 -128 3821 262 4026 545 
C 4154 719 4192 879 4192 899 
C 4192 944 4154 944 4147 944 
C 4045 944 3891 873 3782 796 
C 3610 686 3597 648 3558 538 
C 3526 436 3488 384 3462 346 
C 3411 268 3405 268 3309 268 
C 3002 268 2682 365 2259 481 
C 2080 532 1728 635 1408 635 
C 1325 635 1235 628 1152 609 
z
" transform="scale(0.015625)"/>
      </defs>
      <use xlink:href="#CMSY10-4c" transform="scale(0.996264)"/>
     </g>
    </g>
   </g>
   <g id="line2d_6">
    <path d="M 39.972138 21.860002 
L 41.364045 21.858545 
L 42.755953 21.862538 
L 44.14786 21.86319 
L 45.539767 21.852359 
L 46.931675 21.853226 
L 48.323582 21.854731 
L 49.715489 21.860783 
L 51.107397 21.858183 
L 52.499304 21.853739 
L 53.891211 21.863513 
L 55.283118 21.871236 
L 56.675026 21.885043 
L 58.066933 21.957141 
L 59.45884 22.09178 
L 60.850748 22.285961 
L 62.242655 22.490702 
L 63.634562 22.57781 
L 65.02647 22.633707 
L 66.418377 22.693625 
L 67.810284 22.724293 
L 69.202192 22.757142 
L 70.594099 22.832993 
L 71.986006 22.902433 
L 73.377913 22.974092 
L 74.769821 23.035419 
L 76.161728 23.103457 
L 77.553635 23.155417 
L 78.945543 23.21078 
L 80.33745 23.242264 
L 81.729357 23.247017 
L 83.121265 23.27938 
L 84.513172 23.288854 
L 85.905079 23.28275 
L 87.296987 23.312333 
L 88.688894 23.316831 
L 90.080801 23.321984 
L 91.472708 23.331057 
L 92.864616 23.311308 
L 94.256523 23.35088 
L 95.64843 23.333944 
L 97.040338 23.309872 
L 98.432245 23.27667 
L 99.824152 23.281534 
L 101.21606 23.289388 
L 102.607967 23.298253 
L 103.999874 23.279175 
L 105.391782 23.259585 
L 106.783689 23.308014 
L 108.175596 23.316155 
" clip-path="url(#paf23e1afbb)" style="fill: none; stroke: #0000ff; stroke-width: 1.5; stroke-linecap: square"/>
   </g>
   <g id="line2d_7">
    <path d="M 39.972138 21.461752 
L 41.364045 21.455266 
L 42.755953 21.459187 
L 44.14786 21.459245 
L 45.539767 21.445128 
L 46.931675 21.455321 
L 48.323582 21.452833 
L 49.715489 21.458301 
L 51.107397 21.453311 
L 52.499304 21.451414 
L 53.891211 21.465227 
L 55.283118 21.469125 
L 56.675026 21.484871 
L 58.066933 21.555207 
L 59.45884 21.689175 
L 60.850748 21.891623 
L 62.242655 22.103367 
L 63.634562 22.190357 
L 65.02647 22.247841 
L 66.418377 22.310717 
L 67.810284 22.334846 
L 69.202192 22.364694 
L 70.594099 22.423617 
L 71.986006 22.480525 
L 73.377913 22.533219 
L 74.769821 22.575829 
L 76.161728 22.624234 
L 77.553635 22.653766 
L 78.945543 22.694511 
L 80.33745 22.712702 
L 81.729357 22.705276 
L 83.121265 22.730368 
L 84.513172 22.727288 
L 85.905079 22.709057 
L 87.296987 22.721103 
L 88.688894 22.697535 
L 90.080801 22.67658 
L 91.472708 22.666197 
L 92.864616 22.648449 
L 94.256523 22.648233 
L 95.64843 22.628068 
L 97.040338 22.604669 
L 98.432245 22.599618 
L 99.824152 22.597663 
L 101.21606 22.600014 
L 102.607967 22.571418 
L 103.999874 22.586256 
L 105.391782 22.590989 
L 106.783689 22.563861 
L 108.175596 22.556891 
" clip-path="url(#paf23e1afbb)" style="fill: none; stroke: #000000; stroke-width: 1.5; stroke-linecap: square"/>
   </g>
   <g id="line2d_8">
    <path d="M 39.972138 21.909614 
L 41.364045 21.903796 
L 42.755953 21.916275 
L 44.14786 21.904491 
L 45.539767 21.89179 
L 46.931675 21.918733 
L 48.323582 21.919084 
L 49.715489 21.933284 
L 51.107397 21.9222 
L 52.499304 21.931903 
L 53.891211 21.929777 
L 55.283118 22.027608 
L 56.675026 21.988769 
L 58.066933 22.25262 
L 59.45884 22.384215 
L 60.850748 22.511601 
L 62.242655 22.732755 
L 63.634562 22.711862 
L 65.02647 22.785663 
L 66.418377 22.787127 
L 67.810284 22.828088 
L 69.202192 22.853872 
L 70.594099 22.935316 
L 71.986006 23.012708 
L 73.377913 23.064803 
L 74.769821 23.128814 
L 76.161728 23.206482 
L 77.553635 23.266102 
L 78.945543 23.303988 
L 80.33745 23.325892 
L 81.729357 23.309992 
L 83.121265 23.371282 
L 84.513172 23.352786 
L 85.905079 23.3799 
L 87.296987 23.401803 
L 88.688894 23.431022 
L 90.080801 23.425392 
L 91.472708 23.397672 
L 92.864616 23.429873 
L 94.256523 23.488861 
L 95.64843 23.449089 
L 97.040338 23.456593 
L 98.432245 23.514483 
L 99.824152 23.494026 
L 101.21606 23.566424 
L 102.607967 23.539472 
L 103.999874 23.685575 
L 105.391782 23.384287 
L 106.783689 23.628895 
L 108.175596 23.664809 
" clip-path="url(#paf23e1afbb)" style="fill: none; stroke-dasharray: 5.55,2.4; stroke-dashoffset: 0; stroke: #0000ff; stroke-width: 1.5"/>
   </g>
   <g id="line2d_9">
    <path d="M 39.972138 21.831703 
L 41.364045 21.833288 
L 42.755953 21.834585 
L 44.14786 21.827915 
L 45.539767 21.838372 
L 46.931675 21.810424 
L 48.323582 21.833674 
L 49.715489 21.82814 
L 51.107397 21.838401 
L 52.499304 21.805666 
L 53.891211 21.819955 
L 55.283118 21.821094 
L 56.675026 21.835664 
L 58.066933 21.814597 
L 59.45884 21.8304 
L 60.850748 22.03256 
L 62.242655 21.831651 
L 63.634562 21.868579 
L 65.02647 21.895431 
L 66.418377 22.560775 
L 67.810284 22.639498 
L 69.202192 22.638261 
L 70.594099 22.652859 
L 71.986006 22.691273 
L 73.377913 22.879008 
L 74.769821 22.858028 
L 76.161728 23.023332 
L 77.553635 23.057035 
L 78.945543 23.109475 
L 80.33745 23.077141 
L 81.729357 23.142099 
L 83.121265 23.183966 
L 84.513172 23.179708 
L 85.905079 23.183418 
L 87.296987 23.188851 
L 88.688894 23.171477 
L 90.080801 23.185409 
L 91.472708 23.20804 
L 92.864616 23.168188 
L 94.256523 23.128668 
L 95.64843 23.182316 
L 97.040338 23.18842 
L 98.432245 23.071252 
L 99.824152 23.201012 
L 101.21606 23.21099 
L 102.607967 23.193749 
L 103.999874 23.208923 
L 105.391782 23.20537 
L 106.783689 23.204552 
L 108.175596 23.205959 
" clip-path="url(#paf23e1afbb)" style="fill: none; stroke-dasharray: 1.5,2.475; stroke-dashoffset: 0; stroke: #0000ff; stroke-width: 1.5"/>
   </g>
   <g id="line2d_10">
    <path d="M 39.972138 21.537051 
L 41.364045 21.497188 
L 42.755953 21.520349 
L 44.14786 21.505314 
L 45.539767 21.498079 
L 46.931675 21.528397 
L 48.323582 21.532993 
L 49.715489 21.543748 
L 51.107397 21.502283 
L 52.499304 21.540579 
L 53.891211 21.532824 
L 55.283118 21.663404 
L 56.675026 21.580044 
L 58.066933 21.858358 
L 59.45884 21.993824 
L 60.850748 22.152188 
L 62.242655 22.386044 
L 63.634562 22.340315 
L 65.02647 22.406215 
L 66.418377 22.407276 
L 67.810284 22.425231 
L 69.202192 22.47515 
L 70.594099 22.547704 
L 71.986006 22.575858 
L 73.377913 22.601202 
L 74.769821 22.674709 
L 76.161728 22.74167 
L 77.553635 22.779759 
L 78.945543 22.809926 
L 80.33745 22.805519 
L 81.729357 22.80112 
L 83.121265 22.828967 
L 84.513172 22.816785 
L 85.905079 22.818486 
L 87.296987 22.808405 
L 88.688894 22.811923 
L 90.080801 22.758491 
L 91.472708 22.7325 
L 92.864616 22.721223 
L 94.256523 22.745088 
L 95.64843 22.732977 
L 97.040338 22.708475 
L 98.432245 22.729019 
L 99.824152 22.648105 
L 101.21606 22.655044 
L 102.607967 22.637501 
L 103.999874 22.622935 
L 105.391782 22.629371 
L 106.783689 22.633704 
L 108.175596 22.619149 
" clip-path="url(#paf23e1afbb)" style="fill: none; stroke-dasharray: 5.55,2.4; stroke-dashoffset: 0; stroke: #000000; stroke-width: 1.5"/>
   </g>
   <g id="line2d_11">
    <path d="M 39.972138 21.429931 
L 41.364045 21.40875 
L 42.755953 21.425838 
L 44.14786 21.430479 
L 45.539767 21.415658 
L 46.931675 21.390049 
L 48.323582 21.411313 
L 49.715489 21.427691 
L 51.107397 21.431834 
L 52.499304 21.417884 
L 53.891211 21.428263 
L 55.283118 21.434608 
L 56.675026 21.433592 
L 58.066933 21.427597 
L 59.45884 21.452397 
L 60.850748 21.600878 
L 62.242655 21.448186 
L 63.634562 21.456944 
L 65.02647 21.485763 
L 66.418377 22.174149 
L 67.810284 22.231373 
L 69.202192 22.242505 
L 70.594099 22.268524 
L 71.986006 22.288215 
L 73.377913 22.450455 
L 74.769821 22.429061 
L 76.161728 22.534902 
L 77.553635 22.573385 
L 78.945543 22.609297 
L 80.33745 22.592532 
L 81.729357 22.61867 
L 83.121265 22.636161 
L 84.513172 22.630542 
L 85.905079 22.599643 
L 87.296987 22.626642 
L 88.688894 22.622911 
L 90.080801 22.619564 
L 91.472708 22.586227 
L 92.864616 22.590717 
L 94.256523 22.574083 
L 95.64843 22.58281 
L 97.040338 22.548151 
L 98.432245 22.513412 
L 99.824152 22.522624 
L 101.21606 22.518723 
L 102.607967 22.441198 
L 103.999874 22.451561 
L 105.391782 22.489258 
L 106.783689 22.352955 
L 108.175596 22.334346 
" clip-path="url(#paf23e1afbb)" style="fill: none; stroke-dasharray: 1.5,2.475; stroke-dashoffset: 0; stroke: #000000; stroke-width: 1.5"/>
   </g>
   <g id="patch_3">
    <path d="M 36.561965 51.597942 
L 36.561965 15.698543 
" style="fill: none; stroke: #000000; stroke-width: 0.8; stroke-linejoin: miter; stroke-linecap: square"/>
   </g>
   <g id="patch_4">
    <path d="M 111.585769 51.597942 
L 111.585769 15.698543 
" style="fill: none; stroke: #000000; stroke-width: 0.8; stroke-linejoin: miter; stroke-linecap: square"/>
   </g>
   <g id="patch_5">
    <path d="M 36.561965 51.597942 
L 111.585769 51.597942 
" style="fill: none; stroke: #000000; stroke-width: 0.8; stroke-linejoin: miter; stroke-linecap: square"/>
   </g>
   <g id="patch_6">
    <path d="M 36.561965 15.698543 
L 111.585769 15.698543 
" style="fill: none; stroke: #000000; stroke-width: 0.8; stroke-linejoin: miter; stroke-linecap: square"/>
   </g>
   <g id="text_4">
    <!-- $\mathbf{a)}$ -->
    <g transform="translate(24.771388 9.577584) scale(0.08 -0.08)">
     <defs>
      <path id="CMBX12-61" d="M 2944 1894 
C 2944 2483 2477 2880 1574 2880 
C 1216 2880 461 2847 461 2310 
C 461 2041 666 1926 838 1926 
C 1030 1926 1216 2060 1216 2303 
C 1216 2425 1171 2540 1062 2611 
C 1274 2668 1427 2668 1549 2668 
C 1984 2668 2246 2425 2246 1900 
L 2246 1644 
C 1235 1644 218 1362 218 648 
C 218 64 960 -64 1402 -64 
C 1894 -64 2208 205 2336 488 
C 2336 250 2336 -26 2982 -26 
L 3309 -26 
C 3443 -26 3494 -26 3494 115 
C 3494 250 3437 250 3347 250 
C 2944 256 2944 359 2944 507 
L 2944 1894 
z
M 2246 867 
C 2246 262 1709 147 1504 147 
C 1190 147 928 359 928 655 
C 928 1240 1619 1439 2246 1472 
L 2246 867 
z
" transform="scale(0.015625)"/>
      <path id="CMR17-29" d="M 1683 1596 
C 1683 2057 1638 2839 1254 3665 
C 947 4332 422 4800 346 4800 
C 326 4800 301 4793 301 4761 
C 301 4748 307 4742 314 4729 
C 621 4408 1402 3595 1402 1603 
C 1402 -396 627 -1210 314 -1530 
C 307 -1543 301 -1549 301 -1562 
C 301 -1594 326 -1600 346 -1600 
C 416 -1600 960 -1127 1274 -422 
C 1594 289 1683 981 1683 1596 
z
" transform="scale(0.015625)"/>
     </defs>
     <use xlink:href="#CMBX12-61" transform="scale(0.996264)"/>
     <use xlink:href="#CMR17-29" transform="translate(54.483188 0) scale(0.996264)"/>
    </g>
   </g>
   <g id="legend_1">
    <g id="line2d_12">
     <path d="M 38.961965 30.298481 
L 40.961965 30.298481 
L 42.961965 30.298481 
" style="fill: none; stroke: #0000ff; stroke-width: 1.5; stroke-linecap: square"/>
    </g>
    <g id="text_5">
     <!-- Mean -->
     <g transform="translate(44.161965 31.698481) scale(0.04 -0.04)">
      <defs>
       <path id="CMR17-4d" d="M 1338 4249 
C 1299 4345 1293 4352 1158 4352 
L 339 4352 
L 339 4185 
C 781 4185 851 4185 851 3898 
L 851 624 
C 851 465 851 166 339 166 
L 339 0 
C 486 12 755 12 915 12 
C 1075 12 1344 12 1491 0 
L 1491 166 
C 979 166 979 465 979 624 
L 979 4159 
L 986 4159 
L 2490 102 
C 2515 38 2528 0 2579 0 
C 2630 0 2643 38 2669 102 
L 4186 4191 
L 4192 4191 
L 4192 453 
C 4192 166 4122 166 3680 166 
L 3680 0 
C 3853 12 4198 12 4384 12 
C 4570 12 4922 12 5094 0 
L 5094 166 
C 4653 166 4582 166 4582 453 
L 4582 3898 
C 4582 4185 4653 4185 5094 4185 
L 5094 4352 
L 4282 4352 
C 4147 4352 4141 4345 4102 4249 
L 2720 516 
L 1338 4249 
z
" transform="scale(0.015625)"/>
       <path id="CMR17-65" d="M 2438 1503 
C 2464 1529 2464 1542 2464 1606 
C 2464 2251 2118 2816 1389 2816 
C 710 2816 173 2175 173 1394 
C 173 554 781 -64 1459 -64 
C 2176 -64 2458 619 2458 755 
C 2458 800 2419 800 2406 800 
C 2362 800 2355 787 2330 709 
C 2189 270 1837 51 1504 51 
C 1229 51 954 206 781 490 
C 582 819 582 1200 582 1503 
L 2438 1503 
z
M 589 1600 
C 634 2511 1126 2713 1382 2713 
C 1818 2713 2112 2308 2118 1600 
L 589 1600 
z
" transform="scale(0.015625)"/>
       <path id="CMR17-61" d="M 2304 1656 
C 2304 2048 2304 2275 2035 2534 
C 1798 2751 1523 2816 1306 2816 
C 800 2816 435 2408 435 1977 
C 435 1740 627 1728 666 1728 
C 749 1728 896 1779 896 1958 
C 896 2118 774 2188 666 2188 
C 640 2188 608 2182 589 2176 
C 723 2594 1069 2713 1293 2713 
C 1613 2713 1965 2421 1965 1875 
L 1965 1632 
C 1587 1619 1133 1568 774 1373 
C 371 1147 256 822 256 576 
C 256 77 832 -64 1171 -64 
C 1523 -64 1850 135 1990 505 
C 2003 219 2182 -39 2464 -39 
C 2598 -39 2938 51 2938 563 
L 2938 926 
L 2822 926 
L 2822 557 
C 2822 161 2650 109 2566 109 
C 2304 109 2304 446 2304 732 
L 2304 1656 
z
M 1965 887 
C 1965 323 1568 38 1216 38 
C 896 38 646 278 646 576 
C 646 771 730 1114 1101 1322 
C 1408 1497 1760 1523 1965 1536 
L 1965 887 
z
" transform="scale(0.015625)"/>
       <path id="CMR17-6e" d="M 2656 1954 
C 2656 2282 2592 2816 1837 2816 
C 1331 2816 1069 2424 973 2166 
L 966 2166 
L 966 2816 
L 211 2745 
L 211 2578 
C 589 2578 646 2540 646 2231 
L 646 443 
C 646 198 621 166 211 166 
L 211 0 
C 365 12 646 12 813 12 
C 979 12 1267 12 1421 0 
L 1421 166 
C 1011 166 986 192 986 443 
L 986 1678 
C 986 2269 1344 2713 1792 2713 
C 2266 2713 2317 2289 2317 1980 
L 2317 443 
C 2317 198 2291 166 1882 166 
L 1882 0 
C 2035 12 2317 12 2483 12 
C 2650 12 2938 12 3091 0 
L 3091 166 
C 2682 166 2656 192 2656 443 
L 2656 1954 
z
" transform="scale(0.015625)"/>
      </defs>
      <use xlink:href="#CMR17-4d" transform="scale(0.996264)"/>
      <use xlink:href="#CMR17-65" transform="translate(84.686941 0) scale(0.996264)"/>
      <use xlink:href="#CMR17-61" transform="translate(125.172601 0) scale(0.996264)"/>
      <use xlink:href="#CMR17-6e" transform="translate(170.863078 0) scale(0.996264)"/>
     </g>
    </g>
    <g id="patch_7">
     <path d="M 38.961965 37.273347 
L 42.961965 37.273347 
L 42.961965 34.473347 
L 38.961965 34.473347 
z
" style="fill: #0000ff; fill-opacity: 0.2; stroke: #0000ff; stroke-opacity: 0.2; stroke-linejoin: miter"/>
    </g>
    <g id="text_6">
     <!-- Std -->
     <g transform="translate(44.161965 37.273347) scale(0.04 -0.04)">
      <defs>
       <path id="CMR17-53" d="M 2803 4351 
C 2803 4467 2797 4473 2758 4473 
C 2720 4473 2707 4447 2682 4390 
L 2490 3965 
C 2246 4320 1875 4480 1472 4480 
C 819 4480 294 3958 294 3301 
C 294 3101 339 2817 557 2546 
C 794 2250 1018 2198 1530 2063 
C 1722 2011 2042 1927 2106 1901 
C 2470 1747 2662 1360 2662 999 
C 2662 534 2336 38 1779 38 
C 1094 38 454 425 410 1328 
C 403 1431 397 1437 352 1437 
C 301 1437 294 1431 294 1302 
L 294 0 
C 294 -116 301 -122 339 -122 
C 384 -122 397 -90 486 109 
C 493 128 493 141 614 386 
C 934 -39 1472 -128 1779 -128 
C 2477 -128 2970 457 2970 1141 
C 2970 1476 2848 1734 2778 1850 
C 2509 2263 2221 2340 1914 2417 
C 1869 2437 1856 2437 1498 2527 
C 1152 2617 1005 2662 845 2836 
C 666 3036 602 3243 602 3449 
C 602 3868 934 4326 1478 4326 
C 2157 4326 2579 3842 2675 3036 
C 2694 2920 2701 2914 2746 2914 
C 2803 2914 2803 2933 2803 3043 
L 2803 4351 
z
" transform="scale(0.015625)"/>
       <path id="CMR17-74" d="M 966 2585 
L 1862 2585 
L 1862 2752 
L 966 2752 
L 966 3968 
L 851 3968 
C 838 3292 614 2700 70 2687 
L 70 2585 
L 627 2585 
L 627 778 
C 627 655 627 -64 1370 -64 
C 1747 -64 1965 308 1965 784 
L 1965 1151 
L 1850 1151 
L 1850 790 
C 1850 347 1677 51 1408 51 
C 1222 51 966 179 966 765 
L 966 2585 
z
" transform="scale(0.015625)"/>
       <path id="CMR17-64" d="M 1869 4345 
L 1869 4179 
C 2246 4179 2304 4141 2304 3843 
L 2304 2371 
C 2278 2403 2016 2816 1498 2816 
C 845 2816 211 2228 211 1376 
C 211 529 806 -64 1434 -64 
C 1978 -64 2259 361 2291 406 
L 2291 -64 
L 3066 -13 
L 3066 154 
C 2688 154 2630 193 2630 503 
L 2630 4416 
L 1869 4345 
z
M 2291 762 
C 2291 568 2176 393 2029 264 
C 1811 70 1594 38 1472 38 
C 1286 38 621 135 621 1369 
C 621 2636 1363 2713 1530 2713 
C 1824 2713 2061 2545 2208 2313 
C 2291 2177 2291 2157 2291 2041 
L 2291 762 
z
" transform="scale(0.015625)"/>
      </defs>
      <use xlink:href="#CMR17-53" transform="scale(0.996264)"/>
      <use xlink:href="#CMR17-74" transform="translate(50.89537 0) scale(0.996264)"/>
      <use xlink:href="#CMR17-64" transform="translate(86.176138 0) scale(0.996264)"/>
     </g>
    </g>
    <g id="line2d_13">
     <path d="M 38.961965 41.448212 
L 40.961965 41.448212 
L 42.961965 41.448212 
" style="fill: none; stroke: #000000; stroke-width: 1.5; stroke-linecap: square"/>
    </g>
    <g id="text_7">
     <!-- Mean -->
     <g transform="translate(44.161965 42.848212) scale(0.04 -0.04)">
      <use xlink:href="#CMR17-4d" transform="scale(0.996264)"/>
      <use xlink:href="#CMR17-65" transform="translate(84.686941 0) scale(0.996264)"/>
      <use xlink:href="#CMR17-61" transform="translate(125.172601 0) scale(0.996264)"/>
      <use xlink:href="#CMR17-6e" transform="translate(170.863078 0) scale(0.996264)"/>
     </g>
    </g>
    <g id="patch_8">
     <path d="M 38.961965 48.423077 
L 42.961965 48.423077 
L 42.961965 45.623077 
L 38.961965 45.623077 
z
" style="fill-opacity: 0.2; stroke: #000000; stroke-opacity: 0.2; stroke-linejoin: miter"/>
    </g>
    <g id="text_8">
     <!-- Std -->
     <g transform="translate(44.161965 48.423077) scale(0.04 -0.04)">
      <use xlink:href="#CMR17-53" transform="scale(0.996264)"/>
      <use xlink:href="#CMR17-74" transform="translate(50.89537 0) scale(0.996264)"/>
      <use xlink:href="#CMR17-64" transform="translate(86.176138 0) scale(0.996264)"/>
     </g>
    </g>
    <g id="line2d_14">
     <path d="M 65.036096 30.298481 
L 67.036096 30.298481 
L 69.036096 30.298481 
" style="fill: none; stroke-dasharray: 5.55,2.4; stroke-dashoffset: 0; stroke: #0000ff; stroke-width: 1.5"/>
    </g>
    <g id="text_9">
     <!-- Max -->
     <g transform="translate(70.236096 31.698481) scale(0.04 -0.04)">
      <defs>
       <path id="CMR17-78" d="M 1664 1491 
C 1856 1740 2074 2022 2253 2233 
C 2464 2476 2707 2579 2989 2585 
L 2989 2752 
C 2880 2745 2656 2739 2541 2739 
C 2368 2739 2170 2739 2022 2752 
L 2022 2585 
C 2112 2572 2163 2508 2163 2419 
C 2163 2304 2099 2233 2067 2188 
L 1594 1587 
L 1030 2323 
C 973 2393 973 2406 973 2438 
C 973 2515 1037 2579 1146 2585 
L 1146 2752 
C 992 2739 717 2739 557 2739 
C 384 2739 179 2739 38 2752 
L 38 2585 
C 384 2585 461 2560 614 2368 
L 1350 1414 
C 1363 1401 1395 1363 1395 1344 
C 1395 1318 838 633 768 544 
C 480 198 179 172 6 166 
L 6 0 
C 115 6 339 12 454 12 
C 582 12 864 12 979 0 
L 979 166 
C 941 172 838 185 838 332 
C 838 448 890 518 947 595 
L 1478 1248 
L 2035 524 
C 2086 454 2163 358 2163 313 
C 2163 224 2086 172 1984 166 
L 1984 0 
C 2138 12 2413 12 2573 12 
C 2746 12 2950 12 3091 0 
L 3091 166 
C 2771 166 2675 179 2522 377 
L 1664 1491 
z
" transform="scale(0.015625)"/>
      </defs>
      <use xlink:href="#CMR17-4d" transform="scale(0.996264)"/>
      <use xlink:href="#CMR17-61" transform="translate(84.686941 0) scale(0.996264)"/>
      <use xlink:href="#CMR17-78" transform="translate(130.377418 0) scale(0.996264)"/>
     </g>
    </g>
    <g id="line2d_15">
     <path d="M 65.036096 35.873347 
L 67.036096 35.873347 
L 69.036096 35.873347 
" style="fill: none; stroke-dasharray: 1.5,2.475; stroke-dashoffset: 0; stroke: #0000ff; stroke-width: 1.5"/>
    </g>
    <g id="text_10">
     <!-- Min -->
     <g transform="translate(70.236096 37.273347) scale(0.04 -0.04)">
      <defs>
       <path id="CMR17-69" d="M 992 3961 
C 992 4102 877 4224 730 4224 
C 589 4224 467 4108 467 3961 
C 467 3820 582 3699 730 3699 
C 870 3699 992 3814 992 3961 
z
M 243 2745 
L 243 2579 
C 602 2579 653 2540 653 2231 
L 653 443 
C 653 198 627 166 218 166 
L 218 0 
C 371 12 646 12 806 12 
C 960 12 1222 12 1370 0 
L 1370 166 
C 992 166 979 205 979 436 
L 979 2816 
L 243 2745 
z
" transform="scale(0.015625)"/>
      </defs>
      <use xlink:href="#CMR17-4d" transform="scale(0.996264)"/>
      <use xlink:href="#CMR17-69" transform="translate(84.686941 0) scale(0.996264)"/>
      <use xlink:href="#CMR17-6e" transform="translate(109.557999 0) scale(0.996264)"/>
     </g>
    </g>
    <g id="line2d_16">
     <path d="M 65.036096 41.448212 
L 67.036096 41.448212 
L 69.036096 41.448212 
" style="fill: none; stroke-dasharray: 5.55,2.4; stroke-dashoffset: 0; stroke: #000000; stroke-width: 1.5"/>
    </g>
    <g id="text_11">
     <!-- Max -->
     <g transform="translate(70.236096 42.848212) scale(0.04 -0.04)">
      <use xlink:href="#CMR17-4d" transform="scale(0.996264)"/>
      <use xlink:href="#CMR17-61" transform="translate(84.686941 0) scale(0.996264)"/>
      <use xlink:href="#CMR17-78" transform="translate(130.377418 0) scale(0.996264)"/>
     </g>
    </g>
    <g id="line2d_17">
     <path d="M 65.036096 47.023077 
L 67.036096 47.023077 
L 69.036096 47.023077 
" style="fill: none; stroke-dasharray: 1.5,2.475; stroke-dashoffset: 0; stroke: #000000; stroke-width: 1.5"/>
    </g>
    <g id="text_12">
     <!-- Min -->
     <g transform="translate(70.236096 48.423077) scale(0.04 -0.04)">
      <use xlink:href="#CMR17-4d" transform="scale(0.996264)"/>
      <use xlink:href="#CMR17-69" transform="translate(84.686941 0) scale(0.996264)"/>
      <use xlink:href="#CMR17-6e" transform="translate(109.557999 0) scale(0.996264)"/>
     </g>
    </g>
   </g>
  </g>
  <g id="axes_2">
   <g id="patch_9">
    <path d="M 137.8441 51.597942 
L 212.867904 51.597942 
L 212.867904 15.698543 
L 137.8441 15.698543 
z
" style="fill: #ffffff"/>
   </g>
   <g id="FillBetweenPolyCollection_3">
    <defs>
     <path id="mcacb4428ad" d="M 141.254273 -118.719178 
L 141.254273 -118.703821 
L 142.646181 -118.706769 
L 144.038088 -118.704982 
L 145.429995 -118.704807 
L 146.821903 -118.702466 
L 148.21381 -118.707939 
L 149.605717 -118.707177 
L 150.997624 -118.708074 
L 152.389532 -118.704222 
L 153.781439 -118.705154 
L 155.173346 -118.701105 
L 156.565254 -118.704243 
L 157.957161 -118.696886 
L 159.349068 -118.694069 
L 160.740976 -118.632867 
L 162.132883 -118.3703 
L 163.52479 -117.761838 
L 164.916698 -116.641769 
L 166.308605 -115.529587 
L 167.700512 -114.838259 
L 169.092419 -114.002658 
L 170.484327 -113.330105 
L 171.876234 -112.652095 
L 173.268141 -112.413062 
L 174.660049 -112.187053 
L 176.051956 -111.988477 
L 177.443863 -111.324282 
L 178.835771 -109.786163 
L 180.227678 -108.225239 
L 181.619585 -106.395174 
L 183.011493 -104.85067 
L 184.4034 -102.8614 
L 185.795307 -100.708894 
L 187.187215 -98.581249 
L 188.579122 -96.962624 
L 189.971029 -95.431488 
L 191.362936 -94.22118 
L 192.754844 -93.361405 
L 194.146751 -92.396687 
L 195.538658 -92.129008 
L 196.930566 -91.673158 
L 198.322473 -91.258863 
L 199.71438 -92.040157 
L 201.106288 -91.207095 
L 202.498195 -93.403863 
L 203.890102 -93.067134 
L 205.28201 -94.636712 
L 206.673917 -94.340025 
L 208.065824 -95.932609 
L 209.457731 -96.690387 
L 209.457731 -99.673741 
L 209.457731 -99.673741 
L 208.065824 -99.095482 
L 206.673917 -98.210057 
L 205.28201 -97.210376 
L 203.890102 -97.03685 
L 202.498195 -95.757213 
L 201.106288 -95.928344 
L 199.71438 -94.271062 
L 198.322473 -94.761614 
L 196.930566 -94.58811 
L 195.538658 -93.7362 
L 194.146751 -94.546058 
L 192.754844 -94.772368 
L 191.362936 -95.334079 
L 189.971029 -96.261164 
L 188.579122 -98.015709 
L 187.187215 -99.399132 
L 185.795307 -101.425004 
L 184.4034 -103.783509 
L 183.011493 -105.507934 
L 181.619585 -107.159578 
L 180.227678 -108.899765 
L 178.835771 -110.725712 
L 177.443863 -111.804327 
L 176.051956 -112.10387 
L 174.660049 -112.369837 
L 173.268141 -112.674596 
L 171.876234 -113.329018 
L 170.484327 -114.050991 
L 169.092419 -114.826131 
L 167.700512 -116.091033 
L 166.308605 -116.888436 
L 164.916698 -117.808812 
L 163.52479 -118.358411 
L 162.132883 -118.574398 
L 160.740976 -118.718906 
L 159.349068 -118.721258 
L 157.957161 -118.718285 
L 156.565254 -118.718043 
L 155.173346 -118.716871 
L 153.781439 -118.715917 
L 152.389532 -118.718763 
L 150.997624 -118.718578 
L 149.605717 -118.716557 
L 148.21381 -118.719248 
L 146.821903 -118.718291 
L 145.429995 -118.718196 
L 144.038088 -118.718336 
L 142.646181 -118.719738 
L 141.254273 -118.719178 
z
" style="stroke: #0000ff; stroke-opacity: 0.2"/>
    </defs>
    <g clip-path="url(#p1d8f49e223)">
     <use xlink:href="#mcacb4428ad" x="0" y="134.806076" style="fill: #0000ff; fill-opacity: 0.2; stroke: #0000ff; stroke-opacity: 0.2"/>
    </g>
   </g>
   <g id="FillBetweenPolyCollection_4">
    <defs>
     <path id="m401fa85195" d="M 141.254273 -118.965173 
L 141.254273 -118.957644 
L 142.646181 -118.958249 
L 144.038088 -118.957585 
L 145.429995 -118.958524 
L 146.821903 -118.957104 
L 148.21381 -118.958378 
L 149.605717 -118.958165 
L 150.997624 -118.958312 
L 152.389532 -118.95658 
L 153.781439 -118.958643 
L 155.173346 -118.958762 
L 156.565254 -118.957175 
L 157.957161 -118.958534 
L 159.349068 -118.955155 
L 160.740976 -118.929402 
L 162.132883 -118.68366 
L 163.52479 -118.066285 
L 164.916698 -116.908758 
L 166.308605 -115.744303 
L 167.700512 -115.035343 
L 169.092419 -114.173877 
L 170.484327 -113.525601 
L 171.876234 -112.847024 
L 173.268141 -112.610691 
L 174.660049 -112.392675 
L 176.051956 -112.183035 
L 177.443863 -111.492806 
L 178.835771 -109.896721 
L 180.227678 -108.342628 
L 181.619585 -106.502068 
L 183.011493 -104.932535 
L 184.4034 -102.941772 
L 185.795307 -100.833477 
L 187.187215 -98.758649 
L 188.579122 -97.191046 
L 189.971029 -95.675598 
L 191.362936 -94.49809 
L 192.754844 -93.677153 
L 194.146751 -92.752979 
L 195.538658 -92.542209 
L 196.930566 -92.173496 
L 198.322473 -91.771009 
L 199.71438 -92.512763 
L 201.106288 -91.716627 
L 202.498195 -93.864319 
L 203.890102 -93.601121 
L 205.28201 -95.185073 
L 206.673917 -94.851318 
L 208.065824 -96.533247 
L 209.457731 -97.221885 
L 209.457731 -100.112414 
L 209.457731 -100.112414 
L 208.065824 -99.485309 
L 206.673917 -98.621622 
L 205.28201 -97.622533 
L 203.890102 -97.405754 
L 202.498195 -96.12602 
L 201.106288 -96.290919 
L 199.71438 -94.641544 
L 198.322473 -95.067306 
L 196.930566 -94.896927 
L 195.538658 -94.07778 
L 194.146751 -94.870036 
L 192.754844 -95.065845 
L 191.362936 -95.601439 
L 189.971029 -96.506924 
L 188.579122 -98.213916 
L 187.187215 -99.573338 
L 185.795307 -101.512947 
L 184.4034 -103.842115 
L 183.011493 -105.578207 
L 181.619585 -107.260189 
L 180.227678 -108.996851 
L 178.835771 -110.860238 
L 177.443863 -111.974474 
L 176.051956 -112.291023 
L 174.660049 -112.569245 
L 173.268141 -112.859392 
L 171.876234 -113.506331 
L 170.484327 -114.226847 
L 169.092419 -115.019013 
L 167.700512 -116.312117 
L 166.308605 -117.14308 
L 164.916698 -118.085379 
L 163.52479 -118.647852 
L 162.132883 -118.873376 
L 160.740976 -118.964315 
L 159.349068 -118.968183 
L 157.957161 -118.965381 
L 156.565254 -118.966872 
L 155.173346 -118.966676 
L 153.781439 -118.964178 
L 152.389532 -118.968304 
L 150.997624 -118.963233 
L 149.605717 -118.962974 
L 148.21381 -118.963557 
L 146.821903 -118.965863 
L 145.429995 -118.965589 
L 144.038088 -118.966005 
L 142.646181 -118.96445 
L 141.254273 -118.965173 
z
" style="stroke: #000000; stroke-opacity: 0.2"/>
    </defs>
    <g clip-path="url(#p1d8f49e223)">
     <use xlink:href="#m401fa85195" x="0" y="134.806076" style="fill-opacity: 0.2; stroke: #000000; stroke-opacity: 0.2"/>
    </g>
   </g>
   <g id="matplotlib.axis_3">
    <g id="xtick_4">
     <g id="line2d_18">
      <g>
       <use xlink:href="#m1a20d3d3e3" x="154.894965" y="51.597942" style="stroke: #000000; stroke-width: 0.8"/>
      </g>
     </g>
    </g>
    <g id="xtick_5">
     <g id="line2d_19">
      <g>
       <use xlink:href="#m1a20d3d3e3" x="182.176348" y="51.597942" style="stroke: #000000; stroke-width: 0.8"/>
      </g>
     </g>
    </g>
    <g id="xtick_6">
     <g id="line2d_20">
      <g>
       <use xlink:href="#m1a20d3d3e3" x="209.457731" y="51.597942" style="stroke: #000000; stroke-width: 0.8"/>
      </g>
     </g>
    </g>
   </g>
   <g id="matplotlib.axis_4">
    <g id="ytick_3">
     <g id="line2d_21">
      <g>
       <use xlink:href="#m29164f69f2" x="137.8441" y="51.597942" style="stroke: #000000; stroke-width: 0.8"/>
      </g>
     </g>
     <g id="text_13">
      <!-- $10^{-5}$ -->
      <g transform="translate(112.966683 54.365343) scale(0.08 -0.08)">
       <defs>
        <path id="CMR17-35" d="M 730 3750 
C 794 3724 1056 3641 1325 3641 
C 1920 3641 2246 3961 2432 4140 
C 2432 4191 2432 4224 2394 4224 
C 2387 4224 2374 4224 2323 4198 
C 2099 4102 1837 4032 1517 4032 
C 1325 4032 1037 4055 723 4191 
C 653 4224 640 4224 634 4224 
C 602 4224 595 4217 595 4090 
L 595 2231 
C 595 2113 595 2080 659 2080 
C 691 2080 704 2093 736 2139 
C 941 2435 1222 2560 1542 2560 
C 1766 2560 2246 2415 2246 1293 
C 2246 1087 2246 716 2054 422 
C 1894 159 1645 25 1370 25 
C 947 25 518 319 403 812 
C 429 806 480 793 506 793 
C 589 793 749 838 749 1036 
C 749 1209 627 1280 506 1280 
C 358 1280 262 1190 262 1011 
C 262 454 704 -128 1382 -128 
C 2042 -128 2669 441 2669 1267 
C 2669 2054 2170 2662 1549 2662 
C 1222 2662 947 2540 730 2304 
L 730 3750 
z
" transform="scale(0.015625)"/>
       </defs>
       <use xlink:href="#CMR17-31" transform="scale(0.996264)"/>
       <use xlink:href="#CMR17-30" transform="translate(45.690477 0) scale(0.996264)"/>
       <use xlink:href="#CMSY10-0" transform="translate(91.380954 36.153639) scale(0.697382)"/>
       <use xlink:href="#CMR17-35" transform="translate(145.621947 36.153639) scale(0.697382)"/>
      </g>
     </g>
    </g>
    <g id="ytick_4">
     <g id="line2d_22">
      <g>
       <use xlink:href="#m29164f69f2" x="137.8441" y="33.648243" style="stroke: #000000; stroke-width: 0.8"/>
      </g>
     </g>
     <g id="text_14">
      <!-- $10^{-3}$ -->
      <g transform="translate(112.966683 36.415644) scale(0.08 -0.08)">
       <defs>
        <path id="CMR17-33" d="M 1414 2176 
C 1984 2176 2234 1673 2234 1094 
C 2234 322 1824 25 1453 25 
C 1114 25 563 193 390 691 
C 422 678 454 678 486 678 
C 640 678 755 780 755 947 
C 755 1132 614 1216 486 1216 
C 378 1216 211 1164 211 927 
C 211 335 787 -128 1466 -128 
C 2176 -128 2720 432 2720 1087 
C 2720 1718 2208 2176 1600 2246 
C 2086 2347 2554 2776 2554 3353 
C 2554 3856 2048 4224 1472 4224 
C 890 4224 378 3862 378 3347 
C 378 3123 544 3084 627 3084 
C 762 3084 877 3167 877 3334 
C 877 3500 762 3584 627 3584 
C 602 3584 570 3584 544 3571 
C 730 3999 1235 4076 1459 4076 
C 1683 4076 2106 3966 2106 3347 
C 2106 3167 2080 2851 1862 2574 
C 1670 2329 1453 2316 1242 2297 
C 1210 2297 1062 2284 1037 2284 
C 992 2278 966 2272 966 2227 
C 966 2182 973 2176 1101 2176 
L 1414 2176 
z
" transform="scale(0.015625)"/>
       </defs>
       <use xlink:href="#CMR17-31" transform="scale(0.996264)"/>
       <use xlink:href="#CMR17-30" transform="translate(45.690477 0) scale(0.996264)"/>
       <use xlink:href="#CMSY10-0" transform="translate(91.380954 36.153639) scale(0.697382)"/>
       <use xlink:href="#CMR17-33" transform="translate(145.621947 36.153639) scale(0.697382)"/>
      </g>
     </g>
    </g>
    <g id="ytick_5">
     <g id="line2d_23">
      <g>
       <use xlink:href="#m29164f69f2" x="137.8441" y="15.698543" style="stroke: #000000; stroke-width: 0.8"/>
      </g>
     </g>
     <g id="text_15">
      <!-- $10^{-1}$ -->
      <g transform="translate(112.966683 18.465944) scale(0.08 -0.08)">
       <use xlink:href="#CMR17-31" transform="scale(0.996264)"/>
       <use xlink:href="#CMR17-30" transform="translate(45.690477 0) scale(0.996264)"/>
       <use xlink:href="#CMSY10-0" transform="translate(91.380954 36.153639) scale(0.697382)"/>
       <use xlink:href="#CMR17-31" transform="translate(145.621947 36.153639) scale(0.697382)"/>
      </g>
     </g>
    </g>
   </g>
   <g id="line2d_24">
    <path d="M 141.254273 16.094569 
L 142.646181 16.092817 
L 144.038088 16.094411 
L 145.429995 16.094569 
L 146.821903 16.09569 
L 148.21381 16.092479 
L 149.605717 16.094206 
L 150.997624 16.092747 
L 152.389532 16.094577 
L 153.781439 16.095537 
L 155.173346 16.09708 
L 156.565254 16.094927 
L 157.957161 16.098476 
L 159.349068 16.09839 
L 160.740976 16.129952 
L 162.132883 16.332392 
L 163.52479 16.734549 
L 164.916698 17.537269 
L 166.308605 18.538146 
L 167.700512 19.291313 
L 169.092419 20.369975 
L 170.484327 21.098886 
L 171.876234 21.800843 
L 173.268141 22.260054 
L 174.660049 22.52656 
L 176.051956 22.759476 
L 177.443863 23.234386 
L 178.835771 24.521897 
L 180.227678 26.229001 
L 181.619585 28.009991 
L 183.011493 29.612937 
L 184.4034 31.456416 
L 185.795307 33.722705 
L 187.187215 35.794472 
L 188.579122 37.281452 
L 189.971029 38.937716 
L 191.362936 39.98886 
L 192.754844 40.67569 
L 194.146751 41.188387 
L 195.538658 41.791214 
L 196.930566 41.409069 
L 198.322473 41.414931 
L 199.71438 41.492989 
L 201.106288 40.563363 
L 202.498195 40.050561 
L 203.890102 39.269147 
L 205.28201 38.67386 
L 206.673917 38.069242 
L 208.065824 36.979644 
L 209.457731 36.345284 
" clip-path="url(#p1d8f49e223)" style="fill: none; stroke: #0000ff; stroke-width: 1.5; stroke-linecap: square"/>
   </g>
   <g id="line2d_25">
    <path d="M 141.254273 15.844666 
L 142.646181 15.844726 
L 144.038088 15.844279 
L 145.429995 15.844018 
L 146.821903 15.84459 
L 148.21381 15.845108 
L 149.605717 15.845506 
L 150.997624 15.845303 
L 152.389532 15.84363 
L 153.781439 15.844665 
L 155.173346 15.843355 
L 156.565254 15.84405 
L 157.957161 15.844118 
L 159.349068 15.844402 
L 160.740976 15.859179 
L 162.132883 16.026404 
L 163.52479 16.438171 
L 164.916698 17.264777 
L 166.308605 18.299971 
L 167.700512 19.080299 
L 169.092419 20.18677 
L 170.484327 20.914103 
L 171.876234 21.615475 
L 173.268141 22.069052 
L 174.660049 22.324116 
L 176.051956 22.568674 
L 177.443863 23.065001 
L 178.835771 24.3979 
L 180.227678 26.122627 
L 181.619585 27.906545 
L 183.011493 29.537351 
L 184.4034 31.388194 
L 185.795307 33.618077 
L 187.187215 35.618836 
L 188.579122 37.070138 
L 189.971029 38.692694 
L 191.362936 39.7174 
L 192.754844 40.373056 
L 194.146751 40.852566 
L 195.538658 41.420946 
L 196.930566 41.037686 
L 198.322473 41.048375 
L 199.71438 41.085362 
L 201.106288 40.166572 
L 202.498195 39.649111 
L 203.890102 38.855757 
L 205.28201 38.214765 
L 206.673917 37.630463 
L 208.065824 36.523754 
L 209.457731 35.876901 
" clip-path="url(#p1d8f49e223)" style="fill: none; stroke: #000000; stroke-width: 1.5; stroke-linecap: square"/>
   </g>
   <g id="line2d_26">
    <path d="M 141.254273 16.111562 
L 142.646181 16.115725 
L 144.038088 16.113456 
L 145.429995 16.117364 
L 146.821903 16.116088 
L 148.21381 16.108057 
L 149.605717 16.112376 
L 150.997624 16.104358 
L 152.389532 16.112905 
L 153.781439 16.109937 
L 155.173346 16.117498 
L 156.565254 16.117453 
L 157.957161 16.123158 
L 159.349068 16.127042 
L 160.740976 16.236736 
L 162.132883 16.592748 
L 163.52479 17.157703 
L 164.916698 18.183002 
L 166.308605 19.189928 
L 167.700512 20.040399 
L 169.092419 20.744527 
L 170.484327 21.620531 
L 171.876234 22.058612 
L 173.268141 22.434561 
L 174.660049 22.624892 
L 176.051956 22.860679 
L 177.443863 23.636814 
L 178.835771 25.016485 
L 180.227678 26.759759 
L 181.619585 28.401703 
L 183.011493 30.205158 
L 184.4034 32.181595 
L 185.795307 34.3464 
L 187.187215 36.488925 
L 188.579122 38.437111 
L 189.971029 39.963366 
L 191.362936 41.071163 
L 192.754844 42.119061 
L 194.146751 42.416603 
L 195.538658 43.84506 
L 196.930566 44.013798 
L 198.322473 43.930851 
L 199.71438 43.629296 
L 201.106288 43.125647 
L 202.498195 43.264393 
L 203.890102 41.680154 
L 205.28201 41.318688 
L 206.673917 41.207397 
L 208.065824 39.480559 
L 209.457731 38.877039 
" clip-path="url(#p1d8f49e223)" style="fill: none; stroke-dasharray: 5.55,2.4; stroke-dashoffset: 0; stroke: #0000ff; stroke-width: 1.5"/>
   </g>
   <g id="line2d_27">
    <path d="M 141.254273 16.079838 
L 142.646181 16.081553 
L 144.038088 16.083541 
L 145.429995 16.08453 
L 146.821903 16.078866 
L 148.21381 16.083271 
L 149.605717 16.085638 
L 150.997624 16.075185 
L 152.389532 16.07623 
L 153.781439 16.08355 
L 155.173346 16.08307 
L 156.565254 16.081541 
L 157.957161 16.070928 
L 159.349068 16.07331 
L 160.740976 16.085988 
L 162.132883 16.094987 
L 163.52479 16.114732 
L 164.916698 16.28557 
L 166.308605 16.738168 
L 167.700512 17.884938 
L 169.092419 18.805859 
L 170.484327 20.084664 
L 171.876234 20.570772 
L 173.268141 21.914061 
L 174.660049 22.164373 
L 176.051956 22.658513 
L 177.443863 22.85874 
L 178.835771 23.483982 
L 180.227678 25.528225 
L 181.619585 26.940499 
L 183.011493 28.402209 
L 184.4034 30.104774 
L 185.795307 32.888659 
L 187.187215 35.05321 
L 188.579122 36.173096 
L 189.971029 37.998516 
L 191.362936 39.035763 
L 192.754844 39.229645 
L 194.146751 38.270829 
L 195.538658 40.164195 
L 196.930566 38.180997 
L 198.322473 37.599786 
L 199.71438 39.058731 
L 201.106288 36.393269 
L 202.498195 37.973127 
L 203.890102 35.077103 
L 205.28201 35.970393 
L 206.673917 34.72896 
L 208.065824 34.184662 
L 209.457731 33.289058 
" clip-path="url(#p1d8f49e223)" style="fill: none; stroke-dasharray: 1.5,2.475; stroke-dashoffset: 0; stroke: #0000ff; stroke-width: 1.5"/>
   </g>
   <g id="line2d_28">
    <path d="M 141.254273 15.849216 
L 142.646181 15.848594 
L 144.038088 15.849868 
L 145.429995 15.848068 
L 146.821903 15.850158 
L 148.21381 15.84967 
L 149.605717 15.849102 
L 150.997624 15.849416 
L 152.389532 15.849462 
L 153.781439 15.848853 
L 155.173346 15.848717 
L 156.565254 15.851128 
L 157.957161 15.849678 
L 159.349068 15.84991 
L 160.740976 15.929885 
L 162.132883 16.2748 
L 163.52479 16.867071 
L 164.916698 17.953503 
L 166.308605 19.018775 
L 167.700512 19.830843 
L 169.092419 20.565083 
L 170.484327 21.39299 
L 171.876234 21.898031 
L 173.268141 22.258903 
L 174.660049 22.418661 
L 176.051956 22.673444 
L 177.443863 23.504776 
L 178.835771 24.880979 
L 180.227678 26.658416 
L 181.619585 28.286859 
L 183.011493 30.097267 
L 184.4034 32.103045 
L 185.795307 34.246025 
L 187.187215 36.323601 
L 188.579122 38.221926 
L 189.971029 39.721338 
L 191.362936 40.661274 
L 192.754844 41.763798 
L 194.146751 42.119928 
L 195.538658 43.384471 
L 196.930566 43.543199 
L 198.322473 43.446724 
L 199.71438 43.137647 
L 201.106288 42.735853 
L 202.498195 42.769314 
L 203.890102 41.157226 
L 205.28201 40.955591 
L 206.673917 40.52617 
L 208.065824 38.874502 
L 209.457731 38.283041 
" clip-path="url(#p1d8f49e223)" style="fill: none; stroke-dasharray: 5.55,2.4; stroke-dashoffset: 0; stroke: #000000; stroke-width: 1.5"/>
   </g>
   <g id="line2d_29">
    <path d="M 141.254273 15.833389 
L 142.646181 15.834881 
L 144.038088 15.827358 
L 145.429995 15.831425 
L 146.821903 15.829215 
L 148.21381 15.838211 
L 149.605717 15.835303 
L 150.997624 15.838749 
L 152.389532 15.81829 
L 153.781439 15.835995 
L 155.173346 15.828845 
L 156.565254 15.823044 
L 157.957161 15.834424 
L 159.349068 15.815433 
L 160.740976 15.844262 
L 162.132883 15.849041 
L 163.52479 15.857755 
L 164.916698 16.016484 
L 166.308605 16.466757 
L 167.700512 17.646841 
L 169.092419 18.582641 
L 170.484327 19.911228 
L 171.876234 20.41263 
L 173.268141 21.742735 
L 174.660049 21.975055 
L 176.051956 22.470526 
L 177.443863 22.697967 
L 178.835771 23.325074 
L 180.227678 25.423248 
L 181.619585 26.828695 
L 183.011493 28.359045 
L 184.4034 30.069564 
L 185.795307 32.817837 
L 187.187215 34.811733 
L 188.579122 36.084507 
L 189.971029 37.740358 
L 191.362936 38.74209 
L 192.754844 38.979418 
L 194.146751 37.968605 
L 195.538658 39.789151 
L 196.930566 38.039792 
L 198.322473 37.398085 
L 199.71438 38.817405 
L 201.106288 36.079701 
L 202.498195 37.586126 
L 203.890102 34.78873 
L 205.28201 35.768836 
L 206.673917 34.26025 
L 208.065824 33.934856 
L 209.457731 32.883035 
" clip-path="url(#p1d8f49e223)" style="fill: none; stroke-dasharray: 1.5,2.475; stroke-dashoffset: 0; stroke: #000000; stroke-width: 1.5"/>
   </g>
   <g id="patch_10">
    <path d="M 137.8441 51.597942 
L 137.8441 15.698543 
" style="fill: none; stroke: #000000; stroke-width: 0.8; stroke-linejoin: miter; stroke-linecap: square"/>
   </g>
   <g id="patch_11">
    <path d="M 212.867904 51.597942 
L 212.867904 15.698543 
" style="fill: none; stroke: #000000; stroke-width: 0.8; stroke-linejoin: miter; stroke-linecap: square"/>
   </g>
   <g id="patch_12">
    <path d="M 137.8441 51.597942 
L 212.867904 51.597942 
" style="fill: none; stroke: #000000; stroke-width: 0.8; stroke-linejoin: miter; stroke-linecap: square"/>
   </g>
   <g id="patch_13">
    <path d="M 137.8441 15.698543 
L 212.867904 15.698543 
" style="fill: none; stroke: #000000; stroke-width: 0.8; stroke-linejoin: miter; stroke-linecap: square"/>
   </g>
   <g id="text_16">
    <!-- $\mathbf{b)}$ -->
    <g transform="translate(125.375509 9.577584) scale(0.08 -0.08)">
     <defs>
      <path id="CMBX12-62" d="M 1331 4480 
L 224 4428 
L 224 4153 
C 621 4153 666 4153 666 3896 
L 666 -26 
L 934 -26 
C 1043 96 1152 218 1254 347 
C 1581 6 1933 -64 2189 -64 
C 3072 -64 3750 476 3750 1414 
C 3750 2300 3149 2880 2272 2880 
C 1894 2880 1594 2758 1331 2552 
L 1331 4480 
z
M 1363 2242 
C 1587 2552 1920 2668 2189 2668 
C 2982 2668 2982 1847 2982 1420 
C 2982 1130 2982 761 2829 522 
C 2630 211 2330 147 2125 147 
C 1690 147 1453 457 1363 599 
L 1363 2242 
z
" transform="scale(0.015625)"/>
     </defs>
     <use xlink:href="#CMBX12-62" transform="scale(0.996264)"/>
     <use xlink:href="#CMR17-29" transform="translate(62.266501 0) scale(0.996264)"/>
    </g>
   </g>
  </g>
  <g id="axes_3">
   <g id="patch_14">
    <path d="M 36.561965 109.036981 
L 111.585769 109.036981 
L 111.585769 73.137582 
L 36.561965 73.137582 
z
" style="fill: #ffffff"/>
   </g>
   <g id="FillBetweenPolyCollection_5">
    <defs>
     <path id="m21ea94235e" d="M 39.972138 -61.464934 
L 39.972138 -61.459581 
L 41.364045 -61.460536 
L 42.755953 -61.459824 
L 44.14786 -61.459988 
L 45.539767 -61.461134 
L 46.931675 -61.4599 
L 48.323582 -61.460902 
L 49.715489 -61.45952 
L 51.107397 -61.458467 
L 52.499304 -61.458276 
L 53.891211 -61.458659 
L 55.283118 -61.456484 
L 56.675026 -61.458092 
L 58.066933 -61.449148 
L 59.45884 -61.419977 
L 60.850748 -61.390035 
L 62.242655 -61.354885 
L 63.634562 -61.296667 
L 65.02647 -61.209177 
L 66.418377 -61.198794 
L 67.810284 -61.157597 
L 69.202192 -61.15745 
L 70.594099 -61.157696 
L 71.986006 -61.154462 
L 73.377913 -61.125194 
L 74.769821 -61.076801 
L 76.161728 -61.021847 
L 77.553635 -60.971843 
L 78.945543 -60.827823 
L 80.33745 -59.756891 
L 81.729357 -58.864919 
L 83.121265 -58.507271 
L 84.513172 -58.294018 
L 85.905079 -55.270598 
L 87.296987 -52.180747 
L 88.688894 -49.276752 
L 90.080801 -44.577669 
L 91.472708 -40.195739 
L 92.864616 -36.442113 
L 94.256523 -33.679313 
L 95.64843 -32.278778 
L 97.040338 -31.517171 
L 98.432245 -31.266513 
L 99.824152 -31.118129 
L 101.21606 -31.02315 
L 102.607967 -30.977561 
L 103.999874 -30.830016 
L 105.391782 -31.087772 
L 106.783689 -30.994397 
L 108.175596 -31.634733 
L 108.175596 -32.769374 
L 108.175596 -32.769374 
L 106.783689 -33.095288 
L 105.391782 -31.909057 
L 103.999874 -31.872307 
L 102.607967 -31.559902 
L 101.21606 -31.566091 
L 99.824152 -31.579089 
L 98.432245 -31.766476 
L 97.040338 -32.238475 
L 95.64843 -32.922019 
L 94.256523 -34.563364 
L 92.864616 -37.629334 
L 91.472708 -41.00723 
L 90.080801 -45.553158 
L 88.688894 -50.141838 
L 87.296987 -52.491073 
L 85.905079 -56.088885 
L 84.513172 -58.377063 
L 83.121265 -58.552773 
L 81.729357 -58.993563 
L 80.33745 -60.094292 
L 78.945543 -60.867119 
L 77.553635 -60.98738 
L 76.161728 -61.044705 
L 74.769821 -61.093282 
L 73.377913 -61.14875 
L 71.986006 -61.162928 
L 70.594099 -61.168352 
L 69.202192 -61.194483 
L 67.810284 -61.227144 
L 66.418377 -61.224903 
L 65.02647 -61.342979 
L 63.634562 -61.353726 
L 62.242655 -61.394197 
L 60.850748 -61.432946 
L 59.45884 -61.455837 
L 58.066933 -61.46825 
L 56.675026 -61.464905 
L 55.283118 -61.465826 
L 53.891211 -61.465654 
L 52.499304 -61.465815 
L 51.107397 -61.465974 
L 49.715489 -61.464673 
L 48.323582 -61.465333 
L 46.931675 -61.46516 
L 45.539767 -61.465144 
L 44.14786 -61.464478 
L 42.755953 -61.465029 
L 41.364045 -61.4657 
L 39.972138 -61.464934 
z
" style="stroke: #0000ff; stroke-opacity: 0.2"/>
    </defs>
    <g clip-path="url(#pd71a2acb8d)">
     <use xlink:href="#m21ea94235e" x="0" y="134.806076" style="fill: #0000ff; fill-opacity: 0.2; stroke: #0000ff; stroke-opacity: 0.2"/>
    </g>
   </g>
   <g id="FillBetweenPolyCollection_6">
    <defs>
     <path id="m3944c8cc70" d="M 39.972138 -61.484747 
L 39.972138 -61.480659 
L 41.364045 -61.481306 
L 42.755953 -61.480337 
L 44.14786 -61.480993 
L 45.539767 -61.480975 
L 46.931675 -61.481181 
L 48.323582 -61.481368 
L 49.715489 -61.4804 
L 51.107397 -61.480294 
L 52.499304 -61.480065 
L 53.891211 -61.480375 
L 55.283118 -61.480281 
L 56.675026 -61.480163 
L 58.066933 -61.479592 
L 59.45884 -61.483356 
L 60.850748 -61.469233 
L 62.242655 -61.439596 
L 63.634562 -61.389986 
L 65.02647 -61.313712 
L 66.418377 -61.290209 
L 67.810284 -61.24564 
L 69.202192 -61.247738 
L 70.594099 -61.245146 
L 71.986006 -61.240492 
L 73.377913 -61.228305 
L 74.769821 -61.190655 
L 76.161728 -61.144376 
L 77.553635 -61.09871 
L 78.945543 -60.969442 
L 80.33745 -59.906466 
L 81.729357 -59.010743 
L 83.121265 -58.659129 
L 84.513172 -58.466674 
L 85.905079 -55.475289 
L 87.296987 -52.395127 
L 88.688894 -49.488695 
L 90.080801 -44.788479 
L 91.472708 -40.4281 
L 92.864616 -36.700999 
L 94.256523 -34.011243 
L 95.64843 -32.686239 
L 97.040338 -32.003473 
L 98.432245 -31.796097 
L 99.824152 -31.697334 
L 101.21606 -31.646292 
L 102.607967 -31.623376 
L 103.999874 -31.5242 
L 105.391782 -31.783046 
L 106.783689 -31.732722 
L 108.175596 -32.336504 
L 108.175596 -33.413721 
L 108.175596 -33.413721 
L 106.783689 -33.687588 
L 105.391782 -32.576302 
L 103.999874 -32.511986 
L 102.607967 -32.191714 
L 101.21606 -32.150774 
L 99.824152 -32.133423 
L 98.432245 -32.268114 
L 97.040338 -32.675382 
L 95.64843 -33.30917 
L 94.256523 -34.867864 
L 92.864616 -37.861468 
L 91.472708 -41.219351 
L 90.080801 -45.768885 
L 88.688894 -50.361028 
L 87.296987 -52.693046 
L 85.905079 -56.280446 
L 84.513172 -58.531098 
L 83.121265 -58.696999 
L 81.729357 -59.134756 
L 80.33745 -60.236953 
L 78.945543 -61.004798 
L 77.553635 -61.108456 
L 76.161728 -61.15709 
L 74.769821 -61.19936 
L 73.377913 -61.23707 
L 71.986006 -61.245165 
L 70.594099 -61.250922 
L 69.202192 -61.272177 
L 67.810284 -61.32408 
L 66.418377 -61.313404 
L 65.02647 -61.403973 
L 63.634562 -61.422516 
L 62.242655 -61.456447 
L 60.850748 -61.4785 
L 59.45884 -61.490824 
L 58.066933 -61.489283 
L 56.675026 -61.486434 
L 55.283118 -61.487171 
L 53.891211 -61.484709 
L 52.499304 -61.485205 
L 51.107397 -61.485753 
L 49.715489 -61.484592 
L 48.323582 -61.483029 
L 46.931675 -61.483259 
L 45.539767 -61.483183 
L 44.14786 -61.484263 
L 42.755953 -61.485045 
L 41.364045 -61.48391 
L 39.972138 -61.484747 
z
" style="stroke: #000000; stroke-opacity: 0.2"/>
    </defs>
    <g clip-path="url(#pd71a2acb8d)">
     <use xlink:href="#m3944c8cc70" x="0" y="134.806076" style="fill-opacity: 0.2; stroke: #000000; stroke-opacity: 0.2"/>
    </g>
   </g>
   <g id="matplotlib.axis_5">
    <g id="xtick_7">
     <g id="line2d_30">
      <g>
       <use xlink:href="#m1a20d3d3e3" x="53.61283" y="109.036981" style="stroke: #000000; stroke-width: 0.8"/>
      </g>
     </g>
     <g id="text_17">
      <!-- $\mathdefault{10^{-2}}$ -->
      <g transform="translate(44.674121 121.571783) scale(0.08 -0.08)">
       <defs>
        <path id="CMR17-32" d="M 2669 990 
L 2554 990 
C 2490 537 2438 460 2413 422 
C 2381 371 1920 371 1830 371 
L 602 371 
C 832 620 1280 1073 1824 1596 
C 2214 1966 2669 2400 2669 3033 
C 2669 3788 2067 4224 1395 4224 
C 691 4224 262 3603 262 3027 
C 262 2777 448 2745 525 2745 
C 589 2745 781 2783 781 3007 
C 781 3206 614 3264 525 3264 
C 486 3264 448 3257 422 3244 
C 544 3788 915 4057 1306 4057 
C 1862 4057 2227 3616 2227 3033 
C 2227 2477 1901 1998 1536 1583 
L 262 147 
L 262 0 
L 2515 0 
L 2669 990 
z
" transform="scale(0.015625)"/>
       </defs>
       <use xlink:href="#CMR17-31" transform="scale(0.996264)"/>
       <use xlink:href="#CMR17-30" transform="translate(45.690477 0) scale(0.996264)"/>
       <use xlink:href="#CMSY10-0" transform="translate(91.380954 36.153639) scale(0.697382)"/>
       <use xlink:href="#CMR17-32" transform="translate(145.621947 36.153639) scale(0.697382)"/>
      </g>
     </g>
    </g>
    <g id="xtick_8">
     <g id="line2d_31">
      <g>
       <use xlink:href="#m1a20d3d3e3" x="80.894213" y="109.036981" style="stroke: #000000; stroke-width: 0.8"/>
      </g>
     </g>
     <g id="text_18">
      <!-- $\mathdefault{10^{0}}$ -->
      <g transform="translate(74.833574 121.571783) scale(0.08 -0.08)">
       <use xlink:href="#CMR17-31" transform="scale(0.996264)"/>
       <use xlink:href="#CMR17-30" transform="translate(45.690477 0) scale(0.996264)"/>
       <use xlink:href="#CMR17-30" transform="translate(91.380954 36.153639) scale(0.697382)"/>
      </g>
     </g>
    </g>
    <g id="xtick_9">
     <g id="line2d_32">
      <g>
       <use xlink:href="#m1a20d3d3e3" x="108.175596" y="109.036981" style="stroke: #000000; stroke-width: 0.8"/>
      </g>
     </g>
     <g id="text_19">
      <!-- $\mathdefault{10^{2}}$ -->
      <g transform="translate(102.114957 121.571783) scale(0.08 -0.08)">
       <use xlink:href="#CMR17-31" transform="scale(0.996264)"/>
       <use xlink:href="#CMR17-30" transform="translate(45.690477 0) scale(0.996264)"/>
       <use xlink:href="#CMR17-32" transform="translate(91.380954 36.153639) scale(0.697382)"/>
      </g>
     </g>
    </g>
    <g id="text_20">
     <!-- $\sigma_t$ -->
     <g transform="translate(70.229002 129.656331) scale(0.08 -0.08)">
      <defs>
       <path id="CMMI12-1b" d="M 3251 2406 
C 3334 2406 3546 2406 3546 2611 
C 3546 2752 3424 2752 3309 2752 
L 1894 2752 
C 934 2752 243 1685 243 932 
C 243 389 595 -64 1171 -64 
C 1926 -64 2752 746 2752 1704 
C 2752 1953 2694 2195 2541 2406 
L 3251 2406 
z
M 1178 64 
C 851 64 614 312 614 753 
C 614 1136 845 2406 1786 2406 
C 2061 2406 2368 2272 2368 1780 
C 2368 1557 2266 1021 2042 651 
C 1811 274 1466 64 1178 64 
z
" transform="scale(0.015625)"/>
       <path id="CMMI12-74" d="M 1286 2566 
L 1875 2566 
C 1997 2566 2061 2566 2061 2681 
C 2061 2752 2022 2752 1894 2752 
L 1331 2752 
L 1568 3664 
C 1594 3752 1594 3764 1594 3808 
C 1594 3910 1510 3968 1427 3968 
C 1376 3968 1229 3948 1178 3746 
L 928 2752 
L 326 2752 
C 198 2752 141 2752 141 2630 
C 141 2566 186 2566 307 2566 
L 877 2566 
L 454 881 
C 403 657 384 593 384 510 
C 384 210 595 -64 954 -64 
C 1600 -64 1946 868 1946 913 
C 1946 951 1920 970 1882 970 
C 1869 970 1843 970 1830 944 
C 1824 938 1818 932 1773 830 
C 1638 510 1344 64 973 64 
C 781 64 768 223 768 364 
C 768 370 768 491 787 568 
L 1286 2566 
z
" transform="scale(0.015625)"/>
      </defs>
      <use xlink:href="#CMMI12-1b" transform="scale(0.996264)"/>
      <use xlink:href="#CMMI12-74" transform="translate(55.445461 -14.943915) scale(0.697382)"/>
     </g>
    </g>
   </g>
   <g id="matplotlib.axis_6">
    <g id="ytick_6">
     <g id="line2d_33">
      <g>
       <use xlink:href="#m29164f69f2" x="36.561965" y="109.036981" style="stroke: #000000; stroke-width: 0.8"/>
      </g>
     </g>
     <g id="text_21">
      <!-- $10^{-3}$ -->
      <g transform="translate(11.684547 111.804382) scale(0.08 -0.08)">
       <use xlink:href="#CMR17-31" transform="scale(0.996264)"/>
       <use xlink:href="#CMR17-30" transform="translate(45.690477 0) scale(0.996264)"/>
       <use xlink:href="#CMSY10-0" transform="translate(91.380954 36.153639) scale(0.697382)"/>
       <use xlink:href="#CMR17-33" transform="translate(145.621947 36.153639) scale(0.697382)"/>
      </g>
     </g>
    </g>
    <g id="ytick_7">
     <g id="line2d_34">
      <g>
       <use xlink:href="#m29164f69f2" x="36.561965" y="97.070515" style="stroke: #000000; stroke-width: 0.8"/>
      </g>
     </g>
     <g id="text_22">
      <!-- $10^{-2}$ -->
      <g transform="translate(11.684547 99.837916) scale(0.08 -0.08)">
       <use xlink:href="#CMR17-31" transform="scale(0.996264)"/>
       <use xlink:href="#CMR17-30" transform="translate(45.690477 0) scale(0.996264)"/>
       <use xlink:href="#CMSY10-0" transform="translate(91.380954 36.153639) scale(0.697382)"/>
       <use xlink:href="#CMR17-32" transform="translate(145.621947 36.153639) scale(0.697382)"/>
      </g>
     </g>
    </g>
    <g id="ytick_8">
     <g id="line2d_35">
      <g>
       <use xlink:href="#m29164f69f2" x="36.561965" y="73.137582" style="stroke: #000000; stroke-width: 0.8"/>
      </g>
     </g>
     <g id="text_23">
      <!-- $10^{0}$ -->
      <g transform="translate(17.440687 75.904983) scale(0.08 -0.08)">
       <use xlink:href="#CMR17-31" transform="scale(0.996264)"/>
       <use xlink:href="#CMR17-30" transform="translate(45.690477 0) scale(0.996264)"/>
       <use xlink:href="#CMR17-30" transform="translate(91.380954 36.153639) scale(0.697382)"/>
      </g>
     </g>
    </g>
    <g id="text_24">
     <!-- $\mathcal{L}$ -->
     <g transform="translate(9.134802 93.999176) rotate(-90) scale(0.08 -0.08)">
      <use xlink:href="#CMSY10-4c" transform="scale(0.996264)"/>
     </g>
    </g>
   </g>
   <g id="line2d_36">
    <path d="M 39.972138 73.343818 
L 41.364045 73.342958 
L 42.755953 73.343649 
L 44.14786 73.343843 
L 45.539767 73.342937 
L 46.931675 73.343546 
L 48.323582 73.342958 
L 49.715489 73.343979 
L 51.107397 73.343854 
L 52.499304 73.344029 
L 53.891211 73.343919 
L 55.283118 73.344919 
L 56.675026 73.344576 
L 58.066933 73.347368 
L 59.45884 73.368138 
L 60.850748 73.394541 
L 62.242655 73.431498 
L 63.634562 73.480802 
L 65.02647 73.529568 
L 66.418377 73.594211 
L 67.810284 73.61359 
L 69.202192 73.630077 
L 70.594099 73.64305 
L 71.986006 73.64738 
L 73.377913 73.669091 
L 74.769821 73.721028 
L 76.161728 73.772787 
L 77.553635 73.826459 
L 78.945543 73.958568 
L 80.33745 74.877747 
L 81.729357 75.876438 
L 83.121265 76.276004 
L 84.513172 76.47037 
L 85.905079 79.110246 
L 87.296987 82.46785 
L 88.688894 85.078802 
L 90.080801 89.717809 
L 91.472708 94.188769 
L 92.864616 97.736525 
L 94.256523 100.665962 
L 95.64843 102.195732 
L 97.040338 102.915749 
L 98.432245 103.283572 
L 99.824152 103.452358 
L 101.21606 103.504369 
L 102.607967 103.529193 
L 103.999874 103.428829 
L 105.391782 103.291455 
L 106.783689 102.655788 
L 108.175596 102.573119 
" clip-path="url(#pd71a2acb8d)" style="fill: none; stroke: #0000ff; stroke-width: 1.5; stroke-linecap: square"/>
   </g>
   <g id="line2d_37">
    <path d="M 39.972138 73.323373 
L 41.364045 73.323468 
L 42.755953 73.323385 
L 44.14786 73.323448 
L 45.539767 73.323997 
L 46.931675 73.323856 
L 48.323582 73.323878 
L 49.715489 73.32358 
L 51.107397 73.323052 
L 52.499304 73.323441 
L 53.891211 73.323534 
L 55.283118 73.32235 
L 56.675026 73.322777 
L 58.066933 73.321636 
L 59.45884 73.318985 
L 60.850748 73.332208 
L 62.242655 73.358048 
L 63.634562 73.3998 
L 65.02647 73.447038 
L 66.418377 73.504257 
L 67.810284 73.521069 
L 69.202192 73.546104 
L 70.594099 73.558041 
L 71.986006 73.563247 
L 73.377913 73.573387 
L 74.769821 73.611067 
L 76.161728 73.655339 
L 77.553635 73.702491 
L 78.945543 73.818926 
L 80.33745 74.73174 
L 81.729357 75.732956 
L 83.121265 76.127978 
L 84.513172 76.307091 
L 85.905079 78.912632 
L 87.296987 82.259856 
L 88.688894 84.862933 
L 90.080801 89.50431 
L 91.472708 93.967307 
L 92.864616 97.492519 
L 94.256523 100.348893 
L 95.64843 101.799044 
L 97.040338 102.455798 
L 98.432245 102.768614 
L 99.824152 102.886125 
L 101.21606 102.901424 
L 102.607967 102.890766 
L 103.999874 102.76455 
L 105.391782 102.611282 
L 106.783689 102.004542 
L 108.175596 101.903103 
" clip-path="url(#pd71a2acb8d)" style="fill: none; stroke: #000000; stroke-width: 1.5; stroke-linecap: square"/>
   </g>
   <g id="line2d_38">
    <path d="M 39.972138 73.34873 
L 41.364045 73.348087 
L 42.755953 73.349623 
L 44.14786 73.349517 
L 45.539767 73.348075 
L 46.931675 73.34735 
L 48.323582 73.347497 
L 49.715489 73.350756 
L 51.107397 73.354545 
L 52.499304 73.360091 
L 53.891211 73.35855 
L 55.283118 73.356839 
L 56.675026 73.357031 
L 58.066933 73.376101 
L 59.45884 73.391369 
L 60.850748 73.41254 
L 62.242655 73.453749 
L 63.634562 73.508714 
L 65.02647 73.57385 
L 66.418377 73.608382 
L 67.810284 73.633806 
L 69.202192 73.643535 
L 70.594099 73.650383 
L 71.986006 73.652588 
L 73.377913 73.688071 
L 74.769821 73.73305 
L 76.161728 73.79099 
L 77.553635 73.836231 
L 78.945543 73.996859 
L 80.33745 75.192485 
L 81.729357 76.01399 
L 83.121265 76.307786 
L 84.513172 76.546806 
L 85.905079 79.810283 
L 87.296987 82.818106 
L 88.688894 86.093417 
L 90.080801 90.495173 
L 91.472708 95.065089 
L 92.864616 98.786738 
L 94.256523 101.544438 
L 95.64843 102.845611 
L 97.040338 103.368346 
L 98.432245 103.732885 
L 99.824152 103.88581 
L 101.21606 104.00963 
L 102.607967 103.948621 
L 103.999874 104.05527 
L 105.391782 103.974659 
L 106.783689 104.101583 
L 108.175596 103.80824 
" clip-path="url(#pd71a2acb8d)" style="fill: none; stroke-dasharray: 5.55,2.4; stroke-dashoffset: 0; stroke: #0000ff; stroke-width: 1.5"/>
   </g>
   <g id="line2d_39">
    <path d="M 39.972138 73.338397 
L 41.364045 73.338302 
L 42.755953 73.338029 
L 44.14786 73.339429 
L 45.539767 73.339242 
L 46.931675 73.337191 
L 48.323582 73.337138 
L 49.715489 73.338562 
L 51.107397 73.338643 
L 52.499304 73.339431 
L 53.891211 73.340094 
L 55.283118 73.334795 
L 56.675026 73.339897 
L 58.066933 73.339213 
L 59.45884 73.34136 
L 60.850748 73.344016 
L 62.242655 73.342425 
L 63.634562 73.34005 
L 65.02647 73.34353 
L 66.418377 73.544809 
L 67.810284 73.494583 
L 69.202192 73.564862 
L 70.594099 73.626601 
L 71.986006 73.632867 
L 73.377913 73.64263 
L 74.769821 73.706548 
L 76.161728 73.735553 
L 77.553635 73.801108 
L 78.945543 73.920698 
L 80.33745 74.428156 
L 81.729357 75.685843 
L 83.121265 76.224511 
L 84.513172 76.349862 
L 85.905079 78.127765 
L 87.296987 82.074119 
L 88.688894 83.772088 
L 90.080801 88.776149 
L 91.472708 93.319589 
L 92.864616 96.768288 
L 94.256523 99.756477 
L 95.64843 101.593882 
L 97.040338 101.746092 
L 98.432245 102.646625 
L 99.824152 102.876727 
L 101.21606 102.909599 
L 102.607967 102.5377 
L 103.999874 101.668613 
L 105.391782 102.395202 
L 106.783689 99.561462 
L 108.175596 101.641854 
" clip-path="url(#pd71a2acb8d)" style="fill: none; stroke-dasharray: 1.5,2.475; stroke-dashoffset: 0; stroke: #0000ff; stroke-width: 1.5"/>
   </g>
   <g id="line2d_40">
    <path d="M 39.972138 73.325251 
L 41.364045 73.324965 
L 42.755953 73.326039 
L 44.14786 73.325149 
L 45.539767 73.325478 
L 46.931675 73.32551 
L 48.323582 73.324939 
L 49.715489 73.32562 
L 51.107397 73.325136 
L 52.499304 73.325685 
L 53.891211 73.325412 
L 55.283118 73.325203 
L 56.675026 73.325467 
L 58.066933 73.325394 
L 59.45884 73.324947 
L 60.850748 73.339231 
L 62.242655 73.373878 
L 63.634562 73.422369 
L 65.02647 73.482002 
L 66.418377 73.518162 
L 67.810284 73.541673 
L 69.202192 73.554552 
L 70.594099 73.563557 
L 71.986006 73.568178 
L 73.377913 73.583401 
L 74.769821 73.62048 
L 76.161728 73.666002 
L 77.553635 73.709609 
L 78.945543 73.851531 
L 80.33745 75.03942 
L 81.729357 75.8643 
L 83.121265 76.155473 
L 84.513172 76.379794 
L 85.905079 79.617879 
L 87.296987 82.586896 
L 88.688894 85.890253 
L 90.080801 90.289937 
L 91.472708 94.824815 
L 92.864616 98.509398 
L 94.256523 101.197058 
L 95.64843 102.466758 
L 97.040338 102.881125 
L 98.432245 103.172589 
L 99.824152 103.30561 
L 101.21606 103.331896 
L 102.607967 103.287936 
L 103.999874 103.354362 
L 105.391782 103.254043 
L 106.783689 103.265716 
L 108.175596 103.047435 
" clip-path="url(#pd71a2acb8d)" style="fill: none; stroke-dasharray: 5.55,2.4; stroke-dashoffset: 0; stroke: #000000; stroke-width: 1.5"/>
   </g>
   <g id="line2d_41">
    <path d="M 39.972138 73.317383 
L 41.364045 73.318521 
L 42.755953 73.315478 
L 44.14786 73.317565 
L 45.539767 73.320187 
L 46.931675 73.321145 
L 48.323582 73.321301 
L 49.715489 73.316312 
L 51.107397 73.314032 
L 52.499304 73.313236 
L 53.891211 73.314268 
L 55.283118 73.313448 
L 56.675026 73.313236 
L 58.066933 73.30672 
L 59.45884 73.312306 
L 60.850748 73.323676 
L 62.242655 73.325465 
L 63.634562 73.32354 
L 65.02647 73.321294 
L 66.418377 73.46584 
L 67.810284 73.389438 
L 69.202192 73.50238 
L 70.594099 73.55066 
L 71.986006 73.558266 
L 73.377913 73.564442 
L 74.769821 73.60062 
L 76.161728 73.63666 
L 77.553635 73.689887 
L 78.945543 73.785714 
L 80.33745 74.291356 
L 81.729357 75.547237 
L 83.121265 76.081388 
L 84.513172 76.214828 
L 85.905079 77.950088 
L 87.296987 81.882927 
L 88.688894 83.558743 
L 90.080801 88.555544 
L 91.472708 93.097839 
L 92.864616 96.52064 
L 94.256523 99.489703 
L 95.64843 101.275705 
L 97.040338 101.359941 
L 98.432245 102.197201 
L 99.824152 102.294811 
L 101.21606 102.364566 
L 102.607967 101.854411 
L 103.999874 101.094473 
L 105.391782 101.704331 
L 106.783689 99.030052 
L 108.175596 100.984744 
" clip-path="url(#pd71a2acb8d)" style="fill: none; stroke-dasharray: 1.5,2.475; stroke-dashoffset: 0; stroke: #000000; stroke-width: 1.5"/>
   </g>
   <g id="patch_15">
    <path d="M 36.561965 109.036981 
L 36.561965 73.137582 
" style="fill: none; stroke: #000000; stroke-width: 0.8; stroke-linejoin: miter; stroke-linecap: square"/>
   </g>
   <g id="patch_16">
    <path d="M 111.585769 109.036981 
L 111.585769 73.137582 
" style="fill: none; stroke: #000000; stroke-width: 0.8; stroke-linejoin: miter; stroke-linecap: square"/>
   </g>
   <g id="patch_17">
    <path d="M 36.561965 109.036981 
L 111.585769 109.036981 
" style="fill: none; stroke: #000000; stroke-width: 0.8; stroke-linejoin: miter; stroke-linecap: square"/>
   </g>
   <g id="patch_18">
    <path d="M 36.561965 73.137582 
L 111.585769 73.137582 
" style="fill: none; stroke: #000000; stroke-width: 0.8; stroke-linejoin: miter; stroke-linecap: square"/>
   </g>
   <g id="text_25">
    <!-- $\mathbf{c)}$ -->
    <g transform="translate(25.178203 67.016623) scale(0.08 -0.08)">
     <defs>
      <path id="CMBX12-63" d="M 2995 724 
C 2995 801 2925 801 2861 801 
C 2758 801 2752 795 2720 718 
C 2675 596 2502 166 1914 166 
C 1011 166 1011 1141 1011 1430 
C 1011 1808 1018 2649 1856 2649 
C 1901 2649 2278 2636 2278 2604 
C 2278 2598 2272 2591 2259 2585 
C 2240 2566 2157 2469 2157 2309 
C 2157 2039 2374 1930 2534 1930 
C 2669 1930 2912 2014 2912 2315 
C 2912 2841 2176 2880 1830 2880 
C 691 2880 243 2136 243 1398 
C 243 525 851 -64 1792 -64 
C 2797 -64 2995 679 2995 724 
z
" transform="scale(0.015625)"/>
     </defs>
     <use xlink:href="#CMBX12-63" transform="scale(0.996264)"/>
     <use xlink:href="#CMR17-29" transform="translate(49.8132 0) scale(0.996264)"/>
    </g>
   </g>
  </g>
  <g id="axes_4">
   <g id="patch_19">
    <path d="M 137.8441 109.036981 
L 212.867904 109.036981 
L 212.867904 73.137582 
L 137.8441 73.137582 
z
" style="fill: #ffffff"/>
   </g>
   <g id="FillBetweenPolyCollection_7">
    <defs>
     <path id="mdd9047110f" d="M 141.254273 -48.327825 
L 141.254273 -47.16879 
L 142.646181 -47.134273 
L 144.038088 -47.028434 
L 145.429995 -47.132521 
L 146.821903 -47.269663 
L 148.21381 -47.232431 
L 149.605717 -47.285324 
L 150.997624 -47.226979 
L 152.389532 -46.992375 
L 153.781439 -47.355067 
L 155.173346 -47.230752 
L 156.565254 -47.055037 
L 157.957161 -47.091458 
L 159.349068 -47.128362 
L 160.740976 -47.233949 
L 162.132883 -46.931295 
L 163.52479 -46.676728 
L 164.916698 -46.642868 
L 166.308605 -45.197259 
L 167.700512 -44.14684 
L 169.092419 -42.030296 
L 170.484327 -38.512454 
L 171.876234 -37.732599 
L 173.268141 -35.460922 
L 174.660049 -35.671816 
L 176.051956 -34.240106 
L 177.443863 -34.550413 
L 178.835771 -35.05706 
L 180.227678 -33.851198 
L 181.619585 -34.450322 
L 183.011493 -34.479707 
L 184.4034 -34.230321 
L 185.795307 -34.99638 
L 187.187215 -33.398032 
L 188.579122 -34.869709 
L 189.971029 -35.324758 
L 191.362936 -34.767628 
L 192.754844 -35.55957 
L 194.146751 -33.821094 
L 195.538658 -35.933687 
L 196.930566 -36.890605 
L 198.322473 -36.778686 
L 199.71438 -36.845224 
L 201.106288 -38.067276 
L 202.498195 -38.426799 
L 203.890102 -39.02762 
L 205.28201 -39.882379 
L 206.673917 -40.873288 
L 208.065824 -41.29003 
L 209.457731 -42.480746 
L 209.457731 -44.210082 
L 209.457731 -44.210082 
L 208.065824 -44.336055 
L 206.673917 -44.121225 
L 205.28201 -42.866796 
L 203.890102 -42.147939 
L 202.498195 -40.999175 
L 201.106288 -41.461683 
L 199.71438 -41.14518 
L 198.322473 -40.879841 
L 196.930566 -40.947032 
L 195.538658 -40.308955 
L 194.146751 -40.374988 
L 192.754844 -38.2074 
L 191.362936 -38.215861 
L 189.971029 -38.631788 
L 188.579122 -39.287841 
L 187.187215 -39.078826 
L 185.795307 -37.279083 
L 184.4034 -38.602377 
L 183.011493 -37.302575 
L 181.619585 -37.884379 
L 180.227678 -36.924963 
L 178.835771 -37.646652 
L 177.443863 -37.546693 
L 176.051956 -38.008537 
L 174.660049 -37.561421 
L 173.268141 -40.51012 
L 171.876234 -40.865951 
L 170.484327 -44.145973 
L 169.092419 -44.531109 
L 167.700512 -45.996035 
L 166.308605 -47.747448 
L 164.916698 -47.247438 
L 163.52479 -48.340934 
L 162.132883 -48.169289 
L 160.740976 -48.13136 
L 159.349068 -47.987191 
L 157.957161 -48.541786 
L 156.565254 -48.197391 
L 155.173346 -48.280029 
L 153.781439 -47.665564 
L 152.389532 -48.350405 
L 150.997624 -47.817908 
L 149.605717 -47.838586 
L 148.21381 -48.341697 
L 146.821903 -48.132363 
L 145.429995 -48.252413 
L 144.038088 -48.424819 
L 142.646181 -48.369104 
L 141.254273 -48.327825 
z
" style="stroke: #0000ff; stroke-opacity: 0.2"/>
    </defs>
    <g clip-path="url(#pb14e572daa)">
     <use xlink:href="#mdd9047110f" x="0" y="134.806076" style="fill: #0000ff; fill-opacity: 0.2; stroke: #0000ff; stroke-opacity: 0.2"/>
    </g>
   </g>
   <g id="FillBetweenPolyCollection_8">
    <defs>
     <path id="m1f1e72533c" d="M 141.254273 -48.645274 
L 141.254273 -47.38798 
L 142.646181 -47.345958 
L 144.038088 -47.244962 
L 145.429995 -47.374514 
L 146.821903 -47.508953 
L 148.21381 -47.473199 
L 149.605717 -47.518292 
L 150.997624 -47.471469 
L 152.389532 -47.225875 
L 153.781439 -47.599727 
L 155.173346 -47.467898 
L 156.565254 -47.29557 
L 157.957161 -47.321245 
L 159.349068 -47.371703 
L 160.740976 -47.487472 
L 162.132883 -47.161346 
L 163.52479 -46.881427 
L 164.916698 -46.876271 
L 166.308605 -45.356823 
L 167.700512 -44.391285 
L 169.092419 -42.219567 
L 170.484327 -38.724877 
L 171.876234 -38.016916 
L 173.268141 -35.742057 
L 174.660049 -36.076075 
L 176.051956 -34.661736 
L 177.443863 -35.07525 
L 178.835771 -35.578985 
L 180.227678 -34.405558 
L 181.619585 -35.028736 
L 183.011493 -35.064057 
L 184.4034 -34.772525 
L 185.795307 -35.629075 
L 187.187215 -33.944815 
L 188.579122 -35.450455 
L 189.971029 -36.015272 
L 191.362936 -35.519562 
L 192.754844 -36.309673 
L 194.146751 -34.415995 
L 195.538658 -36.71749 
L 196.930566 -37.747606 
L 198.322473 -37.676062 
L 199.71438 -37.806655 
L 201.106288 -39.032563 
L 202.498195 -39.468389 
L 203.890102 -40.078786 
L 205.28201 -40.978869 
L 206.673917 -41.937196 
L 208.065824 -42.449365 
L 209.457731 -43.587211 
L 209.457731 -45.483538 
L 209.457731 -45.483538 
L 208.065824 -45.623113 
L 206.673917 -45.401666 
L 205.28201 -44.086911 
L 203.890102 -43.309561 
L 202.498195 -42.118521 
L 201.106288 -42.639318 
L 199.71438 -42.231417 
L 198.322473 -41.992066 
L 196.930566 -41.915651 
L 195.538658 -41.358545 
L 194.146751 -41.445278 
L 192.754844 -39.06416 
L 191.362936 -39.07883 
L 189.971029 -39.549172 
L 188.579122 -40.17626 
L 187.187215 -39.951838 
L 185.795307 -38.014261 
L 184.4034 -39.397025 
L 183.011493 -37.983564 
L 181.619585 -38.592875 
L 180.227678 -37.519081 
L 178.835771 -38.240192 
L 177.443863 -38.11225 
L 176.051956 -38.564437 
L 174.660049 -37.99265 
L 173.268141 -40.92494 
L 171.876234 -41.19157 
L 170.484327 -44.42103 
L 169.092419 -44.83265 
L 167.700512 -46.258718 
L 166.308605 -48.094185 
L 164.916698 -47.524839 
L 163.52479 -48.68011 
L 162.132883 -48.460758 
L 160.740976 -48.393924 
L 159.349068 -48.243617 
L 157.957161 -48.879023 
L 156.565254 -48.468861 
L 155.173346 -48.564739 
L 153.781439 -47.916829 
L 152.389532 -48.639715 
L 150.997624 -48.104328 
L 149.605717 -48.10806 
L 148.21381 -48.634691 
L 146.821903 -48.422836 
L 145.429995 -48.527581 
L 144.038088 -48.746129 
L 142.646181 -48.708403 
L 141.254273 -48.645274 
z
" style="stroke: #000000; stroke-opacity: 0.2"/>
    </defs>
    <g clip-path="url(#pb14e572daa)">
     <use xlink:href="#m1f1e72533c" x="0" y="134.806076" style="fill-opacity: 0.2; stroke: #000000; stroke-opacity: 0.2"/>
    </g>
   </g>
   <g id="matplotlib.axis_7">
    <g id="xtick_10">
     <g id="line2d_42">
      <g>
       <use xlink:href="#m1a20d3d3e3" x="154.894965" y="109.036981" style="stroke: #000000; stroke-width: 0.8"/>
      </g>
     </g>
     <g id="text_26">
      <!-- $\mathdefault{10^{-2}}$ -->
      <g transform="translate(145.956256 121.571783) scale(0.08 -0.08)">
       <use xlink:href="#CMR17-31" transform="scale(0.996264)"/>
       <use xlink:href="#CMR17-30" transform="translate(45.690477 0) scale(0.996264)"/>
       <use xlink:href="#CMSY10-0" transform="translate(91.380954 36.153639) scale(0.697382)"/>
       <use xlink:href="#CMR17-32" transform="translate(145.621947 36.153639) scale(0.697382)"/>
      </g>
     </g>
    </g>
    <g id="xtick_11">
     <g id="line2d_43">
      <g>
       <use xlink:href="#m1a20d3d3e3" x="182.176348" y="109.036981" style="stroke: #000000; stroke-width: 0.8"/>
      </g>
     </g>
     <g id="text_27">
      <!-- $\mathdefault{10^{0}}$ -->
      <g transform="translate(176.115709 121.571783) scale(0.08 -0.08)">
       <use xlink:href="#CMR17-31" transform="scale(0.996264)"/>
       <use xlink:href="#CMR17-30" transform="translate(45.690477 0) scale(0.996264)"/>
       <use xlink:href="#CMR17-30" transform="translate(91.380954 36.153639) scale(0.697382)"/>
      </g>
     </g>
    </g>
    <g id="xtick_12">
     <g id="line2d_44">
      <g>
       <use xlink:href="#m1a20d3d3e3" x="209.457731" y="109.036981" style="stroke: #000000; stroke-width: 0.8"/>
      </g>
     </g>
     <g id="text_28">
      <!-- $\mathdefault{10^{2}}$ -->
      <g transform="translate(203.397092 121.571783) scale(0.08 -0.08)">
       <use xlink:href="#CMR17-31" transform="scale(0.996264)"/>
       <use xlink:href="#CMR17-30" transform="translate(45.690477 0) scale(0.996264)"/>
       <use xlink:href="#CMR17-32" transform="translate(91.380954 36.153639) scale(0.697382)"/>
      </g>
     </g>
    </g>
    <g id="text_29">
     <!-- $\sigma_t$ -->
     <g transform="translate(171.511137 129.656331) scale(0.08 -0.08)">
      <use xlink:href="#CMMI12-1b" transform="scale(0.996264)"/>
      <use xlink:href="#CMMI12-74" transform="translate(55.445461 -14.943915) scale(0.697382)"/>
     </g>
    </g>
   </g>
   <g id="matplotlib.axis_8">
    <g id="ytick_9">
     <g id="line2d_45">
      <g>
       <use xlink:href="#m29164f69f2" x="137.8441" y="109.036981" style="stroke: #000000; stroke-width: 0.8"/>
      </g>
     </g>
     <g id="text_30">
      <!-- $10^{-4}$ -->
      <g transform="translate(112.966683 111.804382) scale(0.08 -0.08)">
       <defs>
        <path id="CMR17-34" d="M 2150 4147 
C 2150 4281 2144 4288 2029 4288 
L 128 1254 
L 128 1088 
L 1779 1088 
L 1779 460 
C 1779 230 1766 166 1318 166 
L 1197 166 
L 1197 0 
C 1402 12 1747 12 1965 12 
C 2182 12 2528 12 2733 0 
L 2733 166 
L 2611 166 
C 2163 166 2150 230 2150 460 
L 2150 1088 
L 2803 1088 
L 2803 1254 
L 2150 1254 
L 2150 4147 
z
M 1798 3723 
L 1798 1254 
L 256 1254 
L 1798 3723 
z
" transform="scale(0.015625)"/>
       </defs>
       <use xlink:href="#CMR17-31" transform="scale(0.996264)"/>
       <use xlink:href="#CMR17-30" transform="translate(45.690477 0) scale(0.996264)"/>
       <use xlink:href="#CMSY10-0" transform="translate(91.380954 36.153639) scale(0.697382)"/>
       <use xlink:href="#CMR17-34" transform="translate(145.621947 36.153639) scale(0.697382)"/>
      </g>
     </g>
    </g>
    <g id="ytick_10">
     <g id="line2d_46">
      <g>
       <use xlink:href="#m29164f69f2" x="137.8441" y="91.087282" style="stroke: #000000; stroke-width: 0.8"/>
      </g>
     </g>
     <g id="text_31">
      <!-- $10^{-3}$ -->
      <g transform="translate(112.966683 93.854683) scale(0.08 -0.08)">
       <use xlink:href="#CMR17-31" transform="scale(0.996264)"/>
       <use xlink:href="#CMR17-30" transform="translate(45.690477 0) scale(0.996264)"/>
       <use xlink:href="#CMSY10-0" transform="translate(91.380954 36.153639) scale(0.697382)"/>
       <use xlink:href="#CMR17-33" transform="translate(145.621947 36.153639) scale(0.697382)"/>
      </g>
     </g>
    </g>
    <g id="ytick_11">
     <g id="line2d_47">
      <g>
       <use xlink:href="#m29164f69f2" x="137.8441" y="73.137582" style="stroke: #000000; stroke-width: 0.8"/>
      </g>
     </g>
     <g id="text_32">
      <!-- $10^{-2}$ -->
      <g transform="translate(112.966683 75.904983) scale(0.08 -0.08)">
       <use xlink:href="#CMR17-31" transform="scale(0.996264)"/>
       <use xlink:href="#CMR17-30" transform="translate(45.690477 0) scale(0.996264)"/>
       <use xlink:href="#CMSY10-0" transform="translate(91.380954 36.153639) scale(0.697382)"/>
       <use xlink:href="#CMR17-32" transform="translate(145.621947 36.153639) scale(0.697382)"/>
      </g>
     </g>
    </g>
   </g>
   <g id="line2d_48">
    <path d="M 141.254273 87.036248 
L 142.646181 87.029963 
L 144.038088 87.048225 
L 145.429995 87.093516 
L 146.821903 87.093136 
L 148.21381 86.999298 
L 149.605717 87.239215 
L 150.997624 87.278035 
L 152.389532 87.105151 
L 153.781439 87.294215 
L 155.173346 87.033045 
L 156.565254 87.158956 
L 157.957161 86.955774 
L 159.349068 87.236479 
L 160.740976 87.110515 
L 162.132883 87.231234 
L 163.52479 87.25292 
L 164.916698 87.855064 
L 166.308605 88.229902 
L 167.700512 89.679935 
L 169.092419 91.425517 
L 170.484327 92.978671 
L 171.876234 95.35042 
L 173.268141 96.418705 
L 174.660049 98.132343 
L 176.051956 98.456224 
L 177.443863 98.614444 
L 178.835771 98.347181 
L 180.227678 99.267468 
L 181.619585 98.451138 
L 183.011493 98.787851 
L 184.4034 98.087156 
L 185.795307 98.585088 
L 187.187215 98.061236 
L 188.579122 97.418402 
L 189.971029 97.653737 
L 191.362936 98.125205 
L 192.754844 97.810706 
L 194.146751 97.038654 
L 195.538658 96.381745 
L 196.930566 95.626333 
L 198.322473 95.710167 
L 199.71438 95.518078 
L 201.106288 94.858283 
L 202.498195 94.987462 
L 203.890102 94.063205 
L 205.28201 93.289533 
L 206.673917 92.140875 
L 208.065824 91.845194 
L 209.457731 91.412806 
" clip-path="url(#pb14e572daa)" style="fill: none; stroke: #0000ff; stroke-width: 1.5; stroke-linecap: square"/>
   </g>
   <g id="line2d_49">
    <path d="M 141.254273 86.764129 
L 142.646181 86.749169 
L 144.038088 86.774452 
L 145.429995 86.833729 
L 146.821903 86.826798 
L 148.21381 86.730519 
L 149.605717 86.987325 
L 150.997624 87.011757 
L 152.389532 86.841272 
L 153.781439 87.046186 
L 155.173346 86.770483 
L 156.565254 86.901807 
L 157.957161 86.667095 
L 159.349068 86.986232 
L 160.740976 86.852211 
L 162.132883 86.967981 
L 163.52479 86.973546 
L 164.916698 87.598779 
L 166.308605 87.961032 
L 167.700512 89.425289 
L 169.092419 91.170986 
L 170.484327 92.724028 
L 171.876234 95.04133 
L 173.268141 96.049549 
L 174.660049 97.712961 
L 176.051956 97.951269 
L 177.443863 98.065356 
L 178.835771 97.783475 
L 180.227678 98.689336 
L 181.619585 97.793327 
L 183.011493 98.146382 
L 184.4034 97.383291 
L 185.795307 97.893537 
L 187.187215 97.292912 
L 188.579122 96.639959 
L 189.971029 96.825294 
L 191.362936 97.305483 
L 192.754844 96.998127 
L 194.146751 96.10861 
L 195.538658 95.427659 
L 196.930566 94.699135 
L 198.322473 94.677053 
L 199.71438 94.477225 
L 201.106288 93.763376 
L 202.498195 93.900543 
L 203.890102 92.945716 
L 205.28201 92.119305 
L 206.673917 90.945748 
L 208.065824 90.609426 
L 209.457731 90.213181 
" clip-path="url(#pb14e572daa)" style="fill: none; stroke: #000000; stroke-width: 1.5; stroke-linecap: square"/>
   </g>
   <g id="line2d_50">
    <path d="M 141.254273 87.587328 
L 142.646181 87.549505 
L 144.038088 87.605123 
L 145.429995 87.5858 
L 146.821903 87.50803 
L 148.21381 87.50186 
L 149.605717 87.58213 
L 150.997624 87.65091 
L 152.389532 87.592741 
L 153.781439 87.614688 
L 155.173346 87.640067 
L 156.565254 87.614354 
L 157.957161 87.610206 
L 159.349068 87.585944 
L 160.740976 87.728141 
L 162.132883 87.812619 
L 163.52479 87.892714 
L 164.916698 88.28233 
L 166.308605 89.132837 
L 167.700512 90.677688 
L 169.092419 92.589621 
L 170.484327 94.694582 
L 171.876234 97.11518 
L 173.268141 98.759676 
L 174.660049 99.251216 
L 176.051956 100.975975 
L 177.443863 100.614514 
L 178.835771 100.723875 
L 180.227678 101.106052 
L 181.619585 100.501195 
L 183.011493 100.79348 
L 184.4034 100.808023 
L 185.795307 100.393868 
L 187.187215 101.070346 
L 188.579122 100.442421 
L 189.971029 99.98831 
L 191.362936 100.601487 
L 192.754844 99.634511 
L 194.146751 99.865574 
L 195.538658 99.449753 
L 196.930566 98.578951 
L 198.322473 99.614833 
L 199.71438 97.769474 
L 201.106288 97.03185 
L 202.498195 97.406268 
L 203.890102 96.745803 
L 205.28201 95.685415 
L 206.673917 94.835336 
L 208.065824 93.865414 
L 209.457731 93.282835 
" clip-path="url(#pb14e572daa)" style="fill: none; stroke-dasharray: 5.55,2.4; stroke-dashoffset: 0; stroke: #0000ff; stroke-width: 1.5"/>
   </g>
   <g id="line2d_51">
    <path d="M 141.254273 85.493035 
L 142.646181 85.141088 
L 144.038088 85.079663 
L 145.429995 85.480259 
L 146.821903 85.632696 
L 148.21381 85.038978 
L 149.605717 86.299222 
L 150.997624 86.28279 
L 152.389532 84.551869 
L 153.781439 86.88769 
L 155.173346 85.196263 
L 156.565254 84.965748 
L 157.957161 84.807898 
L 159.349068 85.489168 
L 160.740976 86.034122 
L 162.132883 84.856792 
L 163.52479 84.394164 
L 164.916698 86.989547 
L 166.308605 83.520142 
L 167.700512 86.943154 
L 169.092419 87.99305 
L 170.484327 86.587054 
L 171.876234 91.208075 
L 173.268141 89.319084 
L 174.660049 95.713544 
L 176.051956 94.158716 
L 177.443863 94.640841 
L 178.835771 95.580908 
L 180.227678 94.816699 
L 181.619585 93.640905 
L 183.011493 95.715048 
L 184.4034 93.523829 
L 185.795307 95.686904 
L 187.187215 91.155725 
L 188.579122 92.26715 
L 189.971029 94.395262 
L 191.362936 94.487867 
L 192.754844 94.646818 
L 194.146751 90.156105 
L 195.538658 91.827464 
L 196.930566 91.971358 
L 198.322473 91.82469 
L 199.71438 91.587428 
L 201.106288 91.456444 
L 202.498195 92.171701 
L 203.890102 90.463061 
L 205.28201 89.902031 
L 206.673917 88.120465 
L 208.065824 89.298292 
L 209.457731 89.975747 
" clip-path="url(#pb14e572daa)" style="fill: none; stroke-dasharray: 1.5,2.475; stroke-dashoffset: 0; stroke: #0000ff; stroke-width: 1.5"/>
   </g>
   <g id="line2d_52">
    <path d="M 141.254273 87.317819 
L 142.646181 87.315578 
L 144.038088 87.384946 
L 145.429995 87.326616 
L 146.821903 87.259743 
L 148.21381 87.248475 
L 149.605717 87.336252 
L 150.997624 87.396791 
L 152.389532 87.358504 
L 153.781439 87.355052 
L 155.173346 87.381801 
L 156.565254 87.386204 
L 157.957161 87.353599 
L 159.349068 87.339196 
L 160.740976 87.486689 
L 162.132883 87.541565 
L 163.52479 87.634842 
L 164.916698 88.032552 
L 166.308605 88.864174 
L 167.700512 90.471936 
L 169.092419 92.342502 
L 170.484327 94.427973 
L 171.876234 96.830728 
L 173.268141 98.293481 
L 174.660049 98.872104 
L 176.051956 100.479583 
L 177.443863 100.102668 
L 178.835771 100.20112 
L 180.227678 100.484064 
L 181.619585 99.799123 
L 183.011493 100.1748 
L 184.4034 100.173711 
L 185.795307 99.627035 
L 187.187215 100.307577 
L 188.579122 99.670482 
L 189.971029 99.425284 
L 191.362936 99.728821 
L 192.754844 98.872802 
L 194.146751 99.015355 
L 195.538658 98.55471 
L 196.930566 97.782589 
L 198.322473 98.643216 
L 199.71438 96.824772 
L 201.106288 96.001069 
L 202.498195 96.356469 
L 203.890102 95.705332 
L 205.28201 94.591469 
L 206.673917 93.769349 
L 208.065824 92.759945 
L 209.457731 92.248574 
" clip-path="url(#pb14e572daa)" style="fill: none; stroke-dasharray: 5.55,2.4; stroke-dashoffset: 0; stroke: #000000; stroke-width: 1.5"/>
   </g>
   <g id="line2d_53">
    <path d="M 141.254273 85.038963 
L 142.646181 84.662961 
L 144.038088 84.563351 
L 145.429995 85.183402 
L 146.821903 85.303007 
L 148.21381 84.720158 
L 149.605717 86.013272 
L 150.997624 85.958324 
L 152.389532 84.223341 
L 153.781439 86.657655 
L 155.173346 84.823798 
L 156.565254 84.667099 
L 157.957161 84.382691 
L 159.349068 85.228366 
L 160.740976 85.777526 
L 162.132883 84.525993 
L 163.52479 83.899842 
L 164.916698 86.683944 
L 166.308605 83.006955 
L 167.700512 86.691387 
L 169.092419 87.646598 
L 170.484327 86.251619 
L 171.876234 90.879564 
L 173.268141 88.836101 
L 174.660049 95.280381 
L 176.051956 93.491692 
L 177.443863 94.016437 
L 178.835771 94.744439 
L 180.227678 94.171945 
L 181.619585 92.877101 
L 183.011493 94.899898 
L 184.4034 92.612576 
L 185.795307 94.676932 
L 187.187215 90.079924 
L 188.579122 91.161426 
L 189.971029 93.3775 
L 191.362936 93.620467 
L 192.754844 93.573768 
L 194.146751 88.935638 
L 195.538658 90.667766 
L 196.930566 91.139635 
L 198.322473 90.605035 
L 199.71438 90.35928 
L 201.106288 90.222549 
L 202.498195 91.012491 
L 203.890102 89.194428 
L 205.28201 88.614868 
L 206.673917 86.63638 
L 208.065824 87.962307 
L 209.457731 88.494555 
" clip-path="url(#pb14e572daa)" style="fill: none; stroke-dasharray: 1.5,2.475; stroke-dashoffset: 0; stroke: #000000; stroke-width: 1.5"/>
   </g>
   <g id="patch_20">
    <path d="M 137.8441 109.036981 
L 137.8441 73.137582 
" style="fill: none; stroke: #000000; stroke-width: 0.8; stroke-linejoin: miter; stroke-linecap: square"/>
   </g>
   <g id="patch_21">
    <path d="M 212.867904 109.036981 
L 212.867904 73.137582 
" style="fill: none; stroke: #000000; stroke-width: 0.8; stroke-linejoin: miter; stroke-linecap: square"/>
   </g>
   <g id="patch_22">
    <path d="M 137.8441 109.036981 
L 212.867904 109.036981 
" style="fill: none; stroke: #000000; stroke-width: 0.8; stroke-linejoin: miter; stroke-linecap: square"/>
   </g>
   <g id="patch_23">
    <path d="M 137.8441 73.137582 
L 212.867904 73.137582 
" style="fill: none; stroke: #000000; stroke-width: 0.8; stroke-linejoin: miter; stroke-linecap: square"/>
   </g>
   <g id="text_33">
    <!-- $\mathbf{d)}$ -->
    <g transform="translate(125.375509 67.016623) scale(0.08 -0.08)">
     <defs>
      <path id="CMBX12-64" d="M 2221 4428 
L 2221 4153 
C 2618 4153 2662 4153 2662 3896 
L 2662 2571 
C 2522 2694 2240 2880 1798 2880 
C 890 2880 243 2313 243 1408 
C 243 483 877 -64 1728 -64 
C 2080 -64 2381 57 2630 270 
L 2630 -64 
L 3770 -26 
L 3770 250 
C 3373 250 3328 250 3328 502 
L 3328 4480 
L 2221 4428 
z
M 2630 625 
C 2362 231 2035 147 1805 147 
C 1011 147 1011 968 1011 1395 
C 1011 1699 1011 2022 1152 2268 
C 1350 2630 1728 2668 1875 2668 
C 2138 2668 2419 2552 2630 2268 
L 2630 625 
z
" transform="scale(0.015625)"/>
     </defs>
     <use xlink:href="#CMBX12-64" transform="scale(0.996264)"/>
     <use xlink:href="#CMR17-29" transform="translate(62.266501 0) scale(0.996264)"/>
    </g>
   </g>
  </g>
 </g>
 <defs>
  <clipPath id="paf23e1afbb">
   <rect x="36.561965" y="15.698543" width="75.023804" height="35.899399"/>
  </clipPath>
  <clipPath id="p1d8f49e223">
   <rect x="137.8441" y="15.698543" width="75.023804" height="35.899399"/>
  </clipPath>
  <clipPath id="pd71a2acb8d">
   <rect x="36.561965" y="73.137582" width="75.023804" height="35.899399"/>
  </clipPath>
  <clipPath id="pb14e572daa">
   <rect x="137.8441" y="73.137582" width="75.023804" height="35.899399"/>
  </clipPath>
 </defs>
</svg>
