<?xml version="1.0" encoding="utf-8" standalone="no"?>
<!DOCTYPE svg PUBLIC "-//W3C//DTD SVG 1.1//EN"
  "http://www.w3.org/Graphics/SVG/1.1/DTD/svg11.dtd">
<svg xmlns:xlink="http://www.w3.org/1999/xlink" width="220.29457pt" height="134.806076pt" viewBox="0 0 220.29457 134.806076" xmlns="http://www.w3.org/2000/svg" version="1.1">
 <metadata>
  <rdf:RDF xmlns:dc="http://purl.org/dc/elements/1.1/" xmlns:cc="http://creativecommons.org/ns#" xmlns:rdf="http://www.w3.org/1999/02/22-rdf-syntax-ns#">
   <cc:Work>
    <dc:type rdf:resource="http://purl.org/dc/dcmitype/StillImage"/>
    <dc:date>2025-09-20T15:44:32.858038</dc:date>
    <dc:format>image/svg+xml</dc:format>
    <dc:creator>
     <cc:Agent>
      <dc:title>Matplotlib v3.10.0, https://matplotlib.org/</dc:title>
     </cc:Agent>
    </dc:creator>
   </cc:Work>
  </rdf:RDF>
 </metadata>
 <defs>
  <style type="text/css">*{stroke-linejoin: round; stroke-linecap: butt}</style>
 </defs>
 <g id="figure_1">
  <g id="patch_1">
   <path d="M 0 134.806076 
L 220.29457 134.806076 
L 220.29457 0 
L 0 0 
z
" style="fill: #ffffff"/>
  </g>
  <g id="axes_1">
   <g id="patch_2">
    <path d="M 37.44753 51.597942 
L 112.471334 51.597942 
L 112.471334 15.698543 
L 37.44753 15.698543 
z
" style="fill: #ffffff"/>
   </g>
   <g id="FillBetweenPolyCollection_1">
    <defs>
     <path id="m9739ba99d4" d="M 40.857703 -102.829629 
L 40.857703 -96.021097 
L 40.857883 -98.993119 
L 40.858112 -98.917452 
L 40.858401 -98.209355 
L 40.858766 -98.18147 
L 40.859229 -97.916386 
L 40.859814 -98.967068 
L 40.860553 -98.575454 
L 40.861489 -98.875518 
L 40.862672 -98.382748 
L 40.864169 -98.935016 
L 40.866063 -98.765758 
L 40.868457 -98.675334 
L 40.871486 -98.452605 
L 40.875318 -98.844822 
L 40.880164 -98.732704 
L 40.886293 -98.309343 
L 40.894046 -97.983519 
L 40.903853 -98.316287 
L 40.916257 -98.537608 
L 40.931946 -98.591117 
L 40.95179 -98.251326 
L 40.97689 -99.190246 
L 41.008638 -99.176631 
L 41.048795 -99.368009 
L 41.099587 -99.159363 
L 41.163832 -99.023319 
L 41.245093 -99.006965 
L 41.347876 -98.814887 
L 41.477882 -98.695535 
L 41.64232 -98.847295 
L 41.850311 -98.690652 
L 42.113389 -98.94935 
L 42.446144 -98.850587 
L 42.867032 -98.876375 
L 43.399394 -98.382865 
L 44.072755 -98.721487 
L 44.924459 -98.979848 
L 46.001741 -98.481639 
L 47.364347 -98.81378 
L 49.087846 -98.78624 
L 51.267823 -98.84539 
L 54.025178 -98.497192 
L 57.512834 -98.305897 
L 61.924213 -98.315643 
L 67.503969 -98.165958 
L 74.561552 -98.19515 
L 83.488373 -98.348715 
L 94.779509 -98.333593 
L 109.061161 -98.161124 
L 109.061161 -99.500836 
L 109.061161 -99.500836 
L 94.779509 -99.578133 
L 83.488373 -99.792379 
L 74.561552 -99.664745 
L 67.503969 -99.561457 
L 61.924213 -99.588039 
L 57.512834 -99.800413 
L 54.025178 -99.958554 
L 51.267823 -99.984389 
L 49.087846 -100.201034 
L 47.364347 -100.07348 
L 46.001741 -100.026731 
L 44.924459 -100.052533 
L 44.072755 -100.060115 
L 43.399394 -100.110853 
L 42.867032 -99.947844 
L 42.446144 -100.04702 
L 42.113389 -100.207668 
L 41.850311 -100.100015 
L 41.64232 -100.011345 
L 41.477882 -100.096078 
L 41.347876 -100.002784 
L 41.245093 -100.232254 
L 41.163832 -100.277156 
L 41.099587 -100.340244 
L 41.048795 -100.511229 
L 41.008638 -100.449824 
L 40.97689 -100.7653 
L 40.95179 -100.255163 
L 40.931946 -100.283072 
L 40.916257 -100.118613 
L 40.903853 -100.007761 
L 40.894046 -100.114186 
L 40.886293 -99.823046 
L 40.880164 -99.982008 
L 40.875318 -100.147286 
L 40.871486 -99.892648 
L 40.868457 -100.202497 
L 40.866063 -100.094881 
L 40.864169 -100.127151 
L 40.862672 -100.093572 
L 40.861489 -100.188499 
L 40.860553 -100.341353 
L 40.859814 -100.345211 
L 40.859229 -100.122958 
L 40.858766 -100.16069 
L 40.858401 -100.047086 
L 40.858112 -100.279156 
L 40.857883 -100.180349 
L 40.857703 -102.829629 
z
" style="stroke: #0000ff; stroke-opacity: 0.2"/>
    </defs>
    <g clip-path="url(#p91aa66b719)">
     <use xlink:href="#m9739ba99d4" x="0" y="134.806076" style="fill: #0000ff; fill-opacity: 0.2; stroke: #0000ff; stroke-opacity: 0.2"/>
    </g>
   </g>
   <g id="FillBetweenPolyCollection_2">
    <defs>
     <path id="me7c23b5a2f" d="M 40.857703 -95.992268 
L 40.857703 -95.541493 
L 40.857883 -95.462585 
L 40.858112 -95.594277 
L 40.858401 -95.649599 
L 40.858766 -95.625328 
L 40.859229 -95.664612 
L 40.859814 -95.238517 
L 40.860553 -95.141194 
L 40.861489 -95.649726 
L 40.862672 -94.683801 
L 40.864169 -95.681513 
L 40.866063 -95.628904 
L 40.868457 -95.616615 
L 40.871486 -95.507098 
L 40.875318 -95.586615 
L 40.880164 -95.164784 
L 40.886293 -95.202766 
L 40.894046 -95.607337 
L 40.903853 -94.238437 
L 40.916257 -95.544383 
L 40.931946 -94.935043 
L 40.95179 -95.56975 
L 40.97689 -94.951786 
L 41.008638 -95.432748 
L 41.048795 -95.551098 
L 41.099587 -95.647457 
L 41.163832 -95.599217 
L 41.245093 -95.598361 
L 41.347876 -95.615367 
L 41.477882 -95.578372 
L 41.64232 -95.640451 
L 41.850311 -95.620111 
L 42.113389 -95.614857 
L 42.446144 -95.10443 
L 42.867032 -95.409578 
L 43.399394 -95.251607 
L 44.072755 -95.633085 
L 44.924459 -95.041868 
L 46.001741 -95.006264 
L 47.364347 -95.579538 
L 49.087846 -95.574531 
L 51.267823 -95.632921 
L 54.025178 -95.644832 
L 57.512834 -94.915661 
L 61.924213 -95.635906 
L 67.503969 -95.206345 
L 74.561552 -95.595989 
L 83.488373 -95.587722 
L 94.779509 -95.325587 
L 109.061161 -95.58947 
L 109.061161 -96.042944 
L 109.061161 -96.042944 
L 94.779509 -96.376917 
L 83.488373 -95.978437 
L 74.561552 -95.877694 
L 67.503969 -96.515039 
L 61.924213 -95.884539 
L 57.512834 -96.876946 
L 54.025178 -95.840275 
L 51.267823 -95.85097 
L 49.087846 -95.921227 
L 47.364347 -95.966723 
L 46.001741 -96.716239 
L 44.924459 -96.742252 
L 44.072755 -95.850291 
L 43.399394 -96.418428 
L 42.867032 -96.267109 
L 42.446144 -96.673835 
L 42.113389 -95.899629 
L 41.850311 -95.872638 
L 41.64232 -95.889537 
L 41.477882 -95.873519 
L 41.347876 -95.906653 
L 41.245093 -95.936823 
L 41.163832 -95.911205 
L 41.099587 -95.916601 
L 41.048795 -96.060135 
L 41.008638 -96.383831 
L 40.97689 -96.865456 
L 40.95179 -95.981111 
L 40.931946 -96.86416 
L 40.916257 -96.14704 
L 40.903853 -97.532043 
L 40.894046 -95.881141 
L 40.886293 -96.507946 
L 40.880164 -96.649265 
L 40.875318 -95.987645 
L 40.871486 -96.078229 
L 40.868457 -95.964143 
L 40.866063 -95.887835 
L 40.864169 -95.86011 
L 40.862672 -97.146085 
L 40.861489 -95.927003 
L 40.860553 -96.641286 
L 40.859814 -96.446969 
L 40.859229 -95.918943 
L 40.858766 -95.916316 
L 40.858401 -95.878366 
L 40.858112 -95.919305 
L 40.857883 -96.217672 
L 40.857703 -95.992268 
z
" style="stroke: #000000; stroke-opacity: 0.2"/>
    </defs>
    <g clip-path="url(#p91aa66b719)">
     <use xlink:href="#me7c23b5a2f" x="0" y="134.806076" style="fill-opacity: 0.2; stroke: #000000; stroke-opacity: 0.2"/>
    </g>
   </g>
   <g id="matplotlib.axis_1">
    <g id="xtick_1">
     <g id="line2d_1">
      <defs>
       <path id="m935904d9a7" d="M 0 0 
L 0 3.5 
" style="stroke: #000000; stroke-width: 0.8"/>
      </defs>
      <g>
       <use xlink:href="#m935904d9a7" x="40.857021" y="51.597942" style="stroke: #000000; stroke-width: 0.8"/>
      </g>
     </g>
    </g>
    <g id="xtick_2">
     <g id="line2d_2">
      <g>
       <use xlink:href="#m935904d9a7" x="74.959091" y="51.597942" style="stroke: #000000; stroke-width: 0.8"/>
      </g>
     </g>
    </g>
    <g id="xtick_3">
     <g id="line2d_3">
      <g>
       <use xlink:href="#m935904d9a7" x="109.061161" y="51.597942" style="stroke: #000000; stroke-width: 0.8"/>
      </g>
     </g>
    </g>
   </g>
   <g id="matplotlib.axis_2">
    <g id="ytick_1">
     <g id="line2d_4">
      <defs>
       <path id="mc560aca340" d="M 0 0 
L -3.5 0 
" style="stroke: #000000; stroke-width: 0.8"/>
      </defs>
      <g>
       <use xlink:href="#mc560aca340" x="37.44753" y="51.597942" style="stroke: #000000; stroke-width: 0.8"/>
      </g>
     </g>
     <g id="text_1">
      <!-- $10^{-2}$ -->
      <g transform="translate(12.570112 54.365343) scale(0.08 -0.08)">
       <defs>
        <path id="CMR17-31" d="M 1702 4083 
C 1702 4217 1696 4224 1606 4224 
C 1357 3927 979 3833 621 3820 
C 602 3820 570 3820 563 3808 
C 557 3795 557 3782 557 3648 
C 755 3648 1088 3686 1344 3839 
L 1344 467 
C 1344 243 1331 166 781 166 
L 589 166 
L 589 0 
C 896 6 1216 12 1523 12 
C 1830 12 2150 6 2458 0 
L 2458 166 
L 2266 166 
C 1715 166 1702 236 1702 467 
L 1702 4083 
z
" transform="scale(0.015625)"/>
        <path id="CMR17-30" d="M 2688 2038 
C 2688 2430 2682 3099 2413 3613 
C 2176 4063 1798 4224 1466 4224 
C 1158 4224 768 4082 525 3620 
C 269 3137 243 2539 243 2038 
C 243 1671 250 1112 448 623 
C 723 -39 1216 -128 1466 -128 
C 1760 -128 2208 -7 2470 604 
C 2662 1048 2688 1568 2688 2038 
z
M 1466 -26 
C 1056 -26 813 328 723 816 
C 653 1196 653 1749 653 2109 
C 653 2604 653 3015 736 3407 
C 858 3954 1216 4121 1466 4121 
C 1728 4121 2067 3947 2189 3420 
C 2272 3054 2278 2623 2278 2109 
C 2278 1691 2278 1176 2202 797 
C 2067 96 1690 -26 1466 -26 
z
" transform="scale(0.015625)"/>
        <path id="CMSY10-0" d="M 4218 1472 
C 4326 1472 4442 1472 4442 1600 
C 4442 1728 4326 1728 4218 1728 
L 755 1728 
C 646 1728 531 1728 531 1600 
C 531 1472 646 1472 755 1472 
L 4218 1472 
z
" transform="scale(0.015625)"/>
        <path id="CMR17-32" d="M 2669 990 
L 2554 990 
C 2490 537 2438 460 2413 422 
C 2381 371 1920 371 1830 371 
L 602 371 
C 832 620 1280 1073 1824 1596 
C 2214 1966 2669 2400 2669 3033 
C 2669 3788 2067 4224 1395 4224 
C 691 4224 262 3603 262 3027 
C 262 2777 448 2745 525 2745 
C 589 2745 781 2783 781 3007 
C 781 3206 614 3264 525 3264 
C 486 3264 448 3257 422 3244 
C 544 3788 915 4057 1306 4057 
C 1862 4057 2227 3616 2227 3033 
C 2227 2477 1901 1998 1536 1583 
L 262 147 
L 262 0 
L 2515 0 
L 2669 990 
z
" transform="scale(0.015625)"/>
       </defs>
       <use xlink:href="#CMR17-31" transform="scale(0.996264)"/>
       <use xlink:href="#CMR17-30" transform="translate(45.690477 0) scale(0.996264)"/>
       <use xlink:href="#CMSY10-0" transform="translate(91.380954 36.153639) scale(0.697382)"/>
       <use xlink:href="#CMR17-32" transform="translate(145.621947 36.153639) scale(0.697382)"/>
      </g>
     </g>
    </g>
    <g id="ytick_2">
     <g id="line2d_5">
      <g>
       <use xlink:href="#mc560aca340" x="37.44753" y="33.648243" style="stroke: #000000; stroke-width: 0.8"/>
      </g>
     </g>
     <g id="text_2">
      <!-- $10^{-1}$ -->
      <g transform="translate(12.570112 36.415644) scale(0.08 -0.08)">
       <use xlink:href="#CMR17-31" transform="scale(0.996264)"/>
       <use xlink:href="#CMR17-30" transform="translate(45.690477 0) scale(0.996264)"/>
       <use xlink:href="#CMSY10-0" transform="translate(91.380954 36.153639) scale(0.697382)"/>
       <use xlink:href="#CMR17-31" transform="translate(145.621947 36.153639) scale(0.697382)"/>
      </g>
     </g>
    </g>
    <g id="ytick_3">
     <g id="line2d_6">
      <g>
       <use xlink:href="#mc560aca340" x="37.44753" y="15.698543" style="stroke: #000000; stroke-width: 0.8"/>
      </g>
     </g>
     <g id="text_3">
      <!-- $10^{0}$ -->
      <g transform="translate(18.326252 18.465944) scale(0.08 -0.08)">
       <use xlink:href="#CMR17-31" transform="scale(0.996264)"/>
       <use xlink:href="#CMR17-30" transform="translate(45.690477 0) scale(0.996264)"/>
       <use xlink:href="#CMR17-30" transform="translate(91.380954 36.153639) scale(0.697382)"/>
      </g>
     </g>
    </g>
    <g id="text_4">
     <!-- Time ($s$) -->
     <g transform="translate(9.577584 49.955377) rotate(-90) scale(0.08 -0.08)">
      <defs>
       <path id="CMR17-54" d="M 3981 4332 
L 288 4332 
L 179 2924 
L 294 2924 
C 378 3981 467 4166 1453 4166 
C 1568 4166 1754 4166 1805 4159 
C 1926 4140 1926 4064 1926 3917 
L 1926 465 
C 1926 236 1907 166 1376 166 
L 1197 166 
L 1197 0 
C 1504 6 1824 12 2138 12 
C 2451 12 2771 6 3078 0 
L 3078 166 
L 2899 166 
C 2368 166 2349 236 2349 465 
L 2349 3917 
C 2349 4057 2349 4134 2464 4159 
C 2515 4166 2701 4166 2816 4166 
C 3795 4166 3891 3981 3974 2924 
L 4090 2924 
L 3981 4332 
z
" transform="scale(0.015625)"/>
       <path id="CMR17-69" d="M 992 3961 
C 992 4102 877 4224 730 4224 
C 589 4224 467 4108 467 3961 
C 467 3820 582 3699 730 3699 
C 870 3699 992 3814 992 3961 
z
M 243 2745 
L 243 2579 
C 602 2579 653 2540 653 2231 
L 653 443 
C 653 198 627 166 218 166 
L 218 0 
C 371 12 646 12 806 12 
C 960 12 1222 12 1370 0 
L 1370 166 
C 992 166 979 205 979 436 
L 979 2816 
L 243 2745 
z
" transform="scale(0.015625)"/>
       <path id="CMR17-6d" d="M 4326 1954 
C 4326 2276 4269 2816 3507 2816 
C 3072 2816 2771 2520 2656 2173 
L 2650 2173 
C 2573 2700 2195 2816 1837 2816 
C 1331 2816 1069 2424 973 2166 
L 966 2166 
L 966 2816 
L 211 2745 
L 211 2578 
C 589 2578 646 2540 646 2231 
L 646 443 
C 646 198 621 166 211 166 
L 211 0 
C 365 12 646 12 813 12 
C 979 12 1267 12 1421 0 
L 1421 166 
C 1011 166 986 192 986 443 
L 986 1678 
C 986 2269 1344 2713 1792 2713 
C 2266 2713 2317 2289 2317 1980 
L 2317 443 
C 2317 198 2291 166 1882 166 
L 1882 0 
C 2035 12 2317 12 2483 12 
C 2650 12 2938 12 3091 0 
L 3091 166 
C 2682 166 2656 192 2656 443 
L 2656 1678 
C 2656 2269 3014 2713 3462 2713 
C 3936 2713 3987 2289 3987 1980 
L 3987 443 
C 3987 198 3962 166 3552 166 
L 3552 0 
C 3706 12 3987 12 4154 12 
C 4320 12 4608 12 4762 0 
L 4762 166 
C 4352 166 4326 192 4326 443 
L 4326 1954 
z
" transform="scale(0.015625)"/>
       <path id="CMR17-65" d="M 2438 1503 
C 2464 1529 2464 1542 2464 1606 
C 2464 2251 2118 2816 1389 2816 
C 710 2816 173 2175 173 1394 
C 173 554 781 -64 1459 -64 
C 2176 -64 2458 619 2458 755 
C 2458 800 2419 800 2406 800 
C 2362 800 2355 787 2330 709 
C 2189 270 1837 51 1504 51 
C 1229 51 954 206 781 490 
C 582 819 582 1200 582 1503 
L 2438 1503 
z
M 589 1600 
C 634 2511 1126 2713 1382 2713 
C 1818 2713 2112 2308 2118 1600 
L 589 1600 
z
" transform="scale(0.015625)"/>
       <path id="CMR17-28" d="M 1958 -1562 
C 1958 -1556 1958 -1543 1939 -1524 
C 1645 -1223 858 -403 858 1596 
C 858 3595 1632 4408 1946 4729 
C 1946 4735 1958 4748 1958 4767 
C 1958 4787 1939 4800 1914 4800 
C 1843 4800 1299 4325 986 3620 
C 666 2909 576 2218 576 1603 
C 576 1141 621 360 1005 -467 
C 1312 -1133 1837 -1600 1914 -1600 
C 1946 -1600 1958 -1588 1958 -1562 
z
" transform="scale(0.015625)"/>
       <path id="CMMI12-73" d="M 1459 1290 
C 1568 1271 1741 1233 1779 1227 
C 1862 1201 2150 1099 2150 793 
C 2150 595 1971 64 1229 64 
C 1094 64 614 83 486 447 
C 742 414 870 614 870 755 
C 870 889 781 960 653 960 
C 512 960 326 851 326 563 
C 326 176 710 -64 1222 -64 
C 2195 -64 2483 665 2483 998 
C 2483 1093 2483 1271 2278 1475 
C 2118 1627 1965 1659 1619 1729 
C 1446 1767 1171 1824 1171 2111 
C 1171 2239 1286 2687 1894 2687 
C 2163 2687 2426 2589 2490 2368 
C 2208 2368 2195 2124 2195 2118 
C 2195 1983 2317 1945 2374 1945 
C 2464 1945 2643 2015 2643 2284 
C 2643 2546 2400 2816 1901 2816 
C 1062 2816 838 2169 838 1907 
C 838 1424 1312 1322 1459 1290 
z
" transform="scale(0.015625)"/>
       <path id="CMR17-29" d="M 1683 1596 
C 1683 2057 1638 2839 1254 3665 
C 947 4332 422 4800 346 4800 
C 326 4800 301 4793 301 4761 
C 301 4748 307 4742 314 4729 
C 621 4408 1402 3595 1402 1603 
C 1402 -396 627 -1210 314 -1530 
C 307 -1543 301 -1549 301 -1562 
C 301 -1594 326 -1600 346 -1600 
C 416 -1600 960 -1127 1274 -422 
C 1594 289 1683 981 1683 1596 
z
" transform="scale(0.015625)"/>
      </defs>
      <use xlink:href="#CMR17-54" transform="scale(0.996264)"/>
      <use xlink:href="#CMR17-69" transform="translate(66.509881 0) scale(0.996264)"/>
      <use xlink:href="#CMR17-6d" transform="translate(91.380939 0) scale(0.996264)"/>
      <use xlink:href="#CMR17-65" transform="translate(168.300529 0) scale(0.996264)"/>
      <use xlink:href="#CMR17-28" transform="translate(238.862156 0) scale(0.996264)"/>
      <use xlink:href="#CMMI12-73" transform="translate(274.142924 0) scale(0.996264)"/>
      <use xlink:href="#CMR17-29" transform="translate(320.092971 0) scale(0.996264)"/>
     </g>
    </g>
   </g>
   <g id="line2d_7">
    <path d="M 40.857703 34.659884 
L 40.857883 35.196762 
L 40.858112 35.178078 
L 40.858401 35.623826 
L 40.858766 35.57235 
L 40.859229 35.70859 
L 40.859814 35.119521 
L 40.860553 35.297776 
L 40.861489 35.246457 
L 40.862672 35.521077 
L 40.864169 35.252226 
L 40.866063 35.347465 
L 40.868457 35.329823 
L 40.871486 35.600245 
L 40.875318 35.282852 
L 40.880164 35.42372 
L 40.886293 35.703199 
L 40.894046 35.684654 
L 40.903853 35.598265 
L 40.916257 35.437953 
L 40.931946 35.323168 
L 40.95179 35.488622 
L 40.97689 34.788591 
L 41.008638 34.966885 
L 41.048795 34.845519 
L 41.099587 35.033934 
L 41.163832 35.130657 
L 41.245093 35.162418 
L 41.347876 35.374636 
L 41.477882 35.378859 
L 41.64232 35.355049 
L 41.850311 35.378936 
L 42.113389 35.202206 
L 42.446144 35.334342 
L 42.867032 35.375572 
L 43.399394 35.511435 
L 44.072755 35.386577 
L 44.924459 35.271449 
L 46.001741 35.513673 
L 47.364347 35.337029 
L 49.087846 35.280387 
L 51.267823 35.370403 
L 54.025178 35.544009 
L 57.512834 35.717161 
L 61.924213 35.828304 
L 67.503969 35.911183 
L 74.561552 35.84155 
L 83.488373 35.702158 
L 94.779509 35.825403 
L 109.061161 35.946352 
" clip-path="url(#p91aa66b719)" style="fill: none; stroke: #0000ff; stroke-width: 1.5; stroke-linecap: square"/>
   </g>
   <g id="line2d_8">
    <path d="M 40.857703 39.035938 
L 40.857883 38.956809 
L 40.858112 39.047591 
L 40.858401 39.041254 
L 40.858766 39.033897 
L 40.859229 39.013261 
L 40.859814 38.93994 
L 40.860553 38.878808 
L 40.861489 39.016479 
L 40.862672 38.794317 
L 40.864169 39.034753 
L 40.866063 39.046632 
L 40.868457 39.013761 
L 40.871486 39.008183 
L 40.875318 39.016368 
L 40.880164 38.863769 
L 40.886293 38.923436 
L 40.894046 39.060635 
L 40.903853 38.74817 
L 40.916257 38.954542 
L 40.931946 38.846953 
L 40.95179 39.027933 
L 40.97689 38.83888 
L 41.008638 38.883291 
L 41.048795 38.996306 
L 41.099587 39.022886 
L 41.163832 39.049304 
L 41.245093 39.036648 
L 41.347876 39.043706 
L 41.477882 39.078734 
L 41.64232 39.040088 
L 41.850311 39.058679 
L 42.113389 39.047533 
L 42.446144 38.877515 
L 42.867032 38.955947 
L 43.399394 38.949248 
L 44.072755 39.063632 
L 44.924459 38.867746 
L 46.001741 38.898032 
L 47.364347 39.030542 
L 49.087846 39.05627 
L 51.267823 39.063369 
L 54.025178 39.062911 
L 57.512834 38.848254 
L 61.924213 39.044862 
L 67.503969 38.917954 
L 74.561552 39.067963 
L 83.488373 39.020549 
L 94.779509 38.937114 
L 109.061161 38.986573 
" clip-path="url(#p91aa66b719)" style="fill: none; stroke: #000000; stroke-width: 1.5; stroke-linecap: square"/>
   </g>
   <g id="line2d_9">
    <path d="M 40.857703 36.263477 
L 40.857883 36.692568 
L 40.858112 36.663208 
L 40.858401 38.427584 
L 40.858766 38.125793 
L 40.859229 38.202086 
L 40.859814 36.619007 
L 40.860553 37.694286 
L 40.861489 36.836488 
L 40.862672 39.086929 
L 40.864169 36.686391 
L 40.866063 36.698448 
L 40.868457 37.73267 
L 40.871486 37.434236 
L 40.875318 36.922459 
L 40.880164 37.091253 
L 40.886293 37.414144 
L 40.894046 39.09115 
L 40.903853 37.996032 
L 40.916257 37.299418 
L 40.931946 37.328925 
L 40.95179 38.179352 
L 40.97689 37.190219 
L 41.008638 36.408991 
L 41.048795 35.859837 
L 41.099587 36.728079 
L 41.163832 36.596295 
L 41.245093 36.860333 
L 41.347876 36.864937 
L 41.477882 36.946086 
L 41.64232 37.187819 
L 41.850311 36.788377 
L 42.113389 36.672654 
L 42.446144 36.685046 
L 42.867032 37.032879 
L 43.399394 38.4035 
L 44.072755 36.899241 
L 44.924459 36.483903 
L 46.001741 37.290072 
L 47.364347 36.619306 
L 49.087846 37.177611 
L 51.267823 36.799367 
L 54.025178 37.291317 
L 57.512834 37.547362 
L 61.924213 37.187263 
L 67.503969 37.8391 
L 74.561552 37.34838 
L 83.488373 37.759866 
L 94.779509 37.046088 
L 109.061161 37.739955 
" clip-path="url(#p91aa66b719)" style="fill: none; stroke-dasharray: 5.55,2.4; stroke-dashoffset: 0; stroke: #0000ff; stroke-width: 1.5"/>
   </g>
   <g id="line2d_10">
    <path d="M 40.857703 25.650686 
L 40.857883 34.119635 
L 40.858112 32.928717 
L 40.858401 34.315208 
L 40.858766 34.214629 
L 40.859229 33.955947 
L 40.859814 33.646262 
L 40.860553 33.879873 
L 40.861489 34.052831 
L 40.862672 33.818692 
L 40.864169 34.092337 
L 40.866063 34.40679 
L 40.868457 34.081445 
L 40.871486 34.482832 
L 40.875318 34.343705 
L 40.880164 34.137999 
L 40.886293 34.073236 
L 40.894046 33.947349 
L 40.903853 34.483184 
L 40.916257 34.129197 
L 40.931946 33.755349 
L 40.95179 33.85237 
L 40.97689 33.362946 
L 41.008638 33.743732 
L 41.048795 33.884182 
L 41.099587 34.218488 
L 41.163832 34.216368 
L 41.245093 34.326067 
L 41.347876 34.3886 
L 41.477882 34.212671 
L 41.64232 34.490821 
L 41.850311 33.888091 
L 42.113389 34.199933 
L 42.446144 34.034764 
L 42.867032 34.337693 
L 43.399394 34.354035 
L 44.072755 34.100861 
L 44.924459 34.411503 
L 46.001741 34.046139 
L 47.364347 34.34013 
L 49.087846 34.006826 
L 51.267823 34.113537 
L 54.025178 34.030683 
L 57.512834 34.320473 
L 61.924213 34.530639 
L 67.503969 34.819766 
L 74.561552 34.335216 
L 83.488373 34.615834 
L 94.779509 34.579453 
L 109.061161 34.671032 
" clip-path="url(#p91aa66b719)" style="fill: none; stroke-dasharray: 1.5,2.475; stroke-dashoffset: 0; stroke: #0000ff; stroke-width: 1.5"/>
   </g>
   <g id="line2d_11">
    <path d="M 40.857703 39.286967 
L 40.857883 39.269478 
L 40.858112 39.360177 
L 40.858401 39.271084 
L 40.858766 39.278658 
L 40.859229 39.237778 
L 40.859814 39.263059 
L 40.860553 39.370122 
L 40.861489 39.19219 
L 40.862672 39.266727 
L 40.864169 39.20378 
L 40.866063 39.288001 
L 40.868457 39.223629 
L 40.871486 39.287695 
L 40.875318 39.268638 
L 40.880164 39.268332 
L 40.886293 39.225757 
L 40.894046 39.287503 
L 40.903853 39.369851 
L 40.916257 39.179785 
L 40.931946 39.306837 
L 40.95179 39.268714 
L 40.97689 39.185909 
L 41.008638 39.268446 
L 41.048795 39.25161 
L 41.099587 39.193855 
L 41.163832 39.269823 
L 41.245093 39.294518 
L 41.347876 39.317291 
L 41.477882 39.358012 
L 41.64232 39.232374 
L 41.850311 39.262372 
L 42.113389 39.369851 
L 42.446144 39.209354 
L 42.867032 39.209467 
L 43.399394 39.287771 
L 44.072755 39.268982 
L 44.924459 39.231233 
L 46.001741 39.251076 
L 47.364347 39.303688 
L 49.087846 39.265657 
L 51.267823 39.254432 
L 54.025178 39.258554 
L 57.512834 39.190865 
L 61.924213 39.280457 
L 67.503969 39.318368 
L 74.561552 39.370432 
L 83.488373 39.267911 
L 94.779509 39.323178 
L 109.061161 39.275826 
" clip-path="url(#p91aa66b719)" style="fill: none; stroke-dasharray: 5.55,2.4; stroke-dashoffset: 0; stroke: #000000; stroke-width: 1.5"/>
   </g>
   <g id="line2d_12">
    <path d="M 40.857703 38.10654 
L 40.857883 37.310589 
L 40.858112 38.50836 
L 40.858401 38.810565 
L 40.858766 38.596816 
L 40.859229 38.713967 
L 40.859814 36.270602 
L 40.860553 35.704826 
L 40.861489 38.711725 
L 40.862672 34.059176 
L 40.864169 38.86289 
L 40.866063 38.797889 
L 40.868457 38.330573 
L 40.871486 37.825812 
L 40.875318 38.291835 
L 40.880164 35.699456 
L 40.886293 36.077615 
L 40.894046 38.649521 
L 40.903853 32.898339 
L 40.916257 37.645407 
L 40.931946 34.941892 
L 40.95179 38.254428 
L 40.97689 34.927271 
L 41.008638 37.228989 
L 41.048795 38.007793 
L 41.099587 38.570806 
L 41.163832 38.658528 
L 41.245093 38.6702 
L 41.347876 38.543246 
L 41.477882 38.761131 
L 41.64232 38.694378 
L 41.850311 38.771488 
L 42.113389 38.558305 
L 42.446144 35.565924 
L 42.867032 36.988905 
L 43.399394 36.403802 
L 44.072755 38.819364 
L 44.924459 35.309278 
L 46.001741 35.324473 
L 47.364347 38.279301 
L 49.087846 38.584903 
L 51.267823 38.76672 
L 54.025178 38.824886 
L 57.512834 34.855487 
L 61.924213 38.770771 
L 67.503969 36.074874 
L 74.561552 38.704042 
L 83.488373 38.190628 
L 94.779509 36.57446 
L 109.061161 37.979979 
" clip-path="url(#p91aa66b719)" style="fill: none; stroke-dasharray: 1.5,2.475; stroke-dashoffset: 0; stroke: #000000; stroke-width: 1.5"/>
   </g>
   <g id="patch_3">
    <path d="M 37.44753 51.597942 
L 37.44753 15.698543 
" style="fill: none; stroke: #000000; stroke-width: 0.8; stroke-linejoin: miter; stroke-linecap: square"/>
   </g>
   <g id="patch_4">
    <path d="M 112.471334 51.597942 
L 112.471334 15.698543 
" style="fill: none; stroke: #000000; stroke-width: 0.8; stroke-linejoin: miter; stroke-linecap: square"/>
   </g>
   <g id="patch_5">
    <path d="M 37.44753 51.597942 
L 112.471334 51.597942 
" style="fill: none; stroke: #000000; stroke-width: 0.8; stroke-linejoin: miter; stroke-linecap: square"/>
   </g>
   <g id="patch_6">
    <path d="M 37.44753 15.698543 
L 112.471334 15.698543 
" style="fill: none; stroke: #000000; stroke-width: 0.8; stroke-linejoin: miter; stroke-linecap: square"/>
   </g>
   <g id="text_5">
    <!-- $\mathbf{a)}$ -->
    <g transform="translate(25.656953 9.577584) scale(0.08 -0.08)">
     <defs>
      <path id="CMBX12-61" d="M 2944 1894 
C 2944 2483 2477 2880 1574 2880 
C 1216 2880 461 2847 461 2310 
C 461 2041 666 1926 838 1926 
C 1030 1926 1216 2060 1216 2303 
C 1216 2425 1171 2540 1062 2611 
C 1274 2668 1427 2668 1549 2668 
C 1984 2668 2246 2425 2246 1900 
L 2246 1644 
C 1235 1644 218 1362 218 648 
C 218 64 960 -64 1402 -64 
C 1894 -64 2208 205 2336 488 
C 2336 250 2336 -26 2982 -26 
L 3309 -26 
C 3443 -26 3494 -26 3494 115 
C 3494 250 3437 250 3347 250 
C 2944 256 2944 359 2944 507 
L 2944 1894 
z
M 2246 867 
C 2246 262 1709 147 1504 147 
C 1190 147 928 359 928 655 
C 928 1240 1619 1439 2246 1472 
L 2246 867 
z
" transform="scale(0.015625)"/>
     </defs>
     <use xlink:href="#CMBX12-61" transform="scale(0.996264)"/>
     <use xlink:href="#CMR17-29" transform="translate(54.483188 0) scale(0.996264)"/>
    </g>
   </g>
   <g id="legend_1">
    <g id="line2d_13">
     <path d="M 68.496794 19.498543 
L 70.496794 19.498543 
L 72.496794 19.498543 
" style="fill: none; stroke: #0000ff; stroke-width: 1.5; stroke-linecap: square"/>
    </g>
    <g id="text_6">
     <!-- Mean -->
     <g transform="translate(73.696794 20.898543) scale(0.04 -0.04)">
      <defs>
       <path id="CMR17-4d" d="M 1338 4249 
C 1299 4345 1293 4352 1158 4352 
L 339 4352 
L 339 4185 
C 781 4185 851 4185 851 3898 
L 851 624 
C 851 465 851 166 339 166 
L 339 0 
C 486 12 755 12 915 12 
C 1075 12 1344 12 1491 0 
L 1491 166 
C 979 166 979 465 979 624 
L 979 4159 
L 986 4159 
L 2490 102 
C 2515 38 2528 0 2579 0 
C 2630 0 2643 38 2669 102 
L 4186 4191 
L 4192 4191 
L 4192 453 
C 4192 166 4122 166 3680 166 
L 3680 0 
C 3853 12 4198 12 4384 12 
C 4570 12 4922 12 5094 0 
L 5094 166 
C 4653 166 4582 166 4582 453 
L 4582 3898 
C 4582 4185 4653 4185 5094 4185 
L 5094 4352 
L 4282 4352 
C 4147 4352 4141 4345 4102 4249 
L 2720 516 
L 1338 4249 
z
" transform="scale(0.015625)"/>
       <path id="CMR17-61" d="M 2304 1656 
C 2304 2048 2304 2275 2035 2534 
C 1798 2751 1523 2816 1306 2816 
C 800 2816 435 2408 435 1977 
C 435 1740 627 1728 666 1728 
C 749 1728 896 1779 896 1958 
C 896 2118 774 2188 666 2188 
C 640 2188 608 2182 589 2176 
C 723 2594 1069 2713 1293 2713 
C 1613 2713 1965 2421 1965 1875 
L 1965 1632 
C 1587 1619 1133 1568 774 1373 
C 371 1147 256 822 256 576 
C 256 77 832 -64 1171 -64 
C 1523 -64 1850 135 1990 505 
C 2003 219 2182 -39 2464 -39 
C 2598 -39 2938 51 2938 563 
L 2938 926 
L 2822 926 
L 2822 557 
C 2822 161 2650 109 2566 109 
C 2304 109 2304 446 2304 732 
L 2304 1656 
z
M 1965 887 
C 1965 323 1568 38 1216 38 
C 896 38 646 278 646 576 
C 646 771 730 1114 1101 1322 
C 1408 1497 1760 1523 1965 1536 
L 1965 887 
z
" transform="scale(0.015625)"/>
       <path id="CMR17-6e" d="M 2656 1954 
C 2656 2282 2592 2816 1837 2816 
C 1331 2816 1069 2424 973 2166 
L 966 2166 
L 966 2816 
L 211 2745 
L 211 2578 
C 589 2578 646 2540 646 2231 
L 646 443 
C 646 198 621 166 211 166 
L 211 0 
C 365 12 646 12 813 12 
C 979 12 1267 12 1421 0 
L 1421 166 
C 1011 166 986 192 986 443 
L 986 1678 
C 986 2269 1344 2713 1792 2713 
C 2266 2713 2317 2289 2317 1980 
L 2317 443 
C 2317 198 2291 166 1882 166 
L 1882 0 
C 2035 12 2317 12 2483 12 
C 2650 12 2938 12 3091 0 
L 3091 166 
C 2682 166 2656 192 2656 443 
L 2656 1954 
z
" transform="scale(0.015625)"/>
      </defs>
      <use xlink:href="#CMR17-4d" transform="scale(0.996264)"/>
      <use xlink:href="#CMR17-65" transform="translate(84.686941 0) scale(0.996264)"/>
      <use xlink:href="#CMR17-61" transform="translate(125.172601 0) scale(0.996264)"/>
      <use xlink:href="#CMR17-6e" transform="translate(170.863078 0) scale(0.996264)"/>
     </g>
    </g>
    <g id="patch_7">
     <path d="M 68.496794 26.473408 
L 72.496794 26.473408 
L 72.496794 23.673408 
L 68.496794 23.673408 
z
" style="fill: #0000ff; fill-opacity: 0.2; stroke: #0000ff; stroke-opacity: 0.2; stroke-linejoin: miter"/>
    </g>
    <g id="text_7">
     <!-- Std -->
     <g transform="translate(73.696794 26.473408) scale(0.04 -0.04)">
      <defs>
       <path id="CMR17-53" d="M 2803 4351 
C 2803 4467 2797 4473 2758 4473 
C 2720 4473 2707 4447 2682 4390 
L 2490 3965 
C 2246 4320 1875 4480 1472 4480 
C 819 4480 294 3958 294 3301 
C 294 3101 339 2817 557 2546 
C 794 2250 1018 2198 1530 2063 
C 1722 2011 2042 1927 2106 1901 
C 2470 1747 2662 1360 2662 999 
C 2662 534 2336 38 1779 38 
C 1094 38 454 425 410 1328 
C 403 1431 397 1437 352 1437 
C 301 1437 294 1431 294 1302 
L 294 0 
C 294 -116 301 -122 339 -122 
C 384 -122 397 -90 486 109 
C 493 128 493 141 614 386 
C 934 -39 1472 -128 1779 -128 
C 2477 -128 2970 457 2970 1141 
C 2970 1476 2848 1734 2778 1850 
C 2509 2263 2221 2340 1914 2417 
C 1869 2437 1856 2437 1498 2527 
C 1152 2617 1005 2662 845 2836 
C 666 3036 602 3243 602 3449 
C 602 3868 934 4326 1478 4326 
C 2157 4326 2579 3842 2675 3036 
C 2694 2920 2701 2914 2746 2914 
C 2803 2914 2803 2933 2803 3043 
L 2803 4351 
z
" transform="scale(0.015625)"/>
       <path id="CMR17-74" d="M 966 2585 
L 1862 2585 
L 1862 2752 
L 966 2752 
L 966 3968 
L 851 3968 
C 838 3292 614 2700 70 2687 
L 70 2585 
L 627 2585 
L 627 778 
C 627 655 627 -64 1370 -64 
C 1747 -64 1965 308 1965 784 
L 1965 1151 
L 1850 1151 
L 1850 790 
C 1850 347 1677 51 1408 51 
C 1222 51 966 179 966 765 
L 966 2585 
z
" transform="scale(0.015625)"/>
       <path id="CMR17-64" d="M 1869 4345 
L 1869 4179 
C 2246 4179 2304 4141 2304 3843 
L 2304 2371 
C 2278 2403 2016 2816 1498 2816 
C 845 2816 211 2228 211 1376 
C 211 529 806 -64 1434 -64 
C 1978 -64 2259 361 2291 406 
L 2291 -64 
L 3066 -13 
L 3066 154 
C 2688 154 2630 193 2630 503 
L 2630 4416 
L 1869 4345 
z
M 2291 762 
C 2291 568 2176 393 2029 264 
C 1811 70 1594 38 1472 38 
C 1286 38 621 135 621 1369 
C 621 2636 1363 2713 1530 2713 
C 1824 2713 2061 2545 2208 2313 
C 2291 2177 2291 2157 2291 2041 
L 2291 762 
z
" transform="scale(0.015625)"/>
      </defs>
      <use xlink:href="#CMR17-53" transform="scale(0.996264)"/>
      <use xlink:href="#CMR17-74" transform="translate(50.89537 0) scale(0.996264)"/>
      <use xlink:href="#CMR17-64" transform="translate(86.176138 0) scale(0.996264)"/>
     </g>
    </g>
    <g id="line2d_14">
     <path d="M 68.496794 30.648274 
L 70.496794 30.648274 
L 72.496794 30.648274 
" style="fill: none; stroke: #000000; stroke-width: 1.5; stroke-linecap: square"/>
    </g>
    <g id="text_8">
     <!-- Mean -->
     <g transform="translate(73.696794 32.048274) scale(0.04 -0.04)">
      <use xlink:href="#CMR17-4d" transform="scale(0.996264)"/>
      <use xlink:href="#CMR17-65" transform="translate(84.686941 0) scale(0.996264)"/>
      <use xlink:href="#CMR17-61" transform="translate(125.172601 0) scale(0.996264)"/>
      <use xlink:href="#CMR17-6e" transform="translate(170.863078 0) scale(0.996264)"/>
     </g>
    </g>
    <g id="patch_8">
     <path d="M 68.496794 37.623139 
L 72.496794 37.623139 
L 72.496794 34.823139 
L 68.496794 34.823139 
z
" style="fill-opacity: 0.2; stroke: #000000; stroke-opacity: 0.2; stroke-linejoin: miter"/>
    </g>
    <g id="text_9">
     <!-- Std -->
     <g transform="translate(73.696794 37.623139) scale(0.04 -0.04)">
      <use xlink:href="#CMR17-53" transform="scale(0.996264)"/>
      <use xlink:href="#CMR17-74" transform="translate(50.89537 0) scale(0.996264)"/>
      <use xlink:href="#CMR17-64" transform="translate(86.176138 0) scale(0.996264)"/>
     </g>
    </g>
    <g id="line2d_15">
     <path d="M 94.570925 19.498543 
L 96.570925 19.498543 
L 98.570925 19.498543 
" style="fill: none; stroke-dasharray: 5.55,2.4; stroke-dashoffset: 0; stroke: #0000ff; stroke-width: 1.5"/>
    </g>
    <g id="text_10">
     <!-- Max -->
     <g transform="translate(99.770925 20.898543) scale(0.04 -0.04)">
      <defs>
       <path id="CMR17-78" d="M 1664 1491 
C 1856 1740 2074 2022 2253 2233 
C 2464 2476 2707 2579 2989 2585 
L 2989 2752 
C 2880 2745 2656 2739 2541 2739 
C 2368 2739 2170 2739 2022 2752 
L 2022 2585 
C 2112 2572 2163 2508 2163 2419 
C 2163 2304 2099 2233 2067 2188 
L 1594 1587 
L 1030 2323 
C 973 2393 973 2406 973 2438 
C 973 2515 1037 2579 1146 2585 
L 1146 2752 
C 992 2739 717 2739 557 2739 
C 384 2739 179 2739 38 2752 
L 38 2585 
C 384 2585 461 2560 614 2368 
L 1350 1414 
C 1363 1401 1395 1363 1395 1344 
C 1395 1318 838 633 768 544 
C 480 198 179 172 6 166 
L 6 0 
C 115 6 339 12 454 12 
C 582 12 864 12 979 0 
L 979 166 
C 941 172 838 185 838 332 
C 838 448 890 518 947 595 
L 1478 1248 
L 2035 524 
C 2086 454 2163 358 2163 313 
C 2163 224 2086 172 1984 166 
L 1984 0 
C 2138 12 2413 12 2573 12 
C 2746 12 2950 12 3091 0 
L 3091 166 
C 2771 166 2675 179 2522 377 
L 1664 1491 
z
" transform="scale(0.015625)"/>
      </defs>
      <use xlink:href="#CMR17-4d" transform="scale(0.996264)"/>
      <use xlink:href="#CMR17-61" transform="translate(84.686941 0) scale(0.996264)"/>
      <use xlink:href="#CMR17-78" transform="translate(130.377418 0) scale(0.996264)"/>
     </g>
    </g>
    <g id="line2d_16">
     <path d="M 94.570925 25.073408 
L 96.570925 25.073408 
L 98.570925 25.073408 
" style="fill: none; stroke-dasharray: 1.5,2.475; stroke-dashoffset: 0; stroke: #0000ff; stroke-width: 1.5"/>
    </g>
    <g id="text_11">
     <!-- Min -->
     <g transform="translate(99.770925 26.473408) scale(0.04 -0.04)">
      <use xlink:href="#CMR17-4d" transform="scale(0.996264)"/>
      <use xlink:href="#CMR17-69" transform="translate(84.686941 0) scale(0.996264)"/>
      <use xlink:href="#CMR17-6e" transform="translate(109.557999 0) scale(0.996264)"/>
     </g>
    </g>
    <g id="line2d_17">
     <path d="M 94.570925 30.648274 
L 96.570925 30.648274 
L 98.570925 30.648274 
" style="fill: none; stroke-dasharray: 5.55,2.4; stroke-dashoffset: 0; stroke: #000000; stroke-width: 1.5"/>
    </g>
    <g id="text_12">
     <!-- Max -->
     <g transform="translate(99.770925 32.048274) scale(0.04 -0.04)">
      <use xlink:href="#CMR17-4d" transform="scale(0.996264)"/>
      <use xlink:href="#CMR17-61" transform="translate(84.686941 0) scale(0.996264)"/>
      <use xlink:href="#CMR17-78" transform="translate(130.377418 0) scale(0.996264)"/>
     </g>
    </g>
    <g id="line2d_18">
     <path d="M 94.570925 36.223139 
L 96.570925 36.223139 
L 98.570925 36.223139 
" style="fill: none; stroke-dasharray: 1.5,2.475; stroke-dashoffset: 0; stroke: #000000; stroke-width: 1.5"/>
    </g>
    <g id="text_13">
     <!-- Min -->
     <g transform="translate(99.770925 37.623139) scale(0.04 -0.04)">
      <use xlink:href="#CMR17-4d" transform="scale(0.996264)"/>
      <use xlink:href="#CMR17-69" transform="translate(84.686941 0) scale(0.996264)"/>
      <use xlink:href="#CMR17-6e" transform="translate(109.557999 0) scale(0.996264)"/>
     </g>
    </g>
   </g>
  </g>
  <g id="axes_2">
   <g id="patch_9">
    <path d="M 138.729665 51.597942 
L 213.753469 51.597942 
L 213.753469 15.698543 
L 138.729665 15.698543 
z
" style="fill: #ffffff"/>
   </g>
   <g id="FillBetweenPolyCollection_3">
    <defs>
     <path id="m5784e134f8" d="M 142.139838 -100.08268 
L 142.139838 -98.957332 
L 142.140019 -98.650146 
L 142.140247 -98.617817 
L 142.140536 -98.361474 
L 142.140902 -98.334321 
L 142.141364 -98.317341 
L 142.141949 -98.240406 
L 142.142689 -98.391635 
L 142.143624 -98.633171 
L 142.144808 -98.792142 
L 142.146304 -98.528945 
L 142.148198 -98.245379 
L 142.150593 -98.475924 
L 142.153622 -98.452202 
L 142.157453 -98.759643 
L 142.162299 -99.165701 
L 142.168429 -99.408072 
L 142.176182 -99.27809 
L 142.185988 -99.253367 
L 142.198392 -98.864379 
L 142.214081 -99.298505 
L 142.233925 -98.883009 
L 142.259025 -99.024048 
L 142.290773 -98.986923 
L 142.33093 -98.397902 
L 142.381723 -98.209149 
L 142.445968 -98.609385 
L 142.527228 -98.751425 
L 142.630011 -99.014283 
L 142.760017 -98.748991 
L 142.924455 -98.809108 
L 143.132446 -98.291898 
L 143.395524 -98.614319 
L 143.72828 -98.448821 
L 144.149167 -98.380405 
L 144.681529 -98.481237 
L 145.35489 -98.403487 
L 146.206594 -98.425013 
L 147.283876 -98.545716 
L 148.646482 -98.658839 
L 150.369981 -98.830223 
L 152.549958 -98.934447 
L 155.307314 -98.674962 
L 158.794969 -98.926941 
L 163.206348 -98.755817 
L 168.786104 -99.043476 
L 175.843687 -99.233692 
L 184.770508 -99.045867 
L 196.061644 -99.03966 
L 210.343296 -99.071599 
L 210.343296 -100.20889 
L 210.343296 -100.20889 
L 196.061644 -100.345504 
L 184.770508 -100.163433 
L 175.843687 -100.240611 
L 168.786104 -100.106333 
L 163.206348 -100.275915 
L 158.794969 -100.060676 
L 155.307314 -99.976097 
L 152.549958 -99.981261 
L 150.369981 -100.280361 
L 148.646482 -99.95429 
L 147.283876 -99.845256 
L 146.206594 -100.029952 
L 145.35489 -99.958221 
L 144.681529 -99.798046 
L 144.149167 -99.860605 
L 143.72828 -99.902064 
L 143.395524 -99.724718 
L 143.132446 -99.348012 
L 142.924455 -100.074517 
L 142.760017 -100.050981 
L 142.630011 -100.322392 
L 142.527228 -100.547273 
L 142.445968 -100.286757 
L 142.381723 -100.741278 
L 142.33093 -99.850943 
L 142.290773 -100.086391 
L 142.259025 -100.224358 
L 142.233925 -100.276415 
L 142.214081 -100.271682 
L 142.198392 -100.026084 
L 142.185988 -100.055503 
L 142.176182 -100.181777 
L 142.168429 -100.321128 
L 142.162299 -100.175575 
L 142.157453 -99.91604 
L 142.153622 -99.763868 
L 142.150593 -99.794479 
L 142.148198 -99.693683 
L 142.146304 -99.679292 
L 142.144808 -100.185545 
L 142.143624 -99.937075 
L 142.142689 -99.739035 
L 142.141949 -99.700883 
L 142.141364 -99.732496 
L 142.140902 -99.966223 
L 142.140536 -100.070068 
L 142.140247 -100.156546 
L 142.140019 -100.129503 
L 142.139838 -100.08268 
z
" style="stroke: #0000ff; stroke-opacity: 0.2"/>
    </defs>
    <g clip-path="url(#p1eecfade27)">
     <use xlink:href="#m5784e134f8" x="0" y="134.806076" style="fill: #0000ff; fill-opacity: 0.2; stroke: #0000ff; stroke-opacity: 0.2"/>
    </g>
   </g>
   <g id="FillBetweenPolyCollection_4">
    <defs>
     <path id="mb119c225e0" d="M 142.139838 -96.54827 
L 142.139838 -95.083734 
L 142.140019 -95.588917 
L 142.140247 -95.539293 
L 142.140536 -95.049382 
L 142.140902 -95.618518 
L 142.141364 -95.583476 
L 142.141949 -95.594053 
L 142.142689 -94.823087 
L 142.143624 -94.823306 
L 142.144808 -94.966732 
L 142.146304 -95.601974 
L 142.148198 -94.840497 
L 142.150593 -95.626053 
L 142.153622 -95.595432 
L 142.157453 -95.62776 
L 142.162299 -95.599984 
L 142.168429 -95.601309 
L 142.176182 -95.055902 
L 142.185988 -95.461298 
L 142.198392 -95.601947 
L 142.214081 -95.624448 
L 142.233925 -95.604303 
L 142.259025 -94.878908 
L 142.290773 -95.183467 
L 142.33093 -95.541088 
L 142.381723 -95.616889 
L 142.445968 -95.631737 
L 142.527228 -95.023308 
L 142.630011 -95.619424 
L 142.760017 -94.953036 
L 142.924455 -95.575499 
L 143.132446 -95.090329 
L 143.395524 -95.611964 
L 143.72828 -95.593348 
L 144.149167 -95.612116 
L 144.681529 -95.608559 
L 145.35489 -95.641912 
L 146.206594 -95.598053 
L 147.283876 -95.591684 
L 148.646482 -94.841494 
L 150.369981 -95.632511 
L 152.549958 -95.583997 
L 155.307314 -95.631208 
L 158.794969 -95.065657 
L 163.206348 -95.585873 
L 168.786104 -95.574881 
L 175.843687 -95.155739 
L 184.770508 -95.642193 
L 196.061644 -94.853031 
L 210.343296 -95.634499 
L 210.343296 -95.834799 
L 210.343296 -95.834799 
L 196.061644 -96.956281 
L 184.770508 -95.820814 
L 175.843687 -96.421075 
L 168.786104 -95.801785 
L 163.206348 -95.843608 
L 158.794969 -96.681652 
L 155.307314 -95.857063 
L 152.549958 -95.820723 
L 150.369981 -95.878062 
L 148.646482 -96.927202 
L 147.283876 -95.846332 
L 146.206594 -95.822894 
L 145.35489 -95.848984 
L 144.681529 -95.889129 
L 144.149167 -95.830939 
L 143.72828 -95.767705 
L 143.395524 -95.830706 
L 143.132446 -96.558702 
L 142.924455 -95.902408 
L 142.760017 -96.732486 
L 142.630011 -95.823778 
L 142.527228 -96.597716 
L 142.445968 -95.872427 
L 142.381723 -95.85681 
L 142.33093 -95.808182 
L 142.290773 -96.371833 
L 142.259025 -96.962907 
L 142.233925 -95.805458 
L 142.214081 -95.822534 
L 142.198392 -95.810431 
L 142.185988 -96.157413 
L 142.176182 -96.601953 
L 142.168429 -95.794864 
L 142.162299 -95.784622 
L 142.157453 -95.832958 
L 142.153622 -95.837801 
L 142.150593 -95.783702 
L 142.148198 -96.986225 
L 142.146304 -95.785153 
L 142.144808 -96.654392 
L 142.143624 -96.856301 
L 142.142689 -96.790469 
L 142.141949 -95.772598 
L 142.141364 -95.807841 
L 142.140902 -95.825969 
L 142.140536 -96.575382 
L 142.140247 -95.901087 
L 142.140019 -95.812205 
L 142.139838 -96.54827 
z
" style="stroke: #000000; stroke-opacity: 0.2"/>
    </defs>
    <g clip-path="url(#p1eecfade27)">
     <use xlink:href="#mb119c225e0" x="0" y="134.806076" style="fill-opacity: 0.2; stroke: #000000; stroke-opacity: 0.2"/>
    </g>
   </g>
   <g id="matplotlib.axis_3">
    <g id="xtick_4">
     <g id="line2d_19">
      <g>
       <use xlink:href="#m935904d9a7" x="142.139156" y="51.597942" style="stroke: #000000; stroke-width: 0.8"/>
      </g>
     </g>
    </g>
    <g id="xtick_5">
     <g id="line2d_20">
      <g>
       <use xlink:href="#m935904d9a7" x="176.241226" y="51.597942" style="stroke: #000000; stroke-width: 0.8"/>
      </g>
     </g>
    </g>
    <g id="xtick_6">
     <g id="line2d_21">
      <g>
       <use xlink:href="#m935904d9a7" x="210.343296" y="51.597942" style="stroke: #000000; stroke-width: 0.8"/>
      </g>
     </g>
    </g>
   </g>
   <g id="matplotlib.axis_4">
    <g id="ytick_4">
     <g id="line2d_22">
      <g>
       <use xlink:href="#mc560aca340" x="138.729665" y="51.597942" style="stroke: #000000; stroke-width: 0.8"/>
      </g>
     </g>
     <g id="text_14">
      <!-- $10^{-2}$ -->
      <g transform="translate(113.852247 54.365343) scale(0.08 -0.08)">
       <use xlink:href="#CMR17-31" transform="scale(0.996264)"/>
       <use xlink:href="#CMR17-30" transform="translate(45.690477 0) scale(0.996264)"/>
       <use xlink:href="#CMSY10-0" transform="translate(91.380954 36.153639) scale(0.697382)"/>
       <use xlink:href="#CMR17-32" transform="translate(145.621947 36.153639) scale(0.697382)"/>
      </g>
     </g>
    </g>
    <g id="ytick_5">
     <g id="line2d_23">
      <g>
       <use xlink:href="#mc560aca340" x="138.729665" y="33.648243" style="stroke: #000000; stroke-width: 0.8"/>
      </g>
     </g>
     <g id="text_15">
      <!-- $10^{-1}$ -->
      <g transform="translate(113.852247 36.415644) scale(0.08 -0.08)">
       <use xlink:href="#CMR17-31" transform="scale(0.996264)"/>
       <use xlink:href="#CMR17-30" transform="translate(45.690477 0) scale(0.996264)"/>
       <use xlink:href="#CMSY10-0" transform="translate(91.380954 36.153639) scale(0.697382)"/>
       <use xlink:href="#CMR17-31" transform="translate(145.621947 36.153639) scale(0.697382)"/>
      </g>
     </g>
    </g>
    <g id="ytick_6">
     <g id="line2d_24">
      <g>
       <use xlink:href="#mc560aca340" x="138.729665" y="15.698543" style="stroke: #000000; stroke-width: 0.8"/>
      </g>
     </g>
     <g id="text_16">
      <!-- $10^{0}$ -->
      <g transform="translate(119.608387 18.465944) scale(0.08 -0.08)">
       <use xlink:href="#CMR17-31" transform="scale(0.996264)"/>
       <use xlink:href="#CMR17-30" transform="translate(45.690477 0) scale(0.996264)"/>
       <use xlink:href="#CMR17-30" transform="translate(91.380954 36.153639) scale(0.697382)"/>
      </g>
     </g>
    </g>
   </g>
   <g id="line2d_25">
    <path d="M 142.139838 35.265781 
L 142.140019 35.381212 
L 142.140247 35.38099 
L 142.140536 35.543588 
L 142.140902 35.613179 
L 142.141364 35.749089 
L 142.141949 35.801279 
L 142.142689 35.711666 
L 142.143624 35.493723 
L 142.144808 35.286141 
L 142.146304 35.680758 
L 142.148198 35.802959 
L 142.150593 35.64303 
L 142.153622 35.670486 
L 142.157453 35.446812 
L 142.162299 35.119096 
L 142.168429 34.928116 
L 142.176182 35.063055 
L 142.185988 35.141329 
L 142.198392 35.339225 
L 142.214081 35.005807 
L 142.233925 35.195272 
L 142.259025 35.158794 
L 142.290773 35.250052 
L 142.33093 35.647848 
L 142.381723 35.228501 
L 142.445968 35.312976 
L 142.527228 35.105128 
L 142.630011 35.110333 
L 142.760017 35.378939 
L 142.924455 35.338616 
L 143.132446 35.96825 
L 143.395524 35.616804 
L 143.72828 35.596818 
L 144.149167 35.650492 
L 144.681529 35.638663 
L 145.35489 35.586526 
L 146.206594 35.537363 
L 147.283876 35.583542 
L 148.646482 35.472633 
L 150.369981 35.217113 
L 152.549958 35.330664 
L 155.307314 35.453432 
L 158.794969 35.291675 
L 163.206348 35.253217 
L 168.786104 35.213072 
L 175.843687 35.052679 
L 184.770508 35.181416 
L 196.061644 35.086183 
L 210.343296 35.14511 
" clip-path="url(#p1eecfade27)" style="fill: none; stroke: #0000ff; stroke-width: 1.5; stroke-linecap: square"/>
   </g>
   <g id="line2d_26">
    <path d="M 142.139838 38.955732 
L 142.140019 39.104716 
L 142.140247 39.083787 
L 142.140536 38.956414 
L 142.140902 39.083143 
L 142.141364 39.109611 
L 142.141949 39.12224 
L 142.142689 38.937397 
L 142.143624 38.900186 
L 142.144808 38.949933 
L 142.146304 39.111975 
L 142.148198 38.81912 
L 142.150593 39.1008 
L 142.153622 39.088518 
L 142.157453 39.075042 
L 142.162299 39.113226 
L 142.168429 39.107389 
L 142.176182 38.938883 
L 142.185988 38.988953 
L 142.198392 39.09919 
L 142.214081 39.081956 
L 142.233925 39.100547 
L 142.259025 38.815735 
L 142.290773 39.005803 
L 142.33093 39.130297 
L 142.381723 39.068304 
L 142.445968 39.053066 
L 142.527228 38.955885 
L 142.630011 39.083806 
L 142.760017 38.912651 
L 142.924455 39.065409 
L 143.132446 38.947038 
L 143.395524 39.083974 
L 143.72828 39.125062 
L 144.149167 39.083781 
L 144.681529 39.05597 
L 145.35489 39.059941 
L 146.206594 39.094792 
L 147.283876 39.086028 
L 148.646482 38.85218 
L 150.369981 39.049823 
L 152.549958 39.102818 
L 155.307314 39.061123 
L 158.794969 38.890622 
L 163.206348 39.090271 
L 168.786104 39.116918 
L 175.843687 38.992024 
L 184.770508 39.074061 
L 196.061644 38.830701 
L 210.343296 39.070784 
" clip-path="url(#p1eecfade27)" style="fill: none; stroke: #000000; stroke-width: 1.5; stroke-linecap: square"/>
   </g>
   <g id="line2d_27">
    <path d="M 142.139838 36.467368 
L 142.140019 37.991878 
L 142.140247 36.986024 
L 142.140536 37.127122 
L 142.140902 37.163332 
L 142.141364 36.920196 
L 142.141949 38.210891 
L 142.142689 37.073467 
L 142.143624 36.58751 
L 142.144808 37.533705 
L 142.146304 36.879046 
L 142.148198 37.405863 
L 142.150593 36.784568 
L 142.153622 37.311243 
L 142.157453 36.961679 
L 142.162299 36.364572 
L 142.168429 36.311401 
L 142.176182 36.255552 
L 142.185988 35.855099 
L 142.198392 36.403696 
L 142.214081 36.235116 
L 142.233925 36.682687 
L 142.259025 36.807223 
L 142.290773 36.666985 
L 142.33093 37.184805 
L 142.381723 36.914797 
L 142.445968 37.114036 
L 142.527228 37.978262 
L 142.630011 36.676819 
L 142.760017 36.605307 
L 142.924455 36.733461 
L 143.132446 36.983344 
L 143.395524 36.795665 
L 143.72828 36.973714 
L 144.149167 37.658142 
L 144.681529 37.253949 
L 145.35489 37.945681 
L 146.206594 37.129765 
L 147.283876 36.691415 
L 148.646482 37.034601 
L 150.369981 36.969444 
L 152.549958 36.460887 
L 155.307314 36.696854 
L 158.794969 36.253735 
L 163.206348 37.049537 
L 168.786104 36.505217 
L 175.843687 36.184826 
L 184.770508 36.428773 
L 196.061644 36.923788 
L 210.343296 36.497525 
" clip-path="url(#p1eecfade27)" style="fill: none; stroke-dasharray: 5.55,2.4; stroke-dashoffset: 0; stroke: #0000ff; stroke-width: 1.5"/>
   </g>
   <g id="line2d_28">
    <path d="M 142.139838 34.140909 
L 142.140019 34.231116 
L 142.140247 34.15974 
L 142.140536 33.762022 
L 142.140902 33.99615 
L 142.141364 34.135664 
L 142.141949 34.588611 
L 142.142689 34.323412 
L 142.143624 34.072019 
L 142.144808 34.251391 
L 142.146304 34.595324 
L 142.148198 34.61495 
L 142.150593 34.496434 
L 142.153622 34.578092 
L 142.157453 34.489558 
L 142.162299 34.303595 
L 142.168429 34.328723 
L 142.176182 34.320818 
L 142.185988 34.13422 
L 142.198392 34.346652 
L 142.214081 34.146296 
L 142.233925 33.811059 
L 142.259025 34.307821 
L 142.290773 33.762343 
L 142.33093 34.238209 
L 142.381723 31.389025 
L 142.445968 34.132104 
L 142.527228 33.788338 
L 142.630011 34.144573 
L 142.760017 34.235563 
L 142.924455 34.00634 
L 143.132446 35.04668 
L 143.395524 34.054534 
L 143.72828 33.732808 
L 144.149167 33.909702 
L 144.681529 34.32102 
L 145.35489 34.388313 
L 146.206594 34.249865 
L 147.283876 34.395429 
L 148.646482 34.12983 
L 150.369981 33.760627 
L 152.549958 34.117957 
L 155.307314 34.076436 
L 158.794969 34.169352 
L 163.206348 33.603716 
L 168.786104 34.241337 
L 175.843687 34.321851 
L 184.770508 33.751544 
L 196.061644 34.054593 
L 210.343296 34.296018 
" clip-path="url(#p1eecfade27)" style="fill: none; stroke-dasharray: 1.5,2.475; stroke-dashoffset: 0; stroke: #0000ff; stroke-width: 1.5"/>
   </g>
   <g id="line2d_29">
    <path d="M 142.139838 39.340286 
L 142.140019 39.275138 
L 142.140247 39.36989 
L 142.140536 39.272422 
L 142.140902 39.23873 
L 142.141364 39.342601 
L 142.141949 39.317099 
L 142.142689 39.326604 
L 142.143624 39.286737 
L 142.144808 39.262792 
L 142.146304 39.288116 
L 142.148198 39.358514 
L 142.150593 39.269937 
L 142.153622 39.260959 
L 142.157453 39.288231 
L 142.162299 39.305339 
L 142.168429 39.347734 
L 142.176182 39.261112 
L 142.185988 39.260348 
L 142.198392 39.264778 
L 142.214081 39.337972 
L 142.233925 39.269249 
L 142.259025 39.297625 
L 142.290773 39.287771 
L 142.33093 39.34071 
L 142.381723 39.358591 
L 142.445968 39.273531 
L 142.527228 39.261532 
L 142.630011 39.276859 
L 142.760017 39.347696 
L 142.924455 39.369541 
L 143.132446 39.277663 
L 143.395524 39.243262 
L 143.72828 39.295093 
L 144.149167 39.267109 
L 144.681529 39.235494 
L 145.35489 39.295285 
L 146.206594 39.272308 
L 147.283876 39.276018 
L 148.646482 39.276859 
L 150.369981 39.223743 
L 152.549958 39.29751 
L 155.307314 39.28758 
L 158.794969 39.25222 
L 163.206348 39.349009 
L 168.786104 39.359635 
L 175.843687 39.233934 
L 184.770508 39.268485 
L 196.061644 39.348584 
L 210.343296 39.253708 
" clip-path="url(#p1eecfade27)" style="fill: none; stroke-dasharray: 5.55,2.4; stroke-dashoffset: 0; stroke: #000000; stroke-width: 1.5"/>
   </g>
   <g id="line2d_30">
    <path d="M 142.139838 35.824129 
L 142.140019 38.697646 
L 142.140247 38.333997 
L 142.140536 35.693341 
L 142.140902 38.873528 
L 142.141364 38.867136 
L 142.141949 38.955449 
L 142.142689 34.926965 
L 142.143624 34.782337 
L 142.144808 35.392799 
L 142.146304 38.845313 
L 142.148198 34.844884 
L 142.150593 38.939457 
L 142.153622 38.831749 
L 142.157453 38.840174 
L 142.162299 38.937333 
L 142.168429 38.952696 
L 142.176182 35.651294 
L 142.185988 37.412759 
L 142.198392 38.882252 
L 142.214081 38.896706 
L 142.233925 38.877271 
L 142.259025 35.204192 
L 142.290773 36.352915 
L 142.33093 38.785091 
L 142.381723 38.681784 
L 142.445968 38.839125 
L 142.527228 35.600895 
L 142.630011 38.807863 
L 142.760017 35.266685 
L 142.924455 38.472249 
L 143.132446 35.782081 
L 143.395524 38.805917 
L 143.72828 38.875344 
L 144.149167 38.779166 
L 144.681529 38.506107 
L 145.35489 38.850998 
L 146.206594 38.757408 
L 147.283876 38.698996 
L 148.646482 34.671732 
L 150.369981 38.677708 
L 152.549958 38.821926 
L 155.307314 38.792206 
L 158.794969 36.226807 
L 163.206348 38.745926 
L 168.786104 38.873164 
L 175.843687 36.184594 
L 184.770508 38.819941 
L 196.061644 35.320096 
L 210.343296 38.87291 
" clip-path="url(#p1eecfade27)" style="fill: none; stroke-dasharray: 1.5,2.475; stroke-dashoffset: 0; stroke: #000000; stroke-width: 1.5"/>
   </g>
   <g id="patch_10">
    <path d="M 138.729665 51.597942 
L 138.729665 15.698543 
" style="fill: none; stroke: #000000; stroke-width: 0.8; stroke-linejoin: miter; stroke-linecap: square"/>
   </g>
   <g id="patch_11">
    <path d="M 213.753469 51.597942 
L 213.753469 15.698543 
" style="fill: none; stroke: #000000; stroke-width: 0.8; stroke-linejoin: miter; stroke-linecap: square"/>
   </g>
   <g id="patch_12">
    <path d="M 138.729665 51.597942 
L 213.753469 51.597942 
" style="fill: none; stroke: #000000; stroke-width: 0.8; stroke-linejoin: miter; stroke-linecap: square"/>
   </g>
   <g id="patch_13">
    <path d="M 138.729665 15.698543 
L 213.753469 15.698543 
" style="fill: none; stroke: #000000; stroke-width: 0.8; stroke-linejoin: miter; stroke-linecap: square"/>
   </g>
   <g id="text_17">
    <!-- $\mathbf{b)}$ -->
    <g transform="translate(126.261074 9.577584) scale(0.08 -0.08)">
     <defs>
      <path id="CMBX12-62" d="M 1331 4480 
L 224 4428 
L 224 4153 
C 621 4153 666 4153 666 3896 
L 666 -26 
L 934 -26 
C 1043 96 1152 218 1254 347 
C 1581 6 1933 -64 2189 -64 
C 3072 -64 3750 476 3750 1414 
C 3750 2300 3149 2880 2272 2880 
C 1894 2880 1594 2758 1331 2552 
L 1331 4480 
z
M 1363 2242 
C 1587 2552 1920 2668 2189 2668 
C 2982 2668 2982 1847 2982 1420 
C 2982 1130 2982 761 2829 522 
C 2630 211 2330 147 2125 147 
C 1690 147 1453 457 1363 599 
L 1363 2242 
z
" transform="scale(0.015625)"/>
     </defs>
     <use xlink:href="#CMBX12-62" transform="scale(0.996264)"/>
     <use xlink:href="#CMR17-29" transform="translate(62.266501 0) scale(0.996264)"/>
    </g>
   </g>
  </g>
  <g id="axes_3">
   <g id="patch_14">
    <path d="M 37.44753 109.036981 
L 112.471334 109.036981 
L 112.471334 73.137582 
L 37.44753 73.137582 
z
" style="fill: #ffffff"/>
   </g>
   <g id="FillBetweenPolyCollection_5">
    <defs>
     <path id="mb2e696a3c0" d="M 40.857703 -42.591239 
L 40.857703 -41.107956 
L 40.857883 -41.118411 
L 40.858112 -41.362731 
L 40.858401 -41.174572 
L 40.858766 -41.707489 
L 40.859229 -41.586788 
L 40.859814 -41.702594 
L 40.860553 -41.552172 
L 40.861489 -41.498936 
L 40.862672 -41.506088 
L 40.864169 -41.541976 
L 40.866063 -41.718813 
L 40.868457 -41.950216 
L 40.871486 -41.762456 
L 40.875318 -42.092337 
L 40.880164 -42.161093 
L 40.886293 -41.935869 
L 40.894046 -42.020774 
L 40.903853 -41.913528 
L 40.916257 -42.6142 
L 40.931946 -41.745709 
L 40.95179 -41.585909 
L 40.97689 -41.722905 
L 41.008638 -41.975505 
L 41.048795 -41.749669 
L 41.099587 -41.930289 
L 41.163832 -42.114059 
L 41.245093 -41.967519 
L 41.347876 -42.419413 
L 41.477882 -42.267914 
L 41.64232 -42.05243 
L 41.850311 -42.058864 
L 42.113389 -41.524781 
L 42.446144 -42.334291 
L 42.867032 -41.771573 
L 43.399394 -41.985092 
L 44.072755 -42.360761 
L 44.924459 -41.661622 
L 46.001741 -41.849167 
L 47.364347 -42.330058 
L 49.087846 -41.742386 
L 51.267823 -41.416105 
L 54.025178 -41.562919 
L 57.512834 -41.38065 
L 61.924213 -41.613351 
L 67.503969 -41.60768 
L 74.561552 -41.702699 
L 83.488373 -42.053214 
L 94.779509 -41.699691 
L 109.061161 -41.829384 
L 109.061161 -43.181669 
L 109.061161 -43.181669 
L 94.779509 -43.462911 
L 83.488373 -43.205677 
L 74.561552 -43.14856 
L 67.503969 -42.865226 
L 61.924213 -42.929749 
L 57.512834 -42.925115 
L 54.025178 -42.971141 
L 51.267823 -42.867237 
L 49.087846 -43.06899 
L 47.364347 -43.511313 
L 46.001741 -43.364325 
L 44.924459 -42.745531 
L 44.072755 -43.167806 
L 43.399394 -43.295255 
L 42.867032 -43.444752 
L 42.446144 -43.264743 
L 42.113389 -43.226897 
L 41.850311 -43.005665 
L 41.64232 -43.293558 
L 41.477882 -43.242595 
L 41.347876 -43.312936 
L 41.245093 -43.039273 
L 41.163832 -43.177679 
L 41.099587 -43.038896 
L 41.048795 -43.125358 
L 41.008638 -43.00861 
L 40.97689 -43.035263 
L 40.95179 -42.826531 
L 40.931946 -43.199702 
L 40.916257 -43.665981 
L 40.903853 -43.867132 
L 40.894046 -43.15564 
L 40.886293 -43.096143 
L 40.880164 -43.245495 
L 40.875318 -43.244803 
L 40.871486 -43.028132 
L 40.868457 -43.081763 
L 40.866063 -43.104477 
L 40.864169 -43.476819 
L 40.862672 -42.93552 
L 40.861489 -42.709142 
L 40.860553 -42.692552 
L 40.859814 -42.705861 
L 40.859229 -42.821134 
L 40.858766 -42.960517 
L 40.858401 -42.833961 
L 40.858112 -42.660732 
L 40.857883 -42.682812 
L 40.857703 -42.591239 
z
" style="stroke: #0000ff; stroke-opacity: 0.2"/>
    </defs>
    <g clip-path="url(#pbe6d3383f0)">
     <use xlink:href="#mb2e696a3c0" x="0" y="134.806076" style="fill: #0000ff; fill-opacity: 0.2; stroke: #0000ff; stroke-opacity: 0.2"/>
    </g>
   </g>
   <g id="FillBetweenPolyCollection_6">
    <defs>
     <path id="m9319abf151" d="M 40.857703 -40.403699 
L 40.857703 -39.185659 
L 40.857883 -40.996483 
L 40.858112 -39.153462 
L 40.858401 -40.641817 
L 40.858766 -39.267973 
L 40.859229 -40.565635 
L 40.859814 -39.066413 
L 40.860553 -40.85705 
L 40.861489 -38.752094 
L 40.862672 -40.908003 
L 40.864169 -39.246095 
L 40.866063 -40.623519 
L 40.868457 -39.180263 
L 40.871486 -40.436843 
L 40.875318 -38.278367 
L 40.880164 -40.989476 
L 40.886293 -39.188492 
L 40.894046 -41.049796 
L 40.903853 -38.268411 
L 40.916257 -40.646411 
L 40.931946 -39.089049 
L 40.95179 -40.8126 
L 40.97689 -39.011063 
L 41.008638 -40.758601 
L 41.048795 -38.821767 
L 41.099587 -40.744756 
L 41.163832 -39.195434 
L 41.245093 -40.98217 
L 41.347876 -38.930852 
L 41.477882 -40.99377 
L 41.64232 -38.93904 
L 41.850311 -40.63061 
L 42.113389 -39.094523 
L 42.446144 -40.966554 
L 42.867032 -39.193725 
L 43.399394 -40.491593 
L 44.072755 -39.202047 
L 44.924459 -40.695753 
L 46.001741 -38.794801 
L 47.364347 -40.691207 
L 49.087846 -38.848273 
L 51.267823 -41.045681 
L 54.025178 -38.79363 
L 57.512834 -40.746089 
L 61.924213 -39.198003 
L 67.503969 -40.989939 
L 74.561552 -38.487111 
L 83.488373 -40.539107 
L 94.779509 -39.196508 
L 109.061161 -41.002213 
L 109.061161 -41.769509 
L 109.061161 -41.769509 
L 94.779509 -39.968744 
L 83.488373 -42.416859 
L 74.561552 -40.977168 
L 67.503969 -41.60535 
L 61.924213 -40.090873 
L 57.512834 -41.795331 
L 54.025178 -40.913818 
L 51.267823 -41.710927 
L 49.087846 -40.275671 
L 47.364347 -42.223723 
L 46.001741 -40.439453 
L 44.924459 -42.182832 
L 44.072755 -39.951401 
L 43.399394 -42.148934 
L 42.867032 -40.238864 
L 42.446144 -41.689338 
L 42.113389 -40.505422 
L 41.850311 -42.158665 
L 41.64232 -40.604394 
L 41.477882 -41.678389 
L 41.347876 -40.330772 
L 41.245093 -41.716986 
L 41.163832 -40.084164 
L 41.099587 -42.11071 
L 41.048795 -40.418615 
L 41.008638 -42.29387 
L 40.97689 -40.179989 
L 40.95179 -41.957589 
L 40.931946 -40.445316 
L 40.916257 -41.90992 
L 40.903853 -41.286219 
L 40.894046 -41.863192 
L 40.886293 -40.000571 
L 40.880164 -41.825632 
L 40.875318 -41.333675 
L 40.871486 -42.537496 
L 40.868457 -39.763253 
L 40.866063 -42.253954 
L 40.864169 -40.114627 
L 40.862672 -41.705564 
L 40.861489 -40.640261 
L 40.860553 -41.974724 
L 40.859814 -40.070684 
L 40.859229 -42.276412 
L 40.858766 -40.200564 
L 40.858401 -42.173561 
L 40.858112 -40.08748 
L 40.857883 -41.497618 
L 40.857703 -40.403699 
z
" style="stroke: #000000; stroke-opacity: 0.2"/>
    </defs>
    <g clip-path="url(#pbe6d3383f0)">
     <use xlink:href="#m9319abf151" x="0" y="134.806076" style="fill-opacity: 0.2; stroke: #000000; stroke-opacity: 0.2"/>
    </g>
   </g>
   <g id="matplotlib.axis_5">
    <g id="xtick_7">
     <g id="line2d_31">
      <g>
       <use xlink:href="#m935904d9a7" x="40.857021" y="109.036981" style="stroke: #000000; stroke-width: 0.8"/>
      </g>
     </g>
     <g id="text_18">
      <!-- $\mathdefault{0}$ -->
      <g transform="translate(38.739929 121.571783) scale(0.08 -0.08)">
       <use xlink:href="#CMR17-30" transform="scale(0.996264)"/>
      </g>
     </g>
    </g>
    <g id="xtick_8">
     <g id="line2d_32">
      <g>
       <use xlink:href="#m935904d9a7" x="74.959091" y="109.036981" style="stroke: #000000; stroke-width: 0.8"/>
      </g>
     </g>
     <g id="text_19">
      <!-- $\mathdefault{50}$ -->
      <g transform="translate(70.724908 121.571783) scale(0.08 -0.08)">
       <defs>
        <path id="CMR17-35" d="M 730 3750 
C 794 3724 1056 3641 1325 3641 
C 1920 3641 2246 3961 2432 4140 
C 2432 4191 2432 4224 2394 4224 
C 2387 4224 2374 4224 2323 4198 
C 2099 4102 1837 4032 1517 4032 
C 1325 4032 1037 4055 723 4191 
C 653 4224 640 4224 634 4224 
C 602 4224 595 4217 595 4090 
L 595 2231 
C 595 2113 595 2080 659 2080 
C 691 2080 704 2093 736 2139 
C 941 2435 1222 2560 1542 2560 
C 1766 2560 2246 2415 2246 1293 
C 2246 1087 2246 716 2054 422 
C 1894 159 1645 25 1370 25 
C 947 25 518 319 403 812 
C 429 806 480 793 506 793 
C 589 793 749 838 749 1036 
C 749 1209 627 1280 506 1280 
C 358 1280 262 1190 262 1011 
C 262 454 704 -128 1382 -128 
C 2042 -128 2669 441 2669 1267 
C 2669 2054 2170 2662 1549 2662 
C 1222 2662 947 2540 730 2304 
L 730 3750 
z
" transform="scale(0.015625)"/>
       </defs>
       <use xlink:href="#CMR17-35" transform="scale(0.996264)"/>
       <use xlink:href="#CMR17-30" transform="translate(45.690477 0) scale(0.996264)"/>
      </g>
     </g>
    </g>
    <g id="xtick_9">
     <g id="line2d_33">
      <g>
       <use xlink:href="#m935904d9a7" x="109.061161" y="109.036981" style="stroke: #000000; stroke-width: 0.8"/>
      </g>
     </g>
     <g id="text_20">
      <!-- $\mathdefault{100}$ -->
      <g transform="translate(102.709887 121.571783) scale(0.08 -0.08)">
       <use xlink:href="#CMR17-31" transform="scale(0.996264)"/>
       <use xlink:href="#CMR17-30" transform="translate(45.690477 0) scale(0.996264)"/>
       <use xlink:href="#CMR17-30" transform="translate(91.380954 0) scale(0.996264)"/>
      </g>
     </g>
    </g>
    <g id="text_21">
     <!-- $\sigma_t$ -->
     <g transform="translate(71.114567 129.656331) scale(0.08 -0.08)">
      <defs>
       <path id="CMMI12-1b" d="M 3251 2406 
C 3334 2406 3546 2406 3546 2611 
C 3546 2752 3424 2752 3309 2752 
L 1894 2752 
C 934 2752 243 1685 243 932 
C 243 389 595 -64 1171 -64 
C 1926 -64 2752 746 2752 1704 
C 2752 1953 2694 2195 2541 2406 
L 3251 2406 
z
M 1178 64 
C 851 64 614 312 614 753 
C 614 1136 845 2406 1786 2406 
C 2061 2406 2368 2272 2368 1780 
C 2368 1557 2266 1021 2042 651 
C 1811 274 1466 64 1178 64 
z
" transform="scale(0.015625)"/>
       <path id="CMMI12-74" d="M 1286 2566 
L 1875 2566 
C 1997 2566 2061 2566 2061 2681 
C 2061 2752 2022 2752 1894 2752 
L 1331 2752 
L 1568 3664 
C 1594 3752 1594 3764 1594 3808 
C 1594 3910 1510 3968 1427 3968 
C 1376 3968 1229 3948 1178 3746 
L 928 2752 
L 326 2752 
C 198 2752 141 2752 141 2630 
C 141 2566 186 2566 307 2566 
L 877 2566 
L 454 881 
C 403 657 384 593 384 510 
C 384 210 595 -64 954 -64 
C 1600 -64 1946 868 1946 913 
C 1946 951 1920 970 1882 970 
C 1869 970 1843 970 1830 944 
C 1824 938 1818 932 1773 830 
C 1638 510 1344 64 973 64 
C 781 64 768 223 768 364 
C 768 370 768 491 787 568 
L 1286 2566 
z
" transform="scale(0.015625)"/>
      </defs>
      <use xlink:href="#CMMI12-1b" transform="scale(0.996264)"/>
      <use xlink:href="#CMMI12-74" transform="translate(55.445461 -14.943915) scale(0.697382)"/>
     </g>
    </g>
   </g>
   <g id="matplotlib.axis_6">
    <g id="ytick_7">
     <g id="line2d_34">
      <g>
       <use xlink:href="#mc560aca340" x="37.44753" y="109.036981" style="stroke: #000000; stroke-width: 0.8"/>
      </g>
     </g>
     <g id="text_22">
      <!-- $10^{-2}$ -->
      <g transform="translate(12.570112 111.804382) scale(0.08 -0.08)">
       <use xlink:href="#CMR17-31" transform="scale(0.996264)"/>
       <use xlink:href="#CMR17-30" transform="translate(45.690477 0) scale(0.996264)"/>
       <use xlink:href="#CMSY10-0" transform="translate(91.380954 36.153639) scale(0.697382)"/>
       <use xlink:href="#CMR17-32" transform="translate(145.621947 36.153639) scale(0.697382)"/>
      </g>
     </g>
    </g>
    <g id="ytick_8">
     <g id="line2d_35">
      <g>
       <use xlink:href="#mc560aca340" x="37.44753" y="91.087282" style="stroke: #000000; stroke-width: 0.8"/>
      </g>
     </g>
     <g id="text_23">
      <!-- $10^{-1}$ -->
      <g transform="translate(12.570112 93.854683) scale(0.08 -0.08)">
       <use xlink:href="#CMR17-31" transform="scale(0.996264)"/>
       <use xlink:href="#CMR17-30" transform="translate(45.690477 0) scale(0.996264)"/>
       <use xlink:href="#CMSY10-0" transform="translate(91.380954 36.153639) scale(0.697382)"/>
       <use xlink:href="#CMR17-31" transform="translate(145.621947 36.153639) scale(0.697382)"/>
      </g>
     </g>
    </g>
    <g id="ytick_9">
     <g id="line2d_36">
      <g>
       <use xlink:href="#mc560aca340" x="37.44753" y="73.137582" style="stroke: #000000; stroke-width: 0.8"/>
      </g>
     </g>
     <g id="text_24">
      <!-- $10^{0}$ -->
      <g transform="translate(18.326252 75.904983) scale(0.08 -0.08)">
       <use xlink:href="#CMR17-31" transform="scale(0.996264)"/>
       <use xlink:href="#CMR17-30" transform="translate(45.690477 0) scale(0.996264)"/>
       <use xlink:href="#CMR17-30" transform="translate(91.380954 36.153639) scale(0.697382)"/>
      </g>
     </g>
    </g>
    <g id="text_25">
     <!-- Time ($s$) -->
     <g transform="translate(9.577584 107.394416) rotate(-90) scale(0.08 -0.08)">
      <use xlink:href="#CMR17-54" transform="scale(0.996264)"/>
      <use xlink:href="#CMR17-69" transform="translate(66.509881 0) scale(0.996264)"/>
      <use xlink:href="#CMR17-6d" transform="translate(91.380939 0) scale(0.996264)"/>
      <use xlink:href="#CMR17-65" transform="translate(168.300529 0) scale(0.996264)"/>
      <use xlink:href="#CMR17-28" transform="translate(238.862156 0) scale(0.996264)"/>
      <use xlink:href="#CMMI12-73" transform="translate(274.142924 0) scale(0.996264)"/>
      <use xlink:href="#CMR17-29" transform="translate(320.092971 0) scale(0.996264)"/>
     </g>
    </g>
   </g>
   <g id="line2d_37">
    <path d="M 40.857703 92.921253 
L 40.857883 92.866287 
L 40.858112 92.76736 
L 40.858401 92.757739 
L 40.858766 92.446925 
L 40.859229 92.57771 
L 40.859814 92.58572 
L 40.860553 92.66288 
L 40.861489 92.678576 
L 40.862672 92.552554 
L 40.864169 92.236803 
L 40.866063 92.363684 
L 40.868457 92.269574 
L 40.871486 92.385124 
L 40.875318 92.116229 
L 40.880164 92.083942 
L 40.886293 92.268503 
L 40.894046 92.197236 
L 40.903853 91.854707 
L 40.916257 91.64826 
L 40.931946 92.299521 
L 40.95179 92.575202 
L 40.97689 92.399408 
L 41.008638 92.296917 
L 41.048795 92.338256 
L 41.099587 92.301793 
L 41.163832 92.142081 
L 41.245093 92.284276 
L 41.347876 91.927107 
L 41.477882 92.035599 
L 41.64232 92.108408 
L 41.850311 92.259446 
L 42.113389 92.383873 
L 42.446144 91.992685 
L 42.867032 92.153109 
L 43.399394 92.138411 
L 44.072755 92.031354 
L 44.924459 92.583676 
L 46.001741 92.162577 
L 47.364347 91.863038 
L 49.087846 92.372203 
L 51.267823 92.630688 
L 54.025178 92.507291 
L 57.512834 92.615007 
L 61.924213 92.506772 
L 67.503969 92.544293 
L 74.561552 92.346974 
L 83.488373 92.155353 
L 94.779509 92.175029 
L 109.061161 92.271263 
" clip-path="url(#pbe6d3383f0)" style="fill: none; stroke: #0000ff; stroke-width: 1.5; stroke-linecap: square"/>
   </g>
   <g id="line2d_38">
    <path d="M 40.857703 94.987632 
L 40.857883 93.554999 
L 40.858112 95.171625 
L 40.858401 93.360826 
L 40.858766 95.05787 
L 40.859229 93.338216 
L 40.859814 95.221367 
L 40.860553 93.370176 
L 40.861489 95.05287 
L 40.862672 93.489097 
L 40.864169 95.113626 
L 40.866063 93.324791 
L 40.868457 95.32887 
L 40.871486 93.248361 
L 40.875318 94.851319 
L 40.880164 93.387317 
L 40.886293 95.200975 
L 40.894046 93.338978 
L 40.903853 94.883631 
L 40.916257 93.50234 
L 40.931946 95.009435 
L 40.95179 93.399979 
L 40.97689 95.18866 
L 41.008638 93.242106 
L 41.048795 95.145069 
L 41.099587 93.348463 
L 41.163832 95.153619 
L 41.245093 93.447843 
L 41.347876 95.143881 
L 41.477882 93.462484 
L 41.64232 94.989972 
L 41.850311 93.374058 
L 42.113389 94.974228 
L 42.446144 93.469756 
L 42.867032 95.07228 
L 43.399394 93.441851 
L 44.072755 95.220352 
L 44.924459 93.331377 
L 46.001741 95.145657 
L 47.364347 93.311012 
L 49.087846 95.211479 
L 51.267823 93.420678 
L 54.025178 94.880493 
L 57.512834 93.517727 
L 61.924213 95.148862 
L 67.503969 93.502361 
L 74.561552 94.974933 
L 83.488373 93.271691 
L 94.779509 95.213892 
L 109.061161 93.410779 
" clip-path="url(#pbe6d3383f0)" style="fill: none; stroke: #000000; stroke-width: 1.5; stroke-linecap: square"/>
   </g>
   <g id="line2d_39">
    <path d="M 40.857703 94.482167 
L 40.857883 94.489295 
L 40.858112 95.117227 
L 40.858401 94.848816 
L 40.858766 93.651526 
L 40.859229 94.241275 
L 40.859814 94.240133 
L 40.860553 93.6546 
L 40.861489 94.550437 
L 40.862672 94.177389 
L 40.864169 93.71404 
L 40.866063 94.167532 
L 40.868457 93.798451 
L 40.871486 94.07706 
L 40.875318 93.123349 
L 40.880164 93.679519 
L 40.886293 93.256144 
L 40.894046 93.414128 
L 40.903853 93.263733 
L 40.916257 93.452726 
L 40.931946 95.333763 
L 40.95179 94.017531 
L 40.97689 93.906888 
L 41.008638 93.320949 
L 41.048795 94.291042 
L 41.099587 93.466458 
L 41.163832 93.346535 
L 41.245093 93.175384 
L 41.347876 92.761577 
L 41.477882 93.251064 
L 41.64232 93.97456 
L 41.850311 93.167638 
L 42.113389 94.150086 
L 42.446144 93.049491 
L 42.867032 94.341722 
L 43.399394 93.896221 
L 44.072755 92.825471 
L 44.924459 93.729127 
L 46.001741 94.252983 
L 47.364347 93.48489 
L 49.087846 93.654832 
L 51.267823 93.902273 
L 54.025178 94.469623 
L 57.512834 94.052172 
L 61.924213 93.678041 
L 67.503969 94.489123 
L 74.561552 94.4286 
L 83.488373 93.601073 
L 94.779509 93.464693 
L 109.061161 93.593071 
" clip-path="url(#pbe6d3383f0)" style="fill: none; stroke-dasharray: 5.55,2.4; stroke-dashoffset: 0; stroke: #0000ff; stroke-width: 1.5"/>
   </g>
   <g id="line2d_40">
    <path d="M 40.857703 91.343861 
L 40.857883 91.098486 
L 40.858112 91.681218 
L 40.858401 91.51956 
L 40.858766 91.312175 
L 40.859229 91.3077 
L 40.859814 91.661007 
L 40.860553 91.236465 
L 40.861489 91.800158 
L 40.862672 91.23067 
L 40.864169 89.582175 
L 40.866063 90.931399 
L 40.868457 90.970648 
L 40.871486 91.352971 
L 40.875318 90.886313 
L 40.880164 91.0688 
L 40.886293 91.099417 
L 40.894046 90.865367 
L 40.903853 88.449162 
L 40.916257 90.995626 
L 40.931946 91.253287 
L 40.95179 91.511726 
L 40.97689 91.408067 
L 41.008638 91.251142 
L 41.048795 90.991512 
L 41.099587 91.177204 
L 41.163832 91.262006 
L 41.245093 91.055424 
L 41.347876 91.018823 
L 41.477882 91.094355 
L 41.64232 90.781746 
L 41.850311 91.343976 
L 42.113389 90.866107 
L 42.446144 91.018565 
L 42.867032 89.894732 
L 43.399394 91.08662 
L 44.072755 91.314203 
L 44.924459 91.322895 
L 46.001741 90.724074 
L 47.364347 90.263319 
L 49.087846 90.976326 
L 51.267823 91.083536 
L 54.025178 90.946973 
L 57.512834 90.189195 
L 61.924213 91.203457 
L 67.503969 91.513139 
L 74.561552 91.170983 
L 83.488373 90.993899 
L 94.779509 89.282627 
L 109.061161 90.795806 
" clip-path="url(#pbe6d3383f0)" style="fill: none; stroke-dasharray: 1.5,2.475; stroke-dashoffset: 0; stroke: #0000ff; stroke-width: 1.5"/>
   </g>
   <g id="line2d_41">
    <path d="M 40.857703 95.652233 
L 40.857883 93.805138 
L 40.858112 95.653902 
L 40.858401 93.843979 
L 40.858766 95.6068 
L 40.859229 93.914497 
L 40.859814 95.595293 
L 40.860553 93.797925 
L 40.861489 95.576063 
L 40.862672 93.863963 
L 40.864169 95.548279 
L 40.866063 93.832658 
L 40.868457 95.598641 
L 40.871486 93.899046 
L 40.875318 95.6069 
L 40.880164 93.895555 
L 40.886293 95.607265 
L 40.894046 93.899286 
L 40.903853 95.606933 
L 40.916257 93.865556 
L 40.931946 95.582678 
L 40.95179 93.954908 
L 40.97689 95.606999 
L 41.008638 93.838105 
L 41.048795 95.535838 
L 41.099587 93.859294 
L 41.163832 95.595293 
L 41.245093 93.907555 
L 41.347876 95.637592 
L 41.477882 93.813176 
L 41.64232 95.598508 
L 41.850311 93.832658 
L 42.113389 95.631131 
L 42.446144 93.763162 
L 42.867032 95.607298 
L 43.399394 93.907902 
L 44.072755 95.661953 
L 44.924459 94.547076 
L 46.001741 95.667704 
L 47.364347 93.794741 
L 49.087846 95.568068 
L 51.267823 93.794452 
L 54.025178 95.606668 
L 57.512834 93.915592 
L 61.924213 95.589827 
L 67.503969 93.889429 
L 74.561552 95.644659 
L 83.488373 93.92781 
L 94.779509 95.545414 
L 109.061161 93.832684 
" clip-path="url(#pbe6d3383f0)" style="fill: none; stroke-dasharray: 5.55,2.4; stroke-dashoffset: 0; stroke: #000000; stroke-width: 1.5"/>
   </g>
   <g id="line2d_42">
    <path d="M 40.857703 93.430126 
L 40.857883 92.924539 
L 40.858112 94.175427 
L 40.858401 90.431175 
L 40.858766 94.355362 
L 40.859229 90.646952 
L 40.859814 93.729884 
L 40.860553 91.25965 
L 40.861489 91.392725 
L 40.862672 92.377049 
L 40.864169 94.192931 
L 40.866063 90.099394 
L 40.868457 94.469365 
L 40.871486 89.664058 
L 40.875318 89.690224 
L 40.880164 92.273117 
L 40.886293 94.33969 
L 40.894046 92.680466 
L 40.903853 90.861935 
L 40.916257 90.874314 
L 40.931946 92.749629 
L 40.95179 91.339982 
L 40.97689 93.121322 
L 41.008638 90.321071 
L 41.048795 91.931019 
L 41.099587 90.703806 
L 41.163832 94.3265 
L 41.245093 92.830885 
L 41.347876 92.47452 
L 41.477882 92.738457 
L 41.64232 91.847836 
L 41.850311 90.308161 
L 42.113389 92.57255 
L 42.446144 92.252867 
L 42.867032 94.185985 
L 43.399394 90.013935 
L 44.072755 94.465092 
L 44.924459 90.555259 
L 46.001741 92.017633 
L 47.364347 91.154656 
L 49.087846 92.276862 
L 51.267823 92.753586 
L 54.025178 91.060368 
L 57.512834 91.349664 
L 61.924213 94.106955 
L 67.503969 92.848943 
L 74.561552 91.11949 
L 83.488373 90.513085 
L 94.779509 94.129959 
L 109.061161 92.594573 
" clip-path="url(#pbe6d3383f0)" style="fill: none; stroke-dasharray: 1.5,2.475; stroke-dashoffset: 0; stroke: #000000; stroke-width: 1.5"/>
   </g>
   <g id="patch_15">
    <path d="M 37.44753 109.036981 
L 37.44753 73.137582 
" style="fill: none; stroke: #000000; stroke-width: 0.8; stroke-linejoin: miter; stroke-linecap: square"/>
   </g>
   <g id="patch_16">
    <path d="M 112.471334 109.036981 
L 112.471334 73.137582 
" style="fill: none; stroke: #000000; stroke-width: 0.8; stroke-linejoin: miter; stroke-linecap: square"/>
   </g>
   <g id="patch_17">
    <path d="M 37.44753 109.036981 
L 112.471334 109.036981 
" style="fill: none; stroke: #000000; stroke-width: 0.8; stroke-linejoin: miter; stroke-linecap: square"/>
   </g>
   <g id="patch_18">
    <path d="M 37.44753 73.137582 
L 112.471334 73.137582 
" style="fill: none; stroke: #000000; stroke-width: 0.8; stroke-linejoin: miter; stroke-linecap: square"/>
   </g>
   <g id="text_26">
    <!-- $\mathbf{c)}$ -->
    <g transform="translate(26.063768 67.016623) scale(0.08 -0.08)">
     <defs>
      <path id="CMBX12-63" d="M 2995 724 
C 2995 801 2925 801 2861 801 
C 2758 801 2752 795 2720 718 
C 2675 596 2502 166 1914 166 
C 1011 166 1011 1141 1011 1430 
C 1011 1808 1018 2649 1856 2649 
C 1901 2649 2278 2636 2278 2604 
C 2278 2598 2272 2591 2259 2585 
C 2240 2566 2157 2469 2157 2309 
C 2157 2039 2374 1930 2534 1930 
C 2669 1930 2912 2014 2912 2315 
C 2912 2841 2176 2880 1830 2880 
C 691 2880 243 2136 243 1398 
C 243 525 851 -64 1792 -64 
C 2797 -64 2995 679 2995 724 
z
" transform="scale(0.015625)"/>
     </defs>
     <use xlink:href="#CMBX12-63" transform="scale(0.996264)"/>
     <use xlink:href="#CMR17-29" transform="translate(49.8132 0) scale(0.996264)"/>
    </g>
   </g>
  </g>
  <g id="axes_4">
   <g id="patch_19">
    <path d="M 138.729665 109.036981 
L 213.753469 109.036981 
L 213.753469 73.137582 
L 138.729665 73.137582 
z
" style="fill: #ffffff"/>
   </g>
   <g id="FillBetweenPolyCollection_7">
    <defs>
     <path id="ma0dbdabcec" d="M 142.139838 -42.974282 
L 142.139838 -41.549268 
L 142.140019 -41.563969 
L 142.140247 -41.169948 
L 142.140536 -41.244206 
L 142.140902 -41.69657 
L 142.141364 -41.755814 
L 142.141949 -42.179992 
L 142.142689 -42.227529 
L 142.143624 -42.028843 
L 142.144808 -41.720729 
L 142.146304 -41.561222 
L 142.148198 -41.43925 
L 142.150593 -40.954709 
L 142.153622 -41.159109 
L 142.157453 -40.812508 
L 142.162299 -41.302075 
L 142.168429 -41.427611 
L 142.176182 -41.352073 
L 142.185988 -41.444934 
L 142.198392 -41.848661 
L 142.214081 -41.798376 
L 142.233925 -41.706636 
L 142.259025 -42.3447 
L 142.290773 -41.804628 
L 142.33093 -41.91594 
L 142.381723 -41.35821 
L 142.445968 -41.487638 
L 142.527228 -41.211606 
L 142.630011 -41.006935 
L 142.760017 -41.034847 
L 142.924455 -41.149952 
L 143.132446 -40.914395 
L 143.395524 -41.157857 
L 143.72828 -41.275562 
L 144.149167 -41.436965 
L 144.681529 -41.251801 
L 145.35489 -41.658583 
L 146.206594 -41.375578 
L 147.283876 -41.398045 
L 148.646482 -41.242505 
L 150.369981 -41.343977 
L 152.549958 -41.360961 
L 155.307314 -41.80599 
L 158.794969 -41.561702 
L 163.206348 -41.883038 
L 168.786104 -41.785155 
L 175.843687 -41.814386 
L 184.770508 -41.599945 
L 196.061644 -41.731563 
L 210.343296 -41.452948 
L 210.343296 -42.708157 
L 210.343296 -42.708157 
L 196.061644 -42.881463 
L 184.770508 -42.966408 
L 175.843687 -42.979186 
L 168.786104 -42.796993 
L 163.206348 -42.860895 
L 158.794969 -42.731306 
L 155.307314 -42.769848 
L 152.549958 -42.512143 
L 150.369981 -42.858136 
L 148.646482 -42.760223 
L 147.283876 -42.700416 
L 146.206594 -42.765788 
L 145.35489 -42.690868 
L 144.681529 -42.627905 
L 144.149167 -42.59932 
L 143.72828 -42.544183 
L 143.395524 -42.421805 
L 143.132446 -42.424596 
L 142.924455 -42.284788 
L 142.760017 -42.205626 
L 142.630011 -42.356104 
L 142.527228 -42.687299 
L 142.445968 -42.627038 
L 142.381723 -42.982182 
L 142.33093 -42.893256 
L 142.290773 -42.885831 
L 142.259025 -43.124949 
L 142.233925 -43.120974 
L 142.214081 -43.008736 
L 142.198392 -43.083036 
L 142.185988 -42.555201 
L 142.176182 -42.62381 
L 142.168429 -42.482683 
L 142.162299 -42.434166 
L 142.157453 -42.004144 
L 142.153622 -42.373611 
L 142.150593 -42.266665 
L 142.148198 -42.809396 
L 142.146304 -42.627555 
L 142.144808 -42.962922 
L 142.143624 -42.999035 
L 142.142689 -43.233087 
L 142.141949 -43.377333 
L 142.141364 -43.292042 
L 142.140902 -42.796109 
L 142.140536 -42.501897 
L 142.140247 -42.6162 
L 142.140019 -42.705112 
L 142.139838 -42.974282 
z
" style="stroke: #0000ff; stroke-opacity: 0.2"/>
    </defs>
    <g clip-path="url(#p572cf98e5d)">
     <use xlink:href="#ma0dbdabcec" x="0" y="134.806076" style="fill: #0000ff; fill-opacity: 0.2; stroke: #0000ff; stroke-opacity: 0.2"/>
    </g>
   </g>
   <g id="FillBetweenPolyCollection_8">
    <defs>
     <path id="m12d63fa435" d="M 142.139838 -40.067159 
L 142.139838 -37.797356 
L 142.140019 -39.421988 
L 142.140247 -37.890596 
L 142.140536 -39.38972 
L 142.140902 -37.923151 
L 142.141364 -38.778596 
L 142.141949 -38.519651 
L 142.142689 -39.33792 
L 142.143624 -38.577484 
L 142.144808 -39.266867 
L 142.146304 -37.897253 
L 142.148198 -39.471828 
L 142.150593 -37.891695 
L 142.153622 -39.216351 
L 142.157453 -38.515528 
L 142.162299 -39.000849 
L 142.168429 -38.410217 
L 142.176182 -38.996613 
L 142.185988 -38.27513 
L 142.198392 -39.471923 
L 142.214081 -38.520604 
L 142.233925 -38.881922 
L 142.259025 -37.903302 
L 142.290773 -39.448302 
L 142.33093 -38.505711 
L 142.381723 -39.076554 
L 142.445968 -38.572209 
L 142.527228 -38.901591 
L 142.630011 -38.499818 
L 142.760017 -39.480742 
L 142.924455 -38.521829 
L 143.132446 -39.350829 
L 143.395524 -38.524824 
L 143.72828 -39.429323 
L 144.149167 -38.566808 
L 144.681529 -39.421675 
L 145.35489 -38.438175 
L 146.206594 -39.067492 
L 147.283876 -38.502133 
L 148.646482 -39.482741 
L 150.369981 -38.474013 
L 152.549958 -39.426035 
L 155.307314 -38.537892 
L 158.794969 -39.411041 
L 163.206348 -38.525649 
L 168.786104 -39.427693 
L 175.843687 -37.935509 
L 184.770508 -38.764749 
L 196.061644 -38.549655 
L 210.343296 -39.318249 
L 210.343296 -40.247655 
L 210.343296 -40.247655 
L 196.061644 -38.852692 
L 184.770508 -40.885903 
L 175.843687 -39.909093 
L 168.786104 -39.947082 
L 163.206348 -38.862325 
L 158.794969 -39.994804 
L 155.307314 -38.748624 
L 152.549958 -39.994406 
L 150.369981 -39.018343 
L 148.646482 -40.028641 
L 147.283876 -39.090893 
L 146.206594 -40.43363 
L 145.35489 -39.057062 
L 144.681529 -39.947791 
L 144.149167 -38.784928 
L 143.72828 -40.093736 
L 143.395524 -38.924684 
L 143.132446 -40.10654 
L 142.924455 -38.843438 
L 142.760017 -39.772652 
L 142.630011 -39.027337 
L 142.527228 -40.692182 
L 142.445968 -38.922924 
L 142.381723 -40.575385 
L 142.33093 -38.998677 
L 142.290773 -39.855504 
L 142.259025 -39.972773 
L 142.233925 -40.585929 
L 142.214081 -38.906293 
L 142.198392 -39.774145 
L 142.185988 -39.55013 
L 142.176182 -40.610995 
L 142.168429 -39.051595 
L 142.162299 -40.538831 
L 142.157453 -38.931183 
L 142.153622 -40.202038 
L 142.150593 -39.701413 
L 142.148198 -39.845809 
L 142.146304 -39.713078 
L 142.144808 -40.157247 
L 142.143624 -38.831815 
L 142.142689 -40.233584 
L 142.141949 -38.823005 
L 142.141364 -41.003992 
L 142.140902 -39.846846 
L 142.140536 -39.999826 
L 142.140247 -39.724805 
L 142.140019 -39.868355 
L 142.139838 -40.067159 
z
" style="stroke: #000000; stroke-opacity: 0.2"/>
    </defs>
    <g clip-path="url(#p572cf98e5d)">
     <use xlink:href="#m12d63fa435" x="0" y="134.806076" style="fill-opacity: 0.2; stroke: #000000; stroke-opacity: 0.2"/>
    </g>
   </g>
   <g id="matplotlib.axis_7">
    <g id="xtick_10">
     <g id="line2d_43">
      <g>
       <use xlink:href="#m935904d9a7" x="142.139156" y="109.036981" style="stroke: #000000; stroke-width: 0.8"/>
      </g>
     </g>
     <g id="text_27">
      <!-- $\mathdefault{0}$ -->
      <g transform="translate(140.022064 121.571783) scale(0.08 -0.08)">
       <use xlink:href="#CMR17-30" transform="scale(0.996264)"/>
      </g>
     </g>
    </g>
    <g id="xtick_11">
     <g id="line2d_44">
      <g>
       <use xlink:href="#m935904d9a7" x="176.241226" y="109.036981" style="stroke: #000000; stroke-width: 0.8"/>
      </g>
     </g>
     <g id="text_28">
      <!-- $\mathdefault{50}$ -->
      <g transform="translate(172.007043 121.571783) scale(0.08 -0.08)">
       <use xlink:href="#CMR17-35" transform="scale(0.996264)"/>
       <use xlink:href="#CMR17-30" transform="translate(45.690477 0) scale(0.996264)"/>
      </g>
     </g>
    </g>
    <g id="xtick_12">
     <g id="line2d_45">
      <g>
       <use xlink:href="#m935904d9a7" x="210.343296" y="109.036981" style="stroke: #000000; stroke-width: 0.8"/>
      </g>
     </g>
     <g id="text_29">
      <!-- $\mathdefault{100}$ -->
      <g transform="translate(203.992022 121.571783) scale(0.08 -0.08)">
       <use xlink:href="#CMR17-31" transform="scale(0.996264)"/>
       <use xlink:href="#CMR17-30" transform="translate(45.690477 0) scale(0.996264)"/>
       <use xlink:href="#CMR17-30" transform="translate(91.380954 0) scale(0.996264)"/>
      </g>
     </g>
    </g>
    <g id="text_30">
     <!-- $\sigma_t$ -->
     <g transform="translate(172.396702 129.656331) scale(0.08 -0.08)">
      <use xlink:href="#CMMI12-1b" transform="scale(0.996264)"/>
      <use xlink:href="#CMMI12-74" transform="translate(55.445461 -14.943915) scale(0.697382)"/>
     </g>
    </g>
   </g>
   <g id="matplotlib.axis_8">
    <g id="ytick_10">
     <g id="line2d_46">
      <g>
       <use xlink:href="#mc560aca340" x="138.729665" y="109.036981" style="stroke: #000000; stroke-width: 0.8"/>
      </g>
     </g>
     <g id="text_31">
      <!-- $10^{-2}$ -->
      <g transform="translate(113.852247 111.804382) scale(0.08 -0.08)">
       <use xlink:href="#CMR17-31" transform="scale(0.996264)"/>
       <use xlink:href="#CMR17-30" transform="translate(45.690477 0) scale(0.996264)"/>
       <use xlink:href="#CMSY10-0" transform="translate(91.380954 36.153639) scale(0.697382)"/>
       <use xlink:href="#CMR17-32" transform="translate(145.621947 36.153639) scale(0.697382)"/>
      </g>
     </g>
    </g>
    <g id="ytick_11">
     <g id="line2d_47">
      <g>
       <use xlink:href="#mc560aca340" x="138.729665" y="91.087282" style="stroke: #000000; stroke-width: 0.8"/>
      </g>
     </g>
     <g id="text_32">
      <!-- $10^{-1}$ -->
      <g transform="translate(113.852247 93.854683) scale(0.08 -0.08)">
       <use xlink:href="#CMR17-31" transform="scale(0.996264)"/>
       <use xlink:href="#CMR17-30" transform="translate(45.690477 0) scale(0.996264)"/>
       <use xlink:href="#CMSY10-0" transform="translate(91.380954 36.153639) scale(0.697382)"/>
       <use xlink:href="#CMR17-31" transform="translate(145.621947 36.153639) scale(0.697382)"/>
      </g>
     </g>
    </g>
    <g id="ytick_12">
     <g id="line2d_48">
      <g>
       <use xlink:href="#mc560aca340" x="138.729665" y="73.137582" style="stroke: #000000; stroke-width: 0.8"/>
      </g>
     </g>
     <g id="text_33">
      <!-- $10^{0}$ -->
      <g transform="translate(119.608387 75.904983) scale(0.08 -0.08)">
       <use xlink:href="#CMR17-31" transform="scale(0.996264)"/>
       <use xlink:href="#CMR17-30" transform="translate(45.690477 0) scale(0.996264)"/>
       <use xlink:href="#CMR17-30" transform="translate(91.380954 36.153639) scale(0.697382)"/>
      </g>
     </g>
    </g>
   </g>
   <g id="line2d_49">
    <path d="M 142.139838 92.511785 
L 142.140019 92.650674 
L 142.140247 92.879511 
L 142.140536 92.907688 
L 142.140902 92.540367 
L 142.141364 92.244367 
L 142.141949 92.004448 
L 142.142689 92.059566 
L 142.143624 92.277054 
L 142.144808 92.439534 
L 142.146304 92.693469 
L 142.148198 92.65169 
L 142.150593 93.167822 
L 142.153622 93.016088 
L 142.157453 93.375002 
L 142.162299 92.917423 
L 142.168429 92.833093 
L 142.176182 92.79223 
L 142.185988 92.786259 
L 142.198392 92.315821 
L 142.214081 92.379053 
L 142.233925 92.36024 
L 142.259025 92.061494 
L 142.290773 92.442117 
L 142.33093 92.386172 
L 142.381723 92.593668 
L 142.445968 92.72794 
L 142.527228 92.821757 
L 142.630011 93.095406 
L 142.760017 93.16388 
L 142.924455 93.068074 
L 143.132446 93.100066 
L 143.395524 92.990656 
L 143.72828 92.870425 
L 144.149167 92.766289 
L 144.681529 92.835898 
L 145.35489 92.614276 
L 146.206594 92.704444 
L 147.283876 92.729679 
L 148.646482 92.767834 
L 150.369981 92.668314 
L 152.549958 92.848293 
L 155.307314 92.50327 
L 158.794969 92.637658 
L 163.206348 92.418787 
L 168.786104 92.498597 
L 175.843687 92.387555 
L 184.770508 92.492997 
L 196.061644 92.47838 
L 210.343296 92.700287 
" clip-path="url(#p572cf98e5d)" style="fill: none; stroke: #0000ff; stroke-width: 1.5; stroke-linecap: square"/>
   </g>
   <g id="line2d_50">
    <path d="M 142.139838 95.791497 
L 142.140019 95.15771 
L 142.140247 95.944553 
L 142.140536 95.105336 
L 142.140902 95.861889 
L 142.141364 94.835639 
L 142.141949 96.133273 
L 142.142689 95.007468 
L 142.143624 96.100389 
L 142.144808 95.081314 
L 142.146304 95.948159 
L 142.148198 95.145016 
L 142.150593 95.957124 
L 142.153622 95.081313 
L 142.157453 96.079951 
L 142.162299 94.998369 
L 142.168429 96.068576 
L 142.176182 94.960556 
L 142.185988 95.867408 
L 142.198392 95.181578 
L 142.214081 96.090243 
L 142.233925 95.025683 
L 142.259025 95.799566 
L 142.290773 95.151515 
L 142.33093 96.049986 
L 142.381723 94.94414 
L 142.445968 96.056538 
L 142.527228 94.957891 
L 142.630011 96.038037 
L 142.760017 95.178013 
L 142.924455 96.121785 
L 143.132446 95.068238 
L 143.395524 96.078759 
L 143.72828 95.03747 
L 144.149167 96.129445 
L 144.681529 95.116906 
L 145.35489 96.052318 
L 146.206594 95.025627 
L 147.283876 96.004006 
L 148.646482 95.045608 
L 150.369981 96.055148 
L 152.549958 95.090677 
L 155.307314 96.162106 
L 158.794969 95.097691 
L 163.206348 96.110272 
L 168.786104 95.114364 
L 175.843687 95.821484 
L 184.770508 94.908826 
L 196.061644 96.103431 
L 210.343296 95.009282 
" clip-path="url(#p572cf98e5d)" style="fill: none; stroke: #000000; stroke-width: 1.5; stroke-linecap: square"/>
   </g>
   <g id="line2d_51">
    <path d="M 142.139838 95.087643 
L 142.140019 93.922728 
L 142.140247 94.489008 
L 142.140536 94.567846 
L 142.140902 93.890041 
L 142.141364 93.683252 
L 142.141949 93.3843 
L 142.142689 93.266092 
L 142.143624 93.439646 
L 142.144808 93.549058 
L 142.146304 93.868689 
L 142.148198 93.860249 
L 142.150593 94.485759 
L 142.153622 94.004766 
L 142.157453 94.287735 
L 142.162299 94.340085 
L 142.168429 93.803716 
L 142.176182 94.592661 
L 142.185988 94.165959 
L 142.198392 93.951069 
L 142.214081 94.017747 
L 142.233925 95.669242 
L 142.259025 93.127815 
L 142.290773 94.588583 
L 142.33093 93.402163 
L 142.381723 94.715541 
L 142.445968 94.049725 
L 142.527228 94.552118 
L 142.630011 94.719775 
L 142.760017 94.326219 
L 142.924455 94.439964 
L 143.132446 94.489698 
L 143.395524 94.349174 
L 143.72828 94.515045 
L 144.149167 93.883946 
L 144.681529 94.408056 
L 145.35489 93.944765 
L 146.206594 95.116136 
L 147.283876 94.038481 
L 148.646482 94.123701 
L 150.369981 95.550915 
L 152.549958 94.637284 
L 155.307314 93.578117 
L 158.794969 93.714352 
L 163.206348 93.406616 
L 168.786104 94.54444 
L 175.843687 93.579191 
L 184.770508 93.883547 
L 196.061644 93.771786 
L 210.343296 94.476137 
" clip-path="url(#p572cf98e5d)" style="fill: none; stroke-dasharray: 5.55,2.4; stroke-dashoffset: 0; stroke: #0000ff; stroke-width: 1.5"/>
   </g>
   <g id="line2d_52">
    <path d="M 142.139838 91.353125 
L 142.140019 91.700376 
L 142.140247 91.662767 
L 142.140536 91.57136 
L 142.140902 91.2842 
L 142.141364 90.639877 
L 142.141949 91.079728 
L 142.142689 90.941188 
L 142.143624 91.301565 
L 142.144808 91.258871 
L 142.146304 91.372514 
L 142.148198 91.444036 
L 142.150593 92.119974 
L 142.153622 91.739501 
L 142.157453 92.073285 
L 142.162299 91.925512 
L 142.168429 91.661667 
L 142.176182 91.50039 
L 142.185988 91.654668 
L 142.198392 91.416923 
L 142.214081 91.170513 
L 142.233925 91.502899 
L 142.259025 91.359666 
L 142.290773 91.24636 
L 142.33093 91.272601 
L 142.381723 91.044012 
L 142.445968 91.425439 
L 142.527228 91.231389 
L 142.630011 91.83545 
L 142.760017 92.251939 
L 142.924455 92.022137 
L 143.132446 91.407835 
L 143.395524 91.993191 
L 143.72828 91.763241 
L 144.149167 91.735501 
L 144.681529 91.494905 
L 145.35489 91.75372 
L 146.206594 91.329143 
L 147.283876 91.567841 
L 148.646482 91.322416 
L 150.369981 91.33645 
L 152.549958 91.980717 
L 155.307314 91.833302 
L 158.794969 91.270602 
L 163.206348 91.412232 
L 168.786104 91.807167 
L 175.843687 91.556364 
L 184.770508 90.484339 
L 196.061644 91.239629 
L 210.343296 91.646676 
" clip-path="url(#p572cf98e5d)" style="fill: none; stroke-dasharray: 1.5,2.475; stroke-dashoffset: 0; stroke: #0000ff; stroke-width: 1.5"/>
   </g>
   <g id="line2d_53">
    <path d="M 142.139838 96.34548 
L 142.140019 95.480523 
L 142.140247 96.32613 
L 142.140536 95.531334 
L 142.140902 96.391515 
L 142.141364 95.59748 
L 142.141949 96.287429 
L 142.142689 95.522564 
L 142.143624 96.296851 
L 142.144808 95.421772 
L 142.146304 96.323765 
L 142.148198 95.448197 
L 142.150593 96.336364 
L 142.153622 95.436857 
L 142.157453 96.280226 
L 142.162299 95.389721 
L 142.168429 96.29261 
L 142.176182 95.455127 
L 142.185988 96.359686 
L 142.198392 95.407752 
L 142.214081 96.278128 
L 142.233925 95.578907 
L 142.259025 96.336874 
L 142.290773 95.400476 
L 142.33093 96.374943 
L 142.381723 95.492647 
L 142.445968 96.258439 
L 142.527228 95.464832 
L 142.630011 96.314238 
L 142.760017 95.380721 
L 142.924455 96.32573 
L 143.132446 95.491502 
L 143.395524 96.290001 
L 143.72828 95.434065 
L 144.149167 96.304796 
L 144.681529 95.437376 
L 145.35489 96.373478 
L 146.206594 95.512721 
L 147.283876 96.333741 
L 148.646482 95.368255 
L 150.369981 96.320637 
L 152.549958 95.516656 
L 155.307314 96.314856 
L 158.794969 95.469298 
L 163.206348 96.334068 
L 168.786104 95.429489 
L 175.843687 96.364073 
L 184.770508 95.426992 
L 196.061644 96.301675 
L 210.343296 95.389334 
" clip-path="url(#p572cf98e5d)" style="fill: none; stroke-dasharray: 5.55,2.4; stroke-dashoffset: 0; stroke: #000000; stroke-width: 1.5"/>
   </g>
   <g id="line2d_54">
    <path d="M 142.139838 91.819447 
L 142.140019 94.302741 
L 142.140247 92.180832 
L 142.140536 94.100742 
L 142.140902 92.729572 
L 142.141364 91.025919 
L 142.141949 95.4481 
L 142.142689 93.315332 
L 142.143624 95.72228 
L 142.144808 93.117173 
L 142.146304 92.242148 
L 142.148198 94.48872 
L 142.150593 92.244756 
L 142.153622 92.917132 
L 142.157453 95.299933 
L 142.162299 91.836084 
L 142.168429 94.751828 
L 142.176182 91.655887 
L 142.185988 93.464113 
L 142.198392 94.651158 
L 142.214081 95.333795 
L 142.233925 91.498098 
L 142.259025 92.63484 
L 142.290773 94.515391 
L 142.33093 95.378787 
L 142.381723 91.920692 
L 142.445968 95.511475 
L 142.527228 91.327092 
L 142.630011 95.314016 
L 142.760017 94.605814 
L 142.924455 95.507706 
L 143.132446 93.479835 
L 143.395524 95.429813 
L 143.72828 94.012011 
L 144.149167 95.890782 
L 144.681529 94.237014 
L 145.35489 95.219878 
L 146.206594 92.165877 
L 147.283876 95.263231 
L 148.646482 94.447855 
L 150.369981 95.399183 
L 152.549958 94.180401 
L 155.307314 95.911219 
L 158.794969 94.415117 
L 163.206348 95.455485 
L 168.786104 94.366478 
L 175.843687 92.837768 
L 184.770508 90.784391 
L 196.061644 95.527654 
L 210.343296 93.077774 
" clip-path="url(#p572cf98e5d)" style="fill: none; stroke-dasharray: 1.5,2.475; stroke-dashoffset: 0; stroke: #000000; stroke-width: 1.5"/>
   </g>
   <g id="patch_20">
    <path d="M 138.729665 109.036981 
L 138.729665 73.137582 
" style="fill: none; stroke: #000000; stroke-width: 0.8; stroke-linejoin: miter; stroke-linecap: square"/>
   </g>
   <g id="patch_21">
    <path d="M 213.753469 109.036981 
L 213.753469 73.137582 
" style="fill: none; stroke: #000000; stroke-width: 0.8; stroke-linejoin: miter; stroke-linecap: square"/>
   </g>
   <g id="patch_22">
    <path d="M 138.729665 109.036981 
L 213.753469 109.036981 
" style="fill: none; stroke: #000000; stroke-width: 0.8; stroke-linejoin: miter; stroke-linecap: square"/>
   </g>
   <g id="patch_23">
    <path d="M 138.729665 73.137582 
L 213.753469 73.137582 
" style="fill: none; stroke: #000000; stroke-width: 0.8; stroke-linejoin: miter; stroke-linecap: square"/>
   </g>
   <g id="text_34">
    <!-- $\mathbf{d)}$ -->
    <g transform="translate(126.261074 67.016623) scale(0.08 -0.08)">
     <defs>
      <path id="CMBX12-64" d="M 2221 4428 
L 2221 4153 
C 2618 4153 2662 4153 2662 3896 
L 2662 2571 
C 2522 2694 2240 2880 1798 2880 
C 890 2880 243 2313 243 1408 
C 243 483 877 -64 1728 -64 
C 2080 -64 2381 57 2630 270 
L 2630 -64 
L 3770 -26 
L 3770 250 
C 3373 250 3328 250 3328 502 
L 3328 4480 
L 2221 4428 
z
M 2630 625 
C 2362 231 2035 147 1805 147 
C 1011 147 1011 968 1011 1395 
C 1011 1699 1011 2022 1152 2268 
C 1350 2630 1728 2668 1875 2668 
C 2138 2668 2419 2552 2630 2268 
L 2630 625 
z
" transform="scale(0.015625)"/>
     </defs>
     <use xlink:href="#CMBX12-64" transform="scale(0.996264)"/>
     <use xlink:href="#CMR17-29" transform="translate(62.266501 0) scale(0.996264)"/>
    </g>
   </g>
  </g>
 </g>
 <defs>
  <clipPath id="p91aa66b719">
   <rect x="37.44753" y="15.698543" width="75.023804" height="35.899399"/>
  </clipPath>
  <clipPath id="p1eecfade27">
   <rect x="138.729665" y="15.698543" width="75.023804" height="35.899399"/>
  </clipPath>
  <clipPath id="pbe6d3383f0">
   <rect x="37.44753" y="73.137582" width="75.023804" height="35.899399"/>
  </clipPath>
  <clipPath id="p572cf98e5d">
   <rect x="138.729665" y="73.137582" width="75.023804" height="35.899399"/>
  </clipPath>
 </defs>
</svg>
